M48
; DRILL file {KiCad (7.0.0)} date Mon Mar 13 00:33:00 2023
; FORMAT={-:-/ absolute / metric / decimal}
; #@! TF.CreationDate,2023-03-13T00:33:00+00:00
; #@! TF.GenerationSoftware,Kicad,Pcbnew,(7.0.0)
; #@! TF.FileFunction,Plated,1,4,PTH
FMAT,2
METRIC
; #@! TA.AperFunction,Plated,PTH,ViaDrill
T1C0.400
; #@! TA.AperFunction,Plated,PTH,ComponentDrill
T2C0.800
; #@! TA.AperFunction,Plated,PTH,ComponentDrill
T3C1.000
; #@! TA.AperFunction,Plated,PTH,ComponentDrill
T4C1.270
%
G90
G05
T1
X30.0Y-29.0
X30.0Y-34.2
X30.0Y-39.0
X30.0Y-44.0
X30.0Y-49.0
X35.0Y-54.0
X35.0Y-59.0
X35.0Y-65.0
X35.0Y-70.0
X40.0Y-54.0
X40.0Y-62.0
X40.0Y-70.0
X44.0Y-29.1
X44.021Y-41.975
X44.021Y-43.025
X45.8Y-63.1
X45.8Y-68.7
X46.3Y-46.0
X46.8Y-63.1
X46.8Y-68.7
X47.7Y-41.0
X48.3Y-66.124
X49.0Y-29.0
X50.15Y-65.876
X51.1Y-69.6
X51.8Y-67.7
X53.1Y-63.7
X53.3Y-69.6
X54.0Y-29.0
X54.0Y-46.0
X54.2Y-68.2
X54.225Y-67.2
X54.4Y-58.2
X54.4Y-62.6
X54.4Y-63.7
X55.0Y-54.0
X55.7Y-58.2
X55.7Y-62.6
X55.7Y-63.7
X57.54Y-49.7
X57.8Y-54.9
X58.9Y-66.4
X58.9Y-67.5
X59.0Y-29.0
X59.2Y-68.5
X59.2Y-69.7
X60.2Y-68.5
X60.2Y-69.7
X60.4Y-63.9
X60.7Y-59.5
X60.8Y-67.7
X61.3Y-62.3
X62.8Y-52.4
X63.0Y-69.2
X63.5Y-70.0
X64.0Y-29.0
X64.0Y-46.0
X64.0Y-64.6
X64.5Y-62.3
X65.9Y-54.2
X68.3Y-69.799
X68.7Y-58.5
X69.0Y-29.0
X69.0Y-46.0
X69.0Y-66.9
X69.1Y-64.0
X69.1Y-65.6
X69.4Y-51.8
X72.5Y-53.6
X72.5Y-57.7
X74.0Y-29.0
X74.7Y-51.1
X75.779Y-41.975
X75.779Y-43.025
X76.1Y-59.5
X77.3Y-64.3
X77.3Y-65.8
X77.8Y-56.3
X78.0Y-70.0
X81.9Y-53.5
X81.9Y-57.3
X83.0Y-59.0
X83.0Y-70.0
X90.0Y-29.0
X90.0Y-34.0
X90.0Y-39.0
X90.0Y-44.0
X90.0Y-49.0
X90.0Y-54.0
X90.0Y-59.0
X90.0Y-70.0
T2
X38.0Y-30.0
X38.0Y-32.0
X38.0Y-34.0
X38.0Y-36.0
X38.0Y-38.0
X38.0Y-40.0
X38.0Y-42.0
X38.0Y-44.0
X38.0Y-46.0
X38.0Y-48.0
X40.0Y-30.0
X40.0Y-32.0
X40.0Y-34.0
X40.0Y-36.0
X40.0Y-38.0
X40.0Y-40.0
X40.0Y-42.0
X40.0Y-44.0
X40.0Y-46.0
X40.0Y-48.0
X79.8Y-30.0
X79.8Y-32.0
X79.8Y-34.0
X79.8Y-36.0
X79.8Y-38.0
X79.8Y-40.0
X79.8Y-42.0
X79.8Y-44.0
X79.8Y-46.0
X79.8Y-48.0
X81.8Y-30.0
X81.8Y-32.0
X81.8Y-34.0
X81.8Y-36.0
X81.8Y-38.0
X81.8Y-40.0
X81.8Y-42.0
X81.8Y-44.0
X81.8Y-46.0
X81.8Y-48.0
T3
X84.56Y-62.02
X84.56Y-64.56
X84.56Y-67.1
X87.1Y-62.02
X87.1Y-64.56
X87.1Y-67.1
T4
X42.675Y-58.19
X42.675Y-65.81
T0
M30
