%TF.GenerationSoftware,KiCad,Pcbnew,(7.0.0)*%
%TF.CreationDate,2023-03-14T17:44:31+00:00*%
%TF.ProjectId,main,6d61696e-2e6b-4696-9361-645f70636258,1.0*%
%TF.SameCoordinates,Original*%
%TF.FileFunction,Copper,L4,Bot*%
%TF.FilePolarity,Positive*%
%FSLAX46Y46*%
G04 Gerber Fmt 4.6, Leading zero omitted, Abs format (unit mm)*
G04 Created by KiCad (PCBNEW (7.0.0)) date 2023-03-14 17:44:31*
%MOMM*%
%LPD*%
G01*
G04 APERTURE LIST*
%TA.AperFunction,ComponentPad*%
%ADD10R,1.350000X1.350000*%
%TD*%
%TA.AperFunction,ComponentPad*%
%ADD11O,1.350000X1.350000*%
%TD*%
%TA.AperFunction,ComponentPad*%
%ADD12R,1.700000X1.700000*%
%TD*%
%TA.AperFunction,ComponentPad*%
%ADD13O,1.700000X1.700000*%
%TD*%
%TA.AperFunction,ViaPad*%
%ADD14C,0.800000*%
%TD*%
%TA.AperFunction,Conductor*%
%ADD15C,0.200000*%
%TD*%
%TA.AperFunction,Conductor*%
%ADD16C,0.250000*%
%TD*%
%TA.AperFunction,Conductor*%
%ADD17C,1.000000*%
%TD*%
G04 APERTURE END LIST*
D10*
X71299999Y-47999999D03*
D11*
X71299999Y-45999999D03*
X71299999Y-43999999D03*
X71299999Y-41999999D03*
X71299999Y-39999999D03*
X71299999Y-37999999D03*
X71299999Y-35999999D03*
X71299999Y-33999999D03*
X71299999Y-31999999D03*
X71299999Y-29999999D03*
X73299999Y-47999999D03*
X73299999Y-45999999D03*
X73299999Y-43999999D03*
X73299999Y-41999999D03*
X73299999Y-39999999D03*
X73299999Y-37999999D03*
X73299999Y-35999999D03*
X73299999Y-33999999D03*
X73299999Y-31999999D03*
X73299999Y-29999999D03*
X37999999Y-47999999D03*
X37999999Y-45999999D03*
X37999999Y-43999999D03*
X37999999Y-41999999D03*
X37999999Y-39999999D03*
X37999999Y-37999999D03*
X37999999Y-35999999D03*
X37999999Y-33999999D03*
X37999999Y-31999999D03*
X37999999Y-29999999D03*
X39999999Y-47999999D03*
X39999999Y-45999999D03*
X39999999Y-43999999D03*
X39999999Y-41999999D03*
X39999999Y-39999999D03*
X39999999Y-37999999D03*
X39999999Y-35999999D03*
X39999999Y-33999999D03*
X39999999Y-31999999D03*
D10*
X39999999Y-29999999D03*
D12*
X76059999Y-62019999D03*
D13*
X78599999Y-62019999D03*
X76059999Y-64559999D03*
X78599999Y-64559999D03*
X76059999Y-67099999D03*
X78599999Y-67099999D03*
D14*
X36000000Y-55000000D03*
X44000000Y-29000000D03*
X32900000Y-67700000D03*
X32900000Y-69000000D03*
X45000000Y-58200000D03*
X54300000Y-52400000D03*
X43900000Y-69600000D03*
X45000000Y-62600000D03*
X46300000Y-58200000D03*
X45000000Y-63700000D03*
X46300000Y-63700000D03*
X64000000Y-53600000D03*
X46300000Y-62600000D03*
X43700000Y-63700000D03*
X50800000Y-68500000D03*
X67600000Y-59500000D03*
X51400000Y-67700000D03*
X52200000Y-59500000D03*
X60600000Y-64000000D03*
X50800000Y-69700000D03*
X60200000Y-58500000D03*
X49300000Y-54900000D03*
X66200000Y-51100000D03*
X64000000Y-57700000D03*
X74300000Y-56600000D03*
X60500000Y-66900000D03*
X47020992Y-43025000D03*
X64279008Y-43025000D03*
X64279008Y-41975000D03*
X47020992Y-41975000D03*
X49800000Y-68500000D03*
X48200000Y-49700000D03*
X36400000Y-68700000D03*
X81000000Y-29000000D03*
X81000000Y-39000000D03*
X56000000Y-62300000D03*
X42400000Y-67700000D03*
X55500000Y-64600000D03*
X81000000Y-34000000D03*
X40750000Y-65875500D03*
X30500000Y-66400000D03*
X69000000Y-46000000D03*
X81000000Y-70000000D03*
X81000000Y-59000000D03*
X30000000Y-29000000D03*
X44800000Y-68200000D03*
X59000000Y-46000000D03*
X30500000Y-69000000D03*
X69500000Y-70000000D03*
X81000000Y-44000000D03*
X49500000Y-66400000D03*
X51900000Y-62300000D03*
X37400000Y-63100000D03*
X60600000Y-65599503D03*
X59800000Y-69799500D03*
X30000000Y-44000000D03*
X55000000Y-70000000D03*
X69300000Y-56300000D03*
X44000000Y-46000000D03*
X57400000Y-54200000D03*
X30000000Y-39000000D03*
X30500000Y-67700000D03*
X31700000Y-69900000D03*
X51000000Y-63900000D03*
X50000000Y-58900000D03*
X30000000Y-34200000D03*
X37400000Y-68700000D03*
X81000000Y-54000000D03*
X81000000Y-49000000D03*
X44825000Y-67200000D03*
X60900000Y-51800000D03*
X49800000Y-69700000D03*
X54500000Y-69200000D03*
X47000000Y-55000000D03*
X49500000Y-67500000D03*
X36400000Y-63100000D03*
X69000000Y-29000000D03*
X68800000Y-65800000D03*
X68800000Y-64300000D03*
X41700000Y-69600000D03*
X38900000Y-66124500D03*
D15*
X43900000Y-69600000D02*
X43900000Y-65700000D01*
X43900000Y-65700000D02*
X45000000Y-64600000D01*
X45000000Y-64600000D02*
X45000000Y-63700000D01*
X52900000Y-58500000D02*
X49300000Y-54900000D01*
X60200000Y-58500000D02*
X52900000Y-58500000D01*
X64000000Y-57700000D02*
X66200000Y-55500000D01*
X66200000Y-55500000D02*
X66200000Y-51100000D01*
X71300000Y-36000000D02*
X40000000Y-36000000D01*
X71300000Y-44000000D02*
X40000000Y-44000000D01*
X70898000Y-31000000D02*
X72300000Y-31000000D01*
X70098000Y-31800000D02*
X70898000Y-31000000D01*
X39000000Y-31000000D02*
X40400000Y-31000000D01*
X41200000Y-31800000D02*
X70098000Y-31800000D01*
X38000000Y-30000000D02*
X39000000Y-31000000D01*
X40400000Y-31000000D02*
X41200000Y-31800000D01*
X72300000Y-31000000D02*
X73300000Y-30000000D01*
X39000000Y-33000000D02*
X40400000Y-33000000D01*
X40400000Y-33000000D02*
X41200000Y-32200000D01*
X70898000Y-33000000D02*
X72300000Y-33000000D01*
X41200000Y-32200000D02*
X70098000Y-32200000D01*
X38000000Y-34000000D02*
X39000000Y-33000000D01*
X72300000Y-33000000D02*
X73300000Y-34000000D01*
X70098000Y-32200000D02*
X70898000Y-33000000D01*
X73300000Y-40000000D02*
X72300000Y-39000000D01*
X39000000Y-39000000D02*
X38000000Y-40000000D01*
X72300000Y-39000000D02*
X39000000Y-39000000D01*
D16*
X72300000Y-45000000D02*
X73300000Y-46000000D01*
X38000000Y-46000000D02*
X39000000Y-45000000D01*
X39000000Y-45000000D02*
X72300000Y-45000000D01*
D15*
X72300000Y-47000000D02*
X73300000Y-48000000D01*
X38000000Y-48000000D02*
X39000000Y-47000000D01*
X39000000Y-47000000D02*
X72300000Y-47000000D01*
D16*
X60500000Y-66900000D02*
X61600000Y-66900000D01*
X71900000Y-56600000D02*
X74300000Y-56600000D01*
X61600000Y-66900000D02*
X71900000Y-56600000D01*
D17*
X71300000Y-48000000D02*
X40000000Y-48000000D01*
D15*
X63979009Y-42725001D02*
X64279008Y-43025000D01*
X47000000Y-43025000D02*
X47299999Y-42725001D01*
X47299999Y-42725001D02*
X63979009Y-42725001D01*
X63979009Y-42274999D02*
X47299999Y-42274999D01*
X64279008Y-41975000D02*
X63979009Y-42274999D01*
X47299999Y-42274999D02*
X47000000Y-41975000D01*
X77300000Y-65800000D02*
X78600000Y-67100000D01*
X68800000Y-65800000D02*
X77300000Y-65800000D01*
X77420000Y-63200000D02*
X73700000Y-63200000D01*
X72600000Y-64300000D02*
X68800000Y-64300000D01*
X78600000Y-62020000D02*
X77420000Y-63200000D01*
X73700000Y-63200000D02*
X72600000Y-64300000D01*
X41700000Y-69600000D02*
X41700000Y-68924500D01*
X41700000Y-68924500D02*
X38900000Y-66124500D01*
%TA.AperFunction,Conductor*%
G36*
X72037001Y-45634939D02*
G01*
X72077229Y-45661819D01*
X72103401Y-45687991D01*
X72132350Y-45733561D01*
X72139191Y-45787113D01*
X72119464Y-46000000D01*
X72139565Y-46216923D01*
X72146577Y-46241568D01*
X72149200Y-46298283D01*
X72126266Y-46350226D01*
X72082583Y-46386500D01*
X72027311Y-46399500D01*
X39272689Y-46399500D01*
X39217417Y-46386500D01*
X39173734Y-46350226D01*
X39150800Y-46298283D01*
X39153422Y-46241568D01*
X39160435Y-46216923D01*
X39180536Y-46000000D01*
X39160808Y-45787113D01*
X39167650Y-45733560D01*
X39196600Y-45687989D01*
X39222773Y-45661817D01*
X39263001Y-45634938D01*
X39310453Y-45625500D01*
X71989548Y-45625500D01*
X72037001Y-45634939D01*
G37*
%TD.AperFunction*%
%TA.AperFunction,Conductor*%
G36*
X83006061Y-26801097D02*
G01*
X83016051Y-26802080D01*
X83143824Y-26814665D01*
X83167652Y-26819404D01*
X83294277Y-26857815D01*
X83316725Y-26867114D01*
X83433406Y-26929482D01*
X83453616Y-26942986D01*
X83555891Y-27026920D01*
X83573079Y-27044108D01*
X83657012Y-27146381D01*
X83670517Y-27166593D01*
X83732883Y-27283271D01*
X83742186Y-27305728D01*
X83780593Y-27432338D01*
X83785335Y-27456180D01*
X83798903Y-27593938D01*
X83799500Y-27606092D01*
X83799500Y-70693908D01*
X83798903Y-70706062D01*
X83785335Y-70843819D01*
X83780593Y-70867661D01*
X83742186Y-70994271D01*
X83732883Y-71016728D01*
X83670517Y-71133406D01*
X83657012Y-71153618D01*
X83573079Y-71255891D01*
X83555891Y-71273079D01*
X83453618Y-71357012D01*
X83433406Y-71370517D01*
X83316728Y-71432883D01*
X83294271Y-71442186D01*
X83167661Y-71480593D01*
X83143819Y-71485335D01*
X83006062Y-71498903D01*
X82993908Y-71499500D01*
X28306092Y-71499500D01*
X28293938Y-71498903D01*
X28156180Y-71485335D01*
X28132340Y-71480593D01*
X28005728Y-71442186D01*
X27983271Y-71432883D01*
X27866593Y-71370517D01*
X27846381Y-71357012D01*
X27744108Y-71273079D01*
X27726920Y-71255891D01*
X27642986Y-71153616D01*
X27629482Y-71133406D01*
X27567116Y-71016728D01*
X27557815Y-70994277D01*
X27519404Y-70867652D01*
X27514665Y-70843824D01*
X27501097Y-70706061D01*
X27500500Y-70693908D01*
X27500500Y-66124500D01*
X37994540Y-66124500D01*
X37995219Y-66130960D01*
X38013646Y-66306295D01*
X38013647Y-66306303D01*
X38014326Y-66312756D01*
X38016331Y-66318928D01*
X38016333Y-66318935D01*
X38067598Y-66476709D01*
X38072821Y-66492784D01*
X38076068Y-66498408D01*
X38076069Y-66498410D01*
X38127097Y-66586794D01*
X38167467Y-66656716D01*
X38171811Y-66661541D01*
X38171813Y-66661543D01*
X38222831Y-66718204D01*
X38294129Y-66797388D01*
X38447270Y-66908651D01*
X38620197Y-66985644D01*
X38805354Y-67025000D01*
X38899903Y-67025000D01*
X38947356Y-67034439D01*
X38987584Y-67061319D01*
X40909916Y-68983651D01*
X40938757Y-69028921D01*
X40945763Y-69082139D01*
X40929623Y-69133331D01*
X40876070Y-69226089D01*
X40872821Y-69231716D01*
X40870815Y-69237888D01*
X40870813Y-69237894D01*
X40816333Y-69405564D01*
X40816331Y-69405573D01*
X40814326Y-69411744D01*
X40813648Y-69418194D01*
X40813646Y-69418204D01*
X40795962Y-69586464D01*
X40794540Y-69600000D01*
X40795219Y-69606460D01*
X40813646Y-69781795D01*
X40813647Y-69781803D01*
X40814326Y-69788256D01*
X40816331Y-69794428D01*
X40816333Y-69794435D01*
X40870813Y-69962105D01*
X40872821Y-69968284D01*
X40967467Y-70132216D01*
X40971811Y-70137041D01*
X40971813Y-70137043D01*
X41061854Y-70237043D01*
X41094129Y-70272888D01*
X41247270Y-70384151D01*
X41420197Y-70461144D01*
X41605354Y-70500500D01*
X41788143Y-70500500D01*
X41794646Y-70500500D01*
X41979803Y-70461144D01*
X42152730Y-70384151D01*
X42305871Y-70272888D01*
X42432533Y-70132216D01*
X42527179Y-69968284D01*
X42585674Y-69788256D01*
X42605460Y-69600000D01*
X42585674Y-69411744D01*
X42527179Y-69231716D01*
X42432533Y-69067784D01*
X42397540Y-69028921D01*
X42331815Y-68955926D01*
X42311355Y-68924868D01*
X42301027Y-68889143D01*
X42285044Y-68767738D01*
X42224536Y-68621659D01*
X42152450Y-68527715D01*
X42128282Y-68496218D01*
X42103222Y-68476989D01*
X42091034Y-68466299D01*
X39841100Y-66216365D01*
X39814220Y-66176137D01*
X39804937Y-66129470D01*
X39805460Y-66124500D01*
X39791141Y-65988256D01*
X39786353Y-65942704D01*
X39786352Y-65942703D01*
X39785674Y-65936244D01*
X39727179Y-65756216D01*
X39632533Y-65592284D01*
X39505871Y-65451612D01*
X39500613Y-65447792D01*
X39500611Y-65447790D01*
X39357988Y-65344169D01*
X39357987Y-65344168D01*
X39352730Y-65340349D01*
X39334138Y-65332071D01*
X39185745Y-65266001D01*
X39185740Y-65265999D01*
X39179803Y-65263356D01*
X39173444Y-65262004D01*
X39173440Y-65262003D01*
X39001008Y-65225352D01*
X39001005Y-65225351D01*
X38994646Y-65224000D01*
X38805354Y-65224000D01*
X38798995Y-65225351D01*
X38798991Y-65225352D01*
X38626559Y-65262003D01*
X38626552Y-65262005D01*
X38620197Y-65263356D01*
X38614262Y-65265998D01*
X38614254Y-65266001D01*
X38453207Y-65337705D01*
X38453202Y-65337707D01*
X38447270Y-65340349D01*
X38442016Y-65344165D01*
X38442011Y-65344169D01*
X38299388Y-65447790D01*
X38299381Y-65447795D01*
X38294129Y-65451612D01*
X38289784Y-65456437D01*
X38289779Y-65456442D01*
X38171813Y-65587456D01*
X38171808Y-65587462D01*
X38167467Y-65592284D01*
X38164222Y-65597904D01*
X38164218Y-65597910D01*
X38076069Y-65750589D01*
X38076066Y-65750594D01*
X38072821Y-65756216D01*
X38070815Y-65762388D01*
X38070813Y-65762394D01*
X38016333Y-65930064D01*
X38016331Y-65930073D01*
X38014326Y-65936244D01*
X38013648Y-65942694D01*
X38013646Y-65942704D01*
X38001161Y-66061505D01*
X37994540Y-66124500D01*
X27500500Y-66124500D01*
X27500500Y-63700000D01*
X42794540Y-63700000D01*
X42795219Y-63706460D01*
X42813646Y-63881795D01*
X42813647Y-63881803D01*
X42814326Y-63888256D01*
X42816331Y-63894428D01*
X42816333Y-63894435D01*
X42848535Y-63993540D01*
X42872821Y-64068284D01*
X42876068Y-64073908D01*
X42876069Y-64073910D01*
X42942086Y-64188256D01*
X42967467Y-64232216D01*
X42971811Y-64237041D01*
X42971813Y-64237043D01*
X43049999Y-64323877D01*
X43094129Y-64372888D01*
X43099387Y-64376708D01*
X43099388Y-64376709D01*
X43165316Y-64424608D01*
X43247270Y-64484151D01*
X43420197Y-64561144D01*
X43605354Y-64600500D01*
X43788143Y-64600500D01*
X43794646Y-64600500D01*
X43836789Y-64591542D01*
X43899649Y-64594506D01*
X43952961Y-64627948D01*
X43982990Y-64683253D01*
X43982001Y-64746178D01*
X43950250Y-64800513D01*
X43508965Y-65241798D01*
X43496774Y-65252490D01*
X43478165Y-65266770D01*
X43478161Y-65266773D01*
X43471718Y-65271718D01*
X43466774Y-65278160D01*
X43466772Y-65278163D01*
X43425407Y-65332071D01*
X43425408Y-65332071D01*
X43380411Y-65390711D01*
X43380408Y-65390714D01*
X43375464Y-65397159D01*
X43372355Y-65404663D01*
X43372353Y-65404668D01*
X43318066Y-65535728D01*
X43318064Y-65535733D01*
X43314956Y-65543238D01*
X43313896Y-65551289D01*
X43313894Y-65551297D01*
X43295702Y-65689482D01*
X43294318Y-65700000D01*
X43295379Y-65708059D01*
X43298439Y-65731302D01*
X43299500Y-65747487D01*
X43299500Y-68873548D01*
X43291264Y-68917986D01*
X43267650Y-68956520D01*
X43171813Y-69062956D01*
X43171808Y-69062962D01*
X43167467Y-69067784D01*
X43164222Y-69073404D01*
X43164218Y-69073410D01*
X43076069Y-69226089D01*
X43076068Y-69226092D01*
X43072821Y-69231716D01*
X43070815Y-69237888D01*
X43070813Y-69237894D01*
X43016333Y-69405564D01*
X43016331Y-69405573D01*
X43014326Y-69411744D01*
X43013648Y-69418194D01*
X43013646Y-69418204D01*
X42995962Y-69586464D01*
X42994540Y-69600000D01*
X42995219Y-69606460D01*
X43013646Y-69781795D01*
X43013647Y-69781803D01*
X43014326Y-69788256D01*
X43016331Y-69794428D01*
X43016333Y-69794435D01*
X43070813Y-69962105D01*
X43072821Y-69968284D01*
X43167467Y-70132216D01*
X43171811Y-70137041D01*
X43171813Y-70137043D01*
X43261854Y-70237043D01*
X43294129Y-70272888D01*
X43447270Y-70384151D01*
X43620197Y-70461144D01*
X43805354Y-70500500D01*
X43988143Y-70500500D01*
X43994646Y-70500500D01*
X44179803Y-70461144D01*
X44352730Y-70384151D01*
X44505871Y-70272888D01*
X44632533Y-70132216D01*
X44727179Y-69968284D01*
X44785674Y-69788256D01*
X44794950Y-69700000D01*
X49894540Y-69700000D01*
X49895219Y-69706460D01*
X49913646Y-69881795D01*
X49913647Y-69881803D01*
X49914326Y-69888256D01*
X49916331Y-69894428D01*
X49916333Y-69894435D01*
X49970813Y-70062105D01*
X49972821Y-70068284D01*
X50067467Y-70232216D01*
X50194129Y-70372888D01*
X50347270Y-70484151D01*
X50520197Y-70561144D01*
X50705354Y-70600500D01*
X50888143Y-70600500D01*
X50894646Y-70600500D01*
X51079803Y-70561144D01*
X51252730Y-70484151D01*
X51405871Y-70372888D01*
X51532533Y-70232216D01*
X51627179Y-70068284D01*
X51685674Y-69888256D01*
X51705460Y-69700000D01*
X51685674Y-69511744D01*
X51627179Y-69331716D01*
X51532533Y-69167784D01*
X51533007Y-69167510D01*
X51514427Y-69125784D01*
X51514427Y-69074216D01*
X51533007Y-69032489D01*
X51532533Y-69032216D01*
X51534435Y-69028921D01*
X51627179Y-68868284D01*
X51685674Y-68688256D01*
X51692494Y-68623360D01*
X51715497Y-68563436D01*
X51765378Y-68523042D01*
X51852730Y-68484151D01*
X52005871Y-68372888D01*
X52132533Y-68232216D01*
X52227179Y-68068284D01*
X52285674Y-67888256D01*
X52305460Y-67700000D01*
X52285674Y-67511744D01*
X52227179Y-67331716D01*
X52132533Y-67167784D01*
X52060925Y-67088256D01*
X52010220Y-67031942D01*
X52010219Y-67031941D01*
X52005871Y-67027112D01*
X52000613Y-67023292D01*
X52000611Y-67023290D01*
X51857988Y-66919669D01*
X51857987Y-66919668D01*
X51852730Y-66915849D01*
X51846792Y-66913205D01*
X51817134Y-66900000D01*
X59594540Y-66900000D01*
X59595219Y-66906460D01*
X59613646Y-67081795D01*
X59613647Y-67081803D01*
X59614326Y-67088256D01*
X59616331Y-67094428D01*
X59616333Y-67094435D01*
X59640166Y-67167784D01*
X59672821Y-67268284D01*
X59676068Y-67273908D01*
X59676069Y-67273910D01*
X59747810Y-67398170D01*
X59767467Y-67432216D01*
X59771811Y-67437041D01*
X59771813Y-67437043D01*
X59853417Y-67527673D01*
X59894129Y-67572888D01*
X60047270Y-67684151D01*
X60220197Y-67761144D01*
X60405354Y-67800500D01*
X60588143Y-67800500D01*
X60594646Y-67800500D01*
X60779803Y-67761144D01*
X60952730Y-67684151D01*
X61105871Y-67572888D01*
X61111601Y-67566523D01*
X61113271Y-67565310D01*
X61115050Y-67563709D01*
X61115218Y-67563895D01*
X61153315Y-67536219D01*
X61203748Y-67525500D01*
X61522225Y-67525500D01*
X61533280Y-67526021D01*
X61540667Y-67527673D01*
X61607872Y-67525561D01*
X61611768Y-67525500D01*
X61635448Y-67525500D01*
X61639350Y-67525500D01*
X61643313Y-67524999D01*
X61654963Y-67524080D01*
X61698627Y-67522709D01*
X61717861Y-67517119D01*
X61736917Y-67513174D01*
X61756792Y-67510664D01*
X61797395Y-67494587D01*
X61808450Y-67490802D01*
X61850390Y-67478618D01*
X61867629Y-67468422D01*
X61885103Y-67459862D01*
X61896474Y-67455360D01*
X61896476Y-67455358D01*
X61903732Y-67452486D01*
X61939069Y-67426811D01*
X61948824Y-67420403D01*
X61986420Y-67398170D01*
X62000584Y-67384005D01*
X62015379Y-67371368D01*
X62031587Y-67359594D01*
X62059428Y-67325938D01*
X62067279Y-67317309D01*
X63584588Y-65800000D01*
X67894540Y-65800000D01*
X67895219Y-65806460D01*
X67913646Y-65981795D01*
X67913647Y-65981803D01*
X67914326Y-65988256D01*
X67916331Y-65994428D01*
X67916333Y-65994435D01*
X67970813Y-66162105D01*
X67972821Y-66168284D01*
X67976068Y-66173908D01*
X67976069Y-66173910D01*
X68052501Y-66306295D01*
X68067467Y-66332216D01*
X68071811Y-66337041D01*
X68071813Y-66337043D01*
X68104558Y-66373410D01*
X68194129Y-66472888D01*
X68199387Y-66476708D01*
X68199388Y-66476709D01*
X68229257Y-66498410D01*
X68347270Y-66584151D01*
X68520197Y-66661144D01*
X68705354Y-66700500D01*
X68888143Y-66700500D01*
X68894646Y-66700500D01*
X69079803Y-66661144D01*
X69252730Y-66584151D01*
X69405871Y-66472888D01*
X69410223Y-66468055D01*
X69434110Y-66441527D01*
X69475824Y-66411220D01*
X69526259Y-66400500D01*
X74701429Y-66400500D01*
X74761072Y-66415786D01*
X74806010Y-66457875D01*
X74825164Y-66516391D01*
X74813811Y-66576904D01*
X74807502Y-66590432D01*
X74788386Y-66631427D01*
X74788383Y-66631432D01*
X74786097Y-66636337D01*
X74784698Y-66641557D01*
X74784694Y-66641569D01*
X74726337Y-66859365D01*
X74726335Y-66859371D01*
X74724937Y-66864592D01*
X74724465Y-66869977D01*
X74724465Y-66869982D01*
X74714346Y-66985644D01*
X74704341Y-67100000D01*
X74704813Y-67105395D01*
X74724121Y-67326089D01*
X74724937Y-67335408D01*
X74726336Y-67340630D01*
X74726337Y-67340634D01*
X74784694Y-67558430D01*
X74784697Y-67558438D01*
X74786097Y-67563663D01*
X74788385Y-67568570D01*
X74788386Y-67568572D01*
X74883678Y-67772927D01*
X74883681Y-67772933D01*
X74885965Y-67777830D01*
X74889064Y-67782257D01*
X74889066Y-67782259D01*
X75018399Y-67966966D01*
X75018402Y-67966970D01*
X75021505Y-67971401D01*
X75188599Y-68138495D01*
X75382170Y-68274035D01*
X75596337Y-68373903D01*
X75824592Y-68435063D01*
X76060000Y-68455659D01*
X76295408Y-68435063D01*
X76523663Y-68373903D01*
X76737830Y-68274035D01*
X76931401Y-68138495D01*
X77098495Y-67971401D01*
X77228424Y-67785842D01*
X77272743Y-67746976D01*
X77330000Y-67732965D01*
X77387257Y-67746976D01*
X77431575Y-67785842D01*
X77558395Y-67966961D01*
X77558401Y-67966968D01*
X77561505Y-67971401D01*
X77728599Y-68138495D01*
X77922170Y-68274035D01*
X78136337Y-68373903D01*
X78364592Y-68435063D01*
X78600000Y-68455659D01*
X78835408Y-68435063D01*
X79063663Y-68373903D01*
X79277830Y-68274035D01*
X79471401Y-68138495D01*
X79638495Y-67971401D01*
X79774035Y-67777830D01*
X79873903Y-67563663D01*
X79935063Y-67335408D01*
X79955659Y-67100000D01*
X79935063Y-66864592D01*
X79879841Y-66658498D01*
X79875305Y-66641569D01*
X79875304Y-66641567D01*
X79873903Y-66636337D01*
X79774035Y-66422171D01*
X79638495Y-66228599D01*
X79471401Y-66061505D01*
X79466968Y-66058401D01*
X79466961Y-66058395D01*
X79285842Y-65931575D01*
X79246976Y-65887257D01*
X79232965Y-65830000D01*
X79246976Y-65772743D01*
X79285842Y-65728425D01*
X79466961Y-65601604D01*
X79466961Y-65601603D01*
X79471401Y-65598495D01*
X79638495Y-65431401D01*
X79774035Y-65237830D01*
X79873903Y-65023663D01*
X79935063Y-64795408D01*
X79955659Y-64560000D01*
X79935063Y-64324592D01*
X79873903Y-64096337D01*
X79774035Y-63882171D01*
X79638495Y-63688599D01*
X79471401Y-63521505D01*
X79466968Y-63518401D01*
X79466961Y-63518395D01*
X79285842Y-63391575D01*
X79246976Y-63347257D01*
X79232965Y-63290000D01*
X79246976Y-63232743D01*
X79285842Y-63188425D01*
X79466961Y-63061604D01*
X79466961Y-63061603D01*
X79471401Y-63058495D01*
X79638495Y-62891401D01*
X79774035Y-62697830D01*
X79873903Y-62483663D01*
X79935063Y-62255408D01*
X79955659Y-62020000D01*
X79935063Y-61784592D01*
X79873903Y-61556337D01*
X79774035Y-61342171D01*
X79638495Y-61148599D01*
X79471401Y-60981505D01*
X79466970Y-60978402D01*
X79466966Y-60978399D01*
X79282259Y-60849066D01*
X79282257Y-60849064D01*
X79277830Y-60845965D01*
X79272933Y-60843681D01*
X79272927Y-60843678D01*
X79068572Y-60748386D01*
X79068570Y-60748385D01*
X79063663Y-60746097D01*
X79058438Y-60744697D01*
X79058430Y-60744694D01*
X78840634Y-60686337D01*
X78840630Y-60686336D01*
X78835408Y-60684937D01*
X78830020Y-60684465D01*
X78830017Y-60684465D01*
X78605395Y-60664813D01*
X78600000Y-60664341D01*
X78594605Y-60664813D01*
X78369982Y-60684465D01*
X78369977Y-60684465D01*
X78364592Y-60684937D01*
X78359371Y-60686335D01*
X78359365Y-60686337D01*
X78141569Y-60744694D01*
X78141557Y-60744698D01*
X78136337Y-60746097D01*
X78131432Y-60748383D01*
X78131427Y-60748386D01*
X77927081Y-60843675D01*
X77927077Y-60843677D01*
X77922171Y-60845965D01*
X77917738Y-60849068D01*
X77917731Y-60849073D01*
X77733034Y-60978399D01*
X77733029Y-60978402D01*
X77728599Y-60981505D01*
X77724775Y-60985328D01*
X77724769Y-60985334D01*
X77565334Y-61144769D01*
X77565328Y-61144775D01*
X77561505Y-61148599D01*
X77558402Y-61153029D01*
X77558399Y-61153034D01*
X77429073Y-61337731D01*
X77429068Y-61337738D01*
X77425965Y-61342171D01*
X77423677Y-61347077D01*
X77423675Y-61347081D01*
X77328386Y-61551427D01*
X77328383Y-61551432D01*
X77326097Y-61556337D01*
X77324698Y-61561557D01*
X77324694Y-61561569D01*
X77266337Y-61779365D01*
X77266335Y-61779371D01*
X77264937Y-61784592D01*
X77264465Y-61789977D01*
X77264465Y-61789982D01*
X77262202Y-61815849D01*
X77244341Y-62020000D01*
X77244813Y-62025395D01*
X77263404Y-62237894D01*
X77264937Y-62255408D01*
X77266336Y-62260630D01*
X77266337Y-62260634D01*
X77299327Y-62383756D01*
X77299327Y-62447942D01*
X77267234Y-62503530D01*
X77207584Y-62563181D01*
X77167355Y-62590061D01*
X77119902Y-62599500D01*
X73747487Y-62599500D01*
X73731302Y-62598439D01*
X73708059Y-62595379D01*
X73700000Y-62594318D01*
X73691941Y-62595379D01*
X73660639Y-62599500D01*
X73551297Y-62613894D01*
X73551289Y-62613896D01*
X73543238Y-62614956D01*
X73535733Y-62618064D01*
X73535728Y-62618066D01*
X73404666Y-62672354D01*
X73404662Y-62672355D01*
X73397159Y-62675464D01*
X73390714Y-62680408D01*
X73390711Y-62680411D01*
X73278164Y-62766771D01*
X73278160Y-62766774D01*
X73271718Y-62771718D01*
X73266774Y-62778160D01*
X73266771Y-62778164D01*
X73252494Y-62796771D01*
X73241800Y-62808964D01*
X72387584Y-63663181D01*
X72347356Y-63690061D01*
X72299903Y-63699500D01*
X69526259Y-63699500D01*
X69475824Y-63688780D01*
X69434110Y-63658473D01*
X69410223Y-63631944D01*
X69410216Y-63631938D01*
X69405871Y-63627112D01*
X69400612Y-63623291D01*
X69257988Y-63519669D01*
X69257987Y-63519668D01*
X69252730Y-63515849D01*
X69246792Y-63513205D01*
X69085745Y-63441501D01*
X69085740Y-63441499D01*
X69079803Y-63438856D01*
X69073444Y-63437504D01*
X69073440Y-63437503D01*
X68901008Y-63400852D01*
X68901005Y-63400851D01*
X68894646Y-63399500D01*
X68705354Y-63399500D01*
X68698995Y-63400851D01*
X68698991Y-63400852D01*
X68526559Y-63437503D01*
X68526552Y-63437505D01*
X68520197Y-63438856D01*
X68514262Y-63441498D01*
X68514254Y-63441501D01*
X68353207Y-63513205D01*
X68353202Y-63513207D01*
X68347270Y-63515849D01*
X68342016Y-63519665D01*
X68342011Y-63519669D01*
X68199388Y-63623290D01*
X68199381Y-63623295D01*
X68194129Y-63627112D01*
X68189784Y-63631937D01*
X68189779Y-63631942D01*
X68071813Y-63762956D01*
X68071808Y-63762962D01*
X68067467Y-63767784D01*
X68064222Y-63773404D01*
X68064218Y-63773410D01*
X67976069Y-63926089D01*
X67976066Y-63926094D01*
X67972821Y-63931716D01*
X67970815Y-63937888D01*
X67970813Y-63937894D01*
X67916333Y-64105564D01*
X67916331Y-64105573D01*
X67914326Y-64111744D01*
X67913648Y-64118194D01*
X67913646Y-64118204D01*
X67901664Y-64232216D01*
X67894540Y-64300000D01*
X67895219Y-64306460D01*
X67913646Y-64481795D01*
X67913647Y-64481803D01*
X67914326Y-64488256D01*
X67916331Y-64494428D01*
X67916333Y-64494435D01*
X67959715Y-64627948D01*
X67972821Y-64668284D01*
X67976068Y-64673908D01*
X67976069Y-64673910D01*
X68041242Y-64786794D01*
X68067467Y-64832216D01*
X68112233Y-64881933D01*
X68188852Y-64967028D01*
X68217019Y-65020002D01*
X68217019Y-65079998D01*
X68188852Y-65132972D01*
X68081238Y-65252490D01*
X68067467Y-65267784D01*
X68064222Y-65273404D01*
X68064218Y-65273410D01*
X67976069Y-65426089D01*
X67976066Y-65426094D01*
X67972821Y-65431716D01*
X67970815Y-65437888D01*
X67970813Y-65437894D01*
X67916333Y-65605564D01*
X67916331Y-65605573D01*
X67914326Y-65611744D01*
X67913648Y-65618194D01*
X67913646Y-65618204D01*
X67901760Y-65731302D01*
X67894540Y-65800000D01*
X63584588Y-65800000D01*
X72122770Y-57261819D01*
X72162999Y-57234939D01*
X72210452Y-57225500D01*
X73596252Y-57225500D01*
X73646685Y-57236219D01*
X73684781Y-57263895D01*
X73684950Y-57263709D01*
X73686728Y-57265310D01*
X73688398Y-57266523D01*
X73694129Y-57272888D01*
X73847270Y-57384151D01*
X74020197Y-57461144D01*
X74205354Y-57500500D01*
X74388143Y-57500500D01*
X74394646Y-57500500D01*
X74579803Y-57461144D01*
X74752730Y-57384151D01*
X74905871Y-57272888D01*
X75032533Y-57132216D01*
X75127179Y-56968284D01*
X75185674Y-56788256D01*
X75205460Y-56600000D01*
X75185674Y-56411744D01*
X75127179Y-56231716D01*
X75032533Y-56067784D01*
X74978311Y-56007565D01*
X74910220Y-55931942D01*
X74910219Y-55931941D01*
X74905871Y-55927112D01*
X74900613Y-55923292D01*
X74900611Y-55923290D01*
X74757988Y-55819669D01*
X74757987Y-55819668D01*
X74752730Y-55815849D01*
X74746792Y-55813205D01*
X74585745Y-55741501D01*
X74585740Y-55741499D01*
X74579803Y-55738856D01*
X74573444Y-55737504D01*
X74573440Y-55737503D01*
X74401008Y-55700852D01*
X74401005Y-55700851D01*
X74394646Y-55699500D01*
X74205354Y-55699500D01*
X74198995Y-55700851D01*
X74198991Y-55700852D01*
X74026559Y-55737503D01*
X74026552Y-55737505D01*
X74020197Y-55738856D01*
X74014262Y-55741498D01*
X74014254Y-55741501D01*
X73853207Y-55813205D01*
X73853202Y-55813207D01*
X73847270Y-55815849D01*
X73842016Y-55819665D01*
X73842011Y-55819669D01*
X73699388Y-55923290D01*
X73699381Y-55923295D01*
X73694129Y-55927112D01*
X73689780Y-55931941D01*
X73689781Y-55931941D01*
X73688399Y-55933476D01*
X73686728Y-55934689D01*
X73684950Y-55936291D01*
X73684781Y-55936104D01*
X73646685Y-55963781D01*
X73596252Y-55974500D01*
X71977775Y-55974500D01*
X71966719Y-55973978D01*
X71959333Y-55972327D01*
X71951545Y-55972571D01*
X71951538Y-55972571D01*
X71892113Y-55974439D01*
X71888219Y-55974500D01*
X71860650Y-55974500D01*
X71856794Y-55974986D01*
X71856791Y-55974987D01*
X71856735Y-55974994D01*
X71856662Y-55975003D01*
X71845044Y-55975917D01*
X71809165Y-55977045D01*
X71809164Y-55977045D01*
X71801373Y-55977290D01*
X71793888Y-55979464D01*
X71793884Y-55979465D01*
X71782125Y-55982881D01*
X71763087Y-55986823D01*
X71750949Y-55988357D01*
X71750941Y-55988358D01*
X71743208Y-55989336D01*
X71735960Y-55992205D01*
X71735954Y-55992207D01*
X71702597Y-56005413D01*
X71691554Y-56009194D01*
X71657100Y-56019205D01*
X71657094Y-56019207D01*
X71649610Y-56021382D01*
X71642898Y-56025351D01*
X71642896Y-56025352D01*
X71632364Y-56031580D01*
X71614904Y-56040134D01*
X71603519Y-56044642D01*
X71603513Y-56044644D01*
X71596268Y-56047514D01*
X71589963Y-56052094D01*
X71589955Y-56052099D01*
X71560932Y-56073185D01*
X71551174Y-56079595D01*
X71520296Y-56097857D01*
X71520290Y-56097861D01*
X71513580Y-56101830D01*
X71508067Y-56107341D01*
X71508060Y-56107348D01*
X71499410Y-56115998D01*
X71484627Y-56128624D01*
X71474726Y-56135817D01*
X71474716Y-56135826D01*
X71468413Y-56140406D01*
X71463444Y-56146411D01*
X71463441Y-56146415D01*
X71440572Y-56174059D01*
X71432711Y-56182697D01*
X68562132Y-59053276D01*
X68514309Y-59083014D01*
X68458265Y-59088534D01*
X68405559Y-59068697D01*
X68367066Y-59027597D01*
X68332533Y-58967784D01*
X68250528Y-58876709D01*
X68210220Y-58831942D01*
X68210219Y-58831941D01*
X68205871Y-58827112D01*
X68200613Y-58823292D01*
X68200611Y-58823290D01*
X68057988Y-58719669D01*
X68057987Y-58719668D01*
X68052730Y-58715849D01*
X68046792Y-58713205D01*
X67885745Y-58641501D01*
X67885740Y-58641499D01*
X67879803Y-58638856D01*
X67873444Y-58637504D01*
X67873440Y-58637503D01*
X67701008Y-58600852D01*
X67701005Y-58600851D01*
X67694646Y-58599500D01*
X67505354Y-58599500D01*
X67498995Y-58600851D01*
X67498991Y-58600852D01*
X67326559Y-58637503D01*
X67326552Y-58637505D01*
X67320197Y-58638856D01*
X67314262Y-58641498D01*
X67314254Y-58641501D01*
X67153207Y-58713205D01*
X67153202Y-58713207D01*
X67147270Y-58715849D01*
X67142016Y-58719665D01*
X67142011Y-58719669D01*
X66999388Y-58823290D01*
X66999381Y-58823295D01*
X66994129Y-58827112D01*
X66989784Y-58831937D01*
X66989779Y-58831942D01*
X66871813Y-58962956D01*
X66871808Y-58962962D01*
X66867467Y-58967784D01*
X66864222Y-58973404D01*
X66864218Y-58973410D01*
X66776069Y-59126089D01*
X66776066Y-59126094D01*
X66772821Y-59131716D01*
X66770815Y-59137888D01*
X66770813Y-59137894D01*
X66716333Y-59305564D01*
X66716331Y-59305573D01*
X66714326Y-59311744D01*
X66713648Y-59318194D01*
X66713646Y-59318204D01*
X66695962Y-59486464D01*
X66694540Y-59500000D01*
X66695219Y-59506460D01*
X66713646Y-59681795D01*
X66713647Y-59681803D01*
X66714326Y-59688256D01*
X66716331Y-59694428D01*
X66716333Y-59694435D01*
X66770813Y-59862105D01*
X66772821Y-59868284D01*
X66867467Y-60032216D01*
X66994129Y-60172888D01*
X67136381Y-60276240D01*
X67171681Y-60315965D01*
X67187110Y-60366825D01*
X67179828Y-60419472D01*
X67151173Y-60464235D01*
X61377228Y-66238181D01*
X61337000Y-66265061D01*
X61289547Y-66274500D01*
X61203748Y-66274500D01*
X61153315Y-66263781D01*
X61115218Y-66236104D01*
X61115050Y-66236291D01*
X61113271Y-66234689D01*
X61111601Y-66233476D01*
X61111203Y-66233034D01*
X61105871Y-66227112D01*
X61100613Y-66223292D01*
X61100611Y-66223290D01*
X60957988Y-66119669D01*
X60957987Y-66119668D01*
X60952730Y-66115849D01*
X60946792Y-66113205D01*
X60785745Y-66041501D01*
X60785740Y-66041499D01*
X60779803Y-66038856D01*
X60773444Y-66037504D01*
X60773440Y-66037503D01*
X60601008Y-66000852D01*
X60601005Y-66000851D01*
X60594646Y-65999500D01*
X60405354Y-65999500D01*
X60398995Y-66000851D01*
X60398991Y-66000852D01*
X60226559Y-66037503D01*
X60226552Y-66037505D01*
X60220197Y-66038856D01*
X60214262Y-66041498D01*
X60214254Y-66041501D01*
X60053207Y-66113205D01*
X60053202Y-66113207D01*
X60047270Y-66115849D01*
X60042016Y-66119665D01*
X60042011Y-66119669D01*
X59899388Y-66223290D01*
X59899381Y-66223295D01*
X59894129Y-66227112D01*
X59889784Y-66231937D01*
X59889779Y-66231942D01*
X59771813Y-66362956D01*
X59771808Y-66362962D01*
X59767467Y-66367784D01*
X59764222Y-66373404D01*
X59764218Y-66373410D01*
X59676069Y-66526089D01*
X59676066Y-66526094D01*
X59672821Y-66531716D01*
X59670815Y-66537888D01*
X59670813Y-66537894D01*
X59616333Y-66705564D01*
X59616331Y-66705573D01*
X59614326Y-66711744D01*
X59613648Y-66718194D01*
X59613646Y-66718204D01*
X59600966Y-66838856D01*
X59594540Y-66900000D01*
X51817134Y-66900000D01*
X51685745Y-66841501D01*
X51685740Y-66841499D01*
X51679803Y-66838856D01*
X51673444Y-66837504D01*
X51673440Y-66837503D01*
X51501008Y-66800852D01*
X51501005Y-66800851D01*
X51494646Y-66799500D01*
X51305354Y-66799500D01*
X51298995Y-66800851D01*
X51298991Y-66800852D01*
X51126559Y-66837503D01*
X51126552Y-66837505D01*
X51120197Y-66838856D01*
X51114262Y-66841498D01*
X51114254Y-66841501D01*
X50953207Y-66913205D01*
X50953202Y-66913207D01*
X50947270Y-66915849D01*
X50942016Y-66919665D01*
X50942011Y-66919669D01*
X50799388Y-67023290D01*
X50799381Y-67023295D01*
X50794129Y-67027112D01*
X50789784Y-67031937D01*
X50789779Y-67031942D01*
X50671813Y-67162956D01*
X50671808Y-67162962D01*
X50667467Y-67167784D01*
X50664222Y-67173404D01*
X50664218Y-67173410D01*
X50576069Y-67326089D01*
X50576066Y-67326094D01*
X50572821Y-67331716D01*
X50570815Y-67337888D01*
X50570813Y-67337894D01*
X50516333Y-67505564D01*
X50516331Y-67505573D01*
X50514326Y-67511744D01*
X50513647Y-67518203D01*
X50513647Y-67518204D01*
X50507505Y-67576640D01*
X50484502Y-67636563D01*
X50434621Y-67676957D01*
X50353204Y-67713206D01*
X50353196Y-67713210D01*
X50347270Y-67715849D01*
X50342016Y-67719665D01*
X50342011Y-67719669D01*
X50199388Y-67823290D01*
X50199381Y-67823295D01*
X50194129Y-67827112D01*
X50189784Y-67831937D01*
X50189779Y-67831942D01*
X50071813Y-67962956D01*
X50071808Y-67962962D01*
X50067467Y-67967784D01*
X50064222Y-67973404D01*
X50064218Y-67973410D01*
X49976069Y-68126089D01*
X49976066Y-68126094D01*
X49972821Y-68131716D01*
X49970815Y-68137888D01*
X49970813Y-68137894D01*
X49916333Y-68305564D01*
X49916331Y-68305573D01*
X49914326Y-68311744D01*
X49913648Y-68318194D01*
X49913646Y-68318204D01*
X49901512Y-68433662D01*
X49894540Y-68500000D01*
X49895219Y-68506460D01*
X49913646Y-68681795D01*
X49913647Y-68681803D01*
X49914326Y-68688256D01*
X49916331Y-68694428D01*
X49916333Y-68694435D01*
X49970813Y-68862105D01*
X49972821Y-68868284D01*
X49976068Y-68873908D01*
X49976069Y-68873910D01*
X50064216Y-69026586D01*
X50064218Y-69026589D01*
X50064869Y-69027717D01*
X50064870Y-69027718D01*
X50067467Y-69032216D01*
X50066994Y-69032488D01*
X50085573Y-69074220D01*
X50085573Y-69125780D01*
X50066994Y-69167511D01*
X50067467Y-69167784D01*
X50064870Y-69172281D01*
X50064867Y-69172285D01*
X50064221Y-69173405D01*
X50064216Y-69173413D01*
X49976069Y-69326089D01*
X49976066Y-69326094D01*
X49972821Y-69331716D01*
X49970815Y-69337888D01*
X49970813Y-69337894D01*
X49916333Y-69505564D01*
X49916331Y-69505573D01*
X49914326Y-69511744D01*
X49913648Y-69518194D01*
X49913646Y-69518204D01*
X49905729Y-69593540D01*
X49894540Y-69700000D01*
X44794950Y-69700000D01*
X44805460Y-69600000D01*
X44785674Y-69411744D01*
X44727179Y-69231716D01*
X44632533Y-69067784D01*
X44597540Y-69028921D01*
X44532350Y-68956520D01*
X44508736Y-68917986D01*
X44500500Y-68873548D01*
X44500500Y-66000097D01*
X44509939Y-65952644D01*
X44536819Y-65912416D01*
X44749235Y-65700000D01*
X45391044Y-65058189D01*
X45403222Y-65047510D01*
X45428282Y-65028282D01*
X45524536Y-64902841D01*
X45585044Y-64756762D01*
X45596692Y-64668284D01*
X45605682Y-64600000D01*
X45601561Y-64568698D01*
X45600500Y-64552513D01*
X45600500Y-64548226D01*
X45618772Y-64483436D01*
X45668205Y-64437741D01*
X45734228Y-64424608D01*
X45797383Y-64447906D01*
X45847270Y-64484151D01*
X46020197Y-64561144D01*
X46205354Y-64600500D01*
X46388143Y-64600500D01*
X46394646Y-64600500D01*
X46579803Y-64561144D01*
X46752730Y-64484151D01*
X46905871Y-64372888D01*
X47032533Y-64232216D01*
X47127179Y-64068284D01*
X47149366Y-64000000D01*
X59694540Y-64000000D01*
X59695219Y-64006460D01*
X59713646Y-64181795D01*
X59713647Y-64181803D01*
X59714326Y-64188256D01*
X59716331Y-64194428D01*
X59716333Y-64194435D01*
X59770813Y-64362105D01*
X59772821Y-64368284D01*
X59776068Y-64373908D01*
X59776069Y-64373910D01*
X59842086Y-64488256D01*
X59867467Y-64532216D01*
X59871811Y-64537041D01*
X59871813Y-64537043D01*
X59953665Y-64627948D01*
X59994129Y-64672888D01*
X60147270Y-64784151D01*
X60320197Y-64861144D01*
X60505354Y-64900500D01*
X60688143Y-64900500D01*
X60694646Y-64900500D01*
X60879803Y-64861144D01*
X61052730Y-64784151D01*
X61205871Y-64672888D01*
X61332533Y-64532216D01*
X61427179Y-64368284D01*
X61485674Y-64188256D01*
X61505460Y-64000000D01*
X61485674Y-63811744D01*
X61427179Y-63631716D01*
X61332533Y-63467784D01*
X61205871Y-63327112D01*
X61200613Y-63323292D01*
X61200611Y-63323290D01*
X61057988Y-63219669D01*
X61057987Y-63219668D01*
X61052730Y-63215849D01*
X61046792Y-63213205D01*
X60885745Y-63141501D01*
X60885740Y-63141499D01*
X60879803Y-63138856D01*
X60873444Y-63137504D01*
X60873440Y-63137503D01*
X60701008Y-63100852D01*
X60701005Y-63100851D01*
X60694646Y-63099500D01*
X60505354Y-63099500D01*
X60498995Y-63100851D01*
X60498991Y-63100852D01*
X60326559Y-63137503D01*
X60326552Y-63137505D01*
X60320197Y-63138856D01*
X60314262Y-63141498D01*
X60314254Y-63141501D01*
X60153207Y-63213205D01*
X60153202Y-63213207D01*
X60147270Y-63215849D01*
X60142016Y-63219665D01*
X60142011Y-63219669D01*
X59999388Y-63323290D01*
X59999381Y-63323295D01*
X59994129Y-63327112D01*
X59989784Y-63331937D01*
X59989779Y-63331942D01*
X59871813Y-63462956D01*
X59871808Y-63462962D01*
X59867467Y-63467784D01*
X59864222Y-63473404D01*
X59864218Y-63473410D01*
X59776069Y-63626089D01*
X59776066Y-63626094D01*
X59772821Y-63631716D01*
X59770815Y-63637888D01*
X59770813Y-63637894D01*
X59716333Y-63805564D01*
X59716331Y-63805573D01*
X59714326Y-63811744D01*
X59713648Y-63818194D01*
X59713646Y-63818204D01*
X59701067Y-63937894D01*
X59694540Y-64000000D01*
X47149366Y-64000000D01*
X47185674Y-63888256D01*
X47205460Y-63700000D01*
X47185674Y-63511744D01*
X47127179Y-63331716D01*
X47058060Y-63211999D01*
X47041448Y-63150000D01*
X47058061Y-63088000D01*
X47073301Y-63061604D01*
X47127179Y-62968284D01*
X47185674Y-62788256D01*
X47205460Y-62600000D01*
X47185674Y-62411744D01*
X47127179Y-62231716D01*
X47032533Y-62067784D01*
X46905871Y-61927112D01*
X46900613Y-61923292D01*
X46900611Y-61923290D01*
X46757988Y-61819669D01*
X46757987Y-61819668D01*
X46752730Y-61815849D01*
X46746792Y-61813205D01*
X46585745Y-61741501D01*
X46585740Y-61741499D01*
X46579803Y-61738856D01*
X46573444Y-61737504D01*
X46573440Y-61737503D01*
X46401008Y-61700852D01*
X46401005Y-61700851D01*
X46394646Y-61699500D01*
X46205354Y-61699500D01*
X46198995Y-61700851D01*
X46198991Y-61700852D01*
X46026559Y-61737503D01*
X46026552Y-61737505D01*
X46020197Y-61738856D01*
X46014262Y-61741498D01*
X46014254Y-61741501D01*
X45853207Y-61813205D01*
X45853202Y-61813207D01*
X45847270Y-61815849D01*
X45842016Y-61819665D01*
X45842011Y-61819669D01*
X45722885Y-61906219D01*
X45675781Y-61927191D01*
X45624219Y-61927191D01*
X45577115Y-61906219D01*
X45457988Y-61819669D01*
X45457987Y-61819668D01*
X45452730Y-61815849D01*
X45446792Y-61813205D01*
X45285745Y-61741501D01*
X45285740Y-61741499D01*
X45279803Y-61738856D01*
X45273444Y-61737504D01*
X45273440Y-61737503D01*
X45101008Y-61700852D01*
X45101005Y-61700851D01*
X45094646Y-61699500D01*
X44905354Y-61699500D01*
X44898995Y-61700851D01*
X44898991Y-61700852D01*
X44726559Y-61737503D01*
X44726552Y-61737505D01*
X44720197Y-61738856D01*
X44714262Y-61741498D01*
X44714254Y-61741501D01*
X44553207Y-61813205D01*
X44553202Y-61813207D01*
X44547270Y-61815849D01*
X44542016Y-61819665D01*
X44542011Y-61819669D01*
X44399388Y-61923290D01*
X44399381Y-61923295D01*
X44394129Y-61927112D01*
X44389784Y-61931937D01*
X44389779Y-61931942D01*
X44271813Y-62062956D01*
X44271808Y-62062962D01*
X44267467Y-62067784D01*
X44264222Y-62073404D01*
X44264218Y-62073410D01*
X44176069Y-62226089D01*
X44176066Y-62226094D01*
X44172821Y-62231716D01*
X44170815Y-62237888D01*
X44170813Y-62237894D01*
X44116333Y-62405564D01*
X44116331Y-62405573D01*
X44114326Y-62411744D01*
X44113648Y-62418194D01*
X44113646Y-62418204D01*
X44107317Y-62478430D01*
X44094540Y-62600000D01*
X44095219Y-62606460D01*
X44105000Y-62699523D01*
X44097443Y-62756922D01*
X44064651Y-62804634D01*
X44013773Y-62832259D01*
X43955899Y-62833774D01*
X43801011Y-62800852D01*
X43801002Y-62800851D01*
X43794646Y-62799500D01*
X43605354Y-62799500D01*
X43598995Y-62800851D01*
X43598991Y-62800852D01*
X43426559Y-62837503D01*
X43426552Y-62837505D01*
X43420197Y-62838856D01*
X43414262Y-62841498D01*
X43414254Y-62841501D01*
X43253207Y-62913205D01*
X43253202Y-62913207D01*
X43247270Y-62915849D01*
X43242016Y-62919665D01*
X43242011Y-62919669D01*
X43099388Y-63023290D01*
X43099381Y-63023295D01*
X43094129Y-63027112D01*
X43089784Y-63031937D01*
X43089779Y-63031942D01*
X42971813Y-63162956D01*
X42971808Y-63162962D01*
X42967467Y-63167784D01*
X42964222Y-63173404D01*
X42964218Y-63173410D01*
X42876069Y-63326089D01*
X42876066Y-63326094D01*
X42872821Y-63331716D01*
X42870815Y-63337888D01*
X42870813Y-63337894D01*
X42816333Y-63505564D01*
X42816331Y-63505573D01*
X42814326Y-63511744D01*
X42813648Y-63518194D01*
X42813646Y-63518204D01*
X42798410Y-63663181D01*
X42794540Y-63700000D01*
X27500500Y-63700000D01*
X27500500Y-58200000D01*
X44094540Y-58200000D01*
X44095219Y-58206460D01*
X44113646Y-58381795D01*
X44113647Y-58381803D01*
X44114326Y-58388256D01*
X44116331Y-58394428D01*
X44116333Y-58394435D01*
X44146343Y-58486794D01*
X44172821Y-58568284D01*
X44176068Y-58573908D01*
X44176069Y-58573910D01*
X44258017Y-58715849D01*
X44267467Y-58732216D01*
X44271811Y-58737041D01*
X44271813Y-58737043D01*
X44349999Y-58823877D01*
X44394129Y-58872888D01*
X44547270Y-58984151D01*
X44720197Y-59061144D01*
X44905354Y-59100500D01*
X45088143Y-59100500D01*
X45094646Y-59100500D01*
X45279803Y-59061144D01*
X45452730Y-58984151D01*
X45577116Y-58893779D01*
X45624219Y-58872808D01*
X45675781Y-58872808D01*
X45722883Y-58893779D01*
X45847270Y-58984151D01*
X46020197Y-59061144D01*
X46205354Y-59100500D01*
X46388143Y-59100500D01*
X46394646Y-59100500D01*
X46579803Y-59061144D01*
X46752730Y-58984151D01*
X46905871Y-58872888D01*
X47032533Y-58732216D01*
X47127179Y-58568284D01*
X47185674Y-58388256D01*
X47205460Y-58200000D01*
X47185674Y-58011744D01*
X47127179Y-57831716D01*
X47032533Y-57667784D01*
X46905871Y-57527112D01*
X46900613Y-57523292D01*
X46900611Y-57523290D01*
X46757988Y-57419669D01*
X46757987Y-57419668D01*
X46752730Y-57415849D01*
X46746792Y-57413205D01*
X46585745Y-57341501D01*
X46585740Y-57341499D01*
X46579803Y-57338856D01*
X46573444Y-57337504D01*
X46573440Y-57337503D01*
X46401008Y-57300852D01*
X46401005Y-57300851D01*
X46394646Y-57299500D01*
X46205354Y-57299500D01*
X46198995Y-57300851D01*
X46198991Y-57300852D01*
X46026559Y-57337503D01*
X46026552Y-57337505D01*
X46020197Y-57338856D01*
X46014262Y-57341498D01*
X46014254Y-57341501D01*
X45853207Y-57413205D01*
X45853202Y-57413207D01*
X45847270Y-57415849D01*
X45842016Y-57419665D01*
X45842011Y-57419669D01*
X45722885Y-57506219D01*
X45675781Y-57527191D01*
X45624219Y-57527191D01*
X45577115Y-57506219D01*
X45457988Y-57419669D01*
X45457987Y-57419668D01*
X45452730Y-57415849D01*
X45446792Y-57413205D01*
X45285745Y-57341501D01*
X45285740Y-57341499D01*
X45279803Y-57338856D01*
X45273444Y-57337504D01*
X45273440Y-57337503D01*
X45101008Y-57300852D01*
X45101005Y-57300851D01*
X45094646Y-57299500D01*
X44905354Y-57299500D01*
X44898995Y-57300851D01*
X44898991Y-57300852D01*
X44726559Y-57337503D01*
X44726552Y-57337505D01*
X44720197Y-57338856D01*
X44714262Y-57341498D01*
X44714254Y-57341501D01*
X44553207Y-57413205D01*
X44553202Y-57413207D01*
X44547270Y-57415849D01*
X44542016Y-57419665D01*
X44542011Y-57419669D01*
X44399388Y-57523290D01*
X44399381Y-57523295D01*
X44394129Y-57527112D01*
X44389784Y-57531937D01*
X44389779Y-57531942D01*
X44271813Y-57662956D01*
X44271808Y-57662962D01*
X44267467Y-57667784D01*
X44264222Y-57673404D01*
X44264218Y-57673410D01*
X44176069Y-57826089D01*
X44176066Y-57826094D01*
X44172821Y-57831716D01*
X44170815Y-57837888D01*
X44170813Y-57837894D01*
X44116333Y-58005564D01*
X44116331Y-58005573D01*
X44114326Y-58011744D01*
X44113648Y-58018194D01*
X44113646Y-58018204D01*
X44101067Y-58137894D01*
X44094540Y-58200000D01*
X27500500Y-58200000D01*
X27500500Y-54900000D01*
X48394540Y-54900000D01*
X48395219Y-54906460D01*
X48413646Y-55081795D01*
X48413647Y-55081803D01*
X48414326Y-55088256D01*
X48416331Y-55094428D01*
X48416333Y-55094435D01*
X48466021Y-55247356D01*
X48472821Y-55268284D01*
X48567467Y-55432216D01*
X48571811Y-55437041D01*
X48571813Y-55437043D01*
X48689779Y-55568057D01*
X48694129Y-55572888D01*
X48847270Y-55684151D01*
X49020197Y-55761144D01*
X49205354Y-55800500D01*
X49299903Y-55800500D01*
X49347356Y-55809939D01*
X49387584Y-55836819D01*
X51981004Y-58430239D01*
X52012667Y-58484260D01*
X52013898Y-58546864D01*
X51984382Y-58602088D01*
X51931647Y-58635849D01*
X51926546Y-58637506D01*
X51920197Y-58638856D01*
X51914262Y-58641498D01*
X51914260Y-58641499D01*
X51753207Y-58713205D01*
X51753202Y-58713207D01*
X51747270Y-58715849D01*
X51742016Y-58719665D01*
X51742011Y-58719669D01*
X51599388Y-58823290D01*
X51599381Y-58823295D01*
X51594129Y-58827112D01*
X51589784Y-58831937D01*
X51589779Y-58831942D01*
X51471813Y-58962956D01*
X51471808Y-58962962D01*
X51467467Y-58967784D01*
X51464222Y-58973404D01*
X51464218Y-58973410D01*
X51376069Y-59126089D01*
X51376066Y-59126094D01*
X51372821Y-59131716D01*
X51370815Y-59137888D01*
X51370813Y-59137894D01*
X51316333Y-59305564D01*
X51316331Y-59305573D01*
X51314326Y-59311744D01*
X51313648Y-59318194D01*
X51313646Y-59318204D01*
X51295962Y-59486464D01*
X51294540Y-59500000D01*
X51295219Y-59506460D01*
X51313646Y-59681795D01*
X51313647Y-59681803D01*
X51314326Y-59688256D01*
X51316331Y-59694428D01*
X51316333Y-59694435D01*
X51370813Y-59862105D01*
X51372821Y-59868284D01*
X51467467Y-60032216D01*
X51594129Y-60172888D01*
X51747270Y-60284151D01*
X51920197Y-60361144D01*
X52105354Y-60400500D01*
X52288143Y-60400500D01*
X52294646Y-60400500D01*
X52479803Y-60361144D01*
X52652730Y-60284151D01*
X52805871Y-60172888D01*
X52932533Y-60032216D01*
X53027179Y-59868284D01*
X53085674Y-59688256D01*
X53105460Y-59500000D01*
X53085674Y-59311744D01*
X53077567Y-59286794D01*
X53069777Y-59262818D01*
X53065235Y-59205102D01*
X53087390Y-59151615D01*
X53131413Y-59114015D01*
X53187708Y-59100500D01*
X59473741Y-59100500D01*
X59524176Y-59111220D01*
X59565890Y-59141527D01*
X59589776Y-59168055D01*
X59589782Y-59168061D01*
X59594129Y-59172888D01*
X59747270Y-59284151D01*
X59920197Y-59361144D01*
X60105354Y-59400500D01*
X60288143Y-59400500D01*
X60294646Y-59400500D01*
X60479803Y-59361144D01*
X60652730Y-59284151D01*
X60805871Y-59172888D01*
X60932533Y-59032216D01*
X61027179Y-58868284D01*
X61085674Y-58688256D01*
X61105460Y-58500000D01*
X61085674Y-58311744D01*
X61027179Y-58131716D01*
X60932533Y-57967784D01*
X60860925Y-57888256D01*
X60810220Y-57831942D01*
X60810219Y-57831941D01*
X60805871Y-57827112D01*
X60800612Y-57823291D01*
X60800611Y-57823290D01*
X60657988Y-57719669D01*
X60657987Y-57719668D01*
X60652730Y-57715849D01*
X60646792Y-57713205D01*
X60617134Y-57700000D01*
X63094540Y-57700000D01*
X63095219Y-57706460D01*
X63113646Y-57881795D01*
X63113647Y-57881803D01*
X63114326Y-57888256D01*
X63116331Y-57894428D01*
X63116333Y-57894435D01*
X63154450Y-58011744D01*
X63172821Y-58068284D01*
X63176068Y-58073908D01*
X63176069Y-58073910D01*
X63206194Y-58126089D01*
X63267467Y-58232216D01*
X63271811Y-58237041D01*
X63271813Y-58237043D01*
X63344891Y-58318204D01*
X63394129Y-58372888D01*
X63547270Y-58484151D01*
X63720197Y-58561144D01*
X63905354Y-58600500D01*
X64088143Y-58600500D01*
X64094646Y-58600500D01*
X64279803Y-58561144D01*
X64452730Y-58484151D01*
X64605871Y-58372888D01*
X64732533Y-58232216D01*
X64827179Y-58068284D01*
X64885674Y-57888256D01*
X64905460Y-57700000D01*
X64904937Y-57695028D01*
X64914220Y-57648362D01*
X64941100Y-57608134D01*
X65760978Y-56788256D01*
X66591044Y-55958189D01*
X66603222Y-55947510D01*
X66628282Y-55928282D01*
X66724536Y-55802841D01*
X66785044Y-55656762D01*
X66796086Y-55572888D01*
X66805682Y-55500000D01*
X66801561Y-55468698D01*
X66800500Y-55452513D01*
X66800500Y-51826452D01*
X66808736Y-51782014D01*
X66832350Y-51743480D01*
X66850529Y-51723290D01*
X66932533Y-51632216D01*
X67027179Y-51468284D01*
X67085674Y-51288256D01*
X67105460Y-51100000D01*
X67085674Y-50911744D01*
X67027179Y-50731716D01*
X66932533Y-50567784D01*
X66805871Y-50427112D01*
X66800613Y-50423292D01*
X66800611Y-50423290D01*
X66657988Y-50319669D01*
X66657987Y-50319668D01*
X66652730Y-50315849D01*
X66646792Y-50313205D01*
X66485745Y-50241501D01*
X66485740Y-50241499D01*
X66479803Y-50238856D01*
X66473444Y-50237504D01*
X66473440Y-50237503D01*
X66301008Y-50200852D01*
X66301005Y-50200851D01*
X66294646Y-50199500D01*
X66105354Y-50199500D01*
X66098995Y-50200851D01*
X66098991Y-50200852D01*
X65926559Y-50237503D01*
X65926552Y-50237505D01*
X65920197Y-50238856D01*
X65914262Y-50241498D01*
X65914254Y-50241501D01*
X65753207Y-50313205D01*
X65753202Y-50313207D01*
X65747270Y-50315849D01*
X65742016Y-50319665D01*
X65742011Y-50319669D01*
X65599388Y-50423290D01*
X65599381Y-50423295D01*
X65594129Y-50427112D01*
X65589784Y-50431937D01*
X65589779Y-50431942D01*
X65471813Y-50562956D01*
X65471808Y-50562962D01*
X65467467Y-50567784D01*
X65464222Y-50573404D01*
X65464218Y-50573410D01*
X65376069Y-50726089D01*
X65376066Y-50726094D01*
X65372821Y-50731716D01*
X65370815Y-50737888D01*
X65370813Y-50737894D01*
X65316333Y-50905564D01*
X65316331Y-50905573D01*
X65314326Y-50911744D01*
X65313648Y-50918194D01*
X65313646Y-50918204D01*
X65295962Y-51086464D01*
X65294540Y-51100000D01*
X65295219Y-51106460D01*
X65313646Y-51281795D01*
X65313647Y-51281803D01*
X65314326Y-51288256D01*
X65316331Y-51294428D01*
X65316333Y-51294435D01*
X65370813Y-51462105D01*
X65372821Y-51468284D01*
X65376068Y-51473908D01*
X65376069Y-51473910D01*
X65458017Y-51615849D01*
X65467467Y-51632216D01*
X65471811Y-51637041D01*
X65471813Y-51637043D01*
X65567650Y-51743480D01*
X65591264Y-51782014D01*
X65599500Y-51826452D01*
X65599500Y-55199903D01*
X65590061Y-55247356D01*
X65563181Y-55287584D01*
X64087584Y-56763181D01*
X64047356Y-56790061D01*
X63999903Y-56799500D01*
X63905354Y-56799500D01*
X63898995Y-56800851D01*
X63898991Y-56800852D01*
X63726559Y-56837503D01*
X63726552Y-56837505D01*
X63720197Y-56838856D01*
X63714262Y-56841498D01*
X63714254Y-56841501D01*
X63553207Y-56913205D01*
X63553202Y-56913207D01*
X63547270Y-56915849D01*
X63542016Y-56919665D01*
X63542011Y-56919669D01*
X63399388Y-57023290D01*
X63399381Y-57023295D01*
X63394129Y-57027112D01*
X63389784Y-57031937D01*
X63389779Y-57031942D01*
X63271813Y-57162956D01*
X63271808Y-57162962D01*
X63267467Y-57167784D01*
X63264222Y-57173404D01*
X63264218Y-57173410D01*
X63176069Y-57326089D01*
X63176066Y-57326094D01*
X63172821Y-57331716D01*
X63170815Y-57337888D01*
X63170813Y-57337894D01*
X63116333Y-57505564D01*
X63116331Y-57505573D01*
X63114326Y-57511744D01*
X63113648Y-57518194D01*
X63113646Y-57518204D01*
X63100966Y-57638856D01*
X63094540Y-57700000D01*
X60617134Y-57700000D01*
X60485745Y-57641501D01*
X60485740Y-57641499D01*
X60479803Y-57638856D01*
X60473444Y-57637504D01*
X60473440Y-57637503D01*
X60301008Y-57600852D01*
X60301005Y-57600851D01*
X60294646Y-57599500D01*
X60105354Y-57599500D01*
X60098995Y-57600851D01*
X60098991Y-57600852D01*
X59926559Y-57637503D01*
X59926552Y-57637505D01*
X59920197Y-57638856D01*
X59914262Y-57641498D01*
X59914254Y-57641501D01*
X59753207Y-57713205D01*
X59753202Y-57713207D01*
X59747270Y-57715849D01*
X59742016Y-57719665D01*
X59742011Y-57719669D01*
X59599387Y-57823291D01*
X59599382Y-57823295D01*
X59594129Y-57827112D01*
X59589787Y-57831933D01*
X59589776Y-57831944D01*
X59565890Y-57858473D01*
X59524176Y-57888780D01*
X59473741Y-57899500D01*
X53200097Y-57899500D01*
X53152644Y-57890061D01*
X53112416Y-57863181D01*
X50241100Y-54991865D01*
X50214220Y-54951637D01*
X50204937Y-54904970D01*
X50205460Y-54900000D01*
X50185674Y-54711744D01*
X50127179Y-54531716D01*
X50032533Y-54367784D01*
X49950528Y-54276709D01*
X49910220Y-54231942D01*
X49910219Y-54231941D01*
X49905871Y-54227112D01*
X49900613Y-54223292D01*
X49900611Y-54223290D01*
X49757988Y-54119669D01*
X49757987Y-54119668D01*
X49752730Y-54115849D01*
X49746792Y-54113205D01*
X49585745Y-54041501D01*
X49585740Y-54041499D01*
X49579803Y-54038856D01*
X49573444Y-54037504D01*
X49573440Y-54037503D01*
X49401008Y-54000852D01*
X49401005Y-54000851D01*
X49394646Y-53999500D01*
X49205354Y-53999500D01*
X49198995Y-54000851D01*
X49198991Y-54000852D01*
X49026559Y-54037503D01*
X49026552Y-54037505D01*
X49020197Y-54038856D01*
X49014262Y-54041498D01*
X49014254Y-54041501D01*
X48853207Y-54113205D01*
X48853202Y-54113207D01*
X48847270Y-54115849D01*
X48842016Y-54119665D01*
X48842011Y-54119669D01*
X48699388Y-54223290D01*
X48699381Y-54223295D01*
X48694129Y-54227112D01*
X48689784Y-54231937D01*
X48689779Y-54231942D01*
X48571813Y-54362956D01*
X48571808Y-54362962D01*
X48567467Y-54367784D01*
X48564222Y-54373404D01*
X48564218Y-54373410D01*
X48476069Y-54526089D01*
X48476066Y-54526094D01*
X48472821Y-54531716D01*
X48470815Y-54537888D01*
X48470813Y-54537894D01*
X48416333Y-54705564D01*
X48416331Y-54705573D01*
X48414326Y-54711744D01*
X48413648Y-54718194D01*
X48413646Y-54718204D01*
X48395962Y-54886464D01*
X48394540Y-54900000D01*
X27500500Y-54900000D01*
X27500500Y-53600000D01*
X63094540Y-53600000D01*
X63095219Y-53606460D01*
X63113646Y-53781795D01*
X63113647Y-53781803D01*
X63114326Y-53788256D01*
X63116331Y-53794428D01*
X63116333Y-53794435D01*
X63170813Y-53962105D01*
X63172821Y-53968284D01*
X63176068Y-53973908D01*
X63176069Y-53973910D01*
X63258017Y-54115849D01*
X63267467Y-54132216D01*
X63271811Y-54137041D01*
X63271813Y-54137043D01*
X63352912Y-54227112D01*
X63394129Y-54272888D01*
X63547270Y-54384151D01*
X63720197Y-54461144D01*
X63905354Y-54500500D01*
X64088143Y-54500500D01*
X64094646Y-54500500D01*
X64279803Y-54461144D01*
X64452730Y-54384151D01*
X64605871Y-54272888D01*
X64732533Y-54132216D01*
X64827179Y-53968284D01*
X64885674Y-53788256D01*
X64905460Y-53600000D01*
X64885674Y-53411744D01*
X64827179Y-53231716D01*
X64732533Y-53067784D01*
X64605871Y-52927112D01*
X64600613Y-52923292D01*
X64600611Y-52923290D01*
X64457988Y-52819669D01*
X64457987Y-52819668D01*
X64452730Y-52815849D01*
X64446792Y-52813205D01*
X64285745Y-52741501D01*
X64285740Y-52741499D01*
X64279803Y-52738856D01*
X64273444Y-52737504D01*
X64273440Y-52737503D01*
X64101008Y-52700852D01*
X64101005Y-52700851D01*
X64094646Y-52699500D01*
X63905354Y-52699500D01*
X63898995Y-52700851D01*
X63898991Y-52700852D01*
X63726559Y-52737503D01*
X63726552Y-52737505D01*
X63720197Y-52738856D01*
X63714262Y-52741498D01*
X63714254Y-52741501D01*
X63553207Y-52813205D01*
X63553202Y-52813207D01*
X63547270Y-52815849D01*
X63542016Y-52819665D01*
X63542011Y-52819669D01*
X63399388Y-52923290D01*
X63399381Y-52923295D01*
X63394129Y-52927112D01*
X63389784Y-52931937D01*
X63389779Y-52931942D01*
X63271813Y-53062956D01*
X63271808Y-53062962D01*
X63267467Y-53067784D01*
X63264222Y-53073404D01*
X63264218Y-53073410D01*
X63176069Y-53226089D01*
X63176066Y-53226094D01*
X63172821Y-53231716D01*
X63170815Y-53237888D01*
X63170813Y-53237894D01*
X63116333Y-53405564D01*
X63116331Y-53405573D01*
X63114326Y-53411744D01*
X63113648Y-53418194D01*
X63113646Y-53418204D01*
X63095962Y-53586464D01*
X63094540Y-53600000D01*
X27500500Y-53600000D01*
X27500500Y-52400000D01*
X53394540Y-52400000D01*
X53395219Y-52406460D01*
X53413646Y-52581795D01*
X53413647Y-52581803D01*
X53414326Y-52588256D01*
X53416331Y-52594428D01*
X53416333Y-52594435D01*
X53470813Y-52762105D01*
X53472821Y-52768284D01*
X53476068Y-52773908D01*
X53476069Y-52773910D01*
X53562313Y-52923290D01*
X53567467Y-52932216D01*
X53694129Y-53072888D01*
X53847270Y-53184151D01*
X54020197Y-53261144D01*
X54205354Y-53300500D01*
X54388143Y-53300500D01*
X54394646Y-53300500D01*
X54579803Y-53261144D01*
X54752730Y-53184151D01*
X54905871Y-53072888D01*
X55032533Y-52932216D01*
X55127179Y-52768284D01*
X55185674Y-52588256D01*
X55205460Y-52400000D01*
X55185674Y-52211744D01*
X55127179Y-52031716D01*
X55032533Y-51867784D01*
X54995317Y-51826452D01*
X54910220Y-51731942D01*
X54910219Y-51731941D01*
X54905871Y-51727112D01*
X54900613Y-51723292D01*
X54900611Y-51723290D01*
X54757988Y-51619669D01*
X54757987Y-51619668D01*
X54752730Y-51615849D01*
X54746792Y-51613205D01*
X54585745Y-51541501D01*
X54585740Y-51541499D01*
X54579803Y-51538856D01*
X54573444Y-51537504D01*
X54573440Y-51537503D01*
X54401008Y-51500852D01*
X54401005Y-51500851D01*
X54394646Y-51499500D01*
X54205354Y-51499500D01*
X54198995Y-51500851D01*
X54198991Y-51500852D01*
X54026559Y-51537503D01*
X54026552Y-51537505D01*
X54020197Y-51538856D01*
X54014262Y-51541498D01*
X54014254Y-51541501D01*
X53853207Y-51613205D01*
X53853202Y-51613207D01*
X53847270Y-51615849D01*
X53842016Y-51619665D01*
X53842011Y-51619669D01*
X53699388Y-51723290D01*
X53699381Y-51723295D01*
X53694129Y-51727112D01*
X53689784Y-51731937D01*
X53689779Y-51731942D01*
X53571813Y-51862956D01*
X53571808Y-51862962D01*
X53567467Y-51867784D01*
X53564222Y-51873404D01*
X53564218Y-51873410D01*
X53476069Y-52026089D01*
X53476066Y-52026094D01*
X53472821Y-52031716D01*
X53470815Y-52037888D01*
X53470813Y-52037894D01*
X53416333Y-52205564D01*
X53416331Y-52205573D01*
X53414326Y-52211744D01*
X53413648Y-52218194D01*
X53413646Y-52218204D01*
X53395962Y-52386464D01*
X53394540Y-52400000D01*
X27500500Y-52400000D01*
X27500500Y-48000000D01*
X36819464Y-48000000D01*
X36839565Y-48216923D01*
X36899183Y-48426459D01*
X36901735Y-48431585D01*
X36901737Y-48431589D01*
X36993733Y-48616342D01*
X36993735Y-48616346D01*
X36996288Y-48621472D01*
X37127573Y-48795322D01*
X37288568Y-48942088D01*
X37473790Y-49056772D01*
X37676931Y-49135470D01*
X37891074Y-49175500D01*
X38103197Y-49175500D01*
X38108926Y-49175500D01*
X38323069Y-49135470D01*
X38526210Y-49056772D01*
X38711432Y-48942088D01*
X38872427Y-48795322D01*
X38901046Y-48757423D01*
X38944728Y-48721150D01*
X39000000Y-48708150D01*
X39055272Y-48721150D01*
X39098953Y-48757423D01*
X39127573Y-48795322D01*
X39131807Y-48799182D01*
X39131810Y-48799185D01*
X39154982Y-48820309D01*
X39288568Y-48942088D01*
X39473790Y-49056772D01*
X39676931Y-49135470D01*
X39891074Y-49175500D01*
X40103197Y-49175500D01*
X40108926Y-49175500D01*
X40323069Y-49135470D01*
X40526210Y-49056772D01*
X40587097Y-49019072D01*
X40652373Y-49000500D01*
X67939691Y-49000500D01*
X67995341Y-49013689D01*
X68039153Y-49050450D01*
X68061806Y-49102964D01*
X68058795Y-49154685D01*
X68059196Y-49154756D01*
X68058592Y-49158179D01*
X68058483Y-49160059D01*
X68057942Y-49161863D01*
X68057939Y-49161877D01*
X68055870Y-49168790D01*
X68055450Y-49175996D01*
X68055449Y-49176004D01*
X68046088Y-49336725D01*
X68046088Y-49336733D01*
X68045669Y-49343935D01*
X68076135Y-49516711D01*
X68145623Y-49677804D01*
X68250390Y-49818530D01*
X68384786Y-49931302D01*
X68541567Y-50010040D01*
X68712279Y-50050500D01*
X68840111Y-50050500D01*
X68843709Y-50050500D01*
X68974255Y-50035241D01*
X69139117Y-49975237D01*
X69285696Y-49878830D01*
X69406092Y-49751218D01*
X69493812Y-49599281D01*
X69544130Y-49431210D01*
X69554331Y-49256065D01*
X69536467Y-49154756D01*
X69534929Y-49146033D01*
X69537270Y-49092407D01*
X69562055Y-49044794D01*
X69604640Y-49012118D01*
X69657045Y-49000500D01*
X70185830Y-49000500D01*
X70233283Y-49009939D01*
X70267341Y-49032696D01*
X70267454Y-49032546D01*
X70382669Y-49118796D01*
X70517517Y-49169091D01*
X70577127Y-49175500D01*
X72022872Y-49175499D01*
X72082483Y-49169091D01*
X72217331Y-49118796D01*
X72332546Y-49032546D01*
X72394785Y-48949404D01*
X72448934Y-48908215D01*
X72516666Y-48901796D01*
X72577588Y-48932078D01*
X72588568Y-48942088D01*
X72773790Y-49056772D01*
X72976931Y-49135470D01*
X73191074Y-49175500D01*
X73403197Y-49175500D01*
X73408926Y-49175500D01*
X73623069Y-49135470D01*
X73826210Y-49056772D01*
X74011432Y-48942088D01*
X74172427Y-48795322D01*
X74303712Y-48621472D01*
X74400817Y-48426459D01*
X74460435Y-48216923D01*
X74480536Y-48000000D01*
X74460435Y-47783077D01*
X74400817Y-47573541D01*
X74303712Y-47378528D01*
X74172427Y-47204678D01*
X74048425Y-47091635D01*
X74012698Y-47033934D01*
X74012698Y-46966066D01*
X74048425Y-46908364D01*
X74172427Y-46795322D01*
X74303712Y-46621472D01*
X74400817Y-46426459D01*
X74460435Y-46216923D01*
X74480536Y-46000000D01*
X74460435Y-45783077D01*
X74400817Y-45573541D01*
X74303712Y-45378528D01*
X74172427Y-45204678D01*
X74048425Y-45091635D01*
X74012698Y-45033934D01*
X74012698Y-44966066D01*
X74048425Y-44908364D01*
X74172427Y-44795322D01*
X74303712Y-44621472D01*
X74400817Y-44426459D01*
X74460435Y-44216923D01*
X74480536Y-44000000D01*
X74460435Y-43783077D01*
X74400817Y-43573541D01*
X74303712Y-43378528D01*
X74172427Y-43204678D01*
X74048425Y-43091635D01*
X74012698Y-43033934D01*
X74012698Y-42966066D01*
X74048425Y-42908364D01*
X74172427Y-42795322D01*
X74303712Y-42621472D01*
X74400817Y-42426459D01*
X74460435Y-42216923D01*
X74480536Y-42000000D01*
X74460435Y-41783077D01*
X74400817Y-41573541D01*
X74303712Y-41378528D01*
X74172427Y-41204678D01*
X74168190Y-41200815D01*
X74168186Y-41200811D01*
X74048426Y-41091636D01*
X74012698Y-41033933D01*
X74012698Y-40966064D01*
X74048422Y-40908366D01*
X74172427Y-40795322D01*
X74303712Y-40621472D01*
X74400817Y-40426459D01*
X74460435Y-40216923D01*
X74480536Y-40000000D01*
X74460435Y-39783077D01*
X74400817Y-39573541D01*
X74303712Y-39378528D01*
X74172427Y-39204678D01*
X74048425Y-39091635D01*
X74012698Y-39033934D01*
X74012698Y-38966066D01*
X74048425Y-38908364D01*
X74172427Y-38795322D01*
X74303712Y-38621472D01*
X74400817Y-38426459D01*
X74460435Y-38216923D01*
X74480536Y-38000000D01*
X74460435Y-37783077D01*
X74400817Y-37573541D01*
X74303712Y-37378528D01*
X74172427Y-37204678D01*
X74048425Y-37091635D01*
X74012698Y-37033934D01*
X74012698Y-36966066D01*
X74048425Y-36908364D01*
X74172427Y-36795322D01*
X74303712Y-36621472D01*
X74400817Y-36426459D01*
X74460435Y-36216923D01*
X74480536Y-36000000D01*
X74460435Y-35783077D01*
X74400817Y-35573541D01*
X74303712Y-35378528D01*
X74172427Y-35204678D01*
X74168190Y-35200815D01*
X74168186Y-35200811D01*
X74048426Y-35091636D01*
X74012698Y-35033933D01*
X74012698Y-34966064D01*
X74048422Y-34908366D01*
X74172427Y-34795322D01*
X74303712Y-34621472D01*
X74400817Y-34426459D01*
X74460435Y-34216923D01*
X74480536Y-34000000D01*
X74460435Y-33783077D01*
X74400817Y-33573541D01*
X74303712Y-33378528D01*
X74172427Y-33204678D01*
X74048425Y-33091635D01*
X74012698Y-33033934D01*
X74012698Y-32966066D01*
X74048425Y-32908364D01*
X74172427Y-32795322D01*
X74303712Y-32621472D01*
X74400817Y-32426459D01*
X74460435Y-32216923D01*
X74480536Y-32000000D01*
X74460435Y-31783077D01*
X74400817Y-31573541D01*
X74303712Y-31378528D01*
X74172427Y-31204678D01*
X74048425Y-31091635D01*
X74012698Y-31033934D01*
X74012698Y-30966066D01*
X74048425Y-30908364D01*
X74172427Y-30795322D01*
X74303712Y-30621472D01*
X74400817Y-30426459D01*
X74460435Y-30216923D01*
X74480536Y-30000000D01*
X74460435Y-29783077D01*
X74400817Y-29573541D01*
X74303712Y-29378528D01*
X74172427Y-29204678D01*
X74011432Y-29057912D01*
X74006562Y-29054897D01*
X74006560Y-29054895D01*
X73831086Y-28946247D01*
X73831085Y-28946246D01*
X73826210Y-28943228D01*
X73820863Y-28941156D01*
X73820860Y-28941155D01*
X73628417Y-28866602D01*
X73628418Y-28866602D01*
X73623069Y-28864530D01*
X73617443Y-28863478D01*
X73617435Y-28863476D01*
X73414555Y-28825552D01*
X73414552Y-28825551D01*
X73408926Y-28824500D01*
X73191074Y-28824500D01*
X73185448Y-28825551D01*
X73185444Y-28825552D01*
X72982564Y-28863476D01*
X72982553Y-28863478D01*
X72976931Y-28864530D01*
X72971584Y-28866601D01*
X72971582Y-28866602D01*
X72779139Y-28941155D01*
X72779132Y-28941158D01*
X72773790Y-28943228D01*
X72768918Y-28946244D01*
X72768913Y-28946247D01*
X72593439Y-29054895D01*
X72593431Y-29054900D01*
X72588568Y-29057912D01*
X72584337Y-29061768D01*
X72584333Y-29061772D01*
X72431813Y-29200812D01*
X72431809Y-29200816D01*
X72427573Y-29204678D01*
X72424120Y-29209249D01*
X72424114Y-29209257D01*
X72398953Y-29242576D01*
X72355271Y-29278848D01*
X72300000Y-29291848D01*
X72244729Y-29278848D01*
X72201047Y-29242576D01*
X72175885Y-29209257D01*
X72175883Y-29209255D01*
X72172427Y-29204678D01*
X72011432Y-29057912D01*
X72006562Y-29054897D01*
X72006560Y-29054895D01*
X71831086Y-28946247D01*
X71831085Y-28946246D01*
X71826210Y-28943228D01*
X71820863Y-28941156D01*
X71820860Y-28941155D01*
X71628417Y-28866602D01*
X71628418Y-28866602D01*
X71623069Y-28864530D01*
X71617443Y-28863478D01*
X71617435Y-28863476D01*
X71414555Y-28825552D01*
X71414552Y-28825551D01*
X71408926Y-28824500D01*
X71191074Y-28824500D01*
X71185448Y-28825551D01*
X71185444Y-28825552D01*
X70982564Y-28863476D01*
X70982553Y-28863478D01*
X70976931Y-28864530D01*
X70971584Y-28866601D01*
X70971582Y-28866602D01*
X70779139Y-28941155D01*
X70779132Y-28941158D01*
X70773790Y-28943228D01*
X70768918Y-28946244D01*
X70768913Y-28946247D01*
X70593439Y-29054895D01*
X70593431Y-29054900D01*
X70588568Y-29057912D01*
X70584337Y-29061768D01*
X70584333Y-29061772D01*
X70431813Y-29200812D01*
X70431809Y-29200816D01*
X70427573Y-29204678D01*
X70424119Y-29209251D01*
X70424116Y-29209255D01*
X70300000Y-29373612D01*
X70296288Y-29378528D01*
X70293738Y-29383648D01*
X70293733Y-29383657D01*
X70201737Y-29568410D01*
X70201733Y-29568418D01*
X70199183Y-29573541D01*
X70139565Y-29783077D01*
X70119464Y-30000000D01*
X70139565Y-30216923D01*
X70199183Y-30426459D01*
X70201735Y-30431585D01*
X70201737Y-30431589D01*
X70293734Y-30616344D01*
X70293736Y-30616348D01*
X70295649Y-30620188D01*
X70296288Y-30621472D01*
X70296118Y-30621556D01*
X70312916Y-30670432D01*
X70306585Y-30724981D01*
X70277316Y-30771447D01*
X69885584Y-31163181D01*
X69845356Y-31190061D01*
X69797903Y-31199500D01*
X41500097Y-31199500D01*
X41452644Y-31190061D01*
X41412416Y-31163181D01*
X41188121Y-30938886D01*
X41161813Y-30900017D01*
X41151837Y-30854154D01*
X41159619Y-30807876D01*
X41169091Y-30782483D01*
X41175500Y-30722873D01*
X41175499Y-29277128D01*
X41169091Y-29217517D01*
X41118796Y-29082669D01*
X41032546Y-28967454D01*
X40973625Y-28923346D01*
X40924431Y-28886519D01*
X40924430Y-28886518D01*
X40917331Y-28881204D01*
X40782483Y-28830909D01*
X40774770Y-28830079D01*
X40774767Y-28830079D01*
X40726180Y-28824855D01*
X40726169Y-28824854D01*
X40722873Y-28824500D01*
X40719550Y-28824500D01*
X39280439Y-28824500D01*
X39280420Y-28824500D01*
X39277128Y-28824501D01*
X39273850Y-28824853D01*
X39273838Y-28824854D01*
X39225231Y-28830079D01*
X39225225Y-28830080D01*
X39217517Y-28830909D01*
X39210252Y-28833618D01*
X39210246Y-28833620D01*
X39090980Y-28878104D01*
X39090978Y-28878104D01*
X39082669Y-28881204D01*
X39075572Y-28886516D01*
X39075568Y-28886519D01*
X38974550Y-28962141D01*
X38974546Y-28962144D01*
X38967454Y-28967454D01*
X38962144Y-28974546D01*
X38962137Y-28974554D01*
X38905214Y-29050594D01*
X38851064Y-29091784D01*
X38783332Y-29098203D01*
X38722409Y-29067919D01*
X38715666Y-29061772D01*
X38711432Y-29057912D01*
X38706562Y-29054897D01*
X38706560Y-29054895D01*
X38531086Y-28946247D01*
X38531085Y-28946246D01*
X38526210Y-28943228D01*
X38520863Y-28941156D01*
X38520860Y-28941155D01*
X38328417Y-28866602D01*
X38328418Y-28866602D01*
X38323069Y-28864530D01*
X38317443Y-28863478D01*
X38317435Y-28863476D01*
X38114555Y-28825552D01*
X38114552Y-28825551D01*
X38108926Y-28824500D01*
X37891074Y-28824500D01*
X37885448Y-28825551D01*
X37885444Y-28825552D01*
X37682564Y-28863476D01*
X37682553Y-28863478D01*
X37676931Y-28864530D01*
X37671584Y-28866601D01*
X37671582Y-28866602D01*
X37479139Y-28941155D01*
X37479132Y-28941158D01*
X37473790Y-28943228D01*
X37468918Y-28946244D01*
X37468913Y-28946247D01*
X37293439Y-29054895D01*
X37293431Y-29054900D01*
X37288568Y-29057912D01*
X37284337Y-29061768D01*
X37284333Y-29061772D01*
X37131813Y-29200812D01*
X37131809Y-29200816D01*
X37127573Y-29204678D01*
X37124119Y-29209251D01*
X37124116Y-29209255D01*
X37000000Y-29373612D01*
X36996288Y-29378528D01*
X36993738Y-29383648D01*
X36993733Y-29383657D01*
X36901737Y-29568410D01*
X36901733Y-29568418D01*
X36899183Y-29573541D01*
X36839565Y-29783077D01*
X36819464Y-30000000D01*
X36839565Y-30216923D01*
X36899183Y-30426459D01*
X36901735Y-30431585D01*
X36901737Y-30431589D01*
X36993733Y-30616342D01*
X36993735Y-30616346D01*
X36996288Y-30621472D01*
X37127573Y-30795322D01*
X37131809Y-30799183D01*
X37131813Y-30799188D01*
X37251573Y-30908363D01*
X37287301Y-30966066D01*
X37287301Y-31033934D01*
X37251573Y-31091637D01*
X37131813Y-31200811D01*
X37131803Y-31200821D01*
X37127573Y-31204678D01*
X37124119Y-31209251D01*
X37124116Y-31209255D01*
X36999741Y-31373955D01*
X36996288Y-31378528D01*
X36993738Y-31383648D01*
X36993733Y-31383657D01*
X36901737Y-31568410D01*
X36901733Y-31568418D01*
X36899183Y-31573541D01*
X36839565Y-31783077D01*
X36819464Y-32000000D01*
X36839565Y-32216923D01*
X36899183Y-32426459D01*
X36901735Y-32431585D01*
X36901737Y-32431589D01*
X36993733Y-32616342D01*
X36993735Y-32616346D01*
X36996288Y-32621472D01*
X37127573Y-32795322D01*
X37131809Y-32799183D01*
X37131813Y-32799188D01*
X37251573Y-32908363D01*
X37287301Y-32966066D01*
X37287301Y-33033934D01*
X37251573Y-33091637D01*
X37131813Y-33200811D01*
X37131803Y-33200821D01*
X37127573Y-33204678D01*
X37124119Y-33209251D01*
X37124116Y-33209255D01*
X37109544Y-33228552D01*
X36996288Y-33378528D01*
X36993738Y-33383648D01*
X36993733Y-33383657D01*
X36901737Y-33568410D01*
X36901733Y-33568418D01*
X36899183Y-33573541D01*
X36839565Y-33783077D01*
X36819464Y-34000000D01*
X36839565Y-34216923D01*
X36899183Y-34426459D01*
X36901735Y-34431585D01*
X36901737Y-34431589D01*
X36993733Y-34616342D01*
X36993735Y-34616346D01*
X36996288Y-34621472D01*
X37127573Y-34795322D01*
X37251573Y-34908363D01*
X37287301Y-34966064D01*
X37287302Y-35033933D01*
X37251573Y-35091636D01*
X37127573Y-35204678D01*
X37124119Y-35209251D01*
X37124116Y-35209255D01*
X37000000Y-35373612D01*
X36996288Y-35378528D01*
X36993738Y-35383648D01*
X36993733Y-35383657D01*
X36901737Y-35568410D01*
X36901733Y-35568418D01*
X36899183Y-35573541D01*
X36839565Y-35783077D01*
X36819464Y-36000000D01*
X36839565Y-36216923D01*
X36899183Y-36426459D01*
X36901735Y-36431585D01*
X36901737Y-36431589D01*
X36993733Y-36616342D01*
X36993735Y-36616346D01*
X36996288Y-36621472D01*
X37127573Y-36795322D01*
X37251573Y-36908363D01*
X37287301Y-36966064D01*
X37287302Y-37033933D01*
X37251573Y-37091636D01*
X37127573Y-37204678D01*
X37124119Y-37209251D01*
X37124116Y-37209255D01*
X37061745Y-37291848D01*
X36996288Y-37378528D01*
X36993738Y-37383648D01*
X36993733Y-37383657D01*
X36901737Y-37568410D01*
X36901733Y-37568418D01*
X36899183Y-37573541D01*
X36839565Y-37783077D01*
X36819464Y-38000000D01*
X36839565Y-38216923D01*
X36899183Y-38426459D01*
X36901735Y-38431585D01*
X36901737Y-38431589D01*
X36993733Y-38616342D01*
X36993735Y-38616346D01*
X36996288Y-38621472D01*
X37127573Y-38795322D01*
X37131809Y-38799183D01*
X37131813Y-38799188D01*
X37251573Y-38908363D01*
X37287301Y-38966066D01*
X37287301Y-39033934D01*
X37251573Y-39091637D01*
X37131813Y-39200811D01*
X37131803Y-39200821D01*
X37127573Y-39204678D01*
X37124119Y-39209251D01*
X37124116Y-39209255D01*
X36999741Y-39373955D01*
X36996288Y-39378528D01*
X36993738Y-39383648D01*
X36993733Y-39383657D01*
X36901737Y-39568410D01*
X36901733Y-39568418D01*
X36899183Y-39573541D01*
X36897614Y-39579053D01*
X36897614Y-39579055D01*
X36891513Y-39600500D01*
X36839565Y-39783077D01*
X36819464Y-40000000D01*
X36839565Y-40216923D01*
X36899183Y-40426459D01*
X36901735Y-40431585D01*
X36901737Y-40431589D01*
X36993733Y-40616342D01*
X36993735Y-40616346D01*
X36996288Y-40621472D01*
X37127573Y-40795322D01*
X37251573Y-40908363D01*
X37287301Y-40966064D01*
X37287302Y-41033933D01*
X37251573Y-41091636D01*
X37127573Y-41204678D01*
X37124119Y-41209251D01*
X37124116Y-41209255D01*
X37053994Y-41302112D01*
X36996288Y-41378528D01*
X36993738Y-41383648D01*
X36993733Y-41383657D01*
X36901737Y-41568410D01*
X36901733Y-41568418D01*
X36899183Y-41573541D01*
X36897614Y-41579053D01*
X36897614Y-41579055D01*
X36889830Y-41606415D01*
X36839565Y-41783077D01*
X36839036Y-41788782D01*
X36839036Y-41788784D01*
X36822379Y-41968540D01*
X36819464Y-42000000D01*
X36819993Y-42005709D01*
X36835164Y-42169435D01*
X36839565Y-42216923D01*
X36899183Y-42426459D01*
X36901735Y-42431585D01*
X36901737Y-42431589D01*
X36993733Y-42616342D01*
X36993735Y-42616346D01*
X36996288Y-42621472D01*
X37127573Y-42795322D01*
X37251573Y-42908363D01*
X37287301Y-42966064D01*
X37287302Y-43033933D01*
X37251573Y-43091636D01*
X37127573Y-43204678D01*
X37124119Y-43209251D01*
X37124116Y-43209255D01*
X37000000Y-43373612D01*
X36996288Y-43378528D01*
X36993738Y-43383648D01*
X36993733Y-43383657D01*
X36901737Y-43568410D01*
X36901733Y-43568418D01*
X36899183Y-43573541D01*
X36839565Y-43783077D01*
X36819464Y-44000000D01*
X36839565Y-44216923D01*
X36899183Y-44426459D01*
X36901735Y-44431585D01*
X36901737Y-44431589D01*
X36993733Y-44616342D01*
X36993735Y-44616346D01*
X36996288Y-44621472D01*
X37127573Y-44795322D01*
X37131809Y-44799183D01*
X37131813Y-44799188D01*
X37251573Y-44908363D01*
X37287301Y-44966066D01*
X37287301Y-45033934D01*
X37251573Y-45091637D01*
X37131813Y-45200811D01*
X37131803Y-45200821D01*
X37127573Y-45204678D01*
X37124119Y-45209251D01*
X37124116Y-45209255D01*
X36999741Y-45373955D01*
X36996288Y-45378528D01*
X36993738Y-45383648D01*
X36993733Y-45383657D01*
X36901737Y-45568410D01*
X36901733Y-45568418D01*
X36899183Y-45573541D01*
X36839565Y-45783077D01*
X36819464Y-46000000D01*
X36839565Y-46216923D01*
X36899183Y-46426459D01*
X36901735Y-46431585D01*
X36901737Y-46431589D01*
X36993733Y-46616342D01*
X36993735Y-46616346D01*
X36996288Y-46621472D01*
X37127573Y-46795322D01*
X37131809Y-46799183D01*
X37131813Y-46799188D01*
X37251573Y-46908363D01*
X37287301Y-46966066D01*
X37287301Y-47033934D01*
X37251573Y-47091637D01*
X37131813Y-47200811D01*
X37131803Y-47200821D01*
X37127573Y-47204678D01*
X37124119Y-47209251D01*
X37124116Y-47209255D01*
X36999741Y-47373955D01*
X36996288Y-47378528D01*
X36993738Y-47383648D01*
X36993733Y-47383657D01*
X36901737Y-47568410D01*
X36901733Y-47568418D01*
X36899183Y-47573541D01*
X36839565Y-47783077D01*
X36819464Y-48000000D01*
X27500500Y-48000000D01*
X27500500Y-28743935D01*
X41745669Y-28743935D01*
X41776135Y-28916711D01*
X41845623Y-29077804D01*
X41849936Y-29083597D01*
X41849937Y-29083599D01*
X41895620Y-29144962D01*
X41950390Y-29218530D01*
X42084786Y-29331302D01*
X42241567Y-29410040D01*
X42412279Y-29450500D01*
X42540111Y-29450500D01*
X42543709Y-29450500D01*
X42674255Y-29435241D01*
X42839117Y-29375237D01*
X42985696Y-29278830D01*
X43106092Y-29151218D01*
X43193812Y-28999281D01*
X43244130Y-28831210D01*
X43254331Y-28656065D01*
X43223865Y-28483289D01*
X43154377Y-28322196D01*
X43049610Y-28181470D01*
X42977747Y-28121170D01*
X42920745Y-28073339D01*
X42920744Y-28073338D01*
X42915214Y-28068698D01*
X42822810Y-28022291D01*
X42764883Y-27993199D01*
X42764880Y-27993198D01*
X42758433Y-27989960D01*
X42751407Y-27988294D01*
X42751405Y-27988294D01*
X42594749Y-27951165D01*
X42594743Y-27951164D01*
X42587721Y-27949500D01*
X42456291Y-27949500D01*
X42452725Y-27949916D01*
X42452721Y-27949917D01*
X42332915Y-27963920D01*
X42332907Y-27963921D01*
X42325745Y-27964759D01*
X42318967Y-27967225D01*
X42318958Y-27967228D01*
X42167674Y-28022291D01*
X42167671Y-28022292D01*
X42160883Y-28024763D01*
X42154850Y-28028730D01*
X42154842Y-28028735D01*
X42020340Y-28117199D01*
X42020334Y-28117203D01*
X42014304Y-28121170D01*
X42009351Y-28126419D01*
X42009346Y-28126424D01*
X41898865Y-28243527D01*
X41898861Y-28243531D01*
X41893908Y-28248782D01*
X41890299Y-28255032D01*
X41890296Y-28255037D01*
X41809799Y-28394463D01*
X41809796Y-28394468D01*
X41806188Y-28400719D01*
X41804117Y-28407634D01*
X41804117Y-28407636D01*
X41757941Y-28561869D01*
X41757939Y-28561877D01*
X41755870Y-28568790D01*
X41755450Y-28575996D01*
X41755449Y-28576004D01*
X41746088Y-28736725D01*
X41746088Y-28736733D01*
X41745669Y-28743935D01*
X27500500Y-28743935D01*
X27500500Y-27606092D01*
X27501097Y-27593939D01*
X27509805Y-27505519D01*
X27514665Y-27456173D01*
X27519403Y-27432349D01*
X27557816Y-27305719D01*
X27567113Y-27283278D01*
X27629485Y-27166587D01*
X27642982Y-27146387D01*
X27726924Y-27044103D01*
X27744103Y-27026924D01*
X27846387Y-26942982D01*
X27866587Y-26929485D01*
X27983278Y-26867113D01*
X28005719Y-26857816D01*
X28132349Y-26819403D01*
X28156173Y-26814665D01*
X28285170Y-26801960D01*
X28293939Y-26801097D01*
X28306092Y-26800500D01*
X28339882Y-26800500D01*
X82960118Y-26800500D01*
X82993908Y-26800500D01*
X83006061Y-26801097D01*
G37*
%TD.AperFunction*%
M02*
