%TF.GenerationSoftware,KiCad,Pcbnew,(7.0.0)*%
%TF.CreationDate,2023-03-13T21:24:48+00:00*%
%TF.ProjectId,main,6d61696e-2e6b-4696-9361-645f70636258,1.0*%
%TF.SameCoordinates,Original*%
%TF.FileFunction,Copper,L2,Inr*%
%TF.FilePolarity,Positive*%
%FSLAX46Y46*%
G04 Gerber Fmt 4.6, Leading zero omitted, Abs format (unit mm)*
G04 Created by KiCad (PCBNEW (7.0.0)) date 2023-03-13 21:24:48*
%MOMM*%
%LPD*%
G01*
G04 APERTURE LIST*
%TA.AperFunction,ComponentPad*%
%ADD10R,1.350000X1.350000*%
%TD*%
%TA.AperFunction,ComponentPad*%
%ADD11O,1.350000X1.350000*%
%TD*%
%TA.AperFunction,ComponentPad*%
%ADD12R,1.700000X1.700000*%
%TD*%
%TA.AperFunction,ComponentPad*%
%ADD13O,1.700000X1.700000*%
%TD*%
%TA.AperFunction,ComponentPad*%
%ADD14C,2.200000*%
%TD*%
%TA.AperFunction,ViaPad*%
%ADD15C,0.800000*%
%TD*%
G04 APERTURE END LIST*
D10*
X79799999Y-47999999D03*
D11*
X79799999Y-45999999D03*
X79799999Y-43999999D03*
X79799999Y-41999999D03*
X79799999Y-39999999D03*
X79799999Y-37999999D03*
X79799999Y-35999999D03*
X79799999Y-33999999D03*
X79799999Y-31999999D03*
X79799999Y-29999999D03*
X81799999Y-47999999D03*
X81799999Y-45999999D03*
X81799999Y-43999999D03*
X81799999Y-41999999D03*
X81799999Y-39999999D03*
X81799999Y-37999999D03*
X81799999Y-35999999D03*
X81799999Y-33999999D03*
X81799999Y-31999999D03*
X81799999Y-29999999D03*
D10*
X39999999Y-29999999D03*
D11*
X39999999Y-31999999D03*
X39999999Y-33999999D03*
X39999999Y-35999999D03*
X39999999Y-37999999D03*
X39999999Y-39999999D03*
X39999999Y-41999999D03*
X39999999Y-43999999D03*
X39999999Y-45999999D03*
X39999999Y-47999999D03*
X37999999Y-29999999D03*
X37999999Y-31999999D03*
X37999999Y-33999999D03*
X37999999Y-35999999D03*
X37999999Y-37999999D03*
X37999999Y-39999999D03*
X37999999Y-41999999D03*
X37999999Y-43999999D03*
X37999999Y-45999999D03*
X37999999Y-47999999D03*
D12*
X84559999Y-62019999D03*
D13*
X87099999Y-62019999D03*
X84559999Y-64559999D03*
X87099999Y-64559999D03*
X84559999Y-67099999D03*
X87099999Y-67099999D03*
D14*
X42674900Y-58190000D03*
X42674900Y-65810000D03*
D15*
X54400000Y-58200000D03*
X62800000Y-52400000D03*
X53300000Y-69600000D03*
X54400000Y-62600000D03*
X55700000Y-58200000D03*
X54400000Y-63700000D03*
X55700000Y-63700000D03*
X72500000Y-53600000D03*
X55700000Y-62600000D03*
X53100000Y-63700000D03*
X60200000Y-68500000D03*
X76100000Y-59500000D03*
X60800000Y-67700000D03*
X60700000Y-59500000D03*
X69100000Y-64000000D03*
X60200000Y-69700000D03*
X68700000Y-58500000D03*
X57800000Y-54900000D03*
X74700000Y-51100000D03*
X72500000Y-57700000D03*
X82800000Y-56600000D03*
X69000000Y-66900000D03*
X47020992Y-43025000D03*
X72779008Y-43025000D03*
X72779008Y-41975000D03*
X47020992Y-41975000D03*
X35000000Y-54000000D03*
X59200000Y-68500000D03*
X50100000Y-51700000D03*
X56700000Y-49700000D03*
X54000000Y-46000000D03*
X51400000Y-51700000D03*
X45800000Y-68700000D03*
X66400000Y-46000000D03*
X35000000Y-70000000D03*
X90000000Y-29000000D03*
X40000000Y-70000000D03*
X90000000Y-39000000D03*
X64500000Y-62300000D03*
X51800000Y-67700000D03*
X64000000Y-64600000D03*
X30000000Y-49000000D03*
X90000000Y-34000000D03*
X50150000Y-65875500D03*
X50100000Y-54100000D03*
X83000000Y-70000000D03*
X90000000Y-59000000D03*
X30000000Y-29000000D03*
X54200000Y-68200000D03*
X49000000Y-29000000D03*
X52700000Y-54100000D03*
X78000000Y-70000000D03*
X90000000Y-44000000D03*
X58900000Y-66400000D03*
X61300000Y-62300000D03*
X46800000Y-63100000D03*
X59000000Y-29000000D03*
X83000000Y-59000000D03*
X35000000Y-59000000D03*
X52700000Y-51700000D03*
X69100000Y-65599503D03*
X68300000Y-69799500D03*
X35000000Y-65000000D03*
X40000000Y-54000000D03*
X30000000Y-44000000D03*
X63500000Y-70000000D03*
X77800000Y-56300000D03*
X44000000Y-46000000D03*
X74000000Y-29000000D03*
X65900000Y-54200000D03*
X64000000Y-29000000D03*
X30000000Y-39000000D03*
X51400000Y-54100000D03*
X53600000Y-52900000D03*
X60400000Y-63900000D03*
X40000000Y-62000000D03*
X30000000Y-34200000D03*
X46800000Y-68700000D03*
X90000000Y-49000000D03*
X54225000Y-67200000D03*
X77800000Y-46000000D03*
X54000000Y-29000000D03*
X69400000Y-51800000D03*
X59200000Y-69700000D03*
X63000000Y-69200000D03*
X44000000Y-29100000D03*
X58900000Y-67500000D03*
X45800000Y-63100000D03*
X69000000Y-29000000D03*
X90000000Y-70000000D03*
X77300000Y-65800000D03*
X77300000Y-64300000D03*
X51100000Y-69600000D03*
X48300000Y-66124500D03*
%TA.AperFunction,Conductor*%
G36*
X91506061Y-26801097D02*
G01*
X91516051Y-26802080D01*
X91643824Y-26814665D01*
X91667652Y-26819404D01*
X91794277Y-26857815D01*
X91816725Y-26867114D01*
X91933406Y-26929482D01*
X91953616Y-26942986D01*
X92055891Y-27026920D01*
X92073079Y-27044108D01*
X92157012Y-27146381D01*
X92170517Y-27166593D01*
X92232883Y-27283271D01*
X92242186Y-27305728D01*
X92280593Y-27432338D01*
X92285335Y-27456180D01*
X92298903Y-27593938D01*
X92299500Y-27606092D01*
X92299500Y-70693908D01*
X92298903Y-70706062D01*
X92285335Y-70843819D01*
X92280593Y-70867661D01*
X92242186Y-70994271D01*
X92232883Y-71016728D01*
X92170517Y-71133406D01*
X92157012Y-71153618D01*
X92073079Y-71255891D01*
X92055891Y-71273079D01*
X91953618Y-71357012D01*
X91933406Y-71370517D01*
X91816728Y-71432883D01*
X91794271Y-71442186D01*
X91667661Y-71480593D01*
X91643819Y-71485335D01*
X91506062Y-71498903D01*
X91493908Y-71499500D01*
X28306092Y-71499500D01*
X28293938Y-71498903D01*
X28156180Y-71485335D01*
X28132340Y-71480593D01*
X28005728Y-71442186D01*
X27983271Y-71432883D01*
X27866593Y-71370517D01*
X27846381Y-71357012D01*
X27744108Y-71273079D01*
X27726920Y-71255891D01*
X27642986Y-71153616D01*
X27629482Y-71133406D01*
X27567116Y-71016728D01*
X27557815Y-70994277D01*
X27519404Y-70867652D01*
X27514665Y-70843824D01*
X27501097Y-70706061D01*
X27500500Y-70693908D01*
X27500500Y-69600000D01*
X50194540Y-69600000D01*
X50195219Y-69606460D01*
X50213646Y-69781795D01*
X50213647Y-69781803D01*
X50214326Y-69788256D01*
X50216331Y-69794428D01*
X50216333Y-69794435D01*
X50270813Y-69962105D01*
X50272821Y-69968284D01*
X50367467Y-70132216D01*
X50371811Y-70137041D01*
X50371813Y-70137043D01*
X50461854Y-70237043D01*
X50494129Y-70272888D01*
X50647270Y-70384151D01*
X50820197Y-70461144D01*
X51005354Y-70500500D01*
X51188143Y-70500500D01*
X51194646Y-70500500D01*
X51379803Y-70461144D01*
X51552730Y-70384151D01*
X51705871Y-70272888D01*
X51832533Y-70132216D01*
X51927179Y-69968284D01*
X51985674Y-69788256D01*
X52005460Y-69600000D01*
X52394540Y-69600000D01*
X52395219Y-69606460D01*
X52413646Y-69781795D01*
X52413647Y-69781803D01*
X52414326Y-69788256D01*
X52416331Y-69794428D01*
X52416333Y-69794435D01*
X52470813Y-69962105D01*
X52472821Y-69968284D01*
X52567467Y-70132216D01*
X52571811Y-70137041D01*
X52571813Y-70137043D01*
X52661854Y-70237043D01*
X52694129Y-70272888D01*
X52847270Y-70384151D01*
X53020197Y-70461144D01*
X53205354Y-70500500D01*
X53388143Y-70500500D01*
X53394646Y-70500500D01*
X53579803Y-70461144D01*
X53752730Y-70384151D01*
X53905871Y-70272888D01*
X54032533Y-70132216D01*
X54127179Y-69968284D01*
X54185674Y-69788256D01*
X54194950Y-69700000D01*
X59294540Y-69700000D01*
X59295219Y-69706460D01*
X59313646Y-69881795D01*
X59313647Y-69881803D01*
X59314326Y-69888256D01*
X59316331Y-69894428D01*
X59316333Y-69894435D01*
X59370813Y-70062105D01*
X59372821Y-70068284D01*
X59467467Y-70232216D01*
X59594129Y-70372888D01*
X59747270Y-70484151D01*
X59920197Y-70561144D01*
X60105354Y-70600500D01*
X60288143Y-70600500D01*
X60294646Y-70600500D01*
X60479803Y-70561144D01*
X60652730Y-70484151D01*
X60805871Y-70372888D01*
X60932533Y-70232216D01*
X61027179Y-70068284D01*
X61085674Y-69888256D01*
X61105460Y-69700000D01*
X61085674Y-69511744D01*
X61027179Y-69331716D01*
X60932533Y-69167784D01*
X60933007Y-69167510D01*
X60914427Y-69125784D01*
X60914427Y-69074216D01*
X60933007Y-69032489D01*
X60932533Y-69032216D01*
X60932533Y-69032215D01*
X61027179Y-68868284D01*
X61085674Y-68688256D01*
X61092494Y-68623360D01*
X61115497Y-68563436D01*
X61165378Y-68523042D01*
X61252730Y-68484151D01*
X61405871Y-68372888D01*
X61532533Y-68232216D01*
X61627179Y-68068284D01*
X61685674Y-67888256D01*
X61705460Y-67700000D01*
X61685674Y-67511744D01*
X61627179Y-67331716D01*
X61532533Y-67167784D01*
X61460925Y-67088256D01*
X61410220Y-67031942D01*
X61410219Y-67031941D01*
X61405871Y-67027112D01*
X61400613Y-67023292D01*
X61400611Y-67023290D01*
X61257988Y-66919669D01*
X61257987Y-66919668D01*
X61252730Y-66915849D01*
X61246792Y-66913205D01*
X61217134Y-66900000D01*
X68094540Y-66900000D01*
X68095219Y-66906460D01*
X68113646Y-67081795D01*
X68113647Y-67081803D01*
X68114326Y-67088256D01*
X68116331Y-67094428D01*
X68116333Y-67094435D01*
X68140166Y-67167784D01*
X68172821Y-67268284D01*
X68176068Y-67273908D01*
X68176069Y-67273910D01*
X68257786Y-67415449D01*
X68267467Y-67432216D01*
X68271811Y-67437041D01*
X68271813Y-67437043D01*
X68344891Y-67518204D01*
X68394129Y-67572888D01*
X68547270Y-67684151D01*
X68720197Y-67761144D01*
X68905354Y-67800500D01*
X69088143Y-67800500D01*
X69094646Y-67800500D01*
X69279803Y-67761144D01*
X69452730Y-67684151D01*
X69605871Y-67572888D01*
X69732533Y-67432216D01*
X69827179Y-67268284D01*
X69881858Y-67100000D01*
X83204341Y-67100000D01*
X83204813Y-67105395D01*
X83224121Y-67326089D01*
X83224937Y-67335408D01*
X83226336Y-67340630D01*
X83226337Y-67340634D01*
X83284694Y-67558430D01*
X83284697Y-67558438D01*
X83286097Y-67563663D01*
X83288385Y-67568570D01*
X83288386Y-67568572D01*
X83383678Y-67772927D01*
X83383681Y-67772933D01*
X83385965Y-67777830D01*
X83389064Y-67782257D01*
X83389066Y-67782259D01*
X83518399Y-67966966D01*
X83518402Y-67966970D01*
X83521505Y-67971401D01*
X83688599Y-68138495D01*
X83882170Y-68274035D01*
X84096337Y-68373903D01*
X84324592Y-68435063D01*
X84560000Y-68455659D01*
X84795408Y-68435063D01*
X85023663Y-68373903D01*
X85237830Y-68274035D01*
X85431401Y-68138495D01*
X85598495Y-67971401D01*
X85728424Y-67785842D01*
X85772743Y-67746976D01*
X85830000Y-67732965D01*
X85887257Y-67746976D01*
X85931575Y-67785842D01*
X86058395Y-67966961D01*
X86058401Y-67966968D01*
X86061505Y-67971401D01*
X86228599Y-68138495D01*
X86422170Y-68274035D01*
X86636337Y-68373903D01*
X86864592Y-68435063D01*
X87100000Y-68455659D01*
X87335408Y-68435063D01*
X87563663Y-68373903D01*
X87777830Y-68274035D01*
X87971401Y-68138495D01*
X88138495Y-67971401D01*
X88274035Y-67777830D01*
X88373903Y-67563663D01*
X88435063Y-67335408D01*
X88455659Y-67100000D01*
X88435063Y-66864592D01*
X88379841Y-66658498D01*
X88375305Y-66641569D01*
X88375304Y-66641567D01*
X88373903Y-66636337D01*
X88274035Y-66422171D01*
X88138495Y-66228599D01*
X87971401Y-66061505D01*
X87966968Y-66058401D01*
X87966961Y-66058395D01*
X87785842Y-65931575D01*
X87746976Y-65887257D01*
X87732965Y-65830000D01*
X87746976Y-65772743D01*
X87785842Y-65728425D01*
X87966961Y-65601604D01*
X87966961Y-65601603D01*
X87971401Y-65598495D01*
X88138495Y-65431401D01*
X88274035Y-65237830D01*
X88373903Y-65023663D01*
X88435063Y-64795408D01*
X88455659Y-64560000D01*
X88435063Y-64324592D01*
X88373903Y-64096337D01*
X88274035Y-63882171D01*
X88138495Y-63688599D01*
X87971401Y-63521505D01*
X87966968Y-63518401D01*
X87966961Y-63518395D01*
X87785842Y-63391575D01*
X87746976Y-63347257D01*
X87732965Y-63290000D01*
X87746976Y-63232743D01*
X87785842Y-63188425D01*
X87966961Y-63061604D01*
X87966961Y-63061603D01*
X87971401Y-63058495D01*
X88138495Y-62891401D01*
X88274035Y-62697830D01*
X88373903Y-62483663D01*
X88435063Y-62255408D01*
X88455659Y-62020000D01*
X88435063Y-61784592D01*
X88373903Y-61556337D01*
X88274035Y-61342171D01*
X88138495Y-61148599D01*
X87971401Y-60981505D01*
X87966970Y-60978402D01*
X87966966Y-60978399D01*
X87782259Y-60849066D01*
X87782257Y-60849064D01*
X87777830Y-60845965D01*
X87772933Y-60843681D01*
X87772927Y-60843678D01*
X87568572Y-60748386D01*
X87568570Y-60748385D01*
X87563663Y-60746097D01*
X87558438Y-60744697D01*
X87558430Y-60744694D01*
X87340634Y-60686337D01*
X87340630Y-60686336D01*
X87335408Y-60684937D01*
X87330020Y-60684465D01*
X87330017Y-60684465D01*
X87105395Y-60664813D01*
X87100000Y-60664341D01*
X87094605Y-60664813D01*
X86869982Y-60684465D01*
X86869977Y-60684465D01*
X86864592Y-60684937D01*
X86859371Y-60686335D01*
X86859365Y-60686337D01*
X86641569Y-60744694D01*
X86641557Y-60744698D01*
X86636337Y-60746097D01*
X86631432Y-60748383D01*
X86631427Y-60748386D01*
X86427081Y-60843675D01*
X86427077Y-60843677D01*
X86422171Y-60845965D01*
X86417738Y-60849068D01*
X86417731Y-60849073D01*
X86233034Y-60978399D01*
X86233029Y-60978402D01*
X86228599Y-60981505D01*
X86224775Y-60985328D01*
X86224769Y-60985334D01*
X86065334Y-61144769D01*
X86065328Y-61144775D01*
X86061505Y-61148599D01*
X86058402Y-61153029D01*
X86058399Y-61153034D01*
X85929073Y-61337731D01*
X85929068Y-61337738D01*
X85925965Y-61342171D01*
X85923677Y-61347077D01*
X85923675Y-61347081D01*
X85828386Y-61551427D01*
X85828383Y-61551432D01*
X85826097Y-61556337D01*
X85824698Y-61561557D01*
X85824694Y-61561569D01*
X85766337Y-61779365D01*
X85766335Y-61779371D01*
X85764937Y-61784592D01*
X85764465Y-61789977D01*
X85764465Y-61789982D01*
X85760248Y-61838187D01*
X85744341Y-62020000D01*
X85744813Y-62025395D01*
X85763404Y-62237894D01*
X85764937Y-62255408D01*
X85766336Y-62260630D01*
X85766337Y-62260634D01*
X85824694Y-62478430D01*
X85824697Y-62478438D01*
X85826097Y-62483663D01*
X85828385Y-62488570D01*
X85828386Y-62488572D01*
X85923678Y-62692927D01*
X85923681Y-62692933D01*
X85925965Y-62697830D01*
X85929064Y-62702257D01*
X85929066Y-62702259D01*
X86058399Y-62886966D01*
X86058402Y-62886970D01*
X86061505Y-62891401D01*
X86228599Y-63058495D01*
X86233032Y-63061599D01*
X86233038Y-63061604D01*
X86414158Y-63188425D01*
X86453024Y-63232743D01*
X86467035Y-63290000D01*
X86453024Y-63347257D01*
X86414159Y-63391575D01*
X86233041Y-63518395D01*
X86228599Y-63521505D01*
X86224775Y-63525328D01*
X86224769Y-63525334D01*
X86065334Y-63684769D01*
X86065328Y-63684775D01*
X86061505Y-63688599D01*
X86058402Y-63693029D01*
X86058399Y-63693034D01*
X85931575Y-63874159D01*
X85887257Y-63913025D01*
X85830000Y-63927036D01*
X85772743Y-63913025D01*
X85728425Y-63874159D01*
X85657880Y-63773410D01*
X85598495Y-63688599D01*
X85431401Y-63521505D01*
X85426970Y-63518402D01*
X85426966Y-63518399D01*
X85242259Y-63389066D01*
X85242257Y-63389064D01*
X85237830Y-63385965D01*
X85232933Y-63383681D01*
X85232927Y-63383678D01*
X85028572Y-63288386D01*
X85028570Y-63288385D01*
X85023663Y-63286097D01*
X85018438Y-63284697D01*
X85018430Y-63284694D01*
X84800634Y-63226337D01*
X84800630Y-63226336D01*
X84795408Y-63224937D01*
X84790020Y-63224465D01*
X84790017Y-63224465D01*
X84565395Y-63204813D01*
X84560000Y-63204341D01*
X84554605Y-63204813D01*
X84329982Y-63224465D01*
X84329977Y-63224465D01*
X84324592Y-63224937D01*
X84319371Y-63226335D01*
X84319365Y-63226337D01*
X84101569Y-63284694D01*
X84101557Y-63284698D01*
X84096337Y-63286097D01*
X84091432Y-63288383D01*
X84091427Y-63288386D01*
X83887081Y-63383675D01*
X83887077Y-63383677D01*
X83882171Y-63385965D01*
X83877738Y-63389068D01*
X83877731Y-63389073D01*
X83693034Y-63518399D01*
X83693029Y-63518402D01*
X83688599Y-63521505D01*
X83684775Y-63525328D01*
X83684769Y-63525334D01*
X83525334Y-63684769D01*
X83525328Y-63684775D01*
X83521505Y-63688599D01*
X83518402Y-63693029D01*
X83518399Y-63693034D01*
X83389073Y-63877731D01*
X83389068Y-63877738D01*
X83385965Y-63882171D01*
X83383677Y-63887077D01*
X83383675Y-63887081D01*
X83288386Y-64091427D01*
X83288383Y-64091432D01*
X83286097Y-64096337D01*
X83284698Y-64101557D01*
X83284694Y-64101569D01*
X83226337Y-64319365D01*
X83226335Y-64319371D01*
X83224937Y-64324592D01*
X83224465Y-64329977D01*
X83224465Y-64329982D01*
X83204813Y-64554605D01*
X83204341Y-64560000D01*
X83204813Y-64565395D01*
X83223617Y-64780330D01*
X83224937Y-64795408D01*
X83226336Y-64800630D01*
X83226337Y-64800634D01*
X83284694Y-65018430D01*
X83284697Y-65018438D01*
X83286097Y-65023663D01*
X83288385Y-65028570D01*
X83288386Y-65028572D01*
X83383678Y-65232927D01*
X83383681Y-65232933D01*
X83385965Y-65237830D01*
X83389064Y-65242257D01*
X83389066Y-65242259D01*
X83518399Y-65426966D01*
X83518402Y-65426970D01*
X83521505Y-65431401D01*
X83688599Y-65598495D01*
X83693032Y-65601599D01*
X83693038Y-65601604D01*
X83874158Y-65728425D01*
X83913024Y-65772743D01*
X83927035Y-65830000D01*
X83913024Y-65887257D01*
X83874159Y-65931575D01*
X83693041Y-66058395D01*
X83688599Y-66061505D01*
X83684775Y-66065328D01*
X83684769Y-66065334D01*
X83525334Y-66224769D01*
X83525328Y-66224775D01*
X83521505Y-66228599D01*
X83518402Y-66233029D01*
X83518399Y-66233034D01*
X83389073Y-66417731D01*
X83389068Y-66417738D01*
X83385965Y-66422171D01*
X83383677Y-66427077D01*
X83383675Y-66427081D01*
X83288386Y-66631427D01*
X83288383Y-66631432D01*
X83286097Y-66636337D01*
X83284698Y-66641557D01*
X83284694Y-66641569D01*
X83226337Y-66859365D01*
X83226335Y-66859371D01*
X83224937Y-66864592D01*
X83224465Y-66869977D01*
X83224465Y-66869982D01*
X83214346Y-66985644D01*
X83204341Y-67100000D01*
X69881858Y-67100000D01*
X69885674Y-67088256D01*
X69905460Y-66900000D01*
X69885674Y-66711744D01*
X69827179Y-66531716D01*
X69732533Y-66367784D01*
X69682985Y-66312756D01*
X69610220Y-66231942D01*
X69610219Y-66231941D01*
X69605871Y-66227112D01*
X69600613Y-66223292D01*
X69600611Y-66223290D01*
X69457988Y-66119669D01*
X69457987Y-66119668D01*
X69452730Y-66115849D01*
X69446792Y-66113205D01*
X69285745Y-66041501D01*
X69285740Y-66041499D01*
X69279803Y-66038856D01*
X69273444Y-66037504D01*
X69273440Y-66037503D01*
X69101008Y-66000852D01*
X69101005Y-66000851D01*
X69094646Y-65999500D01*
X68905354Y-65999500D01*
X68898995Y-66000851D01*
X68898991Y-66000852D01*
X68726559Y-66037503D01*
X68726552Y-66037505D01*
X68720197Y-66038856D01*
X68714262Y-66041498D01*
X68714254Y-66041501D01*
X68553207Y-66113205D01*
X68553202Y-66113207D01*
X68547270Y-66115849D01*
X68542016Y-66119665D01*
X68542011Y-66119669D01*
X68399388Y-66223290D01*
X68399381Y-66223295D01*
X68394129Y-66227112D01*
X68389784Y-66231937D01*
X68389779Y-66231942D01*
X68271813Y-66362956D01*
X68271808Y-66362962D01*
X68267467Y-66367784D01*
X68264222Y-66373404D01*
X68264218Y-66373410D01*
X68176069Y-66526089D01*
X68176066Y-66526094D01*
X68172821Y-66531716D01*
X68170815Y-66537888D01*
X68170813Y-66537894D01*
X68116333Y-66705564D01*
X68116331Y-66705573D01*
X68114326Y-66711744D01*
X68113648Y-66718194D01*
X68113646Y-66718204D01*
X68100966Y-66838856D01*
X68094540Y-66900000D01*
X61217134Y-66900000D01*
X61085745Y-66841501D01*
X61085740Y-66841499D01*
X61079803Y-66838856D01*
X61073444Y-66837504D01*
X61073440Y-66837503D01*
X60901008Y-66800852D01*
X60901005Y-66800851D01*
X60894646Y-66799500D01*
X60705354Y-66799500D01*
X60698995Y-66800851D01*
X60698991Y-66800852D01*
X60526559Y-66837503D01*
X60526552Y-66837505D01*
X60520197Y-66838856D01*
X60514262Y-66841498D01*
X60514254Y-66841501D01*
X60353207Y-66913205D01*
X60353202Y-66913207D01*
X60347270Y-66915849D01*
X60342016Y-66919665D01*
X60342011Y-66919669D01*
X60199388Y-67023290D01*
X60199381Y-67023295D01*
X60194129Y-67027112D01*
X60189784Y-67031937D01*
X60189779Y-67031942D01*
X60071813Y-67162956D01*
X60071808Y-67162962D01*
X60067467Y-67167784D01*
X60064222Y-67173404D01*
X60064218Y-67173410D01*
X59976069Y-67326089D01*
X59976066Y-67326094D01*
X59972821Y-67331716D01*
X59970815Y-67337888D01*
X59970813Y-67337894D01*
X59916333Y-67505564D01*
X59916331Y-67505573D01*
X59914326Y-67511744D01*
X59913647Y-67518203D01*
X59913647Y-67518204D01*
X59907505Y-67576640D01*
X59884502Y-67636563D01*
X59834621Y-67676957D01*
X59753204Y-67713206D01*
X59753196Y-67713210D01*
X59747270Y-67715849D01*
X59742016Y-67719665D01*
X59742011Y-67719669D01*
X59599388Y-67823290D01*
X59599381Y-67823295D01*
X59594129Y-67827112D01*
X59589784Y-67831937D01*
X59589779Y-67831942D01*
X59471813Y-67962956D01*
X59471808Y-67962962D01*
X59467467Y-67967784D01*
X59464222Y-67973404D01*
X59464218Y-67973410D01*
X59376069Y-68126089D01*
X59376066Y-68126094D01*
X59372821Y-68131716D01*
X59370815Y-68137888D01*
X59370813Y-68137894D01*
X59316333Y-68305564D01*
X59316331Y-68305573D01*
X59314326Y-68311744D01*
X59313648Y-68318194D01*
X59313646Y-68318204D01*
X59301512Y-68433662D01*
X59294540Y-68500000D01*
X59295219Y-68506460D01*
X59313646Y-68681795D01*
X59313647Y-68681803D01*
X59314326Y-68688256D01*
X59316331Y-68694428D01*
X59316333Y-68694435D01*
X59357025Y-68819669D01*
X59372821Y-68868284D01*
X59376068Y-68873908D01*
X59376069Y-68873910D01*
X59464216Y-69026586D01*
X59464218Y-69026589D01*
X59464869Y-69027717D01*
X59464870Y-69027718D01*
X59467467Y-69032216D01*
X59466994Y-69032488D01*
X59485573Y-69074220D01*
X59485573Y-69125780D01*
X59466994Y-69167511D01*
X59467467Y-69167784D01*
X59464870Y-69172281D01*
X59464867Y-69172285D01*
X59464221Y-69173405D01*
X59464216Y-69173413D01*
X59376069Y-69326089D01*
X59376066Y-69326094D01*
X59372821Y-69331716D01*
X59370815Y-69337888D01*
X59370813Y-69337894D01*
X59316333Y-69505564D01*
X59316331Y-69505573D01*
X59314326Y-69511744D01*
X59313648Y-69518194D01*
X59313646Y-69518204D01*
X59305729Y-69593540D01*
X59294540Y-69700000D01*
X54194950Y-69700000D01*
X54205460Y-69600000D01*
X54185674Y-69411744D01*
X54127179Y-69231716D01*
X54032533Y-69067784D01*
X53905871Y-68927112D01*
X53900613Y-68923292D01*
X53900611Y-68923290D01*
X53757988Y-68819669D01*
X53757987Y-68819668D01*
X53752730Y-68815849D01*
X53746792Y-68813205D01*
X53585745Y-68741501D01*
X53585740Y-68741499D01*
X53579803Y-68738856D01*
X53573444Y-68737504D01*
X53573440Y-68737503D01*
X53401008Y-68700852D01*
X53401005Y-68700851D01*
X53394646Y-68699500D01*
X53205354Y-68699500D01*
X53198995Y-68700851D01*
X53198991Y-68700852D01*
X53026559Y-68737503D01*
X53026552Y-68737505D01*
X53020197Y-68738856D01*
X53014262Y-68741498D01*
X53014254Y-68741501D01*
X52853207Y-68813205D01*
X52853202Y-68813207D01*
X52847270Y-68815849D01*
X52842016Y-68819665D01*
X52842011Y-68819669D01*
X52699388Y-68923290D01*
X52699381Y-68923295D01*
X52694129Y-68927112D01*
X52689784Y-68931937D01*
X52689779Y-68931942D01*
X52571813Y-69062956D01*
X52571808Y-69062962D01*
X52567467Y-69067784D01*
X52564222Y-69073404D01*
X52564218Y-69073410D01*
X52476069Y-69226089D01*
X52476066Y-69226094D01*
X52472821Y-69231716D01*
X52470815Y-69237888D01*
X52470813Y-69237894D01*
X52416333Y-69405564D01*
X52416331Y-69405573D01*
X52414326Y-69411744D01*
X52413648Y-69418194D01*
X52413646Y-69418204D01*
X52395962Y-69586464D01*
X52394540Y-69600000D01*
X52005460Y-69600000D01*
X51985674Y-69411744D01*
X51927179Y-69231716D01*
X51832533Y-69067784D01*
X51705871Y-68927112D01*
X51700613Y-68923292D01*
X51700611Y-68923290D01*
X51557988Y-68819669D01*
X51557987Y-68819668D01*
X51552730Y-68815849D01*
X51546792Y-68813205D01*
X51385745Y-68741501D01*
X51385740Y-68741499D01*
X51379803Y-68738856D01*
X51373444Y-68737504D01*
X51373440Y-68737503D01*
X51201008Y-68700852D01*
X51201005Y-68700851D01*
X51194646Y-68699500D01*
X51005354Y-68699500D01*
X50998995Y-68700851D01*
X50998991Y-68700852D01*
X50826559Y-68737503D01*
X50826552Y-68737505D01*
X50820197Y-68738856D01*
X50814262Y-68741498D01*
X50814254Y-68741501D01*
X50653207Y-68813205D01*
X50653202Y-68813207D01*
X50647270Y-68815849D01*
X50642016Y-68819665D01*
X50642011Y-68819669D01*
X50499388Y-68923290D01*
X50499381Y-68923295D01*
X50494129Y-68927112D01*
X50489784Y-68931937D01*
X50489779Y-68931942D01*
X50371813Y-69062956D01*
X50371808Y-69062962D01*
X50367467Y-69067784D01*
X50364222Y-69073404D01*
X50364218Y-69073410D01*
X50276069Y-69226089D01*
X50276066Y-69226094D01*
X50272821Y-69231716D01*
X50270815Y-69237888D01*
X50270813Y-69237894D01*
X50216333Y-69405564D01*
X50216331Y-69405573D01*
X50214326Y-69411744D01*
X50213648Y-69418194D01*
X50213646Y-69418204D01*
X50195962Y-69586464D01*
X50194540Y-69600000D01*
X27500500Y-69600000D01*
X27500500Y-65810000D01*
X41069451Y-65810000D01*
X41069833Y-65814854D01*
X41084471Y-66000852D01*
X41089217Y-66061148D01*
X41090352Y-66065877D01*
X41090353Y-66065881D01*
X41146889Y-66301374D01*
X41146891Y-66301382D01*
X41148027Y-66306111D01*
X41244434Y-66538859D01*
X41246981Y-66543016D01*
X41246982Y-66543017D01*
X41373517Y-66749504D01*
X41373522Y-66749511D01*
X41376064Y-66753659D01*
X41379224Y-66757358D01*
X41379227Y-66757363D01*
X41448829Y-66838856D01*
X41539676Y-66945224D01*
X41543376Y-66948384D01*
X41714578Y-67094605D01*
X41731241Y-67108836D01*
X41735391Y-67111379D01*
X41735395Y-67111382D01*
X41827435Y-67167784D01*
X41946041Y-67240466D01*
X42178789Y-67336873D01*
X42423752Y-67395683D01*
X42674900Y-67415449D01*
X42926048Y-67395683D01*
X43171011Y-67336873D01*
X43403759Y-67240466D01*
X43618559Y-67108836D01*
X43810124Y-66945224D01*
X43973736Y-66753659D01*
X44105366Y-66538859D01*
X44201773Y-66306111D01*
X44245374Y-66124500D01*
X47394540Y-66124500D01*
X47395219Y-66130960D01*
X47413646Y-66306295D01*
X47413647Y-66306303D01*
X47414326Y-66312756D01*
X47416331Y-66318928D01*
X47416333Y-66318935D01*
X47466356Y-66472888D01*
X47472821Y-66492784D01*
X47476068Y-66498408D01*
X47476069Y-66498410D01*
X47527097Y-66586794D01*
X47567467Y-66656716D01*
X47571811Y-66661541D01*
X47571813Y-66661543D01*
X47622831Y-66718204D01*
X47694129Y-66797388D01*
X47847270Y-66908651D01*
X48020197Y-66985644D01*
X48205354Y-67025000D01*
X48388143Y-67025000D01*
X48394646Y-67025000D01*
X48579803Y-66985644D01*
X48752730Y-66908651D01*
X48905871Y-66797388D01*
X49032533Y-66656716D01*
X49127179Y-66492784D01*
X49185674Y-66312756D01*
X49205460Y-66124500D01*
X49191141Y-65988256D01*
X49186353Y-65942704D01*
X49186352Y-65942703D01*
X49185674Y-65936244D01*
X49141405Y-65800000D01*
X76394540Y-65800000D01*
X76395219Y-65806460D01*
X76413646Y-65981795D01*
X76413647Y-65981803D01*
X76414326Y-65988256D01*
X76416331Y-65994428D01*
X76416333Y-65994435D01*
X76470813Y-66162105D01*
X76472821Y-66168284D01*
X76476068Y-66173908D01*
X76476069Y-66173910D01*
X76552501Y-66306295D01*
X76567467Y-66332216D01*
X76571811Y-66337041D01*
X76571813Y-66337043D01*
X76604558Y-66373410D01*
X76694129Y-66472888D01*
X76699387Y-66476708D01*
X76699388Y-66476709D01*
X76729257Y-66498410D01*
X76847270Y-66584151D01*
X77020197Y-66661144D01*
X77205354Y-66700500D01*
X77388143Y-66700500D01*
X77394646Y-66700500D01*
X77579803Y-66661144D01*
X77752730Y-66584151D01*
X77905871Y-66472888D01*
X78032533Y-66332216D01*
X78127179Y-66168284D01*
X78185674Y-65988256D01*
X78205460Y-65800000D01*
X78185674Y-65611744D01*
X78127179Y-65431716D01*
X78032533Y-65267784D01*
X77911146Y-65132970D01*
X77882980Y-65079998D01*
X77882980Y-65020002D01*
X77911147Y-64967028D01*
X78032533Y-64832216D01*
X78127179Y-64668284D01*
X78185674Y-64488256D01*
X78205460Y-64300000D01*
X78185674Y-64111744D01*
X78127179Y-63931716D01*
X78032533Y-63767784D01*
X77977316Y-63706460D01*
X77910220Y-63631942D01*
X77910219Y-63631941D01*
X77905871Y-63627112D01*
X77900613Y-63623292D01*
X77900611Y-63623290D01*
X77757988Y-63519669D01*
X77757987Y-63519668D01*
X77752730Y-63515849D01*
X77746792Y-63513205D01*
X77585745Y-63441501D01*
X77585740Y-63441499D01*
X77579803Y-63438856D01*
X77573444Y-63437504D01*
X77573440Y-63437503D01*
X77401008Y-63400852D01*
X77401005Y-63400851D01*
X77394646Y-63399500D01*
X77205354Y-63399500D01*
X77198995Y-63400851D01*
X77198991Y-63400852D01*
X77026559Y-63437503D01*
X77026552Y-63437505D01*
X77020197Y-63438856D01*
X77014262Y-63441498D01*
X77014254Y-63441501D01*
X76853207Y-63513205D01*
X76853202Y-63513207D01*
X76847270Y-63515849D01*
X76842016Y-63519665D01*
X76842011Y-63519669D01*
X76699388Y-63623290D01*
X76699381Y-63623295D01*
X76694129Y-63627112D01*
X76689784Y-63631937D01*
X76689779Y-63631942D01*
X76571813Y-63762956D01*
X76571808Y-63762962D01*
X76567467Y-63767784D01*
X76564222Y-63773404D01*
X76564218Y-63773410D01*
X76476069Y-63926089D01*
X76476066Y-63926094D01*
X76472821Y-63931716D01*
X76470815Y-63937888D01*
X76470813Y-63937894D01*
X76416333Y-64105564D01*
X76416331Y-64105573D01*
X76414326Y-64111744D01*
X76413648Y-64118194D01*
X76413646Y-64118204D01*
X76401664Y-64232216D01*
X76394540Y-64300000D01*
X76395219Y-64306460D01*
X76413646Y-64481795D01*
X76413647Y-64481803D01*
X76414326Y-64488256D01*
X76416331Y-64494428D01*
X76416333Y-64494435D01*
X76470813Y-64662105D01*
X76472821Y-64668284D01*
X76476068Y-64673908D01*
X76476069Y-64673910D01*
X76541242Y-64786794D01*
X76567467Y-64832216D01*
X76601934Y-64870495D01*
X76688852Y-64967028D01*
X76717019Y-65020002D01*
X76717019Y-65079998D01*
X76688852Y-65132972D01*
X76572672Y-65262003D01*
X76567467Y-65267784D01*
X76564222Y-65273404D01*
X76564218Y-65273410D01*
X76476069Y-65426089D01*
X76476066Y-65426094D01*
X76472821Y-65431716D01*
X76470815Y-65437888D01*
X76470813Y-65437894D01*
X76416333Y-65605564D01*
X76416331Y-65605573D01*
X76414326Y-65611744D01*
X76413648Y-65618194D01*
X76413646Y-65618204D01*
X76401473Y-65734035D01*
X76394540Y-65800000D01*
X49141405Y-65800000D01*
X49127179Y-65756216D01*
X49032533Y-65592284D01*
X49006799Y-65563704D01*
X48910220Y-65456442D01*
X48910219Y-65456441D01*
X48905871Y-65451612D01*
X48900613Y-65447792D01*
X48900611Y-65447790D01*
X48757988Y-65344169D01*
X48757987Y-65344168D01*
X48752730Y-65340349D01*
X48693301Y-65313889D01*
X48585745Y-65266001D01*
X48585740Y-65265999D01*
X48579803Y-65263356D01*
X48573444Y-65262004D01*
X48573440Y-65262003D01*
X48401008Y-65225352D01*
X48401005Y-65225351D01*
X48394646Y-65224000D01*
X48205354Y-65224000D01*
X48198995Y-65225351D01*
X48198991Y-65225352D01*
X48026559Y-65262003D01*
X48026552Y-65262005D01*
X48020197Y-65263356D01*
X48014262Y-65265998D01*
X48014254Y-65266001D01*
X47853207Y-65337705D01*
X47853202Y-65337707D01*
X47847270Y-65340349D01*
X47842016Y-65344165D01*
X47842011Y-65344169D01*
X47699388Y-65447790D01*
X47699381Y-65447795D01*
X47694129Y-65451612D01*
X47689784Y-65456437D01*
X47689779Y-65456442D01*
X47571813Y-65587456D01*
X47571808Y-65587462D01*
X47567467Y-65592284D01*
X47564222Y-65597904D01*
X47564218Y-65597910D01*
X47476069Y-65750589D01*
X47476066Y-65750594D01*
X47472821Y-65756216D01*
X47470815Y-65762388D01*
X47470813Y-65762394D01*
X47416333Y-65930064D01*
X47416331Y-65930073D01*
X47414326Y-65936244D01*
X47413648Y-65942694D01*
X47413646Y-65942704D01*
X47401487Y-66058403D01*
X47394540Y-66124500D01*
X44245374Y-66124500D01*
X44260583Y-66061148D01*
X44280349Y-65810000D01*
X44260583Y-65558852D01*
X44201773Y-65313889D01*
X44105366Y-65081141D01*
X43973736Y-64866341D01*
X43969297Y-64861144D01*
X43813284Y-64678476D01*
X43810124Y-64674776D01*
X43721574Y-64599147D01*
X43622263Y-64514327D01*
X43622258Y-64514324D01*
X43618559Y-64511164D01*
X43614411Y-64508622D01*
X43614404Y-64508617D01*
X43407917Y-64382082D01*
X43407916Y-64382081D01*
X43403759Y-64379534D01*
X43171011Y-64283127D01*
X43166282Y-64281991D01*
X43166274Y-64281989D01*
X42930781Y-64225453D01*
X42930777Y-64225452D01*
X42926048Y-64224317D01*
X42921195Y-64223935D01*
X42679754Y-64204933D01*
X42674900Y-64204551D01*
X42670046Y-64204933D01*
X42428604Y-64223935D01*
X42428602Y-64223935D01*
X42423752Y-64224317D01*
X42419024Y-64225451D01*
X42419018Y-64225453D01*
X42183525Y-64281989D01*
X42183513Y-64281992D01*
X42178789Y-64283127D01*
X42174292Y-64284989D01*
X42174288Y-64284991D01*
X41950545Y-64377668D01*
X41950540Y-64377670D01*
X41946041Y-64379534D01*
X41941888Y-64382078D01*
X41941882Y-64382082D01*
X41735395Y-64508617D01*
X41735382Y-64508626D01*
X41731241Y-64511164D01*
X41727546Y-64514319D01*
X41727536Y-64514327D01*
X41543376Y-64671615D01*
X41543369Y-64671621D01*
X41539676Y-64674776D01*
X41536521Y-64678469D01*
X41536515Y-64678476D01*
X41379227Y-64862636D01*
X41379219Y-64862646D01*
X41376064Y-64866341D01*
X41373526Y-64870482D01*
X41373517Y-64870495D01*
X41246982Y-65076982D01*
X41246978Y-65076988D01*
X41244434Y-65081141D01*
X41242570Y-65085640D01*
X41242568Y-65085645D01*
X41167124Y-65267784D01*
X41148027Y-65313889D01*
X41146892Y-65318613D01*
X41146889Y-65318625D01*
X41090353Y-65554118D01*
X41090351Y-65554124D01*
X41089217Y-65558852D01*
X41088835Y-65563702D01*
X41088835Y-65563704D01*
X41086143Y-65597910D01*
X41069451Y-65810000D01*
X27500500Y-65810000D01*
X27500500Y-63700000D01*
X52194540Y-63700000D01*
X52195219Y-63706460D01*
X52213646Y-63881795D01*
X52213647Y-63881803D01*
X52214326Y-63888256D01*
X52216331Y-63894428D01*
X52216333Y-63894435D01*
X52230454Y-63937894D01*
X52272821Y-64068284D01*
X52276068Y-64073908D01*
X52276069Y-64073910D01*
X52362906Y-64224317D01*
X52367467Y-64232216D01*
X52371811Y-64237041D01*
X52371813Y-64237043D01*
X52449999Y-64323877D01*
X52494129Y-64372888D01*
X52499387Y-64376708D01*
X52499388Y-64376709D01*
X52522884Y-64393780D01*
X52647270Y-64484151D01*
X52820197Y-64561144D01*
X53005354Y-64600500D01*
X53188143Y-64600500D01*
X53194646Y-64600500D01*
X53379803Y-64561144D01*
X53552730Y-64484151D01*
X53677119Y-64393777D01*
X53724217Y-64372808D01*
X53775780Y-64372808D01*
X53822885Y-64393780D01*
X53947270Y-64484151D01*
X54120197Y-64561144D01*
X54305354Y-64600500D01*
X54488143Y-64600500D01*
X54494646Y-64600500D01*
X54679803Y-64561144D01*
X54852730Y-64484151D01*
X54977119Y-64393777D01*
X55024217Y-64372808D01*
X55075780Y-64372808D01*
X55122885Y-64393780D01*
X55247270Y-64484151D01*
X55420197Y-64561144D01*
X55605354Y-64600500D01*
X55788143Y-64600500D01*
X55794646Y-64600500D01*
X55979803Y-64561144D01*
X56152730Y-64484151D01*
X56305871Y-64372888D01*
X56432533Y-64232216D01*
X56527179Y-64068284D01*
X56549366Y-64000000D01*
X68194540Y-64000000D01*
X68195219Y-64006460D01*
X68213646Y-64181795D01*
X68213647Y-64181803D01*
X68214326Y-64188256D01*
X68216331Y-64194428D01*
X68216333Y-64194435D01*
X68270813Y-64362105D01*
X68272821Y-64368284D01*
X68276068Y-64373908D01*
X68276069Y-64373910D01*
X68355312Y-64511164D01*
X68367467Y-64532216D01*
X68371811Y-64537041D01*
X68371813Y-64537043D01*
X68427732Y-64599147D01*
X68494129Y-64672888D01*
X68647270Y-64784151D01*
X68820197Y-64861144D01*
X69005354Y-64900500D01*
X69188143Y-64900500D01*
X69194646Y-64900500D01*
X69379803Y-64861144D01*
X69552730Y-64784151D01*
X69705871Y-64672888D01*
X69832533Y-64532216D01*
X69927179Y-64368284D01*
X69985674Y-64188256D01*
X70005460Y-64000000D01*
X69985674Y-63811744D01*
X69927179Y-63631716D01*
X69832533Y-63467784D01*
X69705871Y-63327112D01*
X69700613Y-63323292D01*
X69700611Y-63323290D01*
X69557988Y-63219669D01*
X69557987Y-63219668D01*
X69552730Y-63215849D01*
X69546792Y-63213205D01*
X69385745Y-63141501D01*
X69385740Y-63141499D01*
X69379803Y-63138856D01*
X69373444Y-63137504D01*
X69373440Y-63137503D01*
X69201008Y-63100852D01*
X69201005Y-63100851D01*
X69194646Y-63099500D01*
X69005354Y-63099500D01*
X68998995Y-63100851D01*
X68998991Y-63100852D01*
X68826559Y-63137503D01*
X68826552Y-63137505D01*
X68820197Y-63138856D01*
X68814262Y-63141498D01*
X68814254Y-63141501D01*
X68653207Y-63213205D01*
X68653202Y-63213207D01*
X68647270Y-63215849D01*
X68642016Y-63219665D01*
X68642011Y-63219669D01*
X68499388Y-63323290D01*
X68499381Y-63323295D01*
X68494129Y-63327112D01*
X68489784Y-63331937D01*
X68489779Y-63331942D01*
X68371813Y-63462956D01*
X68371808Y-63462962D01*
X68367467Y-63467784D01*
X68364222Y-63473404D01*
X68364218Y-63473410D01*
X68276069Y-63626089D01*
X68276066Y-63626094D01*
X68272821Y-63631716D01*
X68270815Y-63637888D01*
X68270813Y-63637894D01*
X68216333Y-63805564D01*
X68216331Y-63805573D01*
X68214326Y-63811744D01*
X68213648Y-63818194D01*
X68213646Y-63818204D01*
X68201067Y-63937894D01*
X68194540Y-64000000D01*
X56549366Y-64000000D01*
X56585674Y-63888256D01*
X56605460Y-63700000D01*
X56585674Y-63511744D01*
X56527179Y-63331716D01*
X56458060Y-63211999D01*
X56441448Y-63150000D01*
X56458061Y-63088000D01*
X56466817Y-63072834D01*
X56527179Y-62968284D01*
X56585674Y-62788256D01*
X56605460Y-62600000D01*
X56595566Y-62505871D01*
X56586353Y-62418204D01*
X56586352Y-62418203D01*
X56585674Y-62411744D01*
X56527179Y-62231716D01*
X56432533Y-62067784D01*
X56305871Y-61927112D01*
X56300613Y-61923292D01*
X56300611Y-61923290D01*
X56157988Y-61819669D01*
X56157987Y-61819668D01*
X56152730Y-61815849D01*
X56146792Y-61813205D01*
X55985745Y-61741501D01*
X55985740Y-61741499D01*
X55979803Y-61738856D01*
X55973444Y-61737504D01*
X55973440Y-61737503D01*
X55801008Y-61700852D01*
X55801005Y-61700851D01*
X55794646Y-61699500D01*
X55605354Y-61699500D01*
X55598995Y-61700851D01*
X55598991Y-61700852D01*
X55426559Y-61737503D01*
X55426552Y-61737505D01*
X55420197Y-61738856D01*
X55414262Y-61741498D01*
X55414254Y-61741501D01*
X55253207Y-61813205D01*
X55253202Y-61813207D01*
X55247270Y-61815849D01*
X55242016Y-61819665D01*
X55242011Y-61819669D01*
X55122885Y-61906219D01*
X55075781Y-61927191D01*
X55024219Y-61927191D01*
X54977115Y-61906219D01*
X54857988Y-61819669D01*
X54857987Y-61819668D01*
X54852730Y-61815849D01*
X54846792Y-61813205D01*
X54685745Y-61741501D01*
X54685740Y-61741499D01*
X54679803Y-61738856D01*
X54673444Y-61737504D01*
X54673440Y-61737503D01*
X54501008Y-61700852D01*
X54501005Y-61700851D01*
X54494646Y-61699500D01*
X54305354Y-61699500D01*
X54298995Y-61700851D01*
X54298991Y-61700852D01*
X54126559Y-61737503D01*
X54126552Y-61737505D01*
X54120197Y-61738856D01*
X54114262Y-61741498D01*
X54114254Y-61741501D01*
X53953207Y-61813205D01*
X53953202Y-61813207D01*
X53947270Y-61815849D01*
X53942016Y-61819665D01*
X53942011Y-61819669D01*
X53799388Y-61923290D01*
X53799381Y-61923295D01*
X53794129Y-61927112D01*
X53789784Y-61931937D01*
X53789779Y-61931942D01*
X53671813Y-62062956D01*
X53671808Y-62062962D01*
X53667467Y-62067784D01*
X53664222Y-62073404D01*
X53664218Y-62073410D01*
X53576069Y-62226089D01*
X53576066Y-62226094D01*
X53572821Y-62231716D01*
X53570815Y-62237888D01*
X53570813Y-62237894D01*
X53516333Y-62405564D01*
X53516331Y-62405573D01*
X53514326Y-62411744D01*
X53513648Y-62418194D01*
X53513646Y-62418204D01*
X53496038Y-62585749D01*
X53494540Y-62600000D01*
X53495219Y-62606460D01*
X53505000Y-62699523D01*
X53497443Y-62756922D01*
X53464651Y-62804634D01*
X53413773Y-62832259D01*
X53355899Y-62833774D01*
X53201011Y-62800852D01*
X53201002Y-62800851D01*
X53194646Y-62799500D01*
X53005354Y-62799500D01*
X52998995Y-62800851D01*
X52998991Y-62800852D01*
X52826559Y-62837503D01*
X52826552Y-62837505D01*
X52820197Y-62838856D01*
X52814262Y-62841498D01*
X52814254Y-62841501D01*
X52653207Y-62913205D01*
X52653202Y-62913207D01*
X52647270Y-62915849D01*
X52642016Y-62919665D01*
X52642011Y-62919669D01*
X52499388Y-63023290D01*
X52499381Y-63023295D01*
X52494129Y-63027112D01*
X52489784Y-63031937D01*
X52489779Y-63031942D01*
X52371813Y-63162956D01*
X52371808Y-63162962D01*
X52367467Y-63167784D01*
X52364222Y-63173404D01*
X52364218Y-63173410D01*
X52276069Y-63326089D01*
X52276066Y-63326094D01*
X52272821Y-63331716D01*
X52270815Y-63337888D01*
X52270813Y-63337894D01*
X52216333Y-63505564D01*
X52216331Y-63505573D01*
X52214326Y-63511744D01*
X52213648Y-63518194D01*
X52213646Y-63518204D01*
X52201693Y-63631942D01*
X52194540Y-63700000D01*
X27500500Y-63700000D01*
X27500500Y-62055943D01*
X33809236Y-62055943D01*
X33809981Y-62061446D01*
X33809982Y-62061457D01*
X33836255Y-62255408D01*
X33839243Y-62277466D01*
X33908322Y-62490071D01*
X33910960Y-62494973D01*
X33964001Y-62593540D01*
X34014254Y-62686924D01*
X34153633Y-62861700D01*
X34187629Y-62891401D01*
X34317781Y-63005112D01*
X34317785Y-63005115D01*
X34321979Y-63008779D01*
X34513882Y-63123436D01*
X34723173Y-63201985D01*
X34943127Y-63241900D01*
X35107899Y-63241900D01*
X35110675Y-63241900D01*
X35277546Y-63226881D01*
X35493036Y-63167410D01*
X35694444Y-63070417D01*
X35875297Y-62939020D01*
X36029781Y-62777442D01*
X36152932Y-62590876D01*
X36240791Y-62385319D01*
X36290535Y-62167378D01*
X36300564Y-61944057D01*
X36270557Y-61722534D01*
X36201478Y-61509929D01*
X36095546Y-61313076D01*
X35956167Y-61138300D01*
X35867667Y-61060980D01*
X35792018Y-60994887D01*
X35792012Y-60994883D01*
X35787821Y-60991221D01*
X35783043Y-60988366D01*
X35783040Y-60988364D01*
X35600695Y-60879418D01*
X35600693Y-60879417D01*
X35595918Y-60876564D01*
X35590709Y-60874609D01*
X35590705Y-60874607D01*
X35391842Y-60799972D01*
X35391839Y-60799971D01*
X35386627Y-60798015D01*
X35381151Y-60797021D01*
X35381143Y-60797019D01*
X35172158Y-60759095D01*
X35172154Y-60759094D01*
X35166673Y-60758100D01*
X34999125Y-60758100D01*
X34996377Y-60758347D01*
X34996362Y-60758348D01*
X34837793Y-60772620D01*
X34837787Y-60772620D01*
X34832254Y-60773119D01*
X34826897Y-60774597D01*
X34826888Y-60774599D01*
X34622132Y-60831108D01*
X34622126Y-60831110D01*
X34616764Y-60832590D01*
X34611759Y-60835000D01*
X34611749Y-60835004D01*
X34420375Y-60927165D01*
X34420366Y-60927170D01*
X34415356Y-60929583D01*
X34410854Y-60932853D01*
X34410847Y-60932858D01*
X34239010Y-61057705D01*
X34239006Y-61057707D01*
X34234503Y-61060980D01*
X34230664Y-61064994D01*
X34230655Y-61065003D01*
X34083869Y-61218530D01*
X34083863Y-61218537D01*
X34080019Y-61222558D01*
X34076950Y-61227206D01*
X34076947Y-61227211D01*
X33959938Y-61404472D01*
X33959934Y-61404478D01*
X33956868Y-61409124D01*
X33954681Y-61414240D01*
X33954676Y-61414250D01*
X33871198Y-61609557D01*
X33871194Y-61609567D01*
X33869009Y-61614681D01*
X33867771Y-61620101D01*
X33867769Y-61620110D01*
X33820504Y-61827191D01*
X33820503Y-61827197D01*
X33819265Y-61832622D01*
X33809236Y-62055943D01*
X27500500Y-62055943D01*
X27500500Y-58190000D01*
X41069451Y-58190000D01*
X41069833Y-58194854D01*
X41072773Y-58232216D01*
X41089217Y-58441148D01*
X41090352Y-58445877D01*
X41090353Y-58445881D01*
X41146889Y-58681374D01*
X41146891Y-58681382D01*
X41148027Y-58686111D01*
X41244434Y-58918859D01*
X41246981Y-58923016D01*
X41246982Y-58923017D01*
X41373517Y-59129504D01*
X41373522Y-59129511D01*
X41376064Y-59133659D01*
X41379224Y-59137358D01*
X41379227Y-59137363D01*
X41412832Y-59176709D01*
X41539676Y-59325224D01*
X41731241Y-59488836D01*
X41735391Y-59491379D01*
X41735395Y-59491382D01*
X41847200Y-59559896D01*
X41946041Y-59620466D01*
X42178789Y-59716873D01*
X42423752Y-59775683D01*
X42674900Y-59795449D01*
X42926048Y-59775683D01*
X43171011Y-59716873D01*
X43403759Y-59620466D01*
X43600341Y-59500000D01*
X59794540Y-59500000D01*
X59795219Y-59506460D01*
X59813646Y-59681795D01*
X59813647Y-59681803D01*
X59814326Y-59688256D01*
X59816331Y-59694428D01*
X59816333Y-59694435D01*
X59849031Y-59795067D01*
X59872821Y-59868284D01*
X59967467Y-60032216D01*
X60094129Y-60172888D01*
X60247270Y-60284151D01*
X60420197Y-60361144D01*
X60605354Y-60400500D01*
X60788143Y-60400500D01*
X60794646Y-60400500D01*
X60979803Y-60361144D01*
X61152730Y-60284151D01*
X61305871Y-60172888D01*
X61432533Y-60032216D01*
X61527179Y-59868284D01*
X61585674Y-59688256D01*
X61605460Y-59500000D01*
X75194540Y-59500000D01*
X75195219Y-59506460D01*
X75213646Y-59681795D01*
X75213647Y-59681803D01*
X75214326Y-59688256D01*
X75216331Y-59694428D01*
X75216333Y-59694435D01*
X75249031Y-59795067D01*
X75272821Y-59868284D01*
X75367467Y-60032216D01*
X75494129Y-60172888D01*
X75647270Y-60284151D01*
X75820197Y-60361144D01*
X76005354Y-60400500D01*
X76188143Y-60400500D01*
X76194646Y-60400500D01*
X76379803Y-60361144D01*
X76552730Y-60284151D01*
X76705871Y-60172888D01*
X76832533Y-60032216D01*
X76927179Y-59868284D01*
X76985674Y-59688256D01*
X77005460Y-59500000D01*
X76985674Y-59311744D01*
X76927179Y-59131716D01*
X76832533Y-58967784D01*
X76792224Y-58923017D01*
X76710220Y-58831942D01*
X76710219Y-58831941D01*
X76705871Y-58827112D01*
X76700613Y-58823292D01*
X76700611Y-58823290D01*
X76557988Y-58719669D01*
X76557987Y-58719668D01*
X76552730Y-58715849D01*
X76546792Y-58713205D01*
X76385745Y-58641501D01*
X76385740Y-58641499D01*
X76379803Y-58638856D01*
X76373444Y-58637504D01*
X76373440Y-58637503D01*
X76201008Y-58600852D01*
X76201005Y-58600851D01*
X76194646Y-58599500D01*
X76005354Y-58599500D01*
X75998995Y-58600851D01*
X75998991Y-58600852D01*
X75826559Y-58637503D01*
X75826552Y-58637505D01*
X75820197Y-58638856D01*
X75814262Y-58641498D01*
X75814254Y-58641501D01*
X75653207Y-58713205D01*
X75653202Y-58713207D01*
X75647270Y-58715849D01*
X75642016Y-58719665D01*
X75642011Y-58719669D01*
X75499388Y-58823290D01*
X75499381Y-58823295D01*
X75494129Y-58827112D01*
X75489784Y-58831937D01*
X75489779Y-58831942D01*
X75371813Y-58962956D01*
X75371808Y-58962962D01*
X75367467Y-58967784D01*
X75364222Y-58973404D01*
X75364218Y-58973410D01*
X75276069Y-59126089D01*
X75276066Y-59126094D01*
X75272821Y-59131716D01*
X75270815Y-59137888D01*
X75270813Y-59137894D01*
X75216333Y-59305564D01*
X75216331Y-59305573D01*
X75214326Y-59311744D01*
X75213648Y-59318194D01*
X75213646Y-59318204D01*
X75196046Y-59485672D01*
X75194540Y-59500000D01*
X61605460Y-59500000D01*
X61585674Y-59311744D01*
X61527179Y-59131716D01*
X61432533Y-58967784D01*
X61392224Y-58923017D01*
X61310220Y-58831942D01*
X61310219Y-58831941D01*
X61305871Y-58827112D01*
X61300613Y-58823292D01*
X61300611Y-58823290D01*
X61157988Y-58719669D01*
X61157987Y-58719668D01*
X61152730Y-58715849D01*
X61146792Y-58713205D01*
X60985745Y-58641501D01*
X60985740Y-58641499D01*
X60979803Y-58638856D01*
X60973444Y-58637504D01*
X60973440Y-58637503D01*
X60801008Y-58600852D01*
X60801005Y-58600851D01*
X60794646Y-58599500D01*
X60605354Y-58599500D01*
X60598995Y-58600851D01*
X60598991Y-58600852D01*
X60426559Y-58637503D01*
X60426552Y-58637505D01*
X60420197Y-58638856D01*
X60414262Y-58641498D01*
X60414254Y-58641501D01*
X60253207Y-58713205D01*
X60253202Y-58713207D01*
X60247270Y-58715849D01*
X60242016Y-58719665D01*
X60242011Y-58719669D01*
X60099388Y-58823290D01*
X60099381Y-58823295D01*
X60094129Y-58827112D01*
X60089784Y-58831937D01*
X60089779Y-58831942D01*
X59971813Y-58962956D01*
X59971808Y-58962962D01*
X59967467Y-58967784D01*
X59964222Y-58973404D01*
X59964218Y-58973410D01*
X59876069Y-59126089D01*
X59876066Y-59126094D01*
X59872821Y-59131716D01*
X59870815Y-59137888D01*
X59870813Y-59137894D01*
X59816333Y-59305564D01*
X59816331Y-59305573D01*
X59814326Y-59311744D01*
X59813648Y-59318194D01*
X59813646Y-59318204D01*
X59796046Y-59485672D01*
X59794540Y-59500000D01*
X43600341Y-59500000D01*
X43618559Y-59488836D01*
X43810124Y-59325224D01*
X43973736Y-59133659D01*
X44105366Y-58918859D01*
X44201773Y-58686111D01*
X44260583Y-58441148D01*
X44279562Y-58200000D01*
X53494540Y-58200000D01*
X53495219Y-58206460D01*
X53513646Y-58381795D01*
X53513647Y-58381803D01*
X53514326Y-58388256D01*
X53516331Y-58394428D01*
X53516333Y-58394435D01*
X53545484Y-58484151D01*
X53572821Y-58568284D01*
X53576068Y-58573908D01*
X53576069Y-58573910D01*
X53658017Y-58715849D01*
X53667467Y-58732216D01*
X53671811Y-58737041D01*
X53671813Y-58737043D01*
X53749999Y-58823877D01*
X53794129Y-58872888D01*
X53947270Y-58984151D01*
X54120197Y-59061144D01*
X54305354Y-59100500D01*
X54488143Y-59100500D01*
X54494646Y-59100500D01*
X54679803Y-59061144D01*
X54852730Y-58984151D01*
X54977119Y-58893777D01*
X55024217Y-58872808D01*
X55075780Y-58872808D01*
X55122885Y-58893780D01*
X55247270Y-58984151D01*
X55420197Y-59061144D01*
X55605354Y-59100500D01*
X55788143Y-59100500D01*
X55794646Y-59100500D01*
X55979803Y-59061144D01*
X56152730Y-58984151D01*
X56305871Y-58872888D01*
X56432533Y-58732216D01*
X56527179Y-58568284D01*
X56549366Y-58500000D01*
X67794540Y-58500000D01*
X67795219Y-58506460D01*
X67813646Y-58681795D01*
X67813647Y-58681803D01*
X67814326Y-58688256D01*
X67816331Y-58694428D01*
X67816333Y-58694435D01*
X67870813Y-58862105D01*
X67872821Y-58868284D01*
X67876068Y-58873908D01*
X67876069Y-58873910D01*
X67941242Y-58986794D01*
X67967467Y-59032216D01*
X68094129Y-59172888D01*
X68247270Y-59284151D01*
X68420197Y-59361144D01*
X68605354Y-59400500D01*
X68788143Y-59400500D01*
X68794646Y-59400500D01*
X68979803Y-59361144D01*
X69152730Y-59284151D01*
X69305871Y-59172888D01*
X69432533Y-59032216D01*
X69527179Y-58868284D01*
X69585674Y-58688256D01*
X69605460Y-58500000D01*
X69585674Y-58311744D01*
X69527179Y-58131716D01*
X69432533Y-57967784D01*
X69406482Y-57938852D01*
X69310220Y-57831942D01*
X69310219Y-57831941D01*
X69305871Y-57827112D01*
X69300613Y-57823292D01*
X69300611Y-57823290D01*
X69157988Y-57719669D01*
X69157987Y-57719668D01*
X69152730Y-57715849D01*
X69146792Y-57713205D01*
X69117134Y-57700000D01*
X71594540Y-57700000D01*
X71595219Y-57706460D01*
X71613646Y-57881795D01*
X71613647Y-57881803D01*
X71614326Y-57888256D01*
X71616331Y-57894428D01*
X71616333Y-57894435D01*
X71654450Y-58011744D01*
X71672821Y-58068284D01*
X71676068Y-58073908D01*
X71676069Y-58073910D01*
X71743093Y-58190000D01*
X71767467Y-58232216D01*
X71771811Y-58237041D01*
X71771813Y-58237043D01*
X71844891Y-58318204D01*
X71894129Y-58372888D01*
X72047270Y-58484151D01*
X72220197Y-58561144D01*
X72405354Y-58600500D01*
X72588143Y-58600500D01*
X72594646Y-58600500D01*
X72779803Y-58561144D01*
X72952730Y-58484151D01*
X73105871Y-58372888D01*
X73232533Y-58232216D01*
X73327179Y-58068284D01*
X73385674Y-57888256D01*
X73405460Y-57700000D01*
X73385674Y-57511744D01*
X73327179Y-57331716D01*
X73232533Y-57167784D01*
X73105871Y-57027112D01*
X73100613Y-57023292D01*
X73100611Y-57023290D01*
X72957988Y-56919669D01*
X72957987Y-56919668D01*
X72952730Y-56915849D01*
X72946792Y-56913205D01*
X72785745Y-56841501D01*
X72785740Y-56841499D01*
X72779803Y-56838856D01*
X72773444Y-56837504D01*
X72773440Y-56837503D01*
X72601008Y-56800852D01*
X72601005Y-56800851D01*
X72594646Y-56799500D01*
X72405354Y-56799500D01*
X72398995Y-56800851D01*
X72398991Y-56800852D01*
X72226559Y-56837503D01*
X72226552Y-56837505D01*
X72220197Y-56838856D01*
X72214262Y-56841498D01*
X72214254Y-56841501D01*
X72053207Y-56913205D01*
X72053202Y-56913207D01*
X72047270Y-56915849D01*
X72042016Y-56919665D01*
X72042011Y-56919669D01*
X71899388Y-57023290D01*
X71899381Y-57023295D01*
X71894129Y-57027112D01*
X71889784Y-57031937D01*
X71889779Y-57031942D01*
X71771813Y-57162956D01*
X71771808Y-57162962D01*
X71767467Y-57167784D01*
X71764222Y-57173404D01*
X71764218Y-57173410D01*
X71676069Y-57326089D01*
X71676066Y-57326094D01*
X71672821Y-57331716D01*
X71670815Y-57337888D01*
X71670813Y-57337894D01*
X71616333Y-57505564D01*
X71616331Y-57505573D01*
X71614326Y-57511744D01*
X71613648Y-57518194D01*
X71613646Y-57518204D01*
X71600966Y-57638856D01*
X71594540Y-57700000D01*
X69117134Y-57700000D01*
X68985745Y-57641501D01*
X68985740Y-57641499D01*
X68979803Y-57638856D01*
X68973444Y-57637504D01*
X68973440Y-57637503D01*
X68801008Y-57600852D01*
X68801005Y-57600851D01*
X68794646Y-57599500D01*
X68605354Y-57599500D01*
X68598995Y-57600851D01*
X68598991Y-57600852D01*
X68426559Y-57637503D01*
X68426552Y-57637505D01*
X68420197Y-57638856D01*
X68414262Y-57641498D01*
X68414254Y-57641501D01*
X68253207Y-57713205D01*
X68253202Y-57713207D01*
X68247270Y-57715849D01*
X68242016Y-57719665D01*
X68242011Y-57719669D01*
X68099388Y-57823290D01*
X68099381Y-57823295D01*
X68094129Y-57827112D01*
X68089784Y-57831937D01*
X68089779Y-57831942D01*
X67971813Y-57962956D01*
X67971808Y-57962962D01*
X67967467Y-57967784D01*
X67964222Y-57973404D01*
X67964218Y-57973410D01*
X67876069Y-58126089D01*
X67876066Y-58126094D01*
X67872821Y-58131716D01*
X67870815Y-58137888D01*
X67870813Y-58137894D01*
X67816333Y-58305564D01*
X67816331Y-58305573D01*
X67814326Y-58311744D01*
X67813648Y-58318194D01*
X67813646Y-58318204D01*
X67801235Y-58436295D01*
X67794540Y-58500000D01*
X56549366Y-58500000D01*
X56585674Y-58388256D01*
X56605460Y-58200000D01*
X56585674Y-58011744D01*
X56527179Y-57831716D01*
X56432533Y-57667784D01*
X56305871Y-57527112D01*
X56300613Y-57523292D01*
X56300611Y-57523290D01*
X56157988Y-57419669D01*
X56157987Y-57419668D01*
X56152730Y-57415849D01*
X56146792Y-57413205D01*
X55985745Y-57341501D01*
X55985740Y-57341499D01*
X55979803Y-57338856D01*
X55973444Y-57337504D01*
X55973440Y-57337503D01*
X55801008Y-57300852D01*
X55801005Y-57300851D01*
X55794646Y-57299500D01*
X55605354Y-57299500D01*
X55598995Y-57300851D01*
X55598991Y-57300852D01*
X55426559Y-57337503D01*
X55426552Y-57337505D01*
X55420197Y-57338856D01*
X55414262Y-57341498D01*
X55414254Y-57341501D01*
X55253207Y-57413205D01*
X55253202Y-57413207D01*
X55247270Y-57415849D01*
X55242016Y-57419665D01*
X55242011Y-57419669D01*
X55122885Y-57506219D01*
X55075781Y-57527191D01*
X55024219Y-57527191D01*
X54977115Y-57506219D01*
X54857988Y-57419669D01*
X54857987Y-57419668D01*
X54852730Y-57415849D01*
X54846792Y-57413205D01*
X54685745Y-57341501D01*
X54685740Y-57341499D01*
X54679803Y-57338856D01*
X54673444Y-57337504D01*
X54673440Y-57337503D01*
X54501008Y-57300852D01*
X54501005Y-57300851D01*
X54494646Y-57299500D01*
X54305354Y-57299500D01*
X54298995Y-57300851D01*
X54298991Y-57300852D01*
X54126559Y-57337503D01*
X54126552Y-57337505D01*
X54120197Y-57338856D01*
X54114262Y-57341498D01*
X54114254Y-57341501D01*
X53953207Y-57413205D01*
X53953202Y-57413207D01*
X53947270Y-57415849D01*
X53942016Y-57419665D01*
X53942011Y-57419669D01*
X53799388Y-57523290D01*
X53799381Y-57523295D01*
X53794129Y-57527112D01*
X53789784Y-57531937D01*
X53789779Y-57531942D01*
X53671813Y-57662956D01*
X53671808Y-57662962D01*
X53667467Y-57667784D01*
X53664222Y-57673404D01*
X53664218Y-57673410D01*
X53576069Y-57826089D01*
X53576066Y-57826094D01*
X53572821Y-57831716D01*
X53570815Y-57837888D01*
X53570813Y-57837894D01*
X53516333Y-58005564D01*
X53516331Y-58005573D01*
X53514326Y-58011744D01*
X53513648Y-58018194D01*
X53513646Y-58018204D01*
X53501067Y-58137894D01*
X53494540Y-58200000D01*
X44279562Y-58200000D01*
X44280349Y-58190000D01*
X44260583Y-57938852D01*
X44201773Y-57693889D01*
X44105366Y-57461141D01*
X44032050Y-57341501D01*
X43976282Y-57250495D01*
X43976279Y-57250491D01*
X43973736Y-57246341D01*
X43902518Y-57162956D01*
X43813284Y-57058476D01*
X43810124Y-57054776D01*
X43708855Y-56968284D01*
X43622263Y-56894327D01*
X43622258Y-56894324D01*
X43618559Y-56891164D01*
X43614411Y-56888622D01*
X43614404Y-56888617D01*
X43407917Y-56762082D01*
X43407916Y-56762081D01*
X43403759Y-56759534D01*
X43171011Y-56663127D01*
X43166282Y-56661991D01*
X43166274Y-56661989D01*
X42930781Y-56605453D01*
X42930777Y-56605452D01*
X42926048Y-56604317D01*
X42921195Y-56603935D01*
X42871197Y-56600000D01*
X81894540Y-56600000D01*
X81895219Y-56606460D01*
X81913646Y-56781795D01*
X81913647Y-56781803D01*
X81914326Y-56788256D01*
X81916331Y-56794428D01*
X81916333Y-56794435D01*
X81957025Y-56919669D01*
X81972821Y-56968284D01*
X81976068Y-56973908D01*
X81976069Y-56973910D01*
X82004578Y-57023290D01*
X82067467Y-57132216D01*
X82071811Y-57137041D01*
X82071813Y-57137043D01*
X82104558Y-57173410D01*
X82194129Y-57272888D01*
X82347270Y-57384151D01*
X82520197Y-57461144D01*
X82705354Y-57500500D01*
X82888143Y-57500500D01*
X82894646Y-57500500D01*
X83079803Y-57461144D01*
X83252730Y-57384151D01*
X83405871Y-57272888D01*
X83532533Y-57132216D01*
X83627179Y-56968284D01*
X83685674Y-56788256D01*
X83705460Y-56600000D01*
X83685674Y-56411744D01*
X83627179Y-56231716D01*
X83532533Y-56067784D01*
X83405871Y-55927112D01*
X83400613Y-55923292D01*
X83400611Y-55923290D01*
X83257988Y-55819669D01*
X83257987Y-55819668D01*
X83252730Y-55815849D01*
X83246792Y-55813205D01*
X83085745Y-55741501D01*
X83085740Y-55741499D01*
X83079803Y-55738856D01*
X83073444Y-55737504D01*
X83073440Y-55737503D01*
X82901008Y-55700852D01*
X82901005Y-55700851D01*
X82894646Y-55699500D01*
X82705354Y-55699500D01*
X82698995Y-55700851D01*
X82698991Y-55700852D01*
X82526559Y-55737503D01*
X82526552Y-55737505D01*
X82520197Y-55738856D01*
X82514262Y-55741498D01*
X82514254Y-55741501D01*
X82353207Y-55813205D01*
X82353202Y-55813207D01*
X82347270Y-55815849D01*
X82342016Y-55819665D01*
X82342011Y-55819669D01*
X82199388Y-55923290D01*
X82199381Y-55923295D01*
X82194129Y-55927112D01*
X82189784Y-55931937D01*
X82189779Y-55931942D01*
X82071813Y-56062956D01*
X82071808Y-56062962D01*
X82067467Y-56067784D01*
X82064222Y-56073404D01*
X82064218Y-56073410D01*
X81976069Y-56226089D01*
X81976066Y-56226094D01*
X81972821Y-56231716D01*
X81970815Y-56237888D01*
X81970813Y-56237894D01*
X81916333Y-56405564D01*
X81916331Y-56405573D01*
X81914326Y-56411744D01*
X81913648Y-56418194D01*
X81913646Y-56418204D01*
X81896164Y-56584551D01*
X81894540Y-56600000D01*
X42871197Y-56600000D01*
X42679754Y-56584933D01*
X42674900Y-56584551D01*
X42670046Y-56584933D01*
X42428604Y-56603935D01*
X42428602Y-56603935D01*
X42423752Y-56604317D01*
X42419024Y-56605451D01*
X42419018Y-56605453D01*
X42183525Y-56661989D01*
X42183513Y-56661992D01*
X42178789Y-56663127D01*
X42174292Y-56664989D01*
X42174288Y-56664991D01*
X41950545Y-56757668D01*
X41950540Y-56757670D01*
X41946041Y-56759534D01*
X41941888Y-56762078D01*
X41941882Y-56762082D01*
X41735395Y-56888617D01*
X41735382Y-56888626D01*
X41731241Y-56891164D01*
X41727546Y-56894319D01*
X41727536Y-56894327D01*
X41543376Y-57051615D01*
X41543369Y-57051621D01*
X41539676Y-57054776D01*
X41536521Y-57058469D01*
X41536515Y-57058476D01*
X41379227Y-57242636D01*
X41379219Y-57242646D01*
X41376064Y-57246341D01*
X41373526Y-57250482D01*
X41373517Y-57250495D01*
X41246982Y-57456982D01*
X41246978Y-57456988D01*
X41244434Y-57461141D01*
X41242570Y-57465640D01*
X41242568Y-57465645D01*
X41149891Y-57689388D01*
X41148027Y-57693889D01*
X41146892Y-57698613D01*
X41146889Y-57698625D01*
X41090353Y-57934118D01*
X41090351Y-57934124D01*
X41089217Y-57938852D01*
X41088835Y-57943702D01*
X41088835Y-57943704D01*
X41083480Y-58011744D01*
X41069451Y-58190000D01*
X27500500Y-58190000D01*
X27500500Y-54900000D01*
X56894540Y-54900000D01*
X56895219Y-54906460D01*
X56913646Y-55081795D01*
X56913647Y-55081803D01*
X56914326Y-55088256D01*
X56916331Y-55094428D01*
X56916333Y-55094435D01*
X56970813Y-55262105D01*
X56972821Y-55268284D01*
X57067467Y-55432216D01*
X57194129Y-55572888D01*
X57347270Y-55684151D01*
X57520197Y-55761144D01*
X57705354Y-55800500D01*
X57888143Y-55800500D01*
X57894646Y-55800500D01*
X58079803Y-55761144D01*
X58252730Y-55684151D01*
X58405871Y-55572888D01*
X58532533Y-55432216D01*
X58627179Y-55268284D01*
X58685674Y-55088256D01*
X58705460Y-54900000D01*
X58685674Y-54711744D01*
X58627179Y-54531716D01*
X58532533Y-54367784D01*
X58450528Y-54276709D01*
X58410220Y-54231942D01*
X58410219Y-54231941D01*
X58405871Y-54227112D01*
X58400613Y-54223292D01*
X58400611Y-54223290D01*
X58257988Y-54119669D01*
X58257987Y-54119668D01*
X58252730Y-54115849D01*
X58246792Y-54113205D01*
X58085745Y-54041501D01*
X58085740Y-54041499D01*
X58079803Y-54038856D01*
X58073444Y-54037504D01*
X58073440Y-54037503D01*
X57901008Y-54000852D01*
X57901005Y-54000851D01*
X57894646Y-53999500D01*
X57705354Y-53999500D01*
X57698995Y-54000851D01*
X57698991Y-54000852D01*
X57526559Y-54037503D01*
X57526552Y-54037505D01*
X57520197Y-54038856D01*
X57514262Y-54041498D01*
X57514254Y-54041501D01*
X57353207Y-54113205D01*
X57353202Y-54113207D01*
X57347270Y-54115849D01*
X57342016Y-54119665D01*
X57342011Y-54119669D01*
X57199388Y-54223290D01*
X57199381Y-54223295D01*
X57194129Y-54227112D01*
X57189784Y-54231937D01*
X57189779Y-54231942D01*
X57071813Y-54362956D01*
X57071808Y-54362962D01*
X57067467Y-54367784D01*
X57064222Y-54373404D01*
X57064218Y-54373410D01*
X56976069Y-54526089D01*
X56976066Y-54526094D01*
X56972821Y-54531716D01*
X56970815Y-54537888D01*
X56970813Y-54537894D01*
X56916333Y-54705564D01*
X56916331Y-54705573D01*
X56914326Y-54711744D01*
X56913648Y-54718194D01*
X56913646Y-54718204D01*
X56895962Y-54886464D01*
X56894540Y-54900000D01*
X27500500Y-54900000D01*
X27500500Y-53600000D01*
X71594540Y-53600000D01*
X71595219Y-53606460D01*
X71613646Y-53781795D01*
X71613647Y-53781803D01*
X71614326Y-53788256D01*
X71616331Y-53794428D01*
X71616333Y-53794435D01*
X71670813Y-53962105D01*
X71672821Y-53968284D01*
X71676068Y-53973908D01*
X71676069Y-53973910D01*
X71758017Y-54115849D01*
X71767467Y-54132216D01*
X71771811Y-54137041D01*
X71771813Y-54137043D01*
X71852912Y-54227112D01*
X71894129Y-54272888D01*
X72047270Y-54384151D01*
X72220197Y-54461144D01*
X72405354Y-54500500D01*
X72588143Y-54500500D01*
X72594646Y-54500500D01*
X72779803Y-54461144D01*
X72952730Y-54384151D01*
X73105871Y-54272888D01*
X73232533Y-54132216D01*
X73327179Y-53968284D01*
X73385674Y-53788256D01*
X73405460Y-53600000D01*
X73385674Y-53411744D01*
X73327179Y-53231716D01*
X73232533Y-53067784D01*
X73105871Y-52927112D01*
X73100613Y-52923292D01*
X73100611Y-52923290D01*
X72957988Y-52819669D01*
X72957987Y-52819668D01*
X72952730Y-52815849D01*
X72946792Y-52813205D01*
X72785745Y-52741501D01*
X72785740Y-52741499D01*
X72779803Y-52738856D01*
X72773444Y-52737504D01*
X72773440Y-52737503D01*
X72601008Y-52700852D01*
X72601005Y-52700851D01*
X72594646Y-52699500D01*
X72405354Y-52699500D01*
X72398995Y-52700851D01*
X72398991Y-52700852D01*
X72226559Y-52737503D01*
X72226552Y-52737505D01*
X72220197Y-52738856D01*
X72214262Y-52741498D01*
X72214254Y-52741501D01*
X72053207Y-52813205D01*
X72053202Y-52813207D01*
X72047270Y-52815849D01*
X72042016Y-52819665D01*
X72042011Y-52819669D01*
X71899388Y-52923290D01*
X71899381Y-52923295D01*
X71894129Y-52927112D01*
X71889784Y-52931937D01*
X71889779Y-52931942D01*
X71771813Y-53062956D01*
X71771808Y-53062962D01*
X71767467Y-53067784D01*
X71764222Y-53073404D01*
X71764218Y-53073410D01*
X71676069Y-53226089D01*
X71676066Y-53226094D01*
X71672821Y-53231716D01*
X71670815Y-53237888D01*
X71670813Y-53237894D01*
X71616333Y-53405564D01*
X71616331Y-53405573D01*
X71614326Y-53411744D01*
X71613648Y-53418194D01*
X71613646Y-53418204D01*
X71595962Y-53586464D01*
X71594540Y-53600000D01*
X27500500Y-53600000D01*
X27500500Y-52400000D01*
X61894540Y-52400000D01*
X61895219Y-52406460D01*
X61913646Y-52581795D01*
X61913647Y-52581803D01*
X61914326Y-52588256D01*
X61916331Y-52594428D01*
X61916333Y-52594435D01*
X61970813Y-52762105D01*
X61972821Y-52768284D01*
X61976068Y-52773908D01*
X61976069Y-52773910D01*
X62062313Y-52923290D01*
X62067467Y-52932216D01*
X62194129Y-53072888D01*
X62347270Y-53184151D01*
X62520197Y-53261144D01*
X62705354Y-53300500D01*
X62888143Y-53300500D01*
X62894646Y-53300500D01*
X63079803Y-53261144D01*
X63252730Y-53184151D01*
X63405871Y-53072888D01*
X63532533Y-52932216D01*
X63627179Y-52768284D01*
X63685674Y-52588256D01*
X63705460Y-52400000D01*
X63685674Y-52211744D01*
X63627179Y-52031716D01*
X63532533Y-51867784D01*
X63450528Y-51776709D01*
X63410220Y-51731942D01*
X63410219Y-51731941D01*
X63405871Y-51727112D01*
X63400613Y-51723292D01*
X63400611Y-51723290D01*
X63257988Y-51619669D01*
X63257987Y-51619668D01*
X63252730Y-51615849D01*
X63246792Y-51613205D01*
X63085745Y-51541501D01*
X63085740Y-51541499D01*
X63079803Y-51538856D01*
X63073444Y-51537504D01*
X63073440Y-51537503D01*
X62901008Y-51500852D01*
X62901005Y-51500851D01*
X62894646Y-51499500D01*
X62705354Y-51499500D01*
X62698995Y-51500851D01*
X62698991Y-51500852D01*
X62526559Y-51537503D01*
X62526552Y-51537505D01*
X62520197Y-51538856D01*
X62514262Y-51541498D01*
X62514254Y-51541501D01*
X62353207Y-51613205D01*
X62353202Y-51613207D01*
X62347270Y-51615849D01*
X62342016Y-51619665D01*
X62342011Y-51619669D01*
X62199388Y-51723290D01*
X62199381Y-51723295D01*
X62194129Y-51727112D01*
X62189784Y-51731937D01*
X62189779Y-51731942D01*
X62071813Y-51862956D01*
X62071808Y-51862962D01*
X62067467Y-51867784D01*
X62064222Y-51873404D01*
X62064218Y-51873410D01*
X61976069Y-52026089D01*
X61976066Y-52026094D01*
X61972821Y-52031716D01*
X61970815Y-52037888D01*
X61970813Y-52037894D01*
X61916333Y-52205564D01*
X61916331Y-52205573D01*
X61914326Y-52211744D01*
X61913648Y-52218194D01*
X61913646Y-52218204D01*
X61895962Y-52386464D01*
X61894540Y-52400000D01*
X27500500Y-52400000D01*
X27500500Y-51100000D01*
X73794540Y-51100000D01*
X73795219Y-51106460D01*
X73813646Y-51281795D01*
X73813647Y-51281803D01*
X73814326Y-51288256D01*
X73816331Y-51294428D01*
X73816333Y-51294435D01*
X73870813Y-51462105D01*
X73872821Y-51468284D01*
X73876068Y-51473908D01*
X73876069Y-51473910D01*
X73958017Y-51615849D01*
X73967467Y-51632216D01*
X73971811Y-51637041D01*
X73971813Y-51637043D01*
X74052912Y-51727112D01*
X74094129Y-51772888D01*
X74247270Y-51884151D01*
X74420197Y-51961144D01*
X74605354Y-52000500D01*
X74788143Y-52000500D01*
X74794646Y-52000500D01*
X74979803Y-51961144D01*
X75152730Y-51884151D01*
X75305871Y-51772888D01*
X75432533Y-51632216D01*
X75527179Y-51468284D01*
X75585674Y-51288256D01*
X75605460Y-51100000D01*
X75585674Y-50911744D01*
X75527179Y-50731716D01*
X75432533Y-50567784D01*
X75305871Y-50427112D01*
X75300613Y-50423292D01*
X75300611Y-50423290D01*
X75157988Y-50319669D01*
X75157987Y-50319668D01*
X75152730Y-50315849D01*
X75132406Y-50306800D01*
X74985745Y-50241501D01*
X74985740Y-50241499D01*
X74979803Y-50238856D01*
X74973444Y-50237504D01*
X74973440Y-50237503D01*
X74801008Y-50200852D01*
X74801005Y-50200851D01*
X74794646Y-50199500D01*
X74605354Y-50199500D01*
X74598995Y-50200851D01*
X74598991Y-50200852D01*
X74426559Y-50237503D01*
X74426552Y-50237505D01*
X74420197Y-50238856D01*
X74414262Y-50241498D01*
X74414254Y-50241501D01*
X74253207Y-50313205D01*
X74253202Y-50313207D01*
X74247270Y-50315849D01*
X74242016Y-50319665D01*
X74242011Y-50319669D01*
X74099388Y-50423290D01*
X74099381Y-50423295D01*
X74094129Y-50427112D01*
X74089784Y-50431937D01*
X74089779Y-50431942D01*
X73971813Y-50562956D01*
X73971808Y-50562962D01*
X73967467Y-50567784D01*
X73964222Y-50573404D01*
X73964218Y-50573410D01*
X73876069Y-50726089D01*
X73876066Y-50726094D01*
X73872821Y-50731716D01*
X73870815Y-50737888D01*
X73870813Y-50737894D01*
X73816333Y-50905564D01*
X73816331Y-50905573D01*
X73814326Y-50911744D01*
X73813648Y-50918194D01*
X73813646Y-50918204D01*
X73795962Y-51086464D01*
X73794540Y-51100000D01*
X27500500Y-51100000D01*
X27500500Y-49643935D01*
X35845669Y-49643935D01*
X35876135Y-49816711D01*
X35945623Y-49977804D01*
X36050390Y-50118530D01*
X36184786Y-50231302D01*
X36341567Y-50310040D01*
X36512279Y-50350500D01*
X36640111Y-50350500D01*
X36643709Y-50350500D01*
X36774255Y-50335241D01*
X36939117Y-50275237D01*
X37085696Y-50178830D01*
X37206092Y-50051218D01*
X37293812Y-49899281D01*
X37344130Y-49731210D01*
X37354331Y-49556065D01*
X37323865Y-49383289D01*
X37254377Y-49222196D01*
X37227027Y-49185459D01*
X37202960Y-49122180D01*
X37215719Y-49055688D01*
X37261503Y-49005809D01*
X37326661Y-48987414D01*
X37391768Y-49005986D01*
X37473790Y-49056772D01*
X37676931Y-49135470D01*
X37891074Y-49175500D01*
X38103197Y-49175500D01*
X38108926Y-49175500D01*
X38323069Y-49135470D01*
X38526210Y-49056772D01*
X38711432Y-48942088D01*
X38872427Y-48795322D01*
X38901046Y-48757423D01*
X38944728Y-48721150D01*
X39000000Y-48708150D01*
X39055272Y-48721150D01*
X39098953Y-48757423D01*
X39127573Y-48795322D01*
X39131807Y-48799182D01*
X39131810Y-48799185D01*
X39203742Y-48864759D01*
X39288568Y-48942088D01*
X39473790Y-49056772D01*
X39676931Y-49135470D01*
X39891074Y-49175500D01*
X40103197Y-49175500D01*
X40108926Y-49175500D01*
X40323069Y-49135470D01*
X40526210Y-49056772D01*
X40711432Y-48942088D01*
X40872427Y-48795322D01*
X41003712Y-48621472D01*
X41100817Y-48426459D01*
X41160435Y-48216923D01*
X41180536Y-48000000D01*
X41160435Y-47783077D01*
X41100817Y-47573541D01*
X41003712Y-47378528D01*
X40872427Y-47204678D01*
X40711432Y-47057912D01*
X40706562Y-47054897D01*
X40706560Y-47054895D01*
X40531086Y-46946247D01*
X40531085Y-46946246D01*
X40526210Y-46943228D01*
X40520863Y-46941156D01*
X40520860Y-46941155D01*
X40328417Y-46866602D01*
X40328418Y-46866602D01*
X40323069Y-46864530D01*
X40317443Y-46863478D01*
X40317435Y-46863476D01*
X40114555Y-46825552D01*
X40114552Y-46825551D01*
X40108926Y-46824500D01*
X39891074Y-46824500D01*
X39885448Y-46825551D01*
X39885444Y-46825552D01*
X39682564Y-46863476D01*
X39682553Y-46863478D01*
X39676931Y-46864530D01*
X39671584Y-46866601D01*
X39671582Y-46866602D01*
X39479139Y-46941155D01*
X39479132Y-46941158D01*
X39473790Y-46943228D01*
X39468918Y-46946244D01*
X39468913Y-46946247D01*
X39293439Y-47054895D01*
X39293431Y-47054900D01*
X39288568Y-47057912D01*
X39284337Y-47061768D01*
X39284333Y-47061772D01*
X39131813Y-47200812D01*
X39131809Y-47200816D01*
X39127573Y-47204678D01*
X39124118Y-47209253D01*
X39124112Y-47209260D01*
X39098951Y-47242577D01*
X39055268Y-47278849D01*
X38999997Y-47291848D01*
X38944726Y-47278848D01*
X38901045Y-47242575D01*
X38875887Y-47209260D01*
X38875882Y-47209253D01*
X38875881Y-47209252D01*
X38872427Y-47204678D01*
X38748425Y-47091635D01*
X38712698Y-47033934D01*
X38712698Y-46966066D01*
X38748425Y-46908364D01*
X38872427Y-46795322D01*
X39003712Y-46621472D01*
X39100817Y-46426459D01*
X39160435Y-46216923D01*
X39180536Y-46000000D01*
X39160435Y-45783077D01*
X39100817Y-45573541D01*
X39003712Y-45378528D01*
X38872427Y-45204678D01*
X38748425Y-45091635D01*
X38712698Y-45033934D01*
X38712698Y-44966066D01*
X38748425Y-44908364D01*
X38872427Y-44795322D01*
X38901049Y-44757419D01*
X38944725Y-44721151D01*
X38999997Y-44708150D01*
X39055269Y-44721149D01*
X39098952Y-44757422D01*
X39124116Y-44790744D01*
X39127573Y-44795322D01*
X39131807Y-44799182D01*
X39131810Y-44799185D01*
X39225597Y-44884683D01*
X39288568Y-44942088D01*
X39473790Y-45056772D01*
X39676931Y-45135470D01*
X39891074Y-45175500D01*
X40103197Y-45175500D01*
X40108926Y-45175500D01*
X40323069Y-45135470D01*
X40526210Y-45056772D01*
X40711432Y-44942088D01*
X40872427Y-44795322D01*
X41003712Y-44621472D01*
X41100817Y-44426459D01*
X41160435Y-44216923D01*
X41180536Y-44000000D01*
X78619464Y-44000000D01*
X78639565Y-44216923D01*
X78699183Y-44426459D01*
X78701735Y-44431585D01*
X78701737Y-44431589D01*
X78793733Y-44616342D01*
X78793735Y-44616346D01*
X78796288Y-44621472D01*
X78927573Y-44795322D01*
X79088568Y-44942088D01*
X79273790Y-45056772D01*
X79476931Y-45135470D01*
X79691074Y-45175500D01*
X79903197Y-45175500D01*
X79908926Y-45175500D01*
X80123069Y-45135470D01*
X80326210Y-45056772D01*
X80511432Y-44942088D01*
X80672427Y-44795322D01*
X80701048Y-44757422D01*
X80744728Y-44721150D01*
X80800000Y-44708150D01*
X80855272Y-44721150D01*
X80898952Y-44757422D01*
X80927573Y-44795322D01*
X80931807Y-44799182D01*
X80931810Y-44799185D01*
X81051573Y-44908363D01*
X81087301Y-44966066D01*
X81087301Y-45033934D01*
X81051573Y-45091637D01*
X80931813Y-45200811D01*
X80931803Y-45200821D01*
X80927573Y-45204678D01*
X80924119Y-45209251D01*
X80924116Y-45209255D01*
X80799741Y-45373955D01*
X80796288Y-45378528D01*
X80793738Y-45383648D01*
X80793733Y-45383657D01*
X80701737Y-45568410D01*
X80701733Y-45568418D01*
X80699183Y-45573541D01*
X80639565Y-45783077D01*
X80619464Y-46000000D01*
X80639565Y-46216923D01*
X80699183Y-46426459D01*
X80701735Y-46431585D01*
X80701737Y-46431589D01*
X80793733Y-46616342D01*
X80793735Y-46616346D01*
X80796288Y-46621472D01*
X80839027Y-46678068D01*
X80843808Y-46684399D01*
X80867776Y-46742820D01*
X80859867Y-46805469D01*
X80822131Y-46856100D01*
X80764354Y-46881582D01*
X80701520Y-46875307D01*
X80589752Y-46833620D01*
X80589750Y-46833619D01*
X80582483Y-46830909D01*
X80574770Y-46830079D01*
X80574767Y-46830079D01*
X80526180Y-46824855D01*
X80526169Y-46824854D01*
X80522873Y-46824500D01*
X80519550Y-46824500D01*
X79080439Y-46824500D01*
X79080420Y-46824500D01*
X79077128Y-46824501D01*
X79073850Y-46824853D01*
X79073838Y-46824854D01*
X79025231Y-46830079D01*
X79025225Y-46830080D01*
X79017517Y-46830909D01*
X79010252Y-46833618D01*
X79010246Y-46833620D01*
X78890980Y-46878104D01*
X78890978Y-46878104D01*
X78882669Y-46881204D01*
X78875572Y-46886516D01*
X78875568Y-46886519D01*
X78774550Y-46962141D01*
X78774546Y-46962144D01*
X78767454Y-46967454D01*
X78762144Y-46974546D01*
X78762141Y-46974550D01*
X78686519Y-47075568D01*
X78686516Y-47075572D01*
X78681204Y-47082669D01*
X78678104Y-47090978D01*
X78678104Y-47090980D01*
X78633620Y-47210247D01*
X78633619Y-47210250D01*
X78630909Y-47217517D01*
X78630079Y-47225227D01*
X78630079Y-47225232D01*
X78624855Y-47273819D01*
X78624854Y-47273831D01*
X78624500Y-47277127D01*
X78624500Y-47280448D01*
X78624500Y-47280449D01*
X78624500Y-48719560D01*
X78624500Y-48719578D01*
X78624501Y-48722872D01*
X78624853Y-48726150D01*
X78624854Y-48726161D01*
X78630079Y-48774768D01*
X78630080Y-48774773D01*
X78630909Y-48782483D01*
X78633619Y-48789749D01*
X78633620Y-48789753D01*
X78661283Y-48863920D01*
X78681204Y-48917331D01*
X78686518Y-48924430D01*
X78686519Y-48924431D01*
X78746131Y-49004063D01*
X78767454Y-49032546D01*
X78882669Y-49118796D01*
X79017517Y-49169091D01*
X79077127Y-49175500D01*
X80522872Y-49175499D01*
X80582483Y-49169091D01*
X80717331Y-49118796D01*
X80832546Y-49032546D01*
X80894785Y-48949404D01*
X80948934Y-48908215D01*
X81016666Y-48901796D01*
X81077588Y-48932078D01*
X81088568Y-48942088D01*
X81273790Y-49056772D01*
X81476931Y-49135470D01*
X81691074Y-49175500D01*
X81903197Y-49175500D01*
X81908926Y-49175500D01*
X82123069Y-49135470D01*
X82326210Y-49056772D01*
X82406353Y-49007149D01*
X82468571Y-48988616D01*
X82531631Y-49004063D01*
X82578242Y-49049259D01*
X82595625Y-49111813D01*
X82579015Y-49174577D01*
X82509800Y-49294463D01*
X82506188Y-49300719D01*
X82504117Y-49307634D01*
X82504117Y-49307636D01*
X82457941Y-49461869D01*
X82457939Y-49461877D01*
X82455870Y-49468790D01*
X82455450Y-49475996D01*
X82455449Y-49476004D01*
X82446088Y-49636725D01*
X82446088Y-49636733D01*
X82445669Y-49643935D01*
X82476135Y-49816711D01*
X82545623Y-49977804D01*
X82650390Y-50118530D01*
X82784786Y-50231302D01*
X82941567Y-50310040D01*
X83112279Y-50350500D01*
X83240111Y-50350500D01*
X83243709Y-50350500D01*
X83374255Y-50335241D01*
X83539117Y-50275237D01*
X83685696Y-50178830D01*
X83806092Y-50051218D01*
X83893812Y-49899281D01*
X83944130Y-49731210D01*
X83954331Y-49556065D01*
X83923865Y-49383289D01*
X83854377Y-49222196D01*
X83749610Y-49081470D01*
X83722645Y-49058844D01*
X83620745Y-48973339D01*
X83620744Y-48973338D01*
X83615214Y-48968698D01*
X83608763Y-48965458D01*
X83464883Y-48893199D01*
X83464880Y-48893198D01*
X83458433Y-48889960D01*
X83451407Y-48888294D01*
X83451405Y-48888294D01*
X83294749Y-48851165D01*
X83294743Y-48851164D01*
X83287721Y-48849500D01*
X83156291Y-48849500D01*
X83152725Y-48849916D01*
X83152721Y-48849917D01*
X83032915Y-48863920D01*
X83032907Y-48863921D01*
X83025745Y-48864759D01*
X83018967Y-48867225D01*
X83018958Y-48867228D01*
X82860883Y-48924763D01*
X82859915Y-48922104D01*
X82808924Y-48932260D01*
X82746955Y-48910347D01*
X82704892Y-48859838D01*
X82694555Y-48794927D01*
X82718846Y-48733852D01*
X82803712Y-48621472D01*
X82900817Y-48426459D01*
X82960435Y-48216923D01*
X82980536Y-48000000D01*
X82960435Y-47783077D01*
X82900817Y-47573541D01*
X82803712Y-47378528D01*
X82672427Y-47204678D01*
X82548425Y-47091635D01*
X82512698Y-47033934D01*
X82512698Y-46966066D01*
X82548425Y-46908364D01*
X82672427Y-46795322D01*
X82803712Y-46621472D01*
X82900817Y-46426459D01*
X82960435Y-46216923D01*
X82980536Y-46000000D01*
X82960435Y-45783077D01*
X82900817Y-45573541D01*
X82803712Y-45378528D01*
X82672427Y-45204678D01*
X82548425Y-45091635D01*
X82512698Y-45033934D01*
X82512698Y-44966066D01*
X82548425Y-44908364D01*
X82672427Y-44795322D01*
X82803712Y-44621472D01*
X82900817Y-44426459D01*
X82960435Y-44216923D01*
X82980536Y-44000000D01*
X82960435Y-43783077D01*
X82900817Y-43573541D01*
X82803712Y-43378528D01*
X82672427Y-43204678D01*
X82548425Y-43091635D01*
X82512698Y-43033934D01*
X82512698Y-42966066D01*
X82548425Y-42908364D01*
X82672427Y-42795322D01*
X82803712Y-42621472D01*
X82900817Y-42426459D01*
X82960435Y-42216923D01*
X82980536Y-42000000D01*
X82960435Y-41783077D01*
X82900817Y-41573541D01*
X82803712Y-41378528D01*
X82672427Y-41204678D01*
X82668190Y-41200815D01*
X82668186Y-41200811D01*
X82548426Y-41091636D01*
X82512698Y-41033933D01*
X82512698Y-40966064D01*
X82548422Y-40908366D01*
X82672427Y-40795322D01*
X82803712Y-40621472D01*
X82900817Y-40426459D01*
X82960435Y-40216923D01*
X82980536Y-40000000D01*
X82960435Y-39783077D01*
X82900817Y-39573541D01*
X82803712Y-39378528D01*
X82672427Y-39204678D01*
X82548425Y-39091635D01*
X82512698Y-39033934D01*
X82512698Y-38966066D01*
X82548425Y-38908364D01*
X82672427Y-38795322D01*
X82803712Y-38621472D01*
X82900817Y-38426459D01*
X82960435Y-38216923D01*
X82980536Y-38000000D01*
X82960435Y-37783077D01*
X82900817Y-37573541D01*
X82803712Y-37378528D01*
X82672427Y-37204678D01*
X82548425Y-37091635D01*
X82512698Y-37033934D01*
X82512698Y-36966066D01*
X82548425Y-36908364D01*
X82672427Y-36795322D01*
X82803712Y-36621472D01*
X82900817Y-36426459D01*
X82960435Y-36216923D01*
X82980536Y-36000000D01*
X82960435Y-35783077D01*
X82900817Y-35573541D01*
X82803712Y-35378528D01*
X82672427Y-35204678D01*
X82668190Y-35200815D01*
X82668186Y-35200811D01*
X82548426Y-35091636D01*
X82512698Y-35033933D01*
X82512698Y-34966064D01*
X82548422Y-34908366D01*
X82672427Y-34795322D01*
X82803712Y-34621472D01*
X82900817Y-34426459D01*
X82960435Y-34216923D01*
X82980536Y-34000000D01*
X82960435Y-33783077D01*
X82900817Y-33573541D01*
X82803712Y-33378528D01*
X82672427Y-33204678D01*
X82548425Y-33091635D01*
X82512698Y-33033934D01*
X82512698Y-32966066D01*
X82548425Y-32908364D01*
X82672427Y-32795322D01*
X82803712Y-32621472D01*
X82900817Y-32426459D01*
X82960435Y-32216923D01*
X82980536Y-32000000D01*
X82960435Y-31783077D01*
X82900817Y-31573541D01*
X82803712Y-31378528D01*
X82672427Y-31204678D01*
X82548425Y-31091635D01*
X82512698Y-31033934D01*
X82512698Y-30966066D01*
X82548425Y-30908364D01*
X82672427Y-30795322D01*
X82803712Y-30621472D01*
X82900817Y-30426459D01*
X82960435Y-30216923D01*
X82980536Y-30000000D01*
X82960435Y-29783077D01*
X82900817Y-29573541D01*
X82803712Y-29378528D01*
X82800259Y-29373955D01*
X82800255Y-29373949D01*
X82713033Y-29258448D01*
X82688739Y-29197358D01*
X82699090Y-29132435D01*
X82741177Y-29081928D01*
X82803168Y-29060036D01*
X82867638Y-29072911D01*
X82885591Y-29081928D01*
X82935113Y-29106799D01*
X82935115Y-29106799D01*
X82941567Y-29110040D01*
X83112279Y-29150500D01*
X83240111Y-29150500D01*
X83243709Y-29150500D01*
X83374255Y-29135241D01*
X83539117Y-29075237D01*
X83685696Y-28978830D01*
X83806092Y-28851218D01*
X83893812Y-28699281D01*
X83944130Y-28531210D01*
X83954331Y-28356065D01*
X83923865Y-28183289D01*
X83854377Y-28022196D01*
X83749610Y-27881470D01*
X83677747Y-27821170D01*
X83620745Y-27773339D01*
X83620744Y-27773338D01*
X83615214Y-27768698D01*
X83522810Y-27722291D01*
X83464883Y-27693199D01*
X83464880Y-27693198D01*
X83458433Y-27689960D01*
X83451407Y-27688294D01*
X83451405Y-27688294D01*
X83294749Y-27651165D01*
X83294743Y-27651164D01*
X83287721Y-27649500D01*
X83156291Y-27649500D01*
X83152725Y-27649916D01*
X83152721Y-27649917D01*
X83032915Y-27663920D01*
X83032907Y-27663921D01*
X83025745Y-27664759D01*
X83018967Y-27667225D01*
X83018958Y-27667228D01*
X82867674Y-27722291D01*
X82867671Y-27722292D01*
X82860883Y-27724763D01*
X82854850Y-27728730D01*
X82854842Y-27728735D01*
X82720340Y-27817199D01*
X82720334Y-27817203D01*
X82714304Y-27821170D01*
X82709351Y-27826419D01*
X82709346Y-27826424D01*
X82598865Y-27943527D01*
X82598861Y-27943531D01*
X82593908Y-27948782D01*
X82590299Y-27955032D01*
X82590296Y-27955037D01*
X82509799Y-28094463D01*
X82509796Y-28094468D01*
X82506188Y-28100719D01*
X82504117Y-28107634D01*
X82504117Y-28107636D01*
X82457941Y-28261869D01*
X82457939Y-28261877D01*
X82455870Y-28268790D01*
X82455450Y-28275996D01*
X82455449Y-28276004D01*
X82446088Y-28436725D01*
X82446088Y-28436733D01*
X82445669Y-28443935D01*
X82476135Y-28616711D01*
X82545623Y-28777804D01*
X82549936Y-28783597D01*
X82549937Y-28783599D01*
X82572970Y-28814537D01*
X82597039Y-28877819D01*
X82584280Y-28944311D01*
X82538496Y-28994190D01*
X82473338Y-29012585D01*
X82408230Y-28994012D01*
X82331086Y-28946247D01*
X82331085Y-28946246D01*
X82326210Y-28943228D01*
X82320863Y-28941156D01*
X82320860Y-28941155D01*
X82158107Y-28878104D01*
X82123069Y-28864530D01*
X82117443Y-28863478D01*
X82117435Y-28863476D01*
X81914555Y-28825552D01*
X81914552Y-28825551D01*
X81908926Y-28824500D01*
X81691074Y-28824500D01*
X81685448Y-28825551D01*
X81685444Y-28825552D01*
X81482564Y-28863476D01*
X81482553Y-28863478D01*
X81476931Y-28864530D01*
X81471584Y-28866601D01*
X81471582Y-28866602D01*
X81279139Y-28941155D01*
X81279132Y-28941158D01*
X81273790Y-28943228D01*
X81268918Y-28946244D01*
X81268913Y-28946247D01*
X81093439Y-29054895D01*
X81093431Y-29054900D01*
X81088568Y-29057912D01*
X81084337Y-29061768D01*
X81084333Y-29061772D01*
X80931813Y-29200812D01*
X80931809Y-29200816D01*
X80927573Y-29204678D01*
X80924120Y-29209249D01*
X80924114Y-29209257D01*
X80898953Y-29242576D01*
X80855271Y-29278848D01*
X80800000Y-29291848D01*
X80744729Y-29278848D01*
X80701047Y-29242576D01*
X80675885Y-29209257D01*
X80675883Y-29209255D01*
X80672427Y-29204678D01*
X80511432Y-29057912D01*
X80506562Y-29054897D01*
X80506560Y-29054895D01*
X80331086Y-28946247D01*
X80331085Y-28946246D01*
X80326210Y-28943228D01*
X80320863Y-28941156D01*
X80320860Y-28941155D01*
X80158107Y-28878104D01*
X80123069Y-28864530D01*
X80117443Y-28863478D01*
X80117435Y-28863476D01*
X79914555Y-28825552D01*
X79914552Y-28825551D01*
X79908926Y-28824500D01*
X79691074Y-28824500D01*
X79685448Y-28825551D01*
X79685444Y-28825552D01*
X79482564Y-28863476D01*
X79482553Y-28863478D01*
X79476931Y-28864530D01*
X79471584Y-28866601D01*
X79471582Y-28866602D01*
X79279139Y-28941155D01*
X79279132Y-28941158D01*
X79273790Y-28943228D01*
X79268918Y-28946244D01*
X79268913Y-28946247D01*
X79093439Y-29054895D01*
X79093431Y-29054900D01*
X79088568Y-29057912D01*
X79084337Y-29061768D01*
X79084333Y-29061772D01*
X78931813Y-29200812D01*
X78931809Y-29200816D01*
X78927573Y-29204678D01*
X78924119Y-29209251D01*
X78924116Y-29209255D01*
X78799741Y-29373955D01*
X78799739Y-29373957D01*
X78796288Y-29378528D01*
X78793738Y-29383648D01*
X78793733Y-29383657D01*
X78701737Y-29568410D01*
X78701733Y-29568418D01*
X78699183Y-29573541D01*
X78639565Y-29783077D01*
X78619464Y-30000000D01*
X78639565Y-30216923D01*
X78699183Y-30426459D01*
X78701735Y-30431585D01*
X78701737Y-30431589D01*
X78793733Y-30616342D01*
X78793735Y-30616346D01*
X78796288Y-30621472D01*
X78927573Y-30795322D01*
X78931809Y-30799183D01*
X78931813Y-30799188D01*
X79051573Y-30908363D01*
X79087301Y-30966066D01*
X79087301Y-31033934D01*
X79051573Y-31091637D01*
X78931813Y-31200811D01*
X78931803Y-31200821D01*
X78927573Y-31204678D01*
X78924119Y-31209251D01*
X78924116Y-31209255D01*
X78861745Y-31291848D01*
X78796288Y-31378528D01*
X78793738Y-31383648D01*
X78793733Y-31383657D01*
X78701737Y-31568410D01*
X78701733Y-31568418D01*
X78699183Y-31573541D01*
X78639565Y-31783077D01*
X78619464Y-32000000D01*
X78639565Y-32216923D01*
X78699183Y-32426459D01*
X78701735Y-32431585D01*
X78701737Y-32431589D01*
X78793733Y-32616342D01*
X78793735Y-32616346D01*
X78796288Y-32621472D01*
X78927573Y-32795322D01*
X78931809Y-32799183D01*
X78931813Y-32799188D01*
X79051573Y-32908363D01*
X79087301Y-32966066D01*
X79087301Y-33033934D01*
X79051573Y-33091637D01*
X78931813Y-33200811D01*
X78931803Y-33200821D01*
X78927573Y-33204678D01*
X78924119Y-33209251D01*
X78924116Y-33209255D01*
X78861745Y-33291848D01*
X78796288Y-33378528D01*
X78793738Y-33383648D01*
X78793733Y-33383657D01*
X78701737Y-33568410D01*
X78701733Y-33568418D01*
X78699183Y-33573541D01*
X78639565Y-33783077D01*
X78619464Y-34000000D01*
X78639565Y-34216923D01*
X78699183Y-34426459D01*
X78701735Y-34431585D01*
X78701737Y-34431589D01*
X78793733Y-34616342D01*
X78793735Y-34616346D01*
X78796288Y-34621472D01*
X78927573Y-34795322D01*
X79051573Y-34908363D01*
X79087301Y-34966064D01*
X79087302Y-35033933D01*
X79051573Y-35091636D01*
X78927573Y-35204678D01*
X78924119Y-35209251D01*
X78924116Y-35209255D01*
X78861745Y-35291848D01*
X78796288Y-35378528D01*
X78793738Y-35383648D01*
X78793733Y-35383657D01*
X78701737Y-35568410D01*
X78701733Y-35568418D01*
X78699183Y-35573541D01*
X78639565Y-35783077D01*
X78619464Y-36000000D01*
X78639565Y-36216923D01*
X78699183Y-36426459D01*
X78701735Y-36431585D01*
X78701737Y-36431589D01*
X78793733Y-36616342D01*
X78793735Y-36616346D01*
X78796288Y-36621472D01*
X78927573Y-36795322D01*
X79051573Y-36908363D01*
X79087301Y-36966064D01*
X79087302Y-37033933D01*
X79051573Y-37091636D01*
X78927573Y-37204678D01*
X78924119Y-37209251D01*
X78924116Y-37209255D01*
X78861745Y-37291848D01*
X78796288Y-37378528D01*
X78793738Y-37383648D01*
X78793733Y-37383657D01*
X78701737Y-37568410D01*
X78701733Y-37568418D01*
X78699183Y-37573541D01*
X78639565Y-37783077D01*
X78619464Y-38000000D01*
X78639565Y-38216923D01*
X78699183Y-38426459D01*
X78701735Y-38431585D01*
X78701737Y-38431589D01*
X78793733Y-38616342D01*
X78793735Y-38616346D01*
X78796288Y-38621472D01*
X78927573Y-38795322D01*
X78931809Y-38799183D01*
X78931813Y-38799188D01*
X79051573Y-38908363D01*
X79087301Y-38966066D01*
X79087301Y-39033934D01*
X79051573Y-39091637D01*
X78931813Y-39200811D01*
X78931803Y-39200821D01*
X78927573Y-39204678D01*
X78924119Y-39209251D01*
X78924116Y-39209255D01*
X78861745Y-39291848D01*
X78796288Y-39378528D01*
X78793738Y-39383648D01*
X78793733Y-39383657D01*
X78701737Y-39568410D01*
X78701733Y-39568418D01*
X78699183Y-39573541D01*
X78639565Y-39783077D01*
X78619464Y-40000000D01*
X78639565Y-40216923D01*
X78699183Y-40426459D01*
X78701735Y-40431585D01*
X78701737Y-40431589D01*
X78793733Y-40616342D01*
X78793735Y-40616346D01*
X78796288Y-40621472D01*
X78927573Y-40795322D01*
X79051573Y-40908363D01*
X79087301Y-40966064D01*
X79087302Y-41033933D01*
X79051573Y-41091636D01*
X78927573Y-41204678D01*
X78924119Y-41209251D01*
X78924116Y-41209255D01*
X78853994Y-41302112D01*
X78796288Y-41378528D01*
X78793738Y-41383648D01*
X78793733Y-41383657D01*
X78701737Y-41568410D01*
X78701733Y-41568418D01*
X78699183Y-41573541D01*
X78639565Y-41783077D01*
X78639036Y-41788782D01*
X78639036Y-41788784D01*
X78622379Y-41968540D01*
X78619464Y-42000000D01*
X78619993Y-42005709D01*
X78635164Y-42169435D01*
X78639565Y-42216923D01*
X78699183Y-42426459D01*
X78701735Y-42431585D01*
X78701737Y-42431589D01*
X78793733Y-42616342D01*
X78793735Y-42616346D01*
X78796288Y-42621472D01*
X78927573Y-42795322D01*
X79051573Y-42908363D01*
X79087301Y-42966064D01*
X79087302Y-43033933D01*
X79051573Y-43091636D01*
X78927573Y-43204678D01*
X78924119Y-43209251D01*
X78924116Y-43209255D01*
X78861745Y-43291848D01*
X78796288Y-43378528D01*
X78793738Y-43383648D01*
X78793733Y-43383657D01*
X78701737Y-43568410D01*
X78701733Y-43568418D01*
X78699183Y-43573541D01*
X78639565Y-43783077D01*
X78639036Y-43788782D01*
X78639036Y-43788784D01*
X78630014Y-43886144D01*
X78619464Y-44000000D01*
X41180536Y-44000000D01*
X41160435Y-43783077D01*
X41100817Y-43573541D01*
X41003712Y-43378528D01*
X40872427Y-43204678D01*
X40748425Y-43091635D01*
X40712698Y-43033934D01*
X40712698Y-43025000D01*
X46115532Y-43025000D01*
X46116211Y-43031460D01*
X46134638Y-43206795D01*
X46134639Y-43206803D01*
X46135318Y-43213256D01*
X46137323Y-43219428D01*
X46137325Y-43219435D01*
X46189018Y-43378528D01*
X46193813Y-43393284D01*
X46288459Y-43557216D01*
X46415121Y-43697888D01*
X46568262Y-43809151D01*
X46741189Y-43886144D01*
X46926346Y-43925500D01*
X47109135Y-43925500D01*
X47115638Y-43925500D01*
X47300795Y-43886144D01*
X47473722Y-43809151D01*
X47626863Y-43697888D01*
X47753525Y-43557216D01*
X47848171Y-43393284D01*
X47906666Y-43213256D01*
X47926452Y-43025000D01*
X71873548Y-43025000D01*
X71874227Y-43031460D01*
X71892654Y-43206795D01*
X71892655Y-43206803D01*
X71893334Y-43213256D01*
X71895339Y-43219428D01*
X71895341Y-43219435D01*
X71947034Y-43378528D01*
X71951829Y-43393284D01*
X72046475Y-43557216D01*
X72173137Y-43697888D01*
X72326278Y-43809151D01*
X72499205Y-43886144D01*
X72684362Y-43925500D01*
X72867151Y-43925500D01*
X72873654Y-43925500D01*
X73058811Y-43886144D01*
X73231738Y-43809151D01*
X73384879Y-43697888D01*
X73511541Y-43557216D01*
X73606187Y-43393284D01*
X73664682Y-43213256D01*
X73684468Y-43025000D01*
X73664682Y-42836744D01*
X73606187Y-42656716D01*
X73551500Y-42561996D01*
X73534889Y-42500000D01*
X73551500Y-42438003D01*
X73606187Y-42343284D01*
X73664682Y-42163256D01*
X73684468Y-41975000D01*
X73664682Y-41786744D01*
X73606187Y-41606716D01*
X73511541Y-41442784D01*
X73453684Y-41378528D01*
X73389228Y-41306942D01*
X73389227Y-41306941D01*
X73384879Y-41302112D01*
X73379621Y-41298292D01*
X73379619Y-41298290D01*
X73236996Y-41194669D01*
X73236995Y-41194668D01*
X73231738Y-41190849D01*
X73225800Y-41188205D01*
X73064753Y-41116501D01*
X73064748Y-41116499D01*
X73058811Y-41113856D01*
X73052452Y-41112504D01*
X73052448Y-41112503D01*
X72880016Y-41075852D01*
X72880013Y-41075851D01*
X72873654Y-41074500D01*
X72684362Y-41074500D01*
X72678003Y-41075851D01*
X72677999Y-41075852D01*
X72505567Y-41112503D01*
X72505560Y-41112505D01*
X72499205Y-41113856D01*
X72493270Y-41116498D01*
X72493262Y-41116501D01*
X72332215Y-41188205D01*
X72332210Y-41188207D01*
X72326278Y-41190849D01*
X72321024Y-41194665D01*
X72321019Y-41194669D01*
X72178396Y-41298290D01*
X72178389Y-41298295D01*
X72173137Y-41302112D01*
X72168792Y-41306937D01*
X72168787Y-41306942D01*
X72050821Y-41437956D01*
X72050816Y-41437962D01*
X72046475Y-41442784D01*
X72043230Y-41448404D01*
X72043226Y-41448410D01*
X71955077Y-41601089D01*
X71955074Y-41601094D01*
X71951829Y-41606716D01*
X71949823Y-41612888D01*
X71949821Y-41612894D01*
X71895341Y-41780564D01*
X71895339Y-41780573D01*
X71893334Y-41786744D01*
X71892656Y-41793194D01*
X71892654Y-41793204D01*
X71874970Y-41961464D01*
X71873548Y-41975000D01*
X71874227Y-41981460D01*
X71892654Y-42156795D01*
X71892655Y-42156803D01*
X71893334Y-42163256D01*
X71895339Y-42169428D01*
X71895341Y-42169435D01*
X71949819Y-42337100D01*
X71949821Y-42337105D01*
X71951829Y-42343284D01*
X72006514Y-42438003D01*
X72023126Y-42500000D01*
X72006514Y-42561996D01*
X71951829Y-42656716D01*
X71949822Y-42662890D01*
X71949819Y-42662899D01*
X71895341Y-42830564D01*
X71895339Y-42830573D01*
X71893334Y-42836744D01*
X71892656Y-42843194D01*
X71892654Y-42843204D01*
X71874970Y-43011464D01*
X71873548Y-43025000D01*
X47926452Y-43025000D01*
X47906666Y-42836744D01*
X47848171Y-42656716D01*
X47793484Y-42561996D01*
X47776873Y-42500000D01*
X47793484Y-42438003D01*
X47848171Y-42343284D01*
X47906666Y-42163256D01*
X47926452Y-41975000D01*
X47906666Y-41786744D01*
X47848171Y-41606716D01*
X47753525Y-41442784D01*
X47695668Y-41378528D01*
X47631212Y-41306942D01*
X47631211Y-41306941D01*
X47626863Y-41302112D01*
X47621605Y-41298292D01*
X47621603Y-41298290D01*
X47478980Y-41194669D01*
X47478979Y-41194668D01*
X47473722Y-41190849D01*
X47467784Y-41188205D01*
X47306737Y-41116501D01*
X47306732Y-41116499D01*
X47300795Y-41113856D01*
X47294436Y-41112504D01*
X47294432Y-41112503D01*
X47122000Y-41075852D01*
X47121997Y-41075851D01*
X47115638Y-41074500D01*
X46926346Y-41074500D01*
X46919987Y-41075851D01*
X46919983Y-41075852D01*
X46747551Y-41112503D01*
X46747544Y-41112505D01*
X46741189Y-41113856D01*
X46735254Y-41116498D01*
X46735246Y-41116501D01*
X46574199Y-41188205D01*
X46574194Y-41188207D01*
X46568262Y-41190849D01*
X46563008Y-41194665D01*
X46563003Y-41194669D01*
X46420380Y-41298290D01*
X46420373Y-41298295D01*
X46415121Y-41302112D01*
X46410776Y-41306937D01*
X46410771Y-41306942D01*
X46292805Y-41437956D01*
X46292800Y-41437962D01*
X46288459Y-41442784D01*
X46285214Y-41448404D01*
X46285210Y-41448410D01*
X46197061Y-41601089D01*
X46197058Y-41601094D01*
X46193813Y-41606716D01*
X46191807Y-41612888D01*
X46191805Y-41612894D01*
X46137325Y-41780564D01*
X46137323Y-41780573D01*
X46135318Y-41786744D01*
X46134640Y-41793194D01*
X46134638Y-41793204D01*
X46116954Y-41961464D01*
X46115532Y-41975000D01*
X46116211Y-41981460D01*
X46134638Y-42156795D01*
X46134639Y-42156803D01*
X46135318Y-42163256D01*
X46137323Y-42169428D01*
X46137325Y-42169435D01*
X46191803Y-42337100D01*
X46191805Y-42337105D01*
X46193813Y-42343284D01*
X46248498Y-42438003D01*
X46265110Y-42500000D01*
X46248498Y-42561996D01*
X46193813Y-42656716D01*
X46191806Y-42662890D01*
X46191803Y-42662899D01*
X46137325Y-42830564D01*
X46137323Y-42830573D01*
X46135318Y-42836744D01*
X46134640Y-42843194D01*
X46134638Y-42843204D01*
X46116954Y-43011464D01*
X46115532Y-43025000D01*
X40712698Y-43025000D01*
X40712698Y-42966066D01*
X40748425Y-42908364D01*
X40872427Y-42795322D01*
X41003712Y-42621472D01*
X41100817Y-42426459D01*
X41160435Y-42216923D01*
X41180536Y-42000000D01*
X41160435Y-41783077D01*
X41100817Y-41573541D01*
X41003712Y-41378528D01*
X40872427Y-41204678D01*
X40868190Y-41200815D01*
X40868186Y-41200811D01*
X40748426Y-41091636D01*
X40712698Y-41033933D01*
X40712698Y-40966064D01*
X40748422Y-40908366D01*
X40872427Y-40795322D01*
X41003712Y-40621472D01*
X41100817Y-40426459D01*
X41160435Y-40216923D01*
X41180536Y-40000000D01*
X41160435Y-39783077D01*
X41100817Y-39573541D01*
X41003712Y-39378528D01*
X40872427Y-39204678D01*
X40748425Y-39091635D01*
X40712698Y-39033934D01*
X40712698Y-38966066D01*
X40748425Y-38908364D01*
X40872427Y-38795322D01*
X41003712Y-38621472D01*
X41100817Y-38426459D01*
X41160435Y-38216923D01*
X41180536Y-38000000D01*
X41160435Y-37783077D01*
X41100817Y-37573541D01*
X41003712Y-37378528D01*
X40872427Y-37204678D01*
X40748425Y-37091635D01*
X40712698Y-37033934D01*
X40712698Y-36966066D01*
X40748425Y-36908364D01*
X40872427Y-36795322D01*
X41003712Y-36621472D01*
X41100817Y-36426459D01*
X41160435Y-36216923D01*
X41180536Y-36000000D01*
X41160435Y-35783077D01*
X41100817Y-35573541D01*
X41003712Y-35378528D01*
X40872427Y-35204678D01*
X40868190Y-35200815D01*
X40868186Y-35200811D01*
X40748426Y-35091636D01*
X40712698Y-35033933D01*
X40712698Y-34966064D01*
X40748422Y-34908366D01*
X40872427Y-34795322D01*
X41003712Y-34621472D01*
X41100817Y-34426459D01*
X41160435Y-34216923D01*
X41180536Y-34000000D01*
X41160435Y-33783077D01*
X41100817Y-33573541D01*
X41003712Y-33378528D01*
X40872427Y-33204678D01*
X40748425Y-33091635D01*
X40712698Y-33033934D01*
X40712698Y-32966066D01*
X40748425Y-32908364D01*
X40872427Y-32795322D01*
X41003712Y-32621472D01*
X41100817Y-32426459D01*
X41160435Y-32216923D01*
X41180536Y-32000000D01*
X41160435Y-31783077D01*
X41100817Y-31573541D01*
X41003712Y-31378528D01*
X41000259Y-31373955D01*
X41000255Y-31373949D01*
X40922252Y-31270656D01*
X40898125Y-31210995D01*
X40907150Y-31147277D01*
X40946894Y-31096664D01*
X41032546Y-31032546D01*
X41118796Y-30917331D01*
X41169091Y-30782483D01*
X41175500Y-30722873D01*
X41175499Y-29277128D01*
X41169091Y-29217517D01*
X41118796Y-29082669D01*
X41032546Y-28967454D01*
X40917331Y-28881204D01*
X40782483Y-28830909D01*
X40774770Y-28830079D01*
X40774767Y-28830079D01*
X40726180Y-28824855D01*
X40726169Y-28824854D01*
X40722873Y-28824500D01*
X40719550Y-28824500D01*
X39280439Y-28824500D01*
X39280420Y-28824500D01*
X39277128Y-28824501D01*
X39273850Y-28824853D01*
X39273838Y-28824854D01*
X39225231Y-28830079D01*
X39225225Y-28830080D01*
X39217517Y-28830909D01*
X39210252Y-28833618D01*
X39210246Y-28833620D01*
X39090980Y-28878104D01*
X39090978Y-28878104D01*
X39082669Y-28881204D01*
X39075572Y-28886516D01*
X39075568Y-28886519D01*
X38974550Y-28962141D01*
X38974546Y-28962144D01*
X38967454Y-28967454D01*
X38962144Y-28974546D01*
X38962137Y-28974554D01*
X38905214Y-29050594D01*
X38851064Y-29091784D01*
X38783332Y-29098203D01*
X38722409Y-29067919D01*
X38711432Y-29057912D01*
X38706562Y-29054897D01*
X38706560Y-29054895D01*
X38531086Y-28946247D01*
X38531085Y-28946246D01*
X38526210Y-28943228D01*
X38520863Y-28941156D01*
X38520860Y-28941155D01*
X38358107Y-28878104D01*
X38323069Y-28864530D01*
X38317443Y-28863478D01*
X38317435Y-28863476D01*
X38114555Y-28825552D01*
X38114552Y-28825551D01*
X38108926Y-28824500D01*
X37891074Y-28824500D01*
X37885448Y-28825551D01*
X37885444Y-28825552D01*
X37682564Y-28863476D01*
X37682553Y-28863478D01*
X37676931Y-28864530D01*
X37671584Y-28866601D01*
X37671582Y-28866602D01*
X37479139Y-28941155D01*
X37479132Y-28941158D01*
X37473790Y-28943228D01*
X37468914Y-28946246D01*
X37468916Y-28946246D01*
X37393648Y-28992849D01*
X37331426Y-29011383D01*
X37268366Y-28995935D01*
X37221757Y-28950739D01*
X37204374Y-28888185D01*
X37220984Y-28825423D01*
X37293812Y-28699281D01*
X37344130Y-28531210D01*
X37354331Y-28356065D01*
X37323865Y-28183289D01*
X37254377Y-28022196D01*
X37149610Y-27881470D01*
X37077747Y-27821170D01*
X37020745Y-27773339D01*
X37020744Y-27773338D01*
X37015214Y-27768698D01*
X36922810Y-27722291D01*
X36864883Y-27693199D01*
X36864880Y-27693198D01*
X36858433Y-27689960D01*
X36851407Y-27688294D01*
X36851405Y-27688294D01*
X36694749Y-27651165D01*
X36694743Y-27651164D01*
X36687721Y-27649500D01*
X36556291Y-27649500D01*
X36552725Y-27649916D01*
X36552721Y-27649917D01*
X36432915Y-27663920D01*
X36432907Y-27663921D01*
X36425745Y-27664759D01*
X36418967Y-27667225D01*
X36418958Y-27667228D01*
X36267674Y-27722291D01*
X36267671Y-27722292D01*
X36260883Y-27724763D01*
X36254850Y-27728730D01*
X36254842Y-27728735D01*
X36120340Y-27817199D01*
X36120334Y-27817203D01*
X36114304Y-27821170D01*
X36109351Y-27826419D01*
X36109346Y-27826424D01*
X35998865Y-27943527D01*
X35998861Y-27943531D01*
X35993908Y-27948782D01*
X35990299Y-27955032D01*
X35990296Y-27955037D01*
X35909799Y-28094463D01*
X35909796Y-28094468D01*
X35906188Y-28100719D01*
X35904117Y-28107634D01*
X35904117Y-28107636D01*
X35857941Y-28261869D01*
X35857939Y-28261877D01*
X35855870Y-28268790D01*
X35855450Y-28275996D01*
X35855449Y-28276004D01*
X35846088Y-28436725D01*
X35846088Y-28436733D01*
X35845669Y-28443935D01*
X35876135Y-28616711D01*
X35945623Y-28777804D01*
X35949936Y-28783597D01*
X35949937Y-28783599D01*
X35995620Y-28844962D01*
X36050390Y-28918530D01*
X36184786Y-29031302D01*
X36341567Y-29110040D01*
X36512279Y-29150500D01*
X36640111Y-29150500D01*
X36643709Y-29150500D01*
X36774255Y-29135241D01*
X36939117Y-29075237D01*
X36940097Y-29077929D01*
X36990898Y-29067727D01*
X37052934Y-29089576D01*
X37095070Y-29140079D01*
X37105449Y-29205027D01*
X37081153Y-29266147D01*
X36999740Y-29373956D01*
X36999737Y-29373960D01*
X36996288Y-29378528D01*
X36993738Y-29383648D01*
X36993733Y-29383657D01*
X36901737Y-29568410D01*
X36901733Y-29568418D01*
X36899183Y-29573541D01*
X36839565Y-29783077D01*
X36819464Y-30000000D01*
X36839565Y-30216923D01*
X36899183Y-30426459D01*
X36901735Y-30431585D01*
X36901737Y-30431589D01*
X36993733Y-30616342D01*
X36993735Y-30616346D01*
X36996288Y-30621472D01*
X37127573Y-30795322D01*
X37131809Y-30799183D01*
X37131813Y-30799188D01*
X37251573Y-30908363D01*
X37287301Y-30966066D01*
X37287301Y-31033934D01*
X37251573Y-31091637D01*
X37131813Y-31200811D01*
X37131803Y-31200821D01*
X37127573Y-31204678D01*
X37124119Y-31209251D01*
X37124116Y-31209255D01*
X37061745Y-31291848D01*
X36996288Y-31378528D01*
X36993738Y-31383648D01*
X36993733Y-31383657D01*
X36901737Y-31568410D01*
X36901733Y-31568418D01*
X36899183Y-31573541D01*
X36839565Y-31783077D01*
X36819464Y-32000000D01*
X36839565Y-32216923D01*
X36899183Y-32426459D01*
X36901735Y-32431585D01*
X36901737Y-32431589D01*
X36993733Y-32616342D01*
X36993735Y-32616346D01*
X36996288Y-32621472D01*
X37127573Y-32795322D01*
X37131809Y-32799183D01*
X37131813Y-32799188D01*
X37251573Y-32908363D01*
X37287301Y-32966066D01*
X37287301Y-33033934D01*
X37251573Y-33091637D01*
X37131813Y-33200811D01*
X37131803Y-33200821D01*
X37127573Y-33204678D01*
X37124119Y-33209251D01*
X37124116Y-33209255D01*
X37061745Y-33291848D01*
X36996288Y-33378528D01*
X36993738Y-33383648D01*
X36993733Y-33383657D01*
X36901737Y-33568410D01*
X36901733Y-33568418D01*
X36899183Y-33573541D01*
X36839565Y-33783077D01*
X36819464Y-34000000D01*
X36839565Y-34216923D01*
X36899183Y-34426459D01*
X36901735Y-34431585D01*
X36901737Y-34431589D01*
X36993733Y-34616342D01*
X36993735Y-34616346D01*
X36996288Y-34621472D01*
X37127573Y-34795322D01*
X37251573Y-34908363D01*
X37287301Y-34966064D01*
X37287302Y-35033933D01*
X37251573Y-35091636D01*
X37127573Y-35204678D01*
X37124119Y-35209251D01*
X37124116Y-35209255D01*
X37061745Y-35291848D01*
X36996288Y-35378528D01*
X36993738Y-35383648D01*
X36993733Y-35383657D01*
X36901737Y-35568410D01*
X36901733Y-35568418D01*
X36899183Y-35573541D01*
X36839565Y-35783077D01*
X36819464Y-36000000D01*
X36839565Y-36216923D01*
X36899183Y-36426459D01*
X36901735Y-36431585D01*
X36901737Y-36431589D01*
X36993733Y-36616342D01*
X36993735Y-36616346D01*
X36996288Y-36621472D01*
X37127573Y-36795322D01*
X37251573Y-36908363D01*
X37287301Y-36966064D01*
X37287302Y-37033933D01*
X37251573Y-37091636D01*
X37127573Y-37204678D01*
X37124119Y-37209251D01*
X37124116Y-37209255D01*
X37061745Y-37291848D01*
X36996288Y-37378528D01*
X36993738Y-37383648D01*
X36993733Y-37383657D01*
X36901737Y-37568410D01*
X36901733Y-37568418D01*
X36899183Y-37573541D01*
X36839565Y-37783077D01*
X36819464Y-38000000D01*
X36839565Y-38216923D01*
X36899183Y-38426459D01*
X36901735Y-38431585D01*
X36901737Y-38431589D01*
X36993733Y-38616342D01*
X36993735Y-38616346D01*
X36996288Y-38621472D01*
X37127573Y-38795322D01*
X37131809Y-38799183D01*
X37131813Y-38799188D01*
X37251573Y-38908363D01*
X37287301Y-38966066D01*
X37287301Y-39033934D01*
X37251573Y-39091637D01*
X37131813Y-39200811D01*
X37131803Y-39200821D01*
X37127573Y-39204678D01*
X37124119Y-39209251D01*
X37124116Y-39209255D01*
X37061745Y-39291848D01*
X36996288Y-39378528D01*
X36993738Y-39383648D01*
X36993733Y-39383657D01*
X36901737Y-39568410D01*
X36901733Y-39568418D01*
X36899183Y-39573541D01*
X36839565Y-39783077D01*
X36819464Y-40000000D01*
X36839565Y-40216923D01*
X36899183Y-40426459D01*
X36901735Y-40431585D01*
X36901737Y-40431589D01*
X36993733Y-40616342D01*
X36993735Y-40616346D01*
X36996288Y-40621472D01*
X37127573Y-40795322D01*
X37251573Y-40908363D01*
X37287301Y-40966064D01*
X37287302Y-41033933D01*
X37251573Y-41091636D01*
X37127573Y-41204678D01*
X37124119Y-41209251D01*
X37124116Y-41209255D01*
X37053994Y-41302112D01*
X36996288Y-41378528D01*
X36993738Y-41383648D01*
X36993733Y-41383657D01*
X36901737Y-41568410D01*
X36901733Y-41568418D01*
X36899183Y-41573541D01*
X36839565Y-41783077D01*
X36839036Y-41788782D01*
X36839036Y-41788784D01*
X36822379Y-41968540D01*
X36819464Y-42000000D01*
X36819993Y-42005709D01*
X36835164Y-42169435D01*
X36839565Y-42216923D01*
X36899183Y-42426459D01*
X36901735Y-42431585D01*
X36901737Y-42431589D01*
X36993733Y-42616342D01*
X36993735Y-42616346D01*
X36996288Y-42621472D01*
X37127573Y-42795322D01*
X37251573Y-42908363D01*
X37287301Y-42966064D01*
X37287302Y-43033933D01*
X37251573Y-43091636D01*
X37127573Y-43204678D01*
X37124119Y-43209251D01*
X37124116Y-43209255D01*
X37061745Y-43291848D01*
X36996288Y-43378528D01*
X36993738Y-43383648D01*
X36993733Y-43383657D01*
X36901737Y-43568410D01*
X36901733Y-43568418D01*
X36899183Y-43573541D01*
X36839565Y-43783077D01*
X36839036Y-43788782D01*
X36839036Y-43788784D01*
X36830014Y-43886144D01*
X36819464Y-44000000D01*
X36839565Y-44216923D01*
X36899183Y-44426459D01*
X36901735Y-44431585D01*
X36901737Y-44431589D01*
X36993733Y-44616342D01*
X36993735Y-44616346D01*
X36996288Y-44621472D01*
X37127573Y-44795322D01*
X37131809Y-44799183D01*
X37131813Y-44799188D01*
X37251573Y-44908363D01*
X37287301Y-44966066D01*
X37287301Y-45033934D01*
X37251573Y-45091637D01*
X37131813Y-45200811D01*
X37131803Y-45200821D01*
X37127573Y-45204678D01*
X37124119Y-45209251D01*
X37124116Y-45209255D01*
X36999741Y-45373955D01*
X36996288Y-45378528D01*
X36993738Y-45383648D01*
X36993733Y-45383657D01*
X36901737Y-45568410D01*
X36901733Y-45568418D01*
X36899183Y-45573541D01*
X36839565Y-45783077D01*
X36819464Y-46000000D01*
X36839565Y-46216923D01*
X36899183Y-46426459D01*
X36901735Y-46431585D01*
X36901737Y-46431589D01*
X36993733Y-46616342D01*
X36993735Y-46616346D01*
X36996288Y-46621472D01*
X37127573Y-46795322D01*
X37131809Y-46799183D01*
X37131813Y-46799188D01*
X37251573Y-46908363D01*
X37287301Y-46966066D01*
X37287301Y-47033934D01*
X37251573Y-47091637D01*
X37131813Y-47200811D01*
X37131803Y-47200821D01*
X37127573Y-47204678D01*
X37124119Y-47209251D01*
X37124116Y-47209255D01*
X37061745Y-47291848D01*
X36996288Y-47378528D01*
X36993738Y-47383648D01*
X36993733Y-47383657D01*
X36901737Y-47568410D01*
X36901733Y-47568418D01*
X36899183Y-47573541D01*
X36839565Y-47783077D01*
X36819464Y-48000000D01*
X36839565Y-48216923D01*
X36899183Y-48426459D01*
X36901735Y-48431585D01*
X36901737Y-48431589D01*
X36993733Y-48616342D01*
X36993735Y-48616346D01*
X36996288Y-48621472D01*
X36999738Y-48626041D01*
X36999744Y-48626050D01*
X37086966Y-48741551D01*
X37111260Y-48802641D01*
X37100909Y-48867564D01*
X37058822Y-48918071D01*
X36996831Y-48939963D01*
X36932361Y-48927087D01*
X36864890Y-48893202D01*
X36864884Y-48893199D01*
X36858433Y-48889960D01*
X36851407Y-48888294D01*
X36851405Y-48888294D01*
X36694749Y-48851165D01*
X36694743Y-48851164D01*
X36687721Y-48849500D01*
X36556291Y-48849500D01*
X36552725Y-48849916D01*
X36552721Y-48849917D01*
X36432915Y-48863920D01*
X36432907Y-48863921D01*
X36425745Y-48864759D01*
X36418967Y-48867225D01*
X36418958Y-48867228D01*
X36267674Y-48922291D01*
X36267671Y-48922292D01*
X36260883Y-48924763D01*
X36254850Y-48928730D01*
X36254842Y-48928735D01*
X36120340Y-49017199D01*
X36120334Y-49017203D01*
X36114304Y-49021170D01*
X36109351Y-49026419D01*
X36109346Y-49026424D01*
X35998865Y-49143527D01*
X35998861Y-49143531D01*
X35993908Y-49148782D01*
X35990299Y-49155032D01*
X35990296Y-49155037D01*
X35909799Y-49294463D01*
X35909798Y-49294466D01*
X35906188Y-49300719D01*
X35904117Y-49307634D01*
X35904117Y-49307636D01*
X35857941Y-49461869D01*
X35857939Y-49461877D01*
X35855870Y-49468790D01*
X35855450Y-49475996D01*
X35855449Y-49476004D01*
X35846088Y-49636725D01*
X35846088Y-49636733D01*
X35845669Y-49643935D01*
X27500500Y-49643935D01*
X27500500Y-27606092D01*
X27501097Y-27593939D01*
X27509805Y-27505519D01*
X27514665Y-27456173D01*
X27519403Y-27432349D01*
X27557816Y-27305719D01*
X27567113Y-27283278D01*
X27629485Y-27166587D01*
X27642982Y-27146387D01*
X27726924Y-27044103D01*
X27744103Y-27026924D01*
X27846387Y-26942982D01*
X27866587Y-26929485D01*
X27983278Y-26867113D01*
X28005719Y-26857816D01*
X28132349Y-26819403D01*
X28156173Y-26814665D01*
X28285170Y-26801960D01*
X28293939Y-26801097D01*
X28306092Y-26800500D01*
X28339882Y-26800500D01*
X91460118Y-26800500D01*
X91493908Y-26800500D01*
X91506061Y-26801097D01*
G37*
%TD.AperFunction*%
M02*
