%TF.GenerationSoftware,KiCad,Pcbnew,(7.0.0)*%
%TF.CreationDate,2023-03-14T17:44:31+00:00*%
%TF.ProjectId,main,6d61696e-2e6b-4696-9361-645f70636258,1.0*%
%TF.SameCoordinates,Original*%
%TF.FileFunction,Copper,L3,Inr*%
%TF.FilePolarity,Positive*%
%FSLAX46Y46*%
G04 Gerber Fmt 4.6, Leading zero omitted, Abs format (unit mm)*
G04 Created by KiCad (PCBNEW (7.0.0)) date 2023-03-14 17:44:31*
%MOMM*%
%LPD*%
G01*
G04 APERTURE LIST*
%TA.AperFunction,ComponentPad*%
%ADD10R,1.350000X1.350000*%
%TD*%
%TA.AperFunction,ComponentPad*%
%ADD11O,1.350000X1.350000*%
%TD*%
%TA.AperFunction,ComponentPad*%
%ADD12R,1.700000X1.700000*%
%TD*%
%TA.AperFunction,ComponentPad*%
%ADD13O,1.700000X1.700000*%
%TD*%
%TA.AperFunction,ViaPad*%
%ADD14C,0.800000*%
%TD*%
G04 APERTURE END LIST*
D10*
X71299999Y-47999999D03*
D11*
X71299999Y-45999999D03*
X71299999Y-43999999D03*
X71299999Y-41999999D03*
X71299999Y-39999999D03*
X71299999Y-37999999D03*
X71299999Y-35999999D03*
X71299999Y-33999999D03*
X71299999Y-31999999D03*
X71299999Y-29999999D03*
X73299999Y-47999999D03*
X73299999Y-45999999D03*
X73299999Y-43999999D03*
X73299999Y-41999999D03*
X73299999Y-39999999D03*
X73299999Y-37999999D03*
X73299999Y-35999999D03*
X73299999Y-33999999D03*
X73299999Y-31999999D03*
X73299999Y-29999999D03*
X37999999Y-47999999D03*
X37999999Y-45999999D03*
X37999999Y-43999999D03*
X37999999Y-41999999D03*
X37999999Y-39999999D03*
X37999999Y-37999999D03*
X37999999Y-35999999D03*
X37999999Y-33999999D03*
X37999999Y-31999999D03*
X37999999Y-29999999D03*
X39999999Y-47999999D03*
X39999999Y-45999999D03*
X39999999Y-43999999D03*
X39999999Y-41999999D03*
X39999999Y-39999999D03*
X39999999Y-37999999D03*
X39999999Y-35999999D03*
X39999999Y-33999999D03*
X39999999Y-31999999D03*
D10*
X39999999Y-29999999D03*
D12*
X76059999Y-62019999D03*
D13*
X78599999Y-62019999D03*
X76059999Y-64559999D03*
X78599999Y-64559999D03*
X76059999Y-67099999D03*
X78599999Y-67099999D03*
D14*
X36000000Y-55000000D03*
X44000000Y-29000000D03*
X32900000Y-67700000D03*
X32900000Y-69000000D03*
X45000000Y-58200000D03*
X54300000Y-52400000D03*
X43900000Y-69600000D03*
X45000000Y-62600000D03*
X46300000Y-58200000D03*
X45000000Y-63700000D03*
X46300000Y-63700000D03*
X64000000Y-53600000D03*
X46300000Y-62600000D03*
X43700000Y-63700000D03*
X50800000Y-68500000D03*
X67600000Y-59500000D03*
X51400000Y-67700000D03*
X52200000Y-59500000D03*
X60600000Y-64000000D03*
X50800000Y-69700000D03*
X60200000Y-58500000D03*
X49300000Y-54900000D03*
X66200000Y-51100000D03*
X64000000Y-57700000D03*
X74300000Y-56600000D03*
X60500000Y-66900000D03*
X47020992Y-43025000D03*
X64279008Y-43025000D03*
X64279008Y-41975000D03*
X47020992Y-41975000D03*
X49800000Y-68500000D03*
X48200000Y-49700000D03*
X36400000Y-68700000D03*
X81000000Y-29000000D03*
X81000000Y-39000000D03*
X56000000Y-62300000D03*
X42400000Y-67700000D03*
X55500000Y-64600000D03*
X81000000Y-34000000D03*
X40750000Y-65875500D03*
X30500000Y-66400000D03*
X69000000Y-46000000D03*
X81000000Y-70000000D03*
X81000000Y-59000000D03*
X30000000Y-29000000D03*
X44800000Y-68200000D03*
X59000000Y-46000000D03*
X30500000Y-69000000D03*
X69500000Y-70000000D03*
X81000000Y-44000000D03*
X49500000Y-66400000D03*
X51900000Y-62300000D03*
X37400000Y-63100000D03*
X60600000Y-65599503D03*
X59800000Y-69799500D03*
X30000000Y-44000000D03*
X55000000Y-70000000D03*
X69300000Y-56300000D03*
X44000000Y-46000000D03*
X57400000Y-54200000D03*
X30000000Y-39000000D03*
X30500000Y-67700000D03*
X31700000Y-69900000D03*
X51000000Y-63900000D03*
X50000000Y-58900000D03*
X30000000Y-34200000D03*
X37400000Y-68700000D03*
X81000000Y-54000000D03*
X81000000Y-49000000D03*
X44825000Y-67200000D03*
X60900000Y-51800000D03*
X49800000Y-69700000D03*
X54500000Y-69200000D03*
X47000000Y-55000000D03*
X49500000Y-67500000D03*
X36400000Y-63100000D03*
X69000000Y-29000000D03*
X68800000Y-65800000D03*
X68800000Y-64300000D03*
X41700000Y-69600000D03*
X38900000Y-66124500D03*
%TA.AperFunction,Conductor*%
G36*
X83006061Y-26801097D02*
G01*
X83016051Y-26802080D01*
X83143824Y-26814665D01*
X83167652Y-26819404D01*
X83294277Y-26857815D01*
X83316725Y-26867114D01*
X83433406Y-26929482D01*
X83453616Y-26942986D01*
X83555891Y-27026920D01*
X83573079Y-27044108D01*
X83657012Y-27146381D01*
X83670517Y-27166593D01*
X83732883Y-27283271D01*
X83742186Y-27305728D01*
X83780593Y-27432338D01*
X83785335Y-27456180D01*
X83798903Y-27593938D01*
X83799500Y-27606092D01*
X83799500Y-48470500D01*
X83782887Y-48532500D01*
X83737500Y-48577887D01*
X83675500Y-48594500D01*
X82004152Y-48594500D01*
X82000666Y-48594897D01*
X82000651Y-48594898D01*
X81893932Y-48607057D01*
X81893914Y-48607060D01*
X81890439Y-48607456D01*
X81887029Y-48608243D01*
X81887013Y-48608246D01*
X81839502Y-48619215D01*
X81839489Y-48619218D01*
X81836079Y-48620006D01*
X81832778Y-48621174D01*
X81832764Y-48621179D01*
X81734824Y-48655863D01*
X81734821Y-48655864D01*
X81728189Y-48658213D01*
X81722255Y-48661993D01*
X81722254Y-48661994D01*
X81634626Y-48717821D01*
X81634609Y-48717832D01*
X81631660Y-48719712D01*
X81628928Y-48721923D01*
X81628923Y-48721928D01*
X81591034Y-48752611D01*
X81591022Y-48752621D01*
X81588304Y-48754823D01*
X81585856Y-48757314D01*
X81585843Y-48757326D01*
X81513017Y-48831438D01*
X81513013Y-48831442D01*
X81508086Y-48836457D01*
X81504413Y-48842450D01*
X81504410Y-48842455D01*
X81450126Y-48931046D01*
X81450121Y-48931055D01*
X81448290Y-48934044D01*
X81446807Y-48937223D01*
X81446804Y-48937230D01*
X81433103Y-48966614D01*
X81433101Y-48966619D01*
X81429121Y-48975156D01*
X81430207Y-48975662D01*
X81426947Y-48985851D01*
X81404915Y-49032047D01*
X81403663Y-49035899D01*
X81403661Y-49035905D01*
X81366864Y-49149152D01*
X81356321Y-49172831D01*
X81327837Y-49222168D01*
X81312599Y-49243141D01*
X81274488Y-49285468D01*
X81255221Y-49302816D01*
X81209124Y-49336306D01*
X81186677Y-49349265D01*
X81134639Y-49372434D01*
X81109986Y-49380445D01*
X81072790Y-49388352D01*
X81054263Y-49392290D01*
X81028482Y-49395000D01*
X80971518Y-49395000D01*
X80945736Y-49392290D01*
X80890012Y-49380445D01*
X80865358Y-49372434D01*
X80813321Y-49349265D01*
X80790874Y-49336306D01*
X80744777Y-49302816D01*
X80725514Y-49285472D01*
X80687397Y-49243139D01*
X80672161Y-49222167D01*
X80643677Y-49172829D01*
X80633134Y-49149149D01*
X80602137Y-49053752D01*
X80595085Y-49032047D01*
X80573057Y-48985859D01*
X80569796Y-48975671D01*
X80570883Y-48975165D01*
X80551715Y-48934053D01*
X80491917Y-48836461D01*
X80411696Y-48754823D01*
X80368340Y-48719712D01*
X80365381Y-48717827D01*
X80365373Y-48717821D01*
X80283184Y-48665459D01*
X80271811Y-48658213D01*
X80258443Y-48653479D01*
X80167235Y-48621179D01*
X80167225Y-48621176D01*
X80163921Y-48620006D01*
X80160505Y-48619217D01*
X80160497Y-48619215D01*
X80112986Y-48608246D01*
X80112973Y-48608243D01*
X80109561Y-48607456D01*
X80106082Y-48607059D01*
X80106067Y-48607057D01*
X79999348Y-48594898D01*
X79999334Y-48594897D01*
X79995848Y-48594500D01*
X79992324Y-48594500D01*
X74516168Y-48594500D01*
X74458348Y-48580195D01*
X74413870Y-48540579D01*
X74392995Y-48484794D01*
X74400315Y-48427465D01*
X74400817Y-48426459D01*
X74460435Y-48216923D01*
X74480536Y-48000000D01*
X74460435Y-47783077D01*
X74400817Y-47573541D01*
X74303712Y-47378528D01*
X74172427Y-47204678D01*
X74048425Y-47091635D01*
X74012698Y-47033934D01*
X74012698Y-46966066D01*
X74048425Y-46908364D01*
X74172427Y-46795322D01*
X74303712Y-46621472D01*
X74400817Y-46426459D01*
X74460435Y-46216923D01*
X74480536Y-46000000D01*
X74460435Y-45783077D01*
X74400817Y-45573541D01*
X74303712Y-45378528D01*
X74172427Y-45204678D01*
X74048425Y-45091635D01*
X74012698Y-45033934D01*
X74012698Y-44966066D01*
X74048425Y-44908364D01*
X74172427Y-44795322D01*
X74303712Y-44621472D01*
X74400817Y-44426459D01*
X74460435Y-44216923D01*
X74480536Y-44000000D01*
X74460435Y-43783077D01*
X74400817Y-43573541D01*
X74303712Y-43378528D01*
X74172427Y-43204678D01*
X74048425Y-43091635D01*
X74012698Y-43033934D01*
X74012698Y-42966066D01*
X74048425Y-42908364D01*
X74172427Y-42795322D01*
X74303712Y-42621472D01*
X74400817Y-42426459D01*
X74460435Y-42216923D01*
X74480536Y-42000000D01*
X74460435Y-41783077D01*
X74400817Y-41573541D01*
X74303712Y-41378528D01*
X74172427Y-41204678D01*
X74168190Y-41200815D01*
X74168186Y-41200811D01*
X74048426Y-41091636D01*
X74012698Y-41033933D01*
X74012698Y-40966064D01*
X74048422Y-40908366D01*
X74172427Y-40795322D01*
X74303712Y-40621472D01*
X74400817Y-40426459D01*
X74460435Y-40216923D01*
X74480536Y-40000000D01*
X74460435Y-39783077D01*
X74400817Y-39573541D01*
X74303712Y-39378528D01*
X74172427Y-39204678D01*
X74048425Y-39091635D01*
X74012698Y-39033934D01*
X74012698Y-38966066D01*
X74048425Y-38908364D01*
X74172427Y-38795322D01*
X74303712Y-38621472D01*
X74400817Y-38426459D01*
X74460435Y-38216923D01*
X74480536Y-38000000D01*
X74460435Y-37783077D01*
X74400817Y-37573541D01*
X74303712Y-37378528D01*
X74172427Y-37204678D01*
X74048425Y-37091635D01*
X74012698Y-37033934D01*
X74012698Y-36966066D01*
X74048425Y-36908364D01*
X74172427Y-36795322D01*
X74303712Y-36621472D01*
X74400817Y-36426459D01*
X74460435Y-36216923D01*
X74480536Y-36000000D01*
X74460435Y-35783077D01*
X74400817Y-35573541D01*
X74303712Y-35378528D01*
X74172427Y-35204678D01*
X74168190Y-35200815D01*
X74168186Y-35200811D01*
X74048426Y-35091636D01*
X74012698Y-35033933D01*
X74012698Y-34966064D01*
X74048422Y-34908366D01*
X74172427Y-34795322D01*
X74303712Y-34621472D01*
X74400817Y-34426459D01*
X74460435Y-34216923D01*
X74480536Y-34000000D01*
X74460435Y-33783077D01*
X74400817Y-33573541D01*
X74303712Y-33378528D01*
X74172427Y-33204678D01*
X74048425Y-33091635D01*
X74012698Y-33033934D01*
X74012698Y-32966066D01*
X74048425Y-32908364D01*
X74172427Y-32795322D01*
X74303712Y-32621472D01*
X74400817Y-32426459D01*
X74460435Y-32216923D01*
X74480536Y-32000000D01*
X74460435Y-31783077D01*
X74400817Y-31573541D01*
X74303712Y-31378528D01*
X74172427Y-31204678D01*
X74048425Y-31091635D01*
X74012698Y-31033934D01*
X74012698Y-30966066D01*
X74048425Y-30908364D01*
X74172427Y-30795322D01*
X74303712Y-30621472D01*
X74400817Y-30426459D01*
X74460435Y-30216923D01*
X74480536Y-30000000D01*
X74460435Y-29783077D01*
X74400817Y-29573541D01*
X74303712Y-29378528D01*
X74172427Y-29204678D01*
X74011432Y-29057912D01*
X74006562Y-29054897D01*
X74006560Y-29054895D01*
X73831086Y-28946247D01*
X73831085Y-28946246D01*
X73826210Y-28943228D01*
X73820863Y-28941156D01*
X73820860Y-28941155D01*
X73628417Y-28866602D01*
X73628418Y-28866602D01*
X73623069Y-28864530D01*
X73617443Y-28863478D01*
X73617435Y-28863476D01*
X73414555Y-28825552D01*
X73414552Y-28825551D01*
X73408926Y-28824500D01*
X73191074Y-28824500D01*
X73185448Y-28825551D01*
X73185444Y-28825552D01*
X72982564Y-28863476D01*
X72982553Y-28863478D01*
X72976931Y-28864530D01*
X72971584Y-28866601D01*
X72971582Y-28866602D01*
X72779139Y-28941155D01*
X72779132Y-28941158D01*
X72773790Y-28943228D01*
X72768918Y-28946244D01*
X72768913Y-28946247D01*
X72593439Y-29054895D01*
X72593431Y-29054900D01*
X72588568Y-29057912D01*
X72584337Y-29061768D01*
X72584333Y-29061772D01*
X72431813Y-29200812D01*
X72431809Y-29200816D01*
X72427573Y-29204678D01*
X72424120Y-29209249D01*
X72424114Y-29209257D01*
X72398953Y-29242576D01*
X72355271Y-29278848D01*
X72300000Y-29291848D01*
X72244729Y-29278848D01*
X72201047Y-29242576D01*
X72175885Y-29209257D01*
X72175883Y-29209255D01*
X72172427Y-29204678D01*
X72011432Y-29057912D01*
X72006562Y-29054897D01*
X72006560Y-29054895D01*
X71831086Y-28946247D01*
X71831085Y-28946246D01*
X71826210Y-28943228D01*
X71820863Y-28941156D01*
X71820860Y-28941155D01*
X71628417Y-28866602D01*
X71628418Y-28866602D01*
X71623069Y-28864530D01*
X71617443Y-28863478D01*
X71617435Y-28863476D01*
X71414555Y-28825552D01*
X71414552Y-28825551D01*
X71408926Y-28824500D01*
X71191074Y-28824500D01*
X71185448Y-28825551D01*
X71185444Y-28825552D01*
X70982564Y-28863476D01*
X70982553Y-28863478D01*
X70976931Y-28864530D01*
X70971584Y-28866601D01*
X70971582Y-28866602D01*
X70779139Y-28941155D01*
X70779132Y-28941158D01*
X70773790Y-28943228D01*
X70768918Y-28946244D01*
X70768913Y-28946247D01*
X70593439Y-29054895D01*
X70593431Y-29054900D01*
X70588568Y-29057912D01*
X70584337Y-29061768D01*
X70584333Y-29061772D01*
X70431813Y-29200812D01*
X70431809Y-29200816D01*
X70427573Y-29204678D01*
X70424119Y-29209251D01*
X70424116Y-29209255D01*
X70300000Y-29373612D01*
X70296288Y-29378528D01*
X70293738Y-29383648D01*
X70293733Y-29383657D01*
X70201737Y-29568410D01*
X70201733Y-29568418D01*
X70199183Y-29573541D01*
X70139565Y-29783077D01*
X70119464Y-30000000D01*
X70139565Y-30216923D01*
X70199183Y-30426459D01*
X70201735Y-30431585D01*
X70201737Y-30431589D01*
X70293733Y-30616342D01*
X70293735Y-30616346D01*
X70296288Y-30621472D01*
X70427573Y-30795322D01*
X70431809Y-30799183D01*
X70431813Y-30799188D01*
X70551573Y-30908363D01*
X70587301Y-30966066D01*
X70587301Y-31033934D01*
X70551573Y-31091637D01*
X70431813Y-31200811D01*
X70431803Y-31200821D01*
X70427573Y-31204678D01*
X70424119Y-31209251D01*
X70424116Y-31209255D01*
X70361745Y-31291848D01*
X70296288Y-31378528D01*
X70293738Y-31383648D01*
X70293733Y-31383657D01*
X70201737Y-31568410D01*
X70201733Y-31568418D01*
X70199183Y-31573541D01*
X70139565Y-31783077D01*
X70119464Y-32000000D01*
X70139565Y-32216923D01*
X70199183Y-32426459D01*
X70201735Y-32431585D01*
X70201737Y-32431589D01*
X70293733Y-32616342D01*
X70293735Y-32616346D01*
X70296288Y-32621472D01*
X70427573Y-32795322D01*
X70431809Y-32799183D01*
X70431813Y-32799188D01*
X70551573Y-32908363D01*
X70587301Y-32966066D01*
X70587301Y-33033934D01*
X70551573Y-33091637D01*
X70431813Y-33200811D01*
X70431803Y-33200821D01*
X70427573Y-33204678D01*
X70424119Y-33209251D01*
X70424116Y-33209255D01*
X70361745Y-33291848D01*
X70296288Y-33378528D01*
X70293738Y-33383648D01*
X70293733Y-33383657D01*
X70201737Y-33568410D01*
X70201733Y-33568418D01*
X70199183Y-33573541D01*
X70139565Y-33783077D01*
X70119464Y-34000000D01*
X70139565Y-34216923D01*
X70199183Y-34426459D01*
X70201735Y-34431585D01*
X70201737Y-34431589D01*
X70293733Y-34616342D01*
X70293735Y-34616346D01*
X70296288Y-34621472D01*
X70427573Y-34795322D01*
X70551573Y-34908363D01*
X70587301Y-34966064D01*
X70587302Y-35033933D01*
X70551573Y-35091636D01*
X70427573Y-35204678D01*
X70424119Y-35209251D01*
X70424116Y-35209255D01*
X70361745Y-35291848D01*
X70296288Y-35378528D01*
X70293738Y-35383648D01*
X70293733Y-35383657D01*
X70201737Y-35568410D01*
X70201733Y-35568418D01*
X70199183Y-35573541D01*
X70139565Y-35783077D01*
X70119464Y-36000000D01*
X70139565Y-36216923D01*
X70199183Y-36426459D01*
X70201735Y-36431585D01*
X70201737Y-36431589D01*
X70293733Y-36616342D01*
X70293735Y-36616346D01*
X70296288Y-36621472D01*
X70427573Y-36795322D01*
X70551573Y-36908363D01*
X70587301Y-36966064D01*
X70587302Y-37033933D01*
X70551573Y-37091636D01*
X70427573Y-37204678D01*
X70424119Y-37209251D01*
X70424116Y-37209255D01*
X70361745Y-37291848D01*
X70296288Y-37378528D01*
X70293738Y-37383648D01*
X70293733Y-37383657D01*
X70201737Y-37568410D01*
X70201733Y-37568418D01*
X70199183Y-37573541D01*
X70139565Y-37783077D01*
X70119464Y-38000000D01*
X70139565Y-38216923D01*
X70199183Y-38426459D01*
X70201735Y-38431585D01*
X70201737Y-38431589D01*
X70293733Y-38616342D01*
X70293735Y-38616346D01*
X70296288Y-38621472D01*
X70427573Y-38795322D01*
X70431809Y-38799183D01*
X70431813Y-38799188D01*
X70551573Y-38908363D01*
X70587301Y-38966066D01*
X70587301Y-39033934D01*
X70551573Y-39091637D01*
X70431813Y-39200811D01*
X70431803Y-39200821D01*
X70427573Y-39204678D01*
X70424119Y-39209251D01*
X70424116Y-39209255D01*
X70361745Y-39291848D01*
X70296288Y-39378528D01*
X70293738Y-39383648D01*
X70293733Y-39383657D01*
X70201737Y-39568410D01*
X70201733Y-39568418D01*
X70199183Y-39573541D01*
X70139565Y-39783077D01*
X70119464Y-40000000D01*
X70139565Y-40216923D01*
X70199183Y-40426459D01*
X70201735Y-40431585D01*
X70201737Y-40431589D01*
X70293733Y-40616342D01*
X70293735Y-40616346D01*
X70296288Y-40621472D01*
X70427573Y-40795322D01*
X70551573Y-40908363D01*
X70587301Y-40966064D01*
X70587302Y-41033933D01*
X70551573Y-41091636D01*
X70427573Y-41204678D01*
X70424119Y-41209251D01*
X70424116Y-41209255D01*
X70353994Y-41302112D01*
X70296288Y-41378528D01*
X70293738Y-41383648D01*
X70293733Y-41383657D01*
X70201737Y-41568410D01*
X70201733Y-41568418D01*
X70199183Y-41573541D01*
X70139565Y-41783077D01*
X70139036Y-41788782D01*
X70139036Y-41788784D01*
X70122379Y-41968540D01*
X70119464Y-42000000D01*
X70119993Y-42005709D01*
X70135164Y-42169435D01*
X70139565Y-42216923D01*
X70199183Y-42426459D01*
X70201735Y-42431585D01*
X70201737Y-42431589D01*
X70293733Y-42616342D01*
X70293735Y-42616346D01*
X70296288Y-42621472D01*
X70427573Y-42795322D01*
X70551573Y-42908363D01*
X70587301Y-42966064D01*
X70587302Y-43033933D01*
X70551573Y-43091636D01*
X70427573Y-43204678D01*
X70424119Y-43209251D01*
X70424116Y-43209255D01*
X70361745Y-43291848D01*
X70296288Y-43378528D01*
X70293738Y-43383648D01*
X70293733Y-43383657D01*
X70201737Y-43568410D01*
X70201733Y-43568418D01*
X70199183Y-43573541D01*
X70139565Y-43783077D01*
X70139036Y-43788782D01*
X70139036Y-43788784D01*
X70130014Y-43886144D01*
X70119464Y-44000000D01*
X70139565Y-44216923D01*
X70199183Y-44426459D01*
X70201735Y-44431585D01*
X70201737Y-44431589D01*
X70293733Y-44616342D01*
X70293735Y-44616346D01*
X70296288Y-44621472D01*
X70427573Y-44795322D01*
X70588568Y-44942088D01*
X70773790Y-45056772D01*
X70976931Y-45135470D01*
X71191074Y-45175500D01*
X71403197Y-45175500D01*
X71408926Y-45175500D01*
X71623069Y-45135470D01*
X71826210Y-45056772D01*
X72011432Y-44942088D01*
X72172427Y-44795322D01*
X72201048Y-44757422D01*
X72244728Y-44721150D01*
X72300000Y-44708150D01*
X72355272Y-44721150D01*
X72398952Y-44757422D01*
X72427573Y-44795322D01*
X72431807Y-44799182D01*
X72431810Y-44799185D01*
X72551573Y-44908363D01*
X72587301Y-44966066D01*
X72587301Y-45033934D01*
X72551573Y-45091637D01*
X72431813Y-45200811D01*
X72431803Y-45200821D01*
X72427573Y-45204678D01*
X72424119Y-45209251D01*
X72424116Y-45209255D01*
X72299741Y-45373955D01*
X72296288Y-45378528D01*
X72293738Y-45383648D01*
X72293733Y-45383657D01*
X72201737Y-45568410D01*
X72201733Y-45568418D01*
X72199183Y-45573541D01*
X72139565Y-45783077D01*
X72119464Y-46000000D01*
X72139565Y-46216923D01*
X72199183Y-46426459D01*
X72201735Y-46431585D01*
X72201737Y-46431589D01*
X72293733Y-46616342D01*
X72293735Y-46616346D01*
X72296288Y-46621472D01*
X72339027Y-46678068D01*
X72343808Y-46684399D01*
X72367776Y-46742820D01*
X72359867Y-46805469D01*
X72322131Y-46856100D01*
X72264354Y-46881582D01*
X72201520Y-46875307D01*
X72089752Y-46833620D01*
X72089750Y-46833619D01*
X72082483Y-46830909D01*
X72074770Y-46830079D01*
X72074767Y-46830079D01*
X72026180Y-46824855D01*
X72026169Y-46824854D01*
X72022873Y-46824500D01*
X72019550Y-46824500D01*
X70580439Y-46824500D01*
X70580420Y-46824500D01*
X70577128Y-46824501D01*
X70573850Y-46824853D01*
X70573838Y-46824854D01*
X70525231Y-46830079D01*
X70525225Y-46830080D01*
X70517517Y-46830909D01*
X70510252Y-46833618D01*
X70510246Y-46833620D01*
X70390980Y-46878104D01*
X70390978Y-46878104D01*
X70382669Y-46881204D01*
X70375572Y-46886516D01*
X70375568Y-46886519D01*
X70274550Y-46962141D01*
X70274546Y-46962144D01*
X70267454Y-46967454D01*
X70262144Y-46974546D01*
X70262141Y-46974550D01*
X70186519Y-47075568D01*
X70186516Y-47075572D01*
X70181204Y-47082669D01*
X70178104Y-47090978D01*
X70178104Y-47090980D01*
X70133620Y-47210247D01*
X70133619Y-47210250D01*
X70130909Y-47217517D01*
X70130079Y-47225227D01*
X70130079Y-47225232D01*
X70124855Y-47273819D01*
X70124854Y-47273831D01*
X70124500Y-47277127D01*
X70124500Y-47280448D01*
X70124500Y-47280449D01*
X70124501Y-48470500D01*
X70107888Y-48532500D01*
X70062501Y-48577887D01*
X70000501Y-48594500D01*
X69674590Y-48594500D01*
X69671237Y-48594867D01*
X69671222Y-48594868D01*
X69568534Y-48606115D01*
X69568527Y-48606116D01*
X69565177Y-48606483D01*
X69561890Y-48607211D01*
X69561882Y-48607213D01*
X69516066Y-48617370D01*
X69516049Y-48617374D01*
X69512773Y-48618101D01*
X69509577Y-48619185D01*
X69509573Y-48619187D01*
X69414960Y-48651303D01*
X69414951Y-48651307D01*
X69408553Y-48653479D01*
X69402771Y-48656987D01*
X69402770Y-48656988D01*
X69361792Y-48681854D01*
X69313645Y-48698784D01*
X69262757Y-48694887D01*
X69227587Y-48676084D01*
X69226782Y-48677309D01*
X69220741Y-48673335D01*
X69215214Y-48668698D01*
X69208765Y-48665459D01*
X69064883Y-48593199D01*
X69064880Y-48593198D01*
X69058433Y-48589960D01*
X69051407Y-48588294D01*
X69051405Y-48588294D01*
X68894749Y-48551165D01*
X68894743Y-48551164D01*
X68887721Y-48549500D01*
X68756291Y-48549500D01*
X68752725Y-48549916D01*
X68752721Y-48549917D01*
X68632915Y-48563920D01*
X68632907Y-48563921D01*
X68625745Y-48564759D01*
X68618967Y-48567225D01*
X68618958Y-48567228D01*
X68467674Y-48622291D01*
X68467671Y-48622292D01*
X68460883Y-48624763D01*
X68454849Y-48628730D01*
X68454844Y-48628734D01*
X68378191Y-48679150D01*
X68312458Y-48699526D01*
X68254192Y-48683914D01*
X68253706Y-48685043D01*
X68246002Y-48681719D01*
X68245998Y-48681718D01*
X68245967Y-48681704D01*
X68245966Y-48681704D01*
X68131930Y-48632513D01*
X68131925Y-48632511D01*
X68128074Y-48630850D01*
X68086276Y-48619215D01*
X68068063Y-48614145D01*
X68068060Y-48614144D01*
X68064003Y-48613015D01*
X68059827Y-48612444D01*
X68059824Y-48612444D01*
X67932613Y-48595069D01*
X67932606Y-48595068D01*
X67928444Y-48594500D01*
X49108172Y-48594500D01*
X49104155Y-48595028D01*
X49104152Y-48595029D01*
X48981364Y-48611194D01*
X48981349Y-48611196D01*
X48977338Y-48611725D01*
X48973426Y-48612773D01*
X48973417Y-48612775D01*
X48919262Y-48627286D01*
X48919254Y-48627288D01*
X48915338Y-48628338D01*
X48911592Y-48629889D01*
X48911582Y-48629893D01*
X48800931Y-48675726D01*
X48800926Y-48675728D01*
X48793422Y-48678837D01*
X48786978Y-48683780D01*
X48786972Y-48683785D01*
X48691961Y-48756691D01*
X48691954Y-48756696D01*
X48688730Y-48759171D01*
X48685857Y-48762043D01*
X48685849Y-48762051D01*
X48646223Y-48801677D01*
X48646215Y-48801685D01*
X48643343Y-48804558D01*
X48640868Y-48807782D01*
X48640863Y-48807789D01*
X48567957Y-48902800D01*
X48567952Y-48902806D01*
X48563009Y-48909250D01*
X48559900Y-48916754D01*
X48559898Y-48916759D01*
X48514065Y-49027410D01*
X48514061Y-49027420D01*
X48512510Y-49031166D01*
X48511460Y-49035082D01*
X48511458Y-49035090D01*
X48496947Y-49089245D01*
X48496945Y-49089254D01*
X48495897Y-49093166D01*
X48495368Y-49097177D01*
X48495366Y-49097192D01*
X48485196Y-49174447D01*
X48478672Y-49224000D01*
X48479733Y-49232059D01*
X48495366Y-49350807D01*
X48495368Y-49350819D01*
X48495897Y-49354834D01*
X48496945Y-49358748D01*
X48496947Y-49358754D01*
X48511458Y-49412909D01*
X48512510Y-49416834D01*
X48514063Y-49420583D01*
X48514067Y-49420595D01*
X48560795Y-49533407D01*
X48564165Y-49542540D01*
X48584468Y-49605024D01*
X48589858Y-49630383D01*
X48595812Y-49687039D01*
X48595812Y-49712959D01*
X48589858Y-49769613D01*
X48584468Y-49794971D01*
X48566864Y-49849151D01*
X48556320Y-49872833D01*
X48527836Y-49922169D01*
X48512599Y-49943141D01*
X48474488Y-49985468D01*
X48455221Y-50002816D01*
X48409124Y-50036306D01*
X48386677Y-50049265D01*
X48334639Y-50072434D01*
X48309986Y-50080445D01*
X48272790Y-50088352D01*
X48254263Y-50092290D01*
X48228482Y-50095000D01*
X48171518Y-50095000D01*
X48145736Y-50092290D01*
X48090012Y-50080445D01*
X48065358Y-50072434D01*
X48013321Y-50049265D01*
X47990874Y-50036306D01*
X47944777Y-50002816D01*
X47925514Y-49985472D01*
X47887397Y-49943139D01*
X47872162Y-49922169D01*
X47843678Y-49872833D01*
X47833136Y-49849155D01*
X47815529Y-49794969D01*
X47810140Y-49769613D01*
X47804186Y-49712959D01*
X47804186Y-49687039D01*
X47810141Y-49630375D01*
X47815527Y-49605036D01*
X47835838Y-49542525D01*
X47839196Y-49533423D01*
X47887490Y-49416834D01*
X47904103Y-49354834D01*
X47921328Y-49224000D01*
X47904103Y-49093166D01*
X47887490Y-49031166D01*
X47836991Y-48909250D01*
X47756657Y-48804558D01*
X47711270Y-48759171D01*
X47659847Y-48719712D01*
X47613027Y-48683785D01*
X47613024Y-48683783D01*
X47606578Y-48678837D01*
X47599069Y-48675726D01*
X47599068Y-48675726D01*
X47488417Y-48629893D01*
X47488412Y-48629891D01*
X47484662Y-48628338D01*
X47480741Y-48627287D01*
X47480737Y-48627286D01*
X47426582Y-48612775D01*
X47426576Y-48612773D01*
X47422662Y-48611725D01*
X47418647Y-48611196D01*
X47418635Y-48611194D01*
X47295847Y-48595029D01*
X47295845Y-48595028D01*
X47291828Y-48594500D01*
X42824000Y-48594500D01*
X42819983Y-48595028D01*
X42819980Y-48595029D01*
X42697192Y-48611194D01*
X42697177Y-48611196D01*
X42693166Y-48611725D01*
X42689254Y-48612773D01*
X42689245Y-48612775D01*
X42635090Y-48627286D01*
X42635082Y-48627288D01*
X42631166Y-48628338D01*
X42627420Y-48629889D01*
X42627410Y-48629893D01*
X42516759Y-48675726D01*
X42516754Y-48675728D01*
X42509250Y-48678837D01*
X42502806Y-48683780D01*
X42502800Y-48683785D01*
X42407789Y-48756691D01*
X42407782Y-48756696D01*
X42404558Y-48759171D01*
X42401685Y-48762043D01*
X42401677Y-48762051D01*
X42362051Y-48801677D01*
X42362043Y-48801685D01*
X42359171Y-48804558D01*
X42356696Y-48807782D01*
X42356691Y-48807789D01*
X42283785Y-48902800D01*
X42283780Y-48902806D01*
X42278837Y-48909250D01*
X42275728Y-48916754D01*
X42275726Y-48916759D01*
X42229893Y-49027410D01*
X42229889Y-49027420D01*
X42228338Y-49031166D01*
X42227288Y-49035082D01*
X42227286Y-49035090D01*
X42212775Y-49089245D01*
X42212773Y-49089254D01*
X42211725Y-49093166D01*
X42211196Y-49097177D01*
X42211194Y-49097192D01*
X42200885Y-49175500D01*
X42194500Y-49224000D01*
X42194500Y-51100000D01*
X42194500Y-51799999D01*
X42194500Y-54199999D01*
X42194500Y-55000000D01*
X42194500Y-56300000D01*
X42194500Y-66767322D01*
X42194784Y-66770279D01*
X42194785Y-66770284D01*
X42199880Y-66823199D01*
X42203787Y-66863774D01*
X42204351Y-66866676D01*
X42204353Y-66866689D01*
X42212248Y-66907306D01*
X42212250Y-66907318D01*
X42212816Y-66910225D01*
X42213654Y-66913056D01*
X42213659Y-66913074D01*
X42238644Y-66997421D01*
X42238646Y-66997427D01*
X42240337Y-67003134D01*
X42243087Y-67008417D01*
X42243088Y-67008419D01*
X42283706Y-67086449D01*
X42283713Y-67086462D01*
X42285079Y-67089085D01*
X42286691Y-67091568D01*
X42286695Y-67091574D01*
X42303481Y-67117422D01*
X42310851Y-67128771D01*
X42371172Y-67204606D01*
X42444854Y-67267538D01*
X42447292Y-67269245D01*
X42447297Y-67269249D01*
X42447817Y-67269613D01*
X42483616Y-67294680D01*
X42567955Y-67342397D01*
X42570666Y-67343604D01*
X42570672Y-67343607D01*
X42586677Y-67350733D01*
X42609126Y-67363694D01*
X42655222Y-67397184D01*
X42674487Y-67414530D01*
X42712598Y-67456856D01*
X42727836Y-67477829D01*
X42756320Y-67527165D01*
X42766864Y-67550847D01*
X42784468Y-67605027D01*
X42789858Y-67630385D01*
X42795812Y-67687039D01*
X42795812Y-67712959D01*
X42789858Y-67769615D01*
X42784468Y-67794973D01*
X42766864Y-67849153D01*
X42756320Y-67872834D01*
X42741523Y-67898465D01*
X42727839Y-67922166D01*
X42712602Y-67943137D01*
X42674487Y-67985468D01*
X42655222Y-68002814D01*
X42609124Y-68036306D01*
X42586679Y-68049265D01*
X42570682Y-68056387D01*
X42570652Y-68056402D01*
X42567955Y-68057603D01*
X42565378Y-68059060D01*
X42565366Y-68059067D01*
X42486212Y-68103850D01*
X42486192Y-68103862D01*
X42483616Y-68105320D01*
X42481179Y-68107026D01*
X42481167Y-68107034D01*
X42447297Y-68130750D01*
X42447278Y-68130764D01*
X42444854Y-68132462D01*
X42442592Y-68134393D01*
X42442588Y-68134397D01*
X42375701Y-68191525D01*
X42375696Y-68191529D01*
X42371172Y-68195394D01*
X42367508Y-68200000D01*
X42367469Y-68200047D01*
X42367464Y-68200054D01*
X42312707Y-68268895D01*
X42312702Y-68268901D01*
X42310851Y-68271229D01*
X42309237Y-68273713D01*
X42309230Y-68273724D01*
X42286695Y-68308425D01*
X42286686Y-68308440D01*
X42285079Y-68310915D01*
X42283718Y-68313528D01*
X42283706Y-68313550D01*
X42243088Y-68391580D01*
X42243085Y-68391585D01*
X42240337Y-68396866D01*
X42238647Y-68402568D01*
X42238644Y-68402578D01*
X42213659Y-68486925D01*
X42213653Y-68486948D01*
X42212816Y-68489775D01*
X42212251Y-68492676D01*
X42212248Y-68492693D01*
X42204353Y-68533310D01*
X42204350Y-68533326D01*
X42203787Y-68536226D01*
X42203502Y-68539180D01*
X42203502Y-68539184D01*
X42198131Y-68594972D01*
X42194500Y-68632678D01*
X42194500Y-68635653D01*
X42194500Y-68643503D01*
X42179473Y-68702671D01*
X42138035Y-68747499D01*
X42080228Y-68767121D01*
X42020066Y-68756782D01*
X41979803Y-68738856D01*
X41973444Y-68737504D01*
X41973440Y-68737503D01*
X41801008Y-68700852D01*
X41801005Y-68700851D01*
X41794646Y-68699500D01*
X41605354Y-68699500D01*
X41598995Y-68700851D01*
X41598991Y-68700852D01*
X41426559Y-68737503D01*
X41426552Y-68737505D01*
X41420197Y-68738856D01*
X41414262Y-68741498D01*
X41414254Y-68741501D01*
X41253207Y-68813205D01*
X41253202Y-68813207D01*
X41247270Y-68815849D01*
X41242016Y-68819665D01*
X41242011Y-68819669D01*
X41099388Y-68923290D01*
X41099381Y-68923295D01*
X41094129Y-68927112D01*
X41089784Y-68931937D01*
X41089779Y-68931942D01*
X40971813Y-69062956D01*
X40971808Y-69062962D01*
X40967467Y-69067784D01*
X40964222Y-69073404D01*
X40964218Y-69073410D01*
X40876069Y-69226089D01*
X40876066Y-69226094D01*
X40872821Y-69231716D01*
X40870815Y-69237888D01*
X40870813Y-69237894D01*
X40816333Y-69405564D01*
X40816331Y-69405573D01*
X40814326Y-69411744D01*
X40813648Y-69418194D01*
X40813646Y-69418204D01*
X40800396Y-69544278D01*
X40794540Y-69600000D01*
X40795219Y-69606460D01*
X40813646Y-69781795D01*
X40813647Y-69781803D01*
X40814326Y-69788256D01*
X40816331Y-69794428D01*
X40816333Y-69794435D01*
X40870469Y-69961046D01*
X40872821Y-69968284D01*
X40876068Y-69973908D01*
X40876069Y-69973910D01*
X40950203Y-70102315D01*
X40967467Y-70132216D01*
X40971811Y-70137041D01*
X40971813Y-70137043D01*
X41025972Y-70197192D01*
X41094129Y-70272888D01*
X41247270Y-70384151D01*
X41420197Y-70461144D01*
X41605354Y-70500500D01*
X41788143Y-70500500D01*
X41794646Y-70500500D01*
X41979803Y-70461144D01*
X42020066Y-70443217D01*
X42080228Y-70432879D01*
X42138035Y-70452501D01*
X42179473Y-70497329D01*
X42194500Y-70556497D01*
X42194500Y-70776000D01*
X42195028Y-70780017D01*
X42195029Y-70780019D01*
X42211194Y-70902807D01*
X42211196Y-70902819D01*
X42211725Y-70906834D01*
X42212773Y-70910748D01*
X42212775Y-70910754D01*
X42227286Y-70964909D01*
X42228338Y-70968834D01*
X42229891Y-70972584D01*
X42229893Y-70972589D01*
X42233426Y-70981118D01*
X42278837Y-71090750D01*
X42283783Y-71097196D01*
X42283785Y-71097199D01*
X42319834Y-71144178D01*
X42359171Y-71195442D01*
X42404558Y-71240829D01*
X42424187Y-71255891D01*
X42451859Y-71277125D01*
X42489652Y-71325065D01*
X42499990Y-71385230D01*
X42480367Y-71443036D01*
X42435539Y-71484473D01*
X42376372Y-71499500D01*
X28306092Y-71499500D01*
X28293938Y-71498903D01*
X28156180Y-71485335D01*
X28132340Y-71480593D01*
X28005728Y-71442186D01*
X27983271Y-71432883D01*
X27866593Y-71370517D01*
X27846381Y-71357012D01*
X27744108Y-71273079D01*
X27726920Y-71255891D01*
X27674659Y-71192210D01*
X27642986Y-71153616D01*
X27629482Y-71133406D01*
X27567114Y-71016725D01*
X27557815Y-70994277D01*
X27519404Y-70867652D01*
X27514665Y-70843824D01*
X27501097Y-70706061D01*
X27500500Y-70693908D01*
X27500500Y-66124500D01*
X37994540Y-66124500D01*
X37995219Y-66130960D01*
X38013646Y-66306295D01*
X38013647Y-66306303D01*
X38014326Y-66312756D01*
X38016331Y-66318928D01*
X38016333Y-66318935D01*
X38070813Y-66486605D01*
X38072821Y-66492784D01*
X38076068Y-66498408D01*
X38076069Y-66498410D01*
X38155073Y-66635250D01*
X38167467Y-66656716D01*
X38294129Y-66797388D01*
X38447270Y-66908651D01*
X38620197Y-66985644D01*
X38805354Y-67025000D01*
X38988143Y-67025000D01*
X38994646Y-67025000D01*
X39179803Y-66985644D01*
X39352730Y-66908651D01*
X39505871Y-66797388D01*
X39632533Y-66656716D01*
X39727179Y-66492784D01*
X39785674Y-66312756D01*
X39805460Y-66124500D01*
X39785674Y-65936244D01*
X39727179Y-65756216D01*
X39632533Y-65592284D01*
X39505871Y-65451612D01*
X39500613Y-65447792D01*
X39500611Y-65447790D01*
X39357988Y-65344169D01*
X39357987Y-65344168D01*
X39352730Y-65340349D01*
X39346792Y-65337705D01*
X39185745Y-65266001D01*
X39185740Y-65265999D01*
X39179803Y-65263356D01*
X39173444Y-65262004D01*
X39173440Y-65262003D01*
X39001008Y-65225352D01*
X39001005Y-65225351D01*
X38994646Y-65224000D01*
X38805354Y-65224000D01*
X38798995Y-65225351D01*
X38798991Y-65225352D01*
X38626559Y-65262003D01*
X38626552Y-65262005D01*
X38620197Y-65263356D01*
X38614262Y-65265998D01*
X38614254Y-65266001D01*
X38453207Y-65337705D01*
X38453202Y-65337707D01*
X38447270Y-65340349D01*
X38442016Y-65344165D01*
X38442011Y-65344169D01*
X38299388Y-65447790D01*
X38299381Y-65447795D01*
X38294129Y-65451612D01*
X38289784Y-65456437D01*
X38289779Y-65456442D01*
X38171813Y-65587456D01*
X38171808Y-65587462D01*
X38167467Y-65592284D01*
X38164222Y-65597904D01*
X38164218Y-65597910D01*
X38076069Y-65750589D01*
X38076066Y-65750594D01*
X38072821Y-65756216D01*
X38070815Y-65762388D01*
X38070813Y-65762394D01*
X38016333Y-65930064D01*
X38016331Y-65930073D01*
X38014326Y-65936244D01*
X38013648Y-65942694D01*
X38013646Y-65942704D01*
X37997411Y-66097182D01*
X37994540Y-66124500D01*
X27500500Y-66124500D01*
X27500500Y-48000000D01*
X36819464Y-48000000D01*
X36839565Y-48216923D01*
X36899183Y-48426459D01*
X36901735Y-48431585D01*
X36901737Y-48431589D01*
X36993733Y-48616342D01*
X36993735Y-48616346D01*
X36996288Y-48621472D01*
X37127573Y-48795322D01*
X37288568Y-48942088D01*
X37473790Y-49056772D01*
X37676931Y-49135470D01*
X37891074Y-49175500D01*
X38103197Y-49175500D01*
X38108926Y-49175500D01*
X38323069Y-49135470D01*
X38526210Y-49056772D01*
X38711432Y-48942088D01*
X38872427Y-48795322D01*
X38901046Y-48757423D01*
X38944728Y-48721150D01*
X39000000Y-48708150D01*
X39055272Y-48721150D01*
X39098953Y-48757423D01*
X39127573Y-48795322D01*
X39131807Y-48799182D01*
X39131810Y-48799185D01*
X39179284Y-48842463D01*
X39288568Y-48942088D01*
X39473790Y-49056772D01*
X39676931Y-49135470D01*
X39891074Y-49175500D01*
X40103197Y-49175500D01*
X40108926Y-49175500D01*
X40323069Y-49135470D01*
X40526210Y-49056772D01*
X40711432Y-48942088D01*
X40872427Y-48795322D01*
X41003712Y-48621472D01*
X41100817Y-48426459D01*
X41160435Y-48216923D01*
X41180536Y-48000000D01*
X41160435Y-47783077D01*
X41100817Y-47573541D01*
X41003712Y-47378528D01*
X40872427Y-47204678D01*
X40711432Y-47057912D01*
X40706562Y-47054897D01*
X40706560Y-47054895D01*
X40531086Y-46946247D01*
X40531085Y-46946246D01*
X40526210Y-46943228D01*
X40520863Y-46941156D01*
X40520860Y-46941155D01*
X40328417Y-46866602D01*
X40328418Y-46866602D01*
X40323069Y-46864530D01*
X40317443Y-46863478D01*
X40317435Y-46863476D01*
X40114555Y-46825552D01*
X40114552Y-46825551D01*
X40108926Y-46824500D01*
X39891074Y-46824500D01*
X39885448Y-46825551D01*
X39885444Y-46825552D01*
X39682564Y-46863476D01*
X39682553Y-46863478D01*
X39676931Y-46864530D01*
X39671584Y-46866601D01*
X39671582Y-46866602D01*
X39479139Y-46941155D01*
X39479132Y-46941158D01*
X39473790Y-46943228D01*
X39468918Y-46946244D01*
X39468913Y-46946247D01*
X39293439Y-47054895D01*
X39293431Y-47054900D01*
X39288568Y-47057912D01*
X39284337Y-47061768D01*
X39284333Y-47061772D01*
X39131813Y-47200812D01*
X39131809Y-47200816D01*
X39127573Y-47204678D01*
X39124118Y-47209253D01*
X39124112Y-47209260D01*
X39098951Y-47242577D01*
X39055268Y-47278849D01*
X38999997Y-47291848D01*
X38944726Y-47278848D01*
X38901045Y-47242575D01*
X38875887Y-47209260D01*
X38875882Y-47209253D01*
X38875881Y-47209252D01*
X38872427Y-47204678D01*
X38748425Y-47091635D01*
X38712698Y-47033934D01*
X38712698Y-46966066D01*
X38748425Y-46908364D01*
X38872427Y-46795322D01*
X39003712Y-46621472D01*
X39100817Y-46426459D01*
X39160435Y-46216923D01*
X39180536Y-46000000D01*
X39160435Y-45783077D01*
X39100817Y-45573541D01*
X39003712Y-45378528D01*
X38872427Y-45204678D01*
X38748425Y-45091635D01*
X38712698Y-45033934D01*
X38712698Y-44966066D01*
X38748425Y-44908364D01*
X38872427Y-44795322D01*
X38901049Y-44757419D01*
X38944725Y-44721151D01*
X38999997Y-44708150D01*
X39055269Y-44721149D01*
X39098952Y-44757422D01*
X39124116Y-44790744D01*
X39127573Y-44795322D01*
X39131807Y-44799182D01*
X39131810Y-44799185D01*
X39225597Y-44884683D01*
X39288568Y-44942088D01*
X39473790Y-45056772D01*
X39676931Y-45135470D01*
X39891074Y-45175500D01*
X40103197Y-45175500D01*
X40108926Y-45175500D01*
X40323069Y-45135470D01*
X40526210Y-45056772D01*
X40711432Y-44942088D01*
X40872427Y-44795322D01*
X41003712Y-44621472D01*
X41100817Y-44426459D01*
X41160435Y-44216923D01*
X41180536Y-44000000D01*
X41160435Y-43783077D01*
X41100817Y-43573541D01*
X41003712Y-43378528D01*
X40872427Y-43204678D01*
X40748425Y-43091635D01*
X40712698Y-43033934D01*
X40712698Y-43025000D01*
X46115532Y-43025000D01*
X46116211Y-43031460D01*
X46134638Y-43206795D01*
X46134639Y-43206803D01*
X46135318Y-43213256D01*
X46137323Y-43219428D01*
X46137325Y-43219435D01*
X46189018Y-43378528D01*
X46193813Y-43393284D01*
X46288459Y-43557216D01*
X46415121Y-43697888D01*
X46568262Y-43809151D01*
X46741189Y-43886144D01*
X46926346Y-43925500D01*
X47109135Y-43925500D01*
X47115638Y-43925500D01*
X47300795Y-43886144D01*
X47473722Y-43809151D01*
X47626863Y-43697888D01*
X47753525Y-43557216D01*
X47848171Y-43393284D01*
X47906666Y-43213256D01*
X47926452Y-43025000D01*
X63373548Y-43025000D01*
X63374227Y-43031460D01*
X63392654Y-43206795D01*
X63392655Y-43206803D01*
X63393334Y-43213256D01*
X63395339Y-43219428D01*
X63395341Y-43219435D01*
X63447034Y-43378528D01*
X63451829Y-43393284D01*
X63546475Y-43557216D01*
X63673137Y-43697888D01*
X63826278Y-43809151D01*
X63999205Y-43886144D01*
X64184362Y-43925500D01*
X64367151Y-43925500D01*
X64373654Y-43925500D01*
X64558811Y-43886144D01*
X64731738Y-43809151D01*
X64884879Y-43697888D01*
X65011541Y-43557216D01*
X65106187Y-43393284D01*
X65164682Y-43213256D01*
X65184468Y-43025000D01*
X65164682Y-42836744D01*
X65106187Y-42656716D01*
X65051500Y-42561996D01*
X65034889Y-42500000D01*
X65051500Y-42438003D01*
X65106187Y-42343284D01*
X65164682Y-42163256D01*
X65184468Y-41975000D01*
X65164682Y-41786744D01*
X65106187Y-41606716D01*
X65011541Y-41442784D01*
X64953684Y-41378528D01*
X64889228Y-41306942D01*
X64889227Y-41306941D01*
X64884879Y-41302112D01*
X64879621Y-41298292D01*
X64879619Y-41298290D01*
X64736996Y-41194669D01*
X64736995Y-41194668D01*
X64731738Y-41190849D01*
X64725800Y-41188205D01*
X64564753Y-41116501D01*
X64564748Y-41116499D01*
X64558811Y-41113856D01*
X64552452Y-41112504D01*
X64552448Y-41112503D01*
X64380016Y-41075852D01*
X64380013Y-41075851D01*
X64373654Y-41074500D01*
X64184362Y-41074500D01*
X64178003Y-41075851D01*
X64177999Y-41075852D01*
X64005567Y-41112503D01*
X64005560Y-41112505D01*
X63999205Y-41113856D01*
X63993270Y-41116498D01*
X63993262Y-41116501D01*
X63832215Y-41188205D01*
X63832210Y-41188207D01*
X63826278Y-41190849D01*
X63821024Y-41194665D01*
X63821019Y-41194669D01*
X63678396Y-41298290D01*
X63678389Y-41298295D01*
X63673137Y-41302112D01*
X63668792Y-41306937D01*
X63668787Y-41306942D01*
X63550821Y-41437956D01*
X63550816Y-41437962D01*
X63546475Y-41442784D01*
X63543230Y-41448404D01*
X63543226Y-41448410D01*
X63455077Y-41601089D01*
X63455074Y-41601094D01*
X63451829Y-41606716D01*
X63449823Y-41612888D01*
X63449821Y-41612894D01*
X63395341Y-41780564D01*
X63395339Y-41780573D01*
X63393334Y-41786744D01*
X63392656Y-41793194D01*
X63392654Y-41793204D01*
X63374970Y-41961464D01*
X63373548Y-41975000D01*
X63374227Y-41981460D01*
X63392654Y-42156795D01*
X63392655Y-42156803D01*
X63393334Y-42163256D01*
X63395339Y-42169428D01*
X63395341Y-42169435D01*
X63449819Y-42337100D01*
X63449821Y-42337105D01*
X63451829Y-42343284D01*
X63506514Y-42438003D01*
X63523126Y-42500000D01*
X63506514Y-42561996D01*
X63451829Y-42656716D01*
X63449822Y-42662890D01*
X63449819Y-42662899D01*
X63395341Y-42830564D01*
X63395339Y-42830573D01*
X63393334Y-42836744D01*
X63392656Y-42843194D01*
X63392654Y-42843204D01*
X63374970Y-43011464D01*
X63373548Y-43025000D01*
X47926452Y-43025000D01*
X47906666Y-42836744D01*
X47848171Y-42656716D01*
X47793484Y-42561996D01*
X47776873Y-42500000D01*
X47793484Y-42438003D01*
X47848171Y-42343284D01*
X47906666Y-42163256D01*
X47926452Y-41975000D01*
X47906666Y-41786744D01*
X47848171Y-41606716D01*
X47753525Y-41442784D01*
X47695668Y-41378528D01*
X47631212Y-41306942D01*
X47631211Y-41306941D01*
X47626863Y-41302112D01*
X47621605Y-41298292D01*
X47621603Y-41298290D01*
X47478980Y-41194669D01*
X47478979Y-41194668D01*
X47473722Y-41190849D01*
X47467784Y-41188205D01*
X47306737Y-41116501D01*
X47306732Y-41116499D01*
X47300795Y-41113856D01*
X47294436Y-41112504D01*
X47294432Y-41112503D01*
X47122000Y-41075852D01*
X47121997Y-41075851D01*
X47115638Y-41074500D01*
X46926346Y-41074500D01*
X46919987Y-41075851D01*
X46919983Y-41075852D01*
X46747551Y-41112503D01*
X46747544Y-41112505D01*
X46741189Y-41113856D01*
X46735254Y-41116498D01*
X46735246Y-41116501D01*
X46574199Y-41188205D01*
X46574194Y-41188207D01*
X46568262Y-41190849D01*
X46563008Y-41194665D01*
X46563003Y-41194669D01*
X46420380Y-41298290D01*
X46420373Y-41298295D01*
X46415121Y-41302112D01*
X46410776Y-41306937D01*
X46410771Y-41306942D01*
X46292805Y-41437956D01*
X46292800Y-41437962D01*
X46288459Y-41442784D01*
X46285214Y-41448404D01*
X46285210Y-41448410D01*
X46197061Y-41601089D01*
X46197058Y-41601094D01*
X46193813Y-41606716D01*
X46191807Y-41612888D01*
X46191805Y-41612894D01*
X46137325Y-41780564D01*
X46137323Y-41780573D01*
X46135318Y-41786744D01*
X46134640Y-41793194D01*
X46134638Y-41793204D01*
X46116954Y-41961464D01*
X46115532Y-41975000D01*
X46116211Y-41981460D01*
X46134638Y-42156795D01*
X46134639Y-42156803D01*
X46135318Y-42163256D01*
X46137323Y-42169428D01*
X46137325Y-42169435D01*
X46191803Y-42337100D01*
X46191805Y-42337105D01*
X46193813Y-42343284D01*
X46248498Y-42438003D01*
X46265110Y-42500000D01*
X46248498Y-42561996D01*
X46193813Y-42656716D01*
X46191806Y-42662890D01*
X46191803Y-42662899D01*
X46137325Y-42830564D01*
X46137323Y-42830573D01*
X46135318Y-42836744D01*
X46134640Y-42843194D01*
X46134638Y-42843204D01*
X46116954Y-43011464D01*
X46115532Y-43025000D01*
X40712698Y-43025000D01*
X40712698Y-42966066D01*
X40748425Y-42908364D01*
X40872427Y-42795322D01*
X41003712Y-42621472D01*
X41100817Y-42426459D01*
X41160435Y-42216923D01*
X41180536Y-42000000D01*
X41160435Y-41783077D01*
X41100817Y-41573541D01*
X41003712Y-41378528D01*
X40872427Y-41204678D01*
X40868190Y-41200815D01*
X40868186Y-41200811D01*
X40748426Y-41091636D01*
X40712698Y-41033933D01*
X40712698Y-40966064D01*
X40748422Y-40908366D01*
X40872427Y-40795322D01*
X41003712Y-40621472D01*
X41100817Y-40426459D01*
X41160435Y-40216923D01*
X41180536Y-40000000D01*
X41160435Y-39783077D01*
X41100817Y-39573541D01*
X41003712Y-39378528D01*
X40872427Y-39204678D01*
X40748425Y-39091635D01*
X40712698Y-39033934D01*
X40712698Y-38966066D01*
X40748425Y-38908364D01*
X40872427Y-38795322D01*
X41003712Y-38621472D01*
X41100817Y-38426459D01*
X41160435Y-38216923D01*
X41180536Y-38000000D01*
X41160435Y-37783077D01*
X41100817Y-37573541D01*
X41003712Y-37378528D01*
X40872427Y-37204678D01*
X40748425Y-37091635D01*
X40712698Y-37033934D01*
X40712698Y-36966066D01*
X40748425Y-36908364D01*
X40872427Y-36795322D01*
X41003712Y-36621472D01*
X41100817Y-36426459D01*
X41160435Y-36216923D01*
X41180536Y-36000000D01*
X41160435Y-35783077D01*
X41100817Y-35573541D01*
X41003712Y-35378528D01*
X40872427Y-35204678D01*
X40868190Y-35200815D01*
X40868186Y-35200811D01*
X40748426Y-35091636D01*
X40712698Y-35033933D01*
X40712698Y-34966064D01*
X40748422Y-34908366D01*
X40872427Y-34795322D01*
X41003712Y-34621472D01*
X41100817Y-34426459D01*
X41160435Y-34216923D01*
X41180536Y-34000000D01*
X41160435Y-33783077D01*
X41100817Y-33573541D01*
X41003712Y-33378528D01*
X40872427Y-33204678D01*
X40748425Y-33091635D01*
X40712698Y-33033934D01*
X40712698Y-32966066D01*
X40748425Y-32908364D01*
X40872427Y-32795322D01*
X41003712Y-32621472D01*
X41100817Y-32426459D01*
X41160435Y-32216923D01*
X41180536Y-32000000D01*
X41160435Y-31783077D01*
X41100817Y-31573541D01*
X41003712Y-31378528D01*
X41000259Y-31373955D01*
X41000255Y-31373949D01*
X40922252Y-31270656D01*
X40898125Y-31210995D01*
X40907150Y-31147277D01*
X40946894Y-31096664D01*
X41032546Y-31032546D01*
X41118796Y-30917331D01*
X41169091Y-30782483D01*
X41175500Y-30722873D01*
X41175499Y-29277128D01*
X41169091Y-29217517D01*
X41118796Y-29082669D01*
X41032546Y-28967454D01*
X40973625Y-28923346D01*
X40924431Y-28886519D01*
X40924430Y-28886518D01*
X40917331Y-28881204D01*
X40782483Y-28830909D01*
X40774770Y-28830079D01*
X40774767Y-28830079D01*
X40726180Y-28824855D01*
X40726169Y-28824854D01*
X40722873Y-28824500D01*
X40719550Y-28824500D01*
X39280439Y-28824500D01*
X39280420Y-28824500D01*
X39277128Y-28824501D01*
X39273850Y-28824853D01*
X39273838Y-28824854D01*
X39225231Y-28830079D01*
X39225225Y-28830080D01*
X39217517Y-28830909D01*
X39210252Y-28833618D01*
X39210246Y-28833620D01*
X39090980Y-28878104D01*
X39090978Y-28878104D01*
X39082669Y-28881204D01*
X39075572Y-28886516D01*
X39075568Y-28886519D01*
X38974550Y-28962141D01*
X38974546Y-28962144D01*
X38967454Y-28967454D01*
X38962144Y-28974546D01*
X38962137Y-28974554D01*
X38905214Y-29050594D01*
X38851064Y-29091784D01*
X38783332Y-29098203D01*
X38722409Y-29067919D01*
X38715666Y-29061772D01*
X38711432Y-29057912D01*
X38706562Y-29054897D01*
X38706560Y-29054895D01*
X38531086Y-28946247D01*
X38531085Y-28946246D01*
X38526210Y-28943228D01*
X38520863Y-28941156D01*
X38520860Y-28941155D01*
X38328417Y-28866602D01*
X38328418Y-28866602D01*
X38323069Y-28864530D01*
X38317443Y-28863478D01*
X38317435Y-28863476D01*
X38114555Y-28825552D01*
X38114552Y-28825551D01*
X38108926Y-28824500D01*
X37891074Y-28824500D01*
X37885448Y-28825551D01*
X37885444Y-28825552D01*
X37682564Y-28863476D01*
X37682553Y-28863478D01*
X37676931Y-28864530D01*
X37671584Y-28866601D01*
X37671582Y-28866602D01*
X37479139Y-28941155D01*
X37479132Y-28941158D01*
X37473790Y-28943228D01*
X37468918Y-28946244D01*
X37468913Y-28946247D01*
X37293439Y-29054895D01*
X37293431Y-29054900D01*
X37288568Y-29057912D01*
X37284337Y-29061768D01*
X37284333Y-29061772D01*
X37131813Y-29200812D01*
X37131809Y-29200816D01*
X37127573Y-29204678D01*
X37124119Y-29209251D01*
X37124116Y-29209255D01*
X37000000Y-29373612D01*
X36996288Y-29378528D01*
X36993738Y-29383648D01*
X36993733Y-29383657D01*
X36901737Y-29568410D01*
X36901733Y-29568418D01*
X36899183Y-29573541D01*
X36839565Y-29783077D01*
X36819464Y-30000000D01*
X36839565Y-30216923D01*
X36899183Y-30426459D01*
X36901735Y-30431585D01*
X36901737Y-30431589D01*
X36993733Y-30616342D01*
X36993735Y-30616346D01*
X36996288Y-30621472D01*
X37127573Y-30795322D01*
X37131809Y-30799183D01*
X37131813Y-30799188D01*
X37251573Y-30908363D01*
X37287301Y-30966066D01*
X37287301Y-31033934D01*
X37251573Y-31091637D01*
X37131813Y-31200811D01*
X37131803Y-31200821D01*
X37127573Y-31204678D01*
X37124119Y-31209251D01*
X37124116Y-31209255D01*
X37061745Y-31291848D01*
X36996288Y-31378528D01*
X36993738Y-31383648D01*
X36993733Y-31383657D01*
X36901737Y-31568410D01*
X36901733Y-31568418D01*
X36899183Y-31573541D01*
X36839565Y-31783077D01*
X36819464Y-32000000D01*
X36839565Y-32216923D01*
X36899183Y-32426459D01*
X36901735Y-32431585D01*
X36901737Y-32431589D01*
X36993733Y-32616342D01*
X36993735Y-32616346D01*
X36996288Y-32621472D01*
X37127573Y-32795322D01*
X37131809Y-32799183D01*
X37131813Y-32799188D01*
X37251573Y-32908363D01*
X37287301Y-32966066D01*
X37287301Y-33033934D01*
X37251573Y-33091637D01*
X37131813Y-33200811D01*
X37131803Y-33200821D01*
X37127573Y-33204678D01*
X37124119Y-33209251D01*
X37124116Y-33209255D01*
X37061745Y-33291848D01*
X36996288Y-33378528D01*
X36993738Y-33383648D01*
X36993733Y-33383657D01*
X36901737Y-33568410D01*
X36901733Y-33568418D01*
X36899183Y-33573541D01*
X36839565Y-33783077D01*
X36819464Y-34000000D01*
X36839565Y-34216923D01*
X36899183Y-34426459D01*
X36901735Y-34431585D01*
X36901737Y-34431589D01*
X36993733Y-34616342D01*
X36993735Y-34616346D01*
X36996288Y-34621472D01*
X37127573Y-34795322D01*
X37251573Y-34908363D01*
X37287301Y-34966064D01*
X37287302Y-35033933D01*
X37251573Y-35091636D01*
X37127573Y-35204678D01*
X37124119Y-35209251D01*
X37124116Y-35209255D01*
X37061745Y-35291848D01*
X36996288Y-35378528D01*
X36993738Y-35383648D01*
X36993733Y-35383657D01*
X36901737Y-35568410D01*
X36901733Y-35568418D01*
X36899183Y-35573541D01*
X36839565Y-35783077D01*
X36819464Y-36000000D01*
X36839565Y-36216923D01*
X36899183Y-36426459D01*
X36901735Y-36431585D01*
X36901737Y-36431589D01*
X36993733Y-36616342D01*
X36993735Y-36616346D01*
X36996288Y-36621472D01*
X37127573Y-36795322D01*
X37251573Y-36908363D01*
X37287301Y-36966064D01*
X37287302Y-37033933D01*
X37251573Y-37091636D01*
X37127573Y-37204678D01*
X37124119Y-37209251D01*
X37124116Y-37209255D01*
X37061745Y-37291848D01*
X36996288Y-37378528D01*
X36993738Y-37383648D01*
X36993733Y-37383657D01*
X36901737Y-37568410D01*
X36901733Y-37568418D01*
X36899183Y-37573541D01*
X36839565Y-37783077D01*
X36819464Y-38000000D01*
X36839565Y-38216923D01*
X36899183Y-38426459D01*
X36901735Y-38431585D01*
X36901737Y-38431589D01*
X36993733Y-38616342D01*
X36993735Y-38616346D01*
X36996288Y-38621472D01*
X37127573Y-38795322D01*
X37131809Y-38799183D01*
X37131813Y-38799188D01*
X37251573Y-38908363D01*
X37287301Y-38966066D01*
X37287301Y-39033934D01*
X37251573Y-39091637D01*
X37131813Y-39200811D01*
X37131803Y-39200821D01*
X37127573Y-39204678D01*
X37124119Y-39209251D01*
X37124116Y-39209255D01*
X37061745Y-39291848D01*
X36996288Y-39378528D01*
X36993738Y-39383648D01*
X36993733Y-39383657D01*
X36901737Y-39568410D01*
X36901733Y-39568418D01*
X36899183Y-39573541D01*
X36839565Y-39783077D01*
X36819464Y-40000000D01*
X36839565Y-40216923D01*
X36899183Y-40426459D01*
X36901735Y-40431585D01*
X36901737Y-40431589D01*
X36993733Y-40616342D01*
X36993735Y-40616346D01*
X36996288Y-40621472D01*
X37127573Y-40795322D01*
X37251573Y-40908363D01*
X37287301Y-40966064D01*
X37287302Y-41033933D01*
X37251573Y-41091636D01*
X37127573Y-41204678D01*
X37124119Y-41209251D01*
X37124116Y-41209255D01*
X37053994Y-41302112D01*
X36996288Y-41378528D01*
X36993738Y-41383648D01*
X36993733Y-41383657D01*
X36901737Y-41568410D01*
X36901733Y-41568418D01*
X36899183Y-41573541D01*
X36839565Y-41783077D01*
X36839036Y-41788782D01*
X36839036Y-41788784D01*
X36822379Y-41968540D01*
X36819464Y-42000000D01*
X36819993Y-42005709D01*
X36835164Y-42169435D01*
X36839565Y-42216923D01*
X36899183Y-42426459D01*
X36901735Y-42431585D01*
X36901737Y-42431589D01*
X36993733Y-42616342D01*
X36993735Y-42616346D01*
X36996288Y-42621472D01*
X37127573Y-42795322D01*
X37251573Y-42908363D01*
X37287301Y-42966064D01*
X37287302Y-43033933D01*
X37251573Y-43091636D01*
X37127573Y-43204678D01*
X37124119Y-43209251D01*
X37124116Y-43209255D01*
X37061745Y-43291848D01*
X36996288Y-43378528D01*
X36993738Y-43383648D01*
X36993733Y-43383657D01*
X36901737Y-43568410D01*
X36901733Y-43568418D01*
X36899183Y-43573541D01*
X36839565Y-43783077D01*
X36839036Y-43788782D01*
X36839036Y-43788784D01*
X36830014Y-43886144D01*
X36819464Y-44000000D01*
X36839565Y-44216923D01*
X36899183Y-44426459D01*
X36901735Y-44431585D01*
X36901737Y-44431589D01*
X36993733Y-44616342D01*
X36993735Y-44616346D01*
X36996288Y-44621472D01*
X37127573Y-44795322D01*
X37131809Y-44799183D01*
X37131813Y-44799188D01*
X37251573Y-44908363D01*
X37287301Y-44966066D01*
X37287301Y-45033934D01*
X37251573Y-45091637D01*
X37131813Y-45200811D01*
X37131803Y-45200821D01*
X37127573Y-45204678D01*
X37124119Y-45209251D01*
X37124116Y-45209255D01*
X36999741Y-45373955D01*
X36996288Y-45378528D01*
X36993738Y-45383648D01*
X36993733Y-45383657D01*
X36901737Y-45568410D01*
X36901733Y-45568418D01*
X36899183Y-45573541D01*
X36839565Y-45783077D01*
X36819464Y-46000000D01*
X36839565Y-46216923D01*
X36899183Y-46426459D01*
X36901735Y-46431585D01*
X36901737Y-46431589D01*
X36993733Y-46616342D01*
X36993735Y-46616346D01*
X36996288Y-46621472D01*
X37127573Y-46795322D01*
X37131809Y-46799183D01*
X37131813Y-46799188D01*
X37251573Y-46908363D01*
X37287301Y-46966066D01*
X37287301Y-47033934D01*
X37251573Y-47091637D01*
X37131813Y-47200811D01*
X37131803Y-47200821D01*
X37127573Y-47204678D01*
X37124119Y-47209251D01*
X37124116Y-47209255D01*
X37061745Y-47291848D01*
X36996288Y-47378528D01*
X36993738Y-47383648D01*
X36993733Y-47383657D01*
X36901737Y-47568410D01*
X36901733Y-47568418D01*
X36899183Y-47573541D01*
X36839565Y-47783077D01*
X36819464Y-48000000D01*
X27500500Y-48000000D01*
X27500500Y-28743935D01*
X41745669Y-28743935D01*
X41776135Y-28916711D01*
X41845623Y-29077804D01*
X41849936Y-29083597D01*
X41849937Y-29083599D01*
X41895620Y-29144962D01*
X41950390Y-29218530D01*
X42084786Y-29331302D01*
X42241567Y-29410040D01*
X42412279Y-29450500D01*
X42540111Y-29450500D01*
X42543709Y-29450500D01*
X42674255Y-29435241D01*
X42839117Y-29375237D01*
X42985696Y-29278830D01*
X43106092Y-29151218D01*
X43193812Y-28999281D01*
X43244130Y-28831210D01*
X43254331Y-28656065D01*
X43223865Y-28483289D01*
X43154377Y-28322196D01*
X43049610Y-28181470D01*
X42977747Y-28121170D01*
X42920745Y-28073339D01*
X42920744Y-28073338D01*
X42915214Y-28068698D01*
X42822810Y-28022291D01*
X42764883Y-27993199D01*
X42764880Y-27993198D01*
X42758433Y-27989960D01*
X42751407Y-27988294D01*
X42751405Y-27988294D01*
X42594749Y-27951165D01*
X42594743Y-27951164D01*
X42587721Y-27949500D01*
X42456291Y-27949500D01*
X42452725Y-27949916D01*
X42452721Y-27949917D01*
X42332915Y-27963920D01*
X42332907Y-27963921D01*
X42325745Y-27964759D01*
X42318967Y-27967225D01*
X42318958Y-27967228D01*
X42167674Y-28022291D01*
X42167671Y-28022292D01*
X42160883Y-28024763D01*
X42154850Y-28028730D01*
X42154842Y-28028735D01*
X42020340Y-28117199D01*
X42020334Y-28117203D01*
X42014304Y-28121170D01*
X42009351Y-28126419D01*
X42009346Y-28126424D01*
X41898865Y-28243527D01*
X41898861Y-28243531D01*
X41893908Y-28248782D01*
X41890299Y-28255032D01*
X41890296Y-28255037D01*
X41809799Y-28394463D01*
X41809796Y-28394468D01*
X41806188Y-28400719D01*
X41804117Y-28407634D01*
X41804117Y-28407636D01*
X41757941Y-28561869D01*
X41757939Y-28561877D01*
X41755870Y-28568790D01*
X41755450Y-28575996D01*
X41755449Y-28576004D01*
X41746088Y-28736725D01*
X41746088Y-28736733D01*
X41745669Y-28743935D01*
X27500500Y-28743935D01*
X27500500Y-27606092D01*
X27501097Y-27593939D01*
X27509805Y-27505519D01*
X27514665Y-27456173D01*
X27519403Y-27432349D01*
X27557816Y-27305719D01*
X27567113Y-27283278D01*
X27629485Y-27166587D01*
X27642982Y-27146387D01*
X27726924Y-27044103D01*
X27744103Y-27026924D01*
X27846387Y-26942982D01*
X27866587Y-26929485D01*
X27983278Y-26867113D01*
X28005719Y-26857816D01*
X28132349Y-26819403D01*
X28156173Y-26814665D01*
X28285170Y-26801960D01*
X28293939Y-26801097D01*
X28306092Y-26800500D01*
X28339882Y-26800500D01*
X82960118Y-26800500D01*
X82993908Y-26800500D01*
X83006061Y-26801097D01*
G37*
%TD.AperFunction*%
%TA.AperFunction,Conductor*%
G36*
X81054264Y-69607710D02*
G01*
X81109983Y-69619553D01*
X81134639Y-69627564D01*
X81186677Y-69650733D01*
X81209124Y-69663692D01*
X81236180Y-69683348D01*
X81255222Y-69697183D01*
X81274483Y-69714526D01*
X81312599Y-69756857D01*
X81327836Y-69777829D01*
X81356320Y-69827165D01*
X81366864Y-69850847D01*
X81384468Y-69905027D01*
X81389858Y-69930385D01*
X81395812Y-69987039D01*
X81395812Y-70012959D01*
X81389858Y-70069613D01*
X81384468Y-70094971D01*
X81366864Y-70149151D01*
X81356319Y-70172834D01*
X81327834Y-70222170D01*
X81312599Y-70243140D01*
X81236273Y-70327910D01*
X81236271Y-70327912D01*
X81230212Y-70334642D01*
X81231187Y-70335520D01*
X81228971Y-70338838D01*
X81215547Y-70354556D01*
X81208552Y-70360954D01*
X81207235Y-70359865D01*
X81199432Y-70369295D01*
X81199427Y-70369301D01*
X81175715Y-70397962D01*
X81175703Y-70397977D01*
X81173228Y-70400970D01*
X81171149Y-70404244D01*
X81171140Y-70404258D01*
X81105330Y-70507953D01*
X81102793Y-70506343D01*
X81066381Y-70547591D01*
X80999946Y-70566856D01*
X80933528Y-70547534D01*
X80897217Y-70506332D01*
X80894669Y-70507950D01*
X80826768Y-70400964D01*
X80792760Y-70359859D01*
X80791440Y-70360950D01*
X80784430Y-70354538D01*
X80771040Y-70338860D01*
X80768809Y-70335522D01*
X80769788Y-70334642D01*
X80763713Y-70327895D01*
X80687398Y-70243138D01*
X80672161Y-70222167D01*
X80659924Y-70200972D01*
X80643674Y-70172826D01*
X80633136Y-70149155D01*
X80615529Y-70094969D01*
X80610140Y-70069613D01*
X80607305Y-70042641D01*
X80604186Y-70012959D01*
X80604186Y-69987039D01*
X80606157Y-69968284D01*
X80610141Y-69930379D01*
X80615530Y-69905027D01*
X80633137Y-69850839D01*
X80643674Y-69827172D01*
X80672165Y-69777824D01*
X80687393Y-69756864D01*
X80725519Y-69714521D01*
X80744770Y-69697187D01*
X80790874Y-69663691D01*
X80813322Y-69650732D01*
X80865361Y-69627563D01*
X80890014Y-69619553D01*
X80945735Y-69607709D01*
X80971515Y-69605000D01*
X81028484Y-69605000D01*
X81054264Y-69607710D01*
G37*
%TD.AperFunction*%
%TA.AperFunction,Conductor*%
G36*
X69554264Y-69607710D02*
G01*
X69609983Y-69619553D01*
X69634639Y-69627564D01*
X69686677Y-69650733D01*
X69709124Y-69663692D01*
X69736180Y-69683348D01*
X69755222Y-69697183D01*
X69774483Y-69714526D01*
X69812599Y-69756857D01*
X69827836Y-69777829D01*
X69856320Y-69827165D01*
X69866864Y-69850847D01*
X69884468Y-69905027D01*
X69889858Y-69930385D01*
X69895812Y-69987039D01*
X69895812Y-70012959D01*
X69889858Y-70069613D01*
X69884468Y-70094971D01*
X69866864Y-70149151D01*
X69856319Y-70172834D01*
X69827834Y-70222170D01*
X69812599Y-70243140D01*
X69736273Y-70327910D01*
X69736271Y-70327912D01*
X69730212Y-70334642D01*
X69731187Y-70335520D01*
X69728971Y-70338838D01*
X69715547Y-70354556D01*
X69708552Y-70360954D01*
X69707235Y-70359865D01*
X69699432Y-70369295D01*
X69699427Y-70369301D01*
X69675715Y-70397962D01*
X69675703Y-70397977D01*
X69673228Y-70400970D01*
X69671149Y-70404244D01*
X69671140Y-70404258D01*
X69605330Y-70507953D01*
X69602793Y-70506343D01*
X69566381Y-70547591D01*
X69499946Y-70566856D01*
X69433528Y-70547534D01*
X69397217Y-70506332D01*
X69394669Y-70507950D01*
X69326768Y-70400964D01*
X69292760Y-70359859D01*
X69291440Y-70360950D01*
X69284430Y-70354538D01*
X69271040Y-70338860D01*
X69268809Y-70335522D01*
X69269788Y-70334642D01*
X69263713Y-70327895D01*
X69187398Y-70243138D01*
X69172161Y-70222167D01*
X69159924Y-70200972D01*
X69143674Y-70172826D01*
X69133136Y-70149155D01*
X69115529Y-70094969D01*
X69110140Y-70069613D01*
X69107305Y-70042641D01*
X69104186Y-70012959D01*
X69104186Y-69987039D01*
X69106157Y-69968284D01*
X69110141Y-69930379D01*
X69115530Y-69905027D01*
X69133137Y-69850839D01*
X69143674Y-69827172D01*
X69172165Y-69777824D01*
X69187393Y-69756864D01*
X69225519Y-69714521D01*
X69244770Y-69697187D01*
X69290874Y-69663691D01*
X69313322Y-69650732D01*
X69365361Y-69627563D01*
X69390014Y-69619553D01*
X69445735Y-69607709D01*
X69471515Y-69605000D01*
X69528484Y-69605000D01*
X69554264Y-69607710D01*
G37*
%TD.AperFunction*%
%TA.AperFunction,Conductor*%
G36*
X54554264Y-68807710D02*
G01*
X54580117Y-68813205D01*
X54609973Y-68819551D01*
X54609983Y-68819553D01*
X54634639Y-68827564D01*
X54686677Y-68850733D01*
X54709124Y-68863692D01*
X54736180Y-68883348D01*
X54755222Y-68897183D01*
X54774483Y-68914526D01*
X54810235Y-68954232D01*
X54812599Y-68956857D01*
X54827837Y-68977830D01*
X54856321Y-69027167D01*
X54866864Y-69050847D01*
X54884467Y-69105022D01*
X54889857Y-69130380D01*
X54894930Y-69178650D01*
X54895734Y-69182206D01*
X54895737Y-69182220D01*
X54918312Y-69281983D01*
X54921159Y-69294566D01*
X54922375Y-69298000D01*
X54922378Y-69298010D01*
X54936503Y-69337894D01*
X54940486Y-69349141D01*
X54952307Y-69373109D01*
X54975695Y-69420534D01*
X54993048Y-69455719D01*
X54997721Y-69461337D01*
X54997724Y-69461342D01*
X55027118Y-69496682D01*
X55069037Y-69547082D01*
X55105440Y-69581625D01*
X55106562Y-69580442D01*
X55116319Y-69587531D01*
X55152662Y-69622016D01*
X55152667Y-69622020D01*
X55155605Y-69624808D01*
X55158877Y-69627185D01*
X55158884Y-69627191D01*
X55198583Y-69656033D01*
X55255220Y-69697182D01*
X55255222Y-69697183D01*
X55274484Y-69714526D01*
X55296043Y-69738470D01*
X55312599Y-69756858D01*
X55327834Y-69777828D01*
X55340342Y-69799493D01*
X55340346Y-69799498D01*
X55340347Y-69799499D01*
X55356320Y-69827165D01*
X55366863Y-69850845D01*
X55384468Y-69905026D01*
X55389858Y-69930385D01*
X55395812Y-69987039D01*
X55395812Y-70012959D01*
X55389858Y-70069613D01*
X55384468Y-70094971D01*
X55366864Y-70149151D01*
X55356319Y-70172834D01*
X55327834Y-70222170D01*
X55312599Y-70243140D01*
X55236273Y-70327910D01*
X55236271Y-70327912D01*
X55230212Y-70334642D01*
X55231187Y-70335520D01*
X55228971Y-70338838D01*
X55215547Y-70354556D01*
X55208552Y-70360954D01*
X55207235Y-70359865D01*
X55199432Y-70369295D01*
X55199427Y-70369301D01*
X55175715Y-70397962D01*
X55175703Y-70397977D01*
X55173228Y-70400970D01*
X55171149Y-70404244D01*
X55171140Y-70404258D01*
X55105330Y-70507953D01*
X55102793Y-70506343D01*
X55066381Y-70547591D01*
X54999946Y-70566856D01*
X54933528Y-70547534D01*
X54897217Y-70506332D01*
X54894669Y-70507950D01*
X54826768Y-70400964D01*
X54792760Y-70359859D01*
X54791440Y-70360950D01*
X54784430Y-70354538D01*
X54771039Y-70338859D01*
X54768809Y-70335521D01*
X54769788Y-70334641D01*
X54691818Y-70248047D01*
X54691817Y-70248047D01*
X54691813Y-70248043D01*
X54687394Y-70243135D01*
X54672161Y-70222167D01*
X54643678Y-70172833D01*
X54633137Y-70149156D01*
X54615531Y-70094973D01*
X54610140Y-70069613D01*
X54607305Y-70042641D01*
X54605067Y-70021340D01*
X54578838Y-69905430D01*
X54559511Y-69850856D01*
X54506954Y-69744286D01*
X54430971Y-69652928D01*
X54394569Y-69618384D01*
X54393445Y-69619567D01*
X54383659Y-69612457D01*
X54347333Y-69577980D01*
X54347329Y-69577977D01*
X54344395Y-69575192D01*
X54244769Y-69502810D01*
X54225515Y-69485473D01*
X54187397Y-69443139D01*
X54172162Y-69422169D01*
X54166143Y-69411744D01*
X54143676Y-69372829D01*
X54133136Y-69349155D01*
X54115529Y-69294969D01*
X54110140Y-69269613D01*
X54107358Y-69243145D01*
X54104186Y-69212959D01*
X54104186Y-69187039D01*
X54110141Y-69130379D01*
X54115530Y-69105027D01*
X54115532Y-69105022D01*
X54133137Y-69050839D01*
X54143674Y-69027172D01*
X54172165Y-68977824D01*
X54187393Y-68956864D01*
X54225519Y-68914521D01*
X54244765Y-68897191D01*
X54290884Y-68863684D01*
X54313315Y-68850735D01*
X54365364Y-68827560D01*
X54390017Y-68819551D01*
X54405101Y-68816346D01*
X54405106Y-68816343D01*
X54419875Y-68813205D01*
X54445738Y-68807709D01*
X54471513Y-68805000D01*
X54528484Y-68805000D01*
X54554264Y-68807710D01*
G37*
%TD.AperFunction*%
%TA.AperFunction,Conductor*%
G36*
X59854264Y-69407210D02*
G01*
X59875596Y-69411744D01*
X59905988Y-69418204D01*
X59909983Y-69419053D01*
X59934639Y-69427064D01*
X59986677Y-69450233D01*
X60009124Y-69463192D01*
X60036180Y-69482848D01*
X60055223Y-69496684D01*
X60074483Y-69514026D01*
X60106508Y-69549592D01*
X60112599Y-69556357D01*
X60127836Y-69577329D01*
X60156320Y-69626665D01*
X60166864Y-69650347D01*
X60184468Y-69704527D01*
X60189858Y-69729885D01*
X60195812Y-69786539D01*
X60195812Y-69812459D01*
X60189858Y-69869113D01*
X60184468Y-69894471D01*
X60166864Y-69948651D01*
X60156320Y-69972333D01*
X60127836Y-70021669D01*
X60112599Y-70042641D01*
X60074488Y-70084968D01*
X60055221Y-70102315D01*
X60009120Y-70135808D01*
X59986674Y-70148768D01*
X59877901Y-70197198D01*
X59877896Y-70197200D01*
X59874196Y-70198848D01*
X59870745Y-70200962D01*
X59870727Y-70200972D01*
X59864777Y-70204618D01*
X59799990Y-70222884D01*
X59735205Y-70204609D01*
X59729275Y-70200975D01*
X59729273Y-70200974D01*
X59725804Y-70198848D01*
X59722093Y-70197195D01*
X59722086Y-70197192D01*
X59632498Y-70157304D01*
X59613323Y-70148767D01*
X59590877Y-70135809D01*
X59544771Y-70102311D01*
X59525514Y-70084972D01*
X59487397Y-70042639D01*
X59472162Y-70021669D01*
X59461277Y-70002815D01*
X59443676Y-69972329D01*
X59433136Y-69948655D01*
X59415529Y-69894469D01*
X59410140Y-69869113D01*
X59408221Y-69850856D01*
X59404186Y-69812458D01*
X59404186Y-69786539D01*
X59404685Y-69781795D01*
X59410141Y-69729879D01*
X59415530Y-69704527D01*
X59417001Y-69700000D01*
X59433137Y-69650339D01*
X59443674Y-69626672D01*
X59472165Y-69577324D01*
X59487393Y-69556364D01*
X59525519Y-69514021D01*
X59544770Y-69496687D01*
X59590874Y-69463191D01*
X59613322Y-69450232D01*
X59665361Y-69427063D01*
X59690014Y-69419053D01*
X59745735Y-69407209D01*
X59771515Y-69404500D01*
X59828484Y-69404500D01*
X59854264Y-69407210D01*
G37*
%TD.AperFunction*%
%TA.AperFunction,Conductor*%
G36*
X49554264Y-66007710D02*
G01*
X49562220Y-66009401D01*
X49609973Y-66019551D01*
X49609983Y-66019553D01*
X49634639Y-66027564D01*
X49686677Y-66050733D01*
X49709124Y-66063692D01*
X49730214Y-66079014D01*
X49755223Y-66097184D01*
X49774483Y-66114526D01*
X49812599Y-66156857D01*
X49827836Y-66177829D01*
X49856320Y-66227165D01*
X49866864Y-66250847D01*
X49884468Y-66305027D01*
X49889858Y-66330385D01*
X49895812Y-66387039D01*
X49895812Y-66412959D01*
X49889858Y-66469613D01*
X49884468Y-66494971D01*
X49866864Y-66549151D01*
X49856321Y-66572832D01*
X49822312Y-66631738D01*
X49822308Y-66631745D01*
X49820285Y-66635250D01*
X49818737Y-66638984D01*
X49818732Y-66638997D01*
X49771341Y-66753410D01*
X49771341Y-66753411D01*
X49769786Y-66757166D01*
X49768736Y-66761082D01*
X49768734Y-66761090D01*
X49754223Y-66815245D01*
X49754221Y-66815254D01*
X49753173Y-66819166D01*
X49752644Y-66823177D01*
X49752642Y-66823192D01*
X49737009Y-66941938D01*
X49735948Y-66949997D01*
X49737009Y-66958057D01*
X49752640Y-67076800D01*
X49752641Y-67076809D01*
X49753171Y-67080829D01*
X49754219Y-67084741D01*
X49754221Y-67084750D01*
X49768730Y-67138899D01*
X49769783Y-67142828D01*
X49771331Y-67146565D01*
X49771333Y-67146571D01*
X49793464Y-67199999D01*
X49820285Y-67264750D01*
X49822315Y-67268266D01*
X49822317Y-67268270D01*
X49856320Y-67327164D01*
X49866864Y-67350846D01*
X49884468Y-67405025D01*
X49889858Y-67430383D01*
X49895812Y-67487039D01*
X49895812Y-67512960D01*
X49886142Y-67604971D01*
X49883889Y-67618811D01*
X49878237Y-67644335D01*
X49877876Y-67647281D01*
X49877876Y-67647284D01*
X49872838Y-67688448D01*
X49872836Y-67688465D01*
X49872477Y-67691405D01*
X49872401Y-67694374D01*
X49872400Y-67694389D01*
X49870147Y-67782513D01*
X49870147Y-67782520D01*
X49869995Y-67788486D01*
X49870985Y-67794366D01*
X49870986Y-67794375D01*
X49884065Y-67872033D01*
X49886123Y-67884250D01*
X49886898Y-67887130D01*
X49886901Y-67887141D01*
X49897678Y-67927160D01*
X49898455Y-67930044D01*
X49899502Y-67932832D01*
X49899503Y-67932835D01*
X49925783Y-68002814D01*
X49932596Y-68020954D01*
X49942102Y-68036401D01*
X49952440Y-68053200D01*
X49969961Y-68103498D01*
X49964765Y-68156506D01*
X49916333Y-68305564D01*
X49916331Y-68305573D01*
X49914326Y-68311744D01*
X49913648Y-68318194D01*
X49913646Y-68318204D01*
X49904779Y-68402578D01*
X49894540Y-68500000D01*
X49895219Y-68506460D01*
X49913646Y-68681795D01*
X49913647Y-68681803D01*
X49914326Y-68688256D01*
X49916331Y-68694428D01*
X49916333Y-68694435D01*
X49962862Y-68837634D01*
X49972821Y-68868284D01*
X49976068Y-68873908D01*
X49976069Y-68873910D01*
X50001532Y-68918013D01*
X50015435Y-68954232D01*
X50017466Y-68992975D01*
X50009265Y-69070995D01*
X50009265Y-69070997D01*
X50008927Y-69074216D01*
X50008927Y-69125784D01*
X50009264Y-69128994D01*
X50009265Y-69129004D01*
X50017466Y-69207023D01*
X50015436Y-69245765D01*
X50001533Y-69281983D01*
X49976070Y-69326087D01*
X49976067Y-69326093D01*
X49972821Y-69331716D01*
X49970815Y-69337888D01*
X49970813Y-69337894D01*
X49916333Y-69505564D01*
X49916331Y-69505573D01*
X49914326Y-69511744D01*
X49913648Y-69518194D01*
X49913646Y-69518204D01*
X49899751Y-69650421D01*
X49894540Y-69700000D01*
X49895219Y-69706460D01*
X49913646Y-69881795D01*
X49913647Y-69881803D01*
X49914326Y-69888256D01*
X49916331Y-69894428D01*
X49916333Y-69894435D01*
X49928761Y-69932682D01*
X49933303Y-69990398D01*
X49911148Y-70043885D01*
X49867125Y-70081485D01*
X49810830Y-70095000D01*
X49771518Y-70095000D01*
X49745736Y-70092290D01*
X49690012Y-70080445D01*
X49665358Y-70072434D01*
X49613321Y-70049265D01*
X49590873Y-70036305D01*
X49544777Y-70002815D01*
X49525511Y-69985468D01*
X49494306Y-69950811D01*
X49494304Y-69950809D01*
X49491809Y-69948038D01*
X49488997Y-69945585D01*
X49488990Y-69945578D01*
X49428448Y-69892763D01*
X49391710Y-69836634D01*
X49389581Y-69769585D01*
X49399902Y-69727804D01*
X49410141Y-69630376D01*
X49415528Y-69605035D01*
X49433137Y-69550839D01*
X49443676Y-69527169D01*
X49505243Y-69420534D01*
X49519604Y-69385858D01*
X49527525Y-69372543D01*
X49528795Y-69373109D01*
X49547374Y-69331378D01*
X49580027Y-69230875D01*
X49591073Y-69125780D01*
X49591073Y-69074220D01*
X49580028Y-68969127D01*
X49547376Y-68868626D01*
X49528797Y-68826894D01*
X49527526Y-68827459D01*
X49519588Y-68814113D01*
X49506797Y-68783219D01*
X49506796Y-68783217D01*
X49505243Y-68779466D01*
X49443678Y-68672833D01*
X49433135Y-68649153D01*
X49431299Y-68643503D01*
X49415529Y-68594968D01*
X49410140Y-68569613D01*
X49404186Y-68512959D01*
X49404186Y-68487039D01*
X49404351Y-68485468D01*
X49413830Y-68395275D01*
X49416092Y-68381396D01*
X49421712Y-68356074D01*
X49427485Y-68309218D01*
X49430078Y-68212584D01*
X49414229Y-68117224D01*
X49402071Y-68071606D01*
X49368355Y-67980997D01*
X49345258Y-67943137D01*
X49319550Y-67900997D01*
X49319546Y-67900992D01*
X49318005Y-67898465D01*
X49297209Y-67870740D01*
X49296915Y-67870960D01*
X49288818Y-67862333D01*
X49269788Y-67834642D01*
X49267075Y-67831629D01*
X49267068Y-67831620D01*
X49187398Y-67743138D01*
X49172161Y-67722167D01*
X49159362Y-67699999D01*
X49143674Y-67672826D01*
X49133136Y-67649155D01*
X49115529Y-67594969D01*
X49110140Y-67569613D01*
X49108240Y-67551538D01*
X49104186Y-67512959D01*
X49104186Y-67487039D01*
X49107358Y-67456856D01*
X49110141Y-67430375D01*
X49115527Y-67405036D01*
X49133137Y-67350838D01*
X49143679Y-67327164D01*
X49176907Y-67269613D01*
X49179716Y-67264747D01*
X49230216Y-67142828D01*
X49246828Y-67080829D01*
X49264051Y-66950000D01*
X49246828Y-66819171D01*
X49230216Y-66757172D01*
X49179716Y-66635253D01*
X49143676Y-66572830D01*
X49133136Y-66549157D01*
X49115528Y-66494966D01*
X49110141Y-66469621D01*
X49104186Y-66412959D01*
X49104186Y-66387040D01*
X49110140Y-66330385D01*
X49110141Y-66330375D01*
X49115531Y-66305020D01*
X49132027Y-66254253D01*
X49132029Y-66254245D01*
X49132977Y-66251328D01*
X49150520Y-66171161D01*
X49180572Y-66113529D01*
X49235652Y-66079016D01*
X49280042Y-66065551D01*
X49365373Y-66027557D01*
X49390003Y-66019555D01*
X49445742Y-66007708D01*
X49471515Y-66005000D01*
X49528484Y-66005000D01*
X49554264Y-66007710D01*
G37*
%TD.AperFunction*%
%TA.AperFunction,Conductor*%
G36*
X44879264Y-66807710D02*
G01*
X44913994Y-66815091D01*
X44933185Y-66819171D01*
X44934983Y-66819553D01*
X44959639Y-66827564D01*
X45011677Y-66850733D01*
X45034124Y-66863692D01*
X45061180Y-66883348D01*
X45080223Y-66897184D01*
X45099483Y-66914526D01*
X45131422Y-66949997D01*
X45137599Y-66956857D01*
X45152836Y-66977829D01*
X45181320Y-67027165D01*
X45191864Y-67050847D01*
X45209468Y-67105027D01*
X45214858Y-67130385D01*
X45220812Y-67187039D01*
X45220812Y-67212959D01*
X45214858Y-67269613D01*
X45209468Y-67294972D01*
X45191863Y-67349154D01*
X45181321Y-67372832D01*
X45163680Y-67403387D01*
X45163674Y-67403398D01*
X45161654Y-67406898D01*
X45160103Y-67410640D01*
X45160103Y-67410642D01*
X45112706Y-67525064D01*
X45112702Y-67525075D01*
X45111156Y-67528808D01*
X45110107Y-67532719D01*
X45110106Y-67532725D01*
X45095594Y-67586879D01*
X45095591Y-67586891D01*
X45094542Y-67590808D01*
X45094012Y-67594832D01*
X45094011Y-67594838D01*
X45080904Y-67694389D01*
X45077315Y-67721644D01*
X45078376Y-67729704D01*
X45094008Y-67848452D01*
X45094009Y-67848460D01*
X45094539Y-67852481D01*
X45095587Y-67856393D01*
X45095589Y-67856402D01*
X45103051Y-67884250D01*
X45111152Y-67914482D01*
X45112707Y-67918236D01*
X45112709Y-67918242D01*
X45161652Y-68036401D01*
X45161410Y-68036501D01*
X45165361Y-68046222D01*
X45184468Y-68105026D01*
X45189858Y-68130385D01*
X45195812Y-68187039D01*
X45195812Y-68212959D01*
X45189858Y-68269613D01*
X45184468Y-68294971D01*
X45166864Y-68349151D01*
X45156320Y-68372833D01*
X45127836Y-68422169D01*
X45112599Y-68443141D01*
X45074488Y-68485468D01*
X45055221Y-68502816D01*
X45009124Y-68536306D01*
X44986677Y-68549265D01*
X44934639Y-68572434D01*
X44909986Y-68580445D01*
X44872790Y-68588352D01*
X44854263Y-68592290D01*
X44828482Y-68595000D01*
X44771518Y-68595000D01*
X44745736Y-68592290D01*
X44690012Y-68580445D01*
X44665358Y-68572434D01*
X44613321Y-68549265D01*
X44590874Y-68536306D01*
X44544777Y-68502816D01*
X44525514Y-68485472D01*
X44487397Y-68443139D01*
X44472162Y-68422169D01*
X44460851Y-68402578D01*
X44443676Y-68372829D01*
X44433136Y-68349155D01*
X44415529Y-68294969D01*
X44410140Y-68269613D01*
X44404186Y-68212959D01*
X44404186Y-68187039D01*
X44407395Y-68156506D01*
X44410141Y-68130375D01*
X44415528Y-68105033D01*
X44433136Y-68050839D01*
X44443676Y-68027168D01*
X44463350Y-67993093D01*
X44513846Y-67871184D01*
X44530459Y-67809185D01*
X44547684Y-67678349D01*
X44536707Y-67594971D01*
X44530989Y-67551538D01*
X44530988Y-67551536D01*
X44530459Y-67547513D01*
X44513846Y-67485514D01*
X44463350Y-67363606D01*
X44463596Y-67363504D01*
X44459638Y-67353782D01*
X44440528Y-67294967D01*
X44435141Y-67269621D01*
X44429186Y-67212958D01*
X44429186Y-67187039D01*
X44435141Y-67130379D01*
X44440530Y-67105027D01*
X44458137Y-67050839D01*
X44468674Y-67027172D01*
X44497165Y-66977824D01*
X44512393Y-66956864D01*
X44550519Y-66914521D01*
X44569770Y-66897187D01*
X44615874Y-66863691D01*
X44638322Y-66850732D01*
X44690361Y-66827563D01*
X44715014Y-66819553D01*
X44770735Y-66807709D01*
X44796515Y-66805000D01*
X44853484Y-66805000D01*
X44879264Y-66807710D01*
G37*
%TD.AperFunction*%
%TA.AperFunction,Conductor*%
G36*
X60654264Y-65207213D02*
G01*
X60709983Y-65219056D01*
X60734639Y-65227067D01*
X60786677Y-65250236D01*
X60809124Y-65263195D01*
X60836180Y-65282851D01*
X60855223Y-65296687D01*
X60874483Y-65314029D01*
X60901622Y-65344169D01*
X60912599Y-65356360D01*
X60927836Y-65377332D01*
X60956320Y-65426668D01*
X60966864Y-65450350D01*
X60984468Y-65504530D01*
X60989858Y-65529888D01*
X60995812Y-65586543D01*
X60995812Y-65612463D01*
X60989858Y-65669120D01*
X60984467Y-65694480D01*
X60966864Y-65748654D01*
X60956323Y-65772331D01*
X60940351Y-65799997D01*
X60940348Y-65800002D01*
X60927838Y-65821669D01*
X60912603Y-65842638D01*
X60884093Y-65874302D01*
X60873183Y-65886419D01*
X60871285Y-65889030D01*
X60871282Y-65889035D01*
X60812087Y-65970511D01*
X60777479Y-66002783D01*
X60733302Y-66019741D01*
X60685989Y-66018915D01*
X60601009Y-66000852D01*
X60601004Y-66000851D01*
X60594646Y-65999500D01*
X60439188Y-65999500D01*
X60392737Y-65990471D01*
X60353050Y-65964698D01*
X60325908Y-65925935D01*
X60309479Y-65889035D01*
X60304172Y-65877114D01*
X60243675Y-65772330D01*
X60233134Y-65748654D01*
X60215528Y-65694469D01*
X60210141Y-65669124D01*
X60204186Y-65612462D01*
X60204186Y-65586542D01*
X60210141Y-65529882D01*
X60215530Y-65504530D01*
X60231155Y-65456442D01*
X60233137Y-65450342D01*
X60243674Y-65426675D01*
X60272165Y-65377327D01*
X60287393Y-65356367D01*
X60325519Y-65314024D01*
X60344770Y-65296690D01*
X60390874Y-65263194D01*
X60413322Y-65250235D01*
X60465361Y-65227066D01*
X60490014Y-65219056D01*
X60545735Y-65207212D01*
X60571515Y-65204503D01*
X60628484Y-65204503D01*
X60654264Y-65207213D01*
G37*
%TD.AperFunction*%
%TA.AperFunction,Conductor*%
G36*
X55554264Y-64207710D02*
G01*
X55609983Y-64219553D01*
X55634639Y-64227564D01*
X55686677Y-64250733D01*
X55709124Y-64263692D01*
X55732184Y-64280445D01*
X55755223Y-64297184D01*
X55774483Y-64314526D01*
X55812599Y-64356857D01*
X55827836Y-64377829D01*
X55856320Y-64427165D01*
X55866864Y-64450847D01*
X55884468Y-64505027D01*
X55889858Y-64530385D01*
X55895812Y-64587039D01*
X55895812Y-64612959D01*
X55889858Y-64669613D01*
X55884468Y-64694971D01*
X55866864Y-64749151D01*
X55856320Y-64772833D01*
X55827836Y-64822169D01*
X55812599Y-64843141D01*
X55774488Y-64885468D01*
X55755221Y-64902816D01*
X55709124Y-64936306D01*
X55686677Y-64949265D01*
X55634639Y-64972434D01*
X55609986Y-64980445D01*
X55572790Y-64988352D01*
X55554263Y-64992290D01*
X55528482Y-64995000D01*
X55471518Y-64995000D01*
X55445736Y-64992290D01*
X55390012Y-64980445D01*
X55365358Y-64972434D01*
X55313321Y-64949265D01*
X55290874Y-64936306D01*
X55244777Y-64902816D01*
X55225514Y-64885472D01*
X55187397Y-64843139D01*
X55172162Y-64822169D01*
X55143678Y-64772833D01*
X55133136Y-64749155D01*
X55115529Y-64694969D01*
X55110140Y-64669613D01*
X55104186Y-64612959D01*
X55104186Y-64587039D01*
X55110141Y-64530379D01*
X55115530Y-64505027D01*
X55133137Y-64450839D01*
X55143674Y-64427172D01*
X55172165Y-64377824D01*
X55187393Y-64356864D01*
X55225519Y-64314521D01*
X55244770Y-64297187D01*
X55290874Y-64263691D01*
X55313322Y-64250732D01*
X55365361Y-64227563D01*
X55390014Y-64219553D01*
X55445735Y-64207709D01*
X55471515Y-64205000D01*
X55528484Y-64205000D01*
X55554264Y-64207710D01*
G37*
%TD.AperFunction*%
%TA.AperFunction,Conductor*%
G36*
X51198715Y-63497043D02*
G01*
X51245201Y-63523881D01*
X51275989Y-63567851D01*
X51304007Y-63635494D01*
X51304010Y-63635501D01*
X51305563Y-63639249D01*
X51307590Y-63642760D01*
X51307595Y-63642770D01*
X51356320Y-63727163D01*
X51366864Y-63750845D01*
X51384468Y-63805025D01*
X51389858Y-63830383D01*
X51395812Y-63887039D01*
X51395812Y-63912959D01*
X51389858Y-63969613D01*
X51384468Y-63994971D01*
X51366864Y-64049151D01*
X51356320Y-64072833D01*
X51327836Y-64122169D01*
X51312599Y-64143141D01*
X51274488Y-64185468D01*
X51255221Y-64202816D01*
X51209124Y-64236306D01*
X51186677Y-64249265D01*
X51134639Y-64272434D01*
X51109986Y-64280445D01*
X51072790Y-64288352D01*
X51054263Y-64292290D01*
X51028482Y-64295000D01*
X50971518Y-64295000D01*
X50945736Y-64292290D01*
X50890012Y-64280445D01*
X50865358Y-64272434D01*
X50813321Y-64249265D01*
X50790874Y-64236306D01*
X50744777Y-64202816D01*
X50725514Y-64185472D01*
X50687397Y-64143139D01*
X50672162Y-64122169D01*
X50643678Y-64072833D01*
X50633136Y-64049155D01*
X50615529Y-63994969D01*
X50610140Y-63969613D01*
X50604186Y-63912959D01*
X50604186Y-63887039D01*
X50610141Y-63830379D01*
X50615530Y-63805027D01*
X50615531Y-63805025D01*
X50633137Y-63750839D01*
X50643674Y-63727172D01*
X50672165Y-63677824D01*
X50687393Y-63656864D01*
X50725519Y-63614521D01*
X50744770Y-63597187D01*
X50790874Y-63563691D01*
X50813322Y-63550732D01*
X50865361Y-63527563D01*
X50890014Y-63519553D01*
X50945735Y-63507709D01*
X50971515Y-63505000D01*
X51045221Y-63505000D01*
X51049274Y-63505000D01*
X51145243Y-63492365D01*
X51198715Y-63497043D01*
G37*
%TD.AperFunction*%
%TA.AperFunction,Conductor*%
G36*
X76886557Y-61192927D02*
G01*
X76932210Y-61241526D01*
X76985783Y-61343944D01*
X76985788Y-61343952D01*
X76987580Y-61347378D01*
X76989785Y-61350554D01*
X76989787Y-61350557D01*
X77020347Y-61394573D01*
X77020352Y-61394579D01*
X77022559Y-61397758D01*
X77106756Y-61491492D01*
X77211518Y-61561493D01*
X77214979Y-61563225D01*
X77214980Y-61563226D01*
X77220881Y-61566180D01*
X77264049Y-61601968D01*
X77287039Y-61653113D01*
X77285149Y-61709155D01*
X77266338Y-61779362D01*
X77264937Y-61784592D01*
X77264465Y-61789977D01*
X77264465Y-61789982D01*
X77249267Y-61963692D01*
X77244341Y-62020000D01*
X77244813Y-62025395D01*
X77262747Y-62230385D01*
X77264937Y-62255408D01*
X77266334Y-62260625D01*
X77266337Y-62260637D01*
X77285149Y-62330844D01*
X77287040Y-62386882D01*
X77264053Y-62438025D01*
X77220890Y-62473814D01*
X77214991Y-62476767D01*
X77214977Y-62476774D01*
X77211521Y-62478505D01*
X77208311Y-62480649D01*
X77208302Y-62480655D01*
X77114785Y-62543141D01*
X77106759Y-62548504D01*
X77101579Y-62554270D01*
X77101574Y-62554275D01*
X77025156Y-62639349D01*
X77025148Y-62639358D01*
X77022562Y-62642238D01*
X77020353Y-62645418D01*
X77020347Y-62645427D01*
X76989795Y-62689429D01*
X76989784Y-62689445D01*
X76987583Y-62692617D01*
X76985787Y-62696050D01*
X76985783Y-62696057D01*
X76930974Y-62800835D01*
X76930969Y-62800844D01*
X76929180Y-62804266D01*
X76927832Y-62807878D01*
X76927827Y-62807891D01*
X76925898Y-62813064D01*
X76897401Y-62857401D01*
X76853064Y-62885898D01*
X76847891Y-62887827D01*
X76847878Y-62887832D01*
X76844266Y-62889180D01*
X76840844Y-62890969D01*
X76840835Y-62890974D01*
X76736057Y-62945783D01*
X76736050Y-62945787D01*
X76732617Y-62947583D01*
X76729445Y-62949784D01*
X76729429Y-62949795D01*
X76685427Y-62980347D01*
X76685418Y-62980353D01*
X76682238Y-62982562D01*
X76679358Y-62985148D01*
X76679349Y-62985156D01*
X76594275Y-63061574D01*
X76594270Y-63061579D01*
X76588504Y-63066759D01*
X76584195Y-63073207D01*
X76584194Y-63073209D01*
X76520655Y-63168302D01*
X76520649Y-63168311D01*
X76518505Y-63171521D01*
X76516774Y-63174977D01*
X76516767Y-63174991D01*
X76513814Y-63180890D01*
X76478025Y-63224053D01*
X76426882Y-63247040D01*
X76370844Y-63245149D01*
X76300637Y-63226337D01*
X76300625Y-63226334D01*
X76295408Y-63224937D01*
X76290020Y-63224465D01*
X76290017Y-63224465D01*
X76065395Y-63204813D01*
X76060000Y-63204341D01*
X76054605Y-63204813D01*
X75829982Y-63224465D01*
X75829977Y-63224465D01*
X75824592Y-63224937D01*
X75819365Y-63226337D01*
X75819362Y-63226338D01*
X75749155Y-63245149D01*
X75693113Y-63247039D01*
X75641968Y-63224049D01*
X75606180Y-63180881D01*
X75603226Y-63174980D01*
X75603225Y-63174979D01*
X75601493Y-63171518D01*
X75531492Y-63066756D01*
X75437758Y-62982559D01*
X75434579Y-62980352D01*
X75434573Y-62980347D01*
X75390557Y-62949787D01*
X75390554Y-62949785D01*
X75387378Y-62947580D01*
X75383952Y-62945788D01*
X75383944Y-62945783D01*
X75281526Y-62892210D01*
X75232927Y-62846557D01*
X75215000Y-62782334D01*
X75215000Y-61299000D01*
X75231613Y-61237000D01*
X75277000Y-61191613D01*
X75339000Y-61175000D01*
X76822334Y-61175000D01*
X76886557Y-61192927D01*
G37*
%TD.AperFunction*%
%TA.AperFunction,Conductor*%
G36*
X51954264Y-61907710D02*
G01*
X52009983Y-61919553D01*
X52034639Y-61927564D01*
X52086677Y-61950733D01*
X52109124Y-61963692D01*
X52136180Y-61983348D01*
X52155223Y-61997184D01*
X52174483Y-62014526D01*
X52212599Y-62056857D01*
X52227836Y-62077829D01*
X52256320Y-62127165D01*
X52266864Y-62150847D01*
X52284468Y-62205027D01*
X52289858Y-62230385D01*
X52295812Y-62287039D01*
X52295812Y-62312959D01*
X52289858Y-62369613D01*
X52284468Y-62394971D01*
X52266864Y-62449151D01*
X52256320Y-62472833D01*
X52227836Y-62522169D01*
X52212599Y-62543141D01*
X52174488Y-62585468D01*
X52155221Y-62602816D01*
X52109124Y-62636306D01*
X52086677Y-62649265D01*
X52034639Y-62672434D01*
X52009986Y-62680445D01*
X51972790Y-62688352D01*
X51954263Y-62692290D01*
X51928482Y-62695000D01*
X51850726Y-62695000D01*
X51846711Y-62695528D01*
X51846704Y-62695529D01*
X51754756Y-62707634D01*
X51701283Y-62702956D01*
X51654797Y-62676117D01*
X51624010Y-62632147D01*
X51595994Y-62564510D01*
X51594437Y-62560751D01*
X51543674Y-62472827D01*
X51533136Y-62449158D01*
X51515528Y-62394967D01*
X51510141Y-62369621D01*
X51504186Y-62312959D01*
X51504186Y-62287039D01*
X51506961Y-62260637D01*
X51510141Y-62230379D01*
X51515530Y-62205027D01*
X51533137Y-62150839D01*
X51543674Y-62127172D01*
X51572165Y-62077824D01*
X51587393Y-62056864D01*
X51625519Y-62014521D01*
X51644770Y-61997187D01*
X51690874Y-61963691D01*
X51713322Y-61950732D01*
X51765361Y-61927563D01*
X51790014Y-61919553D01*
X51845735Y-61907709D01*
X51871515Y-61905000D01*
X51928484Y-61905000D01*
X51954264Y-61907710D01*
G37*
%TD.AperFunction*%
%TA.AperFunction,Conductor*%
G36*
X56054264Y-61907710D02*
G01*
X56109983Y-61919553D01*
X56134639Y-61927564D01*
X56186677Y-61950733D01*
X56209124Y-61963692D01*
X56236180Y-61983348D01*
X56255223Y-61997184D01*
X56274483Y-62014526D01*
X56312599Y-62056857D01*
X56327836Y-62077829D01*
X56356320Y-62127165D01*
X56366864Y-62150847D01*
X56384468Y-62205027D01*
X56389858Y-62230385D01*
X56395812Y-62287039D01*
X56395812Y-62312959D01*
X56389858Y-62369613D01*
X56384468Y-62394971D01*
X56366864Y-62449151D01*
X56356320Y-62472833D01*
X56327836Y-62522169D01*
X56312599Y-62543141D01*
X56274488Y-62585468D01*
X56255221Y-62602816D01*
X56209124Y-62636306D01*
X56186677Y-62649265D01*
X56134639Y-62672434D01*
X56109986Y-62680445D01*
X56072790Y-62688352D01*
X56054263Y-62692290D01*
X56028482Y-62695000D01*
X55971518Y-62695000D01*
X55945736Y-62692290D01*
X55890012Y-62680445D01*
X55865358Y-62672434D01*
X55813321Y-62649265D01*
X55790874Y-62636306D01*
X55744777Y-62602816D01*
X55725514Y-62585472D01*
X55687397Y-62543139D01*
X55672162Y-62522169D01*
X55646953Y-62478505D01*
X55643676Y-62472829D01*
X55633135Y-62449153D01*
X55615529Y-62394969D01*
X55610140Y-62369617D01*
X55604186Y-62312959D01*
X55604186Y-62287039D01*
X55606961Y-62260637D01*
X55610141Y-62230379D01*
X55615530Y-62205027D01*
X55633137Y-62150839D01*
X55643674Y-62127172D01*
X55672165Y-62077824D01*
X55687393Y-62056864D01*
X55725519Y-62014521D01*
X55744770Y-61997187D01*
X55790874Y-61963691D01*
X55813322Y-61950732D01*
X55865361Y-61927563D01*
X55890014Y-61919553D01*
X55945735Y-61907709D01*
X55971515Y-61905000D01*
X56028484Y-61905000D01*
X56054264Y-61907710D01*
G37*
%TD.AperFunction*%
%TA.AperFunction,Conductor*%
G36*
X81054264Y-58607710D02*
G01*
X81109983Y-58619553D01*
X81134639Y-58627564D01*
X81186677Y-58650733D01*
X81209124Y-58663692D01*
X81236180Y-58683348D01*
X81255223Y-58697184D01*
X81274483Y-58714526D01*
X81312599Y-58756857D01*
X81312600Y-58756858D01*
X81327835Y-58777827D01*
X81339516Y-58798059D01*
X81341260Y-58800500D01*
X81341265Y-58800508D01*
X81361157Y-58828353D01*
X81396265Y-58877497D01*
X81398247Y-58879770D01*
X81399834Y-58881779D01*
X81425763Y-58944814D01*
X81414461Y-59012031D01*
X81406664Y-59028378D01*
X81406661Y-59028386D01*
X81404915Y-59032047D01*
X81403663Y-59035899D01*
X81403661Y-59035905D01*
X81366864Y-59149152D01*
X81356321Y-59172831D01*
X81327837Y-59222168D01*
X81312599Y-59243141D01*
X81274488Y-59285468D01*
X81255221Y-59302816D01*
X81209124Y-59336306D01*
X81186677Y-59349265D01*
X81134639Y-59372434D01*
X81109986Y-59380445D01*
X81072790Y-59388352D01*
X81054263Y-59392290D01*
X81028482Y-59395000D01*
X80971518Y-59395000D01*
X80945736Y-59392290D01*
X80890012Y-59380445D01*
X80865358Y-59372434D01*
X80813321Y-59349265D01*
X80790874Y-59336306D01*
X80744777Y-59302816D01*
X80725514Y-59285472D01*
X80687397Y-59243139D01*
X80672161Y-59222167D01*
X80643677Y-59172829D01*
X80633134Y-59149149D01*
X80624367Y-59122167D01*
X80595085Y-59032047D01*
X80585538Y-59012029D01*
X80574236Y-58944809D01*
X80600170Y-58881772D01*
X80601743Y-58879780D01*
X80603724Y-58877509D01*
X80660482Y-58798061D01*
X80672161Y-58777831D01*
X80687394Y-58756863D01*
X80725514Y-58714526D01*
X80744771Y-58697187D01*
X80790875Y-58663690D01*
X80813322Y-58650732D01*
X80865361Y-58627563D01*
X80890014Y-58619553D01*
X80945735Y-58607709D01*
X80971515Y-58605000D01*
X81028484Y-58605000D01*
X81054264Y-58607710D01*
G37*
%TD.AperFunction*%
%TA.AperFunction,Conductor*%
G36*
X50054264Y-58507710D02*
G01*
X50109983Y-58519553D01*
X50134639Y-58527564D01*
X50186677Y-58550733D01*
X50209124Y-58563692D01*
X50236180Y-58583348D01*
X50255223Y-58597184D01*
X50274483Y-58614526D01*
X50307084Y-58650732D01*
X50312600Y-58656858D01*
X50327836Y-58677829D01*
X50389403Y-58784466D01*
X50403477Y-58802806D01*
X50428582Y-58866935D01*
X50415939Y-58932790D01*
X50416245Y-58932927D01*
X50414934Y-58935870D01*
X50414925Y-58935889D01*
X50374583Y-59026498D01*
X50373258Y-59029475D01*
X50372256Y-59032557D01*
X50372247Y-59032582D01*
X50366861Y-59049158D01*
X50356320Y-59072834D01*
X50327838Y-59122167D01*
X50312600Y-59143140D01*
X50274488Y-59185468D01*
X50255221Y-59202816D01*
X50209124Y-59236306D01*
X50186677Y-59249265D01*
X50134639Y-59272434D01*
X50109986Y-59280445D01*
X50072790Y-59288352D01*
X50054263Y-59292290D01*
X50028482Y-59295000D01*
X49971518Y-59295000D01*
X49945736Y-59292290D01*
X49890012Y-59280445D01*
X49865358Y-59272434D01*
X49813321Y-59249265D01*
X49790874Y-59236306D01*
X49744777Y-59202816D01*
X49725514Y-59185471D01*
X49692809Y-59149149D01*
X49687399Y-59143140D01*
X49672164Y-59122170D01*
X49643678Y-59072832D01*
X49633132Y-59049145D01*
X49627744Y-59032563D01*
X49626739Y-59029469D01*
X49583759Y-58932934D01*
X49584064Y-58932798D01*
X49571418Y-58866936D01*
X49596527Y-58802800D01*
X49600166Y-58798059D01*
X49610597Y-58784466D01*
X49672163Y-58677827D01*
X49687393Y-58656864D01*
X49725519Y-58614521D01*
X49744770Y-58597187D01*
X49790874Y-58563691D01*
X49813322Y-58550732D01*
X49865361Y-58527563D01*
X49890014Y-58519553D01*
X49945735Y-58507709D01*
X49971515Y-58505000D01*
X50028484Y-58505000D01*
X50054264Y-58507710D01*
G37*
%TD.AperFunction*%
%TA.AperFunction,Conductor*%
G36*
X69354264Y-55907710D02*
G01*
X69409983Y-55919553D01*
X69434639Y-55927564D01*
X69486677Y-55950733D01*
X69509124Y-55963692D01*
X69536180Y-55983348D01*
X69555223Y-55997184D01*
X69574483Y-56014526D01*
X69612599Y-56056857D01*
X69627836Y-56077829D01*
X69656320Y-56127165D01*
X69666864Y-56150847D01*
X69684468Y-56205027D01*
X69689858Y-56230385D01*
X69695812Y-56287039D01*
X69695812Y-56312961D01*
X69689857Y-56369619D01*
X69684468Y-56394972D01*
X69668608Y-56443789D01*
X69668598Y-56443820D01*
X69666857Y-56449174D01*
X69656323Y-56472826D01*
X69627837Y-56522167D01*
X69612598Y-56543142D01*
X69574486Y-56585469D01*
X69555221Y-56602815D01*
X69509125Y-56636305D01*
X69486677Y-56649265D01*
X69434639Y-56672434D01*
X69409986Y-56680445D01*
X69372790Y-56688352D01*
X69354263Y-56692290D01*
X69328482Y-56695000D01*
X69271518Y-56695000D01*
X69245736Y-56692290D01*
X69190012Y-56680445D01*
X69165358Y-56672434D01*
X69113321Y-56649265D01*
X69090874Y-56636306D01*
X69044777Y-56602816D01*
X69025514Y-56585472D01*
X68987397Y-56543139D01*
X68972162Y-56522169D01*
X68943678Y-56472833D01*
X68933136Y-56449155D01*
X68915529Y-56394969D01*
X68910140Y-56369613D01*
X68904186Y-56312959D01*
X68904186Y-56287039D01*
X68910141Y-56230379D01*
X68915530Y-56205027D01*
X68933137Y-56150839D01*
X68943674Y-56127172D01*
X68972165Y-56077824D01*
X68987393Y-56056864D01*
X69025519Y-56014521D01*
X69044770Y-55997187D01*
X69090874Y-55963691D01*
X69113322Y-55950732D01*
X69165361Y-55927563D01*
X69190014Y-55919553D01*
X69245735Y-55907709D01*
X69271515Y-55905000D01*
X69328484Y-55905000D01*
X69354264Y-55907710D01*
G37*
%TD.AperFunction*%
%TA.AperFunction,Conductor*%
G36*
X47054264Y-54607710D02*
G01*
X47109983Y-54619553D01*
X47134639Y-54627564D01*
X47186677Y-54650733D01*
X47209124Y-54663692D01*
X47236180Y-54683348D01*
X47255223Y-54697184D01*
X47274483Y-54714526D01*
X47312599Y-54756857D01*
X47327837Y-54777831D01*
X47356321Y-54827169D01*
X47366863Y-54850847D01*
X47382834Y-54899998D01*
X47382836Y-54900010D01*
X47382838Y-54900010D01*
X47384471Y-54905037D01*
X47389857Y-54930381D01*
X47392218Y-54952836D01*
X47392219Y-54952844D01*
X47395812Y-54987039D01*
X47395812Y-55012957D01*
X47389858Y-55069613D01*
X47384468Y-55094971D01*
X47366864Y-55149151D01*
X47356320Y-55172833D01*
X47327836Y-55222169D01*
X47312599Y-55243141D01*
X47274488Y-55285468D01*
X47255221Y-55302816D01*
X47209124Y-55336306D01*
X47186677Y-55349265D01*
X47134639Y-55372434D01*
X47109986Y-55380445D01*
X47072790Y-55388352D01*
X47054263Y-55392290D01*
X47028482Y-55395000D01*
X46971518Y-55395000D01*
X46945736Y-55392290D01*
X46890012Y-55380445D01*
X46865358Y-55372434D01*
X46813321Y-55349265D01*
X46790874Y-55336306D01*
X46744777Y-55302816D01*
X46725514Y-55285472D01*
X46687397Y-55243139D01*
X46672162Y-55222169D01*
X46643678Y-55172833D01*
X46633136Y-55149155D01*
X46615529Y-55094969D01*
X46610140Y-55069613D01*
X46604186Y-55012959D01*
X46604186Y-54987039D01*
X46607780Y-54952844D01*
X46610141Y-54930379D01*
X46615530Y-54905027D01*
X46633137Y-54850839D01*
X46643674Y-54827172D01*
X46672165Y-54777824D01*
X46687393Y-54756864D01*
X46725519Y-54714521D01*
X46744770Y-54697187D01*
X46790874Y-54663691D01*
X46813322Y-54650732D01*
X46865361Y-54627563D01*
X46890014Y-54619553D01*
X46945735Y-54607709D01*
X46971515Y-54605000D01*
X47028484Y-54605000D01*
X47054264Y-54607710D01*
G37*
%TD.AperFunction*%
%TA.AperFunction,Conductor*%
G36*
X57454264Y-53807710D02*
G01*
X57509983Y-53819553D01*
X57534639Y-53827564D01*
X57586677Y-53850733D01*
X57609124Y-53863692D01*
X57636180Y-53883348D01*
X57655223Y-53897184D01*
X57674484Y-53914526D01*
X57699298Y-53942085D01*
X57712601Y-53956860D01*
X57727835Y-53977827D01*
X57740637Y-54000000D01*
X57740639Y-54000003D01*
X57756321Y-54027167D01*
X57766862Y-54050844D01*
X57784467Y-54105024D01*
X57789858Y-54130384D01*
X57795812Y-54187039D01*
X57795812Y-54212959D01*
X57789858Y-54269613D01*
X57784468Y-54294971D01*
X57766864Y-54349151D01*
X57756320Y-54372833D01*
X57727836Y-54422169D01*
X57712599Y-54443141D01*
X57674488Y-54485468D01*
X57655221Y-54502816D01*
X57609124Y-54536306D01*
X57586677Y-54549265D01*
X57534639Y-54572434D01*
X57509986Y-54580445D01*
X57472790Y-54588352D01*
X57454263Y-54592290D01*
X57428482Y-54595000D01*
X57371518Y-54595000D01*
X57345736Y-54592290D01*
X57290012Y-54580445D01*
X57265358Y-54572434D01*
X57213321Y-54549265D01*
X57190874Y-54536306D01*
X57144777Y-54502816D01*
X57125514Y-54485472D01*
X57087397Y-54443139D01*
X57072162Y-54422169D01*
X57056476Y-54395000D01*
X57043676Y-54372829D01*
X57033136Y-54349155D01*
X57015529Y-54294969D01*
X57010140Y-54269613D01*
X57004186Y-54212959D01*
X57004186Y-54187039D01*
X57008168Y-54149151D01*
X57010141Y-54130379D01*
X57015530Y-54105027D01*
X57015531Y-54105024D01*
X57033137Y-54050839D01*
X57043674Y-54027172D01*
X57072165Y-53977824D01*
X57087393Y-53956864D01*
X57125519Y-53914521D01*
X57144770Y-53897187D01*
X57190874Y-53863691D01*
X57213322Y-53850732D01*
X57265361Y-53827563D01*
X57290014Y-53819553D01*
X57345735Y-53807709D01*
X57371515Y-53805000D01*
X57428484Y-53805000D01*
X57454264Y-53807710D01*
G37*
%TD.AperFunction*%
%TA.AperFunction,Conductor*%
G36*
X81054264Y-53607710D02*
G01*
X81109983Y-53619553D01*
X81134639Y-53627564D01*
X81186677Y-53650733D01*
X81209124Y-53663692D01*
X81236180Y-53683348D01*
X81255223Y-53697184D01*
X81274483Y-53714526D01*
X81312599Y-53756857D01*
X81327836Y-53777829D01*
X81356320Y-53827165D01*
X81366864Y-53850847D01*
X81384468Y-53905027D01*
X81389858Y-53930385D01*
X81395812Y-53987039D01*
X81395812Y-54012959D01*
X81389858Y-54069613D01*
X81384468Y-54094971D01*
X81366864Y-54149151D01*
X81356320Y-54172833D01*
X81327836Y-54222169D01*
X81312599Y-54243141D01*
X81274488Y-54285468D01*
X81255221Y-54302816D01*
X81209124Y-54336306D01*
X81186677Y-54349265D01*
X81134639Y-54372434D01*
X81109986Y-54380445D01*
X81072790Y-54388352D01*
X81054263Y-54392290D01*
X81028482Y-54395000D01*
X80971518Y-54395000D01*
X80945736Y-54392290D01*
X80890012Y-54380445D01*
X80865358Y-54372434D01*
X80813321Y-54349265D01*
X80790874Y-54336306D01*
X80744777Y-54302816D01*
X80725514Y-54285472D01*
X80687397Y-54243139D01*
X80672162Y-54222169D01*
X80643678Y-54172833D01*
X80633136Y-54149155D01*
X80615529Y-54094969D01*
X80610140Y-54069613D01*
X80608167Y-54050844D01*
X80604186Y-54012959D01*
X80604186Y-53987039D01*
X80607358Y-53956857D01*
X80610141Y-53930379D01*
X80615530Y-53905027D01*
X80618079Y-53897182D01*
X80633137Y-53850839D01*
X80643674Y-53827172D01*
X80672165Y-53777824D01*
X80687393Y-53756864D01*
X80725519Y-53714521D01*
X80744770Y-53697187D01*
X80790874Y-53663691D01*
X80813322Y-53650732D01*
X80865361Y-53627563D01*
X80890014Y-53619553D01*
X80945735Y-53607709D01*
X80971515Y-53605000D01*
X81028484Y-53605000D01*
X81054264Y-53607710D01*
G37*
%TD.AperFunction*%
%TA.AperFunction,Conductor*%
G36*
X60954257Y-51407708D02*
G01*
X61009995Y-51419555D01*
X61034635Y-51427561D01*
X61086685Y-51450735D01*
X61109132Y-51463696D01*
X61155215Y-51497178D01*
X61174478Y-51514522D01*
X61212599Y-51556859D01*
X61227836Y-51577829D01*
X61256320Y-51627165D01*
X61266864Y-51650847D01*
X61284468Y-51705027D01*
X61289858Y-51730385D01*
X61295812Y-51787039D01*
X61295812Y-51812959D01*
X61289858Y-51869613D01*
X61284468Y-51894971D01*
X61266864Y-51949151D01*
X61256320Y-51972833D01*
X61227836Y-52022169D01*
X61212599Y-52043141D01*
X61174488Y-52085468D01*
X61155221Y-52102816D01*
X61109124Y-52136306D01*
X61086677Y-52149265D01*
X61034639Y-52172434D01*
X61009986Y-52180445D01*
X60972790Y-52188352D01*
X60954263Y-52192290D01*
X60928482Y-52195000D01*
X60871518Y-52195000D01*
X60845736Y-52192290D01*
X60790012Y-52180445D01*
X60765358Y-52172434D01*
X60713321Y-52149265D01*
X60690874Y-52136306D01*
X60644777Y-52102816D01*
X60625514Y-52085472D01*
X60587397Y-52043139D01*
X60572162Y-52022169D01*
X60543678Y-51972833D01*
X60533136Y-51949155D01*
X60515529Y-51894969D01*
X60510140Y-51869613D01*
X60504186Y-51812959D01*
X60504186Y-51787039D01*
X60510141Y-51730379D01*
X60515530Y-51705027D01*
X60533137Y-51650839D01*
X60543674Y-51627172D01*
X60572165Y-51577824D01*
X60587398Y-51556859D01*
X60625519Y-51514521D01*
X60644770Y-51497187D01*
X60690874Y-51463691D01*
X60713322Y-51450732D01*
X60765361Y-51427563D01*
X60790014Y-51419553D01*
X60845735Y-51407709D01*
X60871515Y-51405000D01*
X60928484Y-51405000D01*
X60954257Y-51407708D01*
G37*
%TD.AperFunction*%
%TA.AperFunction,Conductor*%
G36*
X49078486Y-59110720D02*
G01*
X49120201Y-59141028D01*
X49145981Y-59185681D01*
X49172821Y-59268284D01*
X49267467Y-59432216D01*
X49394129Y-59572888D01*
X49547270Y-59684151D01*
X49720197Y-59761144D01*
X49905354Y-59800500D01*
X50088143Y-59800500D01*
X50094646Y-59800500D01*
X50279803Y-59761144D01*
X50452730Y-59684151D01*
X50605871Y-59572888D01*
X50732533Y-59432216D01*
X50827179Y-59268284D01*
X50854018Y-59185681D01*
X50879799Y-59141028D01*
X50921514Y-59110720D01*
X50971949Y-59100000D01*
X54300000Y-59100000D01*
X54300000Y-68321893D01*
X54226559Y-68337503D01*
X54226552Y-68337505D01*
X54220197Y-68338856D01*
X54214262Y-68341498D01*
X54214254Y-68341501D01*
X54053207Y-68413205D01*
X54053202Y-68413207D01*
X54047270Y-68415849D01*
X54042016Y-68419665D01*
X54042011Y-68419669D01*
X53899388Y-68523290D01*
X53899381Y-68523295D01*
X53894129Y-68527112D01*
X53889784Y-68531937D01*
X53889779Y-68531942D01*
X53771813Y-68662956D01*
X53771808Y-68662962D01*
X53767467Y-68667784D01*
X53764222Y-68673404D01*
X53764218Y-68673410D01*
X53676069Y-68826089D01*
X53676066Y-68826094D01*
X53672821Y-68831716D01*
X53670815Y-68837888D01*
X53670813Y-68837894D01*
X53616333Y-69005564D01*
X53616331Y-69005573D01*
X53614326Y-69011744D01*
X53613648Y-69018194D01*
X53613646Y-69018204D01*
X53605050Y-69100000D01*
X53594540Y-69200000D01*
X53595219Y-69206460D01*
X53613646Y-69381795D01*
X53613647Y-69381803D01*
X53614326Y-69388256D01*
X53616331Y-69394428D01*
X53616333Y-69394435D01*
X53654450Y-69511744D01*
X53672821Y-69568284D01*
X53767467Y-69732216D01*
X53771811Y-69737041D01*
X53771813Y-69737043D01*
X53889779Y-69868057D01*
X53894129Y-69872888D01*
X53899387Y-69876708D01*
X53899388Y-69876709D01*
X54047270Y-69984151D01*
X54046607Y-69985062D01*
X54083009Y-70019606D01*
X54102336Y-70074180D01*
X54114326Y-70188256D01*
X54116331Y-70194428D01*
X54116333Y-70194435D01*
X54146177Y-70286284D01*
X54172821Y-70368284D01*
X54176068Y-70373908D01*
X54176069Y-70373910D01*
X54241242Y-70486794D01*
X54267467Y-70532216D01*
X54271811Y-70537041D01*
X54271813Y-70537043D01*
X54300000Y-70568348D01*
X54300000Y-70900000D01*
X49024000Y-70900000D01*
X48962000Y-70883387D01*
X48916613Y-70838000D01*
X48900000Y-70776000D01*
X48900000Y-70369256D01*
X48914111Y-70311807D01*
X48953231Y-70267434D01*
X49008458Y-70246234D01*
X49067223Y-70253033D01*
X49116150Y-70286284D01*
X49194129Y-70372888D01*
X49347270Y-70484151D01*
X49520197Y-70561144D01*
X49705354Y-70600500D01*
X49888143Y-70600500D01*
X49894646Y-70600500D01*
X50079803Y-70561144D01*
X50252730Y-70484151D01*
X50405871Y-70372888D01*
X50532533Y-70232216D01*
X50627179Y-70068284D01*
X50685674Y-69888256D01*
X50705460Y-69700000D01*
X50685674Y-69511744D01*
X50627179Y-69331716D01*
X50532533Y-69167784D01*
X50533007Y-69167510D01*
X50514427Y-69125784D01*
X50514427Y-69074216D01*
X50533007Y-69032489D01*
X50532533Y-69032216D01*
X50532533Y-69032215D01*
X50627179Y-68868284D01*
X50685674Y-68688256D01*
X50705460Y-68500000D01*
X50685674Y-68311744D01*
X50627179Y-68131716D01*
X50532533Y-67967784D01*
X50405871Y-67827112D01*
X50407223Y-67825893D01*
X50386566Y-67798599D01*
X50374234Y-67752805D01*
X50379994Y-67705735D01*
X50385674Y-67688256D01*
X50405460Y-67500000D01*
X50385674Y-67311744D01*
X50327179Y-67131716D01*
X50258060Y-67011999D01*
X50241448Y-66950000D01*
X50258061Y-66888000D01*
X50327179Y-66768284D01*
X50385674Y-66588256D01*
X50405460Y-66400000D01*
X50385674Y-66211744D01*
X50327179Y-66031716D01*
X50232533Y-65867784D01*
X50105871Y-65727112D01*
X50100613Y-65723292D01*
X50100611Y-65723290D01*
X49957988Y-65619669D01*
X49957987Y-65619668D01*
X49952730Y-65615849D01*
X49904713Y-65594470D01*
X49785745Y-65541501D01*
X49785740Y-65541499D01*
X49779803Y-65538856D01*
X49773444Y-65537504D01*
X49773440Y-65537503D01*
X49601008Y-65500852D01*
X49601005Y-65500851D01*
X49594646Y-65499500D01*
X49405354Y-65499500D01*
X49398995Y-65500851D01*
X49398991Y-65500852D01*
X49226559Y-65537503D01*
X49226552Y-65537505D01*
X49220197Y-65538856D01*
X49214262Y-65541498D01*
X49214254Y-65541501D01*
X49100032Y-65592357D01*
X49074435Y-65603754D01*
X49014272Y-65614093D01*
X48956465Y-65594470D01*
X48915027Y-65549643D01*
X48900000Y-65490475D01*
X48900000Y-63900000D01*
X50094540Y-63900000D01*
X50095219Y-63906460D01*
X50113646Y-64081795D01*
X50113647Y-64081803D01*
X50114326Y-64088256D01*
X50116331Y-64094428D01*
X50116333Y-64094435D01*
X50170813Y-64262105D01*
X50172821Y-64268284D01*
X50267467Y-64432216D01*
X50394129Y-64572888D01*
X50547270Y-64684151D01*
X50720197Y-64761144D01*
X50905354Y-64800500D01*
X51088143Y-64800500D01*
X51094646Y-64800500D01*
X51279803Y-64761144D01*
X51452730Y-64684151D01*
X51605871Y-64572888D01*
X51732533Y-64432216D01*
X51827179Y-64268284D01*
X51885674Y-64088256D01*
X51905460Y-63900000D01*
X51885674Y-63711744D01*
X51827179Y-63531716D01*
X51743339Y-63386500D01*
X51726726Y-63324500D01*
X51743339Y-63262500D01*
X51788726Y-63217113D01*
X51850726Y-63200500D01*
X51988143Y-63200500D01*
X51994646Y-63200500D01*
X52179803Y-63161144D01*
X52352730Y-63084151D01*
X52505871Y-62972888D01*
X52632533Y-62832216D01*
X52727179Y-62668284D01*
X52785674Y-62488256D01*
X52805460Y-62300000D01*
X52785674Y-62111744D01*
X52727179Y-61931716D01*
X52632533Y-61767784D01*
X52505871Y-61627112D01*
X52500613Y-61623292D01*
X52500611Y-61623290D01*
X52357988Y-61519669D01*
X52357987Y-61519668D01*
X52352730Y-61515849D01*
X52346792Y-61513205D01*
X52185745Y-61441501D01*
X52185740Y-61441499D01*
X52179803Y-61438856D01*
X52173444Y-61437504D01*
X52173440Y-61437503D01*
X52001008Y-61400852D01*
X52001005Y-61400851D01*
X51994646Y-61399500D01*
X51805354Y-61399500D01*
X51798995Y-61400851D01*
X51798991Y-61400852D01*
X51626559Y-61437503D01*
X51626552Y-61437505D01*
X51620197Y-61438856D01*
X51614262Y-61441498D01*
X51614254Y-61441501D01*
X51453207Y-61513205D01*
X51453202Y-61513207D01*
X51447270Y-61515849D01*
X51442016Y-61519665D01*
X51442011Y-61519669D01*
X51299388Y-61623290D01*
X51299381Y-61623295D01*
X51294129Y-61627112D01*
X51289784Y-61631937D01*
X51289779Y-61631942D01*
X51171813Y-61762956D01*
X51171808Y-61762962D01*
X51167467Y-61767784D01*
X51164222Y-61773404D01*
X51164218Y-61773410D01*
X51076069Y-61926089D01*
X51076066Y-61926094D01*
X51072821Y-61931716D01*
X51070815Y-61937888D01*
X51070813Y-61937894D01*
X51016333Y-62105564D01*
X51016331Y-62105573D01*
X51014326Y-62111744D01*
X51013648Y-62118194D01*
X51013646Y-62118204D01*
X50995962Y-62286464D01*
X50994540Y-62300000D01*
X50995219Y-62306460D01*
X51013646Y-62481795D01*
X51013647Y-62481803D01*
X51014326Y-62488256D01*
X51016331Y-62494428D01*
X51016333Y-62494435D01*
X51070813Y-62662105D01*
X51072821Y-62668284D01*
X51076068Y-62673908D01*
X51076069Y-62673910D01*
X51156661Y-62813500D01*
X51173274Y-62875500D01*
X51156661Y-62937500D01*
X51111274Y-62982887D01*
X51049274Y-62999500D01*
X50905354Y-62999500D01*
X50898995Y-63000851D01*
X50898991Y-63000852D01*
X50726559Y-63037503D01*
X50726552Y-63037505D01*
X50720197Y-63038856D01*
X50714262Y-63041498D01*
X50714254Y-63041501D01*
X50553207Y-63113205D01*
X50553202Y-63113207D01*
X50547270Y-63115849D01*
X50542016Y-63119665D01*
X50542011Y-63119669D01*
X50399388Y-63223290D01*
X50399381Y-63223295D01*
X50394129Y-63227112D01*
X50389784Y-63231937D01*
X50389779Y-63231942D01*
X50271813Y-63362956D01*
X50271808Y-63362962D01*
X50267467Y-63367784D01*
X50264222Y-63373404D01*
X50264218Y-63373410D01*
X50176069Y-63526089D01*
X50176066Y-63526094D01*
X50172821Y-63531716D01*
X50170815Y-63537888D01*
X50170813Y-63537894D01*
X50116333Y-63705564D01*
X50116331Y-63705573D01*
X50114326Y-63711744D01*
X50113648Y-63718194D01*
X50113646Y-63718204D01*
X50095962Y-63886464D01*
X50094540Y-63900000D01*
X48900000Y-63900000D01*
X48900000Y-59224000D01*
X48916613Y-59162000D01*
X48962000Y-59116613D01*
X49024000Y-59100000D01*
X49028051Y-59100000D01*
X49078486Y-59110720D01*
G37*
%TD.AperFunction*%
%TA.AperFunction,Conductor*%
G36*
X59523727Y-59110720D02*
G01*
X59565442Y-59141028D01*
X59594129Y-59172888D01*
X59747270Y-59284151D01*
X59920197Y-59361144D01*
X60105354Y-59400500D01*
X60288143Y-59400500D01*
X60294646Y-59400500D01*
X60479803Y-59361144D01*
X60652730Y-59284151D01*
X60805871Y-59172888D01*
X60834557Y-59141028D01*
X60876273Y-59110720D01*
X60926708Y-59100000D01*
X79995848Y-59100000D01*
X80050208Y-59112550D01*
X80093564Y-59147661D01*
X80112732Y-59188773D01*
X80114326Y-59188256D01*
X80172821Y-59368284D01*
X80267467Y-59532216D01*
X80394129Y-59672888D01*
X80547270Y-59784151D01*
X80720197Y-59861144D01*
X80905354Y-59900500D01*
X81088143Y-59900500D01*
X81094646Y-59900500D01*
X81279803Y-59861144D01*
X81452730Y-59784151D01*
X81605871Y-59672888D01*
X81732533Y-59532216D01*
X81827179Y-59368284D01*
X81885674Y-59188256D01*
X81887267Y-59188773D01*
X81906436Y-59147661D01*
X81949792Y-59112550D01*
X82004152Y-59100000D01*
X83576000Y-59100000D01*
X83638000Y-59116613D01*
X83683387Y-59162000D01*
X83700000Y-59224000D01*
X83700000Y-70776000D01*
X83683387Y-70838000D01*
X83638000Y-70883387D01*
X83576000Y-70900000D01*
X81674910Y-70900000D01*
X81615171Y-70884661D01*
X81570212Y-70842441D01*
X81551154Y-70783782D01*
X81562713Y-70723199D01*
X81596720Y-70682094D01*
X81595785Y-70681055D01*
X81600610Y-70676710D01*
X81605871Y-70672888D01*
X81732533Y-70532216D01*
X81827179Y-70368284D01*
X81885674Y-70188256D01*
X81905460Y-70000000D01*
X81885674Y-69811744D01*
X81827179Y-69631716D01*
X81732533Y-69467784D01*
X81660925Y-69388256D01*
X81610220Y-69331942D01*
X81610219Y-69331941D01*
X81605871Y-69327112D01*
X81600613Y-69323292D01*
X81600611Y-69323290D01*
X81457988Y-69219669D01*
X81457987Y-69219668D01*
X81452730Y-69215849D01*
X81446792Y-69213205D01*
X81285745Y-69141501D01*
X81285740Y-69141499D01*
X81279803Y-69138856D01*
X81273444Y-69137504D01*
X81273440Y-69137503D01*
X81101008Y-69100852D01*
X81101005Y-69100851D01*
X81094646Y-69099500D01*
X80905354Y-69099500D01*
X80898995Y-69100851D01*
X80898991Y-69100852D01*
X80726559Y-69137503D01*
X80726552Y-69137505D01*
X80720197Y-69138856D01*
X80714262Y-69141498D01*
X80714254Y-69141501D01*
X80553207Y-69213205D01*
X80553202Y-69213207D01*
X80547270Y-69215849D01*
X80542016Y-69219665D01*
X80542011Y-69219669D01*
X80399388Y-69323290D01*
X80399381Y-69323295D01*
X80394129Y-69327112D01*
X80389784Y-69331937D01*
X80389779Y-69331942D01*
X80271813Y-69462956D01*
X80271808Y-69462962D01*
X80267467Y-69467784D01*
X80264222Y-69473404D01*
X80264218Y-69473410D01*
X80176069Y-69626089D01*
X80176066Y-69626094D01*
X80172821Y-69631716D01*
X80170815Y-69637888D01*
X80170813Y-69637894D01*
X80116333Y-69805564D01*
X80116331Y-69805573D01*
X80114326Y-69811744D01*
X80113648Y-69818194D01*
X80113646Y-69818204D01*
X80096506Y-69981295D01*
X80094540Y-70000000D01*
X80095219Y-70006460D01*
X80113646Y-70181795D01*
X80113647Y-70181803D01*
X80114326Y-70188256D01*
X80116331Y-70194428D01*
X80116333Y-70194435D01*
X80170813Y-70362105D01*
X80172821Y-70368284D01*
X80267467Y-70532216D01*
X80271811Y-70537041D01*
X80271813Y-70537043D01*
X80382631Y-70660118D01*
X80394129Y-70672888D01*
X80399388Y-70676709D01*
X80404215Y-70681055D01*
X80403279Y-70682094D01*
X80437287Y-70723199D01*
X80448846Y-70783782D01*
X80429788Y-70842441D01*
X80384829Y-70884661D01*
X80325090Y-70900000D01*
X70174910Y-70900000D01*
X70115171Y-70884661D01*
X70070212Y-70842441D01*
X70051154Y-70783782D01*
X70062713Y-70723199D01*
X70096720Y-70682094D01*
X70095785Y-70681055D01*
X70100610Y-70676710D01*
X70105871Y-70672888D01*
X70232533Y-70532216D01*
X70327179Y-70368284D01*
X70385674Y-70188256D01*
X70405460Y-70000000D01*
X70385674Y-69811744D01*
X70327179Y-69631716D01*
X70232533Y-69467784D01*
X70160925Y-69388256D01*
X70110220Y-69331942D01*
X70110219Y-69331941D01*
X70105871Y-69327112D01*
X70100613Y-69323292D01*
X70100611Y-69323290D01*
X69957988Y-69219669D01*
X69957987Y-69219668D01*
X69952730Y-69215849D01*
X69946792Y-69213205D01*
X69785745Y-69141501D01*
X69785740Y-69141499D01*
X69779803Y-69138856D01*
X69773444Y-69137504D01*
X69773440Y-69137503D01*
X69601008Y-69100852D01*
X69601005Y-69100851D01*
X69594646Y-69099500D01*
X69405354Y-69099500D01*
X69398995Y-69100851D01*
X69398991Y-69100852D01*
X69226559Y-69137503D01*
X69226552Y-69137505D01*
X69220197Y-69138856D01*
X69214262Y-69141498D01*
X69214254Y-69141501D01*
X69053207Y-69213205D01*
X69053202Y-69213207D01*
X69047270Y-69215849D01*
X69042016Y-69219665D01*
X69042011Y-69219669D01*
X68899388Y-69323290D01*
X68899381Y-69323295D01*
X68894129Y-69327112D01*
X68889784Y-69331937D01*
X68889779Y-69331942D01*
X68771813Y-69462956D01*
X68771808Y-69462962D01*
X68767467Y-69467784D01*
X68764222Y-69473404D01*
X68764218Y-69473410D01*
X68676069Y-69626089D01*
X68676066Y-69626094D01*
X68672821Y-69631716D01*
X68670815Y-69637888D01*
X68670813Y-69637894D01*
X68616333Y-69805564D01*
X68616331Y-69805573D01*
X68614326Y-69811744D01*
X68613648Y-69818194D01*
X68613646Y-69818204D01*
X68596506Y-69981295D01*
X68594540Y-70000000D01*
X68595219Y-70006460D01*
X68613646Y-70181795D01*
X68613647Y-70181803D01*
X68614326Y-70188256D01*
X68616331Y-70194428D01*
X68616333Y-70194435D01*
X68670813Y-70362105D01*
X68672821Y-70368284D01*
X68767467Y-70532216D01*
X68771811Y-70537041D01*
X68771813Y-70537043D01*
X68882631Y-70660118D01*
X68894129Y-70672888D01*
X68899388Y-70676709D01*
X68904215Y-70681055D01*
X68903279Y-70682094D01*
X68937287Y-70723199D01*
X68948846Y-70783782D01*
X68929788Y-70842441D01*
X68884829Y-70884661D01*
X68825090Y-70900000D01*
X60123847Y-70900000D01*
X60057405Y-70880697D01*
X60011649Y-70828797D01*
X60000825Y-70760460D01*
X60028302Y-70696961D01*
X60080252Y-70661654D01*
X60079803Y-70660644D01*
X60080984Y-70660118D01*
X60252730Y-70583651D01*
X60405871Y-70472388D01*
X60532533Y-70331716D01*
X60627179Y-70167784D01*
X60685674Y-69987756D01*
X60705460Y-69799500D01*
X60685674Y-69611244D01*
X60627179Y-69431216D01*
X60532533Y-69267284D01*
X60485399Y-69214937D01*
X60410220Y-69131442D01*
X60410219Y-69131441D01*
X60405871Y-69126612D01*
X60400613Y-69122792D01*
X60400611Y-69122790D01*
X60257988Y-69019169D01*
X60257987Y-69019168D01*
X60252730Y-69015349D01*
X60246792Y-69012705D01*
X60085745Y-68941001D01*
X60085740Y-68940999D01*
X60079803Y-68938356D01*
X60073444Y-68937004D01*
X60073440Y-68937003D01*
X59901008Y-68900352D01*
X59901005Y-68900351D01*
X59894646Y-68899000D01*
X59705354Y-68899000D01*
X59698995Y-68900351D01*
X59698991Y-68900352D01*
X59526559Y-68937003D01*
X59526552Y-68937005D01*
X59520197Y-68938356D01*
X59514262Y-68940998D01*
X59514254Y-68941001D01*
X59353207Y-69012705D01*
X59353202Y-69012707D01*
X59347270Y-69015349D01*
X59342016Y-69019165D01*
X59342011Y-69019169D01*
X59199388Y-69122790D01*
X59199381Y-69122795D01*
X59194129Y-69126612D01*
X59189784Y-69131437D01*
X59189779Y-69131442D01*
X59071813Y-69262456D01*
X59071808Y-69262462D01*
X59067467Y-69267284D01*
X59064222Y-69272904D01*
X59064218Y-69272910D01*
X58976069Y-69425589D01*
X58976066Y-69425594D01*
X58972821Y-69431216D01*
X58970815Y-69437388D01*
X58970813Y-69437394D01*
X58916333Y-69605064D01*
X58916331Y-69605073D01*
X58914326Y-69611244D01*
X58913648Y-69617694D01*
X58913646Y-69617704D01*
X58895962Y-69785964D01*
X58894540Y-69799500D01*
X58895219Y-69805960D01*
X58913646Y-69981295D01*
X58913647Y-69981303D01*
X58914326Y-69987756D01*
X58916331Y-69993928D01*
X58916333Y-69993935D01*
X58920403Y-70006460D01*
X58972821Y-70167784D01*
X59067467Y-70331716D01*
X59194129Y-70472388D01*
X59347270Y-70583651D01*
X59519016Y-70660118D01*
X59520197Y-70660644D01*
X59519747Y-70661654D01*
X59571698Y-70696961D01*
X59599175Y-70760460D01*
X59588351Y-70828797D01*
X59542595Y-70880697D01*
X59476153Y-70900000D01*
X55674910Y-70900000D01*
X55615171Y-70884661D01*
X55570212Y-70842441D01*
X55551154Y-70783782D01*
X55562713Y-70723199D01*
X55596720Y-70682094D01*
X55595785Y-70681055D01*
X55600610Y-70676710D01*
X55605871Y-70672888D01*
X55732533Y-70532216D01*
X55827179Y-70368284D01*
X55885674Y-70188256D01*
X55905460Y-70000000D01*
X55885674Y-69811744D01*
X55827179Y-69631716D01*
X55732533Y-69467784D01*
X55660925Y-69388256D01*
X55610220Y-69331942D01*
X55610219Y-69331941D01*
X55605871Y-69327112D01*
X55600613Y-69323292D01*
X55600611Y-69323290D01*
X55452730Y-69215849D01*
X55453392Y-69214937D01*
X55416989Y-69180394D01*
X55397662Y-69125819D01*
X55385674Y-69011744D01*
X55327179Y-68831716D01*
X55232533Y-68667784D01*
X55105871Y-68527112D01*
X55100613Y-68523292D01*
X55100611Y-68523290D01*
X54957988Y-68419669D01*
X54957987Y-68419668D01*
X54952730Y-68415849D01*
X54946792Y-68413205D01*
X54785745Y-68341501D01*
X54785740Y-68341499D01*
X54779803Y-68338856D01*
X54773444Y-68337504D01*
X54773440Y-68337503D01*
X54601008Y-68300852D01*
X54601005Y-68300851D01*
X54594646Y-68299500D01*
X54405354Y-68299500D01*
X54398995Y-68300851D01*
X54398991Y-68300852D01*
X54300000Y-68321893D01*
X54300000Y-66900000D01*
X59594540Y-66900000D01*
X59595219Y-66906460D01*
X59613646Y-67081795D01*
X59613647Y-67081803D01*
X59614326Y-67088256D01*
X59616331Y-67094428D01*
X59616333Y-67094435D01*
X59670813Y-67262105D01*
X59672821Y-67268284D01*
X59767467Y-67432216D01*
X59894129Y-67572888D01*
X60047270Y-67684151D01*
X60220197Y-67761144D01*
X60405354Y-67800500D01*
X60588143Y-67800500D01*
X60594646Y-67800500D01*
X60779803Y-67761144D01*
X60952730Y-67684151D01*
X61105871Y-67572888D01*
X61232533Y-67432216D01*
X61327179Y-67268284D01*
X61381858Y-67100000D01*
X74704341Y-67100000D01*
X74704813Y-67105395D01*
X74718523Y-67262105D01*
X74724937Y-67335408D01*
X74726336Y-67340630D01*
X74726337Y-67340634D01*
X74784694Y-67558430D01*
X74784697Y-67558438D01*
X74786097Y-67563663D01*
X74788385Y-67568570D01*
X74788386Y-67568572D01*
X74883678Y-67772927D01*
X74883681Y-67772933D01*
X74885965Y-67777830D01*
X74889064Y-67782257D01*
X74889066Y-67782259D01*
X75018399Y-67966966D01*
X75018402Y-67966970D01*
X75021505Y-67971401D01*
X75188599Y-68138495D01*
X75382170Y-68274035D01*
X75596337Y-68373903D01*
X75824592Y-68435063D01*
X76060000Y-68455659D01*
X76295408Y-68435063D01*
X76523663Y-68373903D01*
X76737830Y-68274035D01*
X76931401Y-68138495D01*
X77098495Y-67971401D01*
X77228424Y-67785842D01*
X77272743Y-67746976D01*
X77330000Y-67732965D01*
X77387257Y-67746976D01*
X77431575Y-67785842D01*
X77558395Y-67966961D01*
X77558401Y-67966968D01*
X77561505Y-67971401D01*
X77728599Y-68138495D01*
X77922170Y-68274035D01*
X78136337Y-68373903D01*
X78364592Y-68435063D01*
X78600000Y-68455659D01*
X78835408Y-68435063D01*
X79063663Y-68373903D01*
X79277830Y-68274035D01*
X79471401Y-68138495D01*
X79638495Y-67971401D01*
X79774035Y-67777830D01*
X79873903Y-67563663D01*
X79935063Y-67335408D01*
X79955659Y-67100000D01*
X79935063Y-66864592D01*
X79873903Y-66636337D01*
X79774035Y-66422171D01*
X79638495Y-66228599D01*
X79471401Y-66061505D01*
X79466970Y-66058402D01*
X79466966Y-66058399D01*
X79285405Y-65931269D01*
X79246540Y-65886951D01*
X79232529Y-65829694D01*
X79246539Y-65772438D01*
X79285405Y-65728120D01*
X79350248Y-65682715D01*
X79357681Y-65674603D01*
X79351768Y-65665321D01*
X78611542Y-64925095D01*
X78600000Y-64918431D01*
X78588457Y-64925095D01*
X77848230Y-65665321D01*
X77842316Y-65674604D01*
X77849749Y-65682715D01*
X77914594Y-65728120D01*
X77953460Y-65772438D01*
X77967471Y-65829695D01*
X77953460Y-65886952D01*
X77914594Y-65931270D01*
X77733034Y-66058399D01*
X77733029Y-66058402D01*
X77728599Y-66061505D01*
X77724775Y-66065328D01*
X77724769Y-66065334D01*
X77565334Y-66224769D01*
X77565328Y-66224775D01*
X77561505Y-66228599D01*
X77558402Y-66233029D01*
X77558399Y-66233034D01*
X77431575Y-66414159D01*
X77387257Y-66453025D01*
X77330000Y-66467036D01*
X77272743Y-66453025D01*
X77228425Y-66414159D01*
X77167108Y-66326589D01*
X77098495Y-66228599D01*
X76931401Y-66061505D01*
X76926968Y-66058401D01*
X76926961Y-66058395D01*
X76745842Y-65931575D01*
X76706976Y-65887257D01*
X76692965Y-65830000D01*
X76706976Y-65772743D01*
X76745842Y-65728425D01*
X76926961Y-65601604D01*
X76926961Y-65601603D01*
X76931401Y-65598495D01*
X77098495Y-65431401D01*
X77228730Y-65245405D01*
X77273048Y-65206540D01*
X77330305Y-65192529D01*
X77387562Y-65206539D01*
X77431880Y-65245405D01*
X77477286Y-65310251D01*
X77485395Y-65317682D01*
X77494674Y-65311771D01*
X78234904Y-64571542D01*
X78241568Y-64559999D01*
X78958431Y-64559999D01*
X78965095Y-64571542D01*
X79705321Y-65311768D01*
X79714603Y-65317681D01*
X79722715Y-65310248D01*
X79770492Y-65242016D01*
X79775888Y-65232671D01*
X79871143Y-65028397D01*
X79874831Y-65018263D01*
X79933166Y-64800553D01*
X79935041Y-64789922D01*
X79954685Y-64565395D01*
X79954685Y-64554605D01*
X79935041Y-64330077D01*
X79933166Y-64319446D01*
X79874831Y-64101736D01*
X79871143Y-64091602D01*
X79775889Y-63887332D01*
X79770491Y-63877982D01*
X79722714Y-63809749D01*
X79714603Y-63802316D01*
X79705324Y-63808227D01*
X78965095Y-64548457D01*
X78958431Y-64559999D01*
X78241568Y-64559999D01*
X78234904Y-64548457D01*
X77494674Y-63808227D01*
X77485396Y-63802316D01*
X77477282Y-63809751D01*
X77431880Y-63874594D01*
X77387562Y-63913460D01*
X77330305Y-63927471D01*
X77273048Y-63913460D01*
X77228730Y-63874594D01*
X77132738Y-63737503D01*
X77098495Y-63688599D01*
X76976569Y-63566673D01*
X76945273Y-63513927D01*
X76943084Y-63452634D01*
X76970537Y-63397789D01*
X77020916Y-63362810D01*
X77152331Y-63313796D01*
X77267546Y-63227546D01*
X77353796Y-63112331D01*
X77402810Y-62980916D01*
X77437789Y-62930537D01*
X77492634Y-62903084D01*
X77553927Y-62905273D01*
X77606673Y-62936568D01*
X77728599Y-63058495D01*
X77733032Y-63061599D01*
X77733038Y-63061604D01*
X77914593Y-63188730D01*
X77953459Y-63233048D01*
X77967470Y-63290305D01*
X77953459Y-63347562D01*
X77914594Y-63391880D01*
X77849750Y-63437284D01*
X77842316Y-63445396D01*
X77848227Y-63454674D01*
X78588457Y-64194904D01*
X78600000Y-64201568D01*
X78611542Y-64194904D01*
X79351771Y-63454674D01*
X79357682Y-63445395D01*
X79350251Y-63437286D01*
X79285405Y-63391880D01*
X79246539Y-63347562D01*
X79232529Y-63290305D01*
X79246540Y-63233048D01*
X79285406Y-63188730D01*
X79466961Y-63061604D01*
X79466961Y-63061603D01*
X79471401Y-63058495D01*
X79638495Y-62891401D01*
X79774035Y-62697830D01*
X79873903Y-62483663D01*
X79935063Y-62255408D01*
X79955659Y-62020000D01*
X79935063Y-61784592D01*
X79873903Y-61556337D01*
X79774035Y-61342171D01*
X79638495Y-61148599D01*
X79471401Y-60981505D01*
X79466970Y-60978402D01*
X79466966Y-60978399D01*
X79282259Y-60849066D01*
X79282257Y-60849064D01*
X79277830Y-60845965D01*
X79272933Y-60843681D01*
X79272927Y-60843678D01*
X79068572Y-60748386D01*
X79068570Y-60748385D01*
X79063663Y-60746097D01*
X79058438Y-60744697D01*
X79058430Y-60744694D01*
X78840634Y-60686337D01*
X78840630Y-60686336D01*
X78835408Y-60684937D01*
X78830020Y-60684465D01*
X78830017Y-60684465D01*
X78605395Y-60664813D01*
X78600000Y-60664341D01*
X78594605Y-60664813D01*
X78369982Y-60684465D01*
X78369977Y-60684465D01*
X78364592Y-60684937D01*
X78359371Y-60686335D01*
X78359365Y-60686337D01*
X78141569Y-60744694D01*
X78141557Y-60744698D01*
X78136337Y-60746097D01*
X78131432Y-60748383D01*
X78131427Y-60748386D01*
X77927081Y-60843675D01*
X77927077Y-60843677D01*
X77922171Y-60845965D01*
X77917738Y-60849068D01*
X77917731Y-60849073D01*
X77733034Y-60978399D01*
X77733029Y-60978402D01*
X77728599Y-60981505D01*
X77724775Y-60985328D01*
X77724775Y-60985329D01*
X77606673Y-61103431D01*
X77553926Y-61134726D01*
X77492633Y-61136915D01*
X77437789Y-61109462D01*
X77402810Y-61059082D01*
X77375304Y-60985336D01*
X77353796Y-60927669D01*
X77267546Y-60812454D01*
X77177030Y-60744694D01*
X77159431Y-60731519D01*
X77159430Y-60731518D01*
X77152331Y-60726204D01*
X77045442Y-60686337D01*
X77024752Y-60678620D01*
X77024750Y-60678619D01*
X77017483Y-60675909D01*
X77009770Y-60675079D01*
X77009767Y-60675079D01*
X76961180Y-60669855D01*
X76961169Y-60669854D01*
X76957873Y-60669500D01*
X76954550Y-60669500D01*
X75165439Y-60669500D01*
X75165420Y-60669500D01*
X75162128Y-60669501D01*
X75158850Y-60669853D01*
X75158838Y-60669854D01*
X75110231Y-60675079D01*
X75110225Y-60675080D01*
X75102517Y-60675909D01*
X75095252Y-60678618D01*
X75095246Y-60678620D01*
X74975980Y-60723104D01*
X74975978Y-60723104D01*
X74967669Y-60726204D01*
X74960572Y-60731516D01*
X74960568Y-60731519D01*
X74859550Y-60807141D01*
X74859546Y-60807144D01*
X74852454Y-60812454D01*
X74847144Y-60819546D01*
X74847141Y-60819550D01*
X74771519Y-60920568D01*
X74771516Y-60920572D01*
X74766204Y-60927669D01*
X74763104Y-60935978D01*
X74763104Y-60935980D01*
X74718620Y-61055247D01*
X74718619Y-61055250D01*
X74715909Y-61062517D01*
X74715079Y-61070227D01*
X74715079Y-61070232D01*
X74709855Y-61118819D01*
X74709854Y-61118831D01*
X74709500Y-61122127D01*
X74709500Y-61125448D01*
X74709500Y-61125449D01*
X74709500Y-62914560D01*
X74709500Y-62914578D01*
X74709501Y-62917872D01*
X74709853Y-62921150D01*
X74709854Y-62921161D01*
X74715079Y-62969768D01*
X74715080Y-62969773D01*
X74715909Y-62977483D01*
X74718619Y-62984749D01*
X74718620Y-62984753D01*
X74744695Y-63054663D01*
X74766204Y-63112331D01*
X74771518Y-63119430D01*
X74771519Y-63119431D01*
X74827367Y-63194035D01*
X74852454Y-63227546D01*
X74967669Y-63313796D01*
X75077405Y-63354725D01*
X75099082Y-63362810D01*
X75149462Y-63397789D01*
X75176915Y-63452633D01*
X75174726Y-63513926D01*
X75143431Y-63566672D01*
X75021505Y-63688599D01*
X75018402Y-63693029D01*
X75018399Y-63693034D01*
X74889073Y-63877731D01*
X74889068Y-63877738D01*
X74885965Y-63882171D01*
X74883677Y-63887077D01*
X74883675Y-63887081D01*
X74788386Y-64091427D01*
X74788383Y-64091432D01*
X74786097Y-64096337D01*
X74784698Y-64101557D01*
X74784694Y-64101569D01*
X74726337Y-64319365D01*
X74726335Y-64319371D01*
X74724937Y-64324592D01*
X74724465Y-64329977D01*
X74724465Y-64329982D01*
X74717312Y-64411744D01*
X74704341Y-64560000D01*
X74704813Y-64565395D01*
X74719945Y-64738359D01*
X74724937Y-64795408D01*
X74726336Y-64800630D01*
X74726337Y-64800634D01*
X74784694Y-65018430D01*
X74784697Y-65018438D01*
X74786097Y-65023663D01*
X74788385Y-65028570D01*
X74788386Y-65028572D01*
X74883678Y-65232927D01*
X74883681Y-65232933D01*
X74885965Y-65237830D01*
X74889064Y-65242257D01*
X74889066Y-65242259D01*
X75018399Y-65426966D01*
X75018402Y-65426970D01*
X75021505Y-65431401D01*
X75188599Y-65598495D01*
X75193032Y-65601599D01*
X75193038Y-65601604D01*
X75374158Y-65728425D01*
X75413024Y-65772743D01*
X75427035Y-65830000D01*
X75413024Y-65887257D01*
X75374159Y-65931575D01*
X75193041Y-66058395D01*
X75188599Y-66061505D01*
X75184775Y-66065328D01*
X75184769Y-66065334D01*
X75025334Y-66224769D01*
X75025328Y-66224775D01*
X75021505Y-66228599D01*
X75018402Y-66233029D01*
X75018399Y-66233034D01*
X74889073Y-66417731D01*
X74889068Y-66417738D01*
X74885965Y-66422171D01*
X74883677Y-66427077D01*
X74883675Y-66427081D01*
X74788386Y-66631427D01*
X74788383Y-66631432D01*
X74786097Y-66636337D01*
X74784698Y-66641557D01*
X74784694Y-66641569D01*
X74726337Y-66859365D01*
X74726335Y-66859371D01*
X74724937Y-66864592D01*
X74704341Y-67100000D01*
X61381858Y-67100000D01*
X61385674Y-67088256D01*
X61405460Y-66900000D01*
X61385674Y-66711744D01*
X61327179Y-66531716D01*
X61233604Y-66369639D01*
X61217670Y-66320600D01*
X61223060Y-66269320D01*
X61248840Y-66224668D01*
X61332533Y-66131719D01*
X61427179Y-65967787D01*
X61481697Y-65800000D01*
X67894540Y-65800000D01*
X67895219Y-65806460D01*
X67913646Y-65981795D01*
X67913647Y-65981803D01*
X67914326Y-65988256D01*
X67916331Y-65994428D01*
X67916333Y-65994435D01*
X67959112Y-66126092D01*
X67972821Y-66168284D01*
X67976068Y-66173908D01*
X67976069Y-66173910D01*
X68060760Y-66320600D01*
X68067467Y-66332216D01*
X68071811Y-66337041D01*
X68071813Y-66337043D01*
X68101163Y-66369639D01*
X68194129Y-66472888D01*
X68347270Y-66584151D01*
X68520197Y-66661144D01*
X68705354Y-66700500D01*
X68888143Y-66700500D01*
X68894646Y-66700500D01*
X69079803Y-66661144D01*
X69252730Y-66584151D01*
X69405871Y-66472888D01*
X69532533Y-66332216D01*
X69627179Y-66168284D01*
X69685674Y-65988256D01*
X69705460Y-65800000D01*
X69685674Y-65611744D01*
X69627179Y-65431716D01*
X69532533Y-65267784D01*
X69411146Y-65132970D01*
X69382980Y-65079998D01*
X69382980Y-65020002D01*
X69411147Y-64967028D01*
X69415580Y-64962105D01*
X69532533Y-64832216D01*
X69627179Y-64668284D01*
X69685674Y-64488256D01*
X69705460Y-64300000D01*
X69685674Y-64111744D01*
X69627179Y-63931716D01*
X69532533Y-63767784D01*
X69405871Y-63627112D01*
X69400613Y-63623292D01*
X69400611Y-63623290D01*
X69257988Y-63519669D01*
X69257987Y-63519668D01*
X69252730Y-63515849D01*
X69246792Y-63513205D01*
X69085745Y-63441501D01*
X69085740Y-63441499D01*
X69079803Y-63438856D01*
X69073444Y-63437504D01*
X69073440Y-63437503D01*
X68901008Y-63400852D01*
X68901005Y-63400851D01*
X68894646Y-63399500D01*
X68705354Y-63399500D01*
X68698995Y-63400851D01*
X68698991Y-63400852D01*
X68526559Y-63437503D01*
X68526552Y-63437505D01*
X68520197Y-63438856D01*
X68514262Y-63441498D01*
X68514254Y-63441501D01*
X68353207Y-63513205D01*
X68353202Y-63513207D01*
X68347270Y-63515849D01*
X68342016Y-63519665D01*
X68342011Y-63519669D01*
X68199388Y-63623290D01*
X68199381Y-63623295D01*
X68194129Y-63627112D01*
X68189784Y-63631937D01*
X68189779Y-63631942D01*
X68071813Y-63762956D01*
X68071808Y-63762962D01*
X68067467Y-63767784D01*
X68064222Y-63773404D01*
X68064218Y-63773410D01*
X67976069Y-63926089D01*
X67976066Y-63926094D01*
X67972821Y-63931716D01*
X67970815Y-63937888D01*
X67970813Y-63937894D01*
X67916333Y-64105564D01*
X67916331Y-64105573D01*
X67914326Y-64111744D01*
X67913648Y-64118194D01*
X67913646Y-64118204D01*
X67901067Y-64237894D01*
X67894540Y-64300000D01*
X67895219Y-64306460D01*
X67913646Y-64481795D01*
X67913647Y-64481803D01*
X67914326Y-64488256D01*
X67916331Y-64494428D01*
X67916333Y-64494435D01*
X67937637Y-64560000D01*
X67972821Y-64668284D01*
X67976068Y-64673908D01*
X67976069Y-64673910D01*
X68057730Y-64815352D01*
X68067467Y-64832216D01*
X68135519Y-64907795D01*
X68188852Y-64967028D01*
X68217019Y-65020002D01*
X68217019Y-65079998D01*
X68188852Y-65132972D01*
X68090450Y-65242259D01*
X68067467Y-65267784D01*
X68064222Y-65273404D01*
X68064218Y-65273410D01*
X67976069Y-65426089D01*
X67976066Y-65426094D01*
X67972821Y-65431716D01*
X67970815Y-65437888D01*
X67970813Y-65437894D01*
X67916333Y-65605564D01*
X67916331Y-65605573D01*
X67914326Y-65611744D01*
X67913648Y-65618194D01*
X67913646Y-65618204D01*
X67901473Y-65734035D01*
X67894540Y-65800000D01*
X61481697Y-65800000D01*
X61485674Y-65787759D01*
X61505460Y-65599503D01*
X61485674Y-65411247D01*
X61427179Y-65231219D01*
X61332533Y-65067287D01*
X61288391Y-65018263D01*
X61210220Y-64931445D01*
X61210219Y-64931444D01*
X61205871Y-64926615D01*
X61200613Y-64922795D01*
X61200611Y-64922793D01*
X61057988Y-64819172D01*
X61057987Y-64819171D01*
X61052730Y-64815352D01*
X61046792Y-64812708D01*
X60885745Y-64741004D01*
X60885740Y-64741002D01*
X60879803Y-64738359D01*
X60873444Y-64737007D01*
X60873440Y-64737006D01*
X60701008Y-64700355D01*
X60701005Y-64700354D01*
X60694646Y-64699003D01*
X60505354Y-64699003D01*
X60498995Y-64700354D01*
X60498991Y-64700355D01*
X60326559Y-64737006D01*
X60326552Y-64737008D01*
X60320197Y-64738359D01*
X60314262Y-64741001D01*
X60314254Y-64741004D01*
X60153207Y-64812708D01*
X60153202Y-64812710D01*
X60147270Y-64815352D01*
X60142016Y-64819168D01*
X60142011Y-64819172D01*
X59999388Y-64922793D01*
X59999381Y-64922798D01*
X59994129Y-64926615D01*
X59989784Y-64931440D01*
X59989779Y-64931445D01*
X59871813Y-65062459D01*
X59871808Y-65062465D01*
X59867467Y-65067287D01*
X59864222Y-65072907D01*
X59864218Y-65072913D01*
X59776069Y-65225592D01*
X59776066Y-65225597D01*
X59772821Y-65231219D01*
X59770815Y-65237391D01*
X59770813Y-65237397D01*
X59716333Y-65405067D01*
X59716331Y-65405076D01*
X59714326Y-65411247D01*
X59713648Y-65417697D01*
X59713646Y-65417707D01*
X59704945Y-65500500D01*
X59694540Y-65599503D01*
X59695219Y-65605963D01*
X59713646Y-65781298D01*
X59713647Y-65781306D01*
X59714326Y-65787759D01*
X59716331Y-65793931D01*
X59716333Y-65793938D01*
X59761055Y-65931575D01*
X59772821Y-65967787D01*
X59776068Y-65973411D01*
X59776069Y-65973413D01*
X59866395Y-66129863D01*
X59882329Y-66178902D01*
X59876939Y-66230181D01*
X59851158Y-66274835D01*
X59771814Y-66362955D01*
X59771809Y-66362961D01*
X59767467Y-66367784D01*
X59764222Y-66373404D01*
X59764218Y-66373410D01*
X59676069Y-66526089D01*
X59676066Y-66526094D01*
X59672821Y-66531716D01*
X59670815Y-66537888D01*
X59670813Y-66537894D01*
X59616333Y-66705564D01*
X59616331Y-66705573D01*
X59614326Y-66711744D01*
X59613648Y-66718194D01*
X59613646Y-66718204D01*
X59598811Y-66859365D01*
X59594540Y-66900000D01*
X54300000Y-66900000D01*
X54300000Y-64600000D01*
X54594540Y-64600000D01*
X54595219Y-64606460D01*
X54613646Y-64781795D01*
X54613647Y-64781803D01*
X54614326Y-64788256D01*
X54616331Y-64794428D01*
X54616333Y-64794435D01*
X54660851Y-64931445D01*
X54672821Y-64968284D01*
X54676068Y-64973908D01*
X54676069Y-64973910D01*
X54719999Y-65050000D01*
X54767467Y-65132216D01*
X54771811Y-65137041D01*
X54771813Y-65137043D01*
X54866550Y-65242259D01*
X54894129Y-65272888D01*
X54899387Y-65276708D01*
X54899388Y-65276709D01*
X54955783Y-65317682D01*
X55047270Y-65384151D01*
X55220197Y-65461144D01*
X55405354Y-65500500D01*
X55588143Y-65500500D01*
X55594646Y-65500500D01*
X55779803Y-65461144D01*
X55952730Y-65384151D01*
X56105871Y-65272888D01*
X56232533Y-65132216D01*
X56327179Y-64968284D01*
X56385674Y-64788256D01*
X56405460Y-64600000D01*
X56385674Y-64411744D01*
X56327179Y-64231716D01*
X56232533Y-64067784D01*
X56105871Y-63927112D01*
X56100613Y-63923292D01*
X56100611Y-63923290D01*
X55957988Y-63819669D01*
X55957987Y-63819668D01*
X55952730Y-63815849D01*
X55939034Y-63809751D01*
X55785745Y-63741501D01*
X55785740Y-63741499D01*
X55779803Y-63738856D01*
X55773444Y-63737504D01*
X55773440Y-63737503D01*
X55601008Y-63700852D01*
X55601005Y-63700851D01*
X55594646Y-63699500D01*
X55405354Y-63699500D01*
X55398995Y-63700851D01*
X55398991Y-63700852D01*
X55226559Y-63737503D01*
X55226552Y-63737505D01*
X55220197Y-63738856D01*
X55214262Y-63741498D01*
X55214254Y-63741501D01*
X55053207Y-63813205D01*
X55053202Y-63813207D01*
X55047270Y-63815849D01*
X55042016Y-63819665D01*
X55042011Y-63819669D01*
X54899388Y-63923290D01*
X54899381Y-63923295D01*
X54894129Y-63927112D01*
X54889784Y-63931937D01*
X54889779Y-63931942D01*
X54771813Y-64062956D01*
X54771808Y-64062962D01*
X54767467Y-64067784D01*
X54764222Y-64073404D01*
X54764218Y-64073410D01*
X54676069Y-64226089D01*
X54676066Y-64226094D01*
X54672821Y-64231716D01*
X54670815Y-64237888D01*
X54670813Y-64237894D01*
X54616333Y-64405564D01*
X54616331Y-64405573D01*
X54614326Y-64411744D01*
X54613648Y-64418194D01*
X54613646Y-64418204D01*
X54599957Y-64548457D01*
X54594540Y-64600000D01*
X54300000Y-64600000D01*
X54300000Y-62300000D01*
X55094540Y-62300000D01*
X55095219Y-62306460D01*
X55113646Y-62481795D01*
X55113647Y-62481803D01*
X55114326Y-62488256D01*
X55116331Y-62494428D01*
X55116333Y-62494435D01*
X55170813Y-62662105D01*
X55172821Y-62668284D01*
X55176068Y-62673908D01*
X55176069Y-62673910D01*
X55187048Y-62692927D01*
X55267467Y-62832216D01*
X55271811Y-62837041D01*
X55271813Y-62837043D01*
X55355996Y-62930537D01*
X55394129Y-62972888D01*
X55399387Y-62976708D01*
X55399388Y-62976709D01*
X55405180Y-62980917D01*
X55547270Y-63084151D01*
X55720197Y-63161144D01*
X55905354Y-63200500D01*
X56088143Y-63200500D01*
X56094646Y-63200500D01*
X56279803Y-63161144D01*
X56452730Y-63084151D01*
X56605871Y-62972888D01*
X56732533Y-62832216D01*
X56827179Y-62668284D01*
X56885674Y-62488256D01*
X56905460Y-62300000D01*
X56885674Y-62111744D01*
X56827179Y-61931716D01*
X56732533Y-61767784D01*
X56605871Y-61627112D01*
X56600613Y-61623292D01*
X56600611Y-61623290D01*
X56457988Y-61519669D01*
X56457987Y-61519668D01*
X56452730Y-61515849D01*
X56446792Y-61513205D01*
X56285745Y-61441501D01*
X56285740Y-61441499D01*
X56279803Y-61438856D01*
X56273444Y-61437504D01*
X56273440Y-61437503D01*
X56101008Y-61400852D01*
X56101005Y-61400851D01*
X56094646Y-61399500D01*
X55905354Y-61399500D01*
X55898995Y-61400851D01*
X55898991Y-61400852D01*
X55726559Y-61437503D01*
X55726552Y-61437505D01*
X55720197Y-61438856D01*
X55714262Y-61441498D01*
X55714254Y-61441501D01*
X55553207Y-61513205D01*
X55553202Y-61513207D01*
X55547270Y-61515849D01*
X55542016Y-61519665D01*
X55542011Y-61519669D01*
X55399388Y-61623290D01*
X55399381Y-61623295D01*
X55394129Y-61627112D01*
X55389784Y-61631937D01*
X55389779Y-61631942D01*
X55271813Y-61762956D01*
X55271808Y-61762962D01*
X55267467Y-61767784D01*
X55264222Y-61773404D01*
X55264218Y-61773410D01*
X55176069Y-61926089D01*
X55176066Y-61926094D01*
X55172821Y-61931716D01*
X55170815Y-61937888D01*
X55170813Y-61937894D01*
X55116333Y-62105564D01*
X55116331Y-62105573D01*
X55114326Y-62111744D01*
X55113648Y-62118194D01*
X55113646Y-62118204D01*
X55098677Y-62260634D01*
X55094540Y-62300000D01*
X54300000Y-62300000D01*
X54300000Y-59100000D01*
X59473292Y-59100000D01*
X59523727Y-59110720D01*
G37*
%TD.AperFunction*%
%TA.AperFunction,Conductor*%
G36*
X54316159Y-70586294D02*
G01*
X54380852Y-70658143D01*
X54394129Y-70672888D01*
X54399388Y-70676709D01*
X54404215Y-70681055D01*
X54403279Y-70682094D01*
X54437287Y-70723199D01*
X54448846Y-70783782D01*
X54429788Y-70842441D01*
X54384829Y-70884661D01*
X54325090Y-70900000D01*
X54300000Y-70900000D01*
X54300000Y-70568347D01*
X54316159Y-70586294D01*
G37*
%TD.AperFunction*%
%TA.AperFunction,Conductor*%
G36*
X47353828Y-49116613D02*
G01*
X47399215Y-49162000D01*
X47415828Y-49224000D01*
X47399215Y-49286000D01*
X47376069Y-49326089D01*
X47376066Y-49326094D01*
X47372821Y-49331716D01*
X47370815Y-49337888D01*
X47370813Y-49337894D01*
X47316333Y-49505564D01*
X47316331Y-49505573D01*
X47314326Y-49511744D01*
X47313648Y-49518194D01*
X47313646Y-49518204D01*
X47296988Y-49676709D01*
X47294540Y-49700000D01*
X47295219Y-49706460D01*
X47313646Y-49881795D01*
X47313647Y-49881803D01*
X47314326Y-49888256D01*
X47316331Y-49894428D01*
X47316333Y-49894435D01*
X47370813Y-50062105D01*
X47372821Y-50068284D01*
X47467467Y-50232216D01*
X47471811Y-50237041D01*
X47471813Y-50237043D01*
X47475827Y-50241501D01*
X47594129Y-50372888D01*
X47747270Y-50484151D01*
X47920197Y-50561144D01*
X48105354Y-50600500D01*
X48288143Y-50600500D01*
X48294646Y-50600500D01*
X48479803Y-50561144D01*
X48652730Y-50484151D01*
X48805871Y-50372888D01*
X48932533Y-50232216D01*
X49027179Y-50068284D01*
X49085674Y-49888256D01*
X49105460Y-49700000D01*
X49085674Y-49511744D01*
X49027179Y-49331716D01*
X49000785Y-49286000D01*
X48984172Y-49224000D01*
X49000785Y-49162000D01*
X49046172Y-49116613D01*
X49108172Y-49100000D01*
X67928444Y-49100000D01*
X67992515Y-49117835D01*
X68038154Y-49166210D01*
X68052234Y-49231209D01*
X68046088Y-49336724D01*
X68046088Y-49336732D01*
X68045669Y-49343935D01*
X68076135Y-49516711D01*
X68145623Y-49677804D01*
X68149936Y-49683597D01*
X68149937Y-49683599D01*
X68195620Y-49744962D01*
X68250390Y-49818530D01*
X68384786Y-49931302D01*
X68541567Y-50010040D01*
X68712279Y-50050500D01*
X68840111Y-50050500D01*
X68843709Y-50050500D01*
X68974255Y-50035241D01*
X69139117Y-49975237D01*
X69285696Y-49878830D01*
X69406092Y-49751218D01*
X69493812Y-49599281D01*
X69544130Y-49431210D01*
X69554331Y-49256065D01*
X69552474Y-49245532D01*
X69554815Y-49191906D01*
X69579601Y-49144294D01*
X69622186Y-49111618D01*
X69674590Y-49100000D01*
X70319232Y-49100000D01*
X70377391Y-49114845D01*
X70382669Y-49118796D01*
X70517517Y-49169091D01*
X70577127Y-49175500D01*
X72022872Y-49175499D01*
X72082483Y-49169091D01*
X72217331Y-49118796D01*
X72222608Y-49114845D01*
X72280768Y-49100000D01*
X72862195Y-49100000D01*
X72906988Y-49108373D01*
X72976931Y-49135470D01*
X73191074Y-49175500D01*
X73403197Y-49175500D01*
X73408926Y-49175500D01*
X73623069Y-49135470D01*
X73693011Y-49108373D01*
X73737805Y-49100000D01*
X79995848Y-49100000D01*
X80050208Y-49112550D01*
X80093564Y-49147661D01*
X80112732Y-49188773D01*
X80114326Y-49188256D01*
X80162946Y-49337894D01*
X80172821Y-49368284D01*
X80176068Y-49373908D01*
X80176069Y-49373910D01*
X80255647Y-49511744D01*
X80267467Y-49532216D01*
X80394129Y-49672888D01*
X80547270Y-49784151D01*
X80720197Y-49861144D01*
X80905354Y-49900500D01*
X81088143Y-49900500D01*
X81094646Y-49900500D01*
X81279803Y-49861144D01*
X81452730Y-49784151D01*
X81605871Y-49672888D01*
X81732533Y-49532216D01*
X81827179Y-49368284D01*
X81885674Y-49188256D01*
X81887267Y-49188773D01*
X81906436Y-49147661D01*
X81949792Y-49112550D01*
X82004152Y-49100000D01*
X83675500Y-49100000D01*
X83737500Y-49116613D01*
X83782887Y-49162000D01*
X83799500Y-49224000D01*
X83799500Y-58482530D01*
X83780080Y-58549155D01*
X83727904Y-58594912D01*
X83659314Y-58605468D01*
X83576000Y-58594500D01*
X82004152Y-58594500D01*
X82000652Y-58594898D01*
X82000648Y-58594899D01*
X81898715Y-58606512D01*
X81851193Y-58602702D01*
X81808621Y-58581244D01*
X81777292Y-58545309D01*
X81741584Y-58483461D01*
X81732533Y-58467784D01*
X81696058Y-58427275D01*
X81610220Y-58331942D01*
X81610219Y-58331941D01*
X81605871Y-58327112D01*
X81600613Y-58323292D01*
X81600611Y-58323290D01*
X81457988Y-58219669D01*
X81457987Y-58219668D01*
X81452730Y-58215849D01*
X81446792Y-58213205D01*
X81285745Y-58141501D01*
X81285740Y-58141499D01*
X81279803Y-58138856D01*
X81273444Y-58137504D01*
X81273440Y-58137503D01*
X81101008Y-58100852D01*
X81101005Y-58100851D01*
X81094646Y-58099500D01*
X80905354Y-58099500D01*
X80898995Y-58100851D01*
X80898991Y-58100852D01*
X80726559Y-58137503D01*
X80726552Y-58137505D01*
X80720197Y-58138856D01*
X80714262Y-58141498D01*
X80714254Y-58141501D01*
X80553207Y-58213205D01*
X80553202Y-58213207D01*
X80547270Y-58215849D01*
X80542016Y-58219665D01*
X80542011Y-58219669D01*
X80399388Y-58323290D01*
X80399381Y-58323295D01*
X80394129Y-58327112D01*
X80389784Y-58331937D01*
X80389779Y-58331942D01*
X80271813Y-58462956D01*
X80271808Y-58462962D01*
X80267467Y-58467784D01*
X80264221Y-58473405D01*
X80264221Y-58473406D01*
X80222707Y-58545310D01*
X80191377Y-58581244D01*
X80148805Y-58602702D01*
X80101284Y-58606512D01*
X79999351Y-58594899D01*
X79999348Y-58594898D01*
X79995848Y-58594500D01*
X79992324Y-58594500D01*
X64681761Y-58594500D01*
X64624312Y-58580389D01*
X64579938Y-58541268D01*
X64558739Y-58486040D01*
X64565539Y-58427275D01*
X64598791Y-58378348D01*
X64600608Y-58376711D01*
X64605871Y-58372888D01*
X64732533Y-58232216D01*
X64827179Y-58068284D01*
X64885674Y-57888256D01*
X64905460Y-57700000D01*
X64885674Y-57511744D01*
X64827179Y-57331716D01*
X64732533Y-57167784D01*
X64605871Y-57027112D01*
X64600613Y-57023292D01*
X64600611Y-57023290D01*
X64457988Y-56919669D01*
X64457987Y-56919668D01*
X64452730Y-56915849D01*
X64446792Y-56913205D01*
X64285745Y-56841501D01*
X64285740Y-56841499D01*
X64279803Y-56838856D01*
X64273444Y-56837504D01*
X64273440Y-56837503D01*
X64101008Y-56800852D01*
X64101005Y-56800851D01*
X64094646Y-56799500D01*
X63905354Y-56799500D01*
X63898995Y-56800851D01*
X63898991Y-56800852D01*
X63726559Y-56837503D01*
X63726552Y-56837505D01*
X63720197Y-56838856D01*
X63714262Y-56841498D01*
X63714254Y-56841501D01*
X63553207Y-56913205D01*
X63553202Y-56913207D01*
X63547270Y-56915849D01*
X63542016Y-56919665D01*
X63542011Y-56919669D01*
X63399388Y-57023290D01*
X63399381Y-57023295D01*
X63394129Y-57027112D01*
X63389784Y-57031937D01*
X63389779Y-57031942D01*
X63271813Y-57162956D01*
X63271808Y-57162962D01*
X63267467Y-57167784D01*
X63264222Y-57173404D01*
X63264218Y-57173410D01*
X63176069Y-57326089D01*
X63176066Y-57326094D01*
X63172821Y-57331716D01*
X63170815Y-57337888D01*
X63170813Y-57337894D01*
X63116333Y-57505564D01*
X63116331Y-57505573D01*
X63114326Y-57511744D01*
X63113648Y-57518194D01*
X63113646Y-57518204D01*
X63100966Y-57638856D01*
X63094540Y-57700000D01*
X63095219Y-57706460D01*
X63113646Y-57881795D01*
X63113647Y-57881803D01*
X63114326Y-57888256D01*
X63116331Y-57894428D01*
X63116333Y-57894435D01*
X63170813Y-58062105D01*
X63172821Y-58068284D01*
X63176068Y-58073908D01*
X63176069Y-58073910D01*
X63262313Y-58223290D01*
X63267467Y-58232216D01*
X63271811Y-58237041D01*
X63271813Y-58237043D01*
X63352912Y-58327112D01*
X63394129Y-58372888D01*
X63399390Y-58376710D01*
X63401209Y-58378348D01*
X63434461Y-58427275D01*
X63441261Y-58486040D01*
X63420062Y-58541268D01*
X63375688Y-58580389D01*
X63318239Y-58594500D01*
X61227043Y-58594500D01*
X61168828Y-58579985D01*
X61124242Y-58539840D01*
X61103722Y-58483461D01*
X61086353Y-58318204D01*
X61086352Y-58318203D01*
X61085674Y-58311744D01*
X61027179Y-58131716D01*
X60932533Y-57967784D01*
X60860925Y-57888256D01*
X60810220Y-57831942D01*
X60810219Y-57831941D01*
X60805871Y-57827112D01*
X60800613Y-57823292D01*
X60800611Y-57823290D01*
X60657988Y-57719669D01*
X60657987Y-57719668D01*
X60652730Y-57715849D01*
X60646792Y-57713205D01*
X60485745Y-57641501D01*
X60485740Y-57641499D01*
X60479803Y-57638856D01*
X60473444Y-57637504D01*
X60473440Y-57637503D01*
X60301008Y-57600852D01*
X60301005Y-57600851D01*
X60294646Y-57599500D01*
X60105354Y-57599500D01*
X60098995Y-57600851D01*
X60098991Y-57600852D01*
X59926559Y-57637503D01*
X59926552Y-57637505D01*
X59920197Y-57638856D01*
X59914262Y-57641498D01*
X59914254Y-57641501D01*
X59753207Y-57713205D01*
X59753202Y-57713207D01*
X59747270Y-57715849D01*
X59742016Y-57719665D01*
X59742011Y-57719669D01*
X59599388Y-57823290D01*
X59599381Y-57823295D01*
X59594129Y-57827112D01*
X59589784Y-57831937D01*
X59589779Y-57831942D01*
X59471813Y-57962956D01*
X59471808Y-57962962D01*
X59467467Y-57967784D01*
X59464222Y-57973404D01*
X59464218Y-57973410D01*
X59376069Y-58126089D01*
X59376066Y-58126094D01*
X59372821Y-58131716D01*
X59370815Y-58137888D01*
X59370813Y-58137894D01*
X59316333Y-58305564D01*
X59316331Y-58305573D01*
X59314326Y-58311744D01*
X59313648Y-58318194D01*
X59313646Y-58318204D01*
X59296278Y-58483461D01*
X59275758Y-58539840D01*
X59231172Y-58579985D01*
X59172957Y-58594500D01*
X54300000Y-58594500D01*
X50971949Y-58594500D01*
X50968728Y-58594838D01*
X50968719Y-58594839D01*
X50949238Y-58596886D01*
X50897962Y-58591496D01*
X50853311Y-58565718D01*
X50828183Y-58531136D01*
X50827179Y-58531716D01*
X50732533Y-58367784D01*
X50605871Y-58227112D01*
X50600613Y-58223292D01*
X50600611Y-58223290D01*
X50457988Y-58119669D01*
X50457987Y-58119668D01*
X50452730Y-58115849D01*
X50419047Y-58100852D01*
X50285745Y-58041501D01*
X50285740Y-58041499D01*
X50279803Y-58038856D01*
X50273444Y-58037504D01*
X50273440Y-58037503D01*
X50101008Y-58000852D01*
X50101005Y-58000851D01*
X50094646Y-57999500D01*
X49905354Y-57999500D01*
X49898995Y-58000851D01*
X49898991Y-58000852D01*
X49726559Y-58037503D01*
X49726552Y-58037505D01*
X49720197Y-58038856D01*
X49714262Y-58041498D01*
X49714254Y-58041501D01*
X49553207Y-58113205D01*
X49553202Y-58113207D01*
X49547270Y-58115849D01*
X49542016Y-58119665D01*
X49542011Y-58119669D01*
X49399388Y-58223290D01*
X49399381Y-58223295D01*
X49394129Y-58227112D01*
X49389784Y-58231937D01*
X49389779Y-58231942D01*
X49271813Y-58362956D01*
X49271808Y-58362962D01*
X49267467Y-58367784D01*
X49264222Y-58373404D01*
X49264218Y-58373410D01*
X49172821Y-58531716D01*
X49171819Y-58531137D01*
X49146674Y-58565730D01*
X49102028Y-58591499D01*
X49050761Y-58596886D01*
X49031280Y-58594839D01*
X49031272Y-58594838D01*
X49028051Y-58594500D01*
X49024000Y-58594500D01*
X49019983Y-58595028D01*
X49019980Y-58595029D01*
X48897192Y-58611194D01*
X48897177Y-58611196D01*
X48893166Y-58611725D01*
X48889254Y-58612773D01*
X48889245Y-58612775D01*
X48835090Y-58627286D01*
X48835082Y-58627288D01*
X48831166Y-58628338D01*
X48827420Y-58629889D01*
X48827410Y-58629893D01*
X48716759Y-58675726D01*
X48716754Y-58675728D01*
X48709250Y-58678837D01*
X48702806Y-58683780D01*
X48702800Y-58683785D01*
X48607789Y-58756691D01*
X48607782Y-58756696D01*
X48604558Y-58759171D01*
X48601685Y-58762043D01*
X48601677Y-58762051D01*
X48562051Y-58801677D01*
X48562043Y-58801685D01*
X48559171Y-58804558D01*
X48556696Y-58807782D01*
X48556691Y-58807789D01*
X48483785Y-58902800D01*
X48483780Y-58902806D01*
X48478837Y-58909250D01*
X48475728Y-58916754D01*
X48475726Y-58916759D01*
X48429893Y-59027410D01*
X48429889Y-59027420D01*
X48428338Y-59031166D01*
X48427288Y-59035082D01*
X48427286Y-59035090D01*
X48412775Y-59089245D01*
X48412773Y-59089254D01*
X48411725Y-59093166D01*
X48411196Y-59097177D01*
X48411194Y-59097192D01*
X48399500Y-59186022D01*
X48394500Y-59224000D01*
X48394500Y-62300000D01*
X48394500Y-63900000D01*
X48394500Y-65490475D01*
X48394977Y-65494294D01*
X48394978Y-65494304D01*
X48409575Y-65611081D01*
X48409577Y-65611092D01*
X48410054Y-65614907D01*
X48411000Y-65618635D01*
X48411001Y-65618636D01*
X48424131Y-65670337D01*
X48424134Y-65670346D01*
X48425081Y-65674075D01*
X48470786Y-65790849D01*
X48543828Y-65892778D01*
X48585266Y-65937605D01*
X48588216Y-65940091D01*
X48588222Y-65940097D01*
X48614200Y-65961993D01*
X48644524Y-66000031D01*
X48657882Y-66046808D01*
X48652217Y-66095124D01*
X48616334Y-66205561D01*
X48616332Y-66205569D01*
X48614326Y-66211744D01*
X48613648Y-66218194D01*
X48613646Y-66218204D01*
X48600966Y-66338856D01*
X48594540Y-66400000D01*
X48595219Y-66406460D01*
X48613646Y-66581795D01*
X48613647Y-66581803D01*
X48614326Y-66588256D01*
X48616331Y-66594428D01*
X48616333Y-66594435D01*
X48640166Y-66667784D01*
X48672821Y-66768284D01*
X48690844Y-66799500D01*
X48741939Y-66888001D01*
X48758551Y-66950000D01*
X48741939Y-67011999D01*
X48733214Y-67027112D01*
X48672821Y-67131716D01*
X48670815Y-67137888D01*
X48670813Y-67137894D01*
X48616333Y-67305564D01*
X48616331Y-67305573D01*
X48614326Y-67311744D01*
X48613648Y-67318194D01*
X48613646Y-67318204D01*
X48595962Y-67486464D01*
X48594540Y-67500000D01*
X48595219Y-67506460D01*
X48613646Y-67681795D01*
X48613647Y-67681803D01*
X48614326Y-67688256D01*
X48616331Y-67694428D01*
X48616333Y-67694435D01*
X48670813Y-67862105D01*
X48672821Y-67868284D01*
X48676068Y-67873908D01*
X48676069Y-67873910D01*
X48755647Y-68011744D01*
X48767467Y-68032216D01*
X48771811Y-68037041D01*
X48771813Y-68037043D01*
X48894129Y-68172888D01*
X48892825Y-68174061D01*
X48913621Y-68201786D01*
X48925779Y-68247404D01*
X48920006Y-68294260D01*
X48916334Y-68305560D01*
X48916331Y-68305571D01*
X48914326Y-68311744D01*
X48913648Y-68318194D01*
X48913646Y-68318204D01*
X48896607Y-68480330D01*
X48894540Y-68500000D01*
X48895219Y-68506460D01*
X48913646Y-68681795D01*
X48913647Y-68681803D01*
X48914326Y-68688256D01*
X48916331Y-68694428D01*
X48916333Y-68694435D01*
X48970813Y-68862105D01*
X48972821Y-68868284D01*
X48976068Y-68873908D01*
X48976069Y-68873910D01*
X49064216Y-69026586D01*
X49064218Y-69026589D01*
X49064869Y-69027717D01*
X49064870Y-69027718D01*
X49067467Y-69032216D01*
X49066994Y-69032488D01*
X49085573Y-69074220D01*
X49085573Y-69125780D01*
X49066994Y-69167511D01*
X49067467Y-69167784D01*
X49064870Y-69172281D01*
X49064867Y-69172285D01*
X49064221Y-69173405D01*
X49064216Y-69173413D01*
X48976069Y-69326089D01*
X48976066Y-69326094D01*
X48972821Y-69331716D01*
X48970815Y-69337888D01*
X48970813Y-69337894D01*
X48916333Y-69505564D01*
X48916331Y-69505573D01*
X48914326Y-69511744D01*
X48913648Y-69518194D01*
X48913646Y-69518204D01*
X48897171Y-69674966D01*
X48872226Y-69737491D01*
X48818289Y-69777768D01*
X48775569Y-69794167D01*
X48775555Y-69794173D01*
X48772073Y-69795510D01*
X48768776Y-69797255D01*
X48768773Y-69797257D01*
X48671341Y-69848845D01*
X48671336Y-69848848D01*
X48664734Y-69852344D01*
X48659152Y-69857316D01*
X48659151Y-69857318D01*
X48576827Y-69930666D01*
X48576820Y-69930672D01*
X48574050Y-69933141D01*
X48571592Y-69935928D01*
X48571591Y-69935930D01*
X48537398Y-69974714D01*
X48537393Y-69974719D01*
X48534930Y-69977514D01*
X48532820Y-69980583D01*
X48532813Y-69980593D01*
X48470371Y-70071445D01*
X48470367Y-70071451D01*
X48466135Y-70077610D01*
X48423203Y-70191227D01*
X48422313Y-70194846D01*
X48422311Y-70194856D01*
X48409982Y-70245049D01*
X48409979Y-70245063D01*
X48409092Y-70248676D01*
X48408643Y-70252382D01*
X48408643Y-70252385D01*
X48394947Y-70365555D01*
X48394946Y-70365569D01*
X48394500Y-70369256D01*
X48394500Y-70372984D01*
X48394500Y-70776000D01*
X48377887Y-70838000D01*
X48332500Y-70883387D01*
X48270500Y-70900000D01*
X42824000Y-70900000D01*
X42762000Y-70883387D01*
X42716613Y-70838000D01*
X42700000Y-70776000D01*
X42700000Y-68632678D01*
X42709029Y-68586227D01*
X42734801Y-68546541D01*
X42773563Y-68519399D01*
X42817133Y-68500000D01*
X42852730Y-68484151D01*
X43005871Y-68372888D01*
X43132533Y-68232216D01*
X43151133Y-68200000D01*
X43894540Y-68200000D01*
X43895219Y-68206460D01*
X43913646Y-68381795D01*
X43913647Y-68381803D01*
X43914326Y-68388256D01*
X43916331Y-68394428D01*
X43916333Y-68394435D01*
X43948535Y-68493540D01*
X43972821Y-68568284D01*
X43976068Y-68573908D01*
X43976069Y-68573910D01*
X44042086Y-68688256D01*
X44067467Y-68732216D01*
X44194129Y-68872888D01*
X44347270Y-68984151D01*
X44520197Y-69061144D01*
X44705354Y-69100500D01*
X44888143Y-69100500D01*
X44894646Y-69100500D01*
X45079803Y-69061144D01*
X45252730Y-68984151D01*
X45405871Y-68872888D01*
X45532533Y-68732216D01*
X45627179Y-68568284D01*
X45685674Y-68388256D01*
X45705460Y-68200000D01*
X45685674Y-68011744D01*
X45627179Y-67831716D01*
X45599428Y-67783650D01*
X45582815Y-67721649D01*
X45599429Y-67659649D01*
X45648928Y-67573915D01*
X45648928Y-67573914D01*
X45652179Y-67568284D01*
X45710674Y-67388256D01*
X45730460Y-67200000D01*
X45710674Y-67011744D01*
X45652179Y-66831716D01*
X45557533Y-66667784D01*
X45485925Y-66588256D01*
X45435220Y-66531942D01*
X45435219Y-66531941D01*
X45430871Y-66527112D01*
X45425613Y-66523292D01*
X45425611Y-66523290D01*
X45282988Y-66419669D01*
X45282987Y-66419668D01*
X45277730Y-66415849D01*
X45271792Y-66413205D01*
X45110745Y-66341501D01*
X45110740Y-66341499D01*
X45104803Y-66338856D01*
X45098444Y-66337504D01*
X45098440Y-66337503D01*
X44926008Y-66300852D01*
X44926005Y-66300851D01*
X44919646Y-66299500D01*
X44730354Y-66299500D01*
X44723995Y-66300851D01*
X44723991Y-66300852D01*
X44551559Y-66337503D01*
X44551552Y-66337505D01*
X44545197Y-66338856D01*
X44539262Y-66341498D01*
X44539254Y-66341501D01*
X44378207Y-66413205D01*
X44378202Y-66413207D01*
X44372270Y-66415849D01*
X44367016Y-66419665D01*
X44367011Y-66419669D01*
X44224388Y-66523290D01*
X44224381Y-66523295D01*
X44219129Y-66527112D01*
X44214784Y-66531937D01*
X44214779Y-66531942D01*
X44096813Y-66662956D01*
X44096808Y-66662962D01*
X44092467Y-66667784D01*
X44089222Y-66673404D01*
X44089218Y-66673410D01*
X44001069Y-66826089D01*
X44001066Y-66826094D01*
X43997821Y-66831716D01*
X43995815Y-66837888D01*
X43995813Y-66837894D01*
X43941333Y-67005564D01*
X43941331Y-67005573D01*
X43939326Y-67011744D01*
X43938648Y-67018194D01*
X43938646Y-67018204D01*
X43926067Y-67137894D01*
X43919540Y-67200000D01*
X43920219Y-67206460D01*
X43938646Y-67381795D01*
X43938647Y-67381803D01*
X43939326Y-67388256D01*
X43941331Y-67394428D01*
X43941333Y-67394435D01*
X43977733Y-67506460D01*
X43997821Y-67568284D01*
X44001069Y-67573910D01*
X44001071Y-67573914D01*
X44025571Y-67616350D01*
X44042184Y-67678349D01*
X44025571Y-67740348D01*
X43972821Y-67831716D01*
X43970815Y-67837888D01*
X43970813Y-67837894D01*
X43916333Y-68005564D01*
X43916331Y-68005573D01*
X43914326Y-68011744D01*
X43913648Y-68018194D01*
X43913646Y-68018204D01*
X43897266Y-68174061D01*
X43894540Y-68200000D01*
X43151133Y-68200000D01*
X43227179Y-68068284D01*
X43285674Y-67888256D01*
X43305460Y-67700000D01*
X43285674Y-67511744D01*
X43227179Y-67331716D01*
X43132533Y-67167784D01*
X43005871Y-67027112D01*
X43000613Y-67023292D01*
X43000611Y-67023290D01*
X42857988Y-66919669D01*
X42857987Y-66919668D01*
X42852730Y-66915849D01*
X42846799Y-66913208D01*
X42846795Y-66913206D01*
X42773563Y-66880601D01*
X42734801Y-66853459D01*
X42709029Y-66813773D01*
X42700000Y-66767322D01*
X42700000Y-56300000D01*
X68394540Y-56300000D01*
X68395219Y-56306460D01*
X68413646Y-56481795D01*
X68413647Y-56481803D01*
X68414326Y-56488256D01*
X68416331Y-56494428D01*
X68416333Y-56494435D01*
X68448535Y-56593540D01*
X68472821Y-56668284D01*
X68476068Y-56673908D01*
X68476069Y-56673910D01*
X68542086Y-56788256D01*
X68567467Y-56832216D01*
X68571811Y-56837041D01*
X68571813Y-56837043D01*
X68575827Y-56841501D01*
X68694129Y-56972888D01*
X68847270Y-57084151D01*
X69020197Y-57161144D01*
X69205354Y-57200500D01*
X69388143Y-57200500D01*
X69394646Y-57200500D01*
X69579803Y-57161144D01*
X69752730Y-57084151D01*
X69905871Y-56972888D01*
X70032533Y-56832216D01*
X70127179Y-56668284D01*
X70149366Y-56600000D01*
X73394540Y-56600000D01*
X73395219Y-56606460D01*
X73413646Y-56781795D01*
X73413647Y-56781803D01*
X73414326Y-56788256D01*
X73416331Y-56794428D01*
X73416333Y-56794435D01*
X73457025Y-56919669D01*
X73472821Y-56968284D01*
X73476068Y-56973908D01*
X73476069Y-56973910D01*
X73541242Y-57086794D01*
X73567467Y-57132216D01*
X73571811Y-57137041D01*
X73571813Y-57137043D01*
X73604558Y-57173410D01*
X73694129Y-57272888D01*
X73847270Y-57384151D01*
X74020197Y-57461144D01*
X74205354Y-57500500D01*
X74388143Y-57500500D01*
X74394646Y-57500500D01*
X74579803Y-57461144D01*
X74752730Y-57384151D01*
X74905871Y-57272888D01*
X75032533Y-57132216D01*
X75127179Y-56968284D01*
X75185674Y-56788256D01*
X75205460Y-56600000D01*
X75185674Y-56411744D01*
X75127179Y-56231716D01*
X75032533Y-56067784D01*
X74905871Y-55927112D01*
X74900613Y-55923292D01*
X74900611Y-55923290D01*
X74757988Y-55819669D01*
X74757987Y-55819668D01*
X74752730Y-55815849D01*
X74746792Y-55813205D01*
X74585745Y-55741501D01*
X74585740Y-55741499D01*
X74579803Y-55738856D01*
X74573444Y-55737504D01*
X74573440Y-55737503D01*
X74401008Y-55700852D01*
X74401005Y-55700851D01*
X74394646Y-55699500D01*
X74205354Y-55699500D01*
X74198995Y-55700851D01*
X74198991Y-55700852D01*
X74026559Y-55737503D01*
X74026552Y-55737505D01*
X74020197Y-55738856D01*
X74014262Y-55741498D01*
X74014254Y-55741501D01*
X73853207Y-55813205D01*
X73853202Y-55813207D01*
X73847270Y-55815849D01*
X73842016Y-55819665D01*
X73842011Y-55819669D01*
X73699388Y-55923290D01*
X73699381Y-55923295D01*
X73694129Y-55927112D01*
X73689784Y-55931937D01*
X73689779Y-55931942D01*
X73571813Y-56062956D01*
X73571808Y-56062962D01*
X73567467Y-56067784D01*
X73564222Y-56073404D01*
X73564218Y-56073410D01*
X73476069Y-56226089D01*
X73476066Y-56226094D01*
X73472821Y-56231716D01*
X73470815Y-56237888D01*
X73470813Y-56237894D01*
X73416333Y-56405564D01*
X73416331Y-56405573D01*
X73414326Y-56411744D01*
X73413648Y-56418194D01*
X73413646Y-56418204D01*
X73395962Y-56586464D01*
X73394540Y-56600000D01*
X70149366Y-56600000D01*
X70185674Y-56488256D01*
X70205460Y-56300000D01*
X70185674Y-56111744D01*
X70127179Y-55931716D01*
X70032533Y-55767784D01*
X69950528Y-55676709D01*
X69910220Y-55631942D01*
X69910219Y-55631941D01*
X69905871Y-55627112D01*
X69900613Y-55623292D01*
X69900611Y-55623290D01*
X69757988Y-55519669D01*
X69757987Y-55519668D01*
X69752730Y-55515849D01*
X69746792Y-55513205D01*
X69585745Y-55441501D01*
X69585740Y-55441499D01*
X69579803Y-55438856D01*
X69573444Y-55437504D01*
X69573440Y-55437503D01*
X69401008Y-55400852D01*
X69401005Y-55400851D01*
X69394646Y-55399500D01*
X69205354Y-55399500D01*
X69198995Y-55400851D01*
X69198991Y-55400852D01*
X69026559Y-55437503D01*
X69026552Y-55437505D01*
X69020197Y-55438856D01*
X69014262Y-55441498D01*
X69014254Y-55441501D01*
X68853207Y-55513205D01*
X68853202Y-55513207D01*
X68847270Y-55515849D01*
X68842016Y-55519665D01*
X68842011Y-55519669D01*
X68699388Y-55623290D01*
X68699381Y-55623295D01*
X68694129Y-55627112D01*
X68689784Y-55631937D01*
X68689779Y-55631942D01*
X68571813Y-55762956D01*
X68571808Y-55762962D01*
X68567467Y-55767784D01*
X68564222Y-55773404D01*
X68564218Y-55773410D01*
X68476069Y-55926089D01*
X68476066Y-55926094D01*
X68472821Y-55931716D01*
X68470815Y-55937888D01*
X68470813Y-55937894D01*
X68416333Y-56105564D01*
X68416331Y-56105573D01*
X68414326Y-56111744D01*
X68413648Y-56118194D01*
X68413646Y-56118204D01*
X68401067Y-56237894D01*
X68394540Y-56300000D01*
X42700000Y-56300000D01*
X42700000Y-55000000D01*
X46094540Y-55000000D01*
X46095219Y-55006460D01*
X46113646Y-55181795D01*
X46113647Y-55181803D01*
X46114326Y-55188256D01*
X46116331Y-55194428D01*
X46116333Y-55194435D01*
X46170813Y-55362105D01*
X46172821Y-55368284D01*
X46176068Y-55373908D01*
X46176069Y-55373910D01*
X46258017Y-55515849D01*
X46267467Y-55532216D01*
X46271811Y-55537041D01*
X46271813Y-55537043D01*
X46352912Y-55627112D01*
X46394129Y-55672888D01*
X46547270Y-55784151D01*
X46720197Y-55861144D01*
X46905354Y-55900500D01*
X47088143Y-55900500D01*
X47094646Y-55900500D01*
X47279803Y-55861144D01*
X47452730Y-55784151D01*
X47605871Y-55672888D01*
X47732533Y-55532216D01*
X47827179Y-55368284D01*
X47885674Y-55188256D01*
X47905460Y-55000000D01*
X47894950Y-54900000D01*
X48394540Y-54900000D01*
X48395219Y-54906460D01*
X48413646Y-55081795D01*
X48413647Y-55081803D01*
X48414326Y-55088256D01*
X48416331Y-55094428D01*
X48416333Y-55094435D01*
X48470813Y-55262105D01*
X48472821Y-55268284D01*
X48567467Y-55432216D01*
X48571811Y-55437041D01*
X48571813Y-55437043D01*
X48661854Y-55537043D01*
X48694129Y-55572888D01*
X48847270Y-55684151D01*
X49020197Y-55761144D01*
X49205354Y-55800500D01*
X49388143Y-55800500D01*
X49394646Y-55800500D01*
X49579803Y-55761144D01*
X49752730Y-55684151D01*
X49905871Y-55572888D01*
X50032533Y-55432216D01*
X50127179Y-55268284D01*
X50185674Y-55088256D01*
X50205460Y-54900000D01*
X50193284Y-54784151D01*
X50186353Y-54718204D01*
X50186352Y-54718203D01*
X50185674Y-54711744D01*
X50127179Y-54531716D01*
X50032533Y-54367784D01*
X49905871Y-54227112D01*
X49900613Y-54223292D01*
X49900611Y-54223290D01*
X49868555Y-54200000D01*
X56494540Y-54200000D01*
X56495219Y-54206460D01*
X56513646Y-54381795D01*
X56513647Y-54381803D01*
X56514326Y-54388256D01*
X56516331Y-54394428D01*
X56516333Y-54394435D01*
X56570813Y-54562105D01*
X56572821Y-54568284D01*
X56576068Y-54573908D01*
X56576069Y-54573910D01*
X56655647Y-54711744D01*
X56667467Y-54732216D01*
X56671811Y-54737041D01*
X56671813Y-54737043D01*
X56784772Y-54862496D01*
X56794129Y-54872888D01*
X56799387Y-54876708D01*
X56799388Y-54876709D01*
X56831446Y-54900000D01*
X56947270Y-54984151D01*
X57120197Y-55061144D01*
X57305354Y-55100500D01*
X57488143Y-55100500D01*
X57494646Y-55100500D01*
X57679803Y-55061144D01*
X57852730Y-54984151D01*
X58005871Y-54872888D01*
X58132533Y-54732216D01*
X58227179Y-54568284D01*
X58285674Y-54388256D01*
X58305460Y-54200000D01*
X58285674Y-54011744D01*
X58281858Y-54000000D01*
X80094540Y-54000000D01*
X80095219Y-54006460D01*
X80113646Y-54181795D01*
X80113647Y-54181803D01*
X80114326Y-54188256D01*
X80116331Y-54194428D01*
X80116333Y-54194435D01*
X80170813Y-54362105D01*
X80172821Y-54368284D01*
X80176068Y-54373908D01*
X80176069Y-54373910D01*
X80263929Y-54526089D01*
X80267467Y-54532216D01*
X80271811Y-54537041D01*
X80271813Y-54537043D01*
X80351991Y-54626089D01*
X80394129Y-54672888D01*
X80547270Y-54784151D01*
X80720197Y-54861144D01*
X80905354Y-54900500D01*
X81088143Y-54900500D01*
X81094646Y-54900500D01*
X81279803Y-54861144D01*
X81452730Y-54784151D01*
X81605871Y-54672888D01*
X81732533Y-54532216D01*
X81827179Y-54368284D01*
X81885674Y-54188256D01*
X81905460Y-54000000D01*
X81885674Y-53811744D01*
X81827179Y-53631716D01*
X81732533Y-53467784D01*
X81605871Y-53327112D01*
X81600613Y-53323292D01*
X81600611Y-53323290D01*
X81457988Y-53219669D01*
X81457987Y-53219668D01*
X81452730Y-53215849D01*
X81446792Y-53213205D01*
X81285745Y-53141501D01*
X81285740Y-53141499D01*
X81279803Y-53138856D01*
X81273444Y-53137504D01*
X81273440Y-53137503D01*
X81101008Y-53100852D01*
X81101005Y-53100851D01*
X81094646Y-53099500D01*
X80905354Y-53099500D01*
X80898995Y-53100851D01*
X80898991Y-53100852D01*
X80726559Y-53137503D01*
X80726552Y-53137505D01*
X80720197Y-53138856D01*
X80714262Y-53141498D01*
X80714254Y-53141501D01*
X80553207Y-53213205D01*
X80553202Y-53213207D01*
X80547270Y-53215849D01*
X80542016Y-53219665D01*
X80542011Y-53219669D01*
X80399388Y-53323290D01*
X80399381Y-53323295D01*
X80394129Y-53327112D01*
X80389784Y-53331937D01*
X80389779Y-53331942D01*
X80271813Y-53462956D01*
X80271808Y-53462962D01*
X80267467Y-53467784D01*
X80264222Y-53473404D01*
X80264218Y-53473410D01*
X80176069Y-53626089D01*
X80176066Y-53626094D01*
X80172821Y-53631716D01*
X80170815Y-53637888D01*
X80170813Y-53637894D01*
X80116333Y-53805564D01*
X80116331Y-53805573D01*
X80114326Y-53811744D01*
X80113648Y-53818194D01*
X80113646Y-53818204D01*
X80095962Y-53986464D01*
X80094540Y-54000000D01*
X58281858Y-54000000D01*
X58227179Y-53831716D01*
X58132533Y-53667784D01*
X58005871Y-53527112D01*
X58000613Y-53523292D01*
X58000611Y-53523290D01*
X57857988Y-53419669D01*
X57857987Y-53419668D01*
X57852730Y-53415849D01*
X57846792Y-53413205D01*
X57685745Y-53341501D01*
X57685740Y-53341499D01*
X57679803Y-53338856D01*
X57673444Y-53337504D01*
X57673440Y-53337503D01*
X57501008Y-53300852D01*
X57501005Y-53300851D01*
X57494646Y-53299500D01*
X57305354Y-53299500D01*
X57298995Y-53300851D01*
X57298991Y-53300852D01*
X57126559Y-53337503D01*
X57126552Y-53337505D01*
X57120197Y-53338856D01*
X57114262Y-53341498D01*
X57114254Y-53341501D01*
X56953207Y-53413205D01*
X56953202Y-53413207D01*
X56947270Y-53415849D01*
X56942016Y-53419665D01*
X56942011Y-53419669D01*
X56799388Y-53523290D01*
X56799381Y-53523295D01*
X56794129Y-53527112D01*
X56789784Y-53531937D01*
X56789779Y-53531942D01*
X56671813Y-53662956D01*
X56671808Y-53662962D01*
X56667467Y-53667784D01*
X56664222Y-53673404D01*
X56664218Y-53673410D01*
X56576069Y-53826089D01*
X56576066Y-53826094D01*
X56572821Y-53831716D01*
X56570815Y-53837888D01*
X56570813Y-53837894D01*
X56516333Y-54005564D01*
X56516331Y-54005573D01*
X56514326Y-54011744D01*
X56513648Y-54018194D01*
X56513646Y-54018204D01*
X56500966Y-54138856D01*
X56494540Y-54200000D01*
X49868555Y-54200000D01*
X49757988Y-54119669D01*
X49757987Y-54119668D01*
X49752730Y-54115849D01*
X49719047Y-54100852D01*
X49585745Y-54041501D01*
X49585740Y-54041499D01*
X49579803Y-54038856D01*
X49573444Y-54037504D01*
X49573440Y-54037503D01*
X49401008Y-54000852D01*
X49401005Y-54000851D01*
X49394646Y-53999500D01*
X49205354Y-53999500D01*
X49198995Y-54000851D01*
X49198991Y-54000852D01*
X49026559Y-54037503D01*
X49026552Y-54037505D01*
X49020197Y-54038856D01*
X49014262Y-54041498D01*
X49014254Y-54041501D01*
X48853207Y-54113205D01*
X48853202Y-54113207D01*
X48847270Y-54115849D01*
X48842016Y-54119665D01*
X48842011Y-54119669D01*
X48699388Y-54223290D01*
X48699381Y-54223295D01*
X48694129Y-54227112D01*
X48689784Y-54231937D01*
X48689779Y-54231942D01*
X48571813Y-54362956D01*
X48571808Y-54362962D01*
X48567467Y-54367784D01*
X48564222Y-54373404D01*
X48564218Y-54373410D01*
X48476069Y-54526089D01*
X48476066Y-54526094D01*
X48472821Y-54531716D01*
X48470815Y-54537888D01*
X48470813Y-54537894D01*
X48416333Y-54705564D01*
X48416331Y-54705573D01*
X48414326Y-54711744D01*
X48413648Y-54718194D01*
X48413646Y-54718204D01*
X48396988Y-54876709D01*
X48394540Y-54900000D01*
X47894950Y-54900000D01*
X47885674Y-54811744D01*
X47827179Y-54631716D01*
X47732533Y-54467784D01*
X47660925Y-54388256D01*
X47610220Y-54331942D01*
X47610219Y-54331941D01*
X47605871Y-54327112D01*
X47600613Y-54323292D01*
X47600611Y-54323290D01*
X47457988Y-54219669D01*
X47457987Y-54219668D01*
X47452730Y-54215849D01*
X47446792Y-54213205D01*
X47285745Y-54141501D01*
X47285740Y-54141499D01*
X47279803Y-54138856D01*
X47273444Y-54137504D01*
X47273440Y-54137503D01*
X47101008Y-54100852D01*
X47101005Y-54100851D01*
X47094646Y-54099500D01*
X46905354Y-54099500D01*
X46898995Y-54100851D01*
X46898991Y-54100852D01*
X46726559Y-54137503D01*
X46726552Y-54137505D01*
X46720197Y-54138856D01*
X46714262Y-54141498D01*
X46714254Y-54141501D01*
X46553207Y-54213205D01*
X46553202Y-54213207D01*
X46547270Y-54215849D01*
X46542016Y-54219665D01*
X46542011Y-54219669D01*
X46399388Y-54323290D01*
X46399381Y-54323295D01*
X46394129Y-54327112D01*
X46389784Y-54331937D01*
X46389779Y-54331942D01*
X46271813Y-54462956D01*
X46271808Y-54462962D01*
X46267467Y-54467784D01*
X46264222Y-54473404D01*
X46264218Y-54473410D01*
X46176069Y-54626089D01*
X46176066Y-54626094D01*
X46172821Y-54631716D01*
X46170815Y-54637888D01*
X46170813Y-54637894D01*
X46116333Y-54805564D01*
X46116331Y-54805573D01*
X46114326Y-54811744D01*
X46113648Y-54818194D01*
X46113646Y-54818204D01*
X46104371Y-54906460D01*
X46094540Y-55000000D01*
X42700000Y-55000000D01*
X42700000Y-51800000D01*
X59994540Y-51800000D01*
X59995219Y-51806460D01*
X60013646Y-51981795D01*
X60013647Y-51981803D01*
X60014326Y-51988256D01*
X60016331Y-51994428D01*
X60016333Y-51994435D01*
X60018304Y-52000500D01*
X60072821Y-52168284D01*
X60167467Y-52332216D01*
X60294129Y-52472888D01*
X60447270Y-52584151D01*
X60620197Y-52661144D01*
X60805354Y-52700500D01*
X60988143Y-52700500D01*
X60994646Y-52700500D01*
X61179803Y-52661144D01*
X61352730Y-52584151D01*
X61505871Y-52472888D01*
X61632533Y-52332216D01*
X61727179Y-52168284D01*
X61785674Y-51988256D01*
X61805460Y-51800000D01*
X61785674Y-51611744D01*
X61727179Y-51431716D01*
X61632533Y-51267784D01*
X61505871Y-51127112D01*
X61500613Y-51123292D01*
X61500611Y-51123290D01*
X61468555Y-51100000D01*
X65294540Y-51100000D01*
X65295219Y-51106460D01*
X65313646Y-51281795D01*
X65313647Y-51281803D01*
X65314326Y-51288256D01*
X65316331Y-51294428D01*
X65316333Y-51294435D01*
X65370813Y-51462105D01*
X65372821Y-51468284D01*
X65376068Y-51473908D01*
X65376069Y-51473910D01*
X65455647Y-51611744D01*
X65467467Y-51632216D01*
X65594129Y-51772888D01*
X65747270Y-51884151D01*
X65920197Y-51961144D01*
X66105354Y-52000500D01*
X66288143Y-52000500D01*
X66294646Y-52000500D01*
X66479803Y-51961144D01*
X66652730Y-51884151D01*
X66805871Y-51772888D01*
X66932533Y-51632216D01*
X67027179Y-51468284D01*
X67085674Y-51288256D01*
X67105460Y-51100000D01*
X67085674Y-50911744D01*
X67027179Y-50731716D01*
X66932533Y-50567784D01*
X66805871Y-50427112D01*
X66800613Y-50423292D01*
X66800611Y-50423290D01*
X66657988Y-50319669D01*
X66657987Y-50319668D01*
X66652730Y-50315849D01*
X66646792Y-50313205D01*
X66485745Y-50241501D01*
X66485740Y-50241499D01*
X66479803Y-50238856D01*
X66473444Y-50237504D01*
X66473440Y-50237503D01*
X66301008Y-50200852D01*
X66301005Y-50200851D01*
X66294646Y-50199500D01*
X66105354Y-50199500D01*
X66098995Y-50200851D01*
X66098991Y-50200852D01*
X65926559Y-50237503D01*
X65926552Y-50237505D01*
X65920197Y-50238856D01*
X65914262Y-50241498D01*
X65914254Y-50241501D01*
X65753207Y-50313205D01*
X65753202Y-50313207D01*
X65747270Y-50315849D01*
X65742016Y-50319665D01*
X65742011Y-50319669D01*
X65599388Y-50423290D01*
X65599381Y-50423295D01*
X65594129Y-50427112D01*
X65589784Y-50431937D01*
X65589779Y-50431942D01*
X65471813Y-50562956D01*
X65471808Y-50562962D01*
X65467467Y-50567784D01*
X65464222Y-50573404D01*
X65464218Y-50573410D01*
X65376069Y-50726089D01*
X65376066Y-50726094D01*
X65372821Y-50731716D01*
X65370815Y-50737888D01*
X65370813Y-50737894D01*
X65316333Y-50905564D01*
X65316331Y-50905573D01*
X65314326Y-50911744D01*
X65313648Y-50918194D01*
X65313646Y-50918204D01*
X65295962Y-51086464D01*
X65294540Y-51100000D01*
X61468555Y-51100000D01*
X61357988Y-51019669D01*
X61357987Y-51019668D01*
X61352730Y-51015849D01*
X61346792Y-51013205D01*
X61185745Y-50941501D01*
X61185740Y-50941499D01*
X61179803Y-50938856D01*
X61173444Y-50937504D01*
X61173440Y-50937503D01*
X61001008Y-50900852D01*
X61001005Y-50900851D01*
X60994646Y-50899500D01*
X60805354Y-50899500D01*
X60798995Y-50900851D01*
X60798991Y-50900852D01*
X60626559Y-50937503D01*
X60626552Y-50937505D01*
X60620197Y-50938856D01*
X60614262Y-50941498D01*
X60614254Y-50941501D01*
X60453207Y-51013205D01*
X60453202Y-51013207D01*
X60447270Y-51015849D01*
X60442016Y-51019665D01*
X60442011Y-51019669D01*
X60299388Y-51123290D01*
X60299381Y-51123295D01*
X60294129Y-51127112D01*
X60289784Y-51131937D01*
X60289779Y-51131942D01*
X60171813Y-51262956D01*
X60171808Y-51262962D01*
X60167467Y-51267784D01*
X60164222Y-51273404D01*
X60164218Y-51273410D01*
X60076069Y-51426089D01*
X60076066Y-51426094D01*
X60072821Y-51431716D01*
X60070815Y-51437888D01*
X60070813Y-51437894D01*
X60016333Y-51605564D01*
X60016331Y-51605573D01*
X60014326Y-51611744D01*
X60013648Y-51618194D01*
X60013646Y-51618204D01*
X59996988Y-51776709D01*
X59994540Y-51800000D01*
X42700000Y-51800000D01*
X42700000Y-49224000D01*
X42716613Y-49162000D01*
X42762000Y-49116613D01*
X42824000Y-49100000D01*
X47291828Y-49100000D01*
X47353828Y-49116613D01*
G37*
%TD.AperFunction*%
M02*
