%TF.GenerationSoftware,KiCad,Pcbnew,(7.0.0)*%
%TF.CreationDate,2023-03-12T21:05:14+00:00*%
%TF.ProjectId,main,6d61696e-2e6b-4696-9361-645f70636258,1.0*%
%TF.SameCoordinates,Original*%
%TF.FileFunction,Copper,L1,Top*%
%TF.FilePolarity,Positive*%
%FSLAX46Y46*%
G04 Gerber Fmt 4.6, Leading zero omitted, Abs format (unit mm)*
G04 Created by KiCad (PCBNEW (7.0.0)) date 2023-03-12 21:05:14*
%MOMM*%
%LPD*%
G01*
G04 APERTURE LIST*
G04 Aperture macros list*
%AMRoundRect*
0 Rectangle with rounded corners*
0 $1 Rounding radius*
0 $2 $3 $4 $5 $6 $7 $8 $9 X,Y pos of 4 corners*
0 Add a 4 corners polygon primitive as box body*
4,1,4,$2,$3,$4,$5,$6,$7,$8,$9,$2,$3,0*
0 Add four circle primitives for the rounded corners*
1,1,$1+$1,$2,$3*
1,1,$1+$1,$4,$5*
1,1,$1+$1,$6,$7*
1,1,$1+$1,$8,$9*
0 Add four rect primitives between the rounded corners*
20,1,$1+$1,$2,$3,$4,$5,0*
20,1,$1+$1,$4,$5,$6,$7,0*
20,1,$1+$1,$6,$7,$8,$9,0*
20,1,$1+$1,$8,$9,$2,$3,0*%
G04 Aperture macros list end*
%TA.AperFunction,SMDPad,CuDef*%
%ADD10RoundRect,0.140000X0.140000X0.170000X-0.140000X0.170000X-0.140000X-0.170000X0.140000X-0.170000X0*%
%TD*%
%TA.AperFunction,SMDPad,CuDef*%
%ADD11RoundRect,0.135000X0.135000X0.185000X-0.135000X0.185000X-0.135000X-0.185000X0.135000X-0.185000X0*%
%TD*%
%TA.AperFunction,SMDPad,CuDef*%
%ADD12RoundRect,0.075000X-0.662500X-0.075000X0.662500X-0.075000X0.662500X0.075000X-0.662500X0.075000X0*%
%TD*%
%TA.AperFunction,SMDPad,CuDef*%
%ADD13RoundRect,0.075000X-0.075000X-0.662500X0.075000X-0.662500X0.075000X0.662500X-0.075000X0.662500X0*%
%TD*%
%TA.AperFunction,SMDPad,CuDef*%
%ADD14RoundRect,0.250000X-0.250000X-0.475000X0.250000X-0.475000X0.250000X0.475000X-0.250000X0.475000X0*%
%TD*%
%TA.AperFunction,SMDPad,CuDef*%
%ADD15RoundRect,0.150000X0.150000X-0.512500X0.150000X0.512500X-0.150000X0.512500X-0.150000X-0.512500X0*%
%TD*%
%TA.AperFunction,SMDPad,CuDef*%
%ADD16RoundRect,0.250000X-0.650000X0.325000X-0.650000X-0.325000X0.650000X-0.325000X0.650000X0.325000X0*%
%TD*%
%TA.AperFunction,SMDPad,CuDef*%
%ADD17RoundRect,0.140000X-0.140000X-0.170000X0.140000X-0.170000X0.140000X0.170000X-0.140000X0.170000X0*%
%TD*%
%TA.AperFunction,SMDPad,CuDef*%
%ADD18RoundRect,0.135000X-0.185000X0.135000X-0.185000X-0.135000X0.185000X-0.135000X0.185000X0.135000X0*%
%TD*%
%TA.AperFunction,ComponentPad*%
%ADD19R,1.700000X1.700000*%
%TD*%
%TA.AperFunction,ComponentPad*%
%ADD20O,1.700000X1.700000*%
%TD*%
%TA.AperFunction,SMDPad,CuDef*%
%ADD21R,0.750000X0.850000*%
%TD*%
%TA.AperFunction,SMDPad,CuDef*%
%ADD22RoundRect,0.135000X0.185000X-0.135000X0.185000X0.135000X-0.185000X0.135000X-0.185000X-0.135000X0*%
%TD*%
%TA.AperFunction,SMDPad,CuDef*%
%ADD23RoundRect,0.140000X0.170000X-0.140000X0.170000X0.140000X-0.170000X0.140000X-0.170000X-0.140000X0*%
%TD*%
%TA.AperFunction,SMDPad,CuDef*%
%ADD24RoundRect,0.135000X-0.135000X-0.185000X0.135000X-0.185000X0.135000X0.185000X-0.135000X0.185000X0*%
%TD*%
%TA.AperFunction,SMDPad,CuDef*%
%ADD25R,2.350000X3.500000*%
%TD*%
%TA.AperFunction,SMDPad,CuDef*%
%ADD26R,1.000000X0.750000*%
%TD*%
%TA.AperFunction,SMDPad,CuDef*%
%ADD27RoundRect,0.140000X-0.170000X0.140000X-0.170000X-0.140000X0.170000X-0.140000X0.170000X0.140000X0*%
%TD*%
%TA.AperFunction,SMDPad,CuDef*%
%ADD28RoundRect,0.225000X0.225000X0.250000X-0.225000X0.250000X-0.225000X-0.250000X0.225000X-0.250000X0*%
%TD*%
%TA.AperFunction,SMDPad,CuDef*%
%ADD29RoundRect,0.150000X0.825000X0.150000X-0.825000X0.150000X-0.825000X-0.150000X0.825000X-0.150000X0*%
%TD*%
%TA.AperFunction,SMDPad,CuDef*%
%ADD30RoundRect,0.250000X-0.312500X-0.625000X0.312500X-0.625000X0.312500X0.625000X-0.312500X0.625000X0*%
%TD*%
%TA.AperFunction,SMDPad,CuDef*%
%ADD31RoundRect,0.150000X-0.825000X-0.150000X0.825000X-0.150000X0.825000X0.150000X-0.825000X0.150000X0*%
%TD*%
%TA.AperFunction,SMDPad,CuDef*%
%ADD32RoundRect,0.218750X0.256250X-0.218750X0.256250X0.218750X-0.256250X0.218750X-0.256250X-0.218750X0*%
%TD*%
%TA.AperFunction,SMDPad,CuDef*%
%ADD33RoundRect,0.218750X0.218750X0.256250X-0.218750X0.256250X-0.218750X-0.256250X0.218750X-0.256250X0*%
%TD*%
%TA.AperFunction,ComponentPad*%
%ADD34R,1.350000X1.350000*%
%TD*%
%TA.AperFunction,ComponentPad*%
%ADD35O,1.350000X1.350000*%
%TD*%
%TA.AperFunction,ComponentPad*%
%ADD36C,2.200000*%
%TD*%
%TA.AperFunction,SMDPad,CuDef*%
%ADD37RoundRect,0.218750X-0.256250X0.218750X-0.256250X-0.218750X0.256250X-0.218750X0.256250X0.218750X0*%
%TD*%
%TA.AperFunction,SMDPad,CuDef*%
%ADD38RoundRect,0.250000X0.650000X-0.325000X0.650000X0.325000X-0.650000X0.325000X-0.650000X-0.325000X0*%
%TD*%
%TA.AperFunction,SMDPad,CuDef*%
%ADD39RoundRect,0.150000X-0.150000X0.512500X-0.150000X-0.512500X0.150000X-0.512500X0.150000X0.512500X0*%
%TD*%
%TA.AperFunction,SMDPad,CuDef*%
%ADD40RoundRect,0.250000X0.325000X0.650000X-0.325000X0.650000X-0.325000X-0.650000X0.325000X-0.650000X0*%
%TD*%
%TA.AperFunction,ViaPad*%
%ADD41C,0.800000*%
%TD*%
%TA.AperFunction,Conductor*%
%ADD42C,0.200000*%
%TD*%
%TA.AperFunction,Conductor*%
%ADD43C,0.300000*%
%TD*%
%TA.AperFunction,Conductor*%
%ADD44C,0.250000*%
%TD*%
G04 APERTURE END LIST*
D10*
X64980000Y-69300000D03*
X64020000Y-69300000D03*
D11*
X43110000Y-43000000D03*
X42090000Y-43000000D03*
D12*
X67737500Y-62350000D03*
X67737500Y-62850000D03*
X67737500Y-63350000D03*
X67737500Y-63850000D03*
X67737500Y-64350000D03*
X67737500Y-64850000D03*
X67737500Y-65350000D03*
X67737500Y-65850000D03*
X67737500Y-66350000D03*
X67737500Y-66850000D03*
X67737500Y-67350000D03*
X67737500Y-67850000D03*
D13*
X69150000Y-69262500D03*
X69650000Y-69262500D03*
X70150000Y-69262500D03*
X70650000Y-69262500D03*
X71150000Y-69262500D03*
X71650000Y-69262500D03*
X72150000Y-69262500D03*
X72650000Y-69262500D03*
X73150000Y-69262500D03*
X73650000Y-69262500D03*
X74150000Y-69262500D03*
X74650000Y-69262500D03*
D12*
X76062500Y-67850000D03*
X76062500Y-67350000D03*
X76062500Y-66850000D03*
X76062500Y-66350000D03*
X76062500Y-65850000D03*
X76062500Y-65350000D03*
X76062500Y-64850000D03*
X76062500Y-64350000D03*
X76062500Y-63850000D03*
X76062500Y-63350000D03*
X76062500Y-62850000D03*
X76062500Y-62350000D03*
D13*
X74650000Y-60937500D03*
X74150000Y-60937500D03*
X73650000Y-60937500D03*
X73150000Y-60937500D03*
X72650000Y-60937500D03*
X72150000Y-60937500D03*
X71650000Y-60937500D03*
X71150000Y-60937500D03*
X70650000Y-60937500D03*
X70150000Y-60937500D03*
X69650000Y-60937500D03*
X69150000Y-60937500D03*
D11*
X77710000Y-40000000D03*
X76690000Y-40000000D03*
X77710000Y-41000000D03*
X76690000Y-41000000D03*
D14*
X58150000Y-62700000D03*
X60050000Y-62700000D03*
D11*
X52710000Y-69100000D03*
X51690000Y-69100000D03*
X43110000Y-41000000D03*
X42090000Y-41000000D03*
D15*
X58150000Y-66937500D03*
X60050000Y-66937500D03*
X59100000Y-64662500D03*
D16*
X46300000Y-66725000D03*
X46300000Y-69675000D03*
D17*
X65220000Y-62300000D03*
X66180000Y-62300000D03*
D11*
X43110000Y-40000000D03*
X42090000Y-40000000D03*
D18*
X72500000Y-58490000D03*
X72500000Y-59510000D03*
D19*
X84559999Y-62019999D03*
D20*
X87099999Y-62019999D03*
X84559999Y-64559999D03*
X87099999Y-64559999D03*
X84559999Y-67099999D03*
X87099999Y-67099999D03*
D10*
X59220000Y-49700000D03*
X58260000Y-49700000D03*
D11*
X48910000Y-69600000D03*
X47890000Y-69600000D03*
D18*
X74100000Y-56290000D03*
X74100000Y-57310000D03*
D21*
X63974999Y-67024999D03*
X63974999Y-68374999D03*
X65024999Y-68374999D03*
X65024999Y-67024999D03*
D22*
X69500000Y-59510000D03*
X69500000Y-58490000D03*
D16*
X55350000Y-64775000D03*
X55350000Y-67725000D03*
D11*
X43110000Y-42000000D03*
X42090000Y-42000000D03*
D23*
X69400000Y-53480000D03*
X69400000Y-52520000D03*
D11*
X46810000Y-60800000D03*
X45790000Y-60800000D03*
D24*
X59190000Y-56300000D03*
X60210000Y-56300000D03*
X49790000Y-68550000D03*
X50810000Y-68550000D03*
D11*
X77710000Y-42000000D03*
X76690000Y-42000000D03*
D10*
X65780000Y-64800000D03*
X64820000Y-64800000D03*
D25*
X48874999Y-60399999D03*
X54924999Y-60399999D03*
D26*
X82799999Y-53524999D03*
X88799999Y-53524999D03*
X82799999Y-57274999D03*
X88799999Y-57274999D03*
D27*
X67500000Y-68820000D03*
X67500000Y-69780000D03*
D24*
X76090000Y-49700000D03*
X77110000Y-49700000D03*
D28*
X65775000Y-63600000D03*
X64225000Y-63600000D03*
D23*
X51400000Y-66430000D03*
X51400000Y-65470000D03*
D10*
X52680000Y-70100000D03*
X51720000Y-70100000D03*
D29*
X64175000Y-54905000D03*
X64175000Y-53635000D03*
X64175000Y-52365000D03*
X64175000Y-51095000D03*
X59225000Y-51095000D03*
X59225000Y-52365000D03*
X59225000Y-53635000D03*
X59225000Y-54905000D03*
D30*
X72137500Y-45300000D03*
X75062500Y-45300000D03*
D16*
X53050000Y-64775000D03*
X53050000Y-67725000D03*
D31*
X71125000Y-51095000D03*
X71125000Y-52365000D03*
X71125000Y-53635000D03*
X71125000Y-54905000D03*
X76075000Y-54905000D03*
X76075000Y-53635000D03*
X76075000Y-52365000D03*
X76075000Y-51095000D03*
D30*
X72137500Y-47600000D03*
X75062500Y-47600000D03*
D11*
X77710000Y-43000000D03*
X76690000Y-43000000D03*
D17*
X64020000Y-66100000D03*
X64980000Y-66100000D03*
D32*
X46600000Y-59287500D03*
X46600000Y-57712500D03*
D33*
X77987500Y-69000000D03*
X76412500Y-69000000D03*
D24*
X47890000Y-68550000D03*
X48910000Y-68550000D03*
D18*
X73500000Y-58490000D03*
X73500000Y-59510000D03*
D34*
X79799999Y-47999999D03*
D35*
X79799999Y-45999999D03*
X79799999Y-43999999D03*
X79799999Y-41999999D03*
X79799999Y-39999999D03*
X79799999Y-37999999D03*
X79799999Y-35999999D03*
X79799999Y-33999999D03*
X79799999Y-31999999D03*
X79799999Y-29999999D03*
X81799999Y-47999999D03*
X81799999Y-45999999D03*
X81799999Y-43999999D03*
X81799999Y-41999999D03*
X81799999Y-39999999D03*
X81799999Y-37999999D03*
X81799999Y-35999999D03*
X81799999Y-33999999D03*
X81799999Y-31999999D03*
X81799999Y-29999999D03*
D18*
X61300000Y-63390000D03*
X61300000Y-64410000D03*
D36*
X42674900Y-58190000D03*
X42674900Y-65810000D03*
D27*
X65900000Y-52520000D03*
X65900000Y-53480000D03*
D37*
X61600000Y-65612500D03*
X61600000Y-67187500D03*
D34*
X39999999Y-29999999D03*
D35*
X39999999Y-31999999D03*
X39999999Y-33999999D03*
X39999999Y-35999999D03*
X39999999Y-37999999D03*
X39999999Y-39999999D03*
X39999999Y-41999999D03*
X39999999Y-43999999D03*
X39999999Y-45999999D03*
X39999999Y-47999999D03*
X37999999Y-29999999D03*
X37999999Y-31999999D03*
X37999999Y-33999999D03*
X37999999Y-35999999D03*
X37999999Y-37999999D03*
X37999999Y-39999999D03*
X37999999Y-41999999D03*
X37999999Y-43999999D03*
X37999999Y-45999999D03*
X37999999Y-47999999D03*
D17*
X76120000Y-56300000D03*
X77080000Y-56300000D03*
D24*
X76090000Y-70200000D03*
X77110000Y-70200000D03*
D38*
X46300000Y-65075000D03*
X46300000Y-62125000D03*
D22*
X70500000Y-59510000D03*
X70500000Y-58490000D03*
D39*
X50150000Y-64862500D03*
X49200000Y-64862500D03*
X48250000Y-64862500D03*
X48250000Y-67137500D03*
X49200000Y-67137500D03*
X50150000Y-67137500D03*
D24*
X65890000Y-51100000D03*
X66910000Y-51100000D03*
D40*
X61175000Y-69100000D03*
X58225000Y-69100000D03*
D41*
X47000000Y-46000000D03*
X54400000Y-58200000D03*
X62800000Y-52400000D03*
X53300000Y-69600000D03*
X54400000Y-62600000D03*
X55700000Y-58200000D03*
X54400000Y-63700000D03*
X55700000Y-63700000D03*
X72500000Y-53600000D03*
X55700000Y-62600000D03*
X53100000Y-63700000D03*
X60200000Y-68500000D03*
X76100000Y-59500000D03*
X60800000Y-67700000D03*
X60700000Y-59500000D03*
X69100000Y-64000000D03*
X60200000Y-69700000D03*
X68700000Y-58500000D03*
X57800000Y-54900000D03*
X74700000Y-51100000D03*
X72500000Y-57700000D03*
X81900000Y-57300000D03*
X69000000Y-66900000D03*
X44020992Y-43025000D03*
X75779008Y-43025000D03*
X75779008Y-41975000D03*
X44020992Y-41975000D03*
X35000000Y-54000000D03*
X59200000Y-68500000D03*
X57540000Y-49700000D03*
X54000000Y-46000000D03*
X45800000Y-68700000D03*
X64000000Y-46000000D03*
X35000000Y-70000000D03*
X90000000Y-29000000D03*
X40000000Y-70000000D03*
X90000000Y-39000000D03*
X64500000Y-62300000D03*
X51800000Y-67700000D03*
X64000000Y-64600000D03*
X30000000Y-49000000D03*
X90000000Y-34000000D03*
X69000000Y-46000000D03*
X50150000Y-65875500D03*
X83000000Y-70000000D03*
X90000000Y-59000000D03*
X30000000Y-29000000D03*
X54200000Y-68200000D03*
X49000000Y-29000000D03*
X78000000Y-70000000D03*
X90000000Y-44000000D03*
X55000000Y-54000000D03*
X47700000Y-41000000D03*
X58900000Y-66400000D03*
X61300000Y-62300000D03*
X46800000Y-63100000D03*
X83000000Y-59000000D03*
X35000000Y-59000000D03*
X47000000Y-49700000D03*
X69100000Y-65599503D03*
X68300000Y-69799500D03*
X35000000Y-65000000D03*
X40000000Y-54000000D03*
X30000000Y-44000000D03*
X77800000Y-56300000D03*
X74000000Y-29000000D03*
X90000000Y-54000000D03*
X65900000Y-54200000D03*
X59000000Y-29000000D03*
X30000000Y-39000000D03*
X60400000Y-63900000D03*
X40000000Y-62000000D03*
X65900000Y-66800000D03*
X30000000Y-34200000D03*
X46800000Y-68700000D03*
X90000000Y-49000000D03*
X54225000Y-67200000D03*
X81900000Y-53500000D03*
X54000000Y-29000000D03*
X63200000Y-68400000D03*
X69400000Y-51800000D03*
X59200000Y-69700000D03*
X47000000Y-54000000D03*
X44000000Y-29100000D03*
X58900000Y-67500000D03*
X45800000Y-63100000D03*
X64000000Y-29000000D03*
X69000000Y-29000000D03*
X90000000Y-70000000D03*
X77300000Y-65800000D03*
X77300000Y-64300000D03*
X51100000Y-69600000D03*
X48300000Y-66124500D03*
D42*
X71889950Y-56100000D02*
X73500000Y-57710050D01*
X69300000Y-56100000D02*
X71889950Y-56100000D01*
X68905000Y-51095000D02*
X67900000Y-52100000D01*
X73500000Y-57710050D02*
X73500000Y-58490000D01*
X67900000Y-52100000D02*
X67900000Y-54700000D01*
X71125000Y-51095000D02*
X68905000Y-51095000D01*
X67900000Y-54700000D02*
X69300000Y-56100000D01*
X74150000Y-60937500D02*
X74150000Y-57360000D01*
X74150000Y-57360000D02*
X74100000Y-57310000D01*
X68600000Y-56800000D02*
X68700000Y-56800000D01*
X66910000Y-55110000D02*
X68600000Y-56800000D01*
X71150000Y-60937500D02*
X71150000Y-57750000D01*
X70200000Y-56800000D02*
X68700000Y-56800000D01*
X71150000Y-57750000D02*
X70200000Y-56800000D01*
X66910000Y-51100000D02*
X66910000Y-55110000D01*
X52680000Y-70100000D02*
X52680000Y-69600000D01*
X47312500Y-57000000D02*
X46600000Y-57712500D01*
D43*
X64175000Y-52365000D02*
X65745000Y-52365000D01*
D42*
X52680000Y-69130000D02*
X52710000Y-69100000D01*
X64175000Y-52365000D02*
X62835000Y-52365000D01*
X72465000Y-53635000D02*
X72500000Y-53600000D01*
X52680000Y-69600000D02*
X52680000Y-69130000D01*
X52680000Y-69600000D02*
X53300000Y-69600000D01*
D43*
X71125000Y-53635000D02*
X69555000Y-53635000D01*
X65745000Y-52365000D02*
X65900000Y-52520000D01*
X69555000Y-53635000D02*
X69400000Y-53480000D01*
D42*
X62835000Y-52365000D02*
X62800000Y-52400000D01*
X71125000Y-53635000D02*
X72465000Y-53635000D01*
X47312500Y-57000000D02*
X53800000Y-57000000D01*
X65305000Y-54905000D02*
X67900000Y-57500000D01*
X64175000Y-54905000D02*
X65305000Y-54905000D01*
X67900000Y-57500000D02*
X69900000Y-57500000D01*
X70500000Y-58100000D02*
X70500000Y-58490000D01*
X69900000Y-57500000D02*
X70500000Y-58100000D01*
X67737500Y-64850000D02*
X65830000Y-64850000D01*
D43*
X60710000Y-56800000D02*
X60710000Y-59490000D01*
D42*
X65775000Y-64795000D02*
X65780000Y-64800000D01*
X67737500Y-63850000D02*
X68950000Y-63850000D01*
X77500000Y-50090000D02*
X77110000Y-49700000D01*
X76075000Y-54905000D02*
X77195000Y-54905000D01*
X68850000Y-64850000D02*
X69100000Y-64600000D01*
D43*
X60600000Y-55910000D02*
X60210000Y-56300000D01*
X60710000Y-59490000D02*
X60700000Y-59500000D01*
X59220000Y-51090000D02*
X59225000Y-51095000D01*
X60600000Y-51300000D02*
X60600000Y-55910000D01*
X60710000Y-56800000D02*
X60210000Y-56300000D01*
X76120000Y-56300000D02*
X76120000Y-54950000D01*
X59225000Y-51095000D02*
X60395000Y-51095000D01*
D42*
X77195000Y-54905000D02*
X77500000Y-54600000D01*
X65775000Y-63600000D02*
X65775000Y-64795000D01*
D43*
X76120000Y-59480000D02*
X76100000Y-59500000D01*
X60395000Y-51095000D02*
X60600000Y-51300000D01*
X76120000Y-54950000D02*
X76075000Y-54905000D01*
D42*
X68950000Y-63850000D02*
X69100000Y-64000000D01*
X67737500Y-64850000D02*
X68850000Y-64850000D01*
X69100000Y-64000000D02*
X69100000Y-64600000D01*
X77500000Y-54600000D02*
X77500000Y-50090000D01*
D43*
X59220000Y-49700000D02*
X59220000Y-51090000D01*
D42*
X65830000Y-64850000D02*
X65780000Y-64800000D01*
D43*
X76120000Y-56300000D02*
X76120000Y-59480000D01*
D42*
X68700000Y-58500000D02*
X69490000Y-58500000D01*
X57805000Y-54905000D02*
X57800000Y-54900000D01*
X59190000Y-54940000D02*
X59225000Y-54905000D01*
X59225000Y-54905000D02*
X57805000Y-54905000D01*
X59190000Y-56300000D02*
X59190000Y-54940000D01*
X69490000Y-58500000D02*
X69500000Y-58490000D01*
X76090000Y-49700000D02*
X76090000Y-51080000D01*
X76090000Y-51080000D02*
X76075000Y-51095000D01*
X72500000Y-58490000D02*
X72500000Y-57700000D01*
X76070000Y-51100000D02*
X76075000Y-51095000D01*
X74700000Y-51100000D02*
X76070000Y-51100000D01*
X78200000Y-31600000D02*
X41600000Y-31600000D01*
X41600000Y-31600000D02*
X40000000Y-30000000D01*
X79800000Y-30000000D02*
X78200000Y-31600000D01*
X79800000Y-32000000D02*
X40000000Y-32000000D01*
X78200000Y-32400000D02*
X41600000Y-32400000D01*
X41600000Y-32400000D02*
X40000000Y-34000000D01*
X79800000Y-34000000D02*
X78200000Y-32400000D01*
X79200000Y-38600000D02*
X40600000Y-38600000D01*
X79800000Y-38000000D02*
X79200000Y-38600000D01*
X40600000Y-38600000D02*
X40000000Y-38000000D01*
X38000000Y-32000000D02*
X39000000Y-33000000D01*
X39000000Y-33000000D02*
X39000000Y-34400000D01*
X39600000Y-35000000D02*
X80198000Y-35000000D01*
X80798000Y-33002000D02*
X81800000Y-32000000D01*
X39000000Y-34400000D02*
X39600000Y-35000000D01*
X80798000Y-34400000D02*
X80798000Y-33002000D01*
X80198000Y-35000000D02*
X80798000Y-34400000D01*
X40400000Y-37000000D02*
X39000000Y-37000000D01*
X77798000Y-35400000D02*
X42000000Y-35400000D01*
X80800000Y-37000000D02*
X79398000Y-37000000D01*
X79398000Y-37000000D02*
X77798000Y-35400000D01*
X39000000Y-37000000D02*
X38000000Y-36000000D01*
X42000000Y-35400000D02*
X40400000Y-37000000D01*
X81800000Y-36000000D02*
X80800000Y-37000000D01*
X80800000Y-39000000D02*
X81800000Y-38000000D01*
X39000000Y-39000000D02*
X80800000Y-39000000D01*
X38000000Y-38000000D02*
X39000000Y-39000000D01*
X73205000Y-54905000D02*
X74100000Y-55800000D01*
X71125000Y-54905000D02*
X73205000Y-54905000D01*
X74100000Y-55800000D02*
X74100000Y-56290000D01*
X76062500Y-62850000D02*
X80310000Y-62850000D01*
X84560000Y-67100000D02*
X80310000Y-62850000D01*
X84560000Y-64560000D02*
X82350000Y-62350000D01*
X82350000Y-62350000D02*
X76062500Y-62350000D01*
X47350000Y-67650000D02*
X47350000Y-67400000D01*
X47890000Y-68550000D02*
X47890000Y-68190000D01*
X47890000Y-68190000D02*
X47350000Y-67650000D01*
X79300000Y-42000000D02*
X79025000Y-42275000D01*
X77985000Y-42275000D02*
X77710000Y-42000000D01*
X79025000Y-42275000D02*
X77985000Y-42275000D01*
X79800000Y-42000000D02*
X79300000Y-42000000D01*
X66850000Y-64350000D02*
X66600000Y-64100000D01*
X66600000Y-62720000D02*
X66180000Y-62300000D01*
X67737500Y-64350000D02*
X66850000Y-64350000D01*
X66600000Y-64100000D02*
X66600000Y-62720000D01*
X66850000Y-66350000D02*
X67737500Y-66350000D01*
X66600000Y-66600000D02*
X66850000Y-66350000D01*
X65025000Y-68375000D02*
X65525000Y-68375000D01*
X65525000Y-68375000D02*
X66600000Y-67300000D01*
X66600000Y-67300000D02*
X66600000Y-66600000D01*
X64980000Y-69300000D02*
X64980000Y-68420000D01*
X64980000Y-68420000D02*
X65025000Y-68375000D01*
X88800000Y-57275000D02*
X82800000Y-57275000D01*
D44*
X68950000Y-66850000D02*
X69000000Y-66900000D01*
D42*
X81925000Y-57275000D02*
X81900000Y-57300000D01*
D44*
X68180000Y-68820000D02*
X69000000Y-68000000D01*
D42*
X82800000Y-57275000D02*
X81925000Y-57275000D01*
D44*
X69000000Y-68000000D02*
X69000000Y-66900000D01*
X67500000Y-68820000D02*
X68180000Y-68820000D01*
X67737500Y-66850000D02*
X68950000Y-66850000D01*
D42*
X64175000Y-51095000D02*
X65885000Y-51095000D01*
X65885000Y-51095000D02*
X65890000Y-51100000D01*
X73500000Y-59510000D02*
X73650000Y-59660000D01*
X73650000Y-59660000D02*
X73650000Y-60937500D01*
X72500000Y-59510000D02*
X72650000Y-59660000D01*
X72650000Y-59660000D02*
X72650000Y-60937500D01*
X70500000Y-59510000D02*
X70650000Y-59660000D01*
X70650000Y-59660000D02*
X70650000Y-60937500D01*
X69650000Y-59660000D02*
X69650000Y-60937500D01*
X69500000Y-59510000D02*
X69650000Y-59660000D01*
X65310000Y-65410000D02*
X65750000Y-65850000D01*
X64020000Y-66100000D02*
X64020000Y-66980000D01*
X64490000Y-65410000D02*
X65310000Y-65410000D01*
X64020000Y-66100000D02*
X64020000Y-65880000D01*
X64020000Y-66980000D02*
X63975000Y-67025000D01*
X65750000Y-65850000D02*
X67737500Y-65850000D01*
X64020000Y-65880000D02*
X64490000Y-65410000D01*
X77110000Y-70200000D02*
X77110000Y-69110000D01*
X77110000Y-69110000D02*
X77000000Y-69000000D01*
X77000000Y-69000000D02*
X76412500Y-69000000D01*
X79300000Y-40000000D02*
X79800000Y-40000000D01*
X77985000Y-40275000D02*
X79025000Y-40275000D01*
X77710000Y-40000000D02*
X77985000Y-40275000D01*
X79025000Y-40275000D02*
X79300000Y-40000000D01*
X77710000Y-43000000D02*
X77985000Y-42725000D01*
X80800000Y-43000000D02*
X81800000Y-44000000D01*
X79125000Y-42725000D02*
X79400000Y-43000000D01*
X77985000Y-42725000D02*
X79125000Y-42725000D01*
X79400000Y-43000000D02*
X80800000Y-43000000D01*
X79125000Y-40725000D02*
X79400000Y-41000000D01*
X77985000Y-40725000D02*
X79125000Y-40725000D01*
X79400000Y-41000000D02*
X80800000Y-41000000D01*
X80800000Y-41000000D02*
X81800000Y-42000000D01*
X77710000Y-41000000D02*
X77985000Y-40725000D01*
X72137500Y-47600000D02*
X73375000Y-47600000D01*
X74906800Y-40275000D02*
X76415000Y-40275000D01*
X75235000Y-53635000D02*
X74900000Y-53300000D01*
X73375000Y-41806800D02*
X74906800Y-40275000D01*
X76415000Y-40275000D02*
X76690000Y-40000000D01*
X74900000Y-53300000D02*
X74281800Y-53300000D01*
X73375000Y-52393200D02*
X73375000Y-41806800D01*
X72137500Y-45300000D02*
X73375000Y-45300000D01*
X76075000Y-53635000D02*
X75235000Y-53635000D01*
X74281800Y-53300000D02*
X73375000Y-52393200D01*
X73825000Y-41993200D02*
X75093200Y-40725000D01*
X74900000Y-52700000D02*
X74318200Y-52700000D01*
X75093200Y-40725000D02*
X76415000Y-40725000D01*
X76075000Y-52365000D02*
X75235000Y-52365000D01*
X75062500Y-45300000D02*
X73825000Y-45300000D01*
X74318200Y-52700000D02*
X73825000Y-52206800D01*
X75062500Y-47600000D02*
X73825000Y-47600000D01*
X76415000Y-40725000D02*
X76690000Y-41000000D01*
X73825000Y-52206800D02*
X73825000Y-41993200D01*
X75235000Y-52365000D02*
X74900000Y-52700000D01*
X58013743Y-53225000D02*
X58423743Y-53635000D01*
X58423743Y-53635000D02*
X59225000Y-53635000D01*
X43385000Y-40725000D02*
X44706800Y-40725000D01*
X44706800Y-40725000D02*
X57206800Y-53225000D01*
X43110000Y-41000000D02*
X43385000Y-40725000D01*
X57206800Y-53225000D02*
X58013743Y-53225000D01*
X58423743Y-52365000D02*
X59225000Y-52365000D01*
X57393200Y-52775000D02*
X58013743Y-52775000D01*
X58013743Y-52775000D02*
X58423743Y-52365000D01*
X43110000Y-40000000D02*
X43385000Y-40275000D01*
X43385000Y-40275000D02*
X44893200Y-40275000D01*
X44893200Y-40275000D02*
X57393200Y-52775000D01*
X40400000Y-41000000D02*
X39000000Y-41000000D01*
X40675000Y-40725000D02*
X40400000Y-41000000D01*
X42090000Y-41000000D02*
X41815000Y-40725000D01*
X41815000Y-40725000D02*
X40675000Y-40725000D01*
X39000000Y-41000000D02*
X38000000Y-42000000D01*
X40450000Y-42000000D02*
X40725000Y-42275000D01*
X40725000Y-42275000D02*
X41815000Y-42275000D01*
X40000000Y-42000000D02*
X40450000Y-42000000D01*
X41815000Y-42275000D02*
X42090000Y-42000000D01*
X39000000Y-43000000D02*
X40400000Y-43000000D01*
X40675000Y-42725000D02*
X41815000Y-42725000D01*
X38000000Y-44000000D02*
X39000000Y-43000000D01*
X41815000Y-42725000D02*
X42090000Y-43000000D01*
X40400000Y-43000000D02*
X40675000Y-42725000D01*
X40450000Y-40000000D02*
X40000000Y-40000000D01*
X40725000Y-40275000D02*
X40450000Y-40000000D01*
X42090000Y-40000000D02*
X41815000Y-40275000D01*
X41815000Y-40275000D02*
X40725000Y-40275000D01*
X43720993Y-42725001D02*
X44020992Y-43025000D01*
X76415001Y-42725001D02*
X76079007Y-42725001D01*
X43110000Y-43000000D02*
X43384999Y-42725001D01*
X76690000Y-43000000D02*
X76415001Y-42725001D01*
X76079007Y-42725001D02*
X75779008Y-43025000D01*
X43384999Y-42725001D02*
X43720993Y-42725001D01*
X43384999Y-42274999D02*
X43720993Y-42274999D01*
X43720993Y-42274999D02*
X44020992Y-41975000D01*
X76079007Y-42274999D02*
X75779008Y-41975000D01*
X76690000Y-42000000D02*
X76415001Y-42274999D01*
X76415001Y-42274999D02*
X76079007Y-42274999D01*
X43110000Y-42000000D02*
X43384999Y-42274999D01*
X75162500Y-69262500D02*
X75300000Y-69400000D01*
X75500000Y-70200000D02*
X76090000Y-70200000D01*
X75300000Y-69400000D02*
X75300000Y-70000000D01*
X74650000Y-69262500D02*
X75162500Y-69262500D01*
X75300000Y-70000000D02*
X75500000Y-70200000D01*
X64000000Y-64600000D02*
X64000000Y-63825000D01*
D44*
X82800000Y-53525000D02*
X81925000Y-53525000D01*
D42*
X45790000Y-61615000D02*
X46300000Y-62125000D01*
D44*
X81925000Y-53525000D02*
X81900000Y-53500000D01*
D42*
X68280500Y-69780000D02*
X68300000Y-69799500D01*
X64820000Y-64800000D02*
X64200000Y-64800000D01*
X61300000Y-63390000D02*
X61300000Y-62300000D01*
X65655000Y-67025000D02*
X65880000Y-66800000D01*
X64980000Y-66100000D02*
X64980000Y-66980000D01*
X67500000Y-69780000D02*
X68280500Y-69780000D01*
D43*
X69555000Y-52365000D02*
X69400000Y-52520000D01*
D42*
X45790000Y-60800000D02*
X45790000Y-61615000D01*
D43*
X58260000Y-49700000D02*
X57540000Y-49700000D01*
D42*
X64020000Y-69300000D02*
X64020000Y-68420000D01*
X77987500Y-69000000D02*
X77987500Y-69987500D01*
D43*
X65900000Y-53480000D02*
X65900000Y-54200000D01*
X65745000Y-53635000D02*
X65900000Y-53480000D01*
D42*
X77987500Y-69987500D02*
X78000000Y-70000000D01*
X46625000Y-70000000D02*
X46300000Y-69675000D01*
X77080000Y-56300000D02*
X77800000Y-56300000D01*
X68850497Y-65350000D02*
X69100000Y-65599503D01*
X64980000Y-66980000D02*
X65025000Y-67025000D01*
X50150000Y-64862500D02*
X50150000Y-65875500D01*
X50810000Y-68550000D02*
X50950000Y-68550000D01*
X64000000Y-63825000D02*
X64225000Y-63600000D01*
X64020000Y-68420000D02*
X63975000Y-68375000D01*
X67737500Y-65350000D02*
X68850497Y-65350000D01*
D43*
X88800000Y-53525000D02*
X82800000Y-53525000D01*
D42*
X65220000Y-62300000D02*
X64500000Y-62300000D01*
X64200000Y-64800000D02*
X64000000Y-64600000D01*
D43*
X69400000Y-52520000D02*
X69400000Y-51800000D01*
D42*
X47890000Y-69600000D02*
X46625000Y-69600000D01*
X63225000Y-68375000D02*
X63200000Y-68400000D01*
D43*
X71125000Y-52365000D02*
X69555000Y-52365000D01*
D42*
X63975000Y-68375000D02*
X63225000Y-68375000D01*
X65025000Y-67025000D02*
X65655000Y-67025000D01*
X50950000Y-68550000D02*
X51800000Y-67700000D01*
D43*
X64175000Y-53635000D02*
X65745000Y-53635000D01*
D42*
X77250000Y-65850000D02*
X77300000Y-65800000D01*
X76062500Y-65850000D02*
X77250000Y-65850000D01*
X76062500Y-64350000D02*
X77250000Y-64350000D01*
X77250000Y-64350000D02*
X77300000Y-64300000D01*
D43*
X51212500Y-67137500D02*
X51400000Y-66950000D01*
X50150000Y-67137500D02*
X51212500Y-67137500D01*
X51400000Y-66950000D02*
X51400000Y-66430000D01*
X49450000Y-63850000D02*
X51200000Y-63850000D01*
X51200000Y-63850000D02*
X51400000Y-64050000D01*
X49200000Y-64100000D02*
X49450000Y-63850000D01*
X49200000Y-64862500D02*
X49200000Y-64100000D01*
X51400000Y-64050000D02*
X51400000Y-65470000D01*
D42*
X51100000Y-69600000D02*
X48910000Y-69600000D01*
D43*
X48250000Y-67137500D02*
X48250000Y-66174500D01*
D42*
X51720000Y-69600000D02*
X51720000Y-69130000D01*
X51720000Y-69600000D02*
X51100000Y-69600000D01*
X51720000Y-70100000D02*
X51720000Y-69600000D01*
X51720000Y-69130000D02*
X51690000Y-69100000D01*
D43*
X48250000Y-66174500D02*
X48300000Y-66124500D01*
D42*
X48910000Y-68550000D02*
X48910000Y-68140000D01*
X49200000Y-67850000D02*
X49200000Y-67137500D01*
X48910000Y-68140000D02*
X49200000Y-67850000D01*
X48910000Y-68550000D02*
X49790000Y-68550000D01*
X46810000Y-60800000D02*
X46810000Y-59497500D01*
X46810000Y-59497500D02*
X46600000Y-59287500D01*
X61600000Y-65100000D02*
X61300000Y-64800000D01*
X61300000Y-64800000D02*
X61300000Y-64410000D01*
X61600000Y-65612500D02*
X61600000Y-65100000D01*
%TA.AperFunction,Conductor*%
G36*
X47119500Y-68320097D02*
G01*
X47119500Y-68796756D01*
X47119500Y-68796781D01*
X47119501Y-68799180D01*
X47122335Y-68835204D01*
X47124101Y-68841282D01*
X47124102Y-68841288D01*
X47164954Y-68981900D01*
X47167131Y-68989393D01*
X47248865Y-69127598D01*
X47362402Y-69241135D01*
X47500000Y-69322510D01*
X47500000Y-70500000D01*
X45100000Y-70500000D01*
X45100000Y-68300000D01*
X47115502Y-68300000D01*
X47119500Y-68320097D01*
G37*
%TD.AperFunction*%
%TA.AperFunction,Conductor*%
G36*
X60602632Y-66010623D02*
G01*
X60644244Y-66040670D01*
X60670123Y-66084995D01*
X60687451Y-66137287D01*
X60691242Y-66143434D01*
X60691243Y-66143435D01*
X60758669Y-66252750D01*
X60775719Y-66280391D01*
X60894609Y-66399281D01*
X61037713Y-66487549D01*
X61197315Y-66540436D01*
X61295826Y-66550500D01*
X61901025Y-66550500D01*
X61904174Y-66550500D01*
X62002685Y-66540436D01*
X62101504Y-66507690D01*
X62136996Y-66495930D01*
X62194863Y-66491079D01*
X62248593Y-66513106D01*
X62286403Y-66557181D01*
X62300000Y-66613636D01*
X62300000Y-68341549D01*
X62299321Y-68354510D01*
X62294540Y-68400000D01*
X62295219Y-68406460D01*
X62295219Y-68406461D01*
X62299321Y-68445490D01*
X62300000Y-68458451D01*
X62300000Y-70076000D01*
X62283387Y-70138000D01*
X62238000Y-70183387D01*
X62176000Y-70200000D01*
X60155053Y-70200000D01*
X60098758Y-70186485D01*
X60054735Y-70148885D01*
X60032580Y-70095398D01*
X60037122Y-70037682D01*
X60083666Y-69894435D01*
X60085674Y-69888256D01*
X60105460Y-69700000D01*
X60085674Y-69511744D01*
X60027179Y-69331716D01*
X59998464Y-69281981D01*
X59984564Y-69245767D01*
X59982533Y-69207029D01*
X59991073Y-69125780D01*
X59991073Y-69074220D01*
X59982534Y-68992972D01*
X59984565Y-68954230D01*
X59998469Y-68918010D01*
X60027179Y-68868284D01*
X60085674Y-68688256D01*
X60105460Y-68500000D01*
X60085674Y-68311744D01*
X60027179Y-68131716D01*
X59966060Y-68025855D01*
X59949477Y-67966562D01*
X59948326Y-67913759D01*
X59941320Y-67860541D01*
X59915158Y-67753626D01*
X59866475Y-67654908D01*
X59837634Y-67609638D01*
X59830949Y-67601309D01*
X59808683Y-67558652D01*
X59804332Y-67510730D01*
X59804781Y-67506459D01*
X59805460Y-67500000D01*
X59785674Y-67311744D01*
X59761069Y-67236018D01*
X59755000Y-67197700D01*
X59755000Y-66702300D01*
X59761069Y-66663982D01*
X59783666Y-66594435D01*
X59785674Y-66588256D01*
X59805460Y-66400000D01*
X59804781Y-66393540D01*
X59804781Y-66393534D01*
X59801521Y-66362523D01*
X59805497Y-66315898D01*
X59826464Y-66274075D01*
X59842829Y-66252750D01*
X59893329Y-66130833D01*
X59896359Y-66107816D01*
X59917722Y-66052878D01*
X59962041Y-66014011D01*
X60019298Y-66000000D01*
X60552417Y-66000000D01*
X60602632Y-66010623D01*
G37*
%TD.AperFunction*%
%TA.AperFunction,Conductor*%
G36*
X46282402Y-61491135D02*
G01*
X46420607Y-61572869D01*
X46574796Y-61617665D01*
X46610819Y-61620500D01*
X47009180Y-61620499D01*
X47045204Y-61617665D01*
X47049229Y-61616495D01*
X47102049Y-61618521D01*
X47149917Y-61643209D01*
X47182803Y-61685865D01*
X47194500Y-61738440D01*
X47194500Y-61740198D01*
X47194504Y-61740537D01*
X47194505Y-61740665D01*
X47194658Y-61752684D01*
X47194660Y-61752813D01*
X47194664Y-61753092D01*
X47194670Y-61753359D01*
X47194673Y-61753474D01*
X47194816Y-61759085D01*
X47194819Y-61759204D01*
X47194825Y-61759402D01*
X47194838Y-61759774D01*
X47194839Y-61759779D01*
X47194913Y-61761769D01*
X47194999Y-61766376D01*
X47194999Y-62483628D01*
X47194916Y-62488154D01*
X47194836Y-62490320D01*
X47194830Y-62490500D01*
X47194826Y-62490619D01*
X47194823Y-62490721D01*
X47194819Y-62490861D01*
X47194675Y-62496514D01*
X47194673Y-62496599D01*
X47194665Y-62496928D01*
X47194660Y-62497279D01*
X47194659Y-62497359D01*
X47194505Y-62509372D01*
X47194504Y-62509478D01*
X47194500Y-62509824D01*
X47194500Y-63041549D01*
X47195192Y-63067995D01*
X47195871Y-63080956D01*
X47195930Y-63081716D01*
X47195936Y-63081796D01*
X47196604Y-63090278D01*
X47196604Y-63109722D01*
X47195936Y-63118203D01*
X47195930Y-63118288D01*
X47195871Y-63119044D01*
X47195192Y-63132005D01*
X47194500Y-63158451D01*
X47194500Y-63159284D01*
X47194500Y-63500000D01*
X45200000Y-63500000D01*
X45200000Y-61400000D01*
X46191267Y-61400000D01*
X46282402Y-61491135D01*
G37*
%TD.AperFunction*%
%TA.AperFunction,Conductor*%
G36*
X56353679Y-56912623D02*
G01*
X56397090Y-56947922D01*
X56400000Y-56954218D01*
X56400000Y-65500000D01*
X52334500Y-65500000D01*
X52272500Y-65483387D01*
X52227113Y-65438000D01*
X52210500Y-65376000D01*
X52210500Y-65267755D01*
X52210500Y-65265310D01*
X52207643Y-65229007D01*
X52162494Y-65073605D01*
X52117267Y-64997131D01*
X52100000Y-64934011D01*
X52100000Y-63753721D01*
X52110219Y-63704427D01*
X52139191Y-63663258D01*
X53700000Y-62200000D01*
X53700000Y-57024000D01*
X53716613Y-56962000D01*
X53762000Y-56916613D01*
X53824000Y-56900000D01*
X56299171Y-56900000D01*
X56353679Y-56912623D01*
G37*
%TD.AperFunction*%
%TA.AperFunction,Conductor*%
G36*
X61800000Y-62900000D02*
G01*
X60700000Y-62900000D01*
X60700000Y-63791266D01*
X60614383Y-63876883D01*
X60614379Y-63876887D01*
X60608865Y-63882402D01*
X60604894Y-63889115D01*
X60604892Y-63889119D01*
X60531102Y-64013891D01*
X60531099Y-64013896D01*
X60527131Y-64020607D01*
X60524955Y-64028096D01*
X60524954Y-64028099D01*
X60484103Y-64168707D01*
X60484101Y-64168716D01*
X60482335Y-64174796D01*
X60481838Y-64181104D01*
X60481837Y-64181113D01*
X60480351Y-64200000D01*
X60083519Y-64200000D01*
X60071662Y-64155749D01*
X60055471Y-64116661D01*
X60052105Y-64107537D01*
X60021677Y-64013891D01*
X60015529Y-63994970D01*
X60010141Y-63969619D01*
X60000084Y-63873930D01*
X59975071Y-63761495D01*
X59956716Y-63708441D01*
X59906903Y-63604592D01*
X59834875Y-63514715D01*
X59795005Y-63475192D01*
X59704500Y-63403951D01*
X59659335Y-63376093D01*
X59636751Y-63358235D01*
X59616760Y-63338244D01*
X59598902Y-63315659D01*
X59584052Y-63291583D01*
X59571886Y-63265492D01*
X59561529Y-63234238D01*
X59555872Y-63207795D01*
X59555638Y-63205497D01*
X59555000Y-63192935D01*
X59555000Y-62207065D01*
X59555637Y-62194509D01*
X59555873Y-62192198D01*
X59561526Y-62165770D01*
X59591018Y-62076768D01*
X59595489Y-62065242D01*
X59610197Y-62032305D01*
X59628628Y-61969913D01*
X59649218Y-61837722D01*
X59634409Y-61704760D01*
X59633226Y-61700000D01*
X61800000Y-61700000D01*
X61800000Y-62900000D01*
G37*
%TD.AperFunction*%
%TA.AperFunction,Conductor*%
G36*
X48335267Y-64217244D02*
G01*
X48380803Y-64264181D01*
X48396128Y-64327754D01*
X48372613Y-65103758D01*
X48354784Y-65164156D01*
X48309583Y-65208008D01*
X48248671Y-65224000D01*
X48205354Y-65224000D01*
X48198995Y-65225351D01*
X48198991Y-65225352D01*
X48026559Y-65262003D01*
X48026552Y-65262005D01*
X48020197Y-65263356D01*
X48014262Y-65265998D01*
X48014254Y-65266001D01*
X47853207Y-65337705D01*
X47853202Y-65337707D01*
X47847270Y-65340349D01*
X47842016Y-65344165D01*
X47842011Y-65344169D01*
X47699388Y-65447790D01*
X47699381Y-65447795D01*
X47694129Y-65451612D01*
X47689784Y-65456437D01*
X47689779Y-65456442D01*
X47571813Y-65587456D01*
X47571808Y-65587462D01*
X47567467Y-65592284D01*
X47564222Y-65597904D01*
X47564218Y-65597910D01*
X47476069Y-65750589D01*
X47476066Y-65750594D01*
X47472821Y-65756216D01*
X47470815Y-65762388D01*
X47470813Y-65762394D01*
X47416333Y-65930064D01*
X47416331Y-65930073D01*
X47414326Y-65936244D01*
X47413648Y-65942694D01*
X47413646Y-65942704D01*
X47396388Y-66106919D01*
X47394540Y-66124500D01*
X47395219Y-66130960D01*
X47413646Y-66306295D01*
X47413647Y-66306303D01*
X47414326Y-66312756D01*
X47416331Y-66318928D01*
X47416333Y-66318935D01*
X47454799Y-66437320D01*
X47460853Y-66473685D01*
X47455947Y-66510223D01*
X47454169Y-66516344D01*
X47454166Y-66516356D01*
X47452402Y-66522431D01*
X47451906Y-66528733D01*
X47451905Y-66528739D01*
X47449691Y-66556871D01*
X47449690Y-66556886D01*
X47449500Y-66559306D01*
X47449500Y-66561751D01*
X47449500Y-67376000D01*
X47432887Y-67438000D01*
X47387500Y-67483387D01*
X47325500Y-67500000D01*
X45200000Y-67500000D01*
X45200000Y-64200000D01*
X48272186Y-64200000D01*
X48335267Y-64217244D01*
G37*
%TD.AperFunction*%
%TA.AperFunction,Conductor*%
G36*
X45200000Y-67500000D02*
G01*
X41024000Y-67500000D01*
X40962000Y-67483387D01*
X40916613Y-67438000D01*
X40900000Y-67376000D01*
X40900000Y-64324000D01*
X40916613Y-64262000D01*
X40962000Y-64216613D01*
X41024000Y-64200000D01*
X45200000Y-64200000D01*
X45200000Y-67500000D01*
G37*
%TD.AperFunction*%
%TA.AperFunction,Conductor*%
G36*
X57400000Y-70200000D02*
G01*
X56500000Y-68600000D01*
X56500000Y-66900000D01*
X57400000Y-66000000D01*
X57400000Y-70200000D01*
G37*
%TD.AperFunction*%
%TA.AperFunction,Conductor*%
G36*
X56420564Y-56998708D02*
G01*
X57400000Y-61700000D01*
X57400000Y-65500000D01*
X56400000Y-65500000D01*
X56400000Y-56954218D01*
X56420564Y-56998708D01*
G37*
%TD.AperFunction*%
%TA.AperFunction,Conductor*%
G36*
X56500000Y-68600000D02*
G01*
X53397026Y-68600000D01*
X53351135Y-68522402D01*
X53237598Y-68408865D01*
X53106111Y-68331104D01*
X53106108Y-68331102D01*
X53106106Y-68331101D01*
X53099393Y-68327131D01*
X53091900Y-68324954D01*
X52951292Y-68284103D01*
X52951285Y-68284101D01*
X52945204Y-68282335D01*
X52938893Y-68281838D01*
X52938886Y-68281837D01*
X52911615Y-68279691D01*
X52911600Y-68279690D01*
X52909181Y-68279500D01*
X52906735Y-68279500D01*
X52513243Y-68279500D01*
X52513217Y-68279500D01*
X52510820Y-68279501D01*
X52508406Y-68279690D01*
X52508403Y-68279691D01*
X52481111Y-68281838D01*
X52481109Y-68281838D01*
X52474796Y-68282335D01*
X52468718Y-68284100D01*
X52468711Y-68284102D01*
X52328099Y-68324954D01*
X52328096Y-68324955D01*
X52320607Y-68327131D01*
X52313894Y-68331100D01*
X52313889Y-68331103D01*
X52263118Y-68361128D01*
X52199998Y-68378395D01*
X52136879Y-68361127D01*
X52086112Y-68331104D01*
X52086108Y-68331102D01*
X52079393Y-68327131D01*
X52071900Y-68324954D01*
X51931292Y-68284103D01*
X51931285Y-68284101D01*
X51925204Y-68282335D01*
X51918893Y-68281838D01*
X51918886Y-68281837D01*
X51891615Y-68279691D01*
X51891600Y-68279690D01*
X51889181Y-68279500D01*
X51886735Y-68279500D01*
X51500000Y-68279500D01*
X51500000Y-67724112D01*
X51508636Y-67719880D01*
X51528371Y-67712068D01*
X51565316Y-67685225D01*
X51575058Y-67678826D01*
X51614365Y-67655581D01*
X51629369Y-67640576D01*
X51644164Y-67627938D01*
X51661337Y-67615463D01*
X51690447Y-67580272D01*
X51698290Y-67571654D01*
X51802656Y-67467288D01*
X51811291Y-67459432D01*
X51811347Y-67459385D01*
X51817940Y-67455202D01*
X51865897Y-67404131D01*
X51868515Y-67401429D01*
X51888911Y-67381035D01*
X51891610Y-67377554D01*
X51899174Y-67368695D01*
X51930448Y-67335393D01*
X51940674Y-67316790D01*
X51951346Y-67300542D01*
X51964362Y-67283764D01*
X51982491Y-67241868D01*
X51987631Y-67231377D01*
X52009627Y-67191368D01*
X52014906Y-67170807D01*
X52021208Y-67152398D01*
X52029635Y-67132926D01*
X52036777Y-67087828D01*
X52039141Y-67076413D01*
X52050500Y-67032177D01*
X52050500Y-67029420D01*
X52074621Y-66971182D01*
X52080117Y-66965687D01*
X52118964Y-66900000D01*
X56500000Y-66900000D01*
X56500000Y-68600000D01*
G37*
%TD.AperFunction*%
%TA.AperFunction,Conductor*%
G36*
X59082646Y-61717066D02*
G01*
X59128144Y-61763567D01*
X59143838Y-61826703D01*
X59125407Y-61889095D01*
X59118976Y-61899520D01*
X59118973Y-61899525D01*
X59115186Y-61905666D01*
X59060001Y-62072203D01*
X59059313Y-62078933D01*
X59059312Y-62078940D01*
X59049819Y-62171859D01*
X59049818Y-62171877D01*
X59049500Y-62174991D01*
X59049500Y-62178138D01*
X59049500Y-62178139D01*
X59049500Y-63221859D01*
X59049500Y-63221878D01*
X59049501Y-63225008D01*
X59049820Y-63228140D01*
X59049821Y-63228141D01*
X59059312Y-63321061D01*
X59059313Y-63321069D01*
X59060001Y-63327797D01*
X59115186Y-63494334D01*
X59118977Y-63500480D01*
X59203497Y-63637511D01*
X59203500Y-63637515D01*
X59207288Y-63643656D01*
X59331344Y-63767712D01*
X59439128Y-63834193D01*
X59478998Y-63873716D01*
X59497353Y-63926770D01*
X59512064Y-64066736D01*
X59514326Y-64088256D01*
X59516331Y-64094428D01*
X59516333Y-64094435D01*
X59570811Y-64262100D01*
X59570813Y-64262105D01*
X59572821Y-64268284D01*
X59583387Y-64286585D01*
X59600000Y-64348584D01*
X59600000Y-65376000D01*
X59583387Y-65438000D01*
X59538000Y-65483387D01*
X59476000Y-65500000D01*
X58999403Y-65500000D01*
X58996211Y-65499832D01*
X58994646Y-65499500D01*
X58805354Y-65499500D01*
X58803788Y-65499832D01*
X58800597Y-65500000D01*
X57400000Y-65500000D01*
X57400000Y-61700000D01*
X57414171Y-61700000D01*
X59019867Y-61700000D01*
X59082646Y-61717066D01*
G37*
%TD.AperFunction*%
%TA.AperFunction,Conductor*%
G36*
X50038000Y-58516613D02*
G01*
X50083387Y-58562000D01*
X50100000Y-58624000D01*
X50100000Y-63575500D01*
X50083387Y-63637500D01*
X50038000Y-63682887D01*
X49976000Y-63699500D01*
X49934306Y-63699500D01*
X49931886Y-63699690D01*
X49931871Y-63699691D01*
X49903748Y-63701904D01*
X49903739Y-63701905D01*
X49897431Y-63702402D01*
X49891351Y-63704168D01*
X49891342Y-63704170D01*
X49747094Y-63746079D01*
X49747091Y-63746080D01*
X49739602Y-63748256D01*
X49732891Y-63752224D01*
X49732886Y-63752227D01*
X49604851Y-63827946D01*
X49604844Y-63827950D01*
X49598135Y-63831919D01*
X49592620Y-63837433D01*
X49592616Y-63837437D01*
X49487437Y-63942616D01*
X49487433Y-63942620D01*
X49481919Y-63948135D01*
X49477950Y-63954844D01*
X49477946Y-63954851D01*
X49402227Y-64082886D01*
X49402224Y-64082891D01*
X49398256Y-64089602D01*
X49396080Y-64097091D01*
X49396079Y-64097094D01*
X49354170Y-64241342D01*
X49354168Y-64241351D01*
X49352402Y-64247431D01*
X49351905Y-64253739D01*
X49351904Y-64253748D01*
X49349691Y-64281871D01*
X49349690Y-64281886D01*
X49349500Y-64284306D01*
X49349500Y-64286751D01*
X49349500Y-64526000D01*
X49332887Y-64588000D01*
X49287500Y-64633387D01*
X49225500Y-64650000D01*
X49174500Y-64650000D01*
X49112500Y-64633387D01*
X49067113Y-64588000D01*
X49050500Y-64526000D01*
X49050500Y-64286751D01*
X49050500Y-64284306D01*
X49047598Y-64247431D01*
X49001744Y-64089602D01*
X48918081Y-63948135D01*
X48801865Y-63831919D01*
X48795151Y-63827948D01*
X48795148Y-63827946D01*
X48667113Y-63752227D01*
X48667111Y-63752226D01*
X48660398Y-63748256D01*
X48652905Y-63746079D01*
X48508657Y-63704170D01*
X48508650Y-63704168D01*
X48502569Y-63702402D01*
X48496258Y-63701905D01*
X48496251Y-63701904D01*
X48468128Y-63699691D01*
X48468114Y-63699690D01*
X48465694Y-63699500D01*
X48463249Y-63699500D01*
X48317723Y-63699500D01*
X48301228Y-63698398D01*
X48293213Y-63697322D01*
X48272186Y-63694500D01*
X48268051Y-63694500D01*
X47824000Y-63694500D01*
X47762000Y-63677887D01*
X47716613Y-63632500D01*
X47700000Y-63570500D01*
X47700000Y-63158451D01*
X47700679Y-63145490D01*
X47704781Y-63106461D01*
X47704781Y-63106460D01*
X47705460Y-63100000D01*
X47700679Y-63054510D01*
X47700000Y-63041549D01*
X47700000Y-62509824D01*
X47700161Y-62503515D01*
X47700179Y-62503141D01*
X47700500Y-62500009D01*
X47700499Y-61749992D01*
X47700178Y-61746857D01*
X47700161Y-61746508D01*
X47700000Y-61740198D01*
X47700000Y-58624000D01*
X47716613Y-58562000D01*
X47762000Y-58516613D01*
X47824000Y-58500000D01*
X49976000Y-58500000D01*
X50038000Y-58516613D01*
G37*
%TD.AperFunction*%
%TA.AperFunction,Conductor*%
G36*
X59387437Y-66017616D02*
G01*
X59387433Y-66017620D01*
X59381919Y-66023135D01*
X59377950Y-66029844D01*
X59377946Y-66029851D01*
X59302227Y-66157886D01*
X59302224Y-66157891D01*
X59298256Y-66164602D01*
X59296080Y-66172091D01*
X59296079Y-66172094D01*
X59254170Y-66316342D01*
X59254168Y-66316351D01*
X59252402Y-66322431D01*
X59251905Y-66328739D01*
X59251904Y-66328748D01*
X59249691Y-66356871D01*
X59249690Y-66356886D01*
X59249500Y-66359306D01*
X59249500Y-67515694D01*
X59249690Y-67518114D01*
X59249691Y-67518128D01*
X59251904Y-67546251D01*
X59251905Y-67546258D01*
X59252402Y-67552569D01*
X59254168Y-67558650D01*
X59254170Y-67558657D01*
X59296079Y-67702905D01*
X59298256Y-67710398D01*
X59302226Y-67717111D01*
X59302227Y-67717113D01*
X59377946Y-67845148D01*
X59377948Y-67845151D01*
X59381919Y-67851865D01*
X59387437Y-67857383D01*
X59411303Y-67881249D01*
X59440144Y-67926519D01*
X59447150Y-67979737D01*
X59431010Y-68030929D01*
X59372821Y-68131716D01*
X59370815Y-68137888D01*
X59370813Y-68137894D01*
X59316333Y-68305564D01*
X59316331Y-68305573D01*
X59314326Y-68311744D01*
X59313648Y-68318194D01*
X59313646Y-68318204D01*
X59295962Y-68486464D01*
X59294540Y-68500000D01*
X59295219Y-68506460D01*
X59313646Y-68681795D01*
X59313647Y-68681803D01*
X59314326Y-68688256D01*
X59316331Y-68694428D01*
X59316333Y-68694435D01*
X59370813Y-68862105D01*
X59372821Y-68868284D01*
X59376068Y-68873908D01*
X59376069Y-68873910D01*
X59464216Y-69026586D01*
X59464218Y-69026589D01*
X59464869Y-69027717D01*
X59464870Y-69027718D01*
X59467467Y-69032216D01*
X59466994Y-69032488D01*
X59485573Y-69074220D01*
X59485573Y-69125780D01*
X59466994Y-69167511D01*
X59467467Y-69167784D01*
X59464870Y-69172281D01*
X59464867Y-69172285D01*
X59464221Y-69173405D01*
X59464216Y-69173413D01*
X59376069Y-69326089D01*
X59376066Y-69326094D01*
X59372821Y-69331716D01*
X59370815Y-69337888D01*
X59370813Y-69337894D01*
X59316333Y-69505564D01*
X59316331Y-69505573D01*
X59314326Y-69511744D01*
X59313648Y-69518194D01*
X59313646Y-69518204D01*
X59295962Y-69686464D01*
X59294540Y-69700000D01*
X59295219Y-69706460D01*
X59313646Y-69881795D01*
X59313647Y-69881803D01*
X59314326Y-69888256D01*
X59316331Y-69894428D01*
X59316333Y-69894435D01*
X59370813Y-70062105D01*
X59372821Y-70068284D01*
X59376068Y-70073908D01*
X59376069Y-70073910D01*
X59448867Y-70200000D01*
X57400000Y-70200000D01*
X57400000Y-66000000D01*
X59405053Y-66000000D01*
X59387437Y-66017616D01*
G37*
%TD.AperFunction*%
%TA.AperFunction,Conductor*%
G36*
X74537280Y-62175500D02*
G01*
X74541333Y-62175500D01*
X74700500Y-62175500D01*
X74762500Y-62192113D01*
X74807887Y-62237500D01*
X74824500Y-62299500D01*
X74824500Y-62462720D01*
X74825028Y-62466737D01*
X74825029Y-62466739D01*
X74838252Y-62567184D01*
X74838253Y-62567190D01*
X74838449Y-62568673D01*
X74839313Y-62575236D01*
X74838449Y-62575350D01*
X74838449Y-62624650D01*
X74839313Y-62624764D01*
X74838254Y-62632807D01*
X74838252Y-62632815D01*
X74825029Y-62733260D01*
X74824500Y-62737280D01*
X74824500Y-62962720D01*
X74825028Y-62966737D01*
X74825029Y-62966739D01*
X74838252Y-63067183D01*
X74838253Y-63067188D01*
X74838448Y-63068665D01*
X74839313Y-63075236D01*
X74838448Y-63075349D01*
X74838449Y-63124650D01*
X74839313Y-63124764D01*
X74838449Y-63131319D01*
X74838449Y-63131326D01*
X74838253Y-63132810D01*
X74838253Y-63132813D01*
X74825107Y-63232666D01*
X74824500Y-63237280D01*
X74824500Y-63462720D01*
X74825028Y-63466737D01*
X74825029Y-63466739D01*
X74838252Y-63567183D01*
X74838253Y-63567188D01*
X74839312Y-63575235D01*
X74839313Y-63575236D01*
X74838448Y-63575349D01*
X74838449Y-63624650D01*
X74839313Y-63624764D01*
X74838449Y-63631319D01*
X74838449Y-63631326D01*
X74838253Y-63632810D01*
X74838253Y-63632813D01*
X74825029Y-63733260D01*
X74824500Y-63737280D01*
X74824500Y-63962720D01*
X74825028Y-63966737D01*
X74825029Y-63966739D01*
X74838252Y-64067183D01*
X74838253Y-64067188D01*
X74838448Y-64068665D01*
X74839313Y-64075236D01*
X74838448Y-64075349D01*
X74838449Y-64124650D01*
X74839313Y-64124764D01*
X74838449Y-64131319D01*
X74838449Y-64131326D01*
X74838253Y-64132810D01*
X74838253Y-64132813D01*
X74825029Y-64233260D01*
X74824500Y-64237280D01*
X74824500Y-64462720D01*
X74825028Y-64466737D01*
X74825029Y-64466739D01*
X74838252Y-64567183D01*
X74838253Y-64567188D01*
X74838448Y-64568665D01*
X74839313Y-64575236D01*
X74838448Y-64575349D01*
X74838449Y-64624650D01*
X74839313Y-64624764D01*
X74838449Y-64631319D01*
X74838449Y-64631326D01*
X74838253Y-64632810D01*
X74838253Y-64632813D01*
X74825029Y-64733260D01*
X74824500Y-64737280D01*
X74824500Y-64962720D01*
X74825028Y-64966737D01*
X74825029Y-64966739D01*
X74838252Y-65067183D01*
X74838253Y-65067188D01*
X74838448Y-65068665D01*
X74839313Y-65075236D01*
X74838448Y-65075349D01*
X74838449Y-65124650D01*
X74839313Y-65124764D01*
X74838449Y-65131319D01*
X74838449Y-65131326D01*
X74838253Y-65132810D01*
X74838253Y-65132813D01*
X74826391Y-65222918D01*
X74824500Y-65237280D01*
X74824500Y-65462720D01*
X74825028Y-65466737D01*
X74825029Y-65466739D01*
X74838252Y-65567183D01*
X74838253Y-65567188D01*
X74838448Y-65568665D01*
X74839313Y-65575236D01*
X74838448Y-65575349D01*
X74838449Y-65624650D01*
X74839313Y-65624764D01*
X74838449Y-65631319D01*
X74838449Y-65631326D01*
X74838253Y-65632810D01*
X74838253Y-65632813D01*
X74827159Y-65717081D01*
X74824500Y-65737280D01*
X74824500Y-65962720D01*
X74825028Y-65966737D01*
X74825029Y-65966739D01*
X74838252Y-66067184D01*
X74838253Y-66067190D01*
X74838449Y-66068673D01*
X74839313Y-66075236D01*
X74838449Y-66075350D01*
X74838449Y-66124650D01*
X74839313Y-66124764D01*
X74838254Y-66132807D01*
X74838252Y-66132815D01*
X74825754Y-66227755D01*
X74824500Y-66237280D01*
X74824500Y-66462720D01*
X74825028Y-66466737D01*
X74825029Y-66466739D01*
X74838252Y-66567183D01*
X74838253Y-66567188D01*
X74838448Y-66568665D01*
X74839313Y-66575236D01*
X74838448Y-66575349D01*
X74838449Y-66624650D01*
X74839313Y-66624764D01*
X74838449Y-66631319D01*
X74838449Y-66631326D01*
X74838253Y-66632810D01*
X74838253Y-66632813D01*
X74833227Y-66670993D01*
X74824500Y-66737280D01*
X74824500Y-66962720D01*
X74825028Y-66966737D01*
X74825029Y-66966739D01*
X74838252Y-67067184D01*
X74838253Y-67067190D01*
X74838449Y-67068673D01*
X74839313Y-67075236D01*
X74838449Y-67075350D01*
X74838449Y-67124650D01*
X74839313Y-67124764D01*
X74838254Y-67132807D01*
X74838252Y-67132815D01*
X74830544Y-67191368D01*
X74824500Y-67237280D01*
X74824500Y-67462720D01*
X74825028Y-67466737D01*
X74825029Y-67466739D01*
X74838252Y-67567184D01*
X74838253Y-67567190D01*
X74838449Y-67568673D01*
X74839313Y-67575236D01*
X74838449Y-67575350D01*
X74838449Y-67624650D01*
X74839313Y-67624764D01*
X74838254Y-67632807D01*
X74838252Y-67632815D01*
X74828423Y-67707482D01*
X74824500Y-67737280D01*
X74824500Y-67741333D01*
X74824500Y-67900500D01*
X74807887Y-67962500D01*
X74762500Y-68007887D01*
X74700500Y-68024500D01*
X74537280Y-68024500D01*
X74533263Y-68025028D01*
X74533260Y-68025029D01*
X74432815Y-68038252D01*
X74432807Y-68038254D01*
X74424764Y-68039313D01*
X74424650Y-68038449D01*
X74375350Y-68038449D01*
X74375236Y-68039313D01*
X74367190Y-68038253D01*
X74367184Y-68038252D01*
X74266739Y-68025029D01*
X74266737Y-68025028D01*
X74262720Y-68024500D01*
X74037280Y-68024500D01*
X74033263Y-68025028D01*
X74033260Y-68025029D01*
X73932815Y-68038252D01*
X73932807Y-68038254D01*
X73924764Y-68039313D01*
X73924650Y-68038449D01*
X73875350Y-68038449D01*
X73875236Y-68039313D01*
X73867190Y-68038253D01*
X73867184Y-68038252D01*
X73766739Y-68025029D01*
X73766737Y-68025028D01*
X73762720Y-68024500D01*
X73537280Y-68024500D01*
X73533263Y-68025028D01*
X73533260Y-68025029D01*
X73432815Y-68038252D01*
X73432807Y-68038254D01*
X73424764Y-68039313D01*
X73424650Y-68038449D01*
X73375350Y-68038449D01*
X73375236Y-68039313D01*
X73367190Y-68038253D01*
X73367184Y-68038252D01*
X73266739Y-68025029D01*
X73266737Y-68025028D01*
X73262720Y-68024500D01*
X73037280Y-68024500D01*
X73033263Y-68025028D01*
X73033260Y-68025029D01*
X72932815Y-68038252D01*
X72932807Y-68038254D01*
X72924764Y-68039313D01*
X72924650Y-68038449D01*
X72875350Y-68038449D01*
X72875236Y-68039313D01*
X72867190Y-68038253D01*
X72867184Y-68038252D01*
X72766739Y-68025029D01*
X72766737Y-68025028D01*
X72762720Y-68024500D01*
X72537280Y-68024500D01*
X72533263Y-68025028D01*
X72533260Y-68025029D01*
X72432815Y-68038252D01*
X72432807Y-68038254D01*
X72424764Y-68039313D01*
X72424650Y-68038449D01*
X72375350Y-68038449D01*
X72375236Y-68039313D01*
X72367190Y-68038253D01*
X72367184Y-68038252D01*
X72266739Y-68025029D01*
X72266737Y-68025028D01*
X72262720Y-68024500D01*
X72037280Y-68024500D01*
X72033263Y-68025028D01*
X72033260Y-68025029D01*
X71932815Y-68038252D01*
X71932807Y-68038254D01*
X71924764Y-68039313D01*
X71924650Y-68038449D01*
X71875350Y-68038449D01*
X71875236Y-68039313D01*
X71867190Y-68038253D01*
X71867184Y-68038252D01*
X71766739Y-68025029D01*
X71766737Y-68025028D01*
X71762720Y-68024500D01*
X71537280Y-68024500D01*
X71533263Y-68025028D01*
X71533260Y-68025029D01*
X71432815Y-68038252D01*
X71432807Y-68038254D01*
X71424764Y-68039313D01*
X71424650Y-68038449D01*
X71375350Y-68038449D01*
X71375236Y-68039313D01*
X71367190Y-68038253D01*
X71367184Y-68038252D01*
X71266739Y-68025029D01*
X71266737Y-68025028D01*
X71262720Y-68024500D01*
X71037280Y-68024500D01*
X71033263Y-68025028D01*
X71033260Y-68025029D01*
X70932815Y-68038252D01*
X70932807Y-68038254D01*
X70924764Y-68039313D01*
X70924650Y-68038449D01*
X70875350Y-68038449D01*
X70875236Y-68039313D01*
X70867190Y-68038253D01*
X70867184Y-68038252D01*
X70766739Y-68025029D01*
X70766737Y-68025028D01*
X70762720Y-68024500D01*
X70537280Y-68024500D01*
X70533263Y-68025028D01*
X70533260Y-68025029D01*
X70432815Y-68038252D01*
X70432807Y-68038254D01*
X70424764Y-68039313D01*
X70424650Y-68038449D01*
X70375350Y-68038449D01*
X70375236Y-68039313D01*
X70367190Y-68038253D01*
X70367184Y-68038252D01*
X70266739Y-68025029D01*
X70266737Y-68025028D01*
X70262720Y-68024500D01*
X70037280Y-68024500D01*
X70033263Y-68025028D01*
X70033260Y-68025029D01*
X69932815Y-68038252D01*
X69932807Y-68038254D01*
X69924764Y-68039313D01*
X69924650Y-68038449D01*
X69875350Y-68038449D01*
X69875236Y-68039313D01*
X69867190Y-68038253D01*
X69867184Y-68038252D01*
X69766739Y-68025029D01*
X69766737Y-68025028D01*
X69762720Y-68024500D01*
X69758667Y-68024500D01*
X69749500Y-68024500D01*
X69687500Y-68007887D01*
X69642113Y-67962500D01*
X69625500Y-67900500D01*
X69625500Y-67598687D01*
X69633736Y-67554249D01*
X69657350Y-67515715D01*
X69661817Y-67510754D01*
X69732533Y-67432216D01*
X69827179Y-67268284D01*
X69885674Y-67088256D01*
X69905460Y-66900000D01*
X69885674Y-66711744D01*
X69827179Y-66531716D01*
X69732533Y-66367784D01*
X69724899Y-66359306D01*
X69610220Y-66231942D01*
X69610219Y-66231941D01*
X69605871Y-66227112D01*
X69600613Y-66223292D01*
X69600611Y-66223290D01*
X69457988Y-66119669D01*
X69457987Y-66119668D01*
X69452730Y-66115849D01*
X69426627Y-66104227D01*
X69285745Y-66041501D01*
X69285740Y-66041499D01*
X69279803Y-66038856D01*
X69273444Y-66037504D01*
X69273440Y-66037503D01*
X69100999Y-66000850D01*
X69100995Y-66000849D01*
X69094646Y-65999500D01*
X69088154Y-65999500D01*
X69086536Y-65999330D01*
X69030159Y-65978810D01*
X68990014Y-65934224D01*
X68975500Y-65876010D01*
X68975500Y-65741333D01*
X68975500Y-65737280D01*
X68960687Y-65624764D01*
X68947810Y-65593678D01*
X68939433Y-65530041D01*
X68963996Y-65470740D01*
X69014918Y-65431665D01*
X69152841Y-65374536D01*
X69188010Y-65347550D01*
X69278282Y-65278282D01*
X69297510Y-65253222D01*
X69308189Y-65241044D01*
X69491044Y-65058189D01*
X69503222Y-65047510D01*
X69528282Y-65028282D01*
X69624536Y-64902841D01*
X69685044Y-64756762D01*
X69689385Y-64723784D01*
X69699713Y-64688062D01*
X69720171Y-64657005D01*
X69832533Y-64532216D01*
X69927179Y-64368284D01*
X69985674Y-64188256D01*
X70005460Y-64000000D01*
X69985674Y-63811744D01*
X69927179Y-63631716D01*
X69832533Y-63467784D01*
X69827973Y-63462720D01*
X69710220Y-63331942D01*
X69710219Y-63331941D01*
X69705871Y-63327112D01*
X69700613Y-63323292D01*
X69700611Y-63323290D01*
X69557988Y-63219669D01*
X69557987Y-63219668D01*
X69552730Y-63215849D01*
X69546792Y-63213205D01*
X69385745Y-63141501D01*
X69385740Y-63141499D01*
X69379803Y-63138856D01*
X69373444Y-63137504D01*
X69373440Y-63137503D01*
X69201008Y-63100852D01*
X69201005Y-63100851D01*
X69194646Y-63099500D01*
X69098662Y-63099500D01*
X69034333Y-63081508D01*
X68988672Y-63032755D01*
X68974928Y-62967387D01*
X68974970Y-62966745D01*
X68975500Y-62962720D01*
X68975500Y-62737280D01*
X68960687Y-62624764D01*
X68961553Y-62624650D01*
X68961553Y-62575350D01*
X68960687Y-62575236D01*
X68961553Y-62568658D01*
X68975500Y-62462720D01*
X68975500Y-62299500D01*
X68992113Y-62237500D01*
X69037500Y-62192113D01*
X69099500Y-62175500D01*
X69258667Y-62175500D01*
X69262720Y-62175500D01*
X69375236Y-62160687D01*
X69375350Y-62161553D01*
X69424650Y-62161553D01*
X69424764Y-62160687D01*
X69537280Y-62175500D01*
X69758667Y-62175500D01*
X69762720Y-62175500D01*
X69875236Y-62160687D01*
X69875350Y-62161553D01*
X69924650Y-62161553D01*
X69924764Y-62160687D01*
X70037280Y-62175500D01*
X70258667Y-62175500D01*
X70262720Y-62175500D01*
X70375236Y-62160687D01*
X70375350Y-62161553D01*
X70424650Y-62161553D01*
X70424764Y-62160687D01*
X70537280Y-62175500D01*
X70758667Y-62175500D01*
X70762720Y-62175500D01*
X70875236Y-62160687D01*
X70875350Y-62161553D01*
X70924650Y-62161553D01*
X70924764Y-62160687D01*
X71037280Y-62175500D01*
X71258667Y-62175500D01*
X71262720Y-62175500D01*
X71375236Y-62160687D01*
X71375350Y-62161553D01*
X71424650Y-62161553D01*
X71424764Y-62160687D01*
X71537280Y-62175500D01*
X71758667Y-62175500D01*
X71762720Y-62175500D01*
X71875236Y-62160687D01*
X71875350Y-62161553D01*
X71924650Y-62161553D01*
X71924764Y-62160687D01*
X72037280Y-62175500D01*
X72258667Y-62175500D01*
X72262720Y-62175500D01*
X72375236Y-62160687D01*
X72375350Y-62161553D01*
X72424650Y-62161553D01*
X72424764Y-62160687D01*
X72537280Y-62175500D01*
X72758667Y-62175500D01*
X72762720Y-62175500D01*
X72875236Y-62160687D01*
X72875350Y-62161553D01*
X72924650Y-62161553D01*
X72924764Y-62160687D01*
X73037280Y-62175500D01*
X73258667Y-62175500D01*
X73262720Y-62175500D01*
X73375236Y-62160687D01*
X73375350Y-62161553D01*
X73424650Y-62161553D01*
X73424764Y-62160687D01*
X73537280Y-62175500D01*
X73758667Y-62175500D01*
X73762720Y-62175500D01*
X73875236Y-62160687D01*
X73875350Y-62161553D01*
X73924650Y-62161553D01*
X73924764Y-62160687D01*
X74037280Y-62175500D01*
X74258667Y-62175500D01*
X74262720Y-62175500D01*
X74375236Y-62160687D01*
X74375350Y-62161553D01*
X74424650Y-62161553D01*
X74424764Y-62160687D01*
X74537280Y-62175500D01*
G37*
%TD.AperFunction*%
%TA.AperFunction,Conductor*%
G36*
X65057356Y-66019939D02*
G01*
X65097584Y-66046819D01*
X65291799Y-66241034D01*
X65302489Y-66253222D01*
X65321718Y-66278282D01*
X65427311Y-66359306D01*
X65447159Y-66374536D01*
X65593238Y-66435044D01*
X65601296Y-66436104D01*
X65601297Y-66436105D01*
X65648908Y-66442373D01*
X65750000Y-66455682D01*
X65758059Y-66454621D01*
X65781302Y-66451561D01*
X65797487Y-66450500D01*
X65872605Y-66450500D01*
X65939229Y-66469919D01*
X65984986Y-66522093D01*
X65994488Y-66583815D01*
X65995379Y-66583815D01*
X65995379Y-66589603D01*
X65995544Y-66590680D01*
X65994318Y-66600000D01*
X65995379Y-66608059D01*
X65998439Y-66631302D01*
X65999500Y-66647487D01*
X65999500Y-66999903D01*
X65990061Y-67047356D01*
X65963181Y-67087584D01*
X65626250Y-67424514D01*
X65572442Y-67456117D01*
X65511678Y-67457473D01*
X65507483Y-67455909D01*
X65499773Y-67455080D01*
X65499769Y-67455079D01*
X65451180Y-67449855D01*
X65451169Y-67449854D01*
X65447873Y-67449500D01*
X65444551Y-67449500D01*
X64974499Y-67449500D01*
X64912499Y-67432887D01*
X64867112Y-67387500D01*
X64850499Y-67325500D01*
X64850499Y-66555439D01*
X64850499Y-66552128D01*
X64844091Y-66492517D01*
X64819685Y-66427081D01*
X64807427Y-66394216D01*
X64799992Y-66341146D01*
X64800308Y-66337131D01*
X64800308Y-66337127D01*
X64800500Y-66334690D01*
X64800500Y-66134500D01*
X64817113Y-66072500D01*
X64862500Y-66027113D01*
X64924500Y-66010500D01*
X65009903Y-66010500D01*
X65057356Y-66019939D01*
G37*
%TD.AperFunction*%
%TA.AperFunction,Conductor*%
G36*
X72712949Y-51474879D02*
G01*
X72758017Y-51520231D01*
X72774500Y-51582006D01*
X72774500Y-52345713D01*
X72773438Y-52361898D01*
X72769318Y-52393200D01*
X72770379Y-52401259D01*
X72774500Y-52432561D01*
X72788894Y-52541902D01*
X72788895Y-52541908D01*
X72789956Y-52549962D01*
X72793033Y-52557391D01*
X72793443Y-52619962D01*
X72763205Y-52674795D01*
X72710030Y-52707861D01*
X72647479Y-52710729D01*
X72594646Y-52699500D01*
X72405354Y-52699500D01*
X72398995Y-52700851D01*
X72398991Y-52700852D01*
X72226559Y-52737503D01*
X72226552Y-52737505D01*
X72220197Y-52738856D01*
X72214262Y-52741498D01*
X72214254Y-52741501D01*
X72062967Y-52808860D01*
X72047270Y-52815849D01*
X72044092Y-52818157D01*
X71983098Y-52834500D01*
X70234306Y-52834500D01*
X70231886Y-52834690D01*
X70231871Y-52834691D01*
X70203748Y-52836904D01*
X70203739Y-52836905D01*
X70197431Y-52837402D01*
X70191350Y-52839168D01*
X70191348Y-52839169D01*
X70094104Y-52867421D01*
X70028672Y-52868448D01*
X69977903Y-52839489D01*
X69977367Y-52840181D01*
X69972509Y-52836413D01*
X69971829Y-52836025D01*
X69971205Y-52835401D01*
X69971204Y-52835400D01*
X69965687Y-52829883D01*
X69826395Y-52747506D01*
X69796622Y-52738856D01*
X69677081Y-52704125D01*
X69677074Y-52704123D01*
X69670993Y-52702357D01*
X69664682Y-52701860D01*
X69664675Y-52701859D01*
X69637124Y-52699691D01*
X69637110Y-52699690D01*
X69634690Y-52699500D01*
X69165310Y-52699500D01*
X69162890Y-52699690D01*
X69162875Y-52699691D01*
X69135324Y-52701859D01*
X69135315Y-52701860D01*
X69129007Y-52702357D01*
X69122927Y-52704123D01*
X69122918Y-52704125D01*
X68981097Y-52745329D01*
X68981094Y-52745330D01*
X68973605Y-52747506D01*
X68966891Y-52751476D01*
X68966890Y-52751477D01*
X68841030Y-52825910D01*
X68841026Y-52825912D01*
X68834313Y-52829883D01*
X68828798Y-52835397D01*
X68828794Y-52835401D01*
X68725400Y-52938795D01*
X68725396Y-52938799D01*
X68719883Y-52944313D01*
X68719579Y-52944825D01*
X68674459Y-52980052D01*
X68614381Y-52990147D01*
X68556746Y-52970414D01*
X68515465Y-52925614D01*
X68500500Y-52866561D01*
X68500500Y-52400097D01*
X68509939Y-52352644D01*
X68536819Y-52312416D01*
X69117416Y-51731819D01*
X69157644Y-51704939D01*
X69205097Y-51695500D01*
X69779192Y-51695500D01*
X69826645Y-51704939D01*
X69866873Y-51731818D01*
X69898135Y-51763081D01*
X70039602Y-51846744D01*
X70197431Y-51892598D01*
X70234306Y-51895500D01*
X72013249Y-51895500D01*
X72015694Y-51895500D01*
X72052569Y-51892598D01*
X72210398Y-51846744D01*
X72351865Y-51763081D01*
X72468081Y-51646865D01*
X72543767Y-51518885D01*
X72589402Y-51474103D01*
X72651279Y-51458008D01*
X72712949Y-51474879D01*
G37*
%TD.AperFunction*%
%TA.AperFunction,Conductor*%
G36*
X51500000Y-68279500D02*
G01*
X51493243Y-68279500D01*
X51493217Y-68279500D01*
X51490820Y-68279501D01*
X51488406Y-68279690D01*
X51488403Y-68279691D01*
X51461111Y-68281838D01*
X51461109Y-68281838D01*
X51454796Y-68282335D01*
X51448718Y-68284100D01*
X51448711Y-68284102D01*
X51308099Y-68324954D01*
X51308096Y-68324955D01*
X51300607Y-68327131D01*
X51293896Y-68331099D01*
X51293891Y-68331102D01*
X51169119Y-68404892D01*
X51169115Y-68404894D01*
X51162402Y-68408865D01*
X51156887Y-68414379D01*
X51156883Y-68414383D01*
X51054383Y-68516883D01*
X51054379Y-68516887D01*
X51048865Y-68522402D01*
X51044894Y-68529115D01*
X51044892Y-68529119D01*
X50967131Y-68660607D01*
X50966263Y-68660093D01*
X50936049Y-68700112D01*
X50883295Y-68725444D01*
X50826557Y-68737504D01*
X50826555Y-68737504D01*
X50820197Y-68738856D01*
X50755788Y-68767533D01*
X50734934Y-68776818D01*
X50674770Y-68787156D01*
X50616964Y-68767533D01*
X50575526Y-68722706D01*
X50560499Y-68663540D01*
X50560499Y-68322411D01*
X50576789Y-68260975D01*
X50621376Y-68215681D01*
X50701865Y-68168081D01*
X50818081Y-68051865D01*
X50901744Y-67910398D01*
X50911330Y-67877401D01*
X50936537Y-67830976D01*
X50978786Y-67799255D01*
X51030405Y-67788000D01*
X51131427Y-67788000D01*
X51143096Y-67788550D01*
X51143181Y-67788558D01*
X51150796Y-67790260D01*
X51220762Y-67788060D01*
X51224657Y-67788000D01*
X51249525Y-67788000D01*
X51253425Y-67788000D01*
X51257794Y-67787447D01*
X51269439Y-67786530D01*
X51315069Y-67785097D01*
X51335451Y-67779174D01*
X51354491Y-67775231D01*
X51375558Y-67772571D01*
X51392806Y-67765741D01*
X51418008Y-67755764D01*
X51429057Y-67751980D01*
X51472898Y-67739244D01*
X51491160Y-67728442D01*
X51500000Y-67724111D01*
X51500000Y-68279500D01*
G37*
%TD.AperFunction*%
%TA.AperFunction,Conductor*%
G36*
X52330473Y-66004969D02*
G01*
X52334500Y-66005500D01*
X56400000Y-66005500D01*
X57394500Y-66005500D01*
X56500000Y-66900000D01*
X52118964Y-66900000D01*
X52162494Y-66826395D01*
X52207643Y-66670993D01*
X52210500Y-66634690D01*
X52210500Y-66225310D01*
X52207643Y-66189007D01*
X52200112Y-66163087D01*
X52197587Y-66104227D01*
X52222517Y-66050839D01*
X52269275Y-66014986D01*
X52327303Y-66004762D01*
X52330473Y-66004969D01*
G37*
%TD.AperFunction*%
%TA.AperFunction,Conductor*%
G36*
X50687500Y-64517113D02*
G01*
X50732887Y-64562500D01*
X50749500Y-64624500D01*
X50749500Y-64855272D01*
X50742814Y-64895438D01*
X50724130Y-64930065D01*
X50719883Y-64934313D01*
X50715912Y-64941026D01*
X50715910Y-64941030D01*
X50652945Y-65047499D01*
X50637506Y-65073605D01*
X50635330Y-65081094D01*
X50635329Y-65081097D01*
X50594125Y-65222918D01*
X50594123Y-65222927D01*
X50592357Y-65229007D01*
X50591860Y-65235315D01*
X50591859Y-65235324D01*
X50589691Y-65262875D01*
X50589690Y-65262890D01*
X50589500Y-65265310D01*
X50589500Y-65674690D01*
X50589690Y-65677110D01*
X50589691Y-65677124D01*
X50591859Y-65704675D01*
X50591860Y-65704682D01*
X50592357Y-65710993D01*
X50594123Y-65717074D01*
X50594125Y-65717081D01*
X50631459Y-65845584D01*
X50632487Y-65911017D01*
X50600064Y-65967860D01*
X50543221Y-66000283D01*
X50477788Y-65999255D01*
X50408657Y-65979170D01*
X50408650Y-65979168D01*
X50402569Y-65977402D01*
X50396258Y-65976905D01*
X50396251Y-65976904D01*
X50368128Y-65974691D01*
X50368114Y-65974690D01*
X50365694Y-65974500D01*
X49966657Y-65974500D01*
X49901038Y-65955715D01*
X49855301Y-65905051D01*
X49843303Y-65837859D01*
X49867498Y-65777447D01*
X49868081Y-65776865D01*
X49951744Y-65635398D01*
X49997598Y-65477569D01*
X50000500Y-65440694D01*
X50000500Y-64624500D01*
X50017113Y-64562500D01*
X50062500Y-64517113D01*
X50124500Y-64500500D01*
X50625500Y-64500500D01*
X50687500Y-64517113D01*
G37*
%TD.AperFunction*%
%TA.AperFunction,Conductor*%
G36*
X60479691Y-64208384D02*
G01*
X60479690Y-64208400D01*
X60479500Y-64210819D01*
X60479500Y-64213263D01*
X60479500Y-64213264D01*
X60479500Y-64606756D01*
X60479500Y-64606781D01*
X60479501Y-64609180D01*
X60482335Y-64645204D01*
X60484101Y-64651282D01*
X60484102Y-64651288D01*
X60516927Y-64764271D01*
X60527131Y-64799393D01*
X60531101Y-64806106D01*
X60531102Y-64806108D01*
X60544668Y-64829047D01*
X60608865Y-64937598D01*
X60614383Y-64943116D01*
X60651171Y-64979904D01*
X60684148Y-65038989D01*
X60681196Y-65106589D01*
X60639332Y-65232927D01*
X60634564Y-65247315D01*
X60633876Y-65254045D01*
X60633875Y-65254052D01*
X60624819Y-65342694D01*
X60624818Y-65342712D01*
X60624500Y-65345826D01*
X60624500Y-65348975D01*
X60624500Y-65370500D01*
X60607887Y-65432500D01*
X60562500Y-65477887D01*
X60500500Y-65494500D01*
X60229500Y-65494500D01*
X60167500Y-65477887D01*
X60122113Y-65432500D01*
X60105500Y-65370500D01*
X60105500Y-64352637D01*
X60105500Y-64348584D01*
X60088275Y-64217748D01*
X60087073Y-64213264D01*
X60083519Y-64200000D01*
X60480351Y-64200000D01*
X60479691Y-64208384D01*
G37*
%TD.AperFunction*%
%TA.AperFunction,Conductor*%
G36*
X91506061Y-26801097D02*
G01*
X91516051Y-26802080D01*
X91643824Y-26814665D01*
X91667652Y-26819404D01*
X91794277Y-26857815D01*
X91816725Y-26867114D01*
X91933406Y-26929482D01*
X91953616Y-26942986D01*
X92055891Y-27026920D01*
X92073079Y-27044108D01*
X92157012Y-27146381D01*
X92170517Y-27166593D01*
X92232883Y-27283271D01*
X92242186Y-27305728D01*
X92280593Y-27432338D01*
X92285335Y-27456180D01*
X92298903Y-27593938D01*
X92299500Y-27606092D01*
X92299500Y-70693908D01*
X92298903Y-70706062D01*
X92285335Y-70843819D01*
X92280593Y-70867661D01*
X92242186Y-70994271D01*
X92232883Y-71016728D01*
X92170517Y-71133406D01*
X92157012Y-71153618D01*
X92073079Y-71255891D01*
X92055891Y-71273079D01*
X91953618Y-71357012D01*
X91933406Y-71370517D01*
X91816728Y-71432883D01*
X91794271Y-71442186D01*
X91667661Y-71480593D01*
X91643819Y-71485335D01*
X91506062Y-71498903D01*
X91493908Y-71499500D01*
X28306092Y-71499500D01*
X28293938Y-71498903D01*
X28156180Y-71485335D01*
X28132340Y-71480593D01*
X28005728Y-71442186D01*
X27983271Y-71432883D01*
X27866593Y-71370517D01*
X27846381Y-71357012D01*
X27744108Y-71273079D01*
X27726920Y-71255891D01*
X27642986Y-71153616D01*
X27629482Y-71133406D01*
X27569030Y-71020308D01*
X27567114Y-71016725D01*
X27557815Y-70994277D01*
X27519404Y-70867652D01*
X27514665Y-70843824D01*
X27501097Y-70706061D01*
X27500500Y-70693908D01*
X27500500Y-67376000D01*
X40394500Y-67376000D01*
X40395028Y-67380017D01*
X40395029Y-67380019D01*
X40411194Y-67502807D01*
X40411196Y-67502819D01*
X40411725Y-67506834D01*
X40412773Y-67510748D01*
X40412775Y-67510754D01*
X40424430Y-67554249D01*
X40428338Y-67568834D01*
X40429891Y-67572584D01*
X40429893Y-67572589D01*
X40465915Y-67659553D01*
X40478837Y-67690750D01*
X40483783Y-67697196D01*
X40483785Y-67697199D01*
X40539416Y-67769697D01*
X40559171Y-67795442D01*
X40604558Y-67840829D01*
X40644716Y-67871644D01*
X40685462Y-67902910D01*
X40709250Y-67921163D01*
X40831166Y-67971662D01*
X40893166Y-67988275D01*
X41024000Y-68005500D01*
X45200000Y-68005500D01*
X46804721Y-68005500D01*
X46859566Y-68018288D01*
X46903096Y-68054013D01*
X46921718Y-68078282D01*
X46928164Y-68083228D01*
X46946769Y-68097504D01*
X46958964Y-68108199D01*
X47083181Y-68232416D01*
X47110061Y-68272644D01*
X47115502Y-68300000D01*
X45100000Y-68300000D01*
X45100000Y-70500000D01*
X47500000Y-70500000D01*
X47500000Y-69322510D01*
X47500607Y-69322869D01*
X47654796Y-69367665D01*
X47690819Y-69370500D01*
X48015500Y-69370499D01*
X48077500Y-69387112D01*
X48122887Y-69432499D01*
X48139500Y-69494499D01*
X48139500Y-69846756D01*
X48139500Y-69846781D01*
X48139501Y-69849180D01*
X48142335Y-69885204D01*
X48144101Y-69891282D01*
X48144102Y-69891288D01*
X48184954Y-70031900D01*
X48187131Y-70039393D01*
X48268865Y-70177598D01*
X48382402Y-70291135D01*
X48520607Y-70372869D01*
X48674796Y-70417665D01*
X48710819Y-70420500D01*
X49109180Y-70420499D01*
X49145204Y-70417665D01*
X49299393Y-70372869D01*
X49437598Y-70291135D01*
X49491913Y-70236819D01*
X49532142Y-70209939D01*
X49579595Y-70200500D01*
X50373741Y-70200500D01*
X50424176Y-70211220D01*
X50465890Y-70241527D01*
X50489776Y-70268055D01*
X50489782Y-70268061D01*
X50494129Y-70272888D01*
X50647270Y-70384151D01*
X50820197Y-70461144D01*
X50914180Y-70481120D01*
X50960758Y-70501711D01*
X50995131Y-70539289D01*
X51043951Y-70621838D01*
X51069883Y-70665687D01*
X51184313Y-70780117D01*
X51323605Y-70862494D01*
X51479007Y-70907643D01*
X51515310Y-70910500D01*
X51922245Y-70910500D01*
X51924690Y-70910500D01*
X51960993Y-70907643D01*
X52116395Y-70862494D01*
X52136877Y-70850380D01*
X52200000Y-70833111D01*
X52263122Y-70850380D01*
X52283605Y-70862494D01*
X52439007Y-70907643D01*
X52475310Y-70910500D01*
X52882245Y-70910500D01*
X52884690Y-70910500D01*
X52920993Y-70907643D01*
X53076395Y-70862494D01*
X53215687Y-70780117D01*
X53330117Y-70665687D01*
X53404869Y-70539287D01*
X53439241Y-70501711D01*
X53485814Y-70481121D01*
X53579803Y-70461144D01*
X53752730Y-70384151D01*
X53905871Y-70272888D01*
X54032533Y-70132216D01*
X54127179Y-69968284D01*
X54185674Y-69788256D01*
X54205460Y-69600000D01*
X54188954Y-69442953D01*
X54186353Y-69418204D01*
X54186352Y-69418203D01*
X54185674Y-69411744D01*
X54127179Y-69231716D01*
X54032533Y-69067784D01*
X54001699Y-69033540D01*
X53910220Y-68931942D01*
X53910219Y-68931941D01*
X53905871Y-68927112D01*
X53900613Y-68923292D01*
X53900611Y-68923290D01*
X53757988Y-68819669D01*
X53757987Y-68819668D01*
X53752730Y-68815849D01*
X53746792Y-68813205D01*
X53585745Y-68741501D01*
X53585740Y-68741499D01*
X53579803Y-68738856D01*
X53573444Y-68737504D01*
X53573440Y-68737503D01*
X53516705Y-68725444D01*
X53463944Y-68700108D01*
X53433738Y-68660092D01*
X53432869Y-68660607D01*
X53397026Y-68600000D01*
X56500000Y-68600000D01*
X57400000Y-70200000D01*
X59448866Y-70200000D01*
X59452812Y-70206834D01*
X59467467Y-70232216D01*
X59471811Y-70237041D01*
X59471813Y-70237043D01*
X59496904Y-70264909D01*
X59594129Y-70372888D01*
X59599379Y-70376702D01*
X59599461Y-70376776D01*
X59624675Y-70408333D01*
X59642201Y-70439628D01*
X59642205Y-70439634D01*
X59645775Y-70446008D01*
X59650734Y-70451373D01*
X59650735Y-70451374D01*
X59682007Y-70485204D01*
X59726435Y-70533267D01*
X59770458Y-70570867D01*
X59818889Y-70603228D01*
X59863181Y-70632824D01*
X59863184Y-70632825D01*
X59869264Y-70636888D01*
X59980753Y-70678018D01*
X60037048Y-70691533D01*
X60155053Y-70705500D01*
X62171947Y-70705500D01*
X62176000Y-70705500D01*
X62306834Y-70688275D01*
X62368834Y-70671662D01*
X62490750Y-70621163D01*
X62595442Y-70540829D01*
X62640829Y-70495442D01*
X62721163Y-70390750D01*
X62771662Y-70268834D01*
X62788275Y-70206834D01*
X62805500Y-70076000D01*
X62805500Y-68458451D01*
X62804808Y-68432005D01*
X62804129Y-68419044D01*
X62803396Y-68409732D01*
X62803396Y-68390268D01*
X62804129Y-68380956D01*
X62804808Y-68367995D01*
X62805500Y-68341549D01*
X62805500Y-66613636D01*
X62791447Y-66495273D01*
X62777850Y-66438818D01*
X62736473Y-66327035D01*
X62676265Y-66237280D01*
X62672111Y-66231087D01*
X62672107Y-66231082D01*
X62670072Y-66228048D01*
X62665990Y-66223290D01*
X62650410Y-66205128D01*
X62632262Y-66183973D01*
X62629555Y-66181483D01*
X62587618Y-66142913D01*
X62559624Y-66104998D01*
X62547799Y-66059376D01*
X62553852Y-66012641D01*
X62565436Y-65977685D01*
X62575500Y-65879174D01*
X62575500Y-65345826D01*
X62565436Y-65247315D01*
X62512549Y-65087713D01*
X62424281Y-64944609D01*
X62305391Y-64825719D01*
X62177269Y-64746692D01*
X62131800Y-64697287D01*
X62118749Y-64631425D01*
X62120500Y-64609181D01*
X62120499Y-64210820D01*
X62117665Y-64174796D01*
X62072869Y-64020607D01*
X61991135Y-63882402D01*
X61877598Y-63768865D01*
X61811700Y-63729893D01*
X61746108Y-63691102D01*
X61746106Y-63691101D01*
X61739393Y-63687131D01*
X61731263Y-63684769D01*
X61591292Y-63644103D01*
X61591285Y-63644101D01*
X61585204Y-63642335D01*
X61578893Y-63641838D01*
X61578886Y-63641837D01*
X61551615Y-63639691D01*
X61551600Y-63639690D01*
X61549181Y-63639500D01*
X61546735Y-63639500D01*
X61053243Y-63639500D01*
X61053217Y-63639500D01*
X61050820Y-63639501D01*
X61048406Y-63639690D01*
X61048403Y-63639691D01*
X61021111Y-63641838D01*
X61021109Y-63641838D01*
X61014796Y-63642335D01*
X61008718Y-63644100D01*
X61008711Y-63644102D01*
X60868099Y-63684954D01*
X60868096Y-63684955D01*
X60860607Y-63687131D01*
X60853896Y-63691099D01*
X60853891Y-63691102D01*
X60729119Y-63764892D01*
X60729115Y-63764894D01*
X60722402Y-63768865D01*
X60716887Y-63774379D01*
X60716883Y-63774383D01*
X60700000Y-63791266D01*
X60700000Y-62900000D01*
X61800000Y-62900000D01*
X61800000Y-61700000D01*
X59633226Y-61700000D01*
X59618715Y-61641624D01*
X59569547Y-61517205D01*
X59489462Y-61410042D01*
X59486590Y-61407106D01*
X59486586Y-61407102D01*
X59446843Y-61366483D01*
X59446839Y-61366479D01*
X59443964Y-61363541D01*
X59440724Y-61361008D01*
X59440721Y-61361005D01*
X59379419Y-61313076D01*
X59338570Y-61281138D01*
X59299123Y-61264546D01*
X59219034Y-61230859D01*
X59219026Y-61230856D01*
X59215250Y-61229268D01*
X59211296Y-61228193D01*
X59211290Y-61228191D01*
X59156432Y-61213278D01*
X59156421Y-61213275D01*
X59152471Y-61212202D01*
X59148410Y-61211659D01*
X59148401Y-61211658D01*
X59023937Y-61195043D01*
X59023932Y-61195042D01*
X59019867Y-61194500D01*
X59015758Y-61194500D01*
X57911870Y-61194500D01*
X57857362Y-61181877D01*
X57813951Y-61146578D01*
X57790476Y-61095790D01*
X56915439Y-56895609D01*
X56879419Y-56786618D01*
X56858855Y-56742128D01*
X56858854Y-56742126D01*
X56855948Y-56735839D01*
X56796268Y-56637782D01*
X56782094Y-56623290D01*
X56718469Y-56558237D01*
X56718466Y-56558234D01*
X56716005Y-56555718D01*
X56705400Y-56547095D01*
X56675334Y-56522646D01*
X56675323Y-56522638D01*
X56672594Y-56520419D01*
X56669631Y-56518524D01*
X56669625Y-56518520D01*
X56581831Y-56462382D01*
X56581830Y-56462381D01*
X56575888Y-56458582D01*
X56569241Y-56456220D01*
X56569240Y-56456220D01*
X56471040Y-56421333D01*
X56471029Y-56421329D01*
X56467725Y-56420156D01*
X56464296Y-56419362D01*
X56464293Y-56419361D01*
X56416662Y-56408330D01*
X56416648Y-56408327D01*
X56413217Y-56407533D01*
X56409704Y-56407131D01*
X56409701Y-56407131D01*
X56302672Y-56394900D01*
X56302670Y-56394899D01*
X56299171Y-56394500D01*
X53824000Y-56394500D01*
X53819983Y-56395028D01*
X53819980Y-56395029D01*
X53794081Y-56398439D01*
X53777895Y-56399500D01*
X47359987Y-56399500D01*
X47343802Y-56398439D01*
X47320559Y-56395379D01*
X47312500Y-56394318D01*
X47304441Y-56395379D01*
X47224457Y-56405909D01*
X47163797Y-56413894D01*
X47163789Y-56413895D01*
X47155738Y-56414956D01*
X47148233Y-56418064D01*
X47148228Y-56418066D01*
X47017166Y-56472354D01*
X47017162Y-56472355D01*
X47009659Y-56475464D01*
X47003214Y-56480408D01*
X47003211Y-56480411D01*
X46890663Y-56566772D01*
X46890660Y-56566774D01*
X46884218Y-56571718D01*
X46879273Y-56578161D01*
X46879270Y-56578165D01*
X46864990Y-56596774D01*
X46854298Y-56608965D01*
X46725081Y-56738183D01*
X46684856Y-56765061D01*
X46637403Y-56774500D01*
X46295826Y-56774500D01*
X46292712Y-56774818D01*
X46292694Y-56774819D01*
X46204052Y-56783875D01*
X46204045Y-56783876D01*
X46197315Y-56784564D01*
X46190889Y-56786693D01*
X46190886Y-56786694D01*
X46044568Y-56835179D01*
X46044564Y-56835180D01*
X46037713Y-56837451D01*
X46031569Y-56841240D01*
X46031564Y-56841243D01*
X45900760Y-56921924D01*
X45900754Y-56921928D01*
X45894609Y-56925719D01*
X45889502Y-56930825D01*
X45889498Y-56930829D01*
X45780829Y-57039498D01*
X45780825Y-57039502D01*
X45775719Y-57044609D01*
X45771928Y-57050754D01*
X45771924Y-57050760D01*
X45691243Y-57181564D01*
X45691240Y-57181569D01*
X45687451Y-57187713D01*
X45685180Y-57194564D01*
X45685179Y-57194568D01*
X45643046Y-57321718D01*
X45634564Y-57347315D01*
X45633876Y-57354045D01*
X45633875Y-57354052D01*
X45624819Y-57442694D01*
X45624818Y-57442712D01*
X45624500Y-57445826D01*
X45624500Y-57979174D01*
X45624818Y-57982288D01*
X45624819Y-57982305D01*
X45633875Y-58070947D01*
X45633876Y-58070952D01*
X45634564Y-58077685D01*
X45636693Y-58084112D01*
X45636694Y-58084113D01*
X45671781Y-58190000D01*
X45687451Y-58237287D01*
X45691242Y-58243434D01*
X45691243Y-58243435D01*
X45731838Y-58309250D01*
X45775719Y-58380391D01*
X45780829Y-58385501D01*
X45807647Y-58412319D01*
X45839741Y-58467906D01*
X45839741Y-58532094D01*
X45807647Y-58587681D01*
X45780829Y-58614498D01*
X45780825Y-58614502D01*
X45775719Y-58619609D01*
X45771928Y-58625754D01*
X45771924Y-58625760D01*
X45691243Y-58756564D01*
X45691240Y-58756569D01*
X45687451Y-58762713D01*
X45685180Y-58769564D01*
X45685179Y-58769568D01*
X45637202Y-58914354D01*
X45634564Y-58922315D01*
X45633876Y-58929045D01*
X45633875Y-58929052D01*
X45624819Y-59017694D01*
X45624818Y-59017712D01*
X45624500Y-59020826D01*
X45624500Y-59554174D01*
X45624818Y-59557288D01*
X45624819Y-59557305D01*
X45633875Y-59645947D01*
X45633876Y-59645952D01*
X45634564Y-59652685D01*
X45636693Y-59659112D01*
X45636694Y-59659113D01*
X45675321Y-59775683D01*
X45687451Y-59812287D01*
X45691242Y-59818434D01*
X45691243Y-59818435D01*
X45725460Y-59873910D01*
X45775719Y-59955391D01*
X45894609Y-60074281D01*
X46037713Y-60162549D01*
X46044575Y-60164822D01*
X46044747Y-60164903D01*
X46096180Y-60209506D01*
X46116314Y-60274541D01*
X46099079Y-60340402D01*
X46091103Y-60353889D01*
X46091100Y-60353895D01*
X46087131Y-60360607D01*
X46084955Y-60368096D01*
X46084954Y-60368099D01*
X46044103Y-60508707D01*
X46044101Y-60508716D01*
X46042335Y-60514796D01*
X46041838Y-60521104D01*
X46041837Y-60521113D01*
X46039691Y-60548384D01*
X46039690Y-60548400D01*
X46039500Y-60550819D01*
X46039500Y-60553263D01*
X46039500Y-60553264D01*
X46039500Y-61046756D01*
X46039500Y-61046781D01*
X46039501Y-61049180D01*
X46042335Y-61085204D01*
X46044101Y-61091282D01*
X46044102Y-61091288D01*
X46084189Y-61229268D01*
X46087131Y-61239393D01*
X46168865Y-61377598D01*
X46191267Y-61400000D01*
X45200000Y-61400000D01*
X45200000Y-63500000D01*
X47194500Y-63500000D01*
X47194500Y-63570500D01*
X47177887Y-63632500D01*
X47132500Y-63677887D01*
X47070500Y-63694500D01*
X45200000Y-63694500D01*
X41024000Y-63694500D01*
X41019983Y-63695028D01*
X41019980Y-63695029D01*
X40897192Y-63711194D01*
X40897177Y-63711196D01*
X40893166Y-63711725D01*
X40889254Y-63712773D01*
X40889245Y-63712775D01*
X40835090Y-63727286D01*
X40835082Y-63727288D01*
X40831166Y-63728338D01*
X40827420Y-63729889D01*
X40827410Y-63729893D01*
X40716759Y-63775726D01*
X40716754Y-63775728D01*
X40709250Y-63778837D01*
X40702806Y-63783780D01*
X40702800Y-63783785D01*
X40607789Y-63856691D01*
X40607782Y-63856696D01*
X40604558Y-63859171D01*
X40601685Y-63862043D01*
X40601677Y-63862051D01*
X40562051Y-63901677D01*
X40562043Y-63901685D01*
X40559171Y-63904558D01*
X40556696Y-63907782D01*
X40556691Y-63907789D01*
X40483785Y-64002800D01*
X40483780Y-64002806D01*
X40478837Y-64009250D01*
X40475728Y-64016754D01*
X40475726Y-64016759D01*
X40429893Y-64127410D01*
X40429889Y-64127420D01*
X40428338Y-64131166D01*
X40427288Y-64135082D01*
X40427286Y-64135090D01*
X40412775Y-64189245D01*
X40412773Y-64189254D01*
X40411725Y-64193166D01*
X40411196Y-64197177D01*
X40411194Y-64197192D01*
X40395110Y-64319365D01*
X40394500Y-64324000D01*
X40394500Y-67376000D01*
X27500500Y-67376000D01*
X27500500Y-62055943D01*
X33809236Y-62055943D01*
X33809981Y-62061446D01*
X33809982Y-62061457D01*
X33836255Y-62255408D01*
X33839243Y-62277466D01*
X33840963Y-62282759D01*
X33840964Y-62282764D01*
X33867797Y-62365347D01*
X33908322Y-62490071D01*
X33910960Y-62494973D01*
X33950212Y-62567916D01*
X34014254Y-62686924D01*
X34153633Y-62861700D01*
X34187629Y-62891401D01*
X34317781Y-63005112D01*
X34317785Y-63005115D01*
X34321979Y-63008779D01*
X34513882Y-63123436D01*
X34723173Y-63201985D01*
X34943127Y-63241900D01*
X35107899Y-63241900D01*
X35110675Y-63241900D01*
X35277546Y-63226881D01*
X35493036Y-63167410D01*
X35694444Y-63070417D01*
X35875297Y-62939020D01*
X36029781Y-62777442D01*
X36152932Y-62590876D01*
X36240791Y-62385319D01*
X36290535Y-62167378D01*
X36300564Y-61944057D01*
X36270557Y-61722534D01*
X36201478Y-61509929D01*
X36095546Y-61313076D01*
X35956167Y-61138300D01*
X35867667Y-61060980D01*
X35792018Y-60994887D01*
X35792012Y-60994883D01*
X35787821Y-60991221D01*
X35783043Y-60988366D01*
X35783040Y-60988364D01*
X35600695Y-60879418D01*
X35600693Y-60879417D01*
X35595918Y-60876564D01*
X35590709Y-60874609D01*
X35590705Y-60874607D01*
X35391842Y-60799972D01*
X35391839Y-60799971D01*
X35386627Y-60798015D01*
X35381151Y-60797021D01*
X35381143Y-60797019D01*
X35172158Y-60759095D01*
X35172154Y-60759094D01*
X35166673Y-60758100D01*
X34999125Y-60758100D01*
X34996377Y-60758347D01*
X34996362Y-60758348D01*
X34837793Y-60772620D01*
X34837787Y-60772620D01*
X34832254Y-60773119D01*
X34826897Y-60774597D01*
X34826888Y-60774599D01*
X34622132Y-60831108D01*
X34622126Y-60831110D01*
X34616764Y-60832590D01*
X34611759Y-60835000D01*
X34611749Y-60835004D01*
X34420375Y-60927165D01*
X34420366Y-60927170D01*
X34415356Y-60929583D01*
X34410854Y-60932853D01*
X34410847Y-60932858D01*
X34239010Y-61057705D01*
X34239006Y-61057707D01*
X34234503Y-61060980D01*
X34230664Y-61064994D01*
X34230655Y-61065003D01*
X34083869Y-61218530D01*
X34083863Y-61218537D01*
X34080019Y-61222558D01*
X34076950Y-61227206D01*
X34076947Y-61227211D01*
X33959938Y-61404472D01*
X33959934Y-61404478D01*
X33956868Y-61409124D01*
X33954681Y-61414240D01*
X33954676Y-61414250D01*
X33871198Y-61609557D01*
X33871194Y-61609567D01*
X33869009Y-61614681D01*
X33867771Y-61620101D01*
X33867769Y-61620110D01*
X33820504Y-61827191D01*
X33820503Y-61827197D01*
X33819265Y-61832622D01*
X33819015Y-61838186D01*
X33819015Y-61838187D01*
X33817088Y-61881097D01*
X33809236Y-62055943D01*
X27500500Y-62055943D01*
X27500500Y-58190000D01*
X41069451Y-58190000D01*
X41089217Y-58441148D01*
X41090352Y-58445877D01*
X41090353Y-58445881D01*
X41146889Y-58681374D01*
X41146891Y-58681382D01*
X41148027Y-58686111D01*
X41244434Y-58918859D01*
X41246981Y-58923016D01*
X41246982Y-58923017D01*
X41373517Y-59129504D01*
X41373522Y-59129511D01*
X41376064Y-59133659D01*
X41379224Y-59137358D01*
X41379227Y-59137363D01*
X41412832Y-59176709D01*
X41539676Y-59325224D01*
X41543376Y-59328384D01*
X41700187Y-59462314D01*
X41731241Y-59488836D01*
X41735391Y-59491379D01*
X41735395Y-59491382D01*
X41760002Y-59506461D01*
X41946041Y-59620466D01*
X42178789Y-59716873D01*
X42423752Y-59775683D01*
X42674900Y-59795449D01*
X42926048Y-59775683D01*
X43171011Y-59716873D01*
X43403759Y-59620466D01*
X43618559Y-59488836D01*
X43810124Y-59325224D01*
X43973736Y-59133659D01*
X44105366Y-58918859D01*
X44201773Y-58686111D01*
X44260583Y-58441148D01*
X44280349Y-58190000D01*
X44260583Y-57938852D01*
X44201773Y-57693889D01*
X44105366Y-57461141D01*
X44035613Y-57347315D01*
X43976282Y-57250495D01*
X43976279Y-57250491D01*
X43973736Y-57246341D01*
X43964370Y-57235375D01*
X43813284Y-57058476D01*
X43810124Y-57054776D01*
X43777734Y-57027112D01*
X43622263Y-56894327D01*
X43622258Y-56894324D01*
X43618559Y-56891164D01*
X43614411Y-56888622D01*
X43614404Y-56888617D01*
X43407917Y-56762082D01*
X43407916Y-56762081D01*
X43403759Y-56759534D01*
X43171011Y-56663127D01*
X43166282Y-56661991D01*
X43166274Y-56661989D01*
X42930781Y-56605453D01*
X42930777Y-56605452D01*
X42926048Y-56604317D01*
X42921195Y-56603935D01*
X42679754Y-56584933D01*
X42674900Y-56584551D01*
X42670046Y-56584933D01*
X42428604Y-56603935D01*
X42428602Y-56603935D01*
X42423752Y-56604317D01*
X42419024Y-56605451D01*
X42419018Y-56605453D01*
X42183525Y-56661989D01*
X42183513Y-56661992D01*
X42178789Y-56663127D01*
X42174292Y-56664989D01*
X42174288Y-56664991D01*
X41950545Y-56757668D01*
X41950540Y-56757670D01*
X41946041Y-56759534D01*
X41941888Y-56762078D01*
X41941882Y-56762082D01*
X41735395Y-56888617D01*
X41735382Y-56888626D01*
X41731241Y-56891164D01*
X41727546Y-56894319D01*
X41727536Y-56894327D01*
X41543376Y-57051615D01*
X41543369Y-57051621D01*
X41539676Y-57054776D01*
X41536521Y-57058469D01*
X41536515Y-57058476D01*
X41379227Y-57242636D01*
X41379219Y-57242646D01*
X41376064Y-57246341D01*
X41373526Y-57250482D01*
X41373517Y-57250495D01*
X41246982Y-57456982D01*
X41246978Y-57456988D01*
X41244434Y-57461141D01*
X41242570Y-57465640D01*
X41242568Y-57465645D01*
X41149891Y-57689388D01*
X41148027Y-57693889D01*
X41146892Y-57698613D01*
X41146889Y-57698625D01*
X41090353Y-57934118D01*
X41090351Y-57934124D01*
X41089217Y-57938852D01*
X41088835Y-57943702D01*
X41088835Y-57943704D01*
X41071943Y-58158339D01*
X41069451Y-58190000D01*
X27500500Y-58190000D01*
X27500500Y-49643935D01*
X35845669Y-49643935D01*
X35876135Y-49816711D01*
X35945623Y-49977804D01*
X35949936Y-49983597D01*
X35949937Y-49983599D01*
X35995620Y-50044962D01*
X36050390Y-50118530D01*
X36184786Y-50231302D01*
X36341567Y-50310040D01*
X36512279Y-50350500D01*
X36640111Y-50350500D01*
X36643709Y-50350500D01*
X36774255Y-50335241D01*
X36939117Y-50275237D01*
X37085696Y-50178830D01*
X37206092Y-50051218D01*
X37293812Y-49899281D01*
X37344130Y-49731210D01*
X37354331Y-49556065D01*
X37323865Y-49383289D01*
X37254377Y-49222196D01*
X37227027Y-49185459D01*
X37202960Y-49122180D01*
X37215719Y-49055688D01*
X37261503Y-49005809D01*
X37326661Y-48987414D01*
X37391768Y-49005986D01*
X37473790Y-49056772D01*
X37676931Y-49135470D01*
X37891074Y-49175500D01*
X38103197Y-49175500D01*
X38108926Y-49175500D01*
X38323069Y-49135470D01*
X38526210Y-49056772D01*
X38711432Y-48942088D01*
X38872427Y-48795322D01*
X38901046Y-48757423D01*
X38944728Y-48721150D01*
X39000000Y-48708150D01*
X39055272Y-48721150D01*
X39098953Y-48757423D01*
X39127573Y-48795322D01*
X39131807Y-48799182D01*
X39131810Y-48799185D01*
X39203742Y-48864759D01*
X39288568Y-48942088D01*
X39473790Y-49056772D01*
X39676931Y-49135470D01*
X39891074Y-49175500D01*
X40103197Y-49175500D01*
X40108926Y-49175500D01*
X40323069Y-49135470D01*
X40526210Y-49056772D01*
X40711432Y-48942088D01*
X40872427Y-48795322D01*
X41003712Y-48621472D01*
X41100817Y-48426459D01*
X41160435Y-48216923D01*
X41180536Y-48000000D01*
X41160435Y-47783077D01*
X41100817Y-47573541D01*
X41003712Y-47378528D01*
X40872427Y-47204678D01*
X40711432Y-47057912D01*
X40706562Y-47054897D01*
X40706560Y-47054895D01*
X40531086Y-46946247D01*
X40531085Y-46946246D01*
X40526210Y-46943228D01*
X40520863Y-46941156D01*
X40520860Y-46941155D01*
X40328417Y-46866602D01*
X40328418Y-46866602D01*
X40323069Y-46864530D01*
X40317443Y-46863478D01*
X40317435Y-46863476D01*
X40114555Y-46825552D01*
X40114552Y-46825551D01*
X40108926Y-46824500D01*
X39891074Y-46824500D01*
X39885448Y-46825551D01*
X39885444Y-46825552D01*
X39682564Y-46863476D01*
X39682553Y-46863478D01*
X39676931Y-46864530D01*
X39671584Y-46866601D01*
X39671582Y-46866602D01*
X39479139Y-46941155D01*
X39479132Y-46941158D01*
X39473790Y-46943228D01*
X39468918Y-46946244D01*
X39468913Y-46946247D01*
X39293439Y-47054895D01*
X39293431Y-47054900D01*
X39288568Y-47057912D01*
X39284337Y-47061768D01*
X39284333Y-47061772D01*
X39131813Y-47200812D01*
X39131809Y-47200816D01*
X39127573Y-47204678D01*
X39124118Y-47209253D01*
X39124112Y-47209260D01*
X39098951Y-47242577D01*
X39055268Y-47278849D01*
X38999997Y-47291848D01*
X38944726Y-47278848D01*
X38901045Y-47242575D01*
X38875887Y-47209260D01*
X38875882Y-47209253D01*
X38875881Y-47209252D01*
X38872427Y-47204678D01*
X38748425Y-47091635D01*
X38712698Y-47033934D01*
X38712698Y-46966066D01*
X38748425Y-46908364D01*
X38872427Y-46795322D01*
X39003712Y-46621472D01*
X39100817Y-46426459D01*
X39160435Y-46216923D01*
X39180536Y-46000000D01*
X39160435Y-45783077D01*
X39100817Y-45573541D01*
X39003712Y-45378528D01*
X38872427Y-45204678D01*
X38748425Y-45091635D01*
X38712698Y-45033934D01*
X38712698Y-44966066D01*
X38748425Y-44908364D01*
X38872427Y-44795322D01*
X38901049Y-44757419D01*
X38944725Y-44721151D01*
X38999997Y-44708150D01*
X39055269Y-44721149D01*
X39098952Y-44757422D01*
X39124116Y-44790744D01*
X39127573Y-44795322D01*
X39131807Y-44799182D01*
X39131810Y-44799185D01*
X39225597Y-44884683D01*
X39288568Y-44942088D01*
X39473790Y-45056772D01*
X39676931Y-45135470D01*
X39891074Y-45175500D01*
X40103197Y-45175500D01*
X40108926Y-45175500D01*
X40323069Y-45135470D01*
X40526210Y-45056772D01*
X40711432Y-44942088D01*
X40872427Y-44795322D01*
X41003712Y-44621472D01*
X41100817Y-44426459D01*
X41160435Y-44216923D01*
X41180536Y-44000000D01*
X41160435Y-43783077D01*
X41100817Y-43573541D01*
X41066573Y-43504771D01*
X41053706Y-43443773D01*
X41072147Y-43384222D01*
X41117235Y-43341171D01*
X41177574Y-43325500D01*
X41240941Y-43325500D01*
X41292560Y-43336755D01*
X41334809Y-43368477D01*
X41360016Y-43414903D01*
X41367131Y-43439393D01*
X41448865Y-43577598D01*
X41562402Y-43691135D01*
X41700607Y-43772869D01*
X41854796Y-43817665D01*
X41890819Y-43820500D01*
X42289180Y-43820499D01*
X42325204Y-43817665D01*
X42479393Y-43772869D01*
X42536879Y-43738871D01*
X42600000Y-43721603D01*
X42663120Y-43738871D01*
X42720607Y-43772869D01*
X42874796Y-43817665D01*
X42910819Y-43820500D01*
X43309180Y-43820499D01*
X43345204Y-43817665D01*
X43454585Y-43785886D01*
X43510499Y-43782810D01*
X43557107Y-43802548D01*
X43557377Y-43802082D01*
X43561152Y-43804262D01*
X43562063Y-43804647D01*
X43568262Y-43809151D01*
X43741189Y-43886144D01*
X43926346Y-43925500D01*
X44109135Y-43925500D01*
X44115638Y-43925500D01*
X44300795Y-43886144D01*
X44473722Y-43809151D01*
X44626863Y-43697888D01*
X44753525Y-43557216D01*
X44848171Y-43393284D01*
X44906666Y-43213256D01*
X44926452Y-43025000D01*
X44906666Y-42836744D01*
X44848171Y-42656716D01*
X44793484Y-42561996D01*
X44776873Y-42500000D01*
X44793484Y-42438003D01*
X44848171Y-42343284D01*
X44906666Y-42163256D01*
X44916503Y-42069659D01*
X44942444Y-42005854D01*
X44998432Y-41965734D01*
X45067190Y-41961679D01*
X45127505Y-41994940D01*
X56748599Y-53616034D01*
X56759289Y-53628222D01*
X56778518Y-53653282D01*
X56866761Y-53720993D01*
X56903959Y-53749536D01*
X57050038Y-53810044D01*
X57206800Y-53830683D01*
X57238108Y-53826560D01*
X57254294Y-53825500D01*
X57416030Y-53825500D01*
X57480265Y-53843435D01*
X57525919Y-53892051D01*
X57539785Y-53957286D01*
X57517853Y-54020268D01*
X57466466Y-54062779D01*
X57353207Y-54113205D01*
X57353202Y-54113207D01*
X57347270Y-54115849D01*
X57342016Y-54119665D01*
X57342011Y-54119669D01*
X57199388Y-54223290D01*
X57199381Y-54223295D01*
X57194129Y-54227112D01*
X57189784Y-54231937D01*
X57189779Y-54231942D01*
X57071813Y-54362956D01*
X57071808Y-54362962D01*
X57067467Y-54367784D01*
X57064222Y-54373404D01*
X57064218Y-54373410D01*
X56976069Y-54526089D01*
X56976066Y-54526094D01*
X56972821Y-54531716D01*
X56970815Y-54537888D01*
X56970813Y-54537894D01*
X56916333Y-54705564D01*
X56916331Y-54705573D01*
X56914326Y-54711744D01*
X56913648Y-54718194D01*
X56913646Y-54718204D01*
X56899944Y-54848584D01*
X56894540Y-54900000D01*
X56895219Y-54906460D01*
X56913646Y-55081795D01*
X56913647Y-55081803D01*
X56914326Y-55088256D01*
X56916331Y-55094428D01*
X56916333Y-55094435D01*
X56963874Y-55240748D01*
X56972821Y-55268284D01*
X56976068Y-55273908D01*
X56976069Y-55273910D01*
X57063063Y-55424589D01*
X57067467Y-55432216D01*
X57071811Y-55437041D01*
X57071813Y-55437043D01*
X57125942Y-55497159D01*
X57194129Y-55572888D01*
X57199387Y-55576708D01*
X57199388Y-55576709D01*
X57246287Y-55610783D01*
X57347270Y-55684151D01*
X57520197Y-55761144D01*
X57705354Y-55800500D01*
X57888143Y-55800500D01*
X57894646Y-55800500D01*
X58079803Y-55761144D01*
X58203855Y-55705911D01*
X58245857Y-55695478D01*
X58285114Y-55699708D01*
X58285117Y-55699692D01*
X58285340Y-55699732D01*
X58288883Y-55700114D01*
X58297431Y-55702598D01*
X58334306Y-55705500D01*
X58347042Y-55705500D01*
X58402467Y-55718576D01*
X58446203Y-55755048D01*
X58469024Y-55807222D01*
X58466118Y-55864093D01*
X58459936Y-55885374D01*
X58424103Y-56008707D01*
X58424101Y-56008716D01*
X58422335Y-56014796D01*
X58421838Y-56021104D01*
X58421837Y-56021113D01*
X58419691Y-56048384D01*
X58419690Y-56048400D01*
X58419500Y-56050819D01*
X58419500Y-56053263D01*
X58419500Y-56053264D01*
X58419500Y-56546756D01*
X58419500Y-56546781D01*
X58419501Y-56549180D01*
X58419690Y-56551594D01*
X58419691Y-56551596D01*
X58420213Y-56558237D01*
X58422335Y-56585204D01*
X58424101Y-56591282D01*
X58424102Y-56591288D01*
X58457204Y-56705225D01*
X58467131Y-56739393D01*
X58471101Y-56746106D01*
X58471102Y-56746108D01*
X58524169Y-56835840D01*
X58548865Y-56877598D01*
X58662402Y-56991135D01*
X58800607Y-57072869D01*
X58954796Y-57117665D01*
X58990819Y-57120500D01*
X59389180Y-57120499D01*
X59425204Y-57117665D01*
X59579393Y-57072869D01*
X59636879Y-57038871D01*
X59700000Y-57021603D01*
X59763120Y-57038871D01*
X59820607Y-57072869D01*
X59970095Y-57116299D01*
X60016524Y-57141508D01*
X60048245Y-57183756D01*
X60059500Y-57235375D01*
X60059500Y-58817972D01*
X60051264Y-58862410D01*
X60027650Y-58900944D01*
X59971820Y-58962950D01*
X59967467Y-58967784D01*
X59964222Y-58973404D01*
X59964218Y-58973410D01*
X59876069Y-59126089D01*
X59876066Y-59126094D01*
X59872821Y-59131716D01*
X59870815Y-59137888D01*
X59870813Y-59137894D01*
X59816333Y-59305564D01*
X59816331Y-59305573D01*
X59814326Y-59311744D01*
X59813648Y-59318194D01*
X59813646Y-59318204D01*
X59798501Y-59462314D01*
X59794540Y-59500000D01*
X59795219Y-59506460D01*
X59813646Y-59681795D01*
X59813647Y-59681803D01*
X59814326Y-59688256D01*
X59816331Y-59694428D01*
X59816333Y-59694435D01*
X59854626Y-59812287D01*
X59872821Y-59868284D01*
X59876068Y-59873908D01*
X59876069Y-59873910D01*
X59944407Y-59992276D01*
X59967467Y-60032216D01*
X59971811Y-60037041D01*
X59971813Y-60037043D01*
X60008759Y-60078075D01*
X60094129Y-60172888D01*
X60099387Y-60176708D01*
X60099388Y-60176709D01*
X60145331Y-60210088D01*
X60247270Y-60284151D01*
X60420197Y-60361144D01*
X60605354Y-60400500D01*
X60788143Y-60400500D01*
X60794646Y-60400500D01*
X60979803Y-60361144D01*
X61152730Y-60284151D01*
X61305871Y-60172888D01*
X61432533Y-60032216D01*
X61527179Y-59868284D01*
X61585674Y-59688256D01*
X61605460Y-59500000D01*
X61585674Y-59311744D01*
X61527179Y-59131716D01*
X61432533Y-58967784D01*
X61392350Y-58923156D01*
X61368736Y-58884621D01*
X61360500Y-58840184D01*
X61360500Y-56881073D01*
X61361050Y-56869404D01*
X61361058Y-56869318D01*
X61362760Y-56861704D01*
X61360561Y-56791724D01*
X61360500Y-56787829D01*
X61360500Y-56762977D01*
X61360500Y-56759075D01*
X61359948Y-56754712D01*
X61359031Y-56743063D01*
X61358916Y-56739393D01*
X61357598Y-56697431D01*
X61351675Y-56677045D01*
X61347729Y-56657988D01*
X61346048Y-56644681D01*
X61345071Y-56636942D01*
X61328261Y-56594487D01*
X61324481Y-56583444D01*
X61313921Y-56547095D01*
X61313920Y-56547094D01*
X61311744Y-56539602D01*
X61300940Y-56521334D01*
X61292378Y-56503856D01*
X61287439Y-56491381D01*
X61284568Y-56484129D01*
X61257737Y-56447198D01*
X61251324Y-56437436D01*
X61232052Y-56404849D01*
X61232050Y-56404847D01*
X61228081Y-56398135D01*
X61213074Y-56383128D01*
X61200436Y-56368331D01*
X61187963Y-56351163D01*
X61189025Y-56350391D01*
X61169952Y-56319978D01*
X61161746Y-56272950D01*
X61171916Y-56226306D01*
X61182495Y-56201857D01*
X61187625Y-56191386D01*
X61209627Y-56151368D01*
X61214906Y-56130802D01*
X61221210Y-56112395D01*
X61222785Y-56108753D01*
X61229635Y-56092927D01*
X61236777Y-56047829D01*
X61239139Y-56036422D01*
X61250500Y-55992177D01*
X61250500Y-55970948D01*
X61252027Y-55951550D01*
X61254125Y-55938303D01*
X61255346Y-55930595D01*
X61251050Y-55885147D01*
X61250500Y-55873478D01*
X61250500Y-51381073D01*
X61251050Y-51369404D01*
X61251058Y-51369318D01*
X61252760Y-51361704D01*
X61250561Y-51291724D01*
X61250500Y-51287829D01*
X61250500Y-51262977D01*
X61250500Y-51259075D01*
X61249948Y-51254712D01*
X61249031Y-51243063D01*
X61247598Y-51197431D01*
X61241675Y-51177045D01*
X61237729Y-51157988D01*
X61236048Y-51144681D01*
X61235071Y-51136942D01*
X61218261Y-51094487D01*
X61214481Y-51083444D01*
X61203921Y-51047095D01*
X61203920Y-51047094D01*
X61201744Y-51039602D01*
X61190940Y-51021334D01*
X61182378Y-51003856D01*
X61177439Y-50991381D01*
X61174568Y-50984129D01*
X61147737Y-50947198D01*
X61141324Y-50937436D01*
X61122052Y-50904849D01*
X61122050Y-50904847D01*
X61118081Y-50898135D01*
X61103074Y-50883128D01*
X61090436Y-50868331D01*
X61082545Y-50857470D01*
X61077963Y-50851163D01*
X61042780Y-50822057D01*
X61034140Y-50814194D01*
X60912299Y-50692353D01*
X60904436Y-50683712D01*
X60904382Y-50683647D01*
X60900202Y-50677060D01*
X60849166Y-50629134D01*
X60846369Y-50626423D01*
X60828789Y-50608843D01*
X60826035Y-50606089D01*
X60822956Y-50603701D01*
X60822951Y-50603696D01*
X60822548Y-50603383D01*
X60813669Y-50595799D01*
X60786085Y-50569896D01*
X60786079Y-50569892D01*
X60780393Y-50564552D01*
X60773557Y-50560794D01*
X60773556Y-50560793D01*
X60761794Y-50554327D01*
X60745531Y-50543644D01*
X60734924Y-50535416D01*
X60734922Y-50535415D01*
X60728764Y-50530638D01*
X60721612Y-50527543D01*
X60721607Y-50527540D01*
X60686869Y-50512508D01*
X60676379Y-50507369D01*
X60643207Y-50489132D01*
X60643202Y-50489130D01*
X60636368Y-50485373D01*
X60615796Y-50480090D01*
X60597397Y-50473790D01*
X60585087Y-50468463D01*
X60585081Y-50468461D01*
X60577926Y-50465365D01*
X60570227Y-50464145D01*
X60570222Y-50464144D01*
X60532837Y-50458223D01*
X60521399Y-50455854D01*
X60495709Y-50449258D01*
X60453552Y-50428606D01*
X60451865Y-50426919D01*
X60445151Y-50422948D01*
X60445148Y-50422946D01*
X60317113Y-50347227D01*
X60317111Y-50347226D01*
X60310398Y-50343256D01*
X60285695Y-50336079D01*
X60158657Y-50299170D01*
X60158650Y-50299168D01*
X60152569Y-50297402D01*
X60146258Y-50296905D01*
X60146251Y-50296904D01*
X60118128Y-50294691D01*
X60118114Y-50294690D01*
X60115694Y-50294500D01*
X60113249Y-50294500D01*
X60067455Y-50294500D01*
X60008574Y-50279628D01*
X59963816Y-50238580D01*
X59943918Y-50181202D01*
X59952803Y-50126484D01*
X59952494Y-50126395D01*
X59952493Y-50126395D01*
X59997643Y-49970993D01*
X60000500Y-49934690D01*
X60000500Y-49465310D01*
X59997643Y-49429007D01*
X59952494Y-49273605D01*
X59870117Y-49134313D01*
X59755687Y-49019883D01*
X59616395Y-48937506D01*
X59608902Y-48935329D01*
X59467081Y-48894125D01*
X59467074Y-48894123D01*
X59460993Y-48892357D01*
X59454682Y-48891860D01*
X59454675Y-48891859D01*
X59427124Y-48889691D01*
X59427110Y-48889690D01*
X59424690Y-48889500D01*
X59015310Y-48889500D01*
X59012890Y-48889690D01*
X59012875Y-48889691D01*
X58985324Y-48891859D01*
X58985315Y-48891860D01*
X58979007Y-48892357D01*
X58972927Y-48894123D01*
X58972918Y-48894125D01*
X58831097Y-48935329D01*
X58831094Y-48935330D01*
X58823605Y-48937506D01*
X58816891Y-48941476D01*
X58816890Y-48941477D01*
X58691030Y-49015910D01*
X58691026Y-49015912D01*
X58684313Y-49019883D01*
X58678798Y-49025397D01*
X58678794Y-49025401D01*
X58575401Y-49128794D01*
X58575397Y-49128798D01*
X58569883Y-49134313D01*
X58565912Y-49141026D01*
X58565910Y-49141030D01*
X58545525Y-49175500D01*
X58487506Y-49273605D01*
X58485330Y-49281094D01*
X58485329Y-49281097D01*
X58444125Y-49422918D01*
X58444123Y-49422927D01*
X58442357Y-49429007D01*
X58441860Y-49435315D01*
X58441859Y-49435324D01*
X58439691Y-49462875D01*
X58439690Y-49462890D01*
X58439500Y-49465310D01*
X58439500Y-49934690D01*
X58439690Y-49937110D01*
X58439691Y-49937124D01*
X58441859Y-49964675D01*
X58441860Y-49964682D01*
X58442357Y-49970993D01*
X58444123Y-49977074D01*
X58444125Y-49977081D01*
X58483538Y-50112738D01*
X58486771Y-50123868D01*
X58486772Y-50123869D01*
X58487506Y-50126395D01*
X58487196Y-50126484D01*
X58496082Y-50181202D01*
X58476184Y-50238580D01*
X58431426Y-50279628D01*
X58372545Y-50294500D01*
X58334306Y-50294500D01*
X58331886Y-50294690D01*
X58331871Y-50294691D01*
X58303748Y-50296904D01*
X58303739Y-50296905D01*
X58297431Y-50297402D01*
X58291351Y-50299168D01*
X58291342Y-50299170D01*
X58147094Y-50341079D01*
X58147091Y-50341080D01*
X58139602Y-50343256D01*
X58132891Y-50347224D01*
X58132886Y-50347227D01*
X58004851Y-50422946D01*
X58004844Y-50422950D01*
X57998135Y-50426919D01*
X57992620Y-50432433D01*
X57992616Y-50432437D01*
X57887437Y-50537616D01*
X57887433Y-50537620D01*
X57881919Y-50543135D01*
X57877950Y-50549844D01*
X57877946Y-50549851D01*
X57802227Y-50677886D01*
X57802224Y-50677891D01*
X57798256Y-50684602D01*
X57796080Y-50692091D01*
X57796079Y-50692094D01*
X57754170Y-50836342D01*
X57754168Y-50836351D01*
X57752402Y-50842431D01*
X57751905Y-50848739D01*
X57751904Y-50848748D01*
X57749691Y-50876871D01*
X57749690Y-50876886D01*
X57749500Y-50879306D01*
X57749500Y-51310694D01*
X57749690Y-51313114D01*
X57749691Y-51313128D01*
X57751904Y-51341251D01*
X57751905Y-51341258D01*
X57752402Y-51347569D01*
X57754168Y-51353650D01*
X57754170Y-51353657D01*
X57784488Y-51458008D01*
X57798256Y-51505398D01*
X57881919Y-51646865D01*
X57887432Y-51652378D01*
X57888691Y-51654001D01*
X57911725Y-51702951D01*
X57911725Y-51757049D01*
X57888691Y-51805999D01*
X57887432Y-51807621D01*
X57881919Y-51813135D01*
X57877951Y-51819844D01*
X57877949Y-51819847D01*
X57802227Y-51947886D01*
X57802224Y-51947891D01*
X57798256Y-51954602D01*
X57796080Y-51962089D01*
X57796080Y-51962091D01*
X57772056Y-52044780D01*
X57739272Y-52099232D01*
X57683817Y-52130288D01*
X57620259Y-52129788D01*
X57565299Y-52097864D01*
X45351399Y-39883964D01*
X45340703Y-39871768D01*
X45326428Y-39853164D01*
X45321482Y-39846718D01*
X45290409Y-39822875D01*
X45252617Y-39774936D01*
X45242278Y-39714772D01*
X45261901Y-39656965D01*
X45306728Y-39615527D01*
X45365896Y-39600500D01*
X74434104Y-39600500D01*
X74493272Y-39615527D01*
X74538099Y-39656965D01*
X74557722Y-39714772D01*
X74547383Y-39774936D01*
X74509590Y-39822876D01*
X74484964Y-39841771D01*
X74484960Y-39841774D01*
X74478518Y-39846718D01*
X74473574Y-39853160D01*
X74473571Y-39853164D01*
X74459294Y-39871771D01*
X74448600Y-39883964D01*
X72983965Y-41348598D01*
X72971774Y-41359290D01*
X72953165Y-41373570D01*
X72953161Y-41373573D01*
X72946718Y-41378518D01*
X72941774Y-41384960D01*
X72941772Y-41384963D01*
X72913045Y-41422402D01*
X72855411Y-41497511D01*
X72855408Y-41497514D01*
X72850464Y-41503959D01*
X72847355Y-41511463D01*
X72847353Y-41511468D01*
X72793066Y-41642528D01*
X72793064Y-41642533D01*
X72789956Y-41650038D01*
X72788896Y-41658089D01*
X72788894Y-41658097D01*
X72774424Y-41768015D01*
X72769318Y-41806800D01*
X72770379Y-41814859D01*
X72773439Y-41838102D01*
X72774500Y-41854287D01*
X72774500Y-43820178D01*
X72760902Y-43876635D01*
X72723091Y-43920709D01*
X72669359Y-43942736D01*
X72615907Y-43938252D01*
X72615844Y-43938548D01*
X72613533Y-43938053D01*
X72611491Y-43937882D01*
X72609225Y-43937131D01*
X72609224Y-43937130D01*
X72602797Y-43935001D01*
X72596064Y-43934313D01*
X72596059Y-43934312D01*
X72503140Y-43924819D01*
X72503123Y-43924818D01*
X72500009Y-43924500D01*
X72496860Y-43924500D01*
X71778141Y-43924500D01*
X71778121Y-43924500D01*
X71774992Y-43924501D01*
X71771860Y-43924820D01*
X71771858Y-43924821D01*
X71678938Y-43934312D01*
X71678928Y-43934313D01*
X71672203Y-43935001D01*
X71665781Y-43937128D01*
X71665776Y-43937130D01*
X71512521Y-43987914D01*
X71512517Y-43987915D01*
X71505666Y-43990186D01*
X71499522Y-43993975D01*
X71499519Y-43993977D01*
X71362488Y-44078497D01*
X71362480Y-44078503D01*
X71356344Y-44082288D01*
X71351242Y-44087389D01*
X71351238Y-44087393D01*
X71237393Y-44201238D01*
X71237389Y-44201242D01*
X71232288Y-44206344D01*
X71228503Y-44212480D01*
X71228497Y-44212488D01*
X71143977Y-44349519D01*
X71140186Y-44355666D01*
X71137915Y-44362517D01*
X71137914Y-44362521D01*
X71087131Y-44515774D01*
X71085001Y-44522203D01*
X71084313Y-44528933D01*
X71084312Y-44528940D01*
X71074819Y-44621859D01*
X71074818Y-44621877D01*
X71074500Y-44624991D01*
X71074500Y-44628138D01*
X71074500Y-44628139D01*
X71074500Y-45971859D01*
X71074500Y-45971878D01*
X71074501Y-45975008D01*
X71074820Y-45978140D01*
X71074821Y-45978141D01*
X71084312Y-46071061D01*
X71084313Y-46071069D01*
X71085001Y-46077797D01*
X71140186Y-46244334D01*
X71143975Y-46250477D01*
X71143977Y-46250481D01*
X71226889Y-46384904D01*
X71245350Y-46450000D01*
X71226889Y-46515096D01*
X71143977Y-46649518D01*
X71143977Y-46649519D01*
X71140186Y-46655666D01*
X71137915Y-46662517D01*
X71137914Y-46662521D01*
X71092627Y-46799188D01*
X71085001Y-46822203D01*
X71084313Y-46828933D01*
X71084312Y-46828940D01*
X71074819Y-46921859D01*
X71074818Y-46921877D01*
X71074500Y-46924991D01*
X71074500Y-46928138D01*
X71074500Y-46928139D01*
X71074500Y-48271859D01*
X71074500Y-48271878D01*
X71074501Y-48275008D01*
X71074820Y-48278140D01*
X71074821Y-48278141D01*
X71084312Y-48371061D01*
X71084313Y-48371069D01*
X71085001Y-48377797D01*
X71087129Y-48384219D01*
X71087130Y-48384223D01*
X71101126Y-48426459D01*
X71140186Y-48544334D01*
X71143977Y-48550480D01*
X71228497Y-48687511D01*
X71228500Y-48687515D01*
X71232288Y-48693656D01*
X71356344Y-48817712D01*
X71362485Y-48821500D01*
X71362488Y-48821502D01*
X71407881Y-48849500D01*
X71505666Y-48909814D01*
X71672203Y-48964999D01*
X71774991Y-48975500D01*
X72500008Y-48975499D01*
X72602797Y-48964999D01*
X72611491Y-48962117D01*
X72613534Y-48961946D01*
X72615845Y-48961452D01*
X72615908Y-48961747D01*
X72669359Y-48957264D01*
X72723091Y-48979291D01*
X72760902Y-49023365D01*
X72774500Y-49079822D01*
X72774500Y-50607994D01*
X72758017Y-50669769D01*
X72712949Y-50715121D01*
X72651279Y-50731992D01*
X72589402Y-50715897D01*
X72543768Y-50671115D01*
X72505312Y-50606089D01*
X72468081Y-50543135D01*
X72351865Y-50426919D01*
X72345151Y-50422948D01*
X72345148Y-50422946D01*
X72217113Y-50347227D01*
X72217111Y-50347226D01*
X72210398Y-50343256D01*
X72185695Y-50336079D01*
X72058657Y-50299170D01*
X72058650Y-50299168D01*
X72052569Y-50297402D01*
X72046258Y-50296905D01*
X72046251Y-50296904D01*
X72018128Y-50294691D01*
X72018114Y-50294690D01*
X72015694Y-50294500D01*
X70234306Y-50294500D01*
X70231886Y-50294690D01*
X70231871Y-50294691D01*
X70203748Y-50296904D01*
X70203739Y-50296905D01*
X70197431Y-50297402D01*
X70191351Y-50299168D01*
X70191342Y-50299170D01*
X70047094Y-50341079D01*
X70047091Y-50341080D01*
X70039602Y-50343256D01*
X70032891Y-50347224D01*
X70032886Y-50347227D01*
X69904851Y-50422946D01*
X69904844Y-50422950D01*
X69898135Y-50426919D01*
X69892620Y-50432433D01*
X69892616Y-50432437D01*
X69866873Y-50458181D01*
X69826645Y-50485061D01*
X69779192Y-50494500D01*
X68952487Y-50494500D01*
X68936302Y-50493439D01*
X68913059Y-50490379D01*
X68905000Y-50489318D01*
X68896941Y-50490379D01*
X68865639Y-50494500D01*
X68756297Y-50508894D01*
X68756289Y-50508896D01*
X68748238Y-50509956D01*
X68740733Y-50513064D01*
X68740728Y-50513066D01*
X68609666Y-50567354D01*
X68609662Y-50567355D01*
X68602159Y-50570464D01*
X68595714Y-50575408D01*
X68595711Y-50575411D01*
X68483164Y-50661771D01*
X68483160Y-50661774D01*
X68476718Y-50666718D01*
X68471774Y-50673160D01*
X68471771Y-50673164D01*
X68457494Y-50691771D01*
X68446800Y-50703964D01*
X67892180Y-51258583D01*
X67842817Y-51288833D01*
X67785101Y-51293375D01*
X67731614Y-51271220D01*
X67694014Y-51227197D01*
X67680499Y-51170904D01*
X67680499Y-50850820D01*
X67677665Y-50814796D01*
X67632869Y-50660607D01*
X67551135Y-50522402D01*
X67437598Y-50408865D01*
X67322978Y-50341079D01*
X67306108Y-50331102D01*
X67306106Y-50331101D01*
X67299393Y-50327131D01*
X67291900Y-50324954D01*
X67151292Y-50284103D01*
X67151285Y-50284101D01*
X67145204Y-50282335D01*
X67138893Y-50281838D01*
X67138886Y-50281837D01*
X67111615Y-50279691D01*
X67111600Y-50279690D01*
X67109181Y-50279500D01*
X67106735Y-50279500D01*
X66713243Y-50279500D01*
X66713217Y-50279500D01*
X66710820Y-50279501D01*
X66708406Y-50279690D01*
X66708403Y-50279691D01*
X66681111Y-50281838D01*
X66681109Y-50281838D01*
X66674796Y-50282335D01*
X66668718Y-50284100D01*
X66668711Y-50284102D01*
X66528099Y-50324954D01*
X66528096Y-50324955D01*
X66520607Y-50327131D01*
X66513894Y-50331100D01*
X66513889Y-50331103D01*
X66463118Y-50361128D01*
X66399998Y-50378395D01*
X66336879Y-50361127D01*
X66286112Y-50331104D01*
X66286108Y-50331102D01*
X66279393Y-50327131D01*
X66271900Y-50324954D01*
X66131292Y-50284103D01*
X66131285Y-50284101D01*
X66125204Y-50282335D01*
X66118893Y-50281838D01*
X66118886Y-50281837D01*
X66091615Y-50279691D01*
X66091600Y-50279690D01*
X66089181Y-50279500D01*
X66086735Y-50279500D01*
X65693243Y-50279500D01*
X65693217Y-50279500D01*
X65690820Y-50279501D01*
X65688406Y-50279690D01*
X65688403Y-50279691D01*
X65661111Y-50281838D01*
X65661109Y-50281838D01*
X65654796Y-50282335D01*
X65648718Y-50284100D01*
X65648711Y-50284102D01*
X65508099Y-50324954D01*
X65508096Y-50324955D01*
X65500607Y-50327131D01*
X65493897Y-50331098D01*
X65493888Y-50331103D01*
X65429987Y-50368893D01*
X65366867Y-50386160D01*
X65303748Y-50368893D01*
X65290618Y-50361128D01*
X65260398Y-50343256D01*
X65235695Y-50336079D01*
X65108657Y-50299170D01*
X65108650Y-50299168D01*
X65102569Y-50297402D01*
X65096258Y-50296905D01*
X65096251Y-50296904D01*
X65068128Y-50294691D01*
X65068114Y-50294690D01*
X65065694Y-50294500D01*
X63284306Y-50294500D01*
X63281886Y-50294690D01*
X63281871Y-50294691D01*
X63253748Y-50296904D01*
X63253739Y-50296905D01*
X63247431Y-50297402D01*
X63241351Y-50299168D01*
X63241342Y-50299170D01*
X63097094Y-50341079D01*
X63097091Y-50341080D01*
X63089602Y-50343256D01*
X63082891Y-50347224D01*
X63082886Y-50347227D01*
X62954851Y-50422946D01*
X62954844Y-50422950D01*
X62948135Y-50426919D01*
X62942620Y-50432433D01*
X62942616Y-50432437D01*
X62837437Y-50537616D01*
X62837433Y-50537620D01*
X62831919Y-50543135D01*
X62827950Y-50549844D01*
X62827946Y-50549851D01*
X62752227Y-50677886D01*
X62752224Y-50677891D01*
X62748256Y-50684602D01*
X62746080Y-50692091D01*
X62746079Y-50692094D01*
X62704170Y-50836342D01*
X62704168Y-50836351D01*
X62702402Y-50842431D01*
X62701905Y-50848739D01*
X62701904Y-50848748D01*
X62699691Y-50876871D01*
X62699690Y-50876886D01*
X62699500Y-50879306D01*
X62699500Y-51310694D01*
X62699690Y-51313114D01*
X62699691Y-51313128D01*
X62701904Y-51341251D01*
X62701905Y-51341258D01*
X62702402Y-51347569D01*
X62704170Y-51353654D01*
X62706919Y-51363117D01*
X62707502Y-51430221D01*
X62673039Y-51487803D01*
X62613623Y-51518997D01*
X62526557Y-51537504D01*
X62526555Y-51537504D01*
X62520197Y-51538856D01*
X62514262Y-51541498D01*
X62514254Y-51541501D01*
X62353207Y-51613205D01*
X62353202Y-51613207D01*
X62347270Y-51615849D01*
X62342016Y-51619665D01*
X62342011Y-51619669D01*
X62199388Y-51723290D01*
X62199381Y-51723295D01*
X62194129Y-51727112D01*
X62189784Y-51731937D01*
X62189779Y-51731942D01*
X62071813Y-51862956D01*
X62071808Y-51862962D01*
X62067467Y-51867784D01*
X62064222Y-51873404D01*
X62064218Y-51873410D01*
X61976069Y-52026089D01*
X61976066Y-52026094D01*
X61972821Y-52031716D01*
X61970815Y-52037888D01*
X61970813Y-52037894D01*
X61916333Y-52205564D01*
X61916331Y-52205573D01*
X61914326Y-52211744D01*
X61913648Y-52218194D01*
X61913646Y-52218204D01*
X61896102Y-52385141D01*
X61894540Y-52400000D01*
X61895219Y-52406460D01*
X61913646Y-52581795D01*
X61913647Y-52581803D01*
X61914326Y-52588256D01*
X61916331Y-52594428D01*
X61916333Y-52594435D01*
X61967360Y-52751477D01*
X61972821Y-52768284D01*
X61976068Y-52773908D01*
X61976069Y-52773910D01*
X62030650Y-52868448D01*
X62067467Y-52932216D01*
X62071811Y-52937041D01*
X62071813Y-52937043D01*
X62078359Y-52944313D01*
X62194129Y-53072888D01*
X62199387Y-53076708D01*
X62199388Y-53076709D01*
X62254492Y-53116744D01*
X62347270Y-53184151D01*
X62520197Y-53261144D01*
X62705354Y-53300500D01*
X62888143Y-53300500D01*
X62894646Y-53300500D01*
X63079803Y-53261144D01*
X63252730Y-53184151D01*
X63255905Y-53181843D01*
X63316901Y-53165500D01*
X65063249Y-53165500D01*
X65065694Y-53165500D01*
X65102569Y-53162598D01*
X65205894Y-53132578D01*
X65271326Y-53131551D01*
X65322096Y-53160510D01*
X65322633Y-53159819D01*
X65327488Y-53163585D01*
X65328170Y-53163974D01*
X65334313Y-53170117D01*
X65473605Y-53252494D01*
X65629007Y-53297643D01*
X65665310Y-53300500D01*
X66132245Y-53300500D01*
X66134690Y-53300500D01*
X66170993Y-53297643D01*
X66171076Y-53298707D01*
X66217038Y-53300466D01*
X66264911Y-53325152D01*
X66297801Y-53367810D01*
X66309500Y-53420388D01*
X66309500Y-54760903D01*
X66295985Y-54817198D01*
X66258385Y-54861221D01*
X66204898Y-54883376D01*
X66147182Y-54878834D01*
X66097819Y-54848584D01*
X65763199Y-54513964D01*
X65752503Y-54501768D01*
X65747004Y-54494602D01*
X65733282Y-54476718D01*
X65607841Y-54380464D01*
X65600333Y-54377354D01*
X65524050Y-54345756D01*
X65483822Y-54318876D01*
X65407383Y-54242437D01*
X65401865Y-54236919D01*
X65395151Y-54232948D01*
X65395148Y-54232946D01*
X65267113Y-54157227D01*
X65267111Y-54157226D01*
X65260398Y-54153256D01*
X65252905Y-54151079D01*
X65108657Y-54109170D01*
X65108650Y-54109168D01*
X65102569Y-54107402D01*
X65096258Y-54106905D01*
X65096251Y-54106904D01*
X65068128Y-54104691D01*
X65068114Y-54104690D01*
X65065694Y-54104500D01*
X63284306Y-54104500D01*
X63281886Y-54104690D01*
X63281871Y-54104691D01*
X63253748Y-54106904D01*
X63253739Y-54106905D01*
X63247431Y-54107402D01*
X63241351Y-54109168D01*
X63241342Y-54109170D01*
X63097094Y-54151079D01*
X63097091Y-54151080D01*
X63089602Y-54153256D01*
X63082891Y-54157224D01*
X63082886Y-54157227D01*
X62954851Y-54232946D01*
X62954844Y-54232950D01*
X62948135Y-54236919D01*
X62942620Y-54242433D01*
X62942616Y-54242437D01*
X62837437Y-54347616D01*
X62837433Y-54347620D01*
X62831919Y-54353135D01*
X62827950Y-54359844D01*
X62827946Y-54359851D01*
X62752227Y-54487886D01*
X62752224Y-54487891D01*
X62748256Y-54494602D01*
X62746080Y-54502091D01*
X62746079Y-54502094D01*
X62704170Y-54646342D01*
X62704168Y-54646351D01*
X62702402Y-54652431D01*
X62701905Y-54658739D01*
X62701904Y-54658748D01*
X62699691Y-54686871D01*
X62699690Y-54686886D01*
X62699500Y-54689306D01*
X62699500Y-55120694D01*
X62699690Y-55123114D01*
X62699691Y-55123128D01*
X62701904Y-55151251D01*
X62701905Y-55151258D01*
X62702402Y-55157569D01*
X62704168Y-55163650D01*
X62704170Y-55163657D01*
X62742631Y-55296036D01*
X62748256Y-55315398D01*
X62752226Y-55322111D01*
X62752227Y-55322113D01*
X62827946Y-55450148D01*
X62827948Y-55450151D01*
X62831919Y-55456865D01*
X62948135Y-55573081D01*
X63089602Y-55656744D01*
X63222924Y-55695478D01*
X63238884Y-55700115D01*
X63247431Y-55702598D01*
X63284306Y-55705500D01*
X65063249Y-55705500D01*
X65065694Y-55705500D01*
X65102569Y-55702598D01*
X65148993Y-55689109D01*
X65214426Y-55688082D01*
X65271270Y-55720505D01*
X67441799Y-57891034D01*
X67452489Y-57903222D01*
X67471718Y-57928282D01*
X67529850Y-57972888D01*
X67597159Y-58024536D01*
X67743238Y-58085044D01*
X67750740Y-58086031D01*
X67807608Y-58119528D01*
X67839233Y-58177772D01*
X67836342Y-58243985D01*
X67816333Y-58305564D01*
X67816331Y-58305573D01*
X67814326Y-58311744D01*
X67813648Y-58318194D01*
X67813646Y-58318204D01*
X67801235Y-58436295D01*
X67794540Y-58500000D01*
X67795219Y-58506460D01*
X67813646Y-58681795D01*
X67813647Y-58681803D01*
X67814326Y-58688256D01*
X67816331Y-58694428D01*
X67816333Y-58694435D01*
X67868331Y-58854465D01*
X67872821Y-58868284D01*
X67876068Y-58873908D01*
X67876069Y-58873910D01*
X67959082Y-59017694D01*
X67967467Y-59032216D01*
X68094129Y-59172888D01*
X68247270Y-59284151D01*
X68420197Y-59361144D01*
X68581281Y-59395383D01*
X68631842Y-59418959D01*
X68666950Y-59462314D01*
X68679500Y-59516672D01*
X68679500Y-59706756D01*
X68679500Y-59706781D01*
X68679501Y-59709180D01*
X68679690Y-59711594D01*
X68679691Y-59711596D01*
X68679729Y-59712085D01*
X68682335Y-59745204D01*
X68684102Y-59751286D01*
X68685088Y-59754679D01*
X68685220Y-59757407D01*
X68685241Y-59757521D01*
X68685225Y-59757523D01*
X68687875Y-59812189D01*
X68664387Y-59864758D01*
X68577251Y-59978315D01*
X68577245Y-59978324D01*
X68572302Y-59984767D01*
X68569193Y-59992272D01*
X68569191Y-59992276D01*
X68517423Y-60117254D01*
X68517421Y-60117259D01*
X68514313Y-60124764D01*
X68513252Y-60132815D01*
X68513251Y-60132823D01*
X68500029Y-60233260D01*
X68499500Y-60237280D01*
X68499500Y-60241333D01*
X68499500Y-61575500D01*
X68482887Y-61637500D01*
X68437500Y-61682887D01*
X68375500Y-61699500D01*
X67037280Y-61699500D01*
X67033263Y-61700028D01*
X67033260Y-61700029D01*
X66932825Y-61713251D01*
X66932819Y-61713252D01*
X66924764Y-61714313D01*
X66917253Y-61717424D01*
X66909406Y-61719527D01*
X66909105Y-61718403D01*
X66872773Y-61725624D01*
X66825330Y-61716182D01*
X66785109Y-61689305D01*
X66721205Y-61625401D01*
X66721204Y-61625400D01*
X66715687Y-61619883D01*
X66576395Y-61537506D01*
X66532899Y-61524869D01*
X66427081Y-61494125D01*
X66427074Y-61494123D01*
X66420993Y-61492357D01*
X66414682Y-61491860D01*
X66414675Y-61491859D01*
X66387124Y-61489691D01*
X66387110Y-61489690D01*
X66384690Y-61489500D01*
X65975310Y-61489500D01*
X65972890Y-61489690D01*
X65972875Y-61489691D01*
X65945324Y-61491859D01*
X65945315Y-61491860D01*
X65939007Y-61492357D01*
X65932927Y-61494123D01*
X65932918Y-61494125D01*
X65791097Y-61535329D01*
X65791094Y-61535330D01*
X65783605Y-61537506D01*
X65776891Y-61541476D01*
X65776890Y-61541477D01*
X65651030Y-61615910D01*
X65651026Y-61615912D01*
X65644313Y-61619883D01*
X65638798Y-61625397D01*
X65638794Y-61625401D01*
X65535401Y-61728794D01*
X65535397Y-61728798D01*
X65529883Y-61734313D01*
X65525912Y-61741026D01*
X65525910Y-61741030D01*
X65475976Y-61825464D01*
X65447506Y-61873605D01*
X65445330Y-61881094D01*
X65445329Y-61881097D01*
X65404125Y-62022918D01*
X65404123Y-62022927D01*
X65402357Y-62029007D01*
X65401860Y-62035315D01*
X65401859Y-62035324D01*
X65399691Y-62062875D01*
X65399690Y-62062890D01*
X65399500Y-62065310D01*
X65399500Y-62534690D01*
X65399691Y-62537124D01*
X65399787Y-62539554D01*
X65399121Y-62539580D01*
X65391842Y-62590093D01*
X65361697Y-62635488D01*
X65315000Y-62663576D01*
X65248158Y-62685725D01*
X65248154Y-62685726D01*
X65241303Y-62687997D01*
X65235159Y-62691786D01*
X65235154Y-62691789D01*
X65103107Y-62773237D01*
X65103101Y-62773241D01*
X65096956Y-62777032D01*
X65091849Y-62782138D01*
X65091845Y-62782142D01*
X64982142Y-62891845D01*
X64982138Y-62891849D01*
X64977032Y-62896956D01*
X64973241Y-62903101D01*
X64973237Y-62903107D01*
X64891789Y-63035154D01*
X64891786Y-63035159D01*
X64887997Y-63041303D01*
X64885726Y-63048154D01*
X64885725Y-63048158D01*
X64837387Y-63194035D01*
X64834651Y-63202292D01*
X64833963Y-63209022D01*
X64833962Y-63209029D01*
X64824819Y-63298523D01*
X64824818Y-63298541D01*
X64824500Y-63301655D01*
X64824500Y-63304802D01*
X64824500Y-63304803D01*
X64824500Y-63895194D01*
X64824500Y-63895213D01*
X64824501Y-63898344D01*
X64824820Y-63901476D01*
X64824821Y-63901477D01*
X64833962Y-63990972D01*
X64833963Y-63990980D01*
X64834651Y-63997708D01*
X64836779Y-64004131D01*
X64836780Y-64004134D01*
X64878874Y-64131166D01*
X64887997Y-64158697D01*
X64891788Y-64164843D01*
X64891789Y-64164845D01*
X64971169Y-64293540D01*
X64977032Y-64303044D01*
X64982141Y-64308153D01*
X64982142Y-64308154D01*
X64995671Y-64321683D01*
X65028094Y-64378527D01*
X65027066Y-64443959D01*
X65004125Y-64522918D01*
X65004123Y-64522927D01*
X65002357Y-64529007D01*
X65001860Y-64535315D01*
X65001859Y-64535324D01*
X64999691Y-64562875D01*
X64999690Y-64562890D01*
X64999500Y-64565310D01*
X64999500Y-64567755D01*
X64999500Y-64685500D01*
X64982887Y-64747500D01*
X64937500Y-64792887D01*
X64875500Y-64809500D01*
X64537487Y-64809500D01*
X64521302Y-64808439D01*
X64498059Y-64805379D01*
X64490000Y-64804318D01*
X64462629Y-64807921D01*
X64348739Y-64822915D01*
X64348738Y-64822915D01*
X64333237Y-64824956D01*
X64333238Y-64824956D01*
X64319124Y-64830801D01*
X64319124Y-64830802D01*
X64194666Y-64882354D01*
X64194662Y-64882355D01*
X64187159Y-64885464D01*
X64180714Y-64890408D01*
X64180711Y-64890411D01*
X64068163Y-64976772D01*
X64068160Y-64976774D01*
X64061718Y-64981718D01*
X64056773Y-64988161D01*
X64056770Y-64988165D01*
X64042490Y-65006774D01*
X64031798Y-65018965D01*
X63772484Y-65278279D01*
X63719399Y-65309674D01*
X63631095Y-65335329D01*
X63631088Y-65335331D01*
X63623605Y-65337506D01*
X63616895Y-65341474D01*
X63616891Y-65341476D01*
X63491030Y-65415910D01*
X63491026Y-65415912D01*
X63484313Y-65419883D01*
X63478798Y-65425397D01*
X63478794Y-65425401D01*
X63375401Y-65528794D01*
X63375397Y-65528798D01*
X63369883Y-65534313D01*
X63365912Y-65541026D01*
X63365910Y-65541030D01*
X63306130Y-65642113D01*
X63287506Y-65673605D01*
X63285330Y-65681094D01*
X63285329Y-65681097D01*
X63244125Y-65822918D01*
X63244123Y-65822927D01*
X63242357Y-65829007D01*
X63241860Y-65835315D01*
X63241859Y-65835324D01*
X63239691Y-65862875D01*
X63239690Y-65862890D01*
X63239500Y-65865310D01*
X63239500Y-65867755D01*
X63239500Y-66205128D01*
X63233154Y-66244288D01*
X63214767Y-66279439D01*
X63161519Y-66350568D01*
X63161516Y-66350571D01*
X63156204Y-66357669D01*
X63153104Y-66365978D01*
X63153104Y-66365980D01*
X63108620Y-66485247D01*
X63108619Y-66485250D01*
X63105909Y-66492517D01*
X63105079Y-66500227D01*
X63105079Y-66500232D01*
X63099855Y-66548819D01*
X63099854Y-66548831D01*
X63099500Y-66552127D01*
X63099500Y-66555448D01*
X63099500Y-66555449D01*
X63099500Y-67494560D01*
X63099500Y-67494578D01*
X63099501Y-67497872D01*
X63099853Y-67501150D01*
X63099854Y-67501161D01*
X63105079Y-67549768D01*
X63105080Y-67549773D01*
X63105909Y-67557483D01*
X63108619Y-67564749D01*
X63108620Y-67564753D01*
X63133733Y-67632084D01*
X63156204Y-67692331D01*
X63161518Y-67699430D01*
X63161519Y-67699431D01*
X63229329Y-67790014D01*
X63242454Y-67807546D01*
X63357669Y-67893796D01*
X63492517Y-67944091D01*
X63552127Y-67950500D01*
X64025500Y-67950499D01*
X64087500Y-67967112D01*
X64132887Y-68012499D01*
X64149500Y-68074499D01*
X64149500Y-68844560D01*
X64149500Y-68844578D01*
X64149501Y-68847872D01*
X64149853Y-68851150D01*
X64149854Y-68851161D01*
X64155079Y-68899768D01*
X64155080Y-68899773D01*
X64155909Y-68907483D01*
X64158619Y-68914751D01*
X64158621Y-68914756D01*
X64192572Y-69005785D01*
X64200009Y-69058829D01*
X64199690Y-69062885D01*
X64199689Y-69062905D01*
X64199500Y-69065310D01*
X64199500Y-69534690D01*
X64199690Y-69537110D01*
X64199691Y-69537124D01*
X64201859Y-69564675D01*
X64201860Y-69564682D01*
X64202357Y-69570993D01*
X64204123Y-69577074D01*
X64204125Y-69577081D01*
X64239837Y-69700000D01*
X64247506Y-69726395D01*
X64329883Y-69865687D01*
X64444313Y-69980117D01*
X64583605Y-70062494D01*
X64739007Y-70107643D01*
X64775310Y-70110500D01*
X65182245Y-70110500D01*
X65184690Y-70110500D01*
X65220993Y-70107643D01*
X65376395Y-70062494D01*
X65515687Y-69980117D01*
X65630117Y-69865687D01*
X65712494Y-69726395D01*
X65757643Y-69570993D01*
X65760500Y-69534690D01*
X65760500Y-69194872D01*
X65766846Y-69155712D01*
X65785233Y-69120561D01*
X65799172Y-69101941D01*
X65843796Y-69042331D01*
X65894091Y-68907483D01*
X65895303Y-68896206D01*
X65910476Y-68848745D01*
X65943107Y-68811088D01*
X65953282Y-68803282D01*
X65972510Y-68778222D01*
X65983189Y-68766044D01*
X66455693Y-68293540D01*
X66516534Y-68260162D01*
X66585783Y-68264701D01*
X66641748Y-68305737D01*
X66659602Y-68329005D01*
X66659605Y-68329008D01*
X66664549Y-68335451D01*
X66670991Y-68340394D01*
X66670996Y-68340399D01*
X66677916Y-68345709D01*
X66710247Y-68382836D01*
X66725582Y-68429617D01*
X66721505Y-68478679D01*
X66694125Y-68572918D01*
X66694123Y-68572927D01*
X66692357Y-68579007D01*
X66691860Y-68585315D01*
X66691859Y-68585324D01*
X66689691Y-68612875D01*
X66689690Y-68612890D01*
X66689500Y-68615310D01*
X66689500Y-69024690D01*
X66689690Y-69027110D01*
X66689691Y-69027124D01*
X66691859Y-69054675D01*
X66691860Y-69054682D01*
X66692357Y-69060993D01*
X66694123Y-69067074D01*
X66694125Y-69067081D01*
X66723383Y-69167784D01*
X66737506Y-69216395D01*
X66819883Y-69355687D01*
X66934313Y-69470117D01*
X67073605Y-69552494D01*
X67229007Y-69597643D01*
X67265310Y-69600500D01*
X67732245Y-69600500D01*
X67734690Y-69600500D01*
X67770993Y-69597643D01*
X67926395Y-69552494D01*
X68065687Y-69470117D01*
X68065705Y-69470149D01*
X68094013Y-69454584D01*
X68132125Y-69447312D01*
X68183492Y-69445698D01*
X68187875Y-69445561D01*
X68191768Y-69445500D01*
X68215448Y-69445500D01*
X68219350Y-69445500D01*
X68223313Y-69444999D01*
X68234963Y-69444080D01*
X68278627Y-69442709D01*
X68297861Y-69437119D01*
X68316917Y-69433174D01*
X68336792Y-69430664D01*
X68344047Y-69427791D01*
X68344664Y-69427633D01*
X68400647Y-69426315D01*
X68451501Y-69449759D01*
X68486856Y-69493186D01*
X68499500Y-69547738D01*
X68499500Y-69962720D01*
X68500028Y-69966737D01*
X68500029Y-69966739D01*
X68513251Y-70067176D01*
X68513252Y-70067182D01*
X68514313Y-70075236D01*
X68517422Y-70082742D01*
X68517423Y-70082745D01*
X68566199Y-70200500D01*
X68572302Y-70215233D01*
X68577245Y-70221674D01*
X68577248Y-70221680D01*
X68659605Y-70329008D01*
X68664549Y-70335451D01*
X68670991Y-70340394D01*
X68778319Y-70422751D01*
X68778322Y-70422753D01*
X68784767Y-70427698D01*
X68924764Y-70485687D01*
X69037280Y-70500500D01*
X69258667Y-70500500D01*
X69262720Y-70500500D01*
X69375236Y-70485687D01*
X69375350Y-70486553D01*
X69424650Y-70486552D01*
X69424764Y-70485687D01*
X69431288Y-70486546D01*
X69537280Y-70500500D01*
X69758667Y-70500500D01*
X69762720Y-70500500D01*
X69875236Y-70485687D01*
X69875350Y-70486553D01*
X69924650Y-70486552D01*
X69924764Y-70485687D01*
X69931288Y-70486546D01*
X70037280Y-70500500D01*
X70258667Y-70500500D01*
X70262720Y-70500500D01*
X70375236Y-70485687D01*
X70375350Y-70486553D01*
X70424650Y-70486552D01*
X70424764Y-70485687D01*
X70431288Y-70486546D01*
X70537280Y-70500500D01*
X70758667Y-70500500D01*
X70762720Y-70500500D01*
X70875236Y-70485687D01*
X70875350Y-70486553D01*
X70924650Y-70486552D01*
X70924764Y-70485687D01*
X70931288Y-70486546D01*
X71037280Y-70500500D01*
X71258667Y-70500500D01*
X71262720Y-70500500D01*
X71375236Y-70485687D01*
X71375350Y-70486553D01*
X71424650Y-70486552D01*
X71424764Y-70485687D01*
X71431288Y-70486546D01*
X71537280Y-70500500D01*
X71758667Y-70500500D01*
X71762720Y-70500500D01*
X71875236Y-70485687D01*
X71875350Y-70486553D01*
X71924650Y-70486552D01*
X71924764Y-70485687D01*
X71931288Y-70486546D01*
X72037280Y-70500500D01*
X72258667Y-70500500D01*
X72262720Y-70500500D01*
X72375236Y-70485687D01*
X72375350Y-70486553D01*
X72424650Y-70486552D01*
X72424764Y-70485687D01*
X72431288Y-70486546D01*
X72537280Y-70500500D01*
X72758667Y-70500500D01*
X72762720Y-70500500D01*
X72875236Y-70485687D01*
X72875350Y-70486553D01*
X72924650Y-70486552D01*
X72924764Y-70485687D01*
X72931288Y-70486546D01*
X73037280Y-70500500D01*
X73258667Y-70500500D01*
X73262720Y-70500500D01*
X73375236Y-70485687D01*
X73375350Y-70486553D01*
X73424650Y-70486552D01*
X73424764Y-70485687D01*
X73431288Y-70486546D01*
X73537280Y-70500500D01*
X73758667Y-70500500D01*
X73762720Y-70500500D01*
X73875236Y-70485687D01*
X73875350Y-70486553D01*
X73924650Y-70486552D01*
X73924764Y-70485687D01*
X73931288Y-70486546D01*
X74037280Y-70500500D01*
X74258667Y-70500500D01*
X74262720Y-70500500D01*
X74375236Y-70485687D01*
X74375350Y-70486553D01*
X74424650Y-70486552D01*
X74424764Y-70485687D01*
X74431288Y-70486546D01*
X74537280Y-70500500D01*
X74758667Y-70500500D01*
X74762720Y-70500500D01*
X74868707Y-70486546D01*
X74924746Y-70492065D01*
X74972569Y-70521804D01*
X75041799Y-70591034D01*
X75052489Y-70603222D01*
X75071718Y-70628282D01*
X75145692Y-70685044D01*
X75197159Y-70724536D01*
X75343238Y-70785044D01*
X75431724Y-70796693D01*
X75470379Y-70808418D01*
X75503217Y-70831950D01*
X75562402Y-70891135D01*
X75700607Y-70972869D01*
X75854796Y-71017665D01*
X75890819Y-71020500D01*
X76289180Y-71020499D01*
X76325204Y-71017665D01*
X76479393Y-70972869D01*
X76536879Y-70938871D01*
X76600000Y-70921603D01*
X76663120Y-70938871D01*
X76720607Y-70972869D01*
X76874796Y-71017665D01*
X76910819Y-71020500D01*
X77309180Y-71020499D01*
X77345204Y-71017665D01*
X77499393Y-70972869D01*
X77637598Y-70891135D01*
X77751135Y-70777598D01*
X77832869Y-70639393D01*
X77877665Y-70485204D01*
X77880500Y-70449181D01*
X77880499Y-69950820D01*
X77877665Y-69914796D01*
X77832869Y-69760607D01*
X77751135Y-69622402D01*
X77745615Y-69616882D01*
X77740837Y-69610722D01*
X77741536Y-69610179D01*
X77719939Y-69577858D01*
X77710500Y-69530405D01*
X77710500Y-69157487D01*
X77711561Y-69141302D01*
X77714621Y-69118059D01*
X77715682Y-69110000D01*
X77695044Y-68953238D01*
X77634536Y-68807159D01*
X77562450Y-68713214D01*
X77562448Y-68713212D01*
X77538282Y-68681718D01*
X77513230Y-68662495D01*
X77501035Y-68651800D01*
X77458199Y-68608964D01*
X77447503Y-68596768D01*
X77433228Y-68578164D01*
X77428282Y-68571718D01*
X77329071Y-68495591D01*
X77292178Y-68449624D01*
X77289821Y-68444570D01*
X77287549Y-68437713D01*
X77228511Y-68341999D01*
X77210063Y-68278704D01*
X77226004Y-68217439D01*
X77227698Y-68215233D01*
X77285687Y-68075236D01*
X77300500Y-67962720D01*
X77300500Y-67737280D01*
X77285687Y-67624764D01*
X77286553Y-67624650D01*
X77286553Y-67575350D01*
X77285687Y-67575236D01*
X77286553Y-67568658D01*
X77300500Y-67462720D01*
X77300500Y-67237280D01*
X77285687Y-67124764D01*
X77286552Y-67124650D01*
X77286553Y-67075350D01*
X77285687Y-67075236D01*
X77285686Y-67075236D01*
X77300500Y-66962720D01*
X77300500Y-66820924D01*
X77313050Y-66766566D01*
X77348158Y-66723211D01*
X77398717Y-66699634D01*
X77579803Y-66661144D01*
X77752730Y-66584151D01*
X77905871Y-66472888D01*
X78032533Y-66332216D01*
X78127179Y-66168284D01*
X78185674Y-65988256D01*
X78205460Y-65800000D01*
X78185674Y-65611744D01*
X78127179Y-65431716D01*
X78032533Y-65267784D01*
X77911146Y-65132970D01*
X77882980Y-65079998D01*
X77882980Y-65020002D01*
X77911147Y-64967028D01*
X78032533Y-64832216D01*
X78127179Y-64668284D01*
X78185674Y-64488256D01*
X78205460Y-64300000D01*
X78185674Y-64111744D01*
X78127179Y-63931716D01*
X78032533Y-63767784D01*
X77933206Y-63657471D01*
X77905925Y-63607846D01*
X77903553Y-63551265D01*
X77926587Y-63499530D01*
X77970222Y-63463432D01*
X78025357Y-63450500D01*
X80009903Y-63450500D01*
X80057356Y-63459939D01*
X80097584Y-63486819D01*
X83227233Y-66616468D01*
X83259327Y-66672055D01*
X83259327Y-66736241D01*
X83226337Y-66859362D01*
X83226334Y-66859376D01*
X83224937Y-66864592D01*
X83224465Y-66869977D01*
X83224465Y-66869982D01*
X83207148Y-67067916D01*
X83204341Y-67100000D01*
X83204813Y-67105395D01*
X83224337Y-67328558D01*
X83224937Y-67335408D01*
X83226336Y-67340630D01*
X83226337Y-67340634D01*
X83284694Y-67558430D01*
X83284697Y-67558438D01*
X83286097Y-67563663D01*
X83288385Y-67568570D01*
X83288386Y-67568572D01*
X83383678Y-67772927D01*
X83383681Y-67772933D01*
X83385965Y-67777830D01*
X83389064Y-67782257D01*
X83389066Y-67782259D01*
X83518399Y-67966966D01*
X83518402Y-67966970D01*
X83521505Y-67971401D01*
X83688599Y-68138495D01*
X83693031Y-68141598D01*
X83693033Y-68141600D01*
X83787467Y-68207723D01*
X83882170Y-68274035D01*
X83887070Y-68276320D01*
X83887072Y-68276321D01*
X83903761Y-68284103D01*
X84096337Y-68373903D01*
X84101567Y-68375304D01*
X84101569Y-68375305D01*
X84129676Y-68382836D01*
X84324592Y-68435063D01*
X84560000Y-68455659D01*
X84795408Y-68435063D01*
X85023663Y-68373903D01*
X85237830Y-68274035D01*
X85431401Y-68138495D01*
X85598495Y-67971401D01*
X85607412Y-67958667D01*
X85728425Y-67785842D01*
X85772743Y-67746976D01*
X85830000Y-67732965D01*
X85887257Y-67746976D01*
X85931575Y-67785842D01*
X86058395Y-67966961D01*
X86058401Y-67966968D01*
X86061505Y-67971401D01*
X86228599Y-68138495D01*
X86233031Y-68141598D01*
X86233033Y-68141600D01*
X86327467Y-68207723D01*
X86422170Y-68274035D01*
X86427070Y-68276320D01*
X86427072Y-68276321D01*
X86443761Y-68284103D01*
X86636337Y-68373903D01*
X86641567Y-68375304D01*
X86641569Y-68375305D01*
X86669676Y-68382836D01*
X86864592Y-68435063D01*
X87100000Y-68455659D01*
X87335408Y-68435063D01*
X87563663Y-68373903D01*
X87777830Y-68274035D01*
X87971401Y-68138495D01*
X88138495Y-67971401D01*
X88274035Y-67777830D01*
X88373903Y-67563663D01*
X88435063Y-67335408D01*
X88455659Y-67100000D01*
X88435063Y-66864592D01*
X88384820Y-66677081D01*
X88375305Y-66641569D01*
X88375304Y-66641567D01*
X88373903Y-66636337D01*
X88274035Y-66422171D01*
X88138495Y-66228599D01*
X87971401Y-66061505D01*
X87966968Y-66058401D01*
X87966961Y-66058395D01*
X87785842Y-65931575D01*
X87746976Y-65887257D01*
X87732965Y-65830000D01*
X87746976Y-65772743D01*
X87785842Y-65728425D01*
X87966961Y-65601604D01*
X87966961Y-65601603D01*
X87971401Y-65598495D01*
X88138495Y-65431401D01*
X88274035Y-65237830D01*
X88373903Y-65023663D01*
X88435063Y-64795408D01*
X88455659Y-64560000D01*
X88435063Y-64324592D01*
X88383480Y-64132079D01*
X88375305Y-64101569D01*
X88375304Y-64101567D01*
X88373903Y-64096337D01*
X88364063Y-64075236D01*
X88320855Y-63982577D01*
X88274035Y-63882171D01*
X88138495Y-63688599D01*
X87971401Y-63521505D01*
X87966968Y-63518401D01*
X87966961Y-63518395D01*
X87785842Y-63391575D01*
X87746976Y-63347257D01*
X87732965Y-63290000D01*
X87746976Y-63232743D01*
X87785842Y-63188425D01*
X87966961Y-63061604D01*
X87966961Y-63061603D01*
X87971401Y-63058495D01*
X88138495Y-62891401D01*
X88274035Y-62697830D01*
X88373903Y-62483663D01*
X88435063Y-62255408D01*
X88455659Y-62020000D01*
X88435063Y-61784592D01*
X88373903Y-61556337D01*
X88274035Y-61342171D01*
X88138495Y-61148599D01*
X87971401Y-60981505D01*
X87966970Y-60978402D01*
X87966966Y-60978399D01*
X87782259Y-60849066D01*
X87782257Y-60849064D01*
X87777830Y-60845965D01*
X87772933Y-60843681D01*
X87772927Y-60843678D01*
X87568572Y-60748386D01*
X87568570Y-60748385D01*
X87563663Y-60746097D01*
X87558438Y-60744697D01*
X87558430Y-60744694D01*
X87340634Y-60686337D01*
X87340630Y-60686336D01*
X87335408Y-60684937D01*
X87330020Y-60684465D01*
X87330017Y-60684465D01*
X87105395Y-60664813D01*
X87100000Y-60664341D01*
X87094605Y-60664813D01*
X86869982Y-60684465D01*
X86869977Y-60684465D01*
X86864592Y-60684937D01*
X86859371Y-60686335D01*
X86859365Y-60686337D01*
X86641569Y-60744694D01*
X86641557Y-60744698D01*
X86636337Y-60746097D01*
X86631432Y-60748383D01*
X86631427Y-60748386D01*
X86427081Y-60843675D01*
X86427077Y-60843677D01*
X86422171Y-60845965D01*
X86417738Y-60849068D01*
X86417731Y-60849073D01*
X86233034Y-60978399D01*
X86233029Y-60978402D01*
X86228599Y-60981505D01*
X86224775Y-60985328D01*
X86224769Y-60985334D01*
X86065334Y-61144769D01*
X86065328Y-61144775D01*
X86061505Y-61148599D01*
X86058402Y-61153029D01*
X86058399Y-61153034D01*
X85929073Y-61337731D01*
X85929068Y-61337738D01*
X85925965Y-61342171D01*
X85923677Y-61347077D01*
X85923675Y-61347081D01*
X85828386Y-61551427D01*
X85828383Y-61551432D01*
X85826097Y-61556337D01*
X85824698Y-61561557D01*
X85824694Y-61561569D01*
X85766337Y-61779365D01*
X85766335Y-61779371D01*
X85764937Y-61784592D01*
X85764465Y-61789977D01*
X85764465Y-61789982D01*
X85752940Y-61921718D01*
X85744341Y-62020000D01*
X85744813Y-62025395D01*
X85761303Y-62213881D01*
X85764937Y-62255408D01*
X85766336Y-62260630D01*
X85766337Y-62260634D01*
X85824694Y-62478430D01*
X85824697Y-62478438D01*
X85826097Y-62483663D01*
X85828385Y-62488570D01*
X85828386Y-62488572D01*
X85923678Y-62692927D01*
X85923681Y-62692933D01*
X85925965Y-62697830D01*
X85929064Y-62702257D01*
X85929066Y-62702259D01*
X86058399Y-62886966D01*
X86058402Y-62886970D01*
X86061505Y-62891401D01*
X86228599Y-63058495D01*
X86233032Y-63061599D01*
X86233038Y-63061604D01*
X86414158Y-63188425D01*
X86453024Y-63232743D01*
X86467035Y-63290000D01*
X86453024Y-63347257D01*
X86414159Y-63391575D01*
X86233041Y-63518395D01*
X86228599Y-63521505D01*
X86224775Y-63525328D01*
X86224769Y-63525334D01*
X86065334Y-63684769D01*
X86065328Y-63684775D01*
X86061505Y-63688599D01*
X86058402Y-63693029D01*
X86058399Y-63693034D01*
X85931575Y-63874159D01*
X85887257Y-63913025D01*
X85830000Y-63927036D01*
X85772743Y-63913025D01*
X85728425Y-63874159D01*
X85680394Y-63805564D01*
X85598495Y-63688599D01*
X85431401Y-63521505D01*
X85426970Y-63518402D01*
X85426966Y-63518399D01*
X85242259Y-63389066D01*
X85242257Y-63389064D01*
X85237830Y-63385965D01*
X85232933Y-63383681D01*
X85232927Y-63383678D01*
X85028572Y-63288386D01*
X85028570Y-63288385D01*
X85023663Y-63286097D01*
X85018438Y-63284697D01*
X85018430Y-63284694D01*
X84800634Y-63226337D01*
X84800630Y-63226336D01*
X84795408Y-63224937D01*
X84790020Y-63224465D01*
X84790017Y-63224465D01*
X84565395Y-63204813D01*
X84560000Y-63204341D01*
X84554605Y-63204813D01*
X84329982Y-63224465D01*
X84329977Y-63224465D01*
X84324592Y-63224937D01*
X84319376Y-63226334D01*
X84319362Y-63226337D01*
X84196241Y-63259327D01*
X84132055Y-63259327D01*
X84076468Y-63227233D01*
X82808199Y-61958964D01*
X82797504Y-61946769D01*
X82783228Y-61928164D01*
X82778282Y-61921718D01*
X82652841Y-61825464D01*
X82645333Y-61822354D01*
X82514271Y-61768066D01*
X82514268Y-61768065D01*
X82506762Y-61764956D01*
X82498708Y-61763895D01*
X82498702Y-61763894D01*
X82389361Y-61749500D01*
X82358059Y-61745379D01*
X82350000Y-61744318D01*
X82341941Y-61745379D01*
X82318698Y-61748439D01*
X82302513Y-61749500D01*
X76984849Y-61749500D01*
X76937397Y-61740061D01*
X76875236Y-61714313D01*
X76867182Y-61713252D01*
X76867176Y-61713251D01*
X76766739Y-61700029D01*
X76766737Y-61700028D01*
X76762720Y-61699500D01*
X75424500Y-61699500D01*
X75362500Y-61682887D01*
X75317113Y-61637500D01*
X75300500Y-61575500D01*
X75300500Y-60275572D01*
X75318773Y-60210782D01*
X75368205Y-60165087D01*
X75434229Y-60151954D01*
X75497385Y-60175254D01*
X75546286Y-60210782D01*
X75647270Y-60284151D01*
X75820197Y-60361144D01*
X76005354Y-60400500D01*
X76188143Y-60400500D01*
X76194646Y-60400500D01*
X76379803Y-60361144D01*
X76552730Y-60284151D01*
X76705871Y-60172888D01*
X76832533Y-60032216D01*
X76927179Y-59868284D01*
X76985674Y-59688256D01*
X77005460Y-59500000D01*
X76985674Y-59311744D01*
X76927179Y-59131716D01*
X76832533Y-58967784D01*
X76828186Y-58962956D01*
X76828182Y-58962950D01*
X76802351Y-58934263D01*
X76778736Y-58895728D01*
X76770500Y-58851290D01*
X76770500Y-57300000D01*
X80994540Y-57300000D01*
X80995219Y-57306460D01*
X81013646Y-57481795D01*
X81013647Y-57481803D01*
X81014326Y-57488256D01*
X81016331Y-57494428D01*
X81016333Y-57494435D01*
X81056194Y-57617113D01*
X81072821Y-57668284D01*
X81076068Y-57673908D01*
X81076069Y-57673910D01*
X81128516Y-57764752D01*
X81167467Y-57832216D01*
X81171811Y-57837041D01*
X81171813Y-57837043D01*
X81275723Y-57952446D01*
X81294129Y-57972888D01*
X81299387Y-57976708D01*
X81299388Y-57976709D01*
X81328972Y-57998203D01*
X81447270Y-58084151D01*
X81603123Y-58153542D01*
X81610195Y-58156691D01*
X81620197Y-58161144D01*
X81805354Y-58200500D01*
X81988143Y-58200500D01*
X81994646Y-58200500D01*
X82179803Y-58161144D01*
X82185745Y-58158498D01*
X82191923Y-58156491D01*
X82192523Y-58158339D01*
X82245506Y-58150008D01*
X82245509Y-58149967D01*
X82245702Y-58149977D01*
X82246338Y-58149877D01*
X82252127Y-58150500D01*
X83347872Y-58150499D01*
X83407483Y-58144091D01*
X83542331Y-58093796D01*
X83657546Y-58007546D01*
X83719199Y-57925187D01*
X83762961Y-57888616D01*
X83818465Y-57875500D01*
X87781535Y-57875500D01*
X87837039Y-57888616D01*
X87880800Y-57925187D01*
X87942454Y-58007546D01*
X88057669Y-58093796D01*
X88192517Y-58144091D01*
X88252127Y-58150500D01*
X89347872Y-58150499D01*
X89407483Y-58144091D01*
X89542331Y-58093796D01*
X89657546Y-58007546D01*
X89743796Y-57892331D01*
X89794091Y-57757483D01*
X89800500Y-57697873D01*
X89800499Y-56852128D01*
X89794091Y-56792517D01*
X89743796Y-56657669D01*
X89657546Y-56542454D01*
X89629333Y-56521334D01*
X89549431Y-56461519D01*
X89549430Y-56461518D01*
X89542331Y-56456204D01*
X89440078Y-56418066D01*
X89414752Y-56408620D01*
X89414750Y-56408619D01*
X89407483Y-56405909D01*
X89399770Y-56405079D01*
X89399767Y-56405079D01*
X89351180Y-56399855D01*
X89351169Y-56399854D01*
X89347873Y-56399500D01*
X89344550Y-56399500D01*
X88255439Y-56399500D01*
X88255420Y-56399500D01*
X88252128Y-56399501D01*
X88248850Y-56399853D01*
X88248838Y-56399854D01*
X88200231Y-56405079D01*
X88200225Y-56405080D01*
X88192517Y-56405909D01*
X88185252Y-56408618D01*
X88185246Y-56408620D01*
X88065980Y-56453104D01*
X88065978Y-56453104D01*
X88057669Y-56456204D01*
X88050572Y-56461516D01*
X88050568Y-56461519D01*
X87949550Y-56537141D01*
X87949546Y-56537144D01*
X87942454Y-56542454D01*
X87937144Y-56549546D01*
X87937141Y-56549550D01*
X87915179Y-56578888D01*
X87881941Y-56623290D01*
X87880802Y-56624811D01*
X87837039Y-56661384D01*
X87781535Y-56674500D01*
X83818465Y-56674500D01*
X83762961Y-56661384D01*
X83719198Y-56624811D01*
X83718059Y-56623290D01*
X83657546Y-56542454D01*
X83629333Y-56521334D01*
X83549431Y-56461519D01*
X83549430Y-56461518D01*
X83542331Y-56456204D01*
X83440078Y-56418066D01*
X83414752Y-56408620D01*
X83414750Y-56408619D01*
X83407483Y-56405909D01*
X83399770Y-56405079D01*
X83399767Y-56405079D01*
X83351180Y-56399855D01*
X83351169Y-56399854D01*
X83347873Y-56399500D01*
X83344550Y-56399500D01*
X82255439Y-56399500D01*
X82255420Y-56399500D01*
X82252128Y-56399501D01*
X82248850Y-56399853D01*
X82248838Y-56399854D01*
X82200231Y-56405079D01*
X82200225Y-56405080D01*
X82192517Y-56405909D01*
X82185250Y-56408619D01*
X82185243Y-56408621D01*
X82165443Y-56416006D01*
X82096333Y-56421113D01*
X81994646Y-56399500D01*
X81805354Y-56399500D01*
X81798995Y-56400851D01*
X81798991Y-56400852D01*
X81626559Y-56437503D01*
X81626552Y-56437505D01*
X81620197Y-56438856D01*
X81614262Y-56441498D01*
X81614254Y-56441501D01*
X81453207Y-56513205D01*
X81453202Y-56513207D01*
X81447270Y-56515849D01*
X81442016Y-56519665D01*
X81442011Y-56519669D01*
X81299388Y-56623290D01*
X81299381Y-56623295D01*
X81294129Y-56627112D01*
X81289784Y-56631937D01*
X81289779Y-56631942D01*
X81171813Y-56762956D01*
X81171808Y-56762962D01*
X81167467Y-56767784D01*
X81164222Y-56773404D01*
X81164218Y-56773410D01*
X81076069Y-56926089D01*
X81076066Y-56926094D01*
X81072821Y-56931716D01*
X81070815Y-56937888D01*
X81070813Y-56937894D01*
X81016333Y-57105564D01*
X81016331Y-57105573D01*
X81014326Y-57111744D01*
X81013648Y-57118194D01*
X81013646Y-57118204D01*
X80999794Y-57250010D01*
X80994540Y-57300000D01*
X76770500Y-57300000D01*
X76770500Y-56898961D01*
X76787768Y-56835840D01*
X76788159Y-56835179D01*
X76852494Y-56726395D01*
X76897643Y-56570993D01*
X76900500Y-56534690D01*
X76900500Y-56065310D01*
X76897643Y-56029007D01*
X76852494Y-55873605D01*
X76852494Y-55873604D01*
X76852760Y-55873527D01*
X76843788Y-55819947D01*
X76862469Y-55763401D01*
X76905357Y-55722084D01*
X76962561Y-55705527D01*
X76963247Y-55705500D01*
X76965694Y-55705500D01*
X77002569Y-55702598D01*
X77160398Y-55656744D01*
X77301865Y-55573081D01*
X77390894Y-55484050D01*
X77431120Y-55457172D01*
X77497841Y-55429536D01*
X77532143Y-55403215D01*
X77623282Y-55333282D01*
X77642510Y-55308222D01*
X77653189Y-55296044D01*
X77891044Y-55058189D01*
X77903222Y-55047510D01*
X77928282Y-55028282D01*
X78024536Y-54902841D01*
X78085044Y-54756762D01*
X78100500Y-54639361D01*
X78105682Y-54600000D01*
X78101561Y-54568698D01*
X78100500Y-54552513D01*
X78100500Y-50137487D01*
X78101561Y-50121302D01*
X78104621Y-50098059D01*
X78105682Y-50090000D01*
X78085044Y-49933238D01*
X78024536Y-49787159D01*
X77981605Y-49731210D01*
X77928282Y-49661718D01*
X77921835Y-49656771D01*
X77916818Y-49651754D01*
X77889938Y-49611526D01*
X77880499Y-49564073D01*
X77880499Y-49453243D01*
X77880499Y-49450820D01*
X77877665Y-49414796D01*
X77832869Y-49260607D01*
X77751135Y-49122402D01*
X77637598Y-49008865D01*
X77564201Y-48965458D01*
X77506108Y-48931102D01*
X77506106Y-48931101D01*
X77499393Y-48927131D01*
X77491900Y-48924954D01*
X77351292Y-48884103D01*
X77351285Y-48884101D01*
X77345204Y-48882335D01*
X77338893Y-48881838D01*
X77338886Y-48881837D01*
X77311615Y-48879691D01*
X77311600Y-48879690D01*
X77309181Y-48879500D01*
X77306735Y-48879500D01*
X76913243Y-48879500D01*
X76913217Y-48879500D01*
X76910820Y-48879501D01*
X76908406Y-48879690D01*
X76908403Y-48879691D01*
X76881111Y-48881838D01*
X76881109Y-48881838D01*
X76874796Y-48882335D01*
X76868718Y-48884100D01*
X76868711Y-48884102D01*
X76728099Y-48924954D01*
X76728096Y-48924955D01*
X76720607Y-48927131D01*
X76713895Y-48931100D01*
X76713889Y-48931103D01*
X76663118Y-48961128D01*
X76599998Y-48978395D01*
X76536879Y-48961127D01*
X76486112Y-48931104D01*
X76486108Y-48931102D01*
X76479393Y-48927131D01*
X76471900Y-48924954D01*
X76331292Y-48884103D01*
X76331285Y-48884101D01*
X76325204Y-48882335D01*
X76318893Y-48881838D01*
X76318886Y-48881837D01*
X76291615Y-48879691D01*
X76291600Y-48879690D01*
X76289181Y-48879500D01*
X76286736Y-48879500D01*
X76075256Y-48879500D01*
X76012477Y-48862433D01*
X75966979Y-48815932D01*
X75951286Y-48752795D01*
X75969715Y-48690407D01*
X76059814Y-48544334D01*
X76114999Y-48377797D01*
X76125500Y-48275009D01*
X76125499Y-46924992D01*
X76114999Y-46822203D01*
X76059814Y-46655666D01*
X76007590Y-46570998D01*
X75973110Y-46515095D01*
X75954649Y-46449999D01*
X75973108Y-46384906D01*
X76059814Y-46244334D01*
X76114999Y-46077797D01*
X76125500Y-45975009D01*
X76125499Y-44624992D01*
X76114999Y-44522203D01*
X76059814Y-44355666D01*
X75967712Y-44206344D01*
X75881099Y-44119731D01*
X75848595Y-44062573D01*
X75849886Y-43996832D01*
X75884609Y-43940994D01*
X75942999Y-43910760D01*
X76058811Y-43886144D01*
X76231738Y-43809151D01*
X76237934Y-43804648D01*
X76238849Y-43804261D01*
X76242626Y-43802081D01*
X76242895Y-43802547D01*
X76289502Y-43782811D01*
X76345418Y-43785887D01*
X76454796Y-43817665D01*
X76490819Y-43820500D01*
X76889180Y-43820499D01*
X76925204Y-43817665D01*
X77079393Y-43772869D01*
X77136879Y-43738871D01*
X77200000Y-43721603D01*
X77263120Y-43738871D01*
X77320607Y-43772869D01*
X77474796Y-43817665D01*
X77510819Y-43820500D01*
X77909180Y-43820499D01*
X77945204Y-43817665D01*
X78099393Y-43772869D01*
X78237598Y-43691135D01*
X78351135Y-43577598D01*
X78432869Y-43439393D01*
X78439983Y-43414903D01*
X78465191Y-43368477D01*
X78507440Y-43336755D01*
X78559059Y-43325500D01*
X78622426Y-43325500D01*
X78682765Y-43341171D01*
X78727853Y-43384222D01*
X78746294Y-43443773D01*
X78733426Y-43504772D01*
X78701737Y-43568410D01*
X78701733Y-43568418D01*
X78699183Y-43573541D01*
X78697614Y-43579053D01*
X78697614Y-43579055D01*
X78643600Y-43768897D01*
X78639565Y-43783077D01*
X78639036Y-43788782D01*
X78639036Y-43788784D01*
X78627733Y-43910760D01*
X78619464Y-44000000D01*
X78619993Y-44005709D01*
X78638111Y-44201238D01*
X78639565Y-44216923D01*
X78699183Y-44426459D01*
X78701735Y-44431585D01*
X78701737Y-44431589D01*
X78793733Y-44616342D01*
X78793735Y-44616346D01*
X78796288Y-44621472D01*
X78927573Y-44795322D01*
X79088568Y-44942088D01*
X79273790Y-45056772D01*
X79476931Y-45135470D01*
X79691074Y-45175500D01*
X79903197Y-45175500D01*
X79908926Y-45175500D01*
X80123069Y-45135470D01*
X80326210Y-45056772D01*
X80511432Y-44942088D01*
X80672427Y-44795322D01*
X80701048Y-44757422D01*
X80744728Y-44721150D01*
X80800000Y-44708150D01*
X80855272Y-44721150D01*
X80898952Y-44757422D01*
X80927573Y-44795322D01*
X80931807Y-44799182D01*
X80931810Y-44799185D01*
X81051573Y-44908363D01*
X81087301Y-44966066D01*
X81087301Y-45033934D01*
X81051573Y-45091637D01*
X80931813Y-45200811D01*
X80931803Y-45200821D01*
X80927573Y-45204678D01*
X80924119Y-45209251D01*
X80924116Y-45209255D01*
X80799741Y-45373955D01*
X80796288Y-45378528D01*
X80793738Y-45383648D01*
X80793733Y-45383657D01*
X80701737Y-45568410D01*
X80701733Y-45568418D01*
X80699183Y-45573541D01*
X80639565Y-45783077D01*
X80619464Y-46000000D01*
X80639565Y-46216923D01*
X80699183Y-46426459D01*
X80701735Y-46431585D01*
X80701737Y-46431589D01*
X80793733Y-46616342D01*
X80793735Y-46616346D01*
X80796288Y-46621472D01*
X80822110Y-46655666D01*
X80843808Y-46684399D01*
X80867776Y-46742820D01*
X80859867Y-46805469D01*
X80822131Y-46856100D01*
X80764354Y-46881582D01*
X80701520Y-46875307D01*
X80589752Y-46833620D01*
X80589750Y-46833619D01*
X80582483Y-46830909D01*
X80574770Y-46830079D01*
X80574767Y-46830079D01*
X80526180Y-46824855D01*
X80526169Y-46824854D01*
X80522873Y-46824500D01*
X80519550Y-46824500D01*
X79080439Y-46824500D01*
X79080420Y-46824500D01*
X79077128Y-46824501D01*
X79073850Y-46824853D01*
X79073838Y-46824854D01*
X79025231Y-46830079D01*
X79025225Y-46830080D01*
X79017517Y-46830909D01*
X79010252Y-46833618D01*
X79010246Y-46833620D01*
X78890980Y-46878104D01*
X78890978Y-46878104D01*
X78882669Y-46881204D01*
X78875572Y-46886516D01*
X78875568Y-46886519D01*
X78774550Y-46962141D01*
X78774546Y-46962144D01*
X78767454Y-46967454D01*
X78762144Y-46974546D01*
X78762141Y-46974550D01*
X78686519Y-47075568D01*
X78686516Y-47075572D01*
X78681204Y-47082669D01*
X78678104Y-47090978D01*
X78678104Y-47090980D01*
X78633620Y-47210247D01*
X78633619Y-47210250D01*
X78630909Y-47217517D01*
X78630079Y-47225227D01*
X78630079Y-47225232D01*
X78624855Y-47273819D01*
X78624854Y-47273831D01*
X78624500Y-47277127D01*
X78624500Y-47280448D01*
X78624500Y-47280449D01*
X78624500Y-48719560D01*
X78624500Y-48719578D01*
X78624501Y-48722872D01*
X78624853Y-48726150D01*
X78624854Y-48726161D01*
X78630079Y-48774768D01*
X78630080Y-48774773D01*
X78630909Y-48782483D01*
X78633619Y-48789749D01*
X78633620Y-48789753D01*
X78660728Y-48862433D01*
X78681204Y-48917331D01*
X78686518Y-48924430D01*
X78686519Y-48924431D01*
X78746131Y-49004063D01*
X78767454Y-49032546D01*
X78882669Y-49118796D01*
X79017517Y-49169091D01*
X79077127Y-49175500D01*
X80522872Y-49175499D01*
X80582483Y-49169091D01*
X80717331Y-49118796D01*
X80832546Y-49032546D01*
X80894785Y-48949404D01*
X80948934Y-48908215D01*
X81016666Y-48901796D01*
X81077588Y-48932078D01*
X81088568Y-48942088D01*
X81273790Y-49056772D01*
X81476931Y-49135470D01*
X81691074Y-49175500D01*
X81903197Y-49175500D01*
X81908926Y-49175500D01*
X82123069Y-49135470D01*
X82326210Y-49056772D01*
X82406353Y-49007149D01*
X82468571Y-48988616D01*
X82531631Y-49004063D01*
X82578242Y-49049259D01*
X82595625Y-49111813D01*
X82579015Y-49174577D01*
X82509800Y-49294463D01*
X82506188Y-49300719D01*
X82504117Y-49307634D01*
X82504117Y-49307636D01*
X82457941Y-49461869D01*
X82457939Y-49461877D01*
X82455870Y-49468790D01*
X82455450Y-49475996D01*
X82455449Y-49476004D01*
X82446088Y-49636725D01*
X82446088Y-49636733D01*
X82445669Y-49643935D01*
X82476135Y-49816711D01*
X82545623Y-49977804D01*
X82549936Y-49983597D01*
X82549937Y-49983599D01*
X82595620Y-50044962D01*
X82650390Y-50118530D01*
X82784786Y-50231302D01*
X82941567Y-50310040D01*
X83112279Y-50350500D01*
X83240111Y-50350500D01*
X83243709Y-50350500D01*
X83374255Y-50335241D01*
X83539117Y-50275237D01*
X83685696Y-50178830D01*
X83806092Y-50051218D01*
X83893812Y-49899281D01*
X83944130Y-49731210D01*
X83954331Y-49556065D01*
X83923865Y-49383289D01*
X83854377Y-49222196D01*
X83749610Y-49081470D01*
X83722645Y-49058844D01*
X83620745Y-48973339D01*
X83620744Y-48973338D01*
X83615214Y-48968698D01*
X83607849Y-48964999D01*
X83464883Y-48893199D01*
X83464880Y-48893198D01*
X83458433Y-48889960D01*
X83451407Y-48888294D01*
X83451405Y-48888294D01*
X83294749Y-48851165D01*
X83294743Y-48851164D01*
X83287721Y-48849500D01*
X83156291Y-48849500D01*
X83152725Y-48849916D01*
X83152721Y-48849917D01*
X83032915Y-48863920D01*
X83032907Y-48863921D01*
X83025745Y-48864759D01*
X83018967Y-48867225D01*
X83018958Y-48867228D01*
X82860883Y-48924763D01*
X82859915Y-48922104D01*
X82808924Y-48932260D01*
X82746955Y-48910347D01*
X82704892Y-48859838D01*
X82694555Y-48794927D01*
X82718846Y-48733852D01*
X82803712Y-48621472D01*
X82900817Y-48426459D01*
X82960435Y-48216923D01*
X82980536Y-48000000D01*
X82960435Y-47783077D01*
X82900817Y-47573541D01*
X82803712Y-47378528D01*
X82672427Y-47204678D01*
X82548425Y-47091635D01*
X82512698Y-47033934D01*
X82512698Y-46966066D01*
X82548425Y-46908364D01*
X82672427Y-46795322D01*
X82803712Y-46621472D01*
X82900817Y-46426459D01*
X82960435Y-46216923D01*
X82980536Y-46000000D01*
X82960435Y-45783077D01*
X82900817Y-45573541D01*
X82803712Y-45378528D01*
X82672427Y-45204678D01*
X82548425Y-45091635D01*
X82512698Y-45033934D01*
X82512698Y-44966066D01*
X82548425Y-44908364D01*
X82672427Y-44795322D01*
X82803712Y-44621472D01*
X82900817Y-44426459D01*
X82960435Y-44216923D01*
X82980536Y-44000000D01*
X82960435Y-43783077D01*
X82900817Y-43573541D01*
X82803712Y-43378528D01*
X82672427Y-43204678D01*
X82548425Y-43091635D01*
X82512698Y-43033934D01*
X82512698Y-42966066D01*
X82548425Y-42908364D01*
X82672427Y-42795322D01*
X82803712Y-42621472D01*
X82900817Y-42426459D01*
X82960435Y-42216923D01*
X82980536Y-42000000D01*
X82960435Y-41783077D01*
X82900817Y-41573541D01*
X82803712Y-41378528D01*
X82672427Y-41204678D01*
X82668190Y-41200815D01*
X82668186Y-41200811D01*
X82548426Y-41091636D01*
X82512698Y-41033933D01*
X82512698Y-40966064D01*
X82548422Y-40908366D01*
X82672427Y-40795322D01*
X82803712Y-40621472D01*
X82900817Y-40426459D01*
X82960435Y-40216923D01*
X82980536Y-40000000D01*
X82960435Y-39783077D01*
X82900817Y-39573541D01*
X82803712Y-39378528D01*
X82672427Y-39204678D01*
X82548425Y-39091635D01*
X82512698Y-39033934D01*
X82512698Y-38966066D01*
X82548425Y-38908364D01*
X82672427Y-38795322D01*
X82803712Y-38621472D01*
X82900817Y-38426459D01*
X82960435Y-38216923D01*
X82980536Y-38000000D01*
X82960435Y-37783077D01*
X82900817Y-37573541D01*
X82803712Y-37378528D01*
X82672427Y-37204678D01*
X82548425Y-37091635D01*
X82512698Y-37033934D01*
X82512698Y-36966066D01*
X82548425Y-36908364D01*
X82672427Y-36795322D01*
X82803712Y-36621472D01*
X82900817Y-36426459D01*
X82960435Y-36216923D01*
X82980536Y-36000000D01*
X82960435Y-35783077D01*
X82900817Y-35573541D01*
X82803712Y-35378528D01*
X82672427Y-35204678D01*
X82668190Y-35200815D01*
X82668186Y-35200811D01*
X82548426Y-35091636D01*
X82512698Y-35033933D01*
X82512698Y-34966064D01*
X82548422Y-34908366D01*
X82672427Y-34795322D01*
X82803712Y-34621472D01*
X82900817Y-34426459D01*
X82960435Y-34216923D01*
X82980536Y-34000000D01*
X82960435Y-33783077D01*
X82900817Y-33573541D01*
X82803712Y-33378528D01*
X82672427Y-33204678D01*
X82548425Y-33091635D01*
X82512698Y-33033934D01*
X82512698Y-32966066D01*
X82548425Y-32908364D01*
X82672427Y-32795322D01*
X82803712Y-32621472D01*
X82900817Y-32426459D01*
X82960435Y-32216923D01*
X82980536Y-32000000D01*
X82960435Y-31783077D01*
X82900817Y-31573541D01*
X82803712Y-31378528D01*
X82672427Y-31204678D01*
X82548425Y-31091635D01*
X82512698Y-31033934D01*
X82512698Y-30966066D01*
X82548425Y-30908364D01*
X82672427Y-30795322D01*
X82803712Y-30621472D01*
X82900817Y-30426459D01*
X82960435Y-30216923D01*
X82980536Y-30000000D01*
X82960435Y-29783077D01*
X82900817Y-29573541D01*
X82803712Y-29378528D01*
X82800259Y-29373955D01*
X82800255Y-29373949D01*
X82713033Y-29258448D01*
X82688739Y-29197358D01*
X82699090Y-29132435D01*
X82741177Y-29081928D01*
X82803168Y-29060036D01*
X82867638Y-29072911D01*
X82885591Y-29081928D01*
X82935113Y-29106799D01*
X82935115Y-29106799D01*
X82941567Y-29110040D01*
X83112279Y-29150500D01*
X83240111Y-29150500D01*
X83243709Y-29150500D01*
X83374255Y-29135241D01*
X83539117Y-29075237D01*
X83685696Y-28978830D01*
X83806092Y-28851218D01*
X83893812Y-28699281D01*
X83944130Y-28531210D01*
X83954331Y-28356065D01*
X83923865Y-28183289D01*
X83854377Y-28022196D01*
X83749610Y-27881470D01*
X83677747Y-27821170D01*
X83620745Y-27773339D01*
X83620744Y-27773338D01*
X83615214Y-27768698D01*
X83522810Y-27722291D01*
X83464883Y-27693199D01*
X83464880Y-27693198D01*
X83458433Y-27689960D01*
X83451407Y-27688294D01*
X83451405Y-27688294D01*
X83294749Y-27651165D01*
X83294743Y-27651164D01*
X83287721Y-27649500D01*
X83156291Y-27649500D01*
X83152725Y-27649916D01*
X83152721Y-27649917D01*
X83032915Y-27663920D01*
X83032907Y-27663921D01*
X83025745Y-27664759D01*
X83018967Y-27667225D01*
X83018958Y-27667228D01*
X82867674Y-27722291D01*
X82867671Y-27722292D01*
X82860883Y-27724763D01*
X82854850Y-27728730D01*
X82854842Y-27728735D01*
X82720340Y-27817199D01*
X82720334Y-27817203D01*
X82714304Y-27821170D01*
X82709351Y-27826419D01*
X82709346Y-27826424D01*
X82598865Y-27943527D01*
X82598861Y-27943531D01*
X82593908Y-27948782D01*
X82590299Y-27955032D01*
X82590296Y-27955037D01*
X82509799Y-28094463D01*
X82509796Y-28094468D01*
X82506188Y-28100719D01*
X82504117Y-28107634D01*
X82504117Y-28107636D01*
X82457941Y-28261869D01*
X82457939Y-28261877D01*
X82455870Y-28268790D01*
X82455450Y-28275996D01*
X82455449Y-28276004D01*
X82446088Y-28436725D01*
X82446088Y-28436733D01*
X82445669Y-28443935D01*
X82476135Y-28616711D01*
X82545623Y-28777804D01*
X82549936Y-28783597D01*
X82549937Y-28783599D01*
X82572970Y-28814537D01*
X82597039Y-28877819D01*
X82584280Y-28944311D01*
X82538496Y-28994190D01*
X82473338Y-29012585D01*
X82408230Y-28994012D01*
X82331086Y-28946247D01*
X82331085Y-28946246D01*
X82326210Y-28943228D01*
X82320863Y-28941156D01*
X82320860Y-28941155D01*
X82158107Y-28878104D01*
X82123069Y-28864530D01*
X82117443Y-28863478D01*
X82117435Y-28863476D01*
X81914555Y-28825552D01*
X81914552Y-28825551D01*
X81908926Y-28824500D01*
X81691074Y-28824500D01*
X81685448Y-28825551D01*
X81685444Y-28825552D01*
X81482564Y-28863476D01*
X81482553Y-28863478D01*
X81476931Y-28864530D01*
X81471584Y-28866601D01*
X81471582Y-28866602D01*
X81279139Y-28941155D01*
X81279132Y-28941158D01*
X81273790Y-28943228D01*
X81268918Y-28946244D01*
X81268913Y-28946247D01*
X81093439Y-29054895D01*
X81093431Y-29054900D01*
X81088568Y-29057912D01*
X81084337Y-29061768D01*
X81084333Y-29061772D01*
X80931813Y-29200812D01*
X80931809Y-29200816D01*
X80927573Y-29204678D01*
X80924120Y-29209249D01*
X80924114Y-29209257D01*
X80898953Y-29242576D01*
X80855271Y-29278848D01*
X80800000Y-29291848D01*
X80744729Y-29278848D01*
X80701047Y-29242576D01*
X80675885Y-29209257D01*
X80675883Y-29209255D01*
X80672427Y-29204678D01*
X80511432Y-29057912D01*
X80506562Y-29054897D01*
X80506560Y-29054895D01*
X80331086Y-28946247D01*
X80331085Y-28946246D01*
X80326210Y-28943228D01*
X80320863Y-28941156D01*
X80320860Y-28941155D01*
X80158107Y-28878104D01*
X80123069Y-28864530D01*
X80117443Y-28863478D01*
X80117435Y-28863476D01*
X79914555Y-28825552D01*
X79914552Y-28825551D01*
X79908926Y-28824500D01*
X79691074Y-28824500D01*
X79685448Y-28825551D01*
X79685444Y-28825552D01*
X79482564Y-28863476D01*
X79482553Y-28863478D01*
X79476931Y-28864530D01*
X79471584Y-28866601D01*
X79471582Y-28866602D01*
X79279139Y-28941155D01*
X79279132Y-28941158D01*
X79273790Y-28943228D01*
X79268918Y-28946244D01*
X79268913Y-28946247D01*
X79093439Y-29054895D01*
X79093431Y-29054900D01*
X79088568Y-29057912D01*
X79084337Y-29061768D01*
X79084333Y-29061772D01*
X78931813Y-29200812D01*
X78931809Y-29200816D01*
X78927573Y-29204678D01*
X78924119Y-29209251D01*
X78924116Y-29209255D01*
X78799741Y-29373955D01*
X78799739Y-29373957D01*
X78796288Y-29378528D01*
X78793738Y-29383648D01*
X78793733Y-29383657D01*
X78701737Y-29568410D01*
X78701733Y-29568418D01*
X78699183Y-29573541D01*
X78639565Y-29783077D01*
X78619464Y-30000000D01*
X78639565Y-30216923D01*
X78641131Y-30222427D01*
X78642187Y-30228076D01*
X78640602Y-30228372D01*
X78641254Y-30285344D01*
X78608919Y-30341844D01*
X77987584Y-30963181D01*
X77947356Y-30990061D01*
X77899903Y-30999500D01*
X41900097Y-30999500D01*
X41852644Y-30990061D01*
X41812416Y-30963181D01*
X41211818Y-30362583D01*
X41184938Y-30322355D01*
X41175499Y-30274902D01*
X41175499Y-29280439D01*
X41175499Y-29277128D01*
X41169091Y-29217517D01*
X41118796Y-29082669D01*
X41032546Y-28967454D01*
X40917331Y-28881204D01*
X40782483Y-28830909D01*
X40774770Y-28830079D01*
X40774767Y-28830079D01*
X40726180Y-28824855D01*
X40726169Y-28824854D01*
X40722873Y-28824500D01*
X40719550Y-28824500D01*
X39280439Y-28824500D01*
X39280420Y-28824500D01*
X39277128Y-28824501D01*
X39273850Y-28824853D01*
X39273838Y-28824854D01*
X39225231Y-28830079D01*
X39225225Y-28830080D01*
X39217517Y-28830909D01*
X39210252Y-28833618D01*
X39210246Y-28833620D01*
X39090980Y-28878104D01*
X39090978Y-28878104D01*
X39082669Y-28881204D01*
X39075572Y-28886516D01*
X39075568Y-28886519D01*
X38974550Y-28962141D01*
X38974546Y-28962144D01*
X38967454Y-28967454D01*
X38962144Y-28974546D01*
X38962137Y-28974554D01*
X38905214Y-29050594D01*
X38851064Y-29091784D01*
X38783332Y-29098203D01*
X38722409Y-29067919D01*
X38711432Y-29057912D01*
X38706562Y-29054897D01*
X38706560Y-29054895D01*
X38531086Y-28946247D01*
X38531085Y-28946246D01*
X38526210Y-28943228D01*
X38520863Y-28941156D01*
X38520860Y-28941155D01*
X38358107Y-28878104D01*
X38323069Y-28864530D01*
X38317443Y-28863478D01*
X38317435Y-28863476D01*
X38114555Y-28825552D01*
X38114552Y-28825551D01*
X38108926Y-28824500D01*
X37891074Y-28824500D01*
X37885448Y-28825551D01*
X37885444Y-28825552D01*
X37682564Y-28863476D01*
X37682553Y-28863478D01*
X37676931Y-28864530D01*
X37671584Y-28866601D01*
X37671582Y-28866602D01*
X37479139Y-28941155D01*
X37479132Y-28941158D01*
X37473790Y-28943228D01*
X37468914Y-28946246D01*
X37468916Y-28946246D01*
X37393648Y-28992849D01*
X37331426Y-29011383D01*
X37268366Y-28995935D01*
X37221757Y-28950739D01*
X37204374Y-28888185D01*
X37220984Y-28825423D01*
X37293812Y-28699281D01*
X37344130Y-28531210D01*
X37354331Y-28356065D01*
X37323865Y-28183289D01*
X37254377Y-28022196D01*
X37149610Y-27881470D01*
X37077747Y-27821170D01*
X37020745Y-27773339D01*
X37020744Y-27773338D01*
X37015214Y-27768698D01*
X36922810Y-27722291D01*
X36864883Y-27693199D01*
X36864880Y-27693198D01*
X36858433Y-27689960D01*
X36851407Y-27688294D01*
X36851405Y-27688294D01*
X36694749Y-27651165D01*
X36694743Y-27651164D01*
X36687721Y-27649500D01*
X36556291Y-27649500D01*
X36552725Y-27649916D01*
X36552721Y-27649917D01*
X36432915Y-27663920D01*
X36432907Y-27663921D01*
X36425745Y-27664759D01*
X36418967Y-27667225D01*
X36418958Y-27667228D01*
X36267674Y-27722291D01*
X36267671Y-27722292D01*
X36260883Y-27724763D01*
X36254850Y-27728730D01*
X36254842Y-27728735D01*
X36120340Y-27817199D01*
X36120334Y-27817203D01*
X36114304Y-27821170D01*
X36109351Y-27826419D01*
X36109346Y-27826424D01*
X35998865Y-27943527D01*
X35998861Y-27943531D01*
X35993908Y-27948782D01*
X35990299Y-27955032D01*
X35990296Y-27955037D01*
X35909799Y-28094463D01*
X35909796Y-28094468D01*
X35906188Y-28100719D01*
X35904117Y-28107634D01*
X35904117Y-28107636D01*
X35857941Y-28261869D01*
X35857939Y-28261877D01*
X35855870Y-28268790D01*
X35855450Y-28275996D01*
X35855449Y-28276004D01*
X35846088Y-28436725D01*
X35846088Y-28436733D01*
X35845669Y-28443935D01*
X35876135Y-28616711D01*
X35945623Y-28777804D01*
X35949936Y-28783597D01*
X35949937Y-28783599D01*
X35995620Y-28844962D01*
X36050390Y-28918530D01*
X36184786Y-29031302D01*
X36341567Y-29110040D01*
X36512279Y-29150500D01*
X36640111Y-29150500D01*
X36643709Y-29150500D01*
X36774255Y-29135241D01*
X36939117Y-29075237D01*
X36940097Y-29077929D01*
X36990898Y-29067727D01*
X37052934Y-29089576D01*
X37095070Y-29140079D01*
X37105449Y-29205027D01*
X37081153Y-29266147D01*
X36999740Y-29373956D01*
X36999737Y-29373960D01*
X36996288Y-29378528D01*
X36993738Y-29383648D01*
X36993733Y-29383657D01*
X36901737Y-29568410D01*
X36901733Y-29568418D01*
X36899183Y-29573541D01*
X36839565Y-29783077D01*
X36819464Y-30000000D01*
X36839565Y-30216923D01*
X36899183Y-30426459D01*
X36901735Y-30431585D01*
X36901737Y-30431589D01*
X36993733Y-30616342D01*
X36993735Y-30616346D01*
X36996288Y-30621472D01*
X37127573Y-30795322D01*
X37131809Y-30799183D01*
X37131813Y-30799188D01*
X37251573Y-30908363D01*
X37287301Y-30966066D01*
X37287301Y-31033934D01*
X37251573Y-31091637D01*
X37131813Y-31200811D01*
X37131803Y-31200821D01*
X37127573Y-31204678D01*
X37124119Y-31209251D01*
X37124116Y-31209255D01*
X37061745Y-31291848D01*
X36996288Y-31378528D01*
X36993738Y-31383648D01*
X36993733Y-31383657D01*
X36901737Y-31568410D01*
X36901733Y-31568418D01*
X36899183Y-31573541D01*
X36839565Y-31783077D01*
X36819464Y-32000000D01*
X36839565Y-32216923D01*
X36899183Y-32426459D01*
X36901735Y-32431585D01*
X36901737Y-32431589D01*
X36993733Y-32616342D01*
X36993735Y-32616346D01*
X36996288Y-32621472D01*
X37127573Y-32795322D01*
X37131809Y-32799183D01*
X37131813Y-32799188D01*
X37251573Y-32908363D01*
X37287301Y-32966066D01*
X37287301Y-33033934D01*
X37251573Y-33091637D01*
X37131813Y-33200811D01*
X37131803Y-33200821D01*
X37127573Y-33204678D01*
X37124119Y-33209251D01*
X37124116Y-33209255D01*
X36999741Y-33373955D01*
X36996288Y-33378528D01*
X36993738Y-33383648D01*
X36993733Y-33383657D01*
X36901737Y-33568410D01*
X36901733Y-33568418D01*
X36899183Y-33573541D01*
X36897614Y-33579053D01*
X36897614Y-33579055D01*
X36859030Y-33714666D01*
X36839565Y-33783077D01*
X36819464Y-34000000D01*
X36839565Y-34216923D01*
X36899183Y-34426459D01*
X36901735Y-34431585D01*
X36901737Y-34431589D01*
X36993733Y-34616342D01*
X36993735Y-34616346D01*
X36996288Y-34621472D01*
X37127573Y-34795322D01*
X37251573Y-34908363D01*
X37287301Y-34966064D01*
X37287302Y-35033933D01*
X37251573Y-35091636D01*
X37127573Y-35204678D01*
X37124119Y-35209251D01*
X37124116Y-35209255D01*
X37054374Y-35301609D01*
X36996288Y-35378528D01*
X36993738Y-35383648D01*
X36993733Y-35383657D01*
X36901737Y-35568410D01*
X36901733Y-35568418D01*
X36899183Y-35573541D01*
X36839565Y-35783077D01*
X36819464Y-36000000D01*
X36839565Y-36216923D01*
X36899183Y-36426459D01*
X36901735Y-36431585D01*
X36901737Y-36431589D01*
X36993733Y-36616342D01*
X36993735Y-36616346D01*
X36996288Y-36621472D01*
X37127573Y-36795322D01*
X37251573Y-36908363D01*
X37287301Y-36966064D01*
X37287302Y-37033933D01*
X37251573Y-37091636D01*
X37127573Y-37204678D01*
X37124119Y-37209251D01*
X37124116Y-37209255D01*
X37109544Y-37228552D01*
X36996288Y-37378528D01*
X36993738Y-37383648D01*
X36993733Y-37383657D01*
X36901737Y-37568410D01*
X36901733Y-37568418D01*
X36899183Y-37573541D01*
X36839565Y-37783077D01*
X36819464Y-38000000D01*
X36839565Y-38216923D01*
X36899183Y-38426459D01*
X36901735Y-38431585D01*
X36901737Y-38431589D01*
X36993733Y-38616342D01*
X36993735Y-38616346D01*
X36996288Y-38621472D01*
X37127573Y-38795322D01*
X37131809Y-38799183D01*
X37131813Y-38799188D01*
X37251573Y-38908363D01*
X37287301Y-38966066D01*
X37287301Y-39033934D01*
X37251573Y-39091637D01*
X37131813Y-39200811D01*
X37131803Y-39200821D01*
X37127573Y-39204678D01*
X37124119Y-39209251D01*
X37124116Y-39209255D01*
X36999741Y-39373955D01*
X36996288Y-39378528D01*
X36993738Y-39383648D01*
X36993733Y-39383657D01*
X36901737Y-39568410D01*
X36901733Y-39568418D01*
X36899183Y-39573541D01*
X36897614Y-39579053D01*
X36897614Y-39579055D01*
X36891513Y-39600500D01*
X36839565Y-39783077D01*
X36839036Y-39788782D01*
X36839036Y-39788784D01*
X36831346Y-39871771D01*
X36819464Y-40000000D01*
X36839565Y-40216923D01*
X36899183Y-40426459D01*
X36901735Y-40431585D01*
X36901737Y-40431589D01*
X36993733Y-40616342D01*
X36993735Y-40616346D01*
X36996288Y-40621472D01*
X37127573Y-40795322D01*
X37251573Y-40908363D01*
X37287301Y-40966064D01*
X37287302Y-41033933D01*
X37251573Y-41091636D01*
X37127573Y-41204678D01*
X37124119Y-41209251D01*
X37124116Y-41209255D01*
X37000032Y-41373570D01*
X36996288Y-41378528D01*
X36993738Y-41383648D01*
X36993733Y-41383657D01*
X36901737Y-41568410D01*
X36901733Y-41568418D01*
X36899183Y-41573541D01*
X36897614Y-41579053D01*
X36897614Y-41579055D01*
X36879555Y-41642528D01*
X36839565Y-41783077D01*
X36839036Y-41788782D01*
X36839036Y-41788784D01*
X36837367Y-41806800D01*
X36819464Y-42000000D01*
X36819993Y-42005709D01*
X36835164Y-42169435D01*
X36839565Y-42216923D01*
X36899183Y-42426459D01*
X36901735Y-42431585D01*
X36901737Y-42431589D01*
X36993733Y-42616342D01*
X36993735Y-42616346D01*
X36996288Y-42621472D01*
X37127573Y-42795322D01*
X37251573Y-42908363D01*
X37287301Y-42966064D01*
X37287302Y-43033933D01*
X37251573Y-43091636D01*
X37127573Y-43204678D01*
X37124119Y-43209251D01*
X37124116Y-43209255D01*
X37003878Y-43368477D01*
X36996288Y-43378528D01*
X36993738Y-43383648D01*
X36993733Y-43383657D01*
X36901737Y-43568410D01*
X36901733Y-43568418D01*
X36899183Y-43573541D01*
X36897614Y-43579053D01*
X36897614Y-43579055D01*
X36843600Y-43768897D01*
X36839565Y-43783077D01*
X36839036Y-43788782D01*
X36839036Y-43788784D01*
X36827733Y-43910760D01*
X36819464Y-44000000D01*
X36819993Y-44005709D01*
X36838111Y-44201238D01*
X36839565Y-44216923D01*
X36899183Y-44426459D01*
X36901735Y-44431585D01*
X36901737Y-44431589D01*
X36993733Y-44616342D01*
X36993735Y-44616346D01*
X36996288Y-44621472D01*
X37127573Y-44795322D01*
X37131809Y-44799183D01*
X37131813Y-44799188D01*
X37251573Y-44908363D01*
X37287301Y-44966066D01*
X37287301Y-45033934D01*
X37251573Y-45091637D01*
X37131813Y-45200811D01*
X37131803Y-45200821D01*
X37127573Y-45204678D01*
X37124119Y-45209251D01*
X37124116Y-45209255D01*
X36999741Y-45373955D01*
X36996288Y-45378528D01*
X36993738Y-45383648D01*
X36993733Y-45383657D01*
X36901737Y-45568410D01*
X36901733Y-45568418D01*
X36899183Y-45573541D01*
X36839565Y-45783077D01*
X36819464Y-46000000D01*
X36839565Y-46216923D01*
X36899183Y-46426459D01*
X36901735Y-46431585D01*
X36901737Y-46431589D01*
X36993733Y-46616342D01*
X36993735Y-46616346D01*
X36996288Y-46621472D01*
X37127573Y-46795322D01*
X37131809Y-46799183D01*
X37131813Y-46799188D01*
X37251573Y-46908363D01*
X37287301Y-46966066D01*
X37287301Y-47033934D01*
X37251573Y-47091637D01*
X37131813Y-47200811D01*
X37131803Y-47200821D01*
X37127573Y-47204678D01*
X37124119Y-47209251D01*
X37124116Y-47209255D01*
X37061745Y-47291848D01*
X36996288Y-47378528D01*
X36993738Y-47383648D01*
X36993733Y-47383657D01*
X36901737Y-47568410D01*
X36901733Y-47568418D01*
X36899183Y-47573541D01*
X36839565Y-47783077D01*
X36819464Y-48000000D01*
X36839565Y-48216923D01*
X36899183Y-48426459D01*
X36901735Y-48431585D01*
X36901737Y-48431589D01*
X36993733Y-48616342D01*
X36993735Y-48616346D01*
X36996288Y-48621472D01*
X36999738Y-48626041D01*
X36999744Y-48626050D01*
X37086966Y-48741551D01*
X37111260Y-48802641D01*
X37100909Y-48867564D01*
X37058822Y-48918071D01*
X36996831Y-48939963D01*
X36932361Y-48927087D01*
X36864890Y-48893202D01*
X36864884Y-48893199D01*
X36858433Y-48889960D01*
X36851407Y-48888294D01*
X36851405Y-48888294D01*
X36694749Y-48851165D01*
X36694743Y-48851164D01*
X36687721Y-48849500D01*
X36556291Y-48849500D01*
X36552725Y-48849916D01*
X36552721Y-48849917D01*
X36432915Y-48863920D01*
X36432907Y-48863921D01*
X36425745Y-48864759D01*
X36418967Y-48867225D01*
X36418958Y-48867228D01*
X36267674Y-48922291D01*
X36267671Y-48922292D01*
X36260883Y-48924763D01*
X36254850Y-48928730D01*
X36254842Y-48928735D01*
X36120340Y-49017199D01*
X36120334Y-49017203D01*
X36114304Y-49021170D01*
X36109351Y-49026419D01*
X36109346Y-49026424D01*
X35998865Y-49143527D01*
X35998861Y-49143531D01*
X35993908Y-49148782D01*
X35990299Y-49155032D01*
X35990296Y-49155037D01*
X35909799Y-49294463D01*
X35909798Y-49294466D01*
X35906188Y-49300719D01*
X35904117Y-49307634D01*
X35904117Y-49307636D01*
X35857941Y-49461869D01*
X35857939Y-49461877D01*
X35855870Y-49468790D01*
X35855450Y-49475996D01*
X35855449Y-49476004D01*
X35846088Y-49636725D01*
X35846088Y-49636733D01*
X35845669Y-49643935D01*
X27500500Y-49643935D01*
X27500500Y-27606092D01*
X27501097Y-27593939D01*
X27509805Y-27505519D01*
X27514665Y-27456173D01*
X27519403Y-27432349D01*
X27557816Y-27305719D01*
X27567113Y-27283278D01*
X27629485Y-27166587D01*
X27642982Y-27146387D01*
X27726924Y-27044103D01*
X27744103Y-27026924D01*
X27846387Y-26942982D01*
X27866587Y-26929485D01*
X27983278Y-26867113D01*
X28005719Y-26857816D01*
X28132349Y-26819403D01*
X28156173Y-26814665D01*
X28285170Y-26801960D01*
X28293939Y-26801097D01*
X28306092Y-26800500D01*
X28339882Y-26800500D01*
X91460118Y-26800500D01*
X91493908Y-26800500D01*
X91506061Y-26801097D01*
G37*
%TD.AperFunction*%
M02*
