M48
; DRILL file {KiCad (7.0.0)} date Tue Mar 14 17:45:09 2023
; FORMAT={-:-/ absolute / metric / decimal}
; #@! TF.CreationDate,2023-03-14T17:45:09+00:00
; #@! TF.GenerationSoftware,Kicad,Pcbnew,(7.0.0)
; #@! TF.FileFunction,Plated,1,4,PTH
FMAT,2
METRIC
; #@! TA.AperFunction,Plated,PTH,ViaDrill
T1C0.400
; #@! TA.AperFunction,Plated,PTH,ComponentDrill
T2C0.800
; #@! TA.AperFunction,Plated,PTH,ComponentDrill
T3C1.000
%
G90
G05
T1
X30.0Y-29.0
X30.0Y-34.2
X30.0Y-39.0
X30.0Y-44.0
X30.5Y-66.4
X30.5Y-67.7
X30.5Y-69.0
X31.7Y-69.9
X32.9Y-67.7
X32.9Y-69.0
X36.0Y-55.0
X36.4Y-63.1
X36.4Y-68.7
X37.4Y-63.1
X37.4Y-68.7
X38.9Y-66.124
X40.75Y-65.876
X41.7Y-69.6
X42.4Y-67.7
X43.7Y-63.7
X43.9Y-69.6
X44.0Y-29.0
X44.0Y-46.0
X44.8Y-68.2
X44.825Y-67.2
X45.0Y-58.2
X45.0Y-62.6
X45.0Y-63.7
X46.3Y-58.2
X46.3Y-62.6
X46.3Y-63.7
X47.0Y-55.0
X47.021Y-41.975
X47.021Y-43.025
X48.2Y-49.7
X49.3Y-54.9
X49.5Y-66.4
X49.5Y-67.5
X49.8Y-68.5
X49.8Y-69.7
X50.0Y-58.9
X50.8Y-68.5
X50.8Y-69.7
X51.0Y-63.9
X51.4Y-67.7
X51.9Y-62.3
X52.2Y-59.5
X54.3Y-52.4
X54.5Y-69.2
X55.0Y-70.0
X55.5Y-64.6
X56.0Y-62.3
X57.4Y-54.2
X59.0Y-46.0
X59.8Y-69.799
X60.2Y-58.5
X60.5Y-66.9
X60.6Y-64.0
X60.6Y-65.6
X60.9Y-51.8
X64.0Y-53.6
X64.0Y-57.7
X64.279Y-41.975
X64.279Y-43.025
X66.2Y-51.1
X67.6Y-59.5
X68.8Y-64.3
X68.8Y-65.8
X69.0Y-29.0
X69.0Y-46.0
X69.3Y-56.3
X69.5Y-70.0
X74.3Y-56.6
X81.0Y-29.0
X81.0Y-34.0
X81.0Y-39.0
X81.0Y-44.0
X81.0Y-49.0
X81.0Y-54.0
X81.0Y-59.0
X81.0Y-70.0
T2
X38.0Y-30.0
X38.0Y-32.0
X38.0Y-34.0
X38.0Y-36.0
X38.0Y-38.0
X38.0Y-40.0
X38.0Y-42.0
X38.0Y-44.0
X38.0Y-46.0
X38.0Y-48.0
X40.0Y-30.0
X40.0Y-32.0
X40.0Y-34.0
X40.0Y-36.0
X40.0Y-38.0
X40.0Y-40.0
X40.0Y-42.0
X40.0Y-44.0
X40.0Y-46.0
X40.0Y-48.0
X71.3Y-30.0
X71.3Y-32.0
X71.3Y-34.0
X71.3Y-36.0
X71.3Y-38.0
X71.3Y-40.0
X71.3Y-42.0
X71.3Y-44.0
X71.3Y-46.0
X71.3Y-48.0
X73.3Y-30.0
X73.3Y-32.0
X73.3Y-34.0
X73.3Y-36.0
X73.3Y-38.0
X73.3Y-40.0
X73.3Y-42.0
X73.3Y-44.0
X73.3Y-46.0
X73.3Y-48.0
T3
X76.06Y-62.02
X76.06Y-64.56
X76.06Y-67.1
X78.6Y-62.02
X78.6Y-64.56
X78.6Y-67.1
T0
M30
