%TF.GenerationSoftware,KiCad,Pcbnew,(7.0.0)*%
%TF.CreationDate,2023-03-13T22:20:03+00:00*%
%TF.ProjectId,main,6d61696e-2e6b-4696-9361-645f70636258,1.0*%
%TF.SameCoordinates,Original*%
%TF.FileFunction,Soldermask,Top*%
%TF.FilePolarity,Negative*%
%FSLAX46Y46*%
G04 Gerber Fmt 4.6, Leading zero omitted, Abs format (unit mm)*
G04 Created by KiCad (PCBNEW (7.0.0)) date 2023-03-13 22:20:03*
%MOMM*%
%LPD*%
G01*
G04 APERTURE LIST*
G04 Aperture macros list*
%AMRoundRect*
0 Rectangle with rounded corners*
0 $1 Rounding radius*
0 $2 $3 $4 $5 $6 $7 $8 $9 X,Y pos of 4 corners*
0 Add a 4 corners polygon primitive as box body*
4,1,4,$2,$3,$4,$5,$6,$7,$8,$9,$2,$3,0*
0 Add four circle primitives for the rounded corners*
1,1,$1+$1,$2,$3*
1,1,$1+$1,$4,$5*
1,1,$1+$1,$6,$7*
1,1,$1+$1,$8,$9*
0 Add four rect primitives between the rounded corners*
20,1,$1+$1,$2,$3,$4,$5,0*
20,1,$1+$1,$4,$5,$6,$7,0*
20,1,$1+$1,$6,$7,$8,$9,0*
20,1,$1+$1,$8,$9,$2,$3,0*%
G04 Aperture macros list end*
%ADD10O,1.350000X1.350000*%
%ADD11R,1.350000X1.350000*%
%ADD12C,1.100000*%
%ADD13RoundRect,0.140000X0.140000X0.170000X-0.140000X0.170000X-0.140000X-0.170000X0.140000X-0.170000X0*%
%ADD14RoundRect,0.135000X0.135000X0.185000X-0.135000X0.185000X-0.135000X-0.185000X0.135000X-0.185000X0*%
%ADD15RoundRect,0.075000X-0.662500X-0.075000X0.662500X-0.075000X0.662500X0.075000X-0.662500X0.075000X0*%
%ADD16RoundRect,0.075000X-0.075000X-0.662500X0.075000X-0.662500X0.075000X0.662500X-0.075000X0.662500X0*%
%ADD17RoundRect,0.250000X-0.250000X-0.475000X0.250000X-0.475000X0.250000X0.475000X-0.250000X0.475000X0*%
%ADD18RoundRect,0.150000X0.150000X-0.512500X0.150000X0.512500X-0.150000X0.512500X-0.150000X-0.512500X0*%
%ADD19RoundRect,0.250000X-0.650000X0.325000X-0.650000X-0.325000X0.650000X-0.325000X0.650000X0.325000X0*%
%ADD20RoundRect,0.140000X-0.140000X-0.170000X0.140000X-0.170000X0.140000X0.170000X-0.140000X0.170000X0*%
%ADD21RoundRect,0.250000X-1.500000X-0.550000X1.500000X-0.550000X1.500000X0.550000X-1.500000X0.550000X0*%
%ADD22RoundRect,0.135000X-0.185000X0.135000X-0.185000X-0.135000X0.185000X-0.135000X0.185000X0.135000X0*%
%ADD23R,1.700000X1.700000*%
%ADD24O,1.700000X1.700000*%
%ADD25R,1.200000X1.400000*%
%ADD26RoundRect,0.135000X0.185000X-0.135000X0.185000X0.135000X-0.185000X0.135000X-0.185000X-0.135000X0*%
%ADD27RoundRect,0.140000X0.170000X-0.140000X0.170000X0.140000X-0.170000X0.140000X-0.170000X-0.140000X0*%
%ADD28RoundRect,0.135000X-0.135000X-0.185000X0.135000X-0.185000X0.135000X0.185000X-0.135000X0.185000X0*%
%ADD29R,2.350000X3.500000*%
%ADD30RoundRect,0.140000X-0.170000X0.140000X-0.170000X-0.140000X0.170000X-0.140000X0.170000X0.140000X0*%
%ADD31RoundRect,0.225000X0.225000X0.250000X-0.225000X0.250000X-0.225000X-0.250000X0.225000X-0.250000X0*%
%ADD32RoundRect,0.150000X0.825000X0.150000X-0.825000X0.150000X-0.825000X-0.150000X0.825000X-0.150000X0*%
%ADD33RoundRect,0.250000X-0.312500X-0.625000X0.312500X-0.625000X0.312500X0.625000X-0.312500X0.625000X0*%
%ADD34RoundRect,0.150000X-0.825000X-0.150000X0.825000X-0.150000X0.825000X0.150000X-0.825000X0.150000X0*%
%ADD35RoundRect,0.218750X0.256250X-0.218750X0.256250X0.218750X-0.256250X0.218750X-0.256250X-0.218750X0*%
%ADD36RoundRect,0.218750X0.218750X0.256250X-0.218750X0.256250X-0.218750X-0.256250X0.218750X-0.256250X0*%
%ADD37C,2.082800*%
%ADD38C,2.200000*%
%ADD39RoundRect,0.218750X-0.256250X0.218750X-0.256250X-0.218750X0.256250X-0.218750X0.256250X0.218750X0*%
%ADD40R,1.050000X0.650000*%
%ADD41RoundRect,0.250000X0.650000X-0.325000X0.650000X0.325000X-0.650000X0.325000X-0.650000X-0.325000X0*%
%ADD42RoundRect,0.150000X-0.150000X0.512500X-0.150000X-0.512500X0.150000X-0.512500X0.150000X0.512500X0*%
%ADD43RoundRect,0.250000X0.325000X0.650000X-0.325000X0.650000X-0.325000X-0.650000X0.325000X-0.650000X0*%
G04 APERTURE END LIST*
D10*
X81799999Y-29999999D03*
X81799999Y-31999999D03*
X81799999Y-33999999D03*
X81799999Y-35999999D03*
X81799999Y-37999999D03*
X81799999Y-39999999D03*
X81799999Y-41999999D03*
X81799999Y-43999999D03*
X81799999Y-45999999D03*
X81799999Y-47999999D03*
X79799999Y-29999999D03*
X79799999Y-31999999D03*
X79799999Y-33999999D03*
X79799999Y-35999999D03*
X79799999Y-37999999D03*
X79799999Y-39999999D03*
X79799999Y-41999999D03*
X79799999Y-43999999D03*
X79799999Y-45999999D03*
D11*
X79799999Y-47999999D03*
D12*
X83200000Y-28400000D03*
X83200000Y-49600000D03*
X77300000Y-49300000D03*
D10*
X37999999Y-47999999D03*
X37999999Y-45999999D03*
X37999999Y-43999999D03*
X37999999Y-41999999D03*
X37999999Y-39999999D03*
X37999999Y-37999999D03*
X37999999Y-35999999D03*
X37999999Y-33999999D03*
X37999999Y-31999999D03*
X37999999Y-29999999D03*
X39999999Y-47999999D03*
X39999999Y-45999999D03*
X39999999Y-43999999D03*
X39999999Y-41999999D03*
X39999999Y-39999999D03*
X39999999Y-37999999D03*
X39999999Y-35999999D03*
X39999999Y-33999999D03*
X39999999Y-31999999D03*
D11*
X39999999Y-29999999D03*
D12*
X36600000Y-49600000D03*
X36600000Y-28400000D03*
X42500000Y-28700000D03*
D13*
X65380000Y-70200000D03*
X64420000Y-70200000D03*
D14*
X46110000Y-43000000D03*
X45090000Y-43000000D03*
D15*
X67737500Y-62350000D03*
X67737500Y-62850000D03*
X67737500Y-63350000D03*
X67737500Y-63850000D03*
X67737500Y-64350000D03*
X67737500Y-64850000D03*
X67737500Y-65350000D03*
X67737500Y-65850000D03*
X67737500Y-66350000D03*
X67737500Y-66850000D03*
X67737500Y-67350000D03*
X67737500Y-67850000D03*
D16*
X69150000Y-69262500D03*
X69650000Y-69262500D03*
X70150000Y-69262500D03*
X70650000Y-69262500D03*
X71150000Y-69262500D03*
X71650000Y-69262500D03*
X72150000Y-69262500D03*
X72650000Y-69262500D03*
X73150000Y-69262500D03*
X73650000Y-69262500D03*
X74150000Y-69262500D03*
X74650000Y-69262500D03*
D15*
X76062500Y-67850000D03*
X76062500Y-67350000D03*
X76062500Y-66850000D03*
X76062500Y-66350000D03*
X76062500Y-65850000D03*
X76062500Y-65350000D03*
X76062500Y-64850000D03*
X76062500Y-64350000D03*
X76062500Y-63850000D03*
X76062500Y-63350000D03*
X76062500Y-62850000D03*
X76062500Y-62350000D03*
D16*
X74650000Y-60937500D03*
X74150000Y-60937500D03*
X73650000Y-60937500D03*
X73150000Y-60937500D03*
X72650000Y-60937500D03*
X72150000Y-60937500D03*
X71650000Y-60937500D03*
X71150000Y-60937500D03*
X70650000Y-60937500D03*
X70150000Y-60937500D03*
X69650000Y-60937500D03*
X69150000Y-60937500D03*
D14*
X74710000Y-40000000D03*
X73690000Y-40000000D03*
X74710000Y-41000000D03*
X73690000Y-41000000D03*
D17*
X58150000Y-62700000D03*
X60050000Y-62700000D03*
D14*
X52710000Y-69100000D03*
X51690000Y-69100000D03*
X46110000Y-41000000D03*
X45090000Y-41000000D03*
D18*
X58150000Y-66937500D03*
X60050000Y-66937500D03*
X59100000Y-64662500D03*
D19*
X46300000Y-66725000D03*
X46300000Y-69675000D03*
D20*
X65220000Y-62300000D03*
X66180000Y-62300000D03*
D21*
X46000000Y-52900000D03*
X51400000Y-52900000D03*
D14*
X46110000Y-40000000D03*
X45090000Y-40000000D03*
D22*
X72500000Y-58490000D03*
X72500000Y-59510000D03*
D23*
X84559999Y-62019999D03*
D24*
X87099999Y-62019999D03*
X84559999Y-64559999D03*
X87099999Y-64559999D03*
X84559999Y-67099999D03*
X87099999Y-67099999D03*
D13*
X58380000Y-49700000D03*
X57420000Y-49700000D03*
D14*
X48910000Y-69600000D03*
X47890000Y-69600000D03*
D22*
X74100000Y-56290000D03*
X74100000Y-57310000D03*
D25*
X64049999Y-66599999D03*
X64049999Y-68799999D03*
X65749999Y-68799999D03*
X65749999Y-66599999D03*
D26*
X69500000Y-59510000D03*
X69500000Y-58490000D03*
D19*
X55350000Y-64775000D03*
X55350000Y-67725000D03*
D14*
X46110000Y-42000000D03*
X45090000Y-42000000D03*
D27*
X69400000Y-53480000D03*
X69400000Y-52520000D03*
D14*
X46810000Y-60800000D03*
X45790000Y-60800000D03*
D28*
X59190000Y-56300000D03*
X60210000Y-56300000D03*
X49790000Y-68550000D03*
X50810000Y-68550000D03*
D14*
X74710000Y-42000000D03*
X73690000Y-42000000D03*
D13*
X65780000Y-64800000D03*
X64820000Y-64800000D03*
D29*
X48874999Y-60399999D03*
X54924999Y-60399999D03*
D30*
X67500000Y-68820000D03*
X67500000Y-69780000D03*
D22*
X77900000Y-51590000D03*
X77900000Y-52610000D03*
D31*
X65775000Y-63600000D03*
X64225000Y-63600000D03*
D27*
X51400000Y-66430000D03*
X51400000Y-65470000D03*
D13*
X52680000Y-70100000D03*
X51720000Y-70100000D03*
D32*
X64175000Y-54905000D03*
X64175000Y-53635000D03*
X64175000Y-52365000D03*
X64175000Y-51095000D03*
X59225000Y-51095000D03*
X59225000Y-52365000D03*
X59225000Y-53635000D03*
X59225000Y-54905000D03*
D33*
X69837500Y-45300000D03*
X72762500Y-45300000D03*
D19*
X53050000Y-64775000D03*
X53050000Y-67725000D03*
D34*
X71125000Y-51095000D03*
X71125000Y-52365000D03*
X71125000Y-53635000D03*
X71125000Y-54905000D03*
X76075000Y-54905000D03*
X76075000Y-53635000D03*
X76075000Y-52365000D03*
X76075000Y-51095000D03*
D33*
X69837500Y-47600000D03*
X72762500Y-47600000D03*
D14*
X74710000Y-43000000D03*
X73690000Y-43000000D03*
D30*
X62800000Y-67220000D03*
X62800000Y-68180000D03*
D35*
X46600000Y-59287500D03*
X46600000Y-57712500D03*
D36*
X77987500Y-69000000D03*
X76412500Y-69000000D03*
D28*
X47890000Y-68550000D03*
X48910000Y-68550000D03*
D22*
X73500000Y-58490000D03*
X73500000Y-59510000D03*
X61300000Y-63390000D03*
X61300000Y-64410000D03*
D37*
X35054900Y-62000000D03*
D38*
X42674900Y-58190000D03*
X42674900Y-65810000D03*
D30*
X65900000Y-52520000D03*
X65900000Y-53480000D03*
D39*
X61600000Y-65612500D03*
X61600000Y-67187500D03*
D40*
X87874999Y-56574999D03*
X83724999Y-56574999D03*
X87874999Y-54424999D03*
X83724999Y-54424999D03*
D20*
X76120000Y-56300000D03*
X77080000Y-56300000D03*
D28*
X76090000Y-70200000D03*
X77110000Y-70200000D03*
D41*
X46300000Y-65075000D03*
X46300000Y-62125000D03*
D26*
X70500000Y-59510000D03*
X70500000Y-58490000D03*
D42*
X50150000Y-64862500D03*
X49200000Y-64862500D03*
X48250000Y-64862500D03*
X48250000Y-67137500D03*
X49200000Y-67137500D03*
X50150000Y-67137500D03*
D28*
X65890000Y-51100000D03*
X66910000Y-51100000D03*
D43*
X61175000Y-69100000D03*
X58225000Y-69100000D03*
M02*
