%TF.GenerationSoftware,KiCad,Pcbnew,(7.0.0)*%
%TF.CreationDate,2023-03-14T17:44:32+00:00*%
%TF.ProjectId,main,6d61696e-2e6b-4696-9361-645f70636258,1.0*%
%TF.SameCoordinates,Original*%
%TF.FileFunction,Legend,Bot*%
%TF.FilePolarity,Positive*%
%FSLAX46Y46*%
G04 Gerber Fmt 4.6, Leading zero omitted, Abs format (unit mm)*
G04 Created by KiCad (PCBNEW (7.0.0)) date 2023-03-14 17:44:32*
%MOMM*%
%LPD*%
G01*
G04 APERTURE LIST*
%ADD10R,1.350000X1.350000*%
%ADD11O,1.350000X1.350000*%
%ADD12R,1.700000X1.700000*%
%ADD13O,1.700000X1.700000*%
%ADD14C,1.100000*%
G04 APERTURE END LIST*
%LPC*%
D10*
X71299999Y-47999999D03*
D11*
X71299999Y-45999999D03*
X71299999Y-43999999D03*
X71299999Y-41999999D03*
X71299999Y-39999999D03*
X71299999Y-37999999D03*
X71299999Y-35999999D03*
X71299999Y-33999999D03*
X71299999Y-31999999D03*
X71299999Y-29999999D03*
X73299999Y-47999999D03*
X73299999Y-45999999D03*
X73299999Y-43999999D03*
X73299999Y-41999999D03*
X73299999Y-39999999D03*
X73299999Y-37999999D03*
X73299999Y-35999999D03*
X73299999Y-33999999D03*
X73299999Y-31999999D03*
X73299999Y-29999999D03*
X37999999Y-47999999D03*
X37999999Y-45999999D03*
X37999999Y-43999999D03*
X37999999Y-41999999D03*
X37999999Y-39999999D03*
X37999999Y-37999999D03*
X37999999Y-35999999D03*
X37999999Y-33999999D03*
X37999999Y-31999999D03*
X37999999Y-29999999D03*
X39999999Y-47999999D03*
X39999999Y-45999999D03*
X39999999Y-43999999D03*
X39999999Y-41999999D03*
X39999999Y-39999999D03*
X39999999Y-37999999D03*
X39999999Y-35999999D03*
X39999999Y-33999999D03*
X39999999Y-31999999D03*
D10*
X39999999Y-29999999D03*
D12*
X76059999Y-62019999D03*
D13*
X78599999Y-62019999D03*
X76059999Y-64559999D03*
X78599999Y-64559999D03*
X76059999Y-67099999D03*
X78599999Y-67099999D03*
D14*
X68800000Y-49300000D03*
X42500000Y-28700000D03*
M02*
