%TF.GenerationSoftware,KiCad,Pcbnew,(7.0.0)*%
%TF.CreationDate,2023-03-14T17:44:31+00:00*%
%TF.ProjectId,main,6d61696e-2e6b-4696-9361-645f70636258,1.0*%
%TF.SameCoordinates,Original*%
%TF.FileFunction,Copper,L2,Inr*%
%TF.FilePolarity,Positive*%
%FSLAX46Y46*%
G04 Gerber Fmt 4.6, Leading zero omitted, Abs format (unit mm)*
G04 Created by KiCad (PCBNEW (7.0.0)) date 2023-03-14 17:44:31*
%MOMM*%
%LPD*%
G01*
G04 APERTURE LIST*
%TA.AperFunction,ComponentPad*%
%ADD10R,1.350000X1.350000*%
%TD*%
%TA.AperFunction,ComponentPad*%
%ADD11O,1.350000X1.350000*%
%TD*%
%TA.AperFunction,ComponentPad*%
%ADD12R,1.700000X1.700000*%
%TD*%
%TA.AperFunction,ComponentPad*%
%ADD13O,1.700000X1.700000*%
%TD*%
%TA.AperFunction,ViaPad*%
%ADD14C,0.800000*%
%TD*%
G04 APERTURE END LIST*
D10*
X71299999Y-47999999D03*
D11*
X71299999Y-45999999D03*
X71299999Y-43999999D03*
X71299999Y-41999999D03*
X71299999Y-39999999D03*
X71299999Y-37999999D03*
X71299999Y-35999999D03*
X71299999Y-33999999D03*
X71299999Y-31999999D03*
X71299999Y-29999999D03*
X73299999Y-47999999D03*
X73299999Y-45999999D03*
X73299999Y-43999999D03*
X73299999Y-41999999D03*
X73299999Y-39999999D03*
X73299999Y-37999999D03*
X73299999Y-35999999D03*
X73299999Y-33999999D03*
X73299999Y-31999999D03*
X73299999Y-29999999D03*
X37999999Y-47999999D03*
X37999999Y-45999999D03*
X37999999Y-43999999D03*
X37999999Y-41999999D03*
X37999999Y-39999999D03*
X37999999Y-37999999D03*
X37999999Y-35999999D03*
X37999999Y-33999999D03*
X37999999Y-31999999D03*
X37999999Y-29999999D03*
X39999999Y-47999999D03*
X39999999Y-45999999D03*
X39999999Y-43999999D03*
X39999999Y-41999999D03*
X39999999Y-39999999D03*
X39999999Y-37999999D03*
X39999999Y-35999999D03*
X39999999Y-33999999D03*
X39999999Y-31999999D03*
D10*
X39999999Y-29999999D03*
D12*
X76059999Y-62019999D03*
D13*
X78599999Y-62019999D03*
X76059999Y-64559999D03*
X78599999Y-64559999D03*
X76059999Y-67099999D03*
X78599999Y-67099999D03*
D14*
X36000000Y-55000000D03*
X44000000Y-29000000D03*
X32900000Y-67700000D03*
X32900000Y-69000000D03*
X45000000Y-58200000D03*
X54300000Y-52400000D03*
X43900000Y-69600000D03*
X45000000Y-62600000D03*
X46300000Y-58200000D03*
X45000000Y-63700000D03*
X46300000Y-63700000D03*
X64000000Y-53600000D03*
X46300000Y-62600000D03*
X43700000Y-63700000D03*
X50800000Y-68500000D03*
X67600000Y-59500000D03*
X51400000Y-67700000D03*
X52200000Y-59500000D03*
X60600000Y-64000000D03*
X50800000Y-69700000D03*
X60200000Y-58500000D03*
X49300000Y-54900000D03*
X66200000Y-51100000D03*
X64000000Y-57700000D03*
X74300000Y-56600000D03*
X60500000Y-66900000D03*
X47020992Y-43025000D03*
X64279008Y-43025000D03*
X64279008Y-41975000D03*
X47020992Y-41975000D03*
X49800000Y-68500000D03*
X48200000Y-49700000D03*
X36400000Y-68700000D03*
X81000000Y-29000000D03*
X81000000Y-39000000D03*
X56000000Y-62300000D03*
X42400000Y-67700000D03*
X55500000Y-64600000D03*
X81000000Y-34000000D03*
X40750000Y-65875500D03*
X30500000Y-66400000D03*
X69000000Y-46000000D03*
X81000000Y-70000000D03*
X81000000Y-59000000D03*
X30000000Y-29000000D03*
X44800000Y-68200000D03*
X59000000Y-46000000D03*
X30500000Y-69000000D03*
X69500000Y-70000000D03*
X81000000Y-44000000D03*
X49500000Y-66400000D03*
X51900000Y-62300000D03*
X37400000Y-63100000D03*
X60600000Y-65599503D03*
X59800000Y-69799500D03*
X30000000Y-44000000D03*
X55000000Y-70000000D03*
X69300000Y-56300000D03*
X44000000Y-46000000D03*
X57400000Y-54200000D03*
X30000000Y-39000000D03*
X30500000Y-67700000D03*
X31700000Y-69900000D03*
X51000000Y-63900000D03*
X50000000Y-58900000D03*
X30000000Y-34200000D03*
X37400000Y-68700000D03*
X81000000Y-54000000D03*
X81000000Y-49000000D03*
X44825000Y-67200000D03*
X60900000Y-51800000D03*
X49800000Y-69700000D03*
X54500000Y-69200000D03*
X47000000Y-55000000D03*
X49500000Y-67500000D03*
X36400000Y-63100000D03*
X69000000Y-29000000D03*
X68800000Y-65800000D03*
X68800000Y-64300000D03*
X41700000Y-69600000D03*
X38900000Y-66124500D03*
%TA.AperFunction,Conductor*%
G36*
X83006061Y-26801097D02*
G01*
X83016051Y-26802080D01*
X83143824Y-26814665D01*
X83167652Y-26819404D01*
X83294277Y-26857815D01*
X83316725Y-26867114D01*
X83433406Y-26929482D01*
X83453616Y-26942986D01*
X83555891Y-27026920D01*
X83573079Y-27044108D01*
X83657012Y-27146381D01*
X83670517Y-27166593D01*
X83732883Y-27283271D01*
X83742186Y-27305728D01*
X83780593Y-27432338D01*
X83785335Y-27456180D01*
X83798903Y-27593938D01*
X83799500Y-27606092D01*
X83799500Y-70693908D01*
X83798903Y-70706062D01*
X83785335Y-70843819D01*
X83780593Y-70867661D01*
X83742186Y-70994271D01*
X83732883Y-71016728D01*
X83670517Y-71133406D01*
X83657012Y-71153618D01*
X83573079Y-71255891D01*
X83555891Y-71273079D01*
X83453618Y-71357012D01*
X83433406Y-71370517D01*
X83316728Y-71432883D01*
X83294271Y-71442186D01*
X83167661Y-71480593D01*
X83143819Y-71485335D01*
X83006062Y-71498903D01*
X82993908Y-71499500D01*
X28306092Y-71499500D01*
X28293938Y-71498903D01*
X28156180Y-71485335D01*
X28132340Y-71480593D01*
X28005728Y-71442186D01*
X27983271Y-71432883D01*
X27866593Y-71370517D01*
X27846381Y-71357012D01*
X27744108Y-71273079D01*
X27726920Y-71255891D01*
X27642986Y-71153616D01*
X27629482Y-71133406D01*
X27567116Y-71016728D01*
X27557815Y-70994277D01*
X27519404Y-70867652D01*
X27514665Y-70843824D01*
X27501097Y-70706061D01*
X27500500Y-70693908D01*
X27500500Y-69600000D01*
X40794540Y-69600000D01*
X40795219Y-69606460D01*
X40813646Y-69781795D01*
X40813647Y-69781803D01*
X40814326Y-69788256D01*
X40816331Y-69794428D01*
X40816333Y-69794435D01*
X40870813Y-69962105D01*
X40872821Y-69968284D01*
X40967467Y-70132216D01*
X40971811Y-70137041D01*
X40971813Y-70137043D01*
X41061854Y-70237043D01*
X41094129Y-70272888D01*
X41247270Y-70384151D01*
X41420197Y-70461144D01*
X41605354Y-70500500D01*
X41788143Y-70500500D01*
X41794646Y-70500500D01*
X41979803Y-70461144D01*
X42152730Y-70384151D01*
X42305871Y-70272888D01*
X42432533Y-70132216D01*
X42527179Y-69968284D01*
X42585674Y-69788256D01*
X42605460Y-69600000D01*
X42994540Y-69600000D01*
X42995219Y-69606460D01*
X43013646Y-69781795D01*
X43013647Y-69781803D01*
X43014326Y-69788256D01*
X43016331Y-69794428D01*
X43016333Y-69794435D01*
X43070813Y-69962105D01*
X43072821Y-69968284D01*
X43167467Y-70132216D01*
X43171811Y-70137041D01*
X43171813Y-70137043D01*
X43261854Y-70237043D01*
X43294129Y-70272888D01*
X43447270Y-70384151D01*
X43620197Y-70461144D01*
X43805354Y-70500500D01*
X43988143Y-70500500D01*
X43994646Y-70500500D01*
X44179803Y-70461144D01*
X44352730Y-70384151D01*
X44505871Y-70272888D01*
X44632533Y-70132216D01*
X44727179Y-69968284D01*
X44785674Y-69788256D01*
X44794950Y-69700000D01*
X49894540Y-69700000D01*
X49895219Y-69706460D01*
X49913646Y-69881795D01*
X49913647Y-69881803D01*
X49914326Y-69888256D01*
X49916331Y-69894428D01*
X49916333Y-69894435D01*
X49970813Y-70062105D01*
X49972821Y-70068284D01*
X50067467Y-70232216D01*
X50194129Y-70372888D01*
X50347270Y-70484151D01*
X50520197Y-70561144D01*
X50705354Y-70600500D01*
X50888143Y-70600500D01*
X50894646Y-70600500D01*
X51079803Y-70561144D01*
X51252730Y-70484151D01*
X51405871Y-70372888D01*
X51532533Y-70232216D01*
X51627179Y-70068284D01*
X51685674Y-69888256D01*
X51705460Y-69700000D01*
X51685674Y-69511744D01*
X51627179Y-69331716D01*
X51532533Y-69167784D01*
X51533007Y-69167510D01*
X51514427Y-69125784D01*
X51514427Y-69074216D01*
X51533007Y-69032489D01*
X51532533Y-69032216D01*
X51532533Y-69032215D01*
X51627179Y-68868284D01*
X51685674Y-68688256D01*
X51692494Y-68623360D01*
X51715497Y-68563436D01*
X51765378Y-68523042D01*
X51852730Y-68484151D01*
X52005871Y-68372888D01*
X52132533Y-68232216D01*
X52227179Y-68068284D01*
X52285674Y-67888256D01*
X52305460Y-67700000D01*
X52285674Y-67511744D01*
X52227179Y-67331716D01*
X52132533Y-67167784D01*
X52060925Y-67088256D01*
X52010220Y-67031942D01*
X52010219Y-67031941D01*
X52005871Y-67027112D01*
X52000613Y-67023292D01*
X52000611Y-67023290D01*
X51857988Y-66919669D01*
X51857987Y-66919668D01*
X51852730Y-66915849D01*
X51846792Y-66913205D01*
X51817134Y-66900000D01*
X59594540Y-66900000D01*
X59595219Y-66906460D01*
X59613646Y-67081795D01*
X59613647Y-67081803D01*
X59614326Y-67088256D01*
X59616331Y-67094428D01*
X59616333Y-67094435D01*
X59640166Y-67167784D01*
X59672821Y-67268284D01*
X59676068Y-67273908D01*
X59676069Y-67273910D01*
X59706194Y-67326089D01*
X59767467Y-67432216D01*
X59771811Y-67437041D01*
X59771813Y-67437043D01*
X59844891Y-67518204D01*
X59894129Y-67572888D01*
X60047270Y-67684151D01*
X60220197Y-67761144D01*
X60405354Y-67800500D01*
X60588143Y-67800500D01*
X60594646Y-67800500D01*
X60779803Y-67761144D01*
X60952730Y-67684151D01*
X61105871Y-67572888D01*
X61232533Y-67432216D01*
X61327179Y-67268284D01*
X61381858Y-67100000D01*
X74704341Y-67100000D01*
X74704813Y-67105395D01*
X74724121Y-67326089D01*
X74724937Y-67335408D01*
X74726336Y-67340630D01*
X74726337Y-67340634D01*
X74784694Y-67558430D01*
X74784697Y-67558438D01*
X74786097Y-67563663D01*
X74788385Y-67568570D01*
X74788386Y-67568572D01*
X74883678Y-67772927D01*
X74883681Y-67772933D01*
X74885965Y-67777830D01*
X74889064Y-67782257D01*
X74889066Y-67782259D01*
X75018399Y-67966966D01*
X75018402Y-67966970D01*
X75021505Y-67971401D01*
X75188599Y-68138495D01*
X75382170Y-68274035D01*
X75596337Y-68373903D01*
X75824592Y-68435063D01*
X76060000Y-68455659D01*
X76295408Y-68435063D01*
X76523663Y-68373903D01*
X76737830Y-68274035D01*
X76931401Y-68138495D01*
X77098495Y-67971401D01*
X77228424Y-67785842D01*
X77272743Y-67746976D01*
X77330000Y-67732965D01*
X77387257Y-67746976D01*
X77431575Y-67785842D01*
X77558395Y-67966961D01*
X77558401Y-67966968D01*
X77561505Y-67971401D01*
X77728599Y-68138495D01*
X77922170Y-68274035D01*
X78136337Y-68373903D01*
X78364592Y-68435063D01*
X78600000Y-68455659D01*
X78835408Y-68435063D01*
X79063663Y-68373903D01*
X79277830Y-68274035D01*
X79471401Y-68138495D01*
X79638495Y-67971401D01*
X79774035Y-67777830D01*
X79873903Y-67563663D01*
X79935063Y-67335408D01*
X79955659Y-67100000D01*
X79935063Y-66864592D01*
X79879841Y-66658498D01*
X79875305Y-66641569D01*
X79875304Y-66641567D01*
X79873903Y-66636337D01*
X79774035Y-66422171D01*
X79638495Y-66228599D01*
X79471401Y-66061505D01*
X79466968Y-66058401D01*
X79466961Y-66058395D01*
X79285842Y-65931575D01*
X79246976Y-65887257D01*
X79232965Y-65830000D01*
X79246976Y-65772743D01*
X79285842Y-65728425D01*
X79466961Y-65601604D01*
X79466961Y-65601603D01*
X79471401Y-65598495D01*
X79638495Y-65431401D01*
X79774035Y-65237830D01*
X79873903Y-65023663D01*
X79935063Y-64795408D01*
X79955659Y-64560000D01*
X79935063Y-64324592D01*
X79873903Y-64096337D01*
X79774035Y-63882171D01*
X79638495Y-63688599D01*
X79471401Y-63521505D01*
X79466968Y-63518401D01*
X79466961Y-63518395D01*
X79285842Y-63391575D01*
X79246976Y-63347257D01*
X79232965Y-63290000D01*
X79246976Y-63232743D01*
X79285842Y-63188425D01*
X79466961Y-63061604D01*
X79466961Y-63061603D01*
X79471401Y-63058495D01*
X79638495Y-62891401D01*
X79774035Y-62697830D01*
X79873903Y-62483663D01*
X79935063Y-62255408D01*
X79955659Y-62020000D01*
X79935063Y-61784592D01*
X79873903Y-61556337D01*
X79774035Y-61342171D01*
X79638495Y-61148599D01*
X79471401Y-60981505D01*
X79466970Y-60978402D01*
X79466966Y-60978399D01*
X79282259Y-60849066D01*
X79282257Y-60849064D01*
X79277830Y-60845965D01*
X79272933Y-60843681D01*
X79272927Y-60843678D01*
X79068572Y-60748386D01*
X79068570Y-60748385D01*
X79063663Y-60746097D01*
X79058438Y-60744697D01*
X79058430Y-60744694D01*
X78840634Y-60686337D01*
X78840630Y-60686336D01*
X78835408Y-60684937D01*
X78830020Y-60684465D01*
X78830017Y-60684465D01*
X78605395Y-60664813D01*
X78600000Y-60664341D01*
X78594605Y-60664813D01*
X78369982Y-60684465D01*
X78369977Y-60684465D01*
X78364592Y-60684937D01*
X78359371Y-60686335D01*
X78359365Y-60686337D01*
X78141569Y-60744694D01*
X78141557Y-60744698D01*
X78136337Y-60746097D01*
X78131432Y-60748383D01*
X78131427Y-60748386D01*
X77927081Y-60843675D01*
X77927077Y-60843677D01*
X77922171Y-60845965D01*
X77917738Y-60849068D01*
X77917731Y-60849073D01*
X77733034Y-60978399D01*
X77733029Y-60978402D01*
X77728599Y-60981505D01*
X77724775Y-60985328D01*
X77724769Y-60985334D01*
X77565334Y-61144769D01*
X77565328Y-61144775D01*
X77561505Y-61148599D01*
X77558402Y-61153029D01*
X77558399Y-61153034D01*
X77429073Y-61337731D01*
X77429068Y-61337738D01*
X77425965Y-61342171D01*
X77423677Y-61347077D01*
X77423675Y-61347081D01*
X77328386Y-61551427D01*
X77328383Y-61551432D01*
X77326097Y-61556337D01*
X77324698Y-61561557D01*
X77324694Y-61561569D01*
X77266337Y-61779365D01*
X77266335Y-61779371D01*
X77264937Y-61784592D01*
X77264465Y-61789977D01*
X77264465Y-61789982D01*
X77262202Y-61815849D01*
X77244341Y-62020000D01*
X77244813Y-62025395D01*
X77263404Y-62237894D01*
X77264937Y-62255408D01*
X77266336Y-62260630D01*
X77266337Y-62260634D01*
X77324694Y-62478430D01*
X77324697Y-62478438D01*
X77326097Y-62483663D01*
X77328385Y-62488570D01*
X77328386Y-62488572D01*
X77423678Y-62692927D01*
X77423681Y-62692933D01*
X77425965Y-62697830D01*
X77429064Y-62702257D01*
X77429066Y-62702259D01*
X77558399Y-62886966D01*
X77558402Y-62886970D01*
X77561505Y-62891401D01*
X77728599Y-63058495D01*
X77733032Y-63061599D01*
X77733038Y-63061604D01*
X77914158Y-63188425D01*
X77953024Y-63232743D01*
X77967035Y-63290000D01*
X77953024Y-63347257D01*
X77914159Y-63391575D01*
X77733041Y-63518395D01*
X77728599Y-63521505D01*
X77724775Y-63525328D01*
X77724769Y-63525334D01*
X77565334Y-63684769D01*
X77565328Y-63684775D01*
X77561505Y-63688599D01*
X77558402Y-63693029D01*
X77558399Y-63693034D01*
X77431575Y-63874159D01*
X77387257Y-63913025D01*
X77330000Y-63927036D01*
X77272743Y-63913025D01*
X77228425Y-63874159D01*
X77157880Y-63773410D01*
X77098495Y-63688599D01*
X76931401Y-63521505D01*
X76926970Y-63518402D01*
X76926966Y-63518399D01*
X76742259Y-63389066D01*
X76742257Y-63389064D01*
X76737830Y-63385965D01*
X76732933Y-63383681D01*
X76732927Y-63383678D01*
X76528572Y-63288386D01*
X76528570Y-63288385D01*
X76523663Y-63286097D01*
X76518438Y-63284697D01*
X76518430Y-63284694D01*
X76300634Y-63226337D01*
X76300630Y-63226336D01*
X76295408Y-63224937D01*
X76290020Y-63224465D01*
X76290017Y-63224465D01*
X76065395Y-63204813D01*
X76060000Y-63204341D01*
X76054605Y-63204813D01*
X75829982Y-63224465D01*
X75829977Y-63224465D01*
X75824592Y-63224937D01*
X75819371Y-63226335D01*
X75819365Y-63226337D01*
X75601569Y-63284694D01*
X75601557Y-63284698D01*
X75596337Y-63286097D01*
X75591432Y-63288383D01*
X75591427Y-63288386D01*
X75387081Y-63383675D01*
X75387077Y-63383677D01*
X75382171Y-63385965D01*
X75377738Y-63389068D01*
X75377731Y-63389073D01*
X75193034Y-63518399D01*
X75193029Y-63518402D01*
X75188599Y-63521505D01*
X75184775Y-63525328D01*
X75184769Y-63525334D01*
X75025334Y-63684769D01*
X75025328Y-63684775D01*
X75021505Y-63688599D01*
X75018402Y-63693029D01*
X75018399Y-63693034D01*
X74889073Y-63877731D01*
X74889068Y-63877738D01*
X74885965Y-63882171D01*
X74883677Y-63887077D01*
X74883675Y-63887081D01*
X74788386Y-64091427D01*
X74788383Y-64091432D01*
X74786097Y-64096337D01*
X74784698Y-64101557D01*
X74784694Y-64101569D01*
X74726337Y-64319365D01*
X74726335Y-64319371D01*
X74724937Y-64324592D01*
X74724465Y-64329977D01*
X74724465Y-64329982D01*
X74704813Y-64554605D01*
X74704341Y-64560000D01*
X74704813Y-64565395D01*
X74723617Y-64780330D01*
X74724937Y-64795408D01*
X74726336Y-64800630D01*
X74726337Y-64800634D01*
X74784694Y-65018430D01*
X74784697Y-65018438D01*
X74786097Y-65023663D01*
X74788385Y-65028570D01*
X74788386Y-65028572D01*
X74883678Y-65232927D01*
X74883681Y-65232933D01*
X74885965Y-65237830D01*
X74889064Y-65242257D01*
X74889066Y-65242259D01*
X75018399Y-65426966D01*
X75018402Y-65426970D01*
X75021505Y-65431401D01*
X75188599Y-65598495D01*
X75193032Y-65601599D01*
X75193038Y-65601604D01*
X75374158Y-65728425D01*
X75413024Y-65772743D01*
X75427035Y-65830000D01*
X75413024Y-65887257D01*
X75374159Y-65931575D01*
X75193041Y-66058395D01*
X75188599Y-66061505D01*
X75184775Y-66065328D01*
X75184769Y-66065334D01*
X75025334Y-66224769D01*
X75025328Y-66224775D01*
X75021505Y-66228599D01*
X75018402Y-66233029D01*
X75018399Y-66233034D01*
X74889073Y-66417731D01*
X74889068Y-66417738D01*
X74885965Y-66422171D01*
X74883677Y-66427077D01*
X74883675Y-66427081D01*
X74788386Y-66631427D01*
X74788383Y-66631432D01*
X74786097Y-66636337D01*
X74784698Y-66641557D01*
X74784694Y-66641569D01*
X74726337Y-66859365D01*
X74726335Y-66859371D01*
X74724937Y-66864592D01*
X74724465Y-66869977D01*
X74724465Y-66869982D01*
X74714346Y-66985644D01*
X74704341Y-67100000D01*
X61381858Y-67100000D01*
X61385674Y-67088256D01*
X61405460Y-66900000D01*
X61385674Y-66711744D01*
X61327179Y-66531716D01*
X61232533Y-66367784D01*
X61182985Y-66312756D01*
X61110220Y-66231942D01*
X61110219Y-66231941D01*
X61105871Y-66227112D01*
X61100613Y-66223292D01*
X61100611Y-66223290D01*
X60957988Y-66119669D01*
X60957987Y-66119668D01*
X60952730Y-66115849D01*
X60946792Y-66113205D01*
X60785745Y-66041501D01*
X60785740Y-66041499D01*
X60779803Y-66038856D01*
X60773444Y-66037504D01*
X60773440Y-66037503D01*
X60601008Y-66000852D01*
X60601005Y-66000851D01*
X60594646Y-65999500D01*
X60405354Y-65999500D01*
X60398995Y-66000851D01*
X60398991Y-66000852D01*
X60226559Y-66037503D01*
X60226552Y-66037505D01*
X60220197Y-66038856D01*
X60214262Y-66041498D01*
X60214254Y-66041501D01*
X60053207Y-66113205D01*
X60053202Y-66113207D01*
X60047270Y-66115849D01*
X60042016Y-66119665D01*
X60042011Y-66119669D01*
X59899388Y-66223290D01*
X59899381Y-66223295D01*
X59894129Y-66227112D01*
X59889784Y-66231937D01*
X59889779Y-66231942D01*
X59771813Y-66362956D01*
X59771808Y-66362962D01*
X59767467Y-66367784D01*
X59764222Y-66373404D01*
X59764218Y-66373410D01*
X59676069Y-66526089D01*
X59676066Y-66526094D01*
X59672821Y-66531716D01*
X59670815Y-66537888D01*
X59670813Y-66537894D01*
X59616333Y-66705564D01*
X59616331Y-66705573D01*
X59614326Y-66711744D01*
X59613648Y-66718194D01*
X59613646Y-66718204D01*
X59600966Y-66838856D01*
X59594540Y-66900000D01*
X51817134Y-66900000D01*
X51685745Y-66841501D01*
X51685740Y-66841499D01*
X51679803Y-66838856D01*
X51673444Y-66837504D01*
X51673440Y-66837503D01*
X51501008Y-66800852D01*
X51501005Y-66800851D01*
X51494646Y-66799500D01*
X51305354Y-66799500D01*
X51298995Y-66800851D01*
X51298991Y-66800852D01*
X51126559Y-66837503D01*
X51126552Y-66837505D01*
X51120197Y-66838856D01*
X51114262Y-66841498D01*
X51114254Y-66841501D01*
X50953207Y-66913205D01*
X50953202Y-66913207D01*
X50947270Y-66915849D01*
X50942016Y-66919665D01*
X50942011Y-66919669D01*
X50799388Y-67023290D01*
X50799381Y-67023295D01*
X50794129Y-67027112D01*
X50789784Y-67031937D01*
X50789779Y-67031942D01*
X50671813Y-67162956D01*
X50671808Y-67162962D01*
X50667467Y-67167784D01*
X50664222Y-67173404D01*
X50664218Y-67173410D01*
X50576069Y-67326089D01*
X50576066Y-67326094D01*
X50572821Y-67331716D01*
X50570815Y-67337888D01*
X50570813Y-67337894D01*
X50516333Y-67505564D01*
X50516331Y-67505573D01*
X50514326Y-67511744D01*
X50513647Y-67518203D01*
X50513647Y-67518204D01*
X50507505Y-67576640D01*
X50484502Y-67636563D01*
X50434621Y-67676957D01*
X50353204Y-67713206D01*
X50353196Y-67713210D01*
X50347270Y-67715849D01*
X50342016Y-67719665D01*
X50342011Y-67719669D01*
X50199388Y-67823290D01*
X50199381Y-67823295D01*
X50194129Y-67827112D01*
X50189784Y-67831937D01*
X50189779Y-67831942D01*
X50071813Y-67962956D01*
X50071808Y-67962962D01*
X50067467Y-67967784D01*
X50064222Y-67973404D01*
X50064218Y-67973410D01*
X49976069Y-68126089D01*
X49976066Y-68126094D01*
X49972821Y-68131716D01*
X49970815Y-68137888D01*
X49970813Y-68137894D01*
X49916333Y-68305564D01*
X49916331Y-68305573D01*
X49914326Y-68311744D01*
X49913648Y-68318194D01*
X49913646Y-68318204D01*
X49901512Y-68433662D01*
X49894540Y-68500000D01*
X49895219Y-68506460D01*
X49913646Y-68681795D01*
X49913647Y-68681803D01*
X49914326Y-68688256D01*
X49916331Y-68694428D01*
X49916333Y-68694435D01*
X49957025Y-68819669D01*
X49972821Y-68868284D01*
X49976068Y-68873908D01*
X49976069Y-68873910D01*
X50064216Y-69026586D01*
X50064218Y-69026589D01*
X50064869Y-69027717D01*
X50064870Y-69027718D01*
X50067467Y-69032216D01*
X50066994Y-69032488D01*
X50085573Y-69074220D01*
X50085573Y-69125780D01*
X50066994Y-69167511D01*
X50067467Y-69167784D01*
X50064870Y-69172281D01*
X50064867Y-69172285D01*
X50064221Y-69173405D01*
X50064216Y-69173413D01*
X49976069Y-69326089D01*
X49976066Y-69326094D01*
X49972821Y-69331716D01*
X49970815Y-69337888D01*
X49970813Y-69337894D01*
X49916333Y-69505564D01*
X49916331Y-69505573D01*
X49914326Y-69511744D01*
X49913648Y-69518194D01*
X49913646Y-69518204D01*
X49905729Y-69593540D01*
X49894540Y-69700000D01*
X44794950Y-69700000D01*
X44805460Y-69600000D01*
X44785674Y-69411744D01*
X44727179Y-69231716D01*
X44632533Y-69067784D01*
X44505871Y-68927112D01*
X44500613Y-68923292D01*
X44500611Y-68923290D01*
X44357988Y-68819669D01*
X44357987Y-68819668D01*
X44352730Y-68815849D01*
X44346792Y-68813205D01*
X44185745Y-68741501D01*
X44185740Y-68741499D01*
X44179803Y-68738856D01*
X44173444Y-68737504D01*
X44173440Y-68737503D01*
X44001008Y-68700852D01*
X44001005Y-68700851D01*
X43994646Y-68699500D01*
X43805354Y-68699500D01*
X43798995Y-68700851D01*
X43798991Y-68700852D01*
X43626559Y-68737503D01*
X43626552Y-68737505D01*
X43620197Y-68738856D01*
X43614262Y-68741498D01*
X43614254Y-68741501D01*
X43453207Y-68813205D01*
X43453202Y-68813207D01*
X43447270Y-68815849D01*
X43442016Y-68819665D01*
X43442011Y-68819669D01*
X43299388Y-68923290D01*
X43299381Y-68923295D01*
X43294129Y-68927112D01*
X43289784Y-68931937D01*
X43289779Y-68931942D01*
X43171813Y-69062956D01*
X43171808Y-69062962D01*
X43167467Y-69067784D01*
X43164222Y-69073404D01*
X43164218Y-69073410D01*
X43076069Y-69226089D01*
X43076066Y-69226094D01*
X43072821Y-69231716D01*
X43070815Y-69237888D01*
X43070813Y-69237894D01*
X43016333Y-69405564D01*
X43016331Y-69405573D01*
X43014326Y-69411744D01*
X43013648Y-69418194D01*
X43013646Y-69418204D01*
X42995962Y-69586464D01*
X42994540Y-69600000D01*
X42605460Y-69600000D01*
X42585674Y-69411744D01*
X42527179Y-69231716D01*
X42432533Y-69067784D01*
X42305871Y-68927112D01*
X42300613Y-68923292D01*
X42300611Y-68923290D01*
X42157988Y-68819669D01*
X42157987Y-68819668D01*
X42152730Y-68815849D01*
X42146792Y-68813205D01*
X41985745Y-68741501D01*
X41985740Y-68741499D01*
X41979803Y-68738856D01*
X41973444Y-68737504D01*
X41973440Y-68737503D01*
X41801008Y-68700852D01*
X41801005Y-68700851D01*
X41794646Y-68699500D01*
X41605354Y-68699500D01*
X41598995Y-68700851D01*
X41598991Y-68700852D01*
X41426559Y-68737503D01*
X41426552Y-68737505D01*
X41420197Y-68738856D01*
X41414262Y-68741498D01*
X41414254Y-68741501D01*
X41253207Y-68813205D01*
X41253202Y-68813207D01*
X41247270Y-68815849D01*
X41242016Y-68819665D01*
X41242011Y-68819669D01*
X41099388Y-68923290D01*
X41099381Y-68923295D01*
X41094129Y-68927112D01*
X41089784Y-68931937D01*
X41089779Y-68931942D01*
X40971813Y-69062956D01*
X40971808Y-69062962D01*
X40967467Y-69067784D01*
X40964222Y-69073404D01*
X40964218Y-69073410D01*
X40876069Y-69226089D01*
X40876066Y-69226094D01*
X40872821Y-69231716D01*
X40870815Y-69237888D01*
X40870813Y-69237894D01*
X40816333Y-69405564D01*
X40816331Y-69405573D01*
X40814326Y-69411744D01*
X40813648Y-69418194D01*
X40813646Y-69418204D01*
X40795962Y-69586464D01*
X40794540Y-69600000D01*
X27500500Y-69600000D01*
X27500500Y-66124500D01*
X37994540Y-66124500D01*
X37995219Y-66130960D01*
X38013646Y-66306295D01*
X38013647Y-66306303D01*
X38014326Y-66312756D01*
X38016331Y-66318928D01*
X38016333Y-66318935D01*
X38066356Y-66472888D01*
X38072821Y-66492784D01*
X38076068Y-66498408D01*
X38076069Y-66498410D01*
X38127097Y-66586794D01*
X38167467Y-66656716D01*
X38171811Y-66661541D01*
X38171813Y-66661543D01*
X38222831Y-66718204D01*
X38294129Y-66797388D01*
X38447270Y-66908651D01*
X38620197Y-66985644D01*
X38805354Y-67025000D01*
X38988143Y-67025000D01*
X38994646Y-67025000D01*
X39179803Y-66985644D01*
X39352730Y-66908651D01*
X39505871Y-66797388D01*
X39632533Y-66656716D01*
X39727179Y-66492784D01*
X39785674Y-66312756D01*
X39805460Y-66124500D01*
X39791141Y-65988256D01*
X39786353Y-65942704D01*
X39786352Y-65942703D01*
X39785674Y-65936244D01*
X39741405Y-65800000D01*
X67894540Y-65800000D01*
X67895219Y-65806460D01*
X67913646Y-65981795D01*
X67913647Y-65981803D01*
X67914326Y-65988256D01*
X67916331Y-65994428D01*
X67916333Y-65994435D01*
X67970813Y-66162105D01*
X67972821Y-66168284D01*
X67976068Y-66173908D01*
X67976069Y-66173910D01*
X68052501Y-66306295D01*
X68067467Y-66332216D01*
X68071811Y-66337041D01*
X68071813Y-66337043D01*
X68104558Y-66373410D01*
X68194129Y-66472888D01*
X68199387Y-66476708D01*
X68199388Y-66476709D01*
X68229257Y-66498410D01*
X68347270Y-66584151D01*
X68520197Y-66661144D01*
X68705354Y-66700500D01*
X68888143Y-66700500D01*
X68894646Y-66700500D01*
X69079803Y-66661144D01*
X69252730Y-66584151D01*
X69405871Y-66472888D01*
X69532533Y-66332216D01*
X69627179Y-66168284D01*
X69685674Y-65988256D01*
X69705460Y-65800000D01*
X69685674Y-65611744D01*
X69627179Y-65431716D01*
X69532533Y-65267784D01*
X69411146Y-65132970D01*
X69382980Y-65079998D01*
X69382980Y-65020002D01*
X69411147Y-64967028D01*
X69532533Y-64832216D01*
X69627179Y-64668284D01*
X69685674Y-64488256D01*
X69705460Y-64300000D01*
X69685674Y-64111744D01*
X69627179Y-63931716D01*
X69532533Y-63767784D01*
X69477316Y-63706460D01*
X69410220Y-63631942D01*
X69410219Y-63631941D01*
X69405871Y-63627112D01*
X69400613Y-63623292D01*
X69400611Y-63623290D01*
X69257988Y-63519669D01*
X69257987Y-63519668D01*
X69252730Y-63515849D01*
X69246792Y-63513205D01*
X69085745Y-63441501D01*
X69085740Y-63441499D01*
X69079803Y-63438856D01*
X69073444Y-63437504D01*
X69073440Y-63437503D01*
X68901008Y-63400852D01*
X68901005Y-63400851D01*
X68894646Y-63399500D01*
X68705354Y-63399500D01*
X68698995Y-63400851D01*
X68698991Y-63400852D01*
X68526559Y-63437503D01*
X68526552Y-63437505D01*
X68520197Y-63438856D01*
X68514262Y-63441498D01*
X68514254Y-63441501D01*
X68353207Y-63513205D01*
X68353202Y-63513207D01*
X68347270Y-63515849D01*
X68342016Y-63519665D01*
X68342011Y-63519669D01*
X68199388Y-63623290D01*
X68199381Y-63623295D01*
X68194129Y-63627112D01*
X68189784Y-63631937D01*
X68189779Y-63631942D01*
X68071813Y-63762956D01*
X68071808Y-63762962D01*
X68067467Y-63767784D01*
X68064222Y-63773404D01*
X68064218Y-63773410D01*
X67976069Y-63926089D01*
X67976066Y-63926094D01*
X67972821Y-63931716D01*
X67970815Y-63937888D01*
X67970813Y-63937894D01*
X67916333Y-64105564D01*
X67916331Y-64105573D01*
X67914326Y-64111744D01*
X67913648Y-64118194D01*
X67913646Y-64118204D01*
X67901664Y-64232216D01*
X67894540Y-64300000D01*
X67895219Y-64306460D01*
X67913646Y-64481795D01*
X67913647Y-64481803D01*
X67914326Y-64488256D01*
X67916331Y-64494428D01*
X67916333Y-64494435D01*
X67970813Y-64662105D01*
X67972821Y-64668284D01*
X67976068Y-64673908D01*
X67976069Y-64673910D01*
X68041242Y-64786794D01*
X68067467Y-64832216D01*
X68127732Y-64899147D01*
X68188852Y-64967028D01*
X68217019Y-65020002D01*
X68217019Y-65079998D01*
X68188852Y-65132972D01*
X68072672Y-65262003D01*
X68067467Y-65267784D01*
X68064222Y-65273404D01*
X68064218Y-65273410D01*
X67976069Y-65426089D01*
X67976066Y-65426094D01*
X67972821Y-65431716D01*
X67970815Y-65437888D01*
X67970813Y-65437894D01*
X67916333Y-65605564D01*
X67916331Y-65605573D01*
X67914326Y-65611744D01*
X67913648Y-65618194D01*
X67913646Y-65618204D01*
X67901473Y-65734035D01*
X67894540Y-65800000D01*
X39741405Y-65800000D01*
X39727179Y-65756216D01*
X39632533Y-65592284D01*
X39505871Y-65451612D01*
X39500613Y-65447792D01*
X39500611Y-65447790D01*
X39357988Y-65344169D01*
X39357987Y-65344168D01*
X39352730Y-65340349D01*
X39346792Y-65337705D01*
X39185745Y-65266001D01*
X39185740Y-65265999D01*
X39179803Y-65263356D01*
X39173444Y-65262004D01*
X39173440Y-65262003D01*
X39001008Y-65225352D01*
X39001005Y-65225351D01*
X38994646Y-65224000D01*
X38805354Y-65224000D01*
X38798995Y-65225351D01*
X38798991Y-65225352D01*
X38626559Y-65262003D01*
X38626552Y-65262005D01*
X38620197Y-65263356D01*
X38614262Y-65265998D01*
X38614254Y-65266001D01*
X38453207Y-65337705D01*
X38453202Y-65337707D01*
X38447270Y-65340349D01*
X38442016Y-65344165D01*
X38442011Y-65344169D01*
X38299388Y-65447790D01*
X38299381Y-65447795D01*
X38294129Y-65451612D01*
X38289784Y-65456437D01*
X38289779Y-65456442D01*
X38171813Y-65587456D01*
X38171808Y-65587462D01*
X38167467Y-65592284D01*
X38164222Y-65597904D01*
X38164218Y-65597910D01*
X38076069Y-65750589D01*
X38076066Y-65750594D01*
X38072821Y-65756216D01*
X38070815Y-65762388D01*
X38070813Y-65762394D01*
X38016333Y-65930064D01*
X38016331Y-65930073D01*
X38014326Y-65936244D01*
X38013648Y-65942694D01*
X38013646Y-65942704D01*
X38001487Y-66058403D01*
X37994540Y-66124500D01*
X27500500Y-66124500D01*
X27500500Y-63700000D01*
X42794540Y-63700000D01*
X42795219Y-63706460D01*
X42813646Y-63881795D01*
X42813647Y-63881803D01*
X42814326Y-63888256D01*
X42816331Y-63894428D01*
X42816333Y-63894435D01*
X42830454Y-63937894D01*
X42872821Y-64068284D01*
X42876068Y-64073908D01*
X42876069Y-64073910D01*
X42942086Y-64188256D01*
X42967467Y-64232216D01*
X42971811Y-64237041D01*
X42971813Y-64237043D01*
X43049999Y-64323877D01*
X43094129Y-64372888D01*
X43247270Y-64484151D01*
X43420197Y-64561144D01*
X43605354Y-64600500D01*
X43788143Y-64600500D01*
X43794646Y-64600500D01*
X43979803Y-64561144D01*
X44152730Y-64484151D01*
X44277116Y-64393779D01*
X44324219Y-64372808D01*
X44375781Y-64372808D01*
X44422883Y-64393779D01*
X44547270Y-64484151D01*
X44720197Y-64561144D01*
X44905354Y-64600500D01*
X45088143Y-64600500D01*
X45094646Y-64600500D01*
X45279803Y-64561144D01*
X45452730Y-64484151D01*
X45577119Y-64393777D01*
X45624217Y-64372808D01*
X45675780Y-64372808D01*
X45722885Y-64393780D01*
X45847270Y-64484151D01*
X46020197Y-64561144D01*
X46205354Y-64600500D01*
X46388143Y-64600500D01*
X46394646Y-64600500D01*
X46579803Y-64561144D01*
X46752730Y-64484151D01*
X46905871Y-64372888D01*
X47032533Y-64232216D01*
X47127179Y-64068284D01*
X47149366Y-64000000D01*
X59694540Y-64000000D01*
X59695219Y-64006460D01*
X59713646Y-64181795D01*
X59713647Y-64181803D01*
X59714326Y-64188256D01*
X59716331Y-64194428D01*
X59716333Y-64194435D01*
X59770813Y-64362105D01*
X59772821Y-64368284D01*
X59776068Y-64373908D01*
X59776069Y-64373910D01*
X59842086Y-64488256D01*
X59867467Y-64532216D01*
X59871811Y-64537041D01*
X59871813Y-64537043D01*
X59927732Y-64599147D01*
X59994129Y-64672888D01*
X60147270Y-64784151D01*
X60320197Y-64861144D01*
X60505354Y-64900500D01*
X60688143Y-64900500D01*
X60694646Y-64900500D01*
X60879803Y-64861144D01*
X61052730Y-64784151D01*
X61205871Y-64672888D01*
X61332533Y-64532216D01*
X61427179Y-64368284D01*
X61485674Y-64188256D01*
X61505460Y-64000000D01*
X61485674Y-63811744D01*
X61427179Y-63631716D01*
X61332533Y-63467784D01*
X61205871Y-63327112D01*
X61200613Y-63323292D01*
X61200611Y-63323290D01*
X61057988Y-63219669D01*
X61057987Y-63219668D01*
X61052730Y-63215849D01*
X61046792Y-63213205D01*
X60885745Y-63141501D01*
X60885740Y-63141499D01*
X60879803Y-63138856D01*
X60873444Y-63137504D01*
X60873440Y-63137503D01*
X60701008Y-63100852D01*
X60701005Y-63100851D01*
X60694646Y-63099500D01*
X60505354Y-63099500D01*
X60498995Y-63100851D01*
X60498991Y-63100852D01*
X60326559Y-63137503D01*
X60326552Y-63137505D01*
X60320197Y-63138856D01*
X60314262Y-63141498D01*
X60314254Y-63141501D01*
X60153207Y-63213205D01*
X60153202Y-63213207D01*
X60147270Y-63215849D01*
X60142016Y-63219665D01*
X60142011Y-63219669D01*
X59999388Y-63323290D01*
X59999381Y-63323295D01*
X59994129Y-63327112D01*
X59989784Y-63331937D01*
X59989779Y-63331942D01*
X59871813Y-63462956D01*
X59871808Y-63462962D01*
X59867467Y-63467784D01*
X59864222Y-63473404D01*
X59864218Y-63473410D01*
X59776069Y-63626089D01*
X59776066Y-63626094D01*
X59772821Y-63631716D01*
X59770815Y-63637888D01*
X59770813Y-63637894D01*
X59716333Y-63805564D01*
X59716331Y-63805573D01*
X59714326Y-63811744D01*
X59713648Y-63818194D01*
X59713646Y-63818204D01*
X59701067Y-63937894D01*
X59694540Y-64000000D01*
X47149366Y-64000000D01*
X47185674Y-63888256D01*
X47205460Y-63700000D01*
X47185674Y-63511744D01*
X47127179Y-63331716D01*
X47058060Y-63211999D01*
X47041448Y-63150000D01*
X47058061Y-63088000D01*
X47073301Y-63061604D01*
X47127179Y-62968284D01*
X47185674Y-62788256D01*
X47205460Y-62600000D01*
X47185674Y-62411744D01*
X47127179Y-62231716D01*
X47032533Y-62067784D01*
X46905871Y-61927112D01*
X46900613Y-61923292D01*
X46900611Y-61923290D01*
X46757988Y-61819669D01*
X46757987Y-61819668D01*
X46752730Y-61815849D01*
X46746792Y-61813205D01*
X46585745Y-61741501D01*
X46585740Y-61741499D01*
X46579803Y-61738856D01*
X46573444Y-61737504D01*
X46573440Y-61737503D01*
X46401008Y-61700852D01*
X46401005Y-61700851D01*
X46394646Y-61699500D01*
X46205354Y-61699500D01*
X46198995Y-61700851D01*
X46198991Y-61700852D01*
X46026559Y-61737503D01*
X46026552Y-61737505D01*
X46020197Y-61738856D01*
X46014262Y-61741498D01*
X46014254Y-61741501D01*
X45853207Y-61813205D01*
X45853202Y-61813207D01*
X45847270Y-61815849D01*
X45842016Y-61819665D01*
X45842011Y-61819669D01*
X45722885Y-61906219D01*
X45675781Y-61927191D01*
X45624219Y-61927191D01*
X45577115Y-61906219D01*
X45457988Y-61819669D01*
X45457987Y-61819668D01*
X45452730Y-61815849D01*
X45446792Y-61813205D01*
X45285745Y-61741501D01*
X45285740Y-61741499D01*
X45279803Y-61738856D01*
X45273444Y-61737504D01*
X45273440Y-61737503D01*
X45101008Y-61700852D01*
X45101005Y-61700851D01*
X45094646Y-61699500D01*
X44905354Y-61699500D01*
X44898995Y-61700851D01*
X44898991Y-61700852D01*
X44726559Y-61737503D01*
X44726552Y-61737505D01*
X44720197Y-61738856D01*
X44714262Y-61741498D01*
X44714254Y-61741501D01*
X44553207Y-61813205D01*
X44553202Y-61813207D01*
X44547270Y-61815849D01*
X44542016Y-61819665D01*
X44542011Y-61819669D01*
X44399388Y-61923290D01*
X44399381Y-61923295D01*
X44394129Y-61927112D01*
X44389784Y-61931937D01*
X44389779Y-61931942D01*
X44271813Y-62062956D01*
X44271808Y-62062962D01*
X44267467Y-62067784D01*
X44264222Y-62073404D01*
X44264218Y-62073410D01*
X44176069Y-62226089D01*
X44176066Y-62226094D01*
X44172821Y-62231716D01*
X44170815Y-62237888D01*
X44170813Y-62237894D01*
X44116333Y-62405564D01*
X44116331Y-62405573D01*
X44114326Y-62411744D01*
X44113648Y-62418194D01*
X44113646Y-62418204D01*
X44107317Y-62478430D01*
X44094540Y-62600000D01*
X44095219Y-62606460D01*
X44105000Y-62699523D01*
X44097443Y-62756922D01*
X44064651Y-62804634D01*
X44013773Y-62832259D01*
X43955899Y-62833774D01*
X43801011Y-62800852D01*
X43801002Y-62800851D01*
X43794646Y-62799500D01*
X43605354Y-62799500D01*
X43598995Y-62800851D01*
X43598991Y-62800852D01*
X43426559Y-62837503D01*
X43426552Y-62837505D01*
X43420197Y-62838856D01*
X43414262Y-62841498D01*
X43414254Y-62841501D01*
X43253207Y-62913205D01*
X43253202Y-62913207D01*
X43247270Y-62915849D01*
X43242016Y-62919665D01*
X43242011Y-62919669D01*
X43099388Y-63023290D01*
X43099381Y-63023295D01*
X43094129Y-63027112D01*
X43089784Y-63031937D01*
X43089779Y-63031942D01*
X42971813Y-63162956D01*
X42971808Y-63162962D01*
X42967467Y-63167784D01*
X42964222Y-63173404D01*
X42964218Y-63173410D01*
X42876069Y-63326089D01*
X42876066Y-63326094D01*
X42872821Y-63331716D01*
X42870815Y-63337888D01*
X42870813Y-63337894D01*
X42816333Y-63505564D01*
X42816331Y-63505573D01*
X42814326Y-63511744D01*
X42813648Y-63518194D01*
X42813646Y-63518204D01*
X42801693Y-63631942D01*
X42794540Y-63700000D01*
X27500500Y-63700000D01*
X27500500Y-59500000D01*
X51294540Y-59500000D01*
X51295219Y-59506460D01*
X51313646Y-59681795D01*
X51313647Y-59681803D01*
X51314326Y-59688256D01*
X51316331Y-59694428D01*
X51316333Y-59694435D01*
X51370813Y-59862105D01*
X51372821Y-59868284D01*
X51467467Y-60032216D01*
X51594129Y-60172888D01*
X51747270Y-60284151D01*
X51920197Y-60361144D01*
X52105354Y-60400500D01*
X52288143Y-60400500D01*
X52294646Y-60400500D01*
X52479803Y-60361144D01*
X52652730Y-60284151D01*
X52805871Y-60172888D01*
X52932533Y-60032216D01*
X53027179Y-59868284D01*
X53085674Y-59688256D01*
X53105460Y-59500000D01*
X66694540Y-59500000D01*
X66695219Y-59506460D01*
X66713646Y-59681795D01*
X66713647Y-59681803D01*
X66714326Y-59688256D01*
X66716331Y-59694428D01*
X66716333Y-59694435D01*
X66770813Y-59862105D01*
X66772821Y-59868284D01*
X66867467Y-60032216D01*
X66994129Y-60172888D01*
X67147270Y-60284151D01*
X67320197Y-60361144D01*
X67505354Y-60400500D01*
X67688143Y-60400500D01*
X67694646Y-60400500D01*
X67879803Y-60361144D01*
X68052730Y-60284151D01*
X68205871Y-60172888D01*
X68332533Y-60032216D01*
X68427179Y-59868284D01*
X68485674Y-59688256D01*
X68505460Y-59500000D01*
X68485674Y-59311744D01*
X68427179Y-59131716D01*
X68332533Y-58967784D01*
X68250528Y-58876709D01*
X68210220Y-58831942D01*
X68210219Y-58831941D01*
X68205871Y-58827112D01*
X68200613Y-58823292D01*
X68200611Y-58823290D01*
X68057988Y-58719669D01*
X68057987Y-58719668D01*
X68052730Y-58715849D01*
X68046792Y-58713205D01*
X67885745Y-58641501D01*
X67885740Y-58641499D01*
X67879803Y-58638856D01*
X67873444Y-58637504D01*
X67873440Y-58637503D01*
X67701008Y-58600852D01*
X67701005Y-58600851D01*
X67694646Y-58599500D01*
X67505354Y-58599500D01*
X67498995Y-58600851D01*
X67498991Y-58600852D01*
X67326559Y-58637503D01*
X67326552Y-58637505D01*
X67320197Y-58638856D01*
X67314262Y-58641498D01*
X67314254Y-58641501D01*
X67153207Y-58713205D01*
X67153202Y-58713207D01*
X67147270Y-58715849D01*
X67142016Y-58719665D01*
X67142011Y-58719669D01*
X66999388Y-58823290D01*
X66999381Y-58823295D01*
X66994129Y-58827112D01*
X66989784Y-58831937D01*
X66989779Y-58831942D01*
X66871813Y-58962956D01*
X66871808Y-58962962D01*
X66867467Y-58967784D01*
X66864222Y-58973404D01*
X66864218Y-58973410D01*
X66776069Y-59126089D01*
X66776066Y-59126094D01*
X66772821Y-59131716D01*
X66770815Y-59137888D01*
X66770813Y-59137894D01*
X66716333Y-59305564D01*
X66716331Y-59305573D01*
X66714326Y-59311744D01*
X66713648Y-59318194D01*
X66713646Y-59318204D01*
X66695962Y-59486464D01*
X66694540Y-59500000D01*
X53105460Y-59500000D01*
X53085674Y-59311744D01*
X53027179Y-59131716D01*
X52932533Y-58967784D01*
X52850528Y-58876709D01*
X52810220Y-58831942D01*
X52810219Y-58831941D01*
X52805871Y-58827112D01*
X52800613Y-58823292D01*
X52800611Y-58823290D01*
X52657988Y-58719669D01*
X52657987Y-58719668D01*
X52652730Y-58715849D01*
X52646792Y-58713205D01*
X52485745Y-58641501D01*
X52485740Y-58641499D01*
X52479803Y-58638856D01*
X52473444Y-58637504D01*
X52473440Y-58637503D01*
X52301008Y-58600852D01*
X52301005Y-58600851D01*
X52294646Y-58599500D01*
X52105354Y-58599500D01*
X52098995Y-58600851D01*
X52098991Y-58600852D01*
X51926559Y-58637503D01*
X51926552Y-58637505D01*
X51920197Y-58638856D01*
X51914262Y-58641498D01*
X51914254Y-58641501D01*
X51753207Y-58713205D01*
X51753202Y-58713207D01*
X51747270Y-58715849D01*
X51742016Y-58719665D01*
X51742011Y-58719669D01*
X51599388Y-58823290D01*
X51599381Y-58823295D01*
X51594129Y-58827112D01*
X51589784Y-58831937D01*
X51589779Y-58831942D01*
X51471813Y-58962956D01*
X51471808Y-58962962D01*
X51467467Y-58967784D01*
X51464222Y-58973404D01*
X51464218Y-58973410D01*
X51376069Y-59126089D01*
X51376066Y-59126094D01*
X51372821Y-59131716D01*
X51370815Y-59137888D01*
X51370813Y-59137894D01*
X51316333Y-59305564D01*
X51316331Y-59305573D01*
X51314326Y-59311744D01*
X51313648Y-59318194D01*
X51313646Y-59318204D01*
X51295962Y-59486464D01*
X51294540Y-59500000D01*
X27500500Y-59500000D01*
X27500500Y-58200000D01*
X44094540Y-58200000D01*
X44095219Y-58206460D01*
X44113646Y-58381795D01*
X44113647Y-58381803D01*
X44114326Y-58388256D01*
X44116331Y-58394428D01*
X44116333Y-58394435D01*
X44145484Y-58484151D01*
X44172821Y-58568284D01*
X44176068Y-58573908D01*
X44176069Y-58573910D01*
X44258017Y-58715849D01*
X44267467Y-58732216D01*
X44271811Y-58737041D01*
X44271813Y-58737043D01*
X44349999Y-58823877D01*
X44394129Y-58872888D01*
X44547270Y-58984151D01*
X44720197Y-59061144D01*
X44905354Y-59100500D01*
X45088143Y-59100500D01*
X45094646Y-59100500D01*
X45279803Y-59061144D01*
X45452730Y-58984151D01*
X45577116Y-58893779D01*
X45624219Y-58872808D01*
X45675781Y-58872808D01*
X45722883Y-58893779D01*
X45847270Y-58984151D01*
X46020197Y-59061144D01*
X46205354Y-59100500D01*
X46388143Y-59100500D01*
X46394646Y-59100500D01*
X46579803Y-59061144D01*
X46752730Y-58984151D01*
X46905871Y-58872888D01*
X47032533Y-58732216D01*
X47127179Y-58568284D01*
X47149366Y-58500000D01*
X59294540Y-58500000D01*
X59295219Y-58506460D01*
X59313646Y-58681795D01*
X59313647Y-58681803D01*
X59314326Y-58688256D01*
X59316331Y-58694428D01*
X59316333Y-58694435D01*
X59370813Y-58862105D01*
X59372821Y-58868284D01*
X59376068Y-58873908D01*
X59376069Y-58873910D01*
X59441242Y-58986794D01*
X59467467Y-59032216D01*
X59594129Y-59172888D01*
X59747270Y-59284151D01*
X59920197Y-59361144D01*
X60105354Y-59400500D01*
X60288143Y-59400500D01*
X60294646Y-59400500D01*
X60479803Y-59361144D01*
X60652730Y-59284151D01*
X60805871Y-59172888D01*
X60932533Y-59032216D01*
X61027179Y-58868284D01*
X61085674Y-58688256D01*
X61105460Y-58500000D01*
X61085674Y-58311744D01*
X61027179Y-58131716D01*
X60932533Y-57967784D01*
X60860925Y-57888256D01*
X60810220Y-57831942D01*
X60810219Y-57831941D01*
X60805871Y-57827112D01*
X60800613Y-57823292D01*
X60800611Y-57823290D01*
X60657988Y-57719669D01*
X60657987Y-57719668D01*
X60652730Y-57715849D01*
X60646792Y-57713205D01*
X60617134Y-57700000D01*
X63094540Y-57700000D01*
X63095219Y-57706460D01*
X63113646Y-57881795D01*
X63113647Y-57881803D01*
X63114326Y-57888256D01*
X63116331Y-57894428D01*
X63116333Y-57894435D01*
X63154450Y-58011744D01*
X63172821Y-58068284D01*
X63176068Y-58073908D01*
X63176069Y-58073910D01*
X63206194Y-58126089D01*
X63267467Y-58232216D01*
X63271811Y-58237041D01*
X63271813Y-58237043D01*
X63344891Y-58318204D01*
X63394129Y-58372888D01*
X63547270Y-58484151D01*
X63720197Y-58561144D01*
X63905354Y-58600500D01*
X64088143Y-58600500D01*
X64094646Y-58600500D01*
X64279803Y-58561144D01*
X64452730Y-58484151D01*
X64605871Y-58372888D01*
X64732533Y-58232216D01*
X64827179Y-58068284D01*
X64885674Y-57888256D01*
X64905460Y-57700000D01*
X64885674Y-57511744D01*
X64827179Y-57331716D01*
X64732533Y-57167784D01*
X64605871Y-57027112D01*
X64600613Y-57023292D01*
X64600611Y-57023290D01*
X64457988Y-56919669D01*
X64457987Y-56919668D01*
X64452730Y-56915849D01*
X64446792Y-56913205D01*
X64285745Y-56841501D01*
X64285740Y-56841499D01*
X64279803Y-56838856D01*
X64273444Y-56837504D01*
X64273440Y-56837503D01*
X64101008Y-56800852D01*
X64101005Y-56800851D01*
X64094646Y-56799500D01*
X63905354Y-56799500D01*
X63898995Y-56800851D01*
X63898991Y-56800852D01*
X63726559Y-56837503D01*
X63726552Y-56837505D01*
X63720197Y-56838856D01*
X63714262Y-56841498D01*
X63714254Y-56841501D01*
X63553207Y-56913205D01*
X63553202Y-56913207D01*
X63547270Y-56915849D01*
X63542016Y-56919665D01*
X63542011Y-56919669D01*
X63399388Y-57023290D01*
X63399381Y-57023295D01*
X63394129Y-57027112D01*
X63389784Y-57031937D01*
X63389779Y-57031942D01*
X63271813Y-57162956D01*
X63271808Y-57162962D01*
X63267467Y-57167784D01*
X63264222Y-57173404D01*
X63264218Y-57173410D01*
X63176069Y-57326089D01*
X63176066Y-57326094D01*
X63172821Y-57331716D01*
X63170815Y-57337888D01*
X63170813Y-57337894D01*
X63116333Y-57505564D01*
X63116331Y-57505573D01*
X63114326Y-57511744D01*
X63113648Y-57518194D01*
X63113646Y-57518204D01*
X63100966Y-57638856D01*
X63094540Y-57700000D01*
X60617134Y-57700000D01*
X60485745Y-57641501D01*
X60485740Y-57641499D01*
X60479803Y-57638856D01*
X60473444Y-57637504D01*
X60473440Y-57637503D01*
X60301008Y-57600852D01*
X60301005Y-57600851D01*
X60294646Y-57599500D01*
X60105354Y-57599500D01*
X60098995Y-57600851D01*
X60098991Y-57600852D01*
X59926559Y-57637503D01*
X59926552Y-57637505D01*
X59920197Y-57638856D01*
X59914262Y-57641498D01*
X59914254Y-57641501D01*
X59753207Y-57713205D01*
X59753202Y-57713207D01*
X59747270Y-57715849D01*
X59742016Y-57719665D01*
X59742011Y-57719669D01*
X59599388Y-57823290D01*
X59599381Y-57823295D01*
X59594129Y-57827112D01*
X59589784Y-57831937D01*
X59589779Y-57831942D01*
X59471813Y-57962956D01*
X59471808Y-57962962D01*
X59467467Y-57967784D01*
X59464222Y-57973404D01*
X59464218Y-57973410D01*
X59376069Y-58126089D01*
X59376066Y-58126094D01*
X59372821Y-58131716D01*
X59370815Y-58137888D01*
X59370813Y-58137894D01*
X59316333Y-58305564D01*
X59316331Y-58305573D01*
X59314326Y-58311744D01*
X59313648Y-58318194D01*
X59313646Y-58318204D01*
X59296607Y-58480330D01*
X59294540Y-58500000D01*
X47149366Y-58500000D01*
X47185674Y-58388256D01*
X47205460Y-58200000D01*
X47185674Y-58011744D01*
X47127179Y-57831716D01*
X47032533Y-57667784D01*
X46905871Y-57527112D01*
X46900613Y-57523292D01*
X46900611Y-57523290D01*
X46757988Y-57419669D01*
X46757987Y-57419668D01*
X46752730Y-57415849D01*
X46746792Y-57413205D01*
X46585745Y-57341501D01*
X46585740Y-57341499D01*
X46579803Y-57338856D01*
X46573444Y-57337504D01*
X46573440Y-57337503D01*
X46401008Y-57300852D01*
X46401005Y-57300851D01*
X46394646Y-57299500D01*
X46205354Y-57299500D01*
X46198995Y-57300851D01*
X46198991Y-57300852D01*
X46026559Y-57337503D01*
X46026552Y-57337505D01*
X46020197Y-57338856D01*
X46014262Y-57341498D01*
X46014254Y-57341501D01*
X45853207Y-57413205D01*
X45853202Y-57413207D01*
X45847270Y-57415849D01*
X45842016Y-57419665D01*
X45842011Y-57419669D01*
X45722885Y-57506219D01*
X45675781Y-57527191D01*
X45624219Y-57527191D01*
X45577115Y-57506219D01*
X45457988Y-57419669D01*
X45457987Y-57419668D01*
X45452730Y-57415849D01*
X45446792Y-57413205D01*
X45285745Y-57341501D01*
X45285740Y-57341499D01*
X45279803Y-57338856D01*
X45273444Y-57337504D01*
X45273440Y-57337503D01*
X45101008Y-57300852D01*
X45101005Y-57300851D01*
X45094646Y-57299500D01*
X44905354Y-57299500D01*
X44898995Y-57300851D01*
X44898991Y-57300852D01*
X44726559Y-57337503D01*
X44726552Y-57337505D01*
X44720197Y-57338856D01*
X44714262Y-57341498D01*
X44714254Y-57341501D01*
X44553207Y-57413205D01*
X44553202Y-57413207D01*
X44547270Y-57415849D01*
X44542016Y-57419665D01*
X44542011Y-57419669D01*
X44399388Y-57523290D01*
X44399381Y-57523295D01*
X44394129Y-57527112D01*
X44389784Y-57531937D01*
X44389779Y-57531942D01*
X44271813Y-57662956D01*
X44271808Y-57662962D01*
X44267467Y-57667784D01*
X44264222Y-57673404D01*
X44264218Y-57673410D01*
X44176069Y-57826089D01*
X44176066Y-57826094D01*
X44172821Y-57831716D01*
X44170815Y-57837888D01*
X44170813Y-57837894D01*
X44116333Y-58005564D01*
X44116331Y-58005573D01*
X44114326Y-58011744D01*
X44113648Y-58018194D01*
X44113646Y-58018204D01*
X44101067Y-58137894D01*
X44094540Y-58200000D01*
X27500500Y-58200000D01*
X27500500Y-56600000D01*
X73394540Y-56600000D01*
X73395219Y-56606460D01*
X73413646Y-56781795D01*
X73413647Y-56781803D01*
X73414326Y-56788256D01*
X73416331Y-56794428D01*
X73416333Y-56794435D01*
X73457025Y-56919669D01*
X73472821Y-56968284D01*
X73476068Y-56973908D01*
X73476069Y-56973910D01*
X73504578Y-57023290D01*
X73567467Y-57132216D01*
X73571811Y-57137041D01*
X73571813Y-57137043D01*
X73604558Y-57173410D01*
X73694129Y-57272888D01*
X73847270Y-57384151D01*
X74020197Y-57461144D01*
X74205354Y-57500500D01*
X74388143Y-57500500D01*
X74394646Y-57500500D01*
X74579803Y-57461144D01*
X74752730Y-57384151D01*
X74905871Y-57272888D01*
X75032533Y-57132216D01*
X75127179Y-56968284D01*
X75185674Y-56788256D01*
X75205460Y-56600000D01*
X75185674Y-56411744D01*
X75127179Y-56231716D01*
X75032533Y-56067784D01*
X74905871Y-55927112D01*
X74900613Y-55923292D01*
X74900611Y-55923290D01*
X74757988Y-55819669D01*
X74757987Y-55819668D01*
X74752730Y-55815849D01*
X74746792Y-55813205D01*
X74585745Y-55741501D01*
X74585740Y-55741499D01*
X74579803Y-55738856D01*
X74573444Y-55737504D01*
X74573440Y-55737503D01*
X74401008Y-55700852D01*
X74401005Y-55700851D01*
X74394646Y-55699500D01*
X74205354Y-55699500D01*
X74198995Y-55700851D01*
X74198991Y-55700852D01*
X74026559Y-55737503D01*
X74026552Y-55737505D01*
X74020197Y-55738856D01*
X74014262Y-55741498D01*
X74014254Y-55741501D01*
X73853207Y-55813205D01*
X73853202Y-55813207D01*
X73847270Y-55815849D01*
X73842016Y-55819665D01*
X73842011Y-55819669D01*
X73699388Y-55923290D01*
X73699381Y-55923295D01*
X73694129Y-55927112D01*
X73689784Y-55931937D01*
X73689779Y-55931942D01*
X73571813Y-56062956D01*
X73571808Y-56062962D01*
X73567467Y-56067784D01*
X73564222Y-56073404D01*
X73564218Y-56073410D01*
X73476069Y-56226089D01*
X73476066Y-56226094D01*
X73472821Y-56231716D01*
X73470815Y-56237888D01*
X73470813Y-56237894D01*
X73416333Y-56405564D01*
X73416331Y-56405573D01*
X73414326Y-56411744D01*
X73413648Y-56418194D01*
X73413646Y-56418204D01*
X73395962Y-56586464D01*
X73394540Y-56600000D01*
X27500500Y-56600000D01*
X27500500Y-54900000D01*
X48394540Y-54900000D01*
X48395219Y-54906460D01*
X48413646Y-55081795D01*
X48413647Y-55081803D01*
X48414326Y-55088256D01*
X48416331Y-55094428D01*
X48416333Y-55094435D01*
X48470813Y-55262105D01*
X48472821Y-55268284D01*
X48567467Y-55432216D01*
X48694129Y-55572888D01*
X48847270Y-55684151D01*
X49020197Y-55761144D01*
X49205354Y-55800500D01*
X49388143Y-55800500D01*
X49394646Y-55800500D01*
X49579803Y-55761144D01*
X49752730Y-55684151D01*
X49905871Y-55572888D01*
X50032533Y-55432216D01*
X50127179Y-55268284D01*
X50185674Y-55088256D01*
X50205460Y-54900000D01*
X50185674Y-54711744D01*
X50127179Y-54531716D01*
X50032533Y-54367784D01*
X49950528Y-54276709D01*
X49910220Y-54231942D01*
X49910219Y-54231941D01*
X49905871Y-54227112D01*
X49900613Y-54223292D01*
X49900611Y-54223290D01*
X49757988Y-54119669D01*
X49757987Y-54119668D01*
X49752730Y-54115849D01*
X49746792Y-54113205D01*
X49585745Y-54041501D01*
X49585740Y-54041499D01*
X49579803Y-54038856D01*
X49573444Y-54037504D01*
X49573440Y-54037503D01*
X49401008Y-54000852D01*
X49401005Y-54000851D01*
X49394646Y-53999500D01*
X49205354Y-53999500D01*
X49198995Y-54000851D01*
X49198991Y-54000852D01*
X49026559Y-54037503D01*
X49026552Y-54037505D01*
X49020197Y-54038856D01*
X49014262Y-54041498D01*
X49014254Y-54041501D01*
X48853207Y-54113205D01*
X48853202Y-54113207D01*
X48847270Y-54115849D01*
X48842016Y-54119665D01*
X48842011Y-54119669D01*
X48699388Y-54223290D01*
X48699381Y-54223295D01*
X48694129Y-54227112D01*
X48689784Y-54231937D01*
X48689779Y-54231942D01*
X48571813Y-54362956D01*
X48571808Y-54362962D01*
X48567467Y-54367784D01*
X48564222Y-54373404D01*
X48564218Y-54373410D01*
X48476069Y-54526089D01*
X48476066Y-54526094D01*
X48472821Y-54531716D01*
X48470815Y-54537888D01*
X48470813Y-54537894D01*
X48416333Y-54705564D01*
X48416331Y-54705573D01*
X48414326Y-54711744D01*
X48413648Y-54718194D01*
X48413646Y-54718204D01*
X48395962Y-54886464D01*
X48394540Y-54900000D01*
X27500500Y-54900000D01*
X27500500Y-53600000D01*
X63094540Y-53600000D01*
X63095219Y-53606460D01*
X63113646Y-53781795D01*
X63113647Y-53781803D01*
X63114326Y-53788256D01*
X63116331Y-53794428D01*
X63116333Y-53794435D01*
X63170813Y-53962105D01*
X63172821Y-53968284D01*
X63176068Y-53973908D01*
X63176069Y-53973910D01*
X63258017Y-54115849D01*
X63267467Y-54132216D01*
X63271811Y-54137041D01*
X63271813Y-54137043D01*
X63352912Y-54227112D01*
X63394129Y-54272888D01*
X63547270Y-54384151D01*
X63720197Y-54461144D01*
X63905354Y-54500500D01*
X64088143Y-54500500D01*
X64094646Y-54500500D01*
X64279803Y-54461144D01*
X64452730Y-54384151D01*
X64605871Y-54272888D01*
X64732533Y-54132216D01*
X64827179Y-53968284D01*
X64885674Y-53788256D01*
X64905460Y-53600000D01*
X64885674Y-53411744D01*
X64827179Y-53231716D01*
X64732533Y-53067784D01*
X64605871Y-52927112D01*
X64600613Y-52923292D01*
X64600611Y-52923290D01*
X64457988Y-52819669D01*
X64457987Y-52819668D01*
X64452730Y-52815849D01*
X64446792Y-52813205D01*
X64285745Y-52741501D01*
X64285740Y-52741499D01*
X64279803Y-52738856D01*
X64273444Y-52737504D01*
X64273440Y-52737503D01*
X64101008Y-52700852D01*
X64101005Y-52700851D01*
X64094646Y-52699500D01*
X63905354Y-52699500D01*
X63898995Y-52700851D01*
X63898991Y-52700852D01*
X63726559Y-52737503D01*
X63726552Y-52737505D01*
X63720197Y-52738856D01*
X63714262Y-52741498D01*
X63714254Y-52741501D01*
X63553207Y-52813205D01*
X63553202Y-52813207D01*
X63547270Y-52815849D01*
X63542016Y-52819665D01*
X63542011Y-52819669D01*
X63399388Y-52923290D01*
X63399381Y-52923295D01*
X63394129Y-52927112D01*
X63389784Y-52931937D01*
X63389779Y-52931942D01*
X63271813Y-53062956D01*
X63271808Y-53062962D01*
X63267467Y-53067784D01*
X63264222Y-53073404D01*
X63264218Y-53073410D01*
X63176069Y-53226089D01*
X63176066Y-53226094D01*
X63172821Y-53231716D01*
X63170815Y-53237888D01*
X63170813Y-53237894D01*
X63116333Y-53405564D01*
X63116331Y-53405573D01*
X63114326Y-53411744D01*
X63113648Y-53418194D01*
X63113646Y-53418204D01*
X63095962Y-53586464D01*
X63094540Y-53600000D01*
X27500500Y-53600000D01*
X27500500Y-52400000D01*
X53394540Y-52400000D01*
X53395219Y-52406460D01*
X53413646Y-52581795D01*
X53413647Y-52581803D01*
X53414326Y-52588256D01*
X53416331Y-52594428D01*
X53416333Y-52594435D01*
X53470813Y-52762105D01*
X53472821Y-52768284D01*
X53476068Y-52773908D01*
X53476069Y-52773910D01*
X53562313Y-52923290D01*
X53567467Y-52932216D01*
X53694129Y-53072888D01*
X53847270Y-53184151D01*
X54020197Y-53261144D01*
X54205354Y-53300500D01*
X54388143Y-53300500D01*
X54394646Y-53300500D01*
X54579803Y-53261144D01*
X54752730Y-53184151D01*
X54905871Y-53072888D01*
X55032533Y-52932216D01*
X55127179Y-52768284D01*
X55185674Y-52588256D01*
X55205460Y-52400000D01*
X55185674Y-52211744D01*
X55127179Y-52031716D01*
X55032533Y-51867784D01*
X54950528Y-51776709D01*
X54910220Y-51731942D01*
X54910219Y-51731941D01*
X54905871Y-51727112D01*
X54900613Y-51723292D01*
X54900611Y-51723290D01*
X54757988Y-51619669D01*
X54757987Y-51619668D01*
X54752730Y-51615849D01*
X54746792Y-51613205D01*
X54585745Y-51541501D01*
X54585740Y-51541499D01*
X54579803Y-51538856D01*
X54573444Y-51537504D01*
X54573440Y-51537503D01*
X54401008Y-51500852D01*
X54401005Y-51500851D01*
X54394646Y-51499500D01*
X54205354Y-51499500D01*
X54198995Y-51500851D01*
X54198991Y-51500852D01*
X54026559Y-51537503D01*
X54026552Y-51537505D01*
X54020197Y-51538856D01*
X54014262Y-51541498D01*
X54014254Y-51541501D01*
X53853207Y-51613205D01*
X53853202Y-51613207D01*
X53847270Y-51615849D01*
X53842016Y-51619665D01*
X53842011Y-51619669D01*
X53699388Y-51723290D01*
X53699381Y-51723295D01*
X53694129Y-51727112D01*
X53689784Y-51731937D01*
X53689779Y-51731942D01*
X53571813Y-51862956D01*
X53571808Y-51862962D01*
X53567467Y-51867784D01*
X53564222Y-51873404D01*
X53564218Y-51873410D01*
X53476069Y-52026089D01*
X53476066Y-52026094D01*
X53472821Y-52031716D01*
X53470815Y-52037888D01*
X53470813Y-52037894D01*
X53416333Y-52205564D01*
X53416331Y-52205573D01*
X53414326Y-52211744D01*
X53413648Y-52218194D01*
X53413646Y-52218204D01*
X53395962Y-52386464D01*
X53394540Y-52400000D01*
X27500500Y-52400000D01*
X27500500Y-51100000D01*
X65294540Y-51100000D01*
X65295219Y-51106460D01*
X65313646Y-51281795D01*
X65313647Y-51281803D01*
X65314326Y-51288256D01*
X65316331Y-51294428D01*
X65316333Y-51294435D01*
X65370813Y-51462105D01*
X65372821Y-51468284D01*
X65376068Y-51473908D01*
X65376069Y-51473910D01*
X65458017Y-51615849D01*
X65467467Y-51632216D01*
X65471811Y-51637041D01*
X65471813Y-51637043D01*
X65552912Y-51727112D01*
X65594129Y-51772888D01*
X65747270Y-51884151D01*
X65920197Y-51961144D01*
X66105354Y-52000500D01*
X66288143Y-52000500D01*
X66294646Y-52000500D01*
X66479803Y-51961144D01*
X66652730Y-51884151D01*
X66805871Y-51772888D01*
X66932533Y-51632216D01*
X67027179Y-51468284D01*
X67085674Y-51288256D01*
X67105460Y-51100000D01*
X67085674Y-50911744D01*
X67027179Y-50731716D01*
X66932533Y-50567784D01*
X66805871Y-50427112D01*
X66800613Y-50423292D01*
X66800611Y-50423290D01*
X66657988Y-50319669D01*
X66657987Y-50319668D01*
X66652730Y-50315849D01*
X66646792Y-50313205D01*
X66485745Y-50241501D01*
X66485740Y-50241499D01*
X66479803Y-50238856D01*
X66473444Y-50237504D01*
X66473440Y-50237503D01*
X66301008Y-50200852D01*
X66301005Y-50200851D01*
X66294646Y-50199500D01*
X66105354Y-50199500D01*
X66098995Y-50200851D01*
X66098991Y-50200852D01*
X65926559Y-50237503D01*
X65926552Y-50237505D01*
X65920197Y-50238856D01*
X65914262Y-50241498D01*
X65914254Y-50241501D01*
X65753207Y-50313205D01*
X65753202Y-50313207D01*
X65747270Y-50315849D01*
X65742016Y-50319665D01*
X65742011Y-50319669D01*
X65599388Y-50423290D01*
X65599381Y-50423295D01*
X65594129Y-50427112D01*
X65589784Y-50431937D01*
X65589779Y-50431942D01*
X65471813Y-50562956D01*
X65471808Y-50562962D01*
X65467467Y-50567784D01*
X65464222Y-50573404D01*
X65464218Y-50573410D01*
X65376069Y-50726089D01*
X65376066Y-50726094D01*
X65372821Y-50731716D01*
X65370815Y-50737888D01*
X65370813Y-50737894D01*
X65316333Y-50905564D01*
X65316331Y-50905573D01*
X65314326Y-50911744D01*
X65313648Y-50918194D01*
X65313646Y-50918204D01*
X65295962Y-51086464D01*
X65294540Y-51100000D01*
X27500500Y-51100000D01*
X27500500Y-49343935D01*
X68045669Y-49343935D01*
X68076135Y-49516711D01*
X68145623Y-49677804D01*
X68250390Y-49818530D01*
X68384786Y-49931302D01*
X68541567Y-50010040D01*
X68712279Y-50050500D01*
X68840111Y-50050500D01*
X68843709Y-50050500D01*
X68974255Y-50035241D01*
X69139117Y-49975237D01*
X69285696Y-49878830D01*
X69406092Y-49751218D01*
X69493812Y-49599281D01*
X69544130Y-49431210D01*
X69554331Y-49256065D01*
X69523865Y-49083289D01*
X69454377Y-48922196D01*
X69349610Y-48781470D01*
X69277747Y-48721170D01*
X69220745Y-48673339D01*
X69220744Y-48673338D01*
X69215214Y-48668698D01*
X69135641Y-48628735D01*
X69064883Y-48593199D01*
X69064880Y-48593198D01*
X69058433Y-48589960D01*
X69051407Y-48588294D01*
X69051405Y-48588294D01*
X68894749Y-48551165D01*
X68894743Y-48551164D01*
X68887721Y-48549500D01*
X68756291Y-48549500D01*
X68752725Y-48549916D01*
X68752721Y-48549917D01*
X68632915Y-48563920D01*
X68632907Y-48563921D01*
X68625745Y-48564759D01*
X68618967Y-48567225D01*
X68618958Y-48567228D01*
X68467674Y-48622291D01*
X68467671Y-48622292D01*
X68460883Y-48624763D01*
X68454850Y-48628730D01*
X68454842Y-48628735D01*
X68320340Y-48717199D01*
X68320334Y-48717203D01*
X68314304Y-48721170D01*
X68309351Y-48726419D01*
X68309346Y-48726424D01*
X68198865Y-48843527D01*
X68198861Y-48843531D01*
X68193908Y-48848782D01*
X68190299Y-48855032D01*
X68190296Y-48855037D01*
X68109799Y-48994463D01*
X68109796Y-48994468D01*
X68106188Y-49000719D01*
X68104117Y-49007634D01*
X68104117Y-49007636D01*
X68057941Y-49161869D01*
X68057939Y-49161877D01*
X68055870Y-49168790D01*
X68055450Y-49175996D01*
X68055449Y-49176004D01*
X68046088Y-49336725D01*
X68046088Y-49336733D01*
X68045669Y-49343935D01*
X27500500Y-49343935D01*
X27500500Y-48000000D01*
X36819464Y-48000000D01*
X36839565Y-48216923D01*
X36899183Y-48426459D01*
X36901735Y-48431585D01*
X36901737Y-48431589D01*
X36993733Y-48616342D01*
X36993735Y-48616346D01*
X36996288Y-48621472D01*
X37127573Y-48795322D01*
X37288568Y-48942088D01*
X37473790Y-49056772D01*
X37676931Y-49135470D01*
X37891074Y-49175500D01*
X38103197Y-49175500D01*
X38108926Y-49175500D01*
X38323069Y-49135470D01*
X38526210Y-49056772D01*
X38711432Y-48942088D01*
X38872427Y-48795322D01*
X38901046Y-48757423D01*
X38944728Y-48721150D01*
X39000000Y-48708150D01*
X39055272Y-48721150D01*
X39098953Y-48757423D01*
X39127573Y-48795322D01*
X39131807Y-48799182D01*
X39131810Y-48799185D01*
X39154982Y-48820309D01*
X39288568Y-48942088D01*
X39473790Y-49056772D01*
X39676931Y-49135470D01*
X39891074Y-49175500D01*
X40103197Y-49175500D01*
X40108926Y-49175500D01*
X40323069Y-49135470D01*
X40526210Y-49056772D01*
X40711432Y-48942088D01*
X40872427Y-48795322D01*
X41003712Y-48621472D01*
X41100817Y-48426459D01*
X41160435Y-48216923D01*
X41180536Y-48000000D01*
X41160435Y-47783077D01*
X41100817Y-47573541D01*
X41003712Y-47378528D01*
X40872427Y-47204678D01*
X40711432Y-47057912D01*
X40706562Y-47054897D01*
X40706560Y-47054895D01*
X40531086Y-46946247D01*
X40531085Y-46946246D01*
X40526210Y-46943228D01*
X40520863Y-46941156D01*
X40520860Y-46941155D01*
X40328417Y-46866602D01*
X40328418Y-46866602D01*
X40323069Y-46864530D01*
X40317443Y-46863478D01*
X40317435Y-46863476D01*
X40114555Y-46825552D01*
X40114552Y-46825551D01*
X40108926Y-46824500D01*
X39891074Y-46824500D01*
X39885448Y-46825551D01*
X39885444Y-46825552D01*
X39682564Y-46863476D01*
X39682553Y-46863478D01*
X39676931Y-46864530D01*
X39671584Y-46866601D01*
X39671582Y-46866602D01*
X39479139Y-46941155D01*
X39479132Y-46941158D01*
X39473790Y-46943228D01*
X39468918Y-46946244D01*
X39468913Y-46946247D01*
X39293439Y-47054895D01*
X39293431Y-47054900D01*
X39288568Y-47057912D01*
X39284337Y-47061768D01*
X39284333Y-47061772D01*
X39131813Y-47200812D01*
X39131809Y-47200816D01*
X39127573Y-47204678D01*
X39124118Y-47209253D01*
X39124112Y-47209260D01*
X39098951Y-47242577D01*
X39055268Y-47278849D01*
X38999997Y-47291848D01*
X38944726Y-47278848D01*
X38901045Y-47242575D01*
X38875887Y-47209260D01*
X38875882Y-47209253D01*
X38875881Y-47209252D01*
X38872427Y-47204678D01*
X38748425Y-47091635D01*
X38712698Y-47033934D01*
X38712698Y-46966066D01*
X38748425Y-46908364D01*
X38872427Y-46795322D01*
X39003712Y-46621472D01*
X39100817Y-46426459D01*
X39160435Y-46216923D01*
X39180536Y-46000000D01*
X39160435Y-45783077D01*
X39100817Y-45573541D01*
X39003712Y-45378528D01*
X38872427Y-45204678D01*
X38748425Y-45091635D01*
X38712698Y-45033934D01*
X38712698Y-44966066D01*
X38748425Y-44908364D01*
X38872427Y-44795322D01*
X38901049Y-44757419D01*
X38944725Y-44721151D01*
X38999997Y-44708150D01*
X39055269Y-44721149D01*
X39098952Y-44757422D01*
X39124116Y-44790744D01*
X39127573Y-44795322D01*
X39131807Y-44799182D01*
X39131810Y-44799185D01*
X39225597Y-44884683D01*
X39288568Y-44942088D01*
X39473790Y-45056772D01*
X39676931Y-45135470D01*
X39891074Y-45175500D01*
X40103197Y-45175500D01*
X40108926Y-45175500D01*
X40323069Y-45135470D01*
X40526210Y-45056772D01*
X40711432Y-44942088D01*
X40872427Y-44795322D01*
X41003712Y-44621472D01*
X41100817Y-44426459D01*
X41160435Y-44216923D01*
X41180536Y-44000000D01*
X70119464Y-44000000D01*
X70139565Y-44216923D01*
X70199183Y-44426459D01*
X70201735Y-44431585D01*
X70201737Y-44431589D01*
X70293733Y-44616342D01*
X70293735Y-44616346D01*
X70296288Y-44621472D01*
X70427573Y-44795322D01*
X70588568Y-44942088D01*
X70773790Y-45056772D01*
X70976931Y-45135470D01*
X71191074Y-45175500D01*
X71403197Y-45175500D01*
X71408926Y-45175500D01*
X71623069Y-45135470D01*
X71826210Y-45056772D01*
X72011432Y-44942088D01*
X72172427Y-44795322D01*
X72201048Y-44757422D01*
X72244728Y-44721150D01*
X72300000Y-44708150D01*
X72355272Y-44721150D01*
X72398952Y-44757422D01*
X72427573Y-44795322D01*
X72431807Y-44799182D01*
X72431810Y-44799185D01*
X72551573Y-44908363D01*
X72587301Y-44966066D01*
X72587301Y-45033934D01*
X72551573Y-45091637D01*
X72431813Y-45200811D01*
X72431803Y-45200821D01*
X72427573Y-45204678D01*
X72424119Y-45209251D01*
X72424116Y-45209255D01*
X72299741Y-45373955D01*
X72296288Y-45378528D01*
X72293738Y-45383648D01*
X72293733Y-45383657D01*
X72201737Y-45568410D01*
X72201733Y-45568418D01*
X72199183Y-45573541D01*
X72139565Y-45783077D01*
X72119464Y-46000000D01*
X72139565Y-46216923D01*
X72199183Y-46426459D01*
X72201735Y-46431585D01*
X72201737Y-46431589D01*
X72293733Y-46616342D01*
X72293735Y-46616346D01*
X72296288Y-46621472D01*
X72339027Y-46678068D01*
X72343808Y-46684399D01*
X72367776Y-46742820D01*
X72359867Y-46805469D01*
X72322131Y-46856100D01*
X72264354Y-46881582D01*
X72201520Y-46875307D01*
X72089752Y-46833620D01*
X72089750Y-46833619D01*
X72082483Y-46830909D01*
X72074770Y-46830079D01*
X72074767Y-46830079D01*
X72026180Y-46824855D01*
X72026169Y-46824854D01*
X72022873Y-46824500D01*
X72019550Y-46824500D01*
X70580439Y-46824500D01*
X70580420Y-46824500D01*
X70577128Y-46824501D01*
X70573850Y-46824853D01*
X70573838Y-46824854D01*
X70525231Y-46830079D01*
X70525225Y-46830080D01*
X70517517Y-46830909D01*
X70510252Y-46833618D01*
X70510246Y-46833620D01*
X70390980Y-46878104D01*
X70390978Y-46878104D01*
X70382669Y-46881204D01*
X70375572Y-46886516D01*
X70375568Y-46886519D01*
X70274550Y-46962141D01*
X70274546Y-46962144D01*
X70267454Y-46967454D01*
X70262144Y-46974546D01*
X70262141Y-46974550D01*
X70186519Y-47075568D01*
X70186516Y-47075572D01*
X70181204Y-47082669D01*
X70178104Y-47090978D01*
X70178104Y-47090980D01*
X70133620Y-47210247D01*
X70133619Y-47210250D01*
X70130909Y-47217517D01*
X70130079Y-47225227D01*
X70130079Y-47225232D01*
X70124855Y-47273819D01*
X70124854Y-47273831D01*
X70124500Y-47277127D01*
X70124500Y-47280448D01*
X70124500Y-47280449D01*
X70124500Y-48719560D01*
X70124500Y-48719578D01*
X70124501Y-48722872D01*
X70124853Y-48726150D01*
X70124854Y-48726161D01*
X70130079Y-48774768D01*
X70130080Y-48774773D01*
X70130909Y-48782483D01*
X70133619Y-48789749D01*
X70133620Y-48789753D01*
X70137138Y-48799185D01*
X70181204Y-48917331D01*
X70267454Y-49032546D01*
X70382669Y-49118796D01*
X70517517Y-49169091D01*
X70577127Y-49175500D01*
X72022872Y-49175499D01*
X72082483Y-49169091D01*
X72217331Y-49118796D01*
X72332546Y-49032546D01*
X72394785Y-48949404D01*
X72448934Y-48908215D01*
X72516666Y-48901796D01*
X72577588Y-48932078D01*
X72588568Y-48942088D01*
X72773790Y-49056772D01*
X72976931Y-49135470D01*
X73191074Y-49175500D01*
X73403197Y-49175500D01*
X73408926Y-49175500D01*
X73623069Y-49135470D01*
X73826210Y-49056772D01*
X74011432Y-48942088D01*
X74172427Y-48795322D01*
X74303712Y-48621472D01*
X74400817Y-48426459D01*
X74460435Y-48216923D01*
X74480536Y-48000000D01*
X74460435Y-47783077D01*
X74400817Y-47573541D01*
X74303712Y-47378528D01*
X74172427Y-47204678D01*
X74048425Y-47091635D01*
X74012698Y-47033934D01*
X74012698Y-46966066D01*
X74048425Y-46908364D01*
X74172427Y-46795322D01*
X74303712Y-46621472D01*
X74400817Y-46426459D01*
X74460435Y-46216923D01*
X74480536Y-46000000D01*
X74460435Y-45783077D01*
X74400817Y-45573541D01*
X74303712Y-45378528D01*
X74172427Y-45204678D01*
X74048425Y-45091635D01*
X74012698Y-45033934D01*
X74012698Y-44966066D01*
X74048425Y-44908364D01*
X74172427Y-44795322D01*
X74303712Y-44621472D01*
X74400817Y-44426459D01*
X74460435Y-44216923D01*
X74480536Y-44000000D01*
X74460435Y-43783077D01*
X74400817Y-43573541D01*
X74303712Y-43378528D01*
X74172427Y-43204678D01*
X74048425Y-43091635D01*
X74012698Y-43033934D01*
X74012698Y-42966066D01*
X74048425Y-42908364D01*
X74172427Y-42795322D01*
X74303712Y-42621472D01*
X74400817Y-42426459D01*
X74460435Y-42216923D01*
X74480536Y-42000000D01*
X74460435Y-41783077D01*
X74400817Y-41573541D01*
X74303712Y-41378528D01*
X74172427Y-41204678D01*
X74168190Y-41200815D01*
X74168186Y-41200811D01*
X74048426Y-41091636D01*
X74012698Y-41033933D01*
X74012698Y-40966064D01*
X74048422Y-40908366D01*
X74172427Y-40795322D01*
X74303712Y-40621472D01*
X74400817Y-40426459D01*
X74460435Y-40216923D01*
X74480536Y-40000000D01*
X74460435Y-39783077D01*
X74400817Y-39573541D01*
X74303712Y-39378528D01*
X74172427Y-39204678D01*
X74048425Y-39091635D01*
X74012698Y-39033934D01*
X74012698Y-38966066D01*
X74048425Y-38908364D01*
X74172427Y-38795322D01*
X74303712Y-38621472D01*
X74400817Y-38426459D01*
X74460435Y-38216923D01*
X74480536Y-38000000D01*
X74460435Y-37783077D01*
X74400817Y-37573541D01*
X74303712Y-37378528D01*
X74172427Y-37204678D01*
X74048425Y-37091635D01*
X74012698Y-37033934D01*
X74012698Y-36966066D01*
X74048425Y-36908364D01*
X74172427Y-36795322D01*
X74303712Y-36621472D01*
X74400817Y-36426459D01*
X74460435Y-36216923D01*
X74480536Y-36000000D01*
X74460435Y-35783077D01*
X74400817Y-35573541D01*
X74303712Y-35378528D01*
X74172427Y-35204678D01*
X74168190Y-35200815D01*
X74168186Y-35200811D01*
X74048426Y-35091636D01*
X74012698Y-35033933D01*
X74012698Y-34966064D01*
X74048422Y-34908366D01*
X74172427Y-34795322D01*
X74303712Y-34621472D01*
X74400817Y-34426459D01*
X74460435Y-34216923D01*
X74480536Y-34000000D01*
X74460435Y-33783077D01*
X74400817Y-33573541D01*
X74303712Y-33378528D01*
X74172427Y-33204678D01*
X74048425Y-33091635D01*
X74012698Y-33033934D01*
X74012698Y-32966066D01*
X74048425Y-32908364D01*
X74172427Y-32795322D01*
X74303712Y-32621472D01*
X74400817Y-32426459D01*
X74460435Y-32216923D01*
X74480536Y-32000000D01*
X74460435Y-31783077D01*
X74400817Y-31573541D01*
X74303712Y-31378528D01*
X74172427Y-31204678D01*
X74048425Y-31091635D01*
X74012698Y-31033934D01*
X74012698Y-30966066D01*
X74048425Y-30908364D01*
X74172427Y-30795322D01*
X74303712Y-30621472D01*
X74400817Y-30426459D01*
X74460435Y-30216923D01*
X74480536Y-30000000D01*
X74460435Y-29783077D01*
X74400817Y-29573541D01*
X74303712Y-29378528D01*
X74172427Y-29204678D01*
X74011432Y-29057912D01*
X74006562Y-29054897D01*
X74006560Y-29054895D01*
X73831086Y-28946247D01*
X73831085Y-28946246D01*
X73826210Y-28943228D01*
X73820863Y-28941156D01*
X73820860Y-28941155D01*
X73628417Y-28866602D01*
X73628418Y-28866602D01*
X73623069Y-28864530D01*
X73617443Y-28863478D01*
X73617435Y-28863476D01*
X73414555Y-28825552D01*
X73414552Y-28825551D01*
X73408926Y-28824500D01*
X73191074Y-28824500D01*
X73185448Y-28825551D01*
X73185444Y-28825552D01*
X72982564Y-28863476D01*
X72982553Y-28863478D01*
X72976931Y-28864530D01*
X72971584Y-28866601D01*
X72971582Y-28866602D01*
X72779139Y-28941155D01*
X72779132Y-28941158D01*
X72773790Y-28943228D01*
X72768918Y-28946244D01*
X72768913Y-28946247D01*
X72593439Y-29054895D01*
X72593431Y-29054900D01*
X72588568Y-29057912D01*
X72584337Y-29061768D01*
X72584333Y-29061772D01*
X72431813Y-29200812D01*
X72431809Y-29200816D01*
X72427573Y-29204678D01*
X72424120Y-29209249D01*
X72424114Y-29209257D01*
X72398953Y-29242576D01*
X72355271Y-29278848D01*
X72300000Y-29291848D01*
X72244729Y-29278848D01*
X72201047Y-29242576D01*
X72175885Y-29209257D01*
X72175883Y-29209255D01*
X72172427Y-29204678D01*
X72011432Y-29057912D01*
X72006562Y-29054897D01*
X72006560Y-29054895D01*
X71831086Y-28946247D01*
X71831085Y-28946246D01*
X71826210Y-28943228D01*
X71820863Y-28941156D01*
X71820860Y-28941155D01*
X71628417Y-28866602D01*
X71628418Y-28866602D01*
X71623069Y-28864530D01*
X71617443Y-28863478D01*
X71617435Y-28863476D01*
X71414555Y-28825552D01*
X71414552Y-28825551D01*
X71408926Y-28824500D01*
X71191074Y-28824500D01*
X71185448Y-28825551D01*
X71185444Y-28825552D01*
X70982564Y-28863476D01*
X70982553Y-28863478D01*
X70976931Y-28864530D01*
X70971584Y-28866601D01*
X70971582Y-28866602D01*
X70779139Y-28941155D01*
X70779132Y-28941158D01*
X70773790Y-28943228D01*
X70768918Y-28946244D01*
X70768913Y-28946247D01*
X70593439Y-29054895D01*
X70593431Y-29054900D01*
X70588568Y-29057912D01*
X70584337Y-29061768D01*
X70584333Y-29061772D01*
X70431813Y-29200812D01*
X70431809Y-29200816D01*
X70427573Y-29204678D01*
X70424119Y-29209251D01*
X70424116Y-29209255D01*
X70300000Y-29373612D01*
X70296288Y-29378528D01*
X70293738Y-29383648D01*
X70293733Y-29383657D01*
X70201737Y-29568410D01*
X70201733Y-29568418D01*
X70199183Y-29573541D01*
X70139565Y-29783077D01*
X70119464Y-30000000D01*
X70139565Y-30216923D01*
X70199183Y-30426459D01*
X70201735Y-30431585D01*
X70201737Y-30431589D01*
X70293733Y-30616342D01*
X70293735Y-30616346D01*
X70296288Y-30621472D01*
X70427573Y-30795322D01*
X70431809Y-30799183D01*
X70431813Y-30799188D01*
X70551573Y-30908363D01*
X70587301Y-30966066D01*
X70587301Y-31033934D01*
X70551573Y-31091637D01*
X70431813Y-31200811D01*
X70431803Y-31200821D01*
X70427573Y-31204678D01*
X70424119Y-31209251D01*
X70424116Y-31209255D01*
X70361745Y-31291848D01*
X70296288Y-31378528D01*
X70293738Y-31383648D01*
X70293733Y-31383657D01*
X70201737Y-31568410D01*
X70201733Y-31568418D01*
X70199183Y-31573541D01*
X70139565Y-31783077D01*
X70119464Y-32000000D01*
X70139565Y-32216923D01*
X70199183Y-32426459D01*
X70201735Y-32431585D01*
X70201737Y-32431589D01*
X70293733Y-32616342D01*
X70293735Y-32616346D01*
X70296288Y-32621472D01*
X70427573Y-32795322D01*
X70431809Y-32799183D01*
X70431813Y-32799188D01*
X70551573Y-32908363D01*
X70587301Y-32966066D01*
X70587301Y-33033934D01*
X70551573Y-33091637D01*
X70431813Y-33200811D01*
X70431803Y-33200821D01*
X70427573Y-33204678D01*
X70424119Y-33209251D01*
X70424116Y-33209255D01*
X70361745Y-33291848D01*
X70296288Y-33378528D01*
X70293738Y-33383648D01*
X70293733Y-33383657D01*
X70201737Y-33568410D01*
X70201733Y-33568418D01*
X70199183Y-33573541D01*
X70139565Y-33783077D01*
X70119464Y-34000000D01*
X70139565Y-34216923D01*
X70199183Y-34426459D01*
X70201735Y-34431585D01*
X70201737Y-34431589D01*
X70293733Y-34616342D01*
X70293735Y-34616346D01*
X70296288Y-34621472D01*
X70427573Y-34795322D01*
X70551573Y-34908363D01*
X70587301Y-34966064D01*
X70587302Y-35033933D01*
X70551573Y-35091636D01*
X70427573Y-35204678D01*
X70424119Y-35209251D01*
X70424116Y-35209255D01*
X70361745Y-35291848D01*
X70296288Y-35378528D01*
X70293738Y-35383648D01*
X70293733Y-35383657D01*
X70201737Y-35568410D01*
X70201733Y-35568418D01*
X70199183Y-35573541D01*
X70139565Y-35783077D01*
X70119464Y-36000000D01*
X70139565Y-36216923D01*
X70199183Y-36426459D01*
X70201735Y-36431585D01*
X70201737Y-36431589D01*
X70293733Y-36616342D01*
X70293735Y-36616346D01*
X70296288Y-36621472D01*
X70427573Y-36795322D01*
X70551573Y-36908363D01*
X70587301Y-36966064D01*
X70587302Y-37033933D01*
X70551573Y-37091636D01*
X70427573Y-37204678D01*
X70424119Y-37209251D01*
X70424116Y-37209255D01*
X70361745Y-37291848D01*
X70296288Y-37378528D01*
X70293738Y-37383648D01*
X70293733Y-37383657D01*
X70201737Y-37568410D01*
X70201733Y-37568418D01*
X70199183Y-37573541D01*
X70139565Y-37783077D01*
X70119464Y-38000000D01*
X70139565Y-38216923D01*
X70199183Y-38426459D01*
X70201735Y-38431585D01*
X70201737Y-38431589D01*
X70293733Y-38616342D01*
X70293735Y-38616346D01*
X70296288Y-38621472D01*
X70427573Y-38795322D01*
X70431809Y-38799183D01*
X70431813Y-38799188D01*
X70551573Y-38908363D01*
X70587301Y-38966066D01*
X70587301Y-39033934D01*
X70551573Y-39091637D01*
X70431813Y-39200811D01*
X70431803Y-39200821D01*
X70427573Y-39204678D01*
X70424119Y-39209251D01*
X70424116Y-39209255D01*
X70361745Y-39291848D01*
X70296288Y-39378528D01*
X70293738Y-39383648D01*
X70293733Y-39383657D01*
X70201737Y-39568410D01*
X70201733Y-39568418D01*
X70199183Y-39573541D01*
X70139565Y-39783077D01*
X70119464Y-40000000D01*
X70139565Y-40216923D01*
X70199183Y-40426459D01*
X70201735Y-40431585D01*
X70201737Y-40431589D01*
X70293733Y-40616342D01*
X70293735Y-40616346D01*
X70296288Y-40621472D01*
X70427573Y-40795322D01*
X70551573Y-40908363D01*
X70587301Y-40966064D01*
X70587302Y-41033933D01*
X70551573Y-41091636D01*
X70427573Y-41204678D01*
X70424119Y-41209251D01*
X70424116Y-41209255D01*
X70353994Y-41302112D01*
X70296288Y-41378528D01*
X70293738Y-41383648D01*
X70293733Y-41383657D01*
X70201737Y-41568410D01*
X70201733Y-41568418D01*
X70199183Y-41573541D01*
X70139565Y-41783077D01*
X70139036Y-41788782D01*
X70139036Y-41788784D01*
X70122379Y-41968540D01*
X70119464Y-42000000D01*
X70119993Y-42005709D01*
X70135164Y-42169435D01*
X70139565Y-42216923D01*
X70199183Y-42426459D01*
X70201735Y-42431585D01*
X70201737Y-42431589D01*
X70293733Y-42616342D01*
X70293735Y-42616346D01*
X70296288Y-42621472D01*
X70427573Y-42795322D01*
X70551573Y-42908363D01*
X70587301Y-42966064D01*
X70587302Y-43033933D01*
X70551573Y-43091636D01*
X70427573Y-43204678D01*
X70424119Y-43209251D01*
X70424116Y-43209255D01*
X70361745Y-43291848D01*
X70296288Y-43378528D01*
X70293738Y-43383648D01*
X70293733Y-43383657D01*
X70201737Y-43568410D01*
X70201733Y-43568418D01*
X70199183Y-43573541D01*
X70139565Y-43783077D01*
X70139036Y-43788782D01*
X70139036Y-43788784D01*
X70130014Y-43886144D01*
X70119464Y-44000000D01*
X41180536Y-44000000D01*
X41160435Y-43783077D01*
X41100817Y-43573541D01*
X41003712Y-43378528D01*
X40872427Y-43204678D01*
X40748425Y-43091635D01*
X40712698Y-43033934D01*
X40712698Y-43025000D01*
X46115532Y-43025000D01*
X46116211Y-43031460D01*
X46134638Y-43206795D01*
X46134639Y-43206803D01*
X46135318Y-43213256D01*
X46137323Y-43219428D01*
X46137325Y-43219435D01*
X46189018Y-43378528D01*
X46193813Y-43393284D01*
X46288459Y-43557216D01*
X46415121Y-43697888D01*
X46568262Y-43809151D01*
X46741189Y-43886144D01*
X46926346Y-43925500D01*
X47109135Y-43925500D01*
X47115638Y-43925500D01*
X47300795Y-43886144D01*
X47473722Y-43809151D01*
X47626863Y-43697888D01*
X47753525Y-43557216D01*
X47848171Y-43393284D01*
X47906666Y-43213256D01*
X47926452Y-43025000D01*
X63373548Y-43025000D01*
X63374227Y-43031460D01*
X63392654Y-43206795D01*
X63392655Y-43206803D01*
X63393334Y-43213256D01*
X63395339Y-43219428D01*
X63395341Y-43219435D01*
X63447034Y-43378528D01*
X63451829Y-43393284D01*
X63546475Y-43557216D01*
X63673137Y-43697888D01*
X63826278Y-43809151D01*
X63999205Y-43886144D01*
X64184362Y-43925500D01*
X64367151Y-43925500D01*
X64373654Y-43925500D01*
X64558811Y-43886144D01*
X64731738Y-43809151D01*
X64884879Y-43697888D01*
X65011541Y-43557216D01*
X65106187Y-43393284D01*
X65164682Y-43213256D01*
X65184468Y-43025000D01*
X65164682Y-42836744D01*
X65106187Y-42656716D01*
X65051500Y-42561996D01*
X65034889Y-42500000D01*
X65051500Y-42438003D01*
X65106187Y-42343284D01*
X65164682Y-42163256D01*
X65184468Y-41975000D01*
X65164682Y-41786744D01*
X65106187Y-41606716D01*
X65011541Y-41442784D01*
X64953684Y-41378528D01*
X64889228Y-41306942D01*
X64889227Y-41306941D01*
X64884879Y-41302112D01*
X64879621Y-41298292D01*
X64879619Y-41298290D01*
X64736996Y-41194669D01*
X64736995Y-41194668D01*
X64731738Y-41190849D01*
X64725800Y-41188205D01*
X64564753Y-41116501D01*
X64564748Y-41116499D01*
X64558811Y-41113856D01*
X64552452Y-41112504D01*
X64552448Y-41112503D01*
X64380016Y-41075852D01*
X64380013Y-41075851D01*
X64373654Y-41074500D01*
X64184362Y-41074500D01*
X64178003Y-41075851D01*
X64177999Y-41075852D01*
X64005567Y-41112503D01*
X64005560Y-41112505D01*
X63999205Y-41113856D01*
X63993270Y-41116498D01*
X63993262Y-41116501D01*
X63832215Y-41188205D01*
X63832210Y-41188207D01*
X63826278Y-41190849D01*
X63821024Y-41194665D01*
X63821019Y-41194669D01*
X63678396Y-41298290D01*
X63678389Y-41298295D01*
X63673137Y-41302112D01*
X63668792Y-41306937D01*
X63668787Y-41306942D01*
X63550821Y-41437956D01*
X63550816Y-41437962D01*
X63546475Y-41442784D01*
X63543230Y-41448404D01*
X63543226Y-41448410D01*
X63455077Y-41601089D01*
X63455074Y-41601094D01*
X63451829Y-41606716D01*
X63449823Y-41612888D01*
X63449821Y-41612894D01*
X63395341Y-41780564D01*
X63395339Y-41780573D01*
X63393334Y-41786744D01*
X63392656Y-41793194D01*
X63392654Y-41793204D01*
X63374970Y-41961464D01*
X63373548Y-41975000D01*
X63374227Y-41981460D01*
X63392654Y-42156795D01*
X63392655Y-42156803D01*
X63393334Y-42163256D01*
X63395339Y-42169428D01*
X63395341Y-42169435D01*
X63449819Y-42337100D01*
X63449821Y-42337105D01*
X63451829Y-42343284D01*
X63506514Y-42438003D01*
X63523126Y-42500000D01*
X63506514Y-42561996D01*
X63451829Y-42656716D01*
X63449822Y-42662890D01*
X63449819Y-42662899D01*
X63395341Y-42830564D01*
X63395339Y-42830573D01*
X63393334Y-42836744D01*
X63392656Y-42843194D01*
X63392654Y-42843204D01*
X63374970Y-43011464D01*
X63373548Y-43025000D01*
X47926452Y-43025000D01*
X47906666Y-42836744D01*
X47848171Y-42656716D01*
X47793484Y-42561996D01*
X47776873Y-42500000D01*
X47793484Y-42438003D01*
X47848171Y-42343284D01*
X47906666Y-42163256D01*
X47926452Y-41975000D01*
X47906666Y-41786744D01*
X47848171Y-41606716D01*
X47753525Y-41442784D01*
X47695668Y-41378528D01*
X47631212Y-41306942D01*
X47631211Y-41306941D01*
X47626863Y-41302112D01*
X47621605Y-41298292D01*
X47621603Y-41298290D01*
X47478980Y-41194669D01*
X47478979Y-41194668D01*
X47473722Y-41190849D01*
X47467784Y-41188205D01*
X47306737Y-41116501D01*
X47306732Y-41116499D01*
X47300795Y-41113856D01*
X47294436Y-41112504D01*
X47294432Y-41112503D01*
X47122000Y-41075852D01*
X47121997Y-41075851D01*
X47115638Y-41074500D01*
X46926346Y-41074500D01*
X46919987Y-41075851D01*
X46919983Y-41075852D01*
X46747551Y-41112503D01*
X46747544Y-41112505D01*
X46741189Y-41113856D01*
X46735254Y-41116498D01*
X46735246Y-41116501D01*
X46574199Y-41188205D01*
X46574194Y-41188207D01*
X46568262Y-41190849D01*
X46563008Y-41194665D01*
X46563003Y-41194669D01*
X46420380Y-41298290D01*
X46420373Y-41298295D01*
X46415121Y-41302112D01*
X46410776Y-41306937D01*
X46410771Y-41306942D01*
X46292805Y-41437956D01*
X46292800Y-41437962D01*
X46288459Y-41442784D01*
X46285214Y-41448404D01*
X46285210Y-41448410D01*
X46197061Y-41601089D01*
X46197058Y-41601094D01*
X46193813Y-41606716D01*
X46191807Y-41612888D01*
X46191805Y-41612894D01*
X46137325Y-41780564D01*
X46137323Y-41780573D01*
X46135318Y-41786744D01*
X46134640Y-41793194D01*
X46134638Y-41793204D01*
X46116954Y-41961464D01*
X46115532Y-41975000D01*
X46116211Y-41981460D01*
X46134638Y-42156795D01*
X46134639Y-42156803D01*
X46135318Y-42163256D01*
X46137323Y-42169428D01*
X46137325Y-42169435D01*
X46191803Y-42337100D01*
X46191805Y-42337105D01*
X46193813Y-42343284D01*
X46248498Y-42438003D01*
X46265110Y-42500000D01*
X46248498Y-42561996D01*
X46193813Y-42656716D01*
X46191806Y-42662890D01*
X46191803Y-42662899D01*
X46137325Y-42830564D01*
X46137323Y-42830573D01*
X46135318Y-42836744D01*
X46134640Y-42843194D01*
X46134638Y-42843204D01*
X46116954Y-43011464D01*
X46115532Y-43025000D01*
X40712698Y-43025000D01*
X40712698Y-42966066D01*
X40748425Y-42908364D01*
X40872427Y-42795322D01*
X41003712Y-42621472D01*
X41100817Y-42426459D01*
X41160435Y-42216923D01*
X41180536Y-42000000D01*
X41160435Y-41783077D01*
X41100817Y-41573541D01*
X41003712Y-41378528D01*
X40872427Y-41204678D01*
X40868190Y-41200815D01*
X40868186Y-41200811D01*
X40748426Y-41091636D01*
X40712698Y-41033933D01*
X40712698Y-40966064D01*
X40748422Y-40908366D01*
X40872427Y-40795322D01*
X41003712Y-40621472D01*
X41100817Y-40426459D01*
X41160435Y-40216923D01*
X41180536Y-40000000D01*
X41160435Y-39783077D01*
X41100817Y-39573541D01*
X41003712Y-39378528D01*
X40872427Y-39204678D01*
X40748425Y-39091635D01*
X40712698Y-39033934D01*
X40712698Y-38966066D01*
X40748425Y-38908364D01*
X40872427Y-38795322D01*
X41003712Y-38621472D01*
X41100817Y-38426459D01*
X41160435Y-38216923D01*
X41180536Y-38000000D01*
X41160435Y-37783077D01*
X41100817Y-37573541D01*
X41003712Y-37378528D01*
X40872427Y-37204678D01*
X40748425Y-37091635D01*
X40712698Y-37033934D01*
X40712698Y-36966066D01*
X40748425Y-36908364D01*
X40872427Y-36795322D01*
X41003712Y-36621472D01*
X41100817Y-36426459D01*
X41160435Y-36216923D01*
X41180536Y-36000000D01*
X41160435Y-35783077D01*
X41100817Y-35573541D01*
X41003712Y-35378528D01*
X40872427Y-35204678D01*
X40868190Y-35200815D01*
X40868186Y-35200811D01*
X40748426Y-35091636D01*
X40712698Y-35033933D01*
X40712698Y-34966064D01*
X40748422Y-34908366D01*
X40872427Y-34795322D01*
X41003712Y-34621472D01*
X41100817Y-34426459D01*
X41160435Y-34216923D01*
X41180536Y-34000000D01*
X41160435Y-33783077D01*
X41100817Y-33573541D01*
X41003712Y-33378528D01*
X40872427Y-33204678D01*
X40748425Y-33091635D01*
X40712698Y-33033934D01*
X40712698Y-32966066D01*
X40748425Y-32908364D01*
X40872427Y-32795322D01*
X41003712Y-32621472D01*
X41100817Y-32426459D01*
X41160435Y-32216923D01*
X41180536Y-32000000D01*
X41160435Y-31783077D01*
X41100817Y-31573541D01*
X41003712Y-31378528D01*
X41000259Y-31373955D01*
X41000255Y-31373949D01*
X40922252Y-31270656D01*
X40898125Y-31210995D01*
X40907150Y-31147277D01*
X40946894Y-31096664D01*
X41032546Y-31032546D01*
X41118796Y-30917331D01*
X41169091Y-30782483D01*
X41175500Y-30722873D01*
X41175499Y-29277128D01*
X41169091Y-29217517D01*
X41118796Y-29082669D01*
X41032546Y-28967454D01*
X40973625Y-28923346D01*
X40924431Y-28886519D01*
X40924430Y-28886518D01*
X40917331Y-28881204D01*
X40782483Y-28830909D01*
X40774770Y-28830079D01*
X40774767Y-28830079D01*
X40726180Y-28824855D01*
X40726169Y-28824854D01*
X40722873Y-28824500D01*
X40719550Y-28824500D01*
X39280439Y-28824500D01*
X39280420Y-28824500D01*
X39277128Y-28824501D01*
X39273850Y-28824853D01*
X39273838Y-28824854D01*
X39225231Y-28830079D01*
X39225225Y-28830080D01*
X39217517Y-28830909D01*
X39210252Y-28833618D01*
X39210246Y-28833620D01*
X39090980Y-28878104D01*
X39090978Y-28878104D01*
X39082669Y-28881204D01*
X39075572Y-28886516D01*
X39075568Y-28886519D01*
X38974550Y-28962141D01*
X38974546Y-28962144D01*
X38967454Y-28967454D01*
X38962144Y-28974546D01*
X38962137Y-28974554D01*
X38905214Y-29050594D01*
X38851064Y-29091784D01*
X38783332Y-29098203D01*
X38722409Y-29067919D01*
X38715666Y-29061772D01*
X38711432Y-29057912D01*
X38706562Y-29054897D01*
X38706560Y-29054895D01*
X38531086Y-28946247D01*
X38531085Y-28946246D01*
X38526210Y-28943228D01*
X38520863Y-28941156D01*
X38520860Y-28941155D01*
X38328417Y-28866602D01*
X38328418Y-28866602D01*
X38323069Y-28864530D01*
X38317443Y-28863478D01*
X38317435Y-28863476D01*
X38114555Y-28825552D01*
X38114552Y-28825551D01*
X38108926Y-28824500D01*
X37891074Y-28824500D01*
X37885448Y-28825551D01*
X37885444Y-28825552D01*
X37682564Y-28863476D01*
X37682553Y-28863478D01*
X37676931Y-28864530D01*
X37671584Y-28866601D01*
X37671582Y-28866602D01*
X37479139Y-28941155D01*
X37479132Y-28941158D01*
X37473790Y-28943228D01*
X37468918Y-28946244D01*
X37468913Y-28946247D01*
X37293439Y-29054895D01*
X37293431Y-29054900D01*
X37288568Y-29057912D01*
X37284337Y-29061768D01*
X37284333Y-29061772D01*
X37131813Y-29200812D01*
X37131809Y-29200816D01*
X37127573Y-29204678D01*
X37124119Y-29209251D01*
X37124116Y-29209255D01*
X37000000Y-29373612D01*
X36996288Y-29378528D01*
X36993738Y-29383648D01*
X36993733Y-29383657D01*
X36901737Y-29568410D01*
X36901733Y-29568418D01*
X36899183Y-29573541D01*
X36839565Y-29783077D01*
X36819464Y-30000000D01*
X36839565Y-30216923D01*
X36899183Y-30426459D01*
X36901735Y-30431585D01*
X36901737Y-30431589D01*
X36993733Y-30616342D01*
X36993735Y-30616346D01*
X36996288Y-30621472D01*
X37127573Y-30795322D01*
X37131809Y-30799183D01*
X37131813Y-30799188D01*
X37251573Y-30908363D01*
X37287301Y-30966066D01*
X37287301Y-31033934D01*
X37251573Y-31091637D01*
X37131813Y-31200811D01*
X37131803Y-31200821D01*
X37127573Y-31204678D01*
X37124119Y-31209251D01*
X37124116Y-31209255D01*
X37061745Y-31291848D01*
X36996288Y-31378528D01*
X36993738Y-31383648D01*
X36993733Y-31383657D01*
X36901737Y-31568410D01*
X36901733Y-31568418D01*
X36899183Y-31573541D01*
X36839565Y-31783077D01*
X36819464Y-32000000D01*
X36839565Y-32216923D01*
X36899183Y-32426459D01*
X36901735Y-32431585D01*
X36901737Y-32431589D01*
X36993733Y-32616342D01*
X36993735Y-32616346D01*
X36996288Y-32621472D01*
X37127573Y-32795322D01*
X37131809Y-32799183D01*
X37131813Y-32799188D01*
X37251573Y-32908363D01*
X37287301Y-32966066D01*
X37287301Y-33033934D01*
X37251573Y-33091637D01*
X37131813Y-33200811D01*
X37131803Y-33200821D01*
X37127573Y-33204678D01*
X37124119Y-33209251D01*
X37124116Y-33209255D01*
X37061745Y-33291848D01*
X36996288Y-33378528D01*
X36993738Y-33383648D01*
X36993733Y-33383657D01*
X36901737Y-33568410D01*
X36901733Y-33568418D01*
X36899183Y-33573541D01*
X36839565Y-33783077D01*
X36819464Y-34000000D01*
X36839565Y-34216923D01*
X36899183Y-34426459D01*
X36901735Y-34431585D01*
X36901737Y-34431589D01*
X36993733Y-34616342D01*
X36993735Y-34616346D01*
X36996288Y-34621472D01*
X37127573Y-34795322D01*
X37251573Y-34908363D01*
X37287301Y-34966064D01*
X37287302Y-35033933D01*
X37251573Y-35091636D01*
X37127573Y-35204678D01*
X37124119Y-35209251D01*
X37124116Y-35209255D01*
X37061745Y-35291848D01*
X36996288Y-35378528D01*
X36993738Y-35383648D01*
X36993733Y-35383657D01*
X36901737Y-35568410D01*
X36901733Y-35568418D01*
X36899183Y-35573541D01*
X36839565Y-35783077D01*
X36819464Y-36000000D01*
X36839565Y-36216923D01*
X36899183Y-36426459D01*
X36901735Y-36431585D01*
X36901737Y-36431589D01*
X36993733Y-36616342D01*
X36993735Y-36616346D01*
X36996288Y-36621472D01*
X37127573Y-36795322D01*
X37251573Y-36908363D01*
X37287301Y-36966064D01*
X37287302Y-37033933D01*
X37251573Y-37091636D01*
X37127573Y-37204678D01*
X37124119Y-37209251D01*
X37124116Y-37209255D01*
X37061745Y-37291848D01*
X36996288Y-37378528D01*
X36993738Y-37383648D01*
X36993733Y-37383657D01*
X36901737Y-37568410D01*
X36901733Y-37568418D01*
X36899183Y-37573541D01*
X36839565Y-37783077D01*
X36819464Y-38000000D01*
X36839565Y-38216923D01*
X36899183Y-38426459D01*
X36901735Y-38431585D01*
X36901737Y-38431589D01*
X36993733Y-38616342D01*
X36993735Y-38616346D01*
X36996288Y-38621472D01*
X37127573Y-38795322D01*
X37131809Y-38799183D01*
X37131813Y-38799188D01*
X37251573Y-38908363D01*
X37287301Y-38966066D01*
X37287301Y-39033934D01*
X37251573Y-39091637D01*
X37131813Y-39200811D01*
X37131803Y-39200821D01*
X37127573Y-39204678D01*
X37124119Y-39209251D01*
X37124116Y-39209255D01*
X37061745Y-39291848D01*
X36996288Y-39378528D01*
X36993738Y-39383648D01*
X36993733Y-39383657D01*
X36901737Y-39568410D01*
X36901733Y-39568418D01*
X36899183Y-39573541D01*
X36839565Y-39783077D01*
X36819464Y-40000000D01*
X36839565Y-40216923D01*
X36899183Y-40426459D01*
X36901735Y-40431585D01*
X36901737Y-40431589D01*
X36993733Y-40616342D01*
X36993735Y-40616346D01*
X36996288Y-40621472D01*
X37127573Y-40795322D01*
X37251573Y-40908363D01*
X37287301Y-40966064D01*
X37287302Y-41033933D01*
X37251573Y-41091636D01*
X37127573Y-41204678D01*
X37124119Y-41209251D01*
X37124116Y-41209255D01*
X37053994Y-41302112D01*
X36996288Y-41378528D01*
X36993738Y-41383648D01*
X36993733Y-41383657D01*
X36901737Y-41568410D01*
X36901733Y-41568418D01*
X36899183Y-41573541D01*
X36839565Y-41783077D01*
X36839036Y-41788782D01*
X36839036Y-41788784D01*
X36822379Y-41968540D01*
X36819464Y-42000000D01*
X36819993Y-42005709D01*
X36835164Y-42169435D01*
X36839565Y-42216923D01*
X36899183Y-42426459D01*
X36901735Y-42431585D01*
X36901737Y-42431589D01*
X36993733Y-42616342D01*
X36993735Y-42616346D01*
X36996288Y-42621472D01*
X37127573Y-42795322D01*
X37251573Y-42908363D01*
X37287301Y-42966064D01*
X37287302Y-43033933D01*
X37251573Y-43091636D01*
X37127573Y-43204678D01*
X37124119Y-43209251D01*
X37124116Y-43209255D01*
X37061745Y-43291848D01*
X36996288Y-43378528D01*
X36993738Y-43383648D01*
X36993733Y-43383657D01*
X36901737Y-43568410D01*
X36901733Y-43568418D01*
X36899183Y-43573541D01*
X36839565Y-43783077D01*
X36839036Y-43788782D01*
X36839036Y-43788784D01*
X36830014Y-43886144D01*
X36819464Y-44000000D01*
X36839565Y-44216923D01*
X36899183Y-44426459D01*
X36901735Y-44431585D01*
X36901737Y-44431589D01*
X36993733Y-44616342D01*
X36993735Y-44616346D01*
X36996288Y-44621472D01*
X37127573Y-44795322D01*
X37131809Y-44799183D01*
X37131813Y-44799188D01*
X37251573Y-44908363D01*
X37287301Y-44966066D01*
X37287301Y-45033934D01*
X37251573Y-45091637D01*
X37131813Y-45200811D01*
X37131803Y-45200821D01*
X37127573Y-45204678D01*
X37124119Y-45209251D01*
X37124116Y-45209255D01*
X36999741Y-45373955D01*
X36996288Y-45378528D01*
X36993738Y-45383648D01*
X36993733Y-45383657D01*
X36901737Y-45568410D01*
X36901733Y-45568418D01*
X36899183Y-45573541D01*
X36839565Y-45783077D01*
X36819464Y-46000000D01*
X36839565Y-46216923D01*
X36899183Y-46426459D01*
X36901735Y-46431585D01*
X36901737Y-46431589D01*
X36993733Y-46616342D01*
X36993735Y-46616346D01*
X36996288Y-46621472D01*
X37127573Y-46795322D01*
X37131809Y-46799183D01*
X37131813Y-46799188D01*
X37251573Y-46908363D01*
X37287301Y-46966066D01*
X37287301Y-47033934D01*
X37251573Y-47091637D01*
X37131813Y-47200811D01*
X37131803Y-47200821D01*
X37127573Y-47204678D01*
X37124119Y-47209251D01*
X37124116Y-47209255D01*
X37061745Y-47291848D01*
X36996288Y-47378528D01*
X36993738Y-47383648D01*
X36993733Y-47383657D01*
X36901737Y-47568410D01*
X36901733Y-47568418D01*
X36899183Y-47573541D01*
X36839565Y-47783077D01*
X36819464Y-48000000D01*
X27500500Y-48000000D01*
X27500500Y-28743935D01*
X41745669Y-28743935D01*
X41776135Y-28916711D01*
X41845623Y-29077804D01*
X41849936Y-29083597D01*
X41849937Y-29083599D01*
X41895620Y-29144962D01*
X41950390Y-29218530D01*
X42084786Y-29331302D01*
X42241567Y-29410040D01*
X42412279Y-29450500D01*
X42540111Y-29450500D01*
X42543709Y-29450500D01*
X42674255Y-29435241D01*
X42839117Y-29375237D01*
X42985696Y-29278830D01*
X43106092Y-29151218D01*
X43193812Y-28999281D01*
X43244130Y-28831210D01*
X43254331Y-28656065D01*
X43223865Y-28483289D01*
X43154377Y-28322196D01*
X43049610Y-28181470D01*
X42977747Y-28121170D01*
X42920745Y-28073339D01*
X42920744Y-28073338D01*
X42915214Y-28068698D01*
X42822810Y-28022291D01*
X42764883Y-27993199D01*
X42764880Y-27993198D01*
X42758433Y-27989960D01*
X42751407Y-27988294D01*
X42751405Y-27988294D01*
X42594749Y-27951165D01*
X42594743Y-27951164D01*
X42587721Y-27949500D01*
X42456291Y-27949500D01*
X42452725Y-27949916D01*
X42452721Y-27949917D01*
X42332915Y-27963920D01*
X42332907Y-27963921D01*
X42325745Y-27964759D01*
X42318967Y-27967225D01*
X42318958Y-27967228D01*
X42167674Y-28022291D01*
X42167671Y-28022292D01*
X42160883Y-28024763D01*
X42154850Y-28028730D01*
X42154842Y-28028735D01*
X42020340Y-28117199D01*
X42020334Y-28117203D01*
X42014304Y-28121170D01*
X42009351Y-28126419D01*
X42009346Y-28126424D01*
X41898865Y-28243527D01*
X41898861Y-28243531D01*
X41893908Y-28248782D01*
X41890299Y-28255032D01*
X41890296Y-28255037D01*
X41809799Y-28394463D01*
X41809796Y-28394468D01*
X41806188Y-28400719D01*
X41804117Y-28407634D01*
X41804117Y-28407636D01*
X41757941Y-28561869D01*
X41757939Y-28561877D01*
X41755870Y-28568790D01*
X41755450Y-28575996D01*
X41755449Y-28576004D01*
X41746088Y-28736725D01*
X41746088Y-28736733D01*
X41745669Y-28743935D01*
X27500500Y-28743935D01*
X27500500Y-27606092D01*
X27501097Y-27593939D01*
X27509805Y-27505519D01*
X27514665Y-27456173D01*
X27519403Y-27432349D01*
X27557816Y-27305719D01*
X27567113Y-27283278D01*
X27629485Y-27166587D01*
X27642982Y-27146387D01*
X27726924Y-27044103D01*
X27744103Y-27026924D01*
X27846387Y-26942982D01*
X27866587Y-26929485D01*
X27983278Y-26867113D01*
X28005719Y-26857816D01*
X28132349Y-26819403D01*
X28156173Y-26814665D01*
X28285170Y-26801960D01*
X28293939Y-26801097D01*
X28306092Y-26800500D01*
X28339882Y-26800500D01*
X82960118Y-26800500D01*
X82993908Y-26800500D01*
X83006061Y-26801097D01*
G37*
%TD.AperFunction*%
M02*
