%TF.GenerationSoftware,KiCad,Pcbnew,(7.0.0)*%
%TF.CreationDate,2023-03-13T22:20:06+00:00*%
%TF.ProjectId,main,6d61696e-2e6b-4696-9361-645f70636258,1.0*%
%TF.SameCoordinates,Original*%
%TF.FileFunction,Drillmap*%
%TF.FilePolarity,Positive*%
%FSLAX45Y45*%
G04 Gerber Fmt 4.5, Leading zero omitted, Abs format (unit mm)*
G04 Created by KiCad (PCBNEW (7.0.0)) date 2023-03-13 22:20:06*
%MOMM*%
%LPD*%
G01*
G04 APERTURE LIST*
%ADD10C,0.100000*%
%ADD11C,0.200000*%
%ADD12C,0.110000*%
%ADD13C,0.208280*%
G04 APERTURE END LIST*
D10*
X2830000Y-2660000D02*
X9150000Y-2660000D01*
X9250000Y-2760000D02*
G75*
G03*
X9150000Y-2660000I-100000J0D01*
G01*
X9150000Y-7170000D02*
G75*
G03*
X9250000Y-7070000I0J100000D01*
G01*
X2830000Y-2660000D02*
G75*
G03*
X2730000Y-2760000I0J-100000D01*
G01*
X2730000Y-2760000D02*
X2730000Y-7070000D01*
X9250000Y-7070000D02*
X9250000Y-2760000D01*
X2830000Y-7170000D02*
X9150000Y-7170000D01*
X2730000Y-7070000D02*
G75*
G03*
X2830000Y-7170000I100000J0D01*
G01*
D11*
D12*
X3605000Y-2785000D02*
X3715000Y-2895000D01*
X3715000Y-2785000D02*
X3605000Y-2895000D01*
X3605000Y-4905000D02*
X3715000Y-5015000D01*
X3715000Y-4905000D02*
X3605000Y-5015000D01*
X4195000Y-2815000D02*
X4305000Y-2925000D01*
X4305000Y-2815000D02*
X4195000Y-2925000D01*
X7675000Y-4875000D02*
X7785000Y-4985000D01*
X7785000Y-4875000D02*
X7675000Y-4985000D01*
X8265000Y-2785000D02*
X8375000Y-2895000D01*
X8375000Y-2785000D02*
X8265000Y-2895000D01*
X8265000Y-4905000D02*
X8375000Y-5015000D01*
X8375000Y-4905000D02*
X8265000Y-5015000D01*
D13*
X3609630Y-6200000D02*
G75*
G03*
X3609630Y-6200000I-104140J0D01*
G01*
D11*
X2972619Y-7468476D02*
X2972619Y-7268476D01*
X2972619Y-7268476D02*
X3020238Y-7268476D01*
X3020238Y-7268476D02*
X3048809Y-7278000D01*
X3048809Y-7278000D02*
X3067857Y-7297048D01*
X3067857Y-7297048D02*
X3077381Y-7316095D01*
X3077381Y-7316095D02*
X3086905Y-7354190D01*
X3086905Y-7354190D02*
X3086905Y-7382762D01*
X3086905Y-7382762D02*
X3077381Y-7420857D01*
X3077381Y-7420857D02*
X3067857Y-7439905D01*
X3067857Y-7439905D02*
X3048809Y-7458952D01*
X3048809Y-7458952D02*
X3020238Y-7468476D01*
X3020238Y-7468476D02*
X2972619Y-7468476D01*
X3172619Y-7468476D02*
X3172619Y-7335143D01*
X3172619Y-7373238D02*
X3182143Y-7354190D01*
X3182143Y-7354190D02*
X3191667Y-7344667D01*
X3191667Y-7344667D02*
X3210714Y-7335143D01*
X3210714Y-7335143D02*
X3229762Y-7335143D01*
X3296428Y-7468476D02*
X3296428Y-7335143D01*
X3296428Y-7268476D02*
X3286905Y-7278000D01*
X3286905Y-7278000D02*
X3296428Y-7287524D01*
X3296428Y-7287524D02*
X3305952Y-7278000D01*
X3305952Y-7278000D02*
X3296428Y-7268476D01*
X3296428Y-7268476D02*
X3296428Y-7287524D01*
X3420238Y-7468476D02*
X3401190Y-7458952D01*
X3401190Y-7458952D02*
X3391667Y-7439905D01*
X3391667Y-7439905D02*
X3391667Y-7268476D01*
X3525000Y-7468476D02*
X3505952Y-7458952D01*
X3505952Y-7458952D02*
X3496428Y-7439905D01*
X3496428Y-7439905D02*
X3496428Y-7268476D01*
X3721190Y-7468476D02*
X3721190Y-7268476D01*
X3721190Y-7268476D02*
X3787857Y-7411333D01*
X3787857Y-7411333D02*
X3854524Y-7268476D01*
X3854524Y-7268476D02*
X3854524Y-7468476D01*
X4035476Y-7468476D02*
X4035476Y-7363714D01*
X4035476Y-7363714D02*
X4025952Y-7344667D01*
X4025952Y-7344667D02*
X4006905Y-7335143D01*
X4006905Y-7335143D02*
X3968809Y-7335143D01*
X3968809Y-7335143D02*
X3949762Y-7344667D01*
X4035476Y-7458952D02*
X4016428Y-7468476D01*
X4016428Y-7468476D02*
X3968809Y-7468476D01*
X3968809Y-7468476D02*
X3949762Y-7458952D01*
X3949762Y-7458952D02*
X3940238Y-7439905D01*
X3940238Y-7439905D02*
X3940238Y-7420857D01*
X3940238Y-7420857D02*
X3949762Y-7401809D01*
X3949762Y-7401809D02*
X3968809Y-7392286D01*
X3968809Y-7392286D02*
X4016428Y-7392286D01*
X4016428Y-7392286D02*
X4035476Y-7382762D01*
X4130714Y-7335143D02*
X4130714Y-7535143D01*
X4130714Y-7344667D02*
X4149762Y-7335143D01*
X4149762Y-7335143D02*
X4187857Y-7335143D01*
X4187857Y-7335143D02*
X4206905Y-7344667D01*
X4206905Y-7344667D02*
X4216429Y-7354190D01*
X4216429Y-7354190D02*
X4225952Y-7373238D01*
X4225952Y-7373238D02*
X4225952Y-7430381D01*
X4225952Y-7430381D02*
X4216429Y-7449428D01*
X4216429Y-7449428D02*
X4206905Y-7458952D01*
X4206905Y-7458952D02*
X4187857Y-7468476D01*
X4187857Y-7468476D02*
X4149762Y-7468476D01*
X4149762Y-7468476D02*
X4130714Y-7458952D01*
X4311667Y-7449428D02*
X4321190Y-7458952D01*
X4321190Y-7458952D02*
X4311667Y-7468476D01*
X4311667Y-7468476D02*
X4302143Y-7458952D01*
X4302143Y-7458952D02*
X4311667Y-7449428D01*
X4311667Y-7449428D02*
X4311667Y-7468476D01*
X4311667Y-7344667D02*
X4321190Y-7354190D01*
X4321190Y-7354190D02*
X4311667Y-7363714D01*
X4311667Y-7363714D02*
X4302143Y-7354190D01*
X4302143Y-7354190D02*
X4311667Y-7344667D01*
X4311667Y-7344667D02*
X4311667Y-7363714D01*
D12*
X2615000Y-7760000D02*
X2725000Y-7870000D01*
X2725000Y-7760000D02*
X2615000Y-7870000D01*
D11*
X3077381Y-7888476D02*
X2963095Y-7888476D01*
X3020238Y-7888476D02*
X3020238Y-7688476D01*
X3020238Y-7688476D02*
X3001190Y-7717048D01*
X3001190Y-7717048D02*
X2982143Y-7736095D01*
X2982143Y-7736095D02*
X2963095Y-7745619D01*
X3163095Y-7869428D02*
X3172619Y-7878952D01*
X3172619Y-7878952D02*
X3163095Y-7888476D01*
X3163095Y-7888476D02*
X3153571Y-7878952D01*
X3153571Y-7878952D02*
X3163095Y-7869428D01*
X3163095Y-7869428D02*
X3163095Y-7888476D01*
X3363095Y-7888476D02*
X3248809Y-7888476D01*
X3305952Y-7888476D02*
X3305952Y-7688476D01*
X3305952Y-7688476D02*
X3286905Y-7717048D01*
X3286905Y-7717048D02*
X3267857Y-7736095D01*
X3267857Y-7736095D02*
X3248809Y-7745619D01*
X3486905Y-7688476D02*
X3505952Y-7688476D01*
X3505952Y-7688476D02*
X3525000Y-7698000D01*
X3525000Y-7698000D02*
X3534524Y-7707524D01*
X3534524Y-7707524D02*
X3544048Y-7726571D01*
X3544048Y-7726571D02*
X3553571Y-7764667D01*
X3553571Y-7764667D02*
X3553571Y-7812286D01*
X3553571Y-7812286D02*
X3544048Y-7850381D01*
X3544048Y-7850381D02*
X3534524Y-7869428D01*
X3534524Y-7869428D02*
X3525000Y-7878952D01*
X3525000Y-7878952D02*
X3505952Y-7888476D01*
X3505952Y-7888476D02*
X3486905Y-7888476D01*
X3486905Y-7888476D02*
X3467857Y-7878952D01*
X3467857Y-7878952D02*
X3458333Y-7869428D01*
X3458333Y-7869428D02*
X3448809Y-7850381D01*
X3448809Y-7850381D02*
X3439286Y-7812286D01*
X3439286Y-7812286D02*
X3439286Y-7764667D01*
X3439286Y-7764667D02*
X3448809Y-7726571D01*
X3448809Y-7726571D02*
X3458333Y-7707524D01*
X3458333Y-7707524D02*
X3467857Y-7698000D01*
X3467857Y-7698000D02*
X3486905Y-7688476D01*
X3677381Y-7688476D02*
X3696429Y-7688476D01*
X3696429Y-7688476D02*
X3715476Y-7698000D01*
X3715476Y-7698000D02*
X3725000Y-7707524D01*
X3725000Y-7707524D02*
X3734524Y-7726571D01*
X3734524Y-7726571D02*
X3744048Y-7764667D01*
X3744048Y-7764667D02*
X3744048Y-7812286D01*
X3744048Y-7812286D02*
X3734524Y-7850381D01*
X3734524Y-7850381D02*
X3725000Y-7869428D01*
X3725000Y-7869428D02*
X3715476Y-7878952D01*
X3715476Y-7878952D02*
X3696429Y-7888476D01*
X3696429Y-7888476D02*
X3677381Y-7888476D01*
X3677381Y-7888476D02*
X3658333Y-7878952D01*
X3658333Y-7878952D02*
X3648809Y-7869428D01*
X3648809Y-7869428D02*
X3639286Y-7850381D01*
X3639286Y-7850381D02*
X3629762Y-7812286D01*
X3629762Y-7812286D02*
X3629762Y-7764667D01*
X3629762Y-7764667D02*
X3639286Y-7726571D01*
X3639286Y-7726571D02*
X3648809Y-7707524D01*
X3648809Y-7707524D02*
X3658333Y-7698000D01*
X3658333Y-7698000D02*
X3677381Y-7688476D01*
X3829762Y-7888476D02*
X3829762Y-7755143D01*
X3829762Y-7774190D02*
X3839286Y-7764667D01*
X3839286Y-7764667D02*
X3858333Y-7755143D01*
X3858333Y-7755143D02*
X3886905Y-7755143D01*
X3886905Y-7755143D02*
X3905952Y-7764667D01*
X3905952Y-7764667D02*
X3915476Y-7783714D01*
X3915476Y-7783714D02*
X3915476Y-7888476D01*
X3915476Y-7783714D02*
X3925000Y-7764667D01*
X3925000Y-7764667D02*
X3944048Y-7755143D01*
X3944048Y-7755143D02*
X3972619Y-7755143D01*
X3972619Y-7755143D02*
X3991667Y-7764667D01*
X3991667Y-7764667D02*
X4001190Y-7783714D01*
X4001190Y-7783714D02*
X4001190Y-7888476D01*
X4096429Y-7888476D02*
X4096429Y-7755143D01*
X4096429Y-7774190D02*
X4105952Y-7764667D01*
X4105952Y-7764667D02*
X4125000Y-7755143D01*
X4125000Y-7755143D02*
X4153571Y-7755143D01*
X4153571Y-7755143D02*
X4172619Y-7764667D01*
X4172619Y-7764667D02*
X4182143Y-7783714D01*
X4182143Y-7783714D02*
X4182143Y-7888476D01*
X4182143Y-7783714D02*
X4191667Y-7764667D01*
X4191667Y-7764667D02*
X4210714Y-7755143D01*
X4210714Y-7755143D02*
X4239286Y-7755143D01*
X4239286Y-7755143D02*
X4258333Y-7764667D01*
X4258333Y-7764667D02*
X4267857Y-7783714D01*
X4267857Y-7783714D02*
X4267857Y-7888476D01*
X4625952Y-7678952D02*
X4454524Y-7936095D01*
X4850714Y-7688476D02*
X4869762Y-7688476D01*
X4869762Y-7688476D02*
X4888810Y-7698000D01*
X4888810Y-7698000D02*
X4898333Y-7707524D01*
X4898333Y-7707524D02*
X4907857Y-7726571D01*
X4907857Y-7726571D02*
X4917381Y-7764667D01*
X4917381Y-7764667D02*
X4917381Y-7812286D01*
X4917381Y-7812286D02*
X4907857Y-7850381D01*
X4907857Y-7850381D02*
X4898333Y-7869428D01*
X4898333Y-7869428D02*
X4888810Y-7878952D01*
X4888810Y-7878952D02*
X4869762Y-7888476D01*
X4869762Y-7888476D02*
X4850714Y-7888476D01*
X4850714Y-7888476D02*
X4831667Y-7878952D01*
X4831667Y-7878952D02*
X4822143Y-7869428D01*
X4822143Y-7869428D02*
X4812619Y-7850381D01*
X4812619Y-7850381D02*
X4803095Y-7812286D01*
X4803095Y-7812286D02*
X4803095Y-7764667D01*
X4803095Y-7764667D02*
X4812619Y-7726571D01*
X4812619Y-7726571D02*
X4822143Y-7707524D01*
X4822143Y-7707524D02*
X4831667Y-7698000D01*
X4831667Y-7698000D02*
X4850714Y-7688476D01*
X5003095Y-7869428D02*
X5012619Y-7878952D01*
X5012619Y-7878952D02*
X5003095Y-7888476D01*
X5003095Y-7888476D02*
X4993572Y-7878952D01*
X4993572Y-7878952D02*
X5003095Y-7869428D01*
X5003095Y-7869428D02*
X5003095Y-7888476D01*
X5136429Y-7688476D02*
X5155476Y-7688476D01*
X5155476Y-7688476D02*
X5174524Y-7698000D01*
X5174524Y-7698000D02*
X5184048Y-7707524D01*
X5184048Y-7707524D02*
X5193572Y-7726571D01*
X5193572Y-7726571D02*
X5203095Y-7764667D01*
X5203095Y-7764667D02*
X5203095Y-7812286D01*
X5203095Y-7812286D02*
X5193572Y-7850381D01*
X5193572Y-7850381D02*
X5184048Y-7869428D01*
X5184048Y-7869428D02*
X5174524Y-7878952D01*
X5174524Y-7878952D02*
X5155476Y-7888476D01*
X5155476Y-7888476D02*
X5136429Y-7888476D01*
X5136429Y-7888476D02*
X5117381Y-7878952D01*
X5117381Y-7878952D02*
X5107857Y-7869428D01*
X5107857Y-7869428D02*
X5098333Y-7850381D01*
X5098333Y-7850381D02*
X5088810Y-7812286D01*
X5088810Y-7812286D02*
X5088810Y-7764667D01*
X5088810Y-7764667D02*
X5098333Y-7726571D01*
X5098333Y-7726571D02*
X5107857Y-7707524D01*
X5107857Y-7707524D02*
X5117381Y-7698000D01*
X5117381Y-7698000D02*
X5136429Y-7688476D01*
X5374524Y-7755143D02*
X5374524Y-7888476D01*
X5326905Y-7678952D02*
X5279286Y-7821809D01*
X5279286Y-7821809D02*
X5403095Y-7821809D01*
X5460238Y-7688476D02*
X5584048Y-7688476D01*
X5584048Y-7688476D02*
X5517381Y-7764667D01*
X5517381Y-7764667D02*
X5545953Y-7764667D01*
X5545953Y-7764667D02*
X5565000Y-7774190D01*
X5565000Y-7774190D02*
X5574524Y-7783714D01*
X5574524Y-7783714D02*
X5584048Y-7802762D01*
X5584048Y-7802762D02*
X5584048Y-7850381D01*
X5584048Y-7850381D02*
X5574524Y-7869428D01*
X5574524Y-7869428D02*
X5565000Y-7878952D01*
X5565000Y-7878952D02*
X5545953Y-7888476D01*
X5545953Y-7888476D02*
X5488810Y-7888476D01*
X5488810Y-7888476D02*
X5469762Y-7878952D01*
X5469762Y-7878952D02*
X5460238Y-7869428D01*
X5650714Y-7688476D02*
X5774524Y-7688476D01*
X5774524Y-7688476D02*
X5707857Y-7764667D01*
X5707857Y-7764667D02*
X5736429Y-7764667D01*
X5736429Y-7764667D02*
X5755476Y-7774190D01*
X5755476Y-7774190D02*
X5765000Y-7783714D01*
X5765000Y-7783714D02*
X5774524Y-7802762D01*
X5774524Y-7802762D02*
X5774524Y-7850381D01*
X5774524Y-7850381D02*
X5765000Y-7869428D01*
X5765000Y-7869428D02*
X5755476Y-7878952D01*
X5755476Y-7878952D02*
X5736429Y-7888476D01*
X5736429Y-7888476D02*
X5679286Y-7888476D01*
X5679286Y-7888476D02*
X5660238Y-7878952D01*
X5660238Y-7878952D02*
X5650714Y-7869428D01*
X5850714Y-7688476D02*
X5850714Y-7726571D01*
X5926905Y-7688476D02*
X5926905Y-7726571D01*
X6189762Y-7964667D02*
X6180238Y-7955143D01*
X6180238Y-7955143D02*
X6161191Y-7926571D01*
X6161191Y-7926571D02*
X6151667Y-7907524D01*
X6151667Y-7907524D02*
X6142143Y-7878952D01*
X6142143Y-7878952D02*
X6132619Y-7831333D01*
X6132619Y-7831333D02*
X6132619Y-7793238D01*
X6132619Y-7793238D02*
X6142143Y-7745619D01*
X6142143Y-7745619D02*
X6151667Y-7717048D01*
X6151667Y-7717048D02*
X6161191Y-7698000D01*
X6161191Y-7698000D02*
X6180238Y-7669428D01*
X6180238Y-7669428D02*
X6189762Y-7659905D01*
X6351667Y-7688476D02*
X6313571Y-7688476D01*
X6313571Y-7688476D02*
X6294524Y-7698000D01*
X6294524Y-7698000D02*
X6285000Y-7707524D01*
X6285000Y-7707524D02*
X6265952Y-7736095D01*
X6265952Y-7736095D02*
X6256429Y-7774190D01*
X6256429Y-7774190D02*
X6256429Y-7850381D01*
X6256429Y-7850381D02*
X6265952Y-7869428D01*
X6265952Y-7869428D02*
X6275476Y-7878952D01*
X6275476Y-7878952D02*
X6294524Y-7888476D01*
X6294524Y-7888476D02*
X6332619Y-7888476D01*
X6332619Y-7888476D02*
X6351667Y-7878952D01*
X6351667Y-7878952D02*
X6361191Y-7869428D01*
X6361191Y-7869428D02*
X6370714Y-7850381D01*
X6370714Y-7850381D02*
X6370714Y-7802762D01*
X6370714Y-7802762D02*
X6361191Y-7783714D01*
X6361191Y-7783714D02*
X6351667Y-7774190D01*
X6351667Y-7774190D02*
X6332619Y-7764667D01*
X6332619Y-7764667D02*
X6294524Y-7764667D01*
X6294524Y-7764667D02*
X6275476Y-7774190D01*
X6275476Y-7774190D02*
X6265952Y-7783714D01*
X6265952Y-7783714D02*
X6256429Y-7802762D01*
X6576429Y-7888476D02*
X6576429Y-7688476D01*
X6662143Y-7888476D02*
X6662143Y-7783714D01*
X6662143Y-7783714D02*
X6652619Y-7764667D01*
X6652619Y-7764667D02*
X6633572Y-7755143D01*
X6633572Y-7755143D02*
X6605000Y-7755143D01*
X6605000Y-7755143D02*
X6585952Y-7764667D01*
X6585952Y-7764667D02*
X6576429Y-7774190D01*
X6785952Y-7888476D02*
X6766905Y-7878952D01*
X6766905Y-7878952D02*
X6757381Y-7869428D01*
X6757381Y-7869428D02*
X6747857Y-7850381D01*
X6747857Y-7850381D02*
X6747857Y-7793238D01*
X6747857Y-7793238D02*
X6757381Y-7774190D01*
X6757381Y-7774190D02*
X6766905Y-7764667D01*
X6766905Y-7764667D02*
X6785952Y-7755143D01*
X6785952Y-7755143D02*
X6814524Y-7755143D01*
X6814524Y-7755143D02*
X6833572Y-7764667D01*
X6833572Y-7764667D02*
X6843095Y-7774190D01*
X6843095Y-7774190D02*
X6852619Y-7793238D01*
X6852619Y-7793238D02*
X6852619Y-7850381D01*
X6852619Y-7850381D02*
X6843095Y-7869428D01*
X6843095Y-7869428D02*
X6833572Y-7878952D01*
X6833572Y-7878952D02*
X6814524Y-7888476D01*
X6814524Y-7888476D02*
X6785952Y-7888476D01*
X6966905Y-7888476D02*
X6947857Y-7878952D01*
X6947857Y-7878952D02*
X6938333Y-7859905D01*
X6938333Y-7859905D02*
X6938333Y-7688476D01*
X7119286Y-7878952D02*
X7100238Y-7888476D01*
X7100238Y-7888476D02*
X7062143Y-7888476D01*
X7062143Y-7888476D02*
X7043095Y-7878952D01*
X7043095Y-7878952D02*
X7033572Y-7859905D01*
X7033572Y-7859905D02*
X7033572Y-7783714D01*
X7033572Y-7783714D02*
X7043095Y-7764667D01*
X7043095Y-7764667D02*
X7062143Y-7755143D01*
X7062143Y-7755143D02*
X7100238Y-7755143D01*
X7100238Y-7755143D02*
X7119286Y-7764667D01*
X7119286Y-7764667D02*
X7128810Y-7783714D01*
X7128810Y-7783714D02*
X7128810Y-7802762D01*
X7128810Y-7802762D02*
X7033572Y-7821809D01*
X7205000Y-7878952D02*
X7224048Y-7888476D01*
X7224048Y-7888476D02*
X7262143Y-7888476D01*
X7262143Y-7888476D02*
X7281191Y-7878952D01*
X7281191Y-7878952D02*
X7290714Y-7859905D01*
X7290714Y-7859905D02*
X7290714Y-7850381D01*
X7290714Y-7850381D02*
X7281191Y-7831333D01*
X7281191Y-7831333D02*
X7262143Y-7821809D01*
X7262143Y-7821809D02*
X7233572Y-7821809D01*
X7233572Y-7821809D02*
X7214524Y-7812286D01*
X7214524Y-7812286D02*
X7205000Y-7793238D01*
X7205000Y-7793238D02*
X7205000Y-7783714D01*
X7205000Y-7783714D02*
X7214524Y-7764667D01*
X7214524Y-7764667D02*
X7233572Y-7755143D01*
X7233572Y-7755143D02*
X7262143Y-7755143D01*
X7262143Y-7755143D02*
X7281191Y-7764667D01*
X7357381Y-7964667D02*
X7366905Y-7955143D01*
X7366905Y-7955143D02*
X7385953Y-7926571D01*
X7385953Y-7926571D02*
X7395476Y-7907524D01*
X7395476Y-7907524D02*
X7405000Y-7878952D01*
X7405000Y-7878952D02*
X7414524Y-7831333D01*
X7414524Y-7831333D02*
X7414524Y-7793238D01*
X7414524Y-7793238D02*
X7405000Y-7745619D01*
X7405000Y-7745619D02*
X7395476Y-7717048D01*
X7395476Y-7717048D02*
X7385953Y-7698000D01*
X7385953Y-7698000D02*
X7366905Y-7669428D01*
X7366905Y-7669428D02*
X7357381Y-7659905D01*
X7686905Y-7964667D02*
X7677381Y-7955143D01*
X7677381Y-7955143D02*
X7658333Y-7926571D01*
X7658333Y-7926571D02*
X7648810Y-7907524D01*
X7648810Y-7907524D02*
X7639286Y-7878952D01*
X7639286Y-7878952D02*
X7629762Y-7831333D01*
X7629762Y-7831333D02*
X7629762Y-7793238D01*
X7629762Y-7793238D02*
X7639286Y-7745619D01*
X7639286Y-7745619D02*
X7648810Y-7717048D01*
X7648810Y-7717048D02*
X7658333Y-7698000D01*
X7658333Y-7698000D02*
X7677381Y-7669428D01*
X7677381Y-7669428D02*
X7686905Y-7659905D01*
X7763095Y-7755143D02*
X7763095Y-7888476D01*
X7763095Y-7774190D02*
X7772619Y-7764667D01*
X7772619Y-7764667D02*
X7791667Y-7755143D01*
X7791667Y-7755143D02*
X7820238Y-7755143D01*
X7820238Y-7755143D02*
X7839286Y-7764667D01*
X7839286Y-7764667D02*
X7848810Y-7783714D01*
X7848810Y-7783714D02*
X7848810Y-7888476D01*
X7972619Y-7888476D02*
X7953572Y-7878952D01*
X7953572Y-7878952D02*
X7944048Y-7869428D01*
X7944048Y-7869428D02*
X7934524Y-7850381D01*
X7934524Y-7850381D02*
X7934524Y-7793238D01*
X7934524Y-7793238D02*
X7944048Y-7774190D01*
X7944048Y-7774190D02*
X7953572Y-7764667D01*
X7953572Y-7764667D02*
X7972619Y-7755143D01*
X7972619Y-7755143D02*
X8001191Y-7755143D01*
X8001191Y-7755143D02*
X8020238Y-7764667D01*
X8020238Y-7764667D02*
X8029762Y-7774190D01*
X8029762Y-7774190D02*
X8039286Y-7793238D01*
X8039286Y-7793238D02*
X8039286Y-7850381D01*
X8039286Y-7850381D02*
X8029762Y-7869428D01*
X8029762Y-7869428D02*
X8020238Y-7878952D01*
X8020238Y-7878952D02*
X8001191Y-7888476D01*
X8001191Y-7888476D02*
X7972619Y-7888476D01*
X8096429Y-7755143D02*
X8172619Y-7755143D01*
X8125000Y-7688476D02*
X8125000Y-7859905D01*
X8125000Y-7859905D02*
X8134524Y-7878952D01*
X8134524Y-7878952D02*
X8153572Y-7888476D01*
X8153572Y-7888476D02*
X8172619Y-7888476D01*
X8359286Y-7755143D02*
X8359286Y-7955143D01*
X8359286Y-7764667D02*
X8378333Y-7755143D01*
X8378333Y-7755143D02*
X8416429Y-7755143D01*
X8416429Y-7755143D02*
X8435476Y-7764667D01*
X8435476Y-7764667D02*
X8445000Y-7774190D01*
X8445000Y-7774190D02*
X8454524Y-7793238D01*
X8454524Y-7793238D02*
X8454524Y-7850381D01*
X8454524Y-7850381D02*
X8445000Y-7869428D01*
X8445000Y-7869428D02*
X8435476Y-7878952D01*
X8435476Y-7878952D02*
X8416429Y-7888476D01*
X8416429Y-7888476D02*
X8378333Y-7888476D01*
X8378333Y-7888476D02*
X8359286Y-7878952D01*
X8568810Y-7888476D02*
X8549762Y-7878952D01*
X8549762Y-7878952D02*
X8540238Y-7859905D01*
X8540238Y-7859905D02*
X8540238Y-7688476D01*
X8730715Y-7888476D02*
X8730715Y-7783714D01*
X8730715Y-7783714D02*
X8721191Y-7764667D01*
X8721191Y-7764667D02*
X8702143Y-7755143D01*
X8702143Y-7755143D02*
X8664048Y-7755143D01*
X8664048Y-7755143D02*
X8645000Y-7764667D01*
X8730715Y-7878952D02*
X8711667Y-7888476D01*
X8711667Y-7888476D02*
X8664048Y-7888476D01*
X8664048Y-7888476D02*
X8645000Y-7878952D01*
X8645000Y-7878952D02*
X8635476Y-7859905D01*
X8635476Y-7859905D02*
X8635476Y-7840857D01*
X8635476Y-7840857D02*
X8645000Y-7821809D01*
X8645000Y-7821809D02*
X8664048Y-7812286D01*
X8664048Y-7812286D02*
X8711667Y-7812286D01*
X8711667Y-7812286D02*
X8730715Y-7802762D01*
X8797381Y-7755143D02*
X8873572Y-7755143D01*
X8825953Y-7688476D02*
X8825953Y-7859905D01*
X8825953Y-7859905D02*
X8835476Y-7878952D01*
X8835476Y-7878952D02*
X8854524Y-7888476D01*
X8854524Y-7888476D02*
X8873572Y-7888476D01*
X9016429Y-7878952D02*
X8997381Y-7888476D01*
X8997381Y-7888476D02*
X8959286Y-7888476D01*
X8959286Y-7888476D02*
X8940238Y-7878952D01*
X8940238Y-7878952D02*
X8930715Y-7859905D01*
X8930715Y-7859905D02*
X8930715Y-7783714D01*
X8930715Y-7783714D02*
X8940238Y-7764667D01*
X8940238Y-7764667D02*
X8959286Y-7755143D01*
X8959286Y-7755143D02*
X8997381Y-7755143D01*
X8997381Y-7755143D02*
X9016429Y-7764667D01*
X9016429Y-7764667D02*
X9025953Y-7783714D01*
X9025953Y-7783714D02*
X9025953Y-7802762D01*
X9025953Y-7802762D02*
X8930715Y-7821809D01*
X9197381Y-7888476D02*
X9197381Y-7688476D01*
X9197381Y-7878952D02*
X9178334Y-7888476D01*
X9178334Y-7888476D02*
X9140238Y-7888476D01*
X9140238Y-7888476D02*
X9121191Y-7878952D01*
X9121191Y-7878952D02*
X9111667Y-7869428D01*
X9111667Y-7869428D02*
X9102143Y-7850381D01*
X9102143Y-7850381D02*
X9102143Y-7793238D01*
X9102143Y-7793238D02*
X9111667Y-7774190D01*
X9111667Y-7774190D02*
X9121191Y-7764667D01*
X9121191Y-7764667D02*
X9140238Y-7755143D01*
X9140238Y-7755143D02*
X9178334Y-7755143D01*
X9178334Y-7755143D02*
X9197381Y-7764667D01*
X9273572Y-7964667D02*
X9283096Y-7955143D01*
X9283096Y-7955143D02*
X9302143Y-7926571D01*
X9302143Y-7926571D02*
X9311667Y-7907524D01*
X9311667Y-7907524D02*
X9321191Y-7878952D01*
X9321191Y-7878952D02*
X9330715Y-7831333D01*
X9330715Y-7831333D02*
X9330715Y-7793238D01*
X9330715Y-7793238D02*
X9321191Y-7745619D01*
X9321191Y-7745619D02*
X9311667Y-7717048D01*
X9311667Y-7717048D02*
X9302143Y-7698000D01*
X9302143Y-7698000D02*
X9283096Y-7669428D01*
X9283096Y-7669428D02*
X9273572Y-7659905D01*
X2725000Y-8079000D02*
G75*
G03*
X2725000Y-8079000I-100000J0D01*
G01*
X2963095Y-7971524D02*
X2972619Y-7962000D01*
X2972619Y-7962000D02*
X2991667Y-7952476D01*
X2991667Y-7952476D02*
X3039286Y-7952476D01*
X3039286Y-7952476D02*
X3058333Y-7962000D01*
X3058333Y-7962000D02*
X3067857Y-7971524D01*
X3067857Y-7971524D02*
X3077381Y-7990571D01*
X3077381Y-7990571D02*
X3077381Y-8009619D01*
X3077381Y-8009619D02*
X3067857Y-8038190D01*
X3067857Y-8038190D02*
X2953571Y-8152476D01*
X2953571Y-8152476D02*
X3077381Y-8152476D01*
X3163095Y-8133428D02*
X3172619Y-8142952D01*
X3172619Y-8142952D02*
X3163095Y-8152476D01*
X3163095Y-8152476D02*
X3153571Y-8142952D01*
X3153571Y-8142952D02*
X3163095Y-8133428D01*
X3163095Y-8133428D02*
X3163095Y-8152476D01*
X3296428Y-7952476D02*
X3315476Y-7952476D01*
X3315476Y-7952476D02*
X3334524Y-7962000D01*
X3334524Y-7962000D02*
X3344048Y-7971524D01*
X3344048Y-7971524D02*
X3353571Y-7990571D01*
X3353571Y-7990571D02*
X3363095Y-8028667D01*
X3363095Y-8028667D02*
X3363095Y-8076286D01*
X3363095Y-8076286D02*
X3353571Y-8114381D01*
X3353571Y-8114381D02*
X3344048Y-8133428D01*
X3344048Y-8133428D02*
X3334524Y-8142952D01*
X3334524Y-8142952D02*
X3315476Y-8152476D01*
X3315476Y-8152476D02*
X3296428Y-8152476D01*
X3296428Y-8152476D02*
X3277381Y-8142952D01*
X3277381Y-8142952D02*
X3267857Y-8133428D01*
X3267857Y-8133428D02*
X3258333Y-8114381D01*
X3258333Y-8114381D02*
X3248809Y-8076286D01*
X3248809Y-8076286D02*
X3248809Y-8028667D01*
X3248809Y-8028667D02*
X3258333Y-7990571D01*
X3258333Y-7990571D02*
X3267857Y-7971524D01*
X3267857Y-7971524D02*
X3277381Y-7962000D01*
X3277381Y-7962000D02*
X3296428Y-7952476D01*
X3477381Y-8038190D02*
X3458333Y-8028667D01*
X3458333Y-8028667D02*
X3448809Y-8019143D01*
X3448809Y-8019143D02*
X3439286Y-8000095D01*
X3439286Y-8000095D02*
X3439286Y-7990571D01*
X3439286Y-7990571D02*
X3448809Y-7971524D01*
X3448809Y-7971524D02*
X3458333Y-7962000D01*
X3458333Y-7962000D02*
X3477381Y-7952476D01*
X3477381Y-7952476D02*
X3515476Y-7952476D01*
X3515476Y-7952476D02*
X3534524Y-7962000D01*
X3534524Y-7962000D02*
X3544048Y-7971524D01*
X3544048Y-7971524D02*
X3553571Y-7990571D01*
X3553571Y-7990571D02*
X3553571Y-8000095D01*
X3553571Y-8000095D02*
X3544048Y-8019143D01*
X3544048Y-8019143D02*
X3534524Y-8028667D01*
X3534524Y-8028667D02*
X3515476Y-8038190D01*
X3515476Y-8038190D02*
X3477381Y-8038190D01*
X3477381Y-8038190D02*
X3458333Y-8047714D01*
X3458333Y-8047714D02*
X3448809Y-8057238D01*
X3448809Y-8057238D02*
X3439286Y-8076286D01*
X3439286Y-8076286D02*
X3439286Y-8114381D01*
X3439286Y-8114381D02*
X3448809Y-8133428D01*
X3448809Y-8133428D02*
X3458333Y-8142952D01*
X3458333Y-8142952D02*
X3477381Y-8152476D01*
X3477381Y-8152476D02*
X3515476Y-8152476D01*
X3515476Y-8152476D02*
X3534524Y-8142952D01*
X3534524Y-8142952D02*
X3544048Y-8133428D01*
X3544048Y-8133428D02*
X3553571Y-8114381D01*
X3553571Y-8114381D02*
X3553571Y-8076286D01*
X3553571Y-8076286D02*
X3544048Y-8057238D01*
X3544048Y-8057238D02*
X3534524Y-8047714D01*
X3534524Y-8047714D02*
X3515476Y-8038190D01*
X3620238Y-7952476D02*
X3744048Y-7952476D01*
X3744048Y-7952476D02*
X3677381Y-8028667D01*
X3677381Y-8028667D02*
X3705952Y-8028667D01*
X3705952Y-8028667D02*
X3725000Y-8038190D01*
X3725000Y-8038190D02*
X3734524Y-8047714D01*
X3734524Y-8047714D02*
X3744048Y-8066762D01*
X3744048Y-8066762D02*
X3744048Y-8114381D01*
X3744048Y-8114381D02*
X3734524Y-8133428D01*
X3734524Y-8133428D02*
X3725000Y-8142952D01*
X3725000Y-8142952D02*
X3705952Y-8152476D01*
X3705952Y-8152476D02*
X3648809Y-8152476D01*
X3648809Y-8152476D02*
X3629762Y-8142952D01*
X3629762Y-8142952D02*
X3620238Y-8133428D01*
X3829762Y-8152476D02*
X3829762Y-8019143D01*
X3829762Y-8038190D02*
X3839286Y-8028667D01*
X3839286Y-8028667D02*
X3858333Y-8019143D01*
X3858333Y-8019143D02*
X3886905Y-8019143D01*
X3886905Y-8019143D02*
X3905952Y-8028667D01*
X3905952Y-8028667D02*
X3915476Y-8047714D01*
X3915476Y-8047714D02*
X3915476Y-8152476D01*
X3915476Y-8047714D02*
X3925000Y-8028667D01*
X3925000Y-8028667D02*
X3944048Y-8019143D01*
X3944048Y-8019143D02*
X3972619Y-8019143D01*
X3972619Y-8019143D02*
X3991667Y-8028667D01*
X3991667Y-8028667D02*
X4001190Y-8047714D01*
X4001190Y-8047714D02*
X4001190Y-8152476D01*
X4096429Y-8152476D02*
X4096429Y-8019143D01*
X4096429Y-8038190D02*
X4105952Y-8028667D01*
X4105952Y-8028667D02*
X4125000Y-8019143D01*
X4125000Y-8019143D02*
X4153571Y-8019143D01*
X4153571Y-8019143D02*
X4172619Y-8028667D01*
X4172619Y-8028667D02*
X4182143Y-8047714D01*
X4182143Y-8047714D02*
X4182143Y-8152476D01*
X4182143Y-8047714D02*
X4191667Y-8028667D01*
X4191667Y-8028667D02*
X4210714Y-8019143D01*
X4210714Y-8019143D02*
X4239286Y-8019143D01*
X4239286Y-8019143D02*
X4258333Y-8028667D01*
X4258333Y-8028667D02*
X4267857Y-8047714D01*
X4267857Y-8047714D02*
X4267857Y-8152476D01*
X4625952Y-7942952D02*
X4454524Y-8200095D01*
X4850714Y-7952476D02*
X4869762Y-7952476D01*
X4869762Y-7952476D02*
X4888810Y-7962000D01*
X4888810Y-7962000D02*
X4898333Y-7971524D01*
X4898333Y-7971524D02*
X4907857Y-7990571D01*
X4907857Y-7990571D02*
X4917381Y-8028667D01*
X4917381Y-8028667D02*
X4917381Y-8076286D01*
X4917381Y-8076286D02*
X4907857Y-8114381D01*
X4907857Y-8114381D02*
X4898333Y-8133428D01*
X4898333Y-8133428D02*
X4888810Y-8142952D01*
X4888810Y-8142952D02*
X4869762Y-8152476D01*
X4869762Y-8152476D02*
X4850714Y-8152476D01*
X4850714Y-8152476D02*
X4831667Y-8142952D01*
X4831667Y-8142952D02*
X4822143Y-8133428D01*
X4822143Y-8133428D02*
X4812619Y-8114381D01*
X4812619Y-8114381D02*
X4803095Y-8076286D01*
X4803095Y-8076286D02*
X4803095Y-8028667D01*
X4803095Y-8028667D02*
X4812619Y-7990571D01*
X4812619Y-7990571D02*
X4822143Y-7971524D01*
X4822143Y-7971524D02*
X4831667Y-7962000D01*
X4831667Y-7962000D02*
X4850714Y-7952476D01*
X5003095Y-8133428D02*
X5012619Y-8142952D01*
X5012619Y-8142952D02*
X5003095Y-8152476D01*
X5003095Y-8152476D02*
X4993572Y-8142952D01*
X4993572Y-8142952D02*
X5003095Y-8133428D01*
X5003095Y-8133428D02*
X5003095Y-8152476D01*
X5136429Y-7952476D02*
X5155476Y-7952476D01*
X5155476Y-7952476D02*
X5174524Y-7962000D01*
X5174524Y-7962000D02*
X5184048Y-7971524D01*
X5184048Y-7971524D02*
X5193572Y-7990571D01*
X5193572Y-7990571D02*
X5203095Y-8028667D01*
X5203095Y-8028667D02*
X5203095Y-8076286D01*
X5203095Y-8076286D02*
X5193572Y-8114381D01*
X5193572Y-8114381D02*
X5184048Y-8133428D01*
X5184048Y-8133428D02*
X5174524Y-8142952D01*
X5174524Y-8142952D02*
X5155476Y-8152476D01*
X5155476Y-8152476D02*
X5136429Y-8152476D01*
X5136429Y-8152476D02*
X5117381Y-8142952D01*
X5117381Y-8142952D02*
X5107857Y-8133428D01*
X5107857Y-8133428D02*
X5098333Y-8114381D01*
X5098333Y-8114381D02*
X5088810Y-8076286D01*
X5088810Y-8076286D02*
X5088810Y-8028667D01*
X5088810Y-8028667D02*
X5098333Y-7990571D01*
X5098333Y-7990571D02*
X5107857Y-7971524D01*
X5107857Y-7971524D02*
X5117381Y-7962000D01*
X5117381Y-7962000D02*
X5136429Y-7952476D01*
X5317381Y-8038190D02*
X5298333Y-8028667D01*
X5298333Y-8028667D02*
X5288810Y-8019143D01*
X5288810Y-8019143D02*
X5279286Y-8000095D01*
X5279286Y-8000095D02*
X5279286Y-7990571D01*
X5279286Y-7990571D02*
X5288810Y-7971524D01*
X5288810Y-7971524D02*
X5298333Y-7962000D01*
X5298333Y-7962000D02*
X5317381Y-7952476D01*
X5317381Y-7952476D02*
X5355476Y-7952476D01*
X5355476Y-7952476D02*
X5374524Y-7962000D01*
X5374524Y-7962000D02*
X5384048Y-7971524D01*
X5384048Y-7971524D02*
X5393572Y-7990571D01*
X5393572Y-7990571D02*
X5393572Y-8000095D01*
X5393572Y-8000095D02*
X5384048Y-8019143D01*
X5384048Y-8019143D02*
X5374524Y-8028667D01*
X5374524Y-8028667D02*
X5355476Y-8038190D01*
X5355476Y-8038190D02*
X5317381Y-8038190D01*
X5317381Y-8038190D02*
X5298333Y-8047714D01*
X5298333Y-8047714D02*
X5288810Y-8057238D01*
X5288810Y-8057238D02*
X5279286Y-8076286D01*
X5279286Y-8076286D02*
X5279286Y-8114381D01*
X5279286Y-8114381D02*
X5288810Y-8133428D01*
X5288810Y-8133428D02*
X5298333Y-8142952D01*
X5298333Y-8142952D02*
X5317381Y-8152476D01*
X5317381Y-8152476D02*
X5355476Y-8152476D01*
X5355476Y-8152476D02*
X5374524Y-8142952D01*
X5374524Y-8142952D02*
X5384048Y-8133428D01*
X5384048Y-8133428D02*
X5393572Y-8114381D01*
X5393572Y-8114381D02*
X5393572Y-8076286D01*
X5393572Y-8076286D02*
X5384048Y-8057238D01*
X5384048Y-8057238D02*
X5374524Y-8047714D01*
X5374524Y-8047714D02*
X5355476Y-8038190D01*
X5469762Y-7971524D02*
X5479286Y-7962000D01*
X5479286Y-7962000D02*
X5498333Y-7952476D01*
X5498333Y-7952476D02*
X5545953Y-7952476D01*
X5545953Y-7952476D02*
X5565000Y-7962000D01*
X5565000Y-7962000D02*
X5574524Y-7971524D01*
X5574524Y-7971524D02*
X5584048Y-7990571D01*
X5584048Y-7990571D02*
X5584048Y-8009619D01*
X5584048Y-8009619D02*
X5574524Y-8038190D01*
X5574524Y-8038190D02*
X5460238Y-8152476D01*
X5460238Y-8152476D02*
X5584048Y-8152476D01*
X5707857Y-7952476D02*
X5726905Y-7952476D01*
X5726905Y-7952476D02*
X5745952Y-7962000D01*
X5745952Y-7962000D02*
X5755476Y-7971524D01*
X5755476Y-7971524D02*
X5765000Y-7990571D01*
X5765000Y-7990571D02*
X5774524Y-8028667D01*
X5774524Y-8028667D02*
X5774524Y-8076286D01*
X5774524Y-8076286D02*
X5765000Y-8114381D01*
X5765000Y-8114381D02*
X5755476Y-8133428D01*
X5755476Y-8133428D02*
X5745952Y-8142952D01*
X5745952Y-8142952D02*
X5726905Y-8152476D01*
X5726905Y-8152476D02*
X5707857Y-8152476D01*
X5707857Y-8152476D02*
X5688810Y-8142952D01*
X5688810Y-8142952D02*
X5679286Y-8133428D01*
X5679286Y-8133428D02*
X5669762Y-8114381D01*
X5669762Y-8114381D02*
X5660238Y-8076286D01*
X5660238Y-8076286D02*
X5660238Y-8028667D01*
X5660238Y-8028667D02*
X5669762Y-7990571D01*
X5669762Y-7990571D02*
X5679286Y-7971524D01*
X5679286Y-7971524D02*
X5688810Y-7962000D01*
X5688810Y-7962000D02*
X5707857Y-7952476D01*
X5850714Y-7952476D02*
X5850714Y-7990571D01*
X5926905Y-7952476D02*
X5926905Y-7990571D01*
X6189762Y-8228667D02*
X6180238Y-8219143D01*
X6180238Y-8219143D02*
X6161191Y-8190571D01*
X6161191Y-8190571D02*
X6151667Y-8171524D01*
X6151667Y-8171524D02*
X6142143Y-8142952D01*
X6142143Y-8142952D02*
X6132619Y-8095333D01*
X6132619Y-8095333D02*
X6132619Y-8057238D01*
X6132619Y-8057238D02*
X6142143Y-8009619D01*
X6142143Y-8009619D02*
X6151667Y-7981048D01*
X6151667Y-7981048D02*
X6161191Y-7962000D01*
X6161191Y-7962000D02*
X6180238Y-7933428D01*
X6180238Y-7933428D02*
X6189762Y-7923905D01*
X6370714Y-8152476D02*
X6256429Y-8152476D01*
X6313571Y-8152476D02*
X6313571Y-7952476D01*
X6313571Y-7952476D02*
X6294524Y-7981048D01*
X6294524Y-7981048D02*
X6275476Y-8000095D01*
X6275476Y-8000095D02*
X6256429Y-8009619D01*
X6576429Y-8152476D02*
X6576429Y-7952476D01*
X6662143Y-8152476D02*
X6662143Y-8047714D01*
X6662143Y-8047714D02*
X6652619Y-8028667D01*
X6652619Y-8028667D02*
X6633572Y-8019143D01*
X6633572Y-8019143D02*
X6605000Y-8019143D01*
X6605000Y-8019143D02*
X6585952Y-8028667D01*
X6585952Y-8028667D02*
X6576429Y-8038190D01*
X6785952Y-8152476D02*
X6766905Y-8142952D01*
X6766905Y-8142952D02*
X6757381Y-8133428D01*
X6757381Y-8133428D02*
X6747857Y-8114381D01*
X6747857Y-8114381D02*
X6747857Y-8057238D01*
X6747857Y-8057238D02*
X6757381Y-8038190D01*
X6757381Y-8038190D02*
X6766905Y-8028667D01*
X6766905Y-8028667D02*
X6785952Y-8019143D01*
X6785952Y-8019143D02*
X6814524Y-8019143D01*
X6814524Y-8019143D02*
X6833572Y-8028667D01*
X6833572Y-8028667D02*
X6843095Y-8038190D01*
X6843095Y-8038190D02*
X6852619Y-8057238D01*
X6852619Y-8057238D02*
X6852619Y-8114381D01*
X6852619Y-8114381D02*
X6843095Y-8133428D01*
X6843095Y-8133428D02*
X6833572Y-8142952D01*
X6833572Y-8142952D02*
X6814524Y-8152476D01*
X6814524Y-8152476D02*
X6785952Y-8152476D01*
X6966905Y-8152476D02*
X6947857Y-8142952D01*
X6947857Y-8142952D02*
X6938333Y-8123905D01*
X6938333Y-8123905D02*
X6938333Y-7952476D01*
X7119286Y-8142952D02*
X7100238Y-8152476D01*
X7100238Y-8152476D02*
X7062143Y-8152476D01*
X7062143Y-8152476D02*
X7043095Y-8142952D01*
X7043095Y-8142952D02*
X7033572Y-8123905D01*
X7033572Y-8123905D02*
X7033572Y-8047714D01*
X7033572Y-8047714D02*
X7043095Y-8028667D01*
X7043095Y-8028667D02*
X7062143Y-8019143D01*
X7062143Y-8019143D02*
X7100238Y-8019143D01*
X7100238Y-8019143D02*
X7119286Y-8028667D01*
X7119286Y-8028667D02*
X7128810Y-8047714D01*
X7128810Y-8047714D02*
X7128810Y-8066762D01*
X7128810Y-8066762D02*
X7033572Y-8085809D01*
X7195476Y-8228667D02*
X7205000Y-8219143D01*
X7205000Y-8219143D02*
X7224048Y-8190571D01*
X7224048Y-8190571D02*
X7233572Y-8171524D01*
X7233572Y-8171524D02*
X7243095Y-8142952D01*
X7243095Y-8142952D02*
X7252619Y-8095333D01*
X7252619Y-8095333D02*
X7252619Y-8057238D01*
X7252619Y-8057238D02*
X7243095Y-8009619D01*
X7243095Y-8009619D02*
X7233572Y-7981048D01*
X7233572Y-7981048D02*
X7224048Y-7962000D01*
X7224048Y-7962000D02*
X7205000Y-7933428D01*
X7205000Y-7933428D02*
X7195476Y-7923905D01*
X7525000Y-8228667D02*
X7515476Y-8219143D01*
X7515476Y-8219143D02*
X7496429Y-8190571D01*
X7496429Y-8190571D02*
X7486905Y-8171524D01*
X7486905Y-8171524D02*
X7477381Y-8142952D01*
X7477381Y-8142952D02*
X7467857Y-8095333D01*
X7467857Y-8095333D02*
X7467857Y-8057238D01*
X7467857Y-8057238D02*
X7477381Y-8009619D01*
X7477381Y-8009619D02*
X7486905Y-7981048D01*
X7486905Y-7981048D02*
X7496429Y-7962000D01*
X7496429Y-7962000D02*
X7515476Y-7933428D01*
X7515476Y-7933428D02*
X7525000Y-7923905D01*
X7601191Y-8019143D02*
X7601191Y-8152476D01*
X7601191Y-8038190D02*
X7610714Y-8028667D01*
X7610714Y-8028667D02*
X7629762Y-8019143D01*
X7629762Y-8019143D02*
X7658333Y-8019143D01*
X7658333Y-8019143D02*
X7677381Y-8028667D01*
X7677381Y-8028667D02*
X7686905Y-8047714D01*
X7686905Y-8047714D02*
X7686905Y-8152476D01*
X7810714Y-8152476D02*
X7791667Y-8142952D01*
X7791667Y-8142952D02*
X7782143Y-8133428D01*
X7782143Y-8133428D02*
X7772619Y-8114381D01*
X7772619Y-8114381D02*
X7772619Y-8057238D01*
X7772619Y-8057238D02*
X7782143Y-8038190D01*
X7782143Y-8038190D02*
X7791667Y-8028667D01*
X7791667Y-8028667D02*
X7810714Y-8019143D01*
X7810714Y-8019143D02*
X7839286Y-8019143D01*
X7839286Y-8019143D02*
X7858333Y-8028667D01*
X7858333Y-8028667D02*
X7867857Y-8038190D01*
X7867857Y-8038190D02*
X7877381Y-8057238D01*
X7877381Y-8057238D02*
X7877381Y-8114381D01*
X7877381Y-8114381D02*
X7867857Y-8133428D01*
X7867857Y-8133428D02*
X7858333Y-8142952D01*
X7858333Y-8142952D02*
X7839286Y-8152476D01*
X7839286Y-8152476D02*
X7810714Y-8152476D01*
X7934524Y-8019143D02*
X8010714Y-8019143D01*
X7963095Y-7952476D02*
X7963095Y-8123905D01*
X7963095Y-8123905D02*
X7972619Y-8142952D01*
X7972619Y-8142952D02*
X7991667Y-8152476D01*
X7991667Y-8152476D02*
X8010714Y-8152476D01*
X8197381Y-8019143D02*
X8197381Y-8219143D01*
X8197381Y-8028667D02*
X8216429Y-8019143D01*
X8216429Y-8019143D02*
X8254524Y-8019143D01*
X8254524Y-8019143D02*
X8273572Y-8028667D01*
X8273572Y-8028667D02*
X8283095Y-8038190D01*
X8283095Y-8038190D02*
X8292619Y-8057238D01*
X8292619Y-8057238D02*
X8292619Y-8114381D01*
X8292619Y-8114381D02*
X8283095Y-8133428D01*
X8283095Y-8133428D02*
X8273572Y-8142952D01*
X8273572Y-8142952D02*
X8254524Y-8152476D01*
X8254524Y-8152476D02*
X8216429Y-8152476D01*
X8216429Y-8152476D02*
X8197381Y-8142952D01*
X8406905Y-8152476D02*
X8387857Y-8142952D01*
X8387857Y-8142952D02*
X8378333Y-8123905D01*
X8378333Y-8123905D02*
X8378333Y-7952476D01*
X8568810Y-8152476D02*
X8568810Y-8047714D01*
X8568810Y-8047714D02*
X8559286Y-8028667D01*
X8559286Y-8028667D02*
X8540238Y-8019143D01*
X8540238Y-8019143D02*
X8502143Y-8019143D01*
X8502143Y-8019143D02*
X8483095Y-8028667D01*
X8568810Y-8142952D02*
X8549762Y-8152476D01*
X8549762Y-8152476D02*
X8502143Y-8152476D01*
X8502143Y-8152476D02*
X8483095Y-8142952D01*
X8483095Y-8142952D02*
X8473572Y-8123905D01*
X8473572Y-8123905D02*
X8473572Y-8104857D01*
X8473572Y-8104857D02*
X8483095Y-8085809D01*
X8483095Y-8085809D02*
X8502143Y-8076286D01*
X8502143Y-8076286D02*
X8549762Y-8076286D01*
X8549762Y-8076286D02*
X8568810Y-8066762D01*
X8635476Y-8019143D02*
X8711667Y-8019143D01*
X8664048Y-7952476D02*
X8664048Y-8123905D01*
X8664048Y-8123905D02*
X8673572Y-8142952D01*
X8673572Y-8142952D02*
X8692619Y-8152476D01*
X8692619Y-8152476D02*
X8711667Y-8152476D01*
X8854524Y-8142952D02*
X8835476Y-8152476D01*
X8835476Y-8152476D02*
X8797381Y-8152476D01*
X8797381Y-8152476D02*
X8778334Y-8142952D01*
X8778334Y-8142952D02*
X8768810Y-8123905D01*
X8768810Y-8123905D02*
X8768810Y-8047714D01*
X8768810Y-8047714D02*
X8778334Y-8028667D01*
X8778334Y-8028667D02*
X8797381Y-8019143D01*
X8797381Y-8019143D02*
X8835476Y-8019143D01*
X8835476Y-8019143D02*
X8854524Y-8028667D01*
X8854524Y-8028667D02*
X8864048Y-8047714D01*
X8864048Y-8047714D02*
X8864048Y-8066762D01*
X8864048Y-8066762D02*
X8768810Y-8085809D01*
X9035476Y-8152476D02*
X9035476Y-7952476D01*
X9035476Y-8142952D02*
X9016429Y-8152476D01*
X9016429Y-8152476D02*
X8978334Y-8152476D01*
X8978334Y-8152476D02*
X8959286Y-8142952D01*
X8959286Y-8142952D02*
X8949762Y-8133428D01*
X8949762Y-8133428D02*
X8940238Y-8114381D01*
X8940238Y-8114381D02*
X8940238Y-8057238D01*
X8940238Y-8057238D02*
X8949762Y-8038190D01*
X8949762Y-8038190D02*
X8959286Y-8028667D01*
X8959286Y-8028667D02*
X8978334Y-8019143D01*
X8978334Y-8019143D02*
X9016429Y-8019143D01*
X9016429Y-8019143D02*
X9035476Y-8028667D01*
X9111667Y-8228667D02*
X9121191Y-8219143D01*
X9121191Y-8219143D02*
X9140238Y-8190571D01*
X9140238Y-8190571D02*
X9149762Y-8171524D01*
X9149762Y-8171524D02*
X9159286Y-8142952D01*
X9159286Y-8142952D02*
X9168810Y-8095333D01*
X9168810Y-8095333D02*
X9168810Y-8057238D01*
X9168810Y-8057238D02*
X9159286Y-8009619D01*
X9159286Y-8009619D02*
X9149762Y-7981048D01*
X9149762Y-7981048D02*
X9140238Y-7962000D01*
X9140238Y-7962000D02*
X9121191Y-7933428D01*
X9121191Y-7933428D02*
X9111667Y-7923905D01*
M02*
